<svg id="Capa_1" enable-background="new 0 0 510 510" height="512" viewBox="0 0 510 510" width="512" xmlns="http://www.w3.org/2000/svg" xmlns:xlink="http://www.w3.org/1999/xlink"><linearGradient id="lg1"><stop offset="0" stop-color="#f2fbff"/><stop offset=".593" stop-color="#faf7f7"/><stop offset="1" stop-color="#f3eae6"/></linearGradient><linearGradient id="SVGID_1_" gradientUnits="userSpaceOnUse" x1="-152" x2="323.118" xlink:href="#lg1" y1="207.75" y2="207.75"/><linearGradient id="lg2"><stop offset="0" stop-color="#f3eae6"/><stop offset="1" stop-color="#cdbfba"/></linearGradient><linearGradient id="SVGID_2_" gradientUnits="userSpaceOnUse" x1="62.667" x2="460.012" xlink:href="#lg2" y1="207.75" y2="207.75"/><linearGradient id="lg3"><stop offset="0" stop-color="#cdbfba"/><stop offset="1" stop-color="#766e6e"/></linearGradient><linearGradient id="SVGID_3_" gradientUnits="userSpaceOnUse" x1="245" x2="265" xlink:href="#lg3" y1="419.998" y2="419.998"/><linearGradient id="SVGID_4_" gradientUnits="userSpaceOnUse" x1="11.045" x2="544.274" xlink:href="#lg3" y1="36.75" y2="36.75"/><linearGradient id="SVGID_5_" gradientUnits="userSpaceOnUse" x1="34.377" x2="516.607" xlink:href="#lg1" y1="36.75" y2="36.75"/><linearGradient id="SVGID_6_" gradientUnits="userSpaceOnUse" x1="394.94" x2="474.705" xlink:href="#lg2" y1="36.75" y2="36.75"/><linearGradient id="SVGID_7_" gradientUnits="userSpaceOnUse" x1="11.045" x2="544.274" xlink:href="#lg3" y1="378.75" y2="378.75"/><linearGradient id="SVGID_8_" gradientUnits="userSpaceOnUse" x1="34.377" x2="516.607" xlink:href="#lg1" y1="378.75" y2="378.75"/><linearGradient id="SVGID_9_" gradientUnits="userSpaceOnUse" x1="394.94" x2="474.705" xlink:href="#lg2" y1="378.75" y2="378.75"/><linearGradient id="SVGID_10_" gradientUnits="userSpaceOnUse" x1="215.334" x2="295.334" xlink:href="#lg3" y1="470" y2="470"/><linearGradient id="SVGID_11_" gradientUnits="userSpaceOnUse" x1="110" x2="192.024" y1="289.002" y2="289.002"><stop offset="0" stop-color="#fe99a0"/><stop offset=".593" stop-color="#fe646f"/><stop offset="1" stop-color="#e41f2d"/></linearGradient><linearGradient id="SVGID_12_" gradientUnits="userSpaceOnUse" x1="220" x2="296.771" y1="266.591" y2="266.591"><stop offset="0" stop-color="#ffe177"/><stop offset="1" stop-color="#feb137"/></linearGradient><linearGradient id="SVGID_13_" gradientUnits="userSpaceOnUse" x1="322" x2="419.005" y1="239.502" y2="239.502"><stop offset="0" stop-color="#b0e7c9"/><stop offset=".593" stop-color="#46cc8d"/><stop offset="1" stop-color="#0ab69f"/></linearGradient><linearGradient id="SVGID_14_" gradientUnits="userSpaceOnUse" x1="104.868" x2="405.132" y1="156.485" y2="156.485"><stop offset="0" stop-color="#01d0fb"/><stop offset=".6075" stop-color="#26a6fe"/><stop offset="1" stop-color="#0182fc"/></linearGradient><linearGradient id="SVGID_15_" gradientUnits="userSpaceOnUse" x1="328" x2="375.189" y1="93.087" y2="93.087"><stop offset="0" stop-color="#01bffa"/><stop offset="1" stop-color="#5b5cff"/></linearGradient><g><path d="m53.5 50.25h403v315h-403z" fill="url(#SVGID_1_)"/><path d="m53.5 50.25v23.8c0 13.206 10.706 23.911 23.911 23.911h339.069v267.289h40.02v-315z" fill="url(#SVGID_2_)"/><path d="m255 447.998c-5.523 0-10-4.477-10-10v-36c0-5.523 4.477-10 10-10 5.522 0 10 4.477 10 10v36c0 5.523-4.478 10-10 10z" fill="url(#SVGID_3_)"/><g><g><path d="m468.536 60.833h-427.072c-12.959 0-23.464-10.505-23.464-23.464v-1.238c0-12.959 10.505-23.464 23.464-23.464h427.071c12.959 0 23.464 10.505 23.464 23.464v1.238c.001 12.959-10.504 23.464-23.463 23.464z" fill="url(#SVGID_4_)"/><path d="m434.96 73.5h-359.92c-18.984 0-34.373-15.389-34.373-34.373v-4.754c0-18.984 15.389-34.373 34.373-34.373h359.92c18.984 0 34.373 15.389 34.373 34.373v4.754c0 18.984-15.389 34.373-34.373 34.373z" fill="url(#SVGID_5_)"/><path d="m434.96 0h-40.02c18.984 0 34.373 15.389 34.373 34.373v4.754c0 18.984-15.389 34.373-34.373 34.373h40.02c18.984 0 34.373-15.389 34.373-34.373v-4.754c0-18.984-15.389-34.373-34.373-34.373z" fill="url(#SVGID_6_)"/></g><g><path d="m468.536 402.833h-427.072c-12.959 0-23.464-10.505-23.464-23.464v-1.238c0-12.959 10.505-23.464 23.464-23.464h427.071c12.959 0 23.464 10.505 23.464 23.464v1.238c.001 12.959-10.504 23.464-23.463 23.464z" fill="url(#SVGID_7_)"/><path d="m434.96 415.5h-359.92c-18.984 0-34.373-15.389-34.373-34.373v-4.754c0-18.984 15.389-34.373 34.373-34.373h359.92c18.984 0 34.373 15.389 34.373 34.373v4.754c0 18.984-15.389 34.373-34.373 34.373z" fill="url(#SVGID_8_)"/><path d="m434.96 342h-40.02c18.984 0 34.373 15.389 34.373 34.373v4.754c0 18.984-15.389 34.373-34.373 34.373h40.02c18.984 0 34.373-15.389 34.373-34.373v-4.754c0-18.984-15.389-34.373-34.373-34.373z" fill="url(#SVGID_9_)"/></g></g><path d="m255.333 510c-22.056 0-40-17.944-40-40s17.944-40 40-40 40 17.944 40 40-17.943 40-40 40zm0-60c-11.028 0-20 8.972-20 20s8.972 20 20 20 20-8.972 20-20-8.972-20-20-20z" fill="url(#SVGID_10_)"/><g><path d="m170.148 331.002h-48.898c-5.109 0-9.25-4.141-9.25-9.25v-65.5c0-5.109 4.141-9.25 9.25-9.25h48.898c5.109 0 9.25 4.141 9.25 9.25v65.5c0 5.109-4.142 9.25-9.25 9.25z" fill="url(#SVGID_11_)"/><path d="m279.449 331.002h-48.898c-5.109 0-9.25-4.141-9.25-9.25v-110.322c0-5.109 4.141-9.25 9.25-9.25h48.898c5.109 0 9.25 4.141 9.25 9.25v110.323c0 5.108-4.141 9.249-9.25 9.249z" fill="url(#SVGID_12_)"/><path d="m388.75 331.002h-48.898c-5.109 0-9.25-4.141-9.25-9.25v-164.5c0-5.109 4.141-9.25 9.25-9.25h48.898c5.109 0 9.25 4.141 9.25 9.25v164.5c0 5.109-4.141 9.25-9.25 9.25z" fill="url(#SVGID_13_)"/></g><path d="m397.837 96.245-30.396-7.723c-7.637-1.94-14.264 5.58-11.378 12.912l2.95 7.496-247.771 96.505c-5.146 2.005-7.693 7.801-5.689 12.948 1.54 3.954 5.318 6.373 9.321 6.373 1.207 0 2.435-.22 3.627-.684l247.837-96.531 3.142 7.984c2.886 7.333 12.861 8.319 17.127 1.694l16.979-26.368c3.576-5.554.654-12.979-5.749-14.606z" fill="url(#SVGID_14_)"/><path d="m397.837 96.245-30.396-7.723c-6.422-1.631-12.105 3.429-12.044 9.439h45.954c-1.005-.774-2.178-1.377-3.514-1.716z" fill="url(#SVGID_15_)"/></g></svg>