<svg id="Capa_1" enable-background="new 0 0 510 510" height="512" viewBox="0 0 510 510" width="512" xmlns="http://www.w3.org/2000/svg" xmlns:xlink="http://www.w3.org/1999/xlink"><linearGradient id="lg1"><stop offset="0" stop-color="#cdbfba"/><stop offset="1" stop-color="#766e6e"/></linearGradient><linearGradient id="SVGID_1_" gradientUnits="userSpaceOnUse" x1="107" x2="399.139" xlink:href="#lg1" y1="428.103" y2="428.103"/><linearGradient id="lg2"><stop offset="0" stop-color="#9e9797"/><stop offset="1" stop-color="#5b5555"/></linearGradient><linearGradient id="SVGID_2_" gradientUnits="userSpaceOnUse" x1="215" x2="316.242" xlink:href="#lg2" y1="391.403" y2="391.403"/><linearGradient id="SVGID_3_" gradientUnits="userSpaceOnUse" x1="1.602" x2="502.582" xlink:href="#lg1" y1="203.897" y2="203.897"/><linearGradient id="SVGID_4_" gradientUnits="userSpaceOnUse" x1="308" x2="505.649" xlink:href="#lg2" y1="203.897" y2="203.897"/><linearGradient id="SVGID_5_" gradientUnits="userSpaceOnUse" x1="-47" x2="418.244" y1="203.897" y2="203.897"><stop offset="0" stop-color="#b0e7c9"/><stop offset=".593" stop-color="#46cc8d"/><stop offset="1" stop-color="#0ab69f"/></linearGradient><linearGradient id="lg3"><stop offset="0" stop-color="#46cc8d"/><stop offset=".5484" stop-color="#0ab69f"/><stop offset="1" stop-color="#01998d"/></linearGradient><linearGradient id="SVGID_6_" gradientUnits="userSpaceOnUse" x1="406" x2="480.027" xlink:href="#lg3" y1="203.897" y2="203.897"/><linearGradient id="SVGID_7_" gradientUnits="userSpaceOnUse" x1="90.667" x2="425.626" xlink:href="#lg3" y1="203.897" y2="203.897"/><linearGradient id="SVGID_8_" gradientUnits="userSpaceOnUse" x1="83.967" x2="446.048" y1="203.897" y2="203.897"><stop offset="0" stop-color="#fff9df"/><stop offset=".593" stop-color="#ffe177"/><stop offset="1" stop-color="#feb137"/></linearGradient><linearGradient id="SVGID_9_" gradientUnits="userSpaceOnUse" x1="216.667" x2="429.128" y1="203.897" y2="203.897"><stop offset="0" stop-color="#ffe177"/><stop offset="1" stop-color="#feb137"/></linearGradient><linearGradient id="SVGID_10_" gradientUnits="userSpaceOnUse" x1="174.833" x2="344.548" y1="203.897" y2="203.897"><stop offset="0" stop-color="#fe99a0"/><stop offset=".593" stop-color="#fe646f"/><stop offset="1" stop-color="#e41f2d"/></linearGradient><linearGradient id="SVGID_11_" gradientUnits="userSpaceOnUse" x1="232" x2="352.224" y1="203.897" y2="203.897"><stop offset="0" stop-color="#fe646f"/><stop offset=".7043" stop-color="#e41f2d"/><stop offset="1" stop-color="#c41926"/></linearGradient><g><path d="m374.376 421.103h-23.376c-25.405 0-46-20.595-46-46h-100c0 25.405-20.595 46-46 46h-23.376c-16.347 0-30.164 12.817-30.612 29.157-.465 16.954 13.14 30.843 29.988 30.843h240c16.849 0 30.453-13.889 29.988-30.843-.448-16.341-14.265-29.157-30.612-29.157z" fill="url(#SVGID_1_)"/><path d="m194.853 403.908h120.293c-5.599-6.96-9.208-15.582-9.978-25.011h-100.336c-.771 9.43-4.38 18.051-9.979 25.011z" fill="url(#SVGID_2_)"/><path d="m478.077 378.897h-446.154c-17.631 0-31.923-14.292-31.923-31.922v-286.155c0-17.63 14.292-31.923 31.923-31.923h446.154c17.631 0 31.923 14.293 31.923 31.923v286.154c0 17.631-14.292 31.923-31.923 31.923z" fill="url(#SVGID_3_)"/><path d="m478.077 28.897h-41.025c17.63 0 31.923 14.292 31.923 31.923v286.155c0 17.63-14.292 31.923-31.923 31.923h41.025c17.63 0 31.923-14.292 31.923-31.923v-286.155c0-17.63-14.292-31.923-31.923-31.923z" fill="url(#SVGID_4_)"/><path d="m457.015 343.144h-404.03c-14.903 0-26.985-12.081-26.985-26.985v-224.524c0-14.903 12.082-26.985 26.985-26.985h404.03c14.903 0 26.985 12.082 26.985 26.985v224.524c0 14.904-12.082 26.985-26.985 26.985z" fill="url(#SVGID_5_)"/><path d="m468.975 67.445v272.904c8.902-4.41 15.025-13.583 15.025-24.19v-224.524c0-10.607-6.123-19.78-15.025-24.19z" fill="url(#SVGID_6_)"/><path d="m255 333.359c-76.361 0-147.817-39.601-191.145-105.932-9.337-14.293-9.337-32.765 0-47.059 43.328-66.331 114.784-105.932 191.145-105.932s147.817 39.601 191.145 105.932c9.337 14.293 9.337 32.765 0 47.059-43.328 66.331-114.784 105.932-191.145 105.932z" fill="url(#SVGID_7_)"/><path d="m255 94.436c-72.324 0-136.174 38.349-174.401 96.869-4.991 7.641-4.991 17.543 0 25.184 38.227 58.521 102.077 96.869 174.401 96.869s136.175-38.349 174.401-96.869c4.991-7.641 4.991-17.543 0-25.184-38.226-58.52-102.077-96.869-174.401-96.869z" fill="url(#SVGID_8_)"/><path d="m429.401 191.305c-38.226-58.52-102.077-96.869-174.401-96.869-6.749 0-13.423.335-20.01.988 64.007 6.345 119.731 42.821 154.391 95.881 4.991 7.641 4.991 17.543 0 25.184-34.659 53.06-90.384 89.536-154.391 95.881 6.587.653 13.261.988 20.01.988 72.324 0 136.175-38.349 174.401-96.869 4.991-7.641 4.991-17.543 0-25.184z" fill="url(#SVGID_9_)"/><circle cx="255" cy="203.897" fill="url(#SVGID_10_)" r="83.5"/><path d="m255 120.397c-6.9 0-13.597.853-20.01 2.431 36.449 8.967 63.49 41.853 63.49 81.069s-27.041 72.102-63.49 81.069c6.413 1.578 13.11 2.431 20.01 2.431 46.116 0 83.5-37.384 83.5-83.5s-37.384-83.5-83.5-83.5z" fill="url(#SVGID_11_)"/></g></svg>