<svg id="Capa_1" enable-background="new 0 0 510 510" height="512" viewBox="0 0 510 510" width="512" xmlns="http://www.w3.org/2000/svg" xmlns:xlink="http://www.w3.org/1999/xlink"><linearGradient id="lg1"><stop offset="0" stop-color="#ffdcbd"/><stop offset=".0028" stop-color="#ffdcbd"/><stop offset="1" stop-color="#ffa9b1"/></linearGradient><linearGradient id="SVGID_1_" gradientUnits="userSpaceOnUse" x1="172.795" x2="293.392" xlink:href="#lg1" y1="81.076" y2="81.076"/><linearGradient id="SVGID_2_" gradientUnits="userSpaceOnUse" x1="113.994" x2="473.116" xlink:href="#lg1" y1="327.857" y2="327.857"/><linearGradient id="SVGID_3_" gradientUnits="userSpaceOnUse" x1="362.394" x2="504.756" y1="327.857" y2="327.857"><stop offset="0" stop-color="#ffc2b5"/><stop offset="1" stop-color="#ff89a8"/></linearGradient><linearGradient id="SVGID_4_" gradientUnits="userSpaceOnUse" x1="52.751" x2="119.554" y1="327.857" y2="327.857"><stop offset="0" stop-color="#f2fbff"/><stop offset=".593" stop-color="#faf7f7"/><stop offset="1" stop-color="#f3eae6"/></linearGradient><linearGradient id="SVGID_5_" gradientUnits="userSpaceOnUse" x1="-3.106" x2="86.784" y1="327.857" y2="327.857"><stop offset="0" stop-color="#01d0fb"/><stop offset=".6075" stop-color="#26a6fe"/><stop offset="1" stop-color="#0182fc"/></linearGradient><g><path d="m228.893 0c-13.748 0-24.893 11.145-24.893 24.893v75.253c0 24.443-11.574 47.442-31.205 62.007h128.348v-89.903c0-39.903-32.348-72.25-72.25-72.25z" fill="url(#SVGID_1_)"/><g><g><path d="m497.857 192.18c0-25.662-20.803-46.466-46.465-46.466h-237.771c-15.222 0-29.771 5.975-40.826 16.438-22.925 21.697-53.741 35.139-87.695 35.58l.012.022v260.204l-.012.022c33.953.441 64.769 13.883 87.695 35.581 11.055 10.464 25.604 16.439 40.826 16.439h237.771c25.662 0 46.465-20.803 46.465-46.465 0-10.999-3.823-21.101-10.211-29.056-7.641-9.515-7.641-22.825 0-32.339 6.389-7.955 10.211-18.058 10.211-29.056 0-10.999-3.823-21.101-10.211-29.056-7.641-9.514-7.641-22.825 0-32.339 6.389-7.955 10.211-18.058 10.211-29.056 0-10.999-3.823-21.101-10.211-29.056-7.641-9.515-7.641-22.824 0-32.339 6.388-7.957 10.211-18.06 10.211-29.058z" fill="url(#SVGID_2_)"/><path d="m497.857 192.18c0-25.662-20.803-46.466-46.465-46.466h-52.246c25.662 0 46.465 20.803 46.465 46.465 0 10.999-3.823 21.101-10.211 29.056-7.641 9.515-7.641 22.824 0 32.339 6.389 7.955 10.211 18.057 10.211 29.056 0 10.999-3.823 21.101-10.211 29.056-7.641 9.514-7.641 22.824 0 32.339 6.389 7.955 10.211 18.058 10.211 29.056 0 10.999-3.823 21.101-10.211 29.056-7.641 9.515-7.641 22.824 0 32.339 6.389 7.955 10.211 18.058 10.211 29.056 0 25.662-20.803 46.465-46.465 46.465h52.246c25.662 0 46.465-20.803 46.465-46.465 0-10.999-3.823-21.101-10.211-29.056-7.641-9.515-7.641-22.824 0-32.339 6.389-7.955 10.211-18.057 10.211-29.056 0-10.999-3.823-21.101-10.211-29.056-7.641-9.514-7.641-22.824 0-32.339 6.389-7.955 10.211-18.057 10.211-29.056 0-10.999-3.823-21.101-10.211-29.056-7.641-9.515-7.641-22.824 0-32.339 6.388-7.954 10.211-18.057 10.211-29.055z" fill="url(#SVGID_3_)"/></g><g><path d="m66.782 490.202v-324.69h23.745c20.418 0 36.97 16.552 36.97 36.97v250.75c0 20.418-16.552 36.97-36.97 36.97z" fill="url(#SVGID_4_)"/><path d="m12.143 486.255v-316.796c0-13.114 10.631-23.745 23.745-23.745 20.418 0 36.97 16.552 36.97 36.97v290.346c0 20.418-16.552 36.97-36.97 36.97-13.114 0-23.745-10.631-23.745-23.745z" fill="url(#SVGID_5_)"/></g></g></g></svg>