<svg id="Capa_1" enable-background="new 0 0 510 510" height="512" viewBox="0 0 510 510" width="512" xmlns="http://www.w3.org/2000/svg" xmlns:xlink="http://www.w3.org/1999/xlink"><linearGradient id="SVGID_1_" gradientUnits="userSpaceOnUse" x1="1.602" x2="502.582" y1="255" y2="255"><stop offset="0" stop-color="#f2fbff"/><stop offset=".593" stop-color="#faf7f7"/><stop offset="1" stop-color="#f3eae6"/></linearGradient><linearGradient id="SVGID_2_" gradientUnits="userSpaceOnUse" x1="1.602" x2="502.582" y1="255" y2="255"><stop offset="0" stop-color="#f3eae6"/><stop offset="1" stop-color="#cdbfba"/></linearGradient><linearGradient id="SVGID_3_" gradientUnits="userSpaceOnUse" x1="1.602" x2="502.582" y1="82.835" y2="82.835"><stop offset="0" stop-color="#01d0fb"/><stop offset=".6075" stop-color="#26a6fe"/><stop offset="1" stop-color="#0182fc"/></linearGradient><linearGradient id="lg1"><stop offset="0" stop-color="#01bffa"/><stop offset=".2539" stop-color="#1f9efc"/><stop offset=".5724" stop-color="#407afd"/><stop offset=".8326" stop-color="#5464ff"/><stop offset="1" stop-color="#5b5cff"/></linearGradient><linearGradient id="SVGID_4_" gradientUnits="userSpaceOnUse" x1="365" x2="527.25" xlink:href="#lg1" y1="82.835" y2="82.835"/><linearGradient id="SVGID_5_" gradientUnits="userSpaceOnUse" x1="20.667" x2="136.694" xlink:href="#lg1" y1="82.835" y2="82.835"/><linearGradient id="lg2"><stop offset="0" stop-color="#fe99a0"/><stop offset=".593" stop-color="#fe646f"/><stop offset="1" stop-color="#e41f2d"/></linearGradient><linearGradient id="SVGID_6_" gradientUnits="userSpaceOnUse" x1="31.046" x2="75.11" xlink:href="#lg2" y1="82.835" y2="82.835"/><linearGradient id="SVGID_7_" gradientUnits="userSpaceOnUse" x1="98" x2="214.027" xlink:href="#lg1" y1="82.835" y2="82.835"/><linearGradient id="SVGID_8_" gradientUnits="userSpaceOnUse" x1="108.379" x2="152.443" y1="82.835" y2="82.835"><stop offset="0" stop-color="#ffe177"/><stop offset="1" stop-color="#feb137"/></linearGradient><linearGradient id="SVGID_9_" gradientUnits="userSpaceOnUse" x1="175.333" x2="291.36" xlink:href="#lg1" y1="82.835" y2="82.835"/><linearGradient id="SVGID_10_" gradientUnits="userSpaceOnUse" x1="185.712" x2="229.776" y1="82.835" y2="82.835"><stop offset="0" stop-color="#b0e7c9"/><stop offset=".593" stop-color="#46cc8d"/><stop offset="1" stop-color="#0ab69f"/></linearGradient><linearGradient id="SVGID_11_" gradientUnits="userSpaceOnUse" x1="-29.333" x2="591.334" xlink:href="#lg2" y1="294.114" y2="294.114"/><linearGradient id="SVGID_12_" gradientUnits="userSpaceOnUse" x1="-29.333" x2="591.334" xlink:href="#lg2" y1="293.939" y2="293.939"/><g><path d="m478.077 466.104h-446.154c-17.631 0-31.923-14.292-31.923-31.923v-358.362c0-17.63 14.292-31.923 31.923-31.923h446.154c17.63 0 31.923 14.292 31.923 31.923v358.363c0 17.63-14.292 31.922-31.923 31.922z" fill="url(#SVGID_1_)"/><path d="m478.077 43.896h-446.154c-17.631 0-31.923 14.292-31.923 31.923v70.966h468.975v287.397c0 17.63-14.292 31.923-31.923 31.923h41.024c17.63 0 31.923-14.292 31.923-31.923v-358.363c.001-17.631-14.291-31.923-31.922-31.923z" fill="url(#SVGID_2_)"/><path d="m510 121.774h-510v-45.955c0-17.63 14.292-31.923 31.923-31.923h446.154c17.63 0 31.923 14.292 31.923 31.923z" fill="url(#SVGID_3_)"/><path d="m478.077 43.896h-40.02c17.631 0 31.923 14.292 31.923 31.923v45.955h40.02v-45.955c0-17.631-14.292-31.923-31.923-31.923z" fill="url(#SVGID_4_)"/><g><circle cx="53.333" cy="82.835" fill="url(#SVGID_5_)" r="33.061"/><circle cx="53.333" cy="82.835" fill="url(#SVGID_6_)" r="22.429"/></g><g><circle cx="130.667" cy="82.835" fill="url(#SVGID_7_)" r="33.061"/><circle cx="130.667" cy="82.835" fill="url(#SVGID_8_)" r="22.429"/></g><g><circle cx="208" cy="82.835" fill="url(#SVGID_9_)" r="33.061"/><circle cx="208" cy="82.835" fill="url(#SVGID_10_)" r="22.429"/></g><g><path d="m178.863 223.61c-7.211-11.121-22.07-14.293-33.194-7.081l-88.335 57.272c-6.824 4.424-10.943 12.004-10.943 20.138s4.119 15.713 10.943 20.138l87.825 57.552c11.28 7.392 26.433 4.06 33.571-7.382 6.909-11.075 3.718-25.64-7.189-32.811l-57.034-37.496 57.275-37.135c11.121-7.212 14.292-22.073 7.081-33.195z" fill="url(#SVGID_11_)"/><path d="m308.845 148.324c-10.125-3.745-21.368 1.428-25.112 11.554l-94.131 254.565c-3.744 10.125 1.429 21.368 11.554 25.112 2.236.827 4.524 1.219 6.777 1.219 7.946 0 15.418-4.883 18.335-12.773l94.131-254.565c3.743-10.126-1.429-21.369-11.554-25.112z" fill="url(#SVGID_12_)"/><path d="m452.666 273.801-88.335-57.272c-11.124-7.212-25.983-4.04-33.194 7.081-7.211 11.122-4.04 25.983 7.081 33.194l57.275 37.135-57.034 37.496c-10.907 7.171-14.099 21.736-7.189 32.811 7.138 11.442 22.291 14.774 33.572 7.382l87.825-57.552c6.824-4.424 10.943-12.004 10.943-20.138s-4.12-15.712-10.944-20.137z" fill="url(#SVGID_11_)"/></g></g></svg>