<svg id="Capa_1" enable-background="new 0 0 510 510" height="512" viewBox="0 0 510 510" width="512" xmlns="http://www.w3.org/2000/svg" xmlns:xlink="http://www.w3.org/1999/xlink"><linearGradient id="SVGID_1_" gradientUnits="userSpaceOnUse" x1="91" x2="420.134" y1="255" y2="255"><stop offset="0" stop-color="#f3eae6"/><stop offset="1" stop-color="#cdbfba"/></linearGradient><linearGradient id="lg1"><stop offset="0" stop-color="#cdbfba"/><stop offset="1" stop-color="#766e6e"/></linearGradient><linearGradient id="SVGID_2_" gradientUnits="userSpaceOnUse" x1="45" x2="426.131" xlink:href="#lg1" y1="255" y2="255"/><linearGradient id="SVGID_3_" gradientUnits="userSpaceOnUse" x1="203" x2="507.03" y1="255" y2="255"><stop offset="0" stop-color="#9e9797"/><stop offset="1" stop-color="#5b5555"/></linearGradient><linearGradient id="SVGID_4_" gradientUnits="userSpaceOnUse" x1="101" x2="408.86" y1="255" y2="255"><stop offset="0" stop-color="#b0e7c9"/><stop offset=".593" stop-color="#46cc8d"/><stop offset="1" stop-color="#0ab69f"/></linearGradient><linearGradient id="SVGID_5_" gradientUnits="userSpaceOnUse" x1="126" x2="377.048" y1="271.716" y2="271.716"><stop offset="0" stop-color="#46cc8d"/><stop offset=".5484" stop-color="#0ab69f"/><stop offset="1" stop-color="#01998d"/></linearGradient><linearGradient id="lg2"><stop offset="0" stop-color="#fff9df"/><stop offset=".593" stop-color="#ffe177"/><stop offset="1" stop-color="#feb137"/></linearGradient><linearGradient id="SVGID_6_" gradientUnits="userSpaceOnUse" x1="175.554" x2="334.446" xlink:href="#lg2" y1="201.472" y2="201.472"/><linearGradient id="SVGID_7_" gradientUnits="userSpaceOnUse" x1="136.704" x2="373.296" xlink:href="#lg2" y1="353.566" y2="353.566"/><linearGradient id="SVGID_8_" gradientUnits="userSpaceOnUse" x1="179" x2="385.039" y1="374.127" y2="374.127"><stop offset="0" stop-color="#ffe177"/><stop offset="1" stop-color="#feb137"/></linearGradient><linearGradient id="SVGID_9_" gradientUnits="userSpaceOnUse" x1="195" x2="305.887" xlink:href="#lg1" y1="46.934" y2="46.934"/><linearGradient id="SVGID_10_" gradientUnits="userSpaceOnUse" x1="195" x2="305.887" xlink:href="#lg1" y1="463.066" y2="463.066"/><linearGradient id="SVGID_11_" gradientUnits="userSpaceOnUse" x1="410" x2="526.966" xlink:href="#lg1" y1="255" y2="255"/><linearGradient id="SVGID_12_" gradientUnits="userSpaceOnUse" x1="6" x2="96.022" xlink:href="#lg1" y1="255" y2="255"/><g><path d="m255 494.935c-64.089 0-124.341-24.958-169.66-70.275-45.317-45.319-70.275-105.571-70.275-169.66s24.958-124.342 70.275-169.66c45.319-45.317 105.571-70.275 169.66-70.275s124.342 24.958 169.659 70.275c45.317 45.318 70.275 105.571 70.275 169.66s-24.958 124.341-70.275 169.66c-45.317 45.317-105.57 70.275-169.659 70.275zm0-459.767c-56.32 0-112.641 21.438-155.518 64.314-85.752 85.752-85.752 225.282 0 311.035 42.871 42.871 99.204 64.309 155.517 64.314 56.327.005 112.636-21.433 155.517-64.314 85.753-85.752 85.753-225.282 0-311.034-42.875-42.877-99.196-64.315-155.516-64.315z" fill="url(#SVGID_1_)"/><circle cx="255" cy="255" fill="url(#SVGID_2_)" r="208"/><path d="m402.078 107.922c-45.71-45.71-107.402-65.697-167.088-59.962 46.38 4.456 91.549 24.443 127.068 59.962 43.008 43.008 63.239 100.165 60.704 156.488-4.086 3.944-6.631 9.474-6.631 15.601 0 4.391 1.309 8.475 3.553 11.89-7.238 40.356-26.437 78.988-57.626 110.177-35.519 35.519-80.688 55.506-127.068 59.962 59.687 5.735 121.378-14.252 167.088-59.962 81.229-81.229 81.229-212.927 0-294.156z" fill="url(#SVGID_3_)"/><g><circle cx="255" cy="255" fill="url(#SVGID_4_)" r="161.131"/><path d="m368.937 141.063c-4.593-4.593-9.399-8.84-14.379-12.763 49.817 63.237 45.57 155.163-12.763 213.495s-150.258 62.58-213.495 12.763c2.649 3.362 5.446 6.646 8.397 9.838 1.419 1.535 2.874 2.049 4.365 3.54 62.926 62.926 164.948 62.926 227.874 0 1.491-1.491 2.948-2.005 4.368-3.539 58.523-63.2 57.067-161.9-4.367-223.334z" fill="url(#SVGID_5_)"/><circle cx="255" cy="201.472" fill="url(#SVGID_6_)" r="79.446"/><path d="m141.063 368.937c62.926 62.926 164.948 62.926 227.874 0 1.492-1.492 2.937-3.013 4.359-4.548-21.59-43.491-66.448-73.389-118.296-73.389s-96.706 29.898-118.296 73.389c1.422 1.535 2.867 3.056 4.359 4.548z" fill="url(#SVGID_7_)"/><path d="m373.296 364.389c-5.9-11.885-13.547-22.744-22.59-32.266-2.818 3.313-5.781 6.544-8.91 9.672-55.385 55.385-141.049 62.006-203.693 19.894-.471.896-.947 1.79-1.398 2.699 1.421 1.535 2.867 3.056 4.359 4.548 62.926 62.926 164.948 62.926 227.874 0 1.491-1.491 2.936-3.012 4.358-4.547z" fill="url(#SVGID_8_)"/></g><path d="m255 0c-11.977 0-21.687 9.709-21.687 21.687v50.496c0 11.977 9.709 21.687 21.687 21.687s21.687-9.709 21.687-21.687v-50.496c0-11.978-9.71-21.687-21.687-21.687z" fill="url(#SVGID_9_)"/><path d="m255 416.131c-11.977 0-21.687 9.709-21.687 21.687v50.496c0 11.977 9.709 21.687 21.687 21.687s21.687-9.709 21.687-21.687v-50.496c0-11.977-9.71-21.687-21.687-21.687z" fill="url(#SVGID_10_)"/><path d="m437.818 233.313h50.496c11.977 0 21.687 9.709 21.687 21.687 0 11.977-9.709 21.687-21.687 21.687h-50.496c-11.977 0-21.687-9.709-21.687-21.687 0-11.977 9.71-21.687 21.687-21.687z" fill="url(#SVGID_11_)"/><path d="m21.687 233.313h50.496c11.977 0 21.687 9.709 21.687 21.687 0 11.977-9.709 21.687-21.687 21.687h-50.496c-11.978 0-21.687-9.71-21.687-21.687 0-11.977 9.709-21.687 21.687-21.687z" fill="url(#SVGID_12_)"/></g></svg>