<svg id="Capa_1" enable-background="new 0 0 509.997 509.997" height="512" viewBox="0 0 509.997 509.997" width="512" xmlns="http://www.w3.org/2000/svg" xmlns:xlink="http://www.w3.org/1999/xlink"><linearGradient id="lg1"><stop offset="0" stop-color="#cdbfba"/><stop offset="1" stop-color="#766e6e"/></linearGradient><linearGradient id="SVGID_1_" gradientUnits="userSpaceOnUse" x1="5" x2="378.022" xlink:href="#lg1" y1="321.875" y2="321.875"/><linearGradient id="lg2"><stop offset="0" stop-color="#9e9797"/><stop offset="1" stop-color="#5b5555"/></linearGradient><linearGradient id="SVGID_2_" gradientUnits="userSpaceOnUse" x1="136.975" x2="376.824" xlink:href="#lg2" y1="321.883" y2="321.883"/><linearGradient id="SVGID_3_" gradientUnits="userSpaceOnUse" x1="68" x2="266.363" xlink:href="#lg2" y1="321.875" y2="321.875"/><linearGradient id="SVGID_4_" gradientUnits="userSpaceOnUse" x1="34.128" x2="472.445" xlink:href="#lg1" y1="183.634" y2="183.634"/><linearGradient id="SVGID_5_" gradientUnits="userSpaceOnUse" x1="248" x2="493.1" xlink:href="#lg2" y1="181.575" y2="181.575"/><linearGradient id="SVGID_6_" gradientUnits="userSpaceOnUse" x1="165" x2="417.192" xlink:href="#lg2" y1="230.011" y2="230.011"/><g><path d="m48.218 461.78c-64.29-64.29-64.29-168.898 0-233.188l46.622-46.622c64.29-64.29 168.898-64.29 233.188 0s64.29 168.898 0 233.188l-46.622 46.622c-64.291 64.29-168.898 64.29-233.188 0zm214.199-214.199c-28.113-28.112-73.854-28.112-101.967 0l-46.622 46.622c-28.112 28.112-28.112 73.854 0 101.967s73.854 28.112 101.967 0l46.622-46.622c28.112-28.113 28.112-73.855 0-101.967z" fill="url(#SVGID_1_)"/><path d="m326.956 180.909c-36.524-35.872-85.739-51.26-133.165-46.199-.272.028-10.604 1.08-18.655 3.064-12.068 13.604-21.5 28.74-28.287 44.741-12.079 28.471-15.794 59.674-11.163 89.83l24.763-24.763c18.522-18.522 44.696-24.835 68.439-18.95 3.137-11.922 9.364-23.191 18.691-32.517l2.175-2.175c14.384-14.384 38.13-13.389 51.021 2.347.099.121.19.234.274.34 51.039 64.674 46.72 158.769-12.976 218.466l-46.688 46.688c-27.057 27.057-61.255 42.724-96.584 47.007 48.615 5.893 99.371-9.774 136.604-47.007l45.497-45.497c64.713-64.714 65.348-171.248.054-235.375z" fill="url(#SVGID_2_)"/><path d="m120.43 247.581-46.622 46.622c-28.112 28.112-28.112 73.854 0 101.967 19.189 19.189 46.59 25.269 70.993 18.262-11.348-3.259-22.05-9.339-30.973-18.262-28.112-28.112-28.112-73.854 0-101.967l46.622-46.622c8.923-8.923 19.625-15.003 30.973-18.262-24.403-7.007-51.804-.927-70.993 18.262z" fill="url(#SVGID_3_)"/><path d="m461.78 48.217c-64.29-64.29-168.9-64.29-233.19 0l-46.62 46.62c-15.4 15.39-27.1 33.1-35.12 52.01-15.96 37.62-17.33 80.01-4.12 118.45 7.89 22.93 20.97 44.46 39.24 62.73s39.8 31.35 62.73 39.24l17.72-17.72c18.43-18.43 24.78-44.44 19.03-68.1-12.42-3-24.19-9.35-33.87-19.03s-16.03-21.45-19.03-33.87c-5.75-23.66.6-49.67 19.03-68.1l17.72-17.72 28.9-28.9c28.12-28.11 73.86-28.11 101.97 0s28.11 73.85 0 101.97l-28.9 28.9c13.21 38.44 11.84 80.83-4.12 118.45 18.91-8.02 36.62-19.72 52.01-35.12l46.62-46.62c64.29-64.289 64.29-168.899 0-233.19z" fill="url(#SVGID_4_)"/><path d="m461.78 48.217c-37.233-37.233-87.989-52.9-136.605-47.007 35.329 4.283 69.528 19.95 96.585 47.007 64.29 64.29 64.29 168.9 0 233.19l-46.62 46.62c-.619.619-1.247 1.222-1.873 1.829-2.178 11.351-5.546 22.517-10.116 33.291 18.91-8.02 36.62-19.72 52.01-35.12l46.62-46.62c64.289-64.289 64.289-168.899-.001-233.19z" fill="url(#SVGID_5_)"/><path d="m265.3 142.727 28.9-28.9c8.926-8.923 19.629-15.002 30.978-18.26-24.403-7.007-51.804-.927-70.998 18.26l-28.9 28.9-17.72 17.72c-18.43 18.43-24.78 44.44-19.03 68.1 3 12.42 9.35 24.19 19.03 33.87 2.689 2.689 5.539 5.121 8.52 7.295 24.84 18.123 29.764 53.506 9.407 76.551-.988 1.119-2.017 2.214-3.087 3.283l-5.268 5.268c8.865 5.032 18.094 9.192 27.568 12.452l17.72-17.72c18.43-18.43 24.78-44.44 19.03-68.1-12.42-3-24.19-9.35-33.87-19.03s-16.03-21.45-19.03-33.87c-5.75-23.66.6-49.67 19.03-68.1z" fill="url(#SVGID_6_)"/></g></svg>