<svg id="Capa_1" enable-background="new 0 0 510 510" height="512" viewBox="0 0 510 510" width="512" xmlns="http://www.w3.org/2000/svg" xmlns:xlink="http://www.w3.org/1999/xlink"><linearGradient id="lg1"><stop offset="0" stop-color="#cdbfba"/><stop offset="1" stop-color="#766e6e"/></linearGradient><linearGradient id="SVGID_1_" gradientUnits="userSpaceOnUse" x1="107" x2="399.139" xlink:href="#lg1" y1="428.103" y2="428.103"/><linearGradient id="lg2"><stop offset="0" stop-color="#9e9797"/><stop offset="1" stop-color="#5b5555"/></linearGradient><linearGradient id="SVGID_2_" gradientUnits="userSpaceOnUse" x1="215" x2="316.242" xlink:href="#lg2" y1="391.403" y2="391.403"/><linearGradient id="SVGID_3_" gradientUnits="userSpaceOnUse" x1="1.602" x2="502.582" xlink:href="#lg1" y1="203.897" y2="203.897"/><linearGradient id="SVGID_4_" gradientUnits="userSpaceOnUse" x1="308" x2="505.649" xlink:href="#lg2" y1="203.897" y2="203.897"/><linearGradient id="SVGID_5_" gradientUnits="userSpaceOnUse" x1="-47" x2="418.244" y1="203.897" y2="203.897"><stop offset="0" stop-color="#b0e7c9"/><stop offset=".593" stop-color="#46cc8d"/><stop offset="1" stop-color="#0ab69f"/></linearGradient><linearGradient id="lg3"><stop offset="0" stop-color="#46cc8d"/><stop offset=".5484" stop-color="#0ab69f"/><stop offset="1" stop-color="#01998d"/></linearGradient><linearGradient id="SVGID_6_" gradientUnits="userSpaceOnUse" x1="406" x2="480.027" xlink:href="#lg3" y1="203.897" y2="203.897"/><linearGradient id="SVGID_7_" gradientUnits="userSpaceOnUse" x1="112.037" x2="426.679" xlink:href="#lg3" y1="218.638" y2="218.638"/><linearGradient id="SVGID_8_" gradientUnits="userSpaceOnUse" x1="112.037" x2="426.679" xlink:href="#lg3" y1="177.084" y2="177.084"/><linearGradient id="SVGID_9_" gradientUnits="userSpaceOnUse" x1="112.037" x2="426.679" xlink:href="#lg3" y1="260.193" y2="260.193"/><linearGradient id="SVGID_10_" gradientUnits="userSpaceOnUse" x1="112.037" x2="426.679" xlink:href="#lg3" y1="218.639" y2="218.639"/><linearGradient id="lg4"><stop offset="0" stop-color="#f3eae6"/><stop offset="1" stop-color="#cdbfba"/></linearGradient><linearGradient id="SVGID_11_" gradientUnits="userSpaceOnUse" x1="161.199" x2="201.981" xlink:href="#lg4" y1="299.171" y2="299.171"/><linearGradient id="lg5"><stop offset="0" stop-color="#fff9df"/><stop offset=".593" stop-color="#ffe177"/><stop offset="1" stop-color="#feb137"/></linearGradient><linearGradient id="SVGID_12_" gradientUnits="userSpaceOnUse" x1="233.984" x2="351.221" xlink:href="#lg5" y1="203.897" y2="203.897"/><linearGradient id="SVGID_13_" gradientUnits="userSpaceOnUse" x1="112.188" x2="273.286" y1="203.897" y2="203.897"><stop offset="0" stop-color="#f2fbff"/><stop offset=".593" stop-color="#faf7f7"/><stop offset="1" stop-color="#f3eae6"/></linearGradient><linearGradient id="SVGID_14_" gradientUnits="userSpaceOnUse" x1="218.352" x2="335.59" xlink:href="#lg4" y1="203.897" y2="203.897"/><linearGradient id="lg6"><stop offset="0" stop-color="#fe99a0"/><stop offset=".593" stop-color="#fe646f"/><stop offset="1" stop-color="#e41f2d"/></linearGradient><linearGradient id="SVGID_15_" gradientUnits="userSpaceOnUse" x1="82.878" x2="193.411" xlink:href="#lg6" y1="203.897" y2="203.897"/><linearGradient id="SVGID_16_" gradientUnits="userSpaceOnUse" x1="225.517" x2="322.406" xlink:href="#lg6" y1="203.897" y2="203.897"/><linearGradient id="SVGID_17_" gradientTransform="matrix(.707 .707 -.707 .707 49.002 -259.852)" gradientUnits="userSpaceOnUse" x1="522.696" x2="549.222" xlink:href="#lg5" y1="74.376" y2="47.85"/><linearGradient id="SVGID_18_" gradientTransform="matrix(-.707 .707 -.707 -.707 2122.146 -3984.688)" gradientUnits="userSpaceOnUse" x1="4206.409" x2="4232.934" xlink:href="#lg5" y1="-1749.387" y2="-1775.913"/><linearGradient id="SVGID_19_" gradientTransform="matrix(0 1 -1 0 314.135 -2551.632)" gradientUnits="userSpaceOnUse" x1="2742.266" x2="2768.792" xlink:href="#lg5" y1="-74.584" y2="-101.109"/><g><path d="m374.376 421.103h-23.376c-25.405 0-46-20.595-46-46h-100c0 25.405-20.595 46-46 46h-23.376c-16.347 0-30.164 12.817-30.612 29.157-.465 16.954 13.14 30.843 29.988 30.843h240c16.849 0 30.453-13.889 29.988-30.843-.448-16.341-14.265-29.157-30.612-29.157z" fill="url(#SVGID_1_)"/><path d="m194.853 403.908h120.293c-5.599-6.96-9.208-15.582-9.978-25.011h-100.336c-.771 9.43-4.38 18.051-9.979 25.011z" fill="url(#SVGID_2_)"/><path d="m478.077 378.897h-446.154c-17.631 0-31.923-14.292-31.923-31.922v-286.155c0-17.63 14.292-31.923 31.923-31.923h446.154c17.631 0 31.923 14.293 31.923 31.923v286.154c0 17.631-14.292 31.923-31.923 31.923z" fill="url(#SVGID_3_)"/><path d="m478.077 28.897h-41.025c17.63 0 31.923 14.292 31.923 31.923v286.155c0 17.63-14.292 31.923-31.923 31.923h41.025c17.63 0 31.923-14.292 31.923-31.923v-286.155c0-17.63-14.292-31.923-31.923-31.923z" fill="url(#SVGID_4_)"/><path d="m457.015 343.144h-404.03c-14.903 0-26.985-12.081-26.985-26.985v-224.524c0-14.903 12.082-26.985 26.985-26.985h404.03c14.903 0 26.985 12.082 26.985 26.985v224.524c0 14.904-12.082 26.985-26.985 26.985z" fill="url(#SVGID_5_)"/><path d="m468.975 67.445v272.904c8.902-4.41 15.025-13.583 15.025-24.19v-224.524c0-10.607-6.123-19.78-15.025-24.19z" fill="url(#SVGID_6_)"/><g><path d="m323.879 162.542v-44.747c0-9.828-7.968-17.796-17.796-17.796s-17.796 7.968-17.796 17.796v2.73c-13.345 14.504-32.394 23.676-53.592 23.952l.007.012h-60.309c-40.952 0-74.15 33.198-74.15 74.15 0 40.952 33.198 74.15 74.15 74.15h3.164v34.896c0 5.299 4.295 9.594 9.594 9.594h21.168c5.299 0 9.594-4.295 9.594-9.594v-34.896h16.789l-.007.012c21.199.276 40.247 9.448 53.592 23.952v2.73c0 9.828 7.967 17.796 17.796 17.796 9.828 0 17.796-7.968 17.796-17.796v-44.747c23.291-8.006 40.036-30.089 40.036-56.097 0-26.009-16.745-48.092-40.036-56.097z" fill="url(#SVGID_7_)"/><path d="m383.577 192.979c3.815 3.815 10.001 3.815 13.816 0l17.974-17.974c3.815-3.815 3.815-10.001 0-13.816-3.815-3.815-10.001-3.815-13.816 0l-17.974 17.974c-3.815 3.815-3.815 10.001 0 13.816z" fill="url(#SVGID_8_)"/><path d="m397.394 244.298c-3.815-3.815-10.001-3.815-13.816 0-3.815 3.815-3.815 10.001 0 13.816l17.974 17.974c3.815 3.815 10.001 3.815 13.816 0 3.815-3.815 3.815-10.001 0-13.816z" fill="url(#SVGID_9_)"/><path d="m429.394 208.869h-25.419c-5.396 0-9.77 4.374-9.77 9.77 0 5.396 4.374 9.769 9.77 9.769h25.419c5.396 0 9.77-4.374 9.77-9.77s-4.374-9.769-9.77-9.769z" fill="url(#SVGID_10_)"/></g><g><g><path d="m193.615 322.537h-21.168c-5.299 0-9.594-4.295-9.594-9.594v-37.138h40.356v37.138c0 5.299-4.295 9.594-9.594 9.594z" fill="url(#SVGID_11_)"/><circle cx="289.892" cy="203.897" fill="url(#SVGID_12_)" r="59.32"/><path d="m219.991 129.735.007.012h-60.309c-40.952 0-74.15 33.198-74.15 74.15 0 40.952 33.198 74.15 74.15 74.15h60.309l-.007.012c23.857.31 44.996 11.882 58.341 29.648h14.827v-207.62h-14.827c-13.344 17.766-34.484 29.338-58.341 29.648z" fill="url(#SVGID_13_)"/><path d="m293.159 100.087v207.62h-14.824c-7.777-10.357-18.205-18.609-30.277-23.752v-160.116c12.072-5.143 22.5-13.394 30.277-23.752z" fill="url(#SVGID_14_)"/><path d="m162.853 278.047v-148.3h-3.164c-40.952 0-74.15 33.198-74.15 74.15 0 40.952 33.198 74.15 74.15 74.15z" fill="url(#SVGID_15_)"/><path d="m273.584 304.741v-201.688c0-9.828 7.968-17.796 17.796-17.796 9.828 0 17.796 7.968 17.796 17.796v201.688c0 9.828-7.968 17.796-17.796 17.796-9.829 0-17.796-7.967-17.796-17.796z" fill="url(#SVGID_16_)"/></g><g><g><path d="m368.874 178.238c-3.815-3.815-3.815-10.001 0-13.817l17.974-17.974c3.815-3.815 10.001-3.815 13.816 0 3.815 3.815 3.815 10.001 0 13.816l-17.974 17.974c-3.815 3.816-10.001 3.816-13.816.001z" fill="url(#SVGID_17_)"/></g><g><path d="m386.848 261.347-17.974-17.974c-3.815-3.815-3.815-10.001 0-13.816 3.815-3.815 10.001-3.815 13.816 0l17.974 17.974c3.815 3.815 3.815 10.001 0 13.816-3.815 3.816-10.001 3.816-13.816 0z" fill="url(#SVGID_18_)"/></g><g><path d="m379.503 203.898c0-5.396 4.374-9.77 9.77-9.77h25.419c5.396 0 9.77 4.374 9.77 9.769 0 5.396-4.374 9.77-9.77 9.77h-25.419c-5.396 0-9.77-4.374-9.77-9.769z" fill="url(#SVGID_19_)"/></g></g></g></g></svg>