<svg id="Capa_1" enable-background="new 0 0 510 510" height="512" viewBox="0 0 510 510" width="512" xmlns="http://www.w3.org/2000/svg" xmlns:xlink="http://www.w3.org/1999/xlink"><linearGradient id="lg1"><stop offset="0" stop-color="#fff9df"/><stop offset=".593" stop-color="#ffe177"/><stop offset="1" stop-color="#feb137"/></linearGradient><linearGradient id="SVGID_1_" gradientTransform="matrix(.707 .707 -.707 .707 265.645 -101.215)" gradientUnits="userSpaceOnUse" x1="233.109" x2="371.746" xlink:href="#lg1" y1="502.105" y2="502.105"/><linearGradient id="SVGID_2_" gradientTransform="matrix(.707 .707 -.707 .707 265.645 -101.215)" gradientUnits="userSpaceOnUse" x1="233.109" x2="371.746" xlink:href="#lg1" y1="423.285" y2="423.285"/><linearGradient id="lg2"><stop offset="0" stop-color="#ffe177"/><stop offset="1" stop-color="#feb137"/></linearGradient><linearGradient id="SVGID_3_" gradientTransform="matrix(.707 .707 -.707 .707 265.645 -101.215)" gradientUnits="userSpaceOnUse" x1="259.826" x2="332.733" xlink:href="#lg2" y1="502.104" y2="502.104"/><linearGradient id="SVGID_4_" gradientTransform="matrix(.707 .707 -.707 .707 265.645 -101.215)" gradientUnits="userSpaceOnUse" x1="259.826" x2="332.733" xlink:href="#lg2" y1="423.283" y2="423.283"/><linearGradient id="SVGID_5_" gradientTransform="matrix(.707 .707 -.707 .707 265.645 -101.215)" gradientUnits="userSpaceOnUse" x1="176.117" x2="247.793" xlink:href="#lg2" y1="405.218" y2="405.218"/><linearGradient id="lg3"><stop offset="0" stop-color="#feb137"/><stop offset="1" stop-color="#eca026"/></linearGradient><linearGradient id="SVGID_6_" gradientTransform="matrix(.707 .707 -.707 .707 265.645 -101.215)" gradientUnits="userSpaceOnUse" x1="179.623" x2="306.801" xlink:href="#lg3" y1="405.214" y2="405.214"/><linearGradient id="SVGID_7_" gradientUnits="userSpaceOnUse" x1="167.147" x2="509.556" xlink:href="#lg1" y1="159.616" y2="159.616"/><linearGradient id="SVGID_8_" gradientUnits="userSpaceOnUse" x1="327.457" x2="513.974" xlink:href="#lg2" y1="159.616" y2="159.616"/><linearGradient id="SVGID_9_" gradientUnits="userSpaceOnUse" x1="216.848" x2="456.395" xlink:href="#lg2" y1="159.616" y2="159.616"/><linearGradient id="SVGID_10_" gradientUnits="userSpaceOnUse" x1="366.176" x2="454.485" xlink:href="#lg3" y1="159.616" y2="159.616"/><linearGradient id="SVGID_11_" gradientUnits="userSpaceOnUse" x1="238.415" x2="375.622" xlink:href="#lg1" y1="159.616" y2="159.616"/><linearGradient id="SVGID_12_" gradientUnits="userSpaceOnUse" x1="269.181" x2="365.197" xlink:href="#lg2" y1="179.581" y2="179.581"/><g><path d="m116.926 423.799 42.321 42.321c10.038 10.038 10.038 26.313 0 36.352-10.038 10.038-26.313 10.038-36.352 0l-42.32-42.322c-10.038-10.038-10.038-26.313 0-36.352 10.038-10.038 26.313-10.038 36.351.001z" fill="url(#SVGID_1_)"/><path d="m172.661 368.064 42.321 42.321c10.038 10.038 10.038 26.313 0 36.352-10.038 10.038-26.313 10.038-36.352 0l-42.321-42.321c-10.038-10.038-10.038-26.313 0-36.352 10.039-10.038 26.314-10.038 36.352 0z" fill="url(#SVGID_2_)"/><path d="m148.83 455.703-36.349 36.349-31.907-31.907c-10.032-10.032-10.032-26.308 0-36.341 5.02-5.02 11.6-7.526 18.179-7.535 6.579.008 13.158 2.514 18.17 7.526z" fill="url(#SVGID_3_)"/><path d="m204.564 399.969-36.349 36.349-31.907-31.907c-10.032-10.032-10.032-26.308 0-36.341 5.02-5.02 11.6-7.526 18.179-7.535 6.579.008 13.158 2.514 18.17 7.526z" fill="url(#SVGID_4_)"/><path d="m32.372 459.838c-19.441-19.441-19.441-50.961 0-70.401l186.061-186.061 70.401 70.401-186.061 186.061c-19.441 19.44-50.961 19.44-70.401 0z" fill="url(#SVGID_5_)"/><path d="m288.837 273.774-186.061 186.061c-19.444 19.444-50.957 19.444-70.401 0-3.654-3.654-6.621-7.727-8.892-12.077 18.782 9.865 42.543 6.906 58.333-8.884l132.078-132.078c-5.255-4.082-10.309-8.532-15.128-13.351-12.287-12.287-22.16-26.082-29.602-40.799l49.273-49.273z" fill="url(#SVGID_6_)"/><g><g><circle cx="332.593" cy="159.616" fill="url(#SVGID_7_)" r="159.616"/><path d="m332.593 0c-8.06 0-15.978.604-23.717 1.756 76.905 11.457 135.899 77.766 135.899 157.859s-58.994 146.403-135.899 157.859c7.739 1.153 15.657 1.756 23.717 1.756 88.153 0 159.616-71.463 159.616-159.616 0-88.152-71.462-159.614-159.616-159.614z" fill="url(#SVGID_8_)"/><circle cx="332.593" cy="159.616" fill="url(#SVGID_9_)" r="111.666"/><path d="m332.593 47.95c-5.026 0-9.972.338-14.822.981 54.664 7.251 96.844 54.039 96.844 110.685s-42.18 103.434-96.844 110.685c4.85.643 9.797.981 14.822.981 61.671 0 111.666-49.995 111.666-111.666s-49.994-111.666-111.666-111.666z" fill="url(#SVGID_10_)"/></g><g><path d="m350.046 95.488 13.503 27.359 30.193 4.387c15.963 2.32 22.337 21.937 10.786 33.196l-21.848 21.296 5.158 30.071c2.727 15.899-13.961 28.023-28.239 20.517l-27.005-14.198-27.005 14.198c-14.278 7.506-30.965-4.618-28.239-20.517l5.158-30.071-21.848-21.296c-11.551-11.26-5.177-30.877 10.786-33.196l30.193-4.387 13.503-27.359c7.138-14.466 27.765-14.466 34.904 0z" fill="url(#SVGID_11_)"/><path d="m393.741 127.234-18.34-2.665v.022c0 42.986-34.847 77.833-77.833 77.833-6.283 0-12.39-.75-18.242-2.155l-1.977 11.529c-2.727 15.899 13.961 28.023 28.239 20.517l27.005-14.197 27.005 14.197c14.278 7.506 30.965-4.618 28.239-20.517l-5.158-30.071 21.848-21.296c11.551-11.26 5.177-30.877-10.786-33.197z" fill="url(#SVGID_12_)"/></g></g></g></svg>