<svg id="Capa_1" enable-background="new 0 0 510 510" height="512" viewBox="0 0 510 510" width="512" xmlns="http://www.w3.org/2000/svg" xmlns:xlink="http://www.w3.org/1999/xlink"><linearGradient id="SVGID_1_" gradientUnits="userSpaceOnUse" x1="39.207" x2="415.207" y1="243.961" y2="243.961"><stop offset="0" stop-color="#01d0fb"/><stop offset=".6075" stop-color="#26a6fe"/><stop offset="1" stop-color="#0182fc"/></linearGradient><linearGradient id="lg1"><stop offset="0" stop-color="#f2fbff"/><stop offset=".593" stop-color="#faf7f7"/><stop offset="1" stop-color="#f3eae6"/></linearGradient><linearGradient id="SVGID_2_" gradientUnits="userSpaceOnUse" x1="65.63" x2="441.63" xlink:href="#lg1" y1="266.039" y2="266.039"/><linearGradient id="lg2"><stop offset="0" stop-color="#f3eae6"/><stop offset="1" stop-color="#cdbfba"/></linearGradient><linearGradient id="SVGID_3_" gradientUnits="userSpaceOnUse" x1="347.63" x2="453.8" xlink:href="#lg2" y1="266.039" y2="266.039"/><linearGradient id="SVGID_4_" gradientUnits="userSpaceOnUse" x1="258.63" x2="420.939" xlink:href="#lg2" y1="436" y2="436"/><linearGradient id="lg3"><stop offset="0" stop-color="#cdbfba"/><stop offset="1" stop-color="#766e6e"/></linearGradient><linearGradient id="SVGID_5_" gradientUnits="userSpaceOnUse" x1="94.146" x2="362.813" xlink:href="#lg3" y1="234.464" y2="234.464"/><linearGradient id="SVGID_6_" gradientUnits="userSpaceOnUse" x1="94.146" x2="362.813" xlink:href="#lg3" y1="310.646" y2="310.646"/><linearGradient id="SVGID_7_" gradientUnits="userSpaceOnUse" x1="94.146" x2="362.813" xlink:href="#lg3" y1="386.828" y2="386.828"/><linearGradient id="SVGID_8_" gradientUnits="userSpaceOnUse" x1="94.146" x2="362.813" xlink:href="#lg3" y1="158.282" y2="158.282"/><linearGradient id="SVGID_9_" gradientUnits="userSpaceOnUse" x1="94.146" x2="362.813" xlink:href="#lg3" y1="82.1" y2="82.1"/><linearGradient id="SVGID_10_" gradientUnits="userSpaceOnUse" x1="436.259" x2="467.228" xlink:href="#lg3" y1="48.372" y2="48.372"/><linearGradient id="SVGID_11_" gradientTransform="matrix(1 0 0 -1 0 465.494)" gradientUnits="userSpaceOnUse" x1="435.409" x2="469.779" xlink:href="#lg3" y1="-5.614" y2="-5.614"/><linearGradient id="SVGID_12_" gradientUnits="userSpaceOnUse" x1="421.913" x2="489.41" y1="280.557" y2="280.557"><stop offset="0" stop-color="#fff9df"/><stop offset=".593" stop-color="#ffe177"/><stop offset="1" stop-color="#feb137"/></linearGradient><linearGradient id="lg4"><stop offset="0" stop-color="#ffe177"/><stop offset="1" stop-color="#feb137"/></linearGradient><linearGradient id="SVGID_13_" gradientUnits="userSpaceOnUse" x1="441.307" x2="500.721" xlink:href="#lg4" y1="280.557" y2="280.557"/><linearGradient id="SVGID_14_" gradientTransform="matrix(1 0 0 -1 0 465.494)" gradientUnits="userSpaceOnUse" x1="422.982" x2="481.921" xlink:href="#lg4" y1="7.603" y2="7.603"/><linearGradient id="SVGID_15_" gradientUnits="userSpaceOnUse" x1="440.64" x2="489.598" y1="457.892" y2="457.892"><stop offset="0" stop-color="#feb137"/><stop offset="1" stop-color="#eca026"/></linearGradient><linearGradient id="SVGID_16_" gradientUnits="userSpaceOnUse" x1="422.64" x2="479.118" xlink:href="#lg1" y1="133.868" y2="133.868"/><linearGradient id="SVGID_17_" gradientUnits="userSpaceOnUse" x1="457.718" x2="481.261" xlink:href="#lg2" y1="133.868" y2="133.868"/><g><path d="m27.207 456v-424.077c0-17.631 14.292-31.923 31.922-31.923h286.154c17.63 0 31.923 14.292 31.923 31.923v324c0 72.902-59.098 132-132 132h-186.077c-17.63 0-31.922-14.293-31.922-31.923z" fill="url(#SVGID_1_)"/><g><path d="m53.63 478.077v-424.077c0-17.63 14.292-31.923 31.923-31.923h286.154c17.63 0 31.923 14.292 31.923 31.923v324c0 72.902-59.098 132-132 132h-186.077c-17.63 0-31.923-14.292-31.923-31.923z" fill="url(#SVGID_2_)"/><path d="m371.708 22.077h-40.02c17.63 0 31.923 14.292 31.923 31.923v324c0 72.902-59.098 132-132 132h40.02c72.902 0 132-59.098 132-132v-324c-.001-17.63-14.293-31.923-31.923-31.923z" fill="url(#SVGID_3_)"/><path d="m403.63 362v16c0 72.902-59.098 132-132 132h-16v-116.07c0-17.634 14.296-31.93 31.93-31.93z" fill="url(#SVGID_4_)"/><g><g><path d="m357.745 216.696h-258.23c-3.239 0-5.865 2.626-5.865 5.865v23.806c0 3.239 2.626 5.865 5.865 5.865h258.23c3.239 0 5.865-2.626 5.865-5.865v-23.806c0-3.239-2.626-5.865-5.865-5.865z" fill="url(#SVGID_5_)"/><path d="m357.745 292.878h-258.23c-3.239 0-5.865 2.626-5.865 5.865v23.806c0 3.239 2.626 5.865 5.865 5.865h258.23c3.239 0 5.865-2.626 5.865-5.865v-23.806c0-3.239-2.626-5.865-5.865-5.865z" fill="url(#SVGID_6_)"/><path d="m213.711 369.06h-114.196c-3.239 0-5.865 2.626-5.865 5.865v23.806c0 3.239 2.626 5.865 5.865 5.865h114.196c3.239 0 5.865-2.626 5.865-5.865v-23.806c0-3.239-2.625-5.865-5.865-5.865z" fill="url(#SVGID_7_)"/><path d="m357.745 140.514h-258.23c-3.239 0-5.865 2.626-5.865 5.865v23.806c0 3.239 2.626 5.865 5.865 5.865h258.23c3.239 0 5.865-2.626 5.865-5.865v-23.806c0-3.239-2.626-5.865-5.865-5.865z" fill="url(#SVGID_8_)"/><path d="m357.745 64.332h-258.23c-3.239 0-5.865 2.626-5.865 5.865v23.806c0 3.239 2.626 5.865 5.865 5.865h258.23c3.239 0 5.865-2.626 5.865-5.865v-23.807c0-3.239-2.626-5.864-5.865-5.864z" fill="url(#SVGID_9_)"/></g></g></g><g><path d="m469.244 74.667h-32.901v-42.993c0-5.3 4.297-9.597 9.597-9.597h13.708c5.3 0 9.597 4.297 9.597 9.597v42.993z" fill="url(#SVGID_10_)"/><path d="m448.408 503.21-3.929-14.686c-4.257-15.911-7.379-35.264-9.18-56.307h34.989c-1.8 21.042-4.923 40.396-9.18 56.307l-3.929 14.686c-2.422 9.053-6.349 9.053-8.771 0z" fill="url(#SVGID_11_)"/><g><g><path d="m482.793 419v-324.668c0-16.569-13.431-30-30-30-16.568 0-30 13.431-30 30v324.668c3.087 21.042 8.442 40.396 15.741 56.307l6.738 14.686c4.154 9.054 10.888 9.054 15.042 0l6.738-14.686c7.3-15.911 12.655-35.265 15.741-56.307z" fill="url(#SVGID_12_)"/><path d="m482.793 94.332c0-16.569-13.431-30-30-30-4.465 0-8.698.983-12.505 2.732 10.323 4.742 17.494 15.164 17.494 27.268v324.668c-3.087 21.042-8.442 40.396-15.741 56.307l-1.753 3.821 4.985 10.865c4.154 9.054 10.888 9.054 15.042 0l6.738-14.686c7.3-15.911 12.655-35.264 15.741-56.307z" fill="url(#SVGID_13_)"/><path d="m445.272 489.993-6.738-14.686c-7.3-15.911-12.654-35.264-15.741-56.307h60c-3.087 21.042-8.442 40.396-15.741 56.307l-6.738 14.686c-4.154 9.054-10.888 9.054-15.042 0z" fill="url(#SVGID_14_)"/><path d="m457.782 419c-3.087 21.042-8.442 40.396-15.741 56.307l-1.753 3.821 4.985 10.865c4.154 9.054 10.888 9.054 15.042 0l6.738-14.686c7.3-15.911 12.655-35.264 15.741-56.307z" fill="url(#SVGID_15_)"/></g><path d="m422.793 119.868h60v28h-60z" fill="url(#SVGID_16_)"/><path d="m457.782 119.868h25.011v28h-25.011z" fill="url(#SVGID_17_)"/></g></g></g></svg>