<svg id="Capa_1" enable-background="new 0 0 510 510" height="512" viewBox="0 0 510 510" width="512" xmlns="http://www.w3.org/2000/svg" xmlns:xlink="http://www.w3.org/1999/xlink"><linearGradient id="SVGID_1_" gradientTransform="matrix(1 0 0 -1 0 746)" gradientUnits="userSpaceOnUse" x1="158.563" x2="329.566" y1="395.996" y2="395.996"><stop offset="0" stop-color="#fe99a0"/><stop offset=".593" stop-color="#fe646f"/><stop offset="1" stop-color="#e41f2d"/></linearGradient><linearGradient id="SVGID_2_" gradientUnits="userSpaceOnUse" x1="191.333" x2="379.429" y1="350.001" y2="350.001"><stop offset="0" stop-color="#fe646f"/><stop offset=".7043" stop-color="#e41f2d"/><stop offset="1" stop-color="#c41926"/></linearGradient><linearGradient id="SVGID_3_" gradientUnits="userSpaceOnUse" x1="1.602" x2="502.582" y1="262.258" y2="262.258"><stop offset="0" stop-color="#01d0fb"/><stop offset=".6075" stop-color="#26a6fe"/><stop offset="1" stop-color="#0182fc"/></linearGradient><linearGradient id="SVGID_4_" gradientUnits="userSpaceOnUse" x1="308" x2="505.649" y1="262.258" y2="262.258"><stop offset="0" stop-color="#01bffa"/><stop offset=".2539" stop-color="#1f9efc"/><stop offset=".5724" stop-color="#407afd"/><stop offset=".8326" stop-color="#5464ff"/><stop offset="1" stop-color="#5b5cff"/></linearGradient><linearGradient id="lg1"><stop offset="0" stop-color="#fff9df"/><stop offset=".593" stop-color="#ffe177"/><stop offset="1" stop-color="#feb137"/></linearGradient><linearGradient id="SVGID_5_" gradientUnits="userSpaceOnUse" x1="-8.449" x2="83.186" xlink:href="#lg1" y1="181.279" y2="181.279"/><linearGradient id="lg2"><stop offset="0" stop-color="#ffe177"/><stop offset="1" stop-color="#feb137"/></linearGradient><linearGradient id="SVGID_6_" gradientUnits="userSpaceOnUse" x1="34.241" x2="147.327" xlink:href="#lg2" y1="181.279" y2="181.279"/><linearGradient id="SVGID_7_" gradientUnits="userSpaceOnUse" x1="68.553" x2="106.732" xlink:href="#lg2" y1="181.279" y2="181.279"/><linearGradient id="SVGID_8_" gradientUnits="userSpaceOnUse" x1="2.667" x2="138.277" xlink:href="#lg2" y1="181.279" y2="181.279"/><linearGradient id="SVGID_9_" gradientUnits="userSpaceOnUse" x1="-8.449" x2="83.186" xlink:href="#lg1" y1="107.645" y2="107.645"/><linearGradient id="SVGID_10_" gradientUnits="userSpaceOnUse" x1="34.241" x2="147.327" xlink:href="#lg2" y1="107.645" y2="107.645"/><linearGradient id="SVGID_11_" gradientUnits="userSpaceOnUse" x1="68.553" x2="106.732" xlink:href="#lg2" y1="107.645" y2="107.645"/><linearGradient id="lg3"><stop offset="0" stop-color="#feb137"/><stop offset="1" stop-color="#eca026"/></linearGradient><linearGradient id="SVGID_12_" gradientUnits="userSpaceOnUse" x1="117.847" x2="173.907" xlink:href="#lg3" y1="107.645" y2="107.645"/><linearGradient id="SVGID_13_" gradientUnits="userSpaceOnUse" x1="340.67" x2="432.304" xlink:href="#lg1" y1="181.279" y2="181.279"/><linearGradient id="SVGID_14_" gradientUnits="userSpaceOnUse" x1="383.359" x2="496.446" xlink:href="#lg2" y1="181.279" y2="181.279"/><linearGradient id="SVGID_15_" gradientUnits="userSpaceOnUse" x1="417.672" x2="455.85" xlink:href="#lg2" y1="181.279" y2="181.279"/><linearGradient id="SVGID_16_" gradientUnits="userSpaceOnUse" x1="351.785" x2="487.396" xlink:href="#lg2" y1="181.279" y2="181.279"/><linearGradient id="SVGID_17_" gradientUnits="userSpaceOnUse" x1="340.67" x2="432.304" xlink:href="#lg1" y1="107.645" y2="107.645"/><linearGradient id="SVGID_18_" gradientUnits="userSpaceOnUse" x1="383.359" x2="496.446" xlink:href="#lg2" y1="107.645" y2="107.645"/><linearGradient id="SVGID_19_" gradientUnits="userSpaceOnUse" x1="417.672" x2="455.85" xlink:href="#lg2" y1="107.645" y2="107.645"/><linearGradient id="SVGID_20_" gradientUnits="userSpaceOnUse" x1="466.966" x2="523.026" xlink:href="#lg3" y1="107.645" y2="107.645"/><g><g><path d="m345.915 439.232h-181.83c-24.361 0-38.19-27.891-23.444-47.282l90.915-119.55c11.787-15.5 35.102-15.5 46.888 0l90.915 119.55c14.747 19.391.917 47.282-23.444 47.282z" fill="url(#SVGID_1_)"/></g><path d="m369.36 391.949-46.07-60.58-44.85-58.97c-10.72-14.11-31.01-15.38-43.45-3.79-1.23 1.14-2.37 2.4-3.43 3.79l-44.85 58.97h96.56l46.07 60.58c14.75 19.39.92 47.28-23.45 47.28h40.02c24.37 0 38.2-27.89 23.45-47.28z" fill="url(#SVGID_2_)"/><g><path d="m478.077 306.36h-446.154c-17.631 0-31.923-14.292-31.923-31.922v-24.359c0-17.63 14.292-31.923 31.923-31.923h446.155c17.63 0 31.923 14.292 31.923 31.923v24.359c-.001 17.63-14.293 31.922-31.924 31.922z" fill="url(#SVGID_3_)"/><path d="m478.077 218.156h-41.025c17.63 0 31.923 14.292 31.923 31.923v24.359c0 17.63-14.292 31.923-31.923 31.923h41.025c17.63 0 31.923-14.292 31.923-31.923v-24.359c0-17.63-14.292-31.923-31.923-31.923z" fill="url(#SVGID_4_)"/></g><g><g><path d="m144.83 144.402h-128.778c-8.865 0-16.052 7.186-16.052 16.051v41.651c0 8.865 7.187 16.052 16.052 16.052h128.778c8.865 0 16.052-7.187 16.052-16.052v-41.651c-.001-8.865-7.187-16.051-16.052-16.051z" fill="url(#SVGID_5_)"/><path d="m117.198 218.156h-73.515c-6.942 0-12.57-5.628-12.57-12.57v-48.615c0-6.942 5.628-12.57 12.57-12.57h73.515c6.942 0 12.57 5.628 12.57 12.57v48.615c0 6.943-5.628 12.57-12.57 12.57z" fill="url(#SVGID_6_)"/><path d="m91.162 218.156h-21.442c-4.24 0-7.676-3.437-7.676-7.676v-58.402c0-4.24 3.437-7.676 7.676-7.676h21.442c4.24 0 7.676 3.437 7.676 7.676v58.402c0 4.239-3.437 7.676-7.676 7.676z" fill="url(#SVGID_7_)"/><path d="m144.83 144.402h-38.68-90.098c-8.865 0-16.052 7.186-16.052 16.051v25.011c0-8.865 7.187-16.052 16.052-16.052h106.148v32.692c0 8.865-7.187 16.052-16.052 16.052h38.681c8.865 0 16.052-7.187 16.052-16.052v-41.651c0-8.865-7.186-16.051-16.051-16.051z" fill="url(#SVGID_8_)"/></g><g><path d="m144.83 70.768h-128.778c-8.865 0-16.052 7.187-16.052 16.052v41.651c0 8.865 7.187 16.052 16.052 16.052h128.778c8.865 0 16.052-7.187 16.052-16.052v-41.651c-.001-8.865-7.187-16.052-16.052-16.052z" fill="url(#SVGID_9_)"/><path d="m117.198 144.522h-73.515c-6.942 0-12.57-5.628-12.57-12.57v-48.614c0-6.942 5.628-12.57 12.57-12.57h73.515c6.942 0 12.57 5.628 12.57 12.57v48.615c0 6.942-5.628 12.569-12.57 12.569z" fill="url(#SVGID_10_)"/><path d="m91.162 144.522h-21.442c-4.24 0-7.676-3.437-7.676-7.676v-58.402c0-4.24 3.437-7.676 7.676-7.676h21.442c4.24 0 7.676 3.437 7.676 7.676v58.402c0 4.24-3.437 7.676-7.676 7.676z" fill="url(#SVGID_11_)"/><path d="m144.83 70.768h-38.681c8.865 0 16.052 7.187 16.052 16.052v41.651c0 8.865-7.187 16.052-16.052 16.052h38.681c8.865 0 16.052-7.187 16.052-16.052v-41.651c-.001-8.865-7.187-16.052-16.052-16.052z" fill="url(#SVGID_12_)"/></g></g><g><g><path d="m493.949 144.402h-128.779c-8.865 0-16.052 7.187-16.052 16.052v41.651c0 8.865 7.187 16.052 16.052 16.052h128.778c8.865 0 16.052-7.187 16.052-16.052v-41.651c0-8.866-7.186-16.052-16.051-16.052z" fill="url(#SVGID_13_)"/><path d="m466.317 218.156h-73.515c-6.942 0-12.57-5.628-12.57-12.57v-48.615c0-6.942 5.628-12.57 12.57-12.57h73.515c6.942 0 12.57 5.628 12.57 12.57v48.615c0 6.943-5.628 12.57-12.57 12.57z" fill="url(#SVGID_14_)"/><path d="m440.28 218.156h-21.442c-4.24 0-7.676-3.437-7.676-7.676v-58.402c0-4.24 3.437-7.676 7.676-7.676h21.442c4.24 0 7.676 3.437 7.676 7.676v58.402c.001 4.239-3.436 7.676-7.676 7.676z" fill="url(#SVGID_15_)"/><path d="m493.949 144.402h-38.68-90.099c-8.865 0-16.052 7.187-16.052 16.052v25.011c0-8.865 7.187-16.052 16.052-16.052h106.148v32.692c0 8.865-7.187 16.052-16.052 16.052h38.681c8.865 0 16.052-7.187 16.052-16.052v-41.651c.001-8.866-7.185-16.052-16.05-16.052z" fill="url(#SVGID_16_)"/></g><g><path d="m493.949 70.768h-128.779c-8.865 0-16.052 7.187-16.052 16.052v41.651c0 8.865 7.187 16.052 16.052 16.052h128.778c8.865 0 16.052-7.187 16.052-16.052v-41.651c0-8.865-7.186-16.052-16.051-16.052z" fill="url(#SVGID_17_)"/><path d="m466.317 144.522h-73.515c-6.942 0-12.57-5.628-12.57-12.57v-48.614c0-6.942 5.628-12.57 12.57-12.57h73.515c6.942 0 12.57 5.628 12.57 12.57v48.615c0 6.942-5.628 12.569-12.57 12.569z" fill="url(#SVGID_18_)"/><path d="m440.28 144.522h-21.442c-4.24 0-7.676-3.437-7.676-7.676v-58.402c0-4.24 3.437-7.676 7.676-7.676h21.442c4.24 0 7.676 3.437 7.676 7.676v58.402c.001 4.24-3.436 7.676-7.676 7.676z" fill="url(#SVGID_19_)"/><path d="m493.949 70.768h-38.681c8.865 0 16.052 7.187 16.052 16.052v41.651c0 8.865-7.187 16.052-16.052 16.052h38.681c8.865 0 16.052-7.187 16.052-16.052v-41.651c-.001-8.865-7.187-16.052-16.052-16.052z" fill="url(#SVGID_20_)"/></g></g></g></svg>