<svg id="Capa_1" enable-background="new 0 0 510 510" height="512" viewBox="0 0 510 510" width="512" xmlns="http://www.w3.org/2000/svg" xmlns:xlink="http://www.w3.org/1999/xlink"><linearGradient id="SVGID_1_" gradientUnits="userSpaceOnUse" x1="1.602" x2="502.582" y1="255" y2="255"><stop offset="0" stop-color="#cdbfba"/><stop offset="1" stop-color="#766e6e"/></linearGradient><linearGradient id="SVGID_2_" gradientUnits="userSpaceOnUse" x1="308" x2="505.649" y1="255" y2="255"><stop offset="0" stop-color="#9e9797"/><stop offset="1" stop-color="#5b5555"/></linearGradient><linearGradient id="SVGID_3_" gradientUnits="userSpaceOnUse" x1="-47" x2="418.244" y1="255" y2="255"><stop offset="0" stop-color="#b0e7c9"/><stop offset=".593" stop-color="#46cc8d"/><stop offset="1" stop-color="#0ab69f"/></linearGradient><linearGradient id="lg1"><stop offset="0" stop-color="#46cc8d"/><stop offset=".5484" stop-color="#0ab69f"/><stop offset="1" stop-color="#01998d"/></linearGradient><linearGradient id="SVGID_4_" gradientUnits="userSpaceOnUse" x1="406" x2="480.027" xlink:href="#lg1" y1="255" y2="255"/><linearGradient id="SVGID_5_" gradientUnits="userSpaceOnUse" x1="18.644" x2="512.49" xlink:href="#lg1" y1="336.939" y2="336.939"/><linearGradient id="SVGID_6_" gradientUnits="userSpaceOnUse" x1="18.644" x2="512.49" xlink:href="#lg1" y1="212.763" y2="212.763"/><linearGradient id="SVGID_7_" gradientUnits="userSpaceOnUse" x1="18.644" x2="512.49" xlink:href="#lg1" y1="214.918" y2="214.918"/><linearGradient id="SVGID_8_" gradientUnits="userSpaceOnUse" x1="18.644" x2="512.49" xlink:href="#lg1" y1="346.525" y2="346.525"/><linearGradient id="SVGID_10_" gradientUnits="userSpaceOnUse" x1="18.644" x2="512.49" xlink:href="#lg1" y1="186.096" y2="186.096"/><linearGradient id="SVGID_11_" gradientUnits="userSpaceOnUse" x1="56.02" x2="171.024" y1="325.629" y2="325.629"><stop offset="0" stop-color="#01d0fb"/><stop offset=".6075" stop-color="#26a6fe"/><stop offset="1" stop-color="#0182fc"/></linearGradient><linearGradient id="SVGID_12_" gradientUnits="userSpaceOnUse" x1="308.734" x2="427.615" y1="201.453" y2="201.453"><stop offset="0" stop-color="#fff9df"/><stop offset=".593" stop-color="#ffe177"/><stop offset="1" stop-color="#feb137"/></linearGradient><linearGradient id="SVGID_13_" gradientUnits="userSpaceOnUse" x1="338.667" x2="435.354" y1="218.751" y2="218.751"><stop offset="0" stop-color="#ffe177"/><stop offset="1" stop-color="#feb137"/></linearGradient><linearGradient id="SVGID_14_" gradientUnits="userSpaceOnUse" x1="117" x2="282.738" y1="203.608" y2="203.608"><stop offset="0" stop-color="#f2fbff"/><stop offset=".593" stop-color="#faf7f7"/><stop offset="1" stop-color="#f3eae6"/></linearGradient><linearGradient id="lg2"><stop offset="0" stop-color="#fe99a0"/><stop offset=".593" stop-color="#fe646f"/><stop offset="1" stop-color="#e41f2d"/></linearGradient><linearGradient id="SVGID_15_" gradientUnits="userSpaceOnUse" x1="246.545" x2="321.782" xlink:href="#lg2" y1="335.215" y2="335.215"/><linearGradient id="lg3"><stop offset="0" stop-color="#fe646f"/><stop offset=".7043" stop-color="#e41f2d"/><stop offset="1" stop-color="#c41926"/></linearGradient><linearGradient id="SVGID_16_" gradientUnits="userSpaceOnUse" x1="275.376" x2="333.027" xlink:href="#lg3" y1="335.215" y2="335.215"/><linearGradient id="SVGID_17_" gradientUnits="userSpaceOnUse" x1="381.42" x2="456.657" xlink:href="#lg2" y1="335.215" y2="335.215"/><linearGradient id="SVGID_18_" gradientUnits="userSpaceOnUse" x1="410.25" x2="467.902" xlink:href="#lg3" y1="335.215" y2="335.215"/><linearGradient id="SVGID_19_" gradientUnits="userSpaceOnUse" x1="63.299" x2="138.536" xlink:href="#lg2" y1="174.785" y2="174.785"/><linearGradient id="SVGID_20_" gradientUnits="userSpaceOnUse" x1="92.129" x2="149.78" xlink:href="#lg3" y1="174.785" y2="174.785"/><g><g><path d="m478.077 430h-446.154c-17.631 0-31.923-14.292-31.923-31.923v-286.154c0-17.631 14.292-31.923 31.923-31.923h446.154c17.631 0 31.923 14.292 31.923 31.923v286.154c0 17.631-14.292 31.923-31.923 31.923z" fill="url(#SVGID_1_)"/><path d="m478.077 80h-41.025c17.63 0 31.923 14.292 31.923 31.923v286.155c0 17.63-14.292 31.923-31.923 31.923h41.025c17.63 0 31.923-14.292 31.923-31.923v-286.155c0-17.631-14.292-31.923-31.923-31.923z" fill="url(#SVGID_2_)"/><path d="m457.015 394.247h-404.03c-14.903 0-26.985-12.082-26.985-26.985v-224.524c0-14.903 12.082-26.985 26.985-26.985h404.03c14.903 0 26.985 12.082 26.985 26.985v224.524c0 14.903-12.082 26.985-26.985 26.985z" fill="url(#SVGID_3_)"/><path d="m468.975 118.548v272.904c8.902-4.41 15.025-13.583 15.025-24.19v-224.524c0-10.607-6.123-19.78-15.025-24.19z" fill="url(#SVGID_4_)"/></g><g><path d="m164.271 294.918c-7.814-7.814-20.484-7.814-28.298 0l-13.723 13.722-13.723-13.723c-7.814-7.814-20.484-7.814-28.298 0s-7.814 20.484 0 28.298l13.723 13.723-13.723 13.723c-7.814 7.814-7.814 20.484 0 28.298s20.484 7.814 28.298 0l13.723-13.723 13.723 13.723c7.814 7.814 20.484 7.814 28.298 0 7.814-7.814 7.814-20.484 0-28.298l-13.723-13.723 13.723-13.723c7.815-7.813 7.815-20.483 0-28.297z" fill="url(#SVGID_5_)"/><path d="m425.042 275.752c12.371 6.504 26.83-4.001 24.467-17.776l-4.469-26.054 18.93-18.452c10.008-9.756 4.486-26.753-9.346-28.763l-26.16-3.801-11.699-23.706c-6.185-12.533-24.057-12.533-30.243 0l-11.699 23.705-26.16 3.801c-13.831 2.01-19.354 19.007-9.346 28.763l18.93 18.452-4.469 26.054c-2.363 13.775 12.096 24.28 24.467 17.776l23.398-12.301z" fill="url(#SVGID_6_)"/><path d="m336.902 178.883c6.643 1.892 13.556-1.957 15.447-8.596 1.892-6.64-1.957-13.556-8.596-15.447-16.394-4.672-33.425-7.04-50.623-7.04-37.815 0-74.159 11.367-105.105 32.872-30.226 21.005-53.27 50.157-66.641 84.304-2.517 6.428.654 13.68 7.082 16.197 1.497.586 3.038.863 4.554.863 4.994 0 9.712-3.014 11.643-7.945 24.095-61.532 82.371-101.291 148.467-101.291 14.881 0 29.607 2.047 43.772 6.083z" fill="url(#SVGID_7_)"/><circle cx="295.911" cy="346.525" fill="url(#SVGID_8_)" r="38.296"/><circle cx="430.785" cy="346.525" fill="url(#SVGID_8_)" r="38.296"/><circle cx="112.664" cy="186.096" fill="url(#SVGID_10_)" r="38.296"/></g><g><path d="m139.238 325.629 13.723-13.723c7.814-7.814 7.814-20.484 0-28.298-7.814-7.814-20.484-7.814-28.298 0l-13.723 13.722-13.723-13.723c-7.814-7.814-20.484-7.814-28.298 0-7.814 7.814-7.814 20.484 0 28.298l13.723 13.723-13.723 13.723c-7.814 7.814-7.814 20.484 0 28.298s20.484 7.814 28.298 0l13.723-13.723 13.723 13.723c7.814 7.814 20.484 7.814 28.298 0 7.814-7.814 7.814-20.484 0-28.298z" fill="url(#SVGID_11_)"/><g><path d="m405.455 145.889 11.699 23.705 26.16 3.801c13.831 2.01 19.354 19.007 9.346 28.763l-18.93 18.452 4.469 26.055c2.363 13.775-12.096 24.28-24.467 17.776l-23.398-12.301-23.398 12.301c-12.371 6.504-26.83-4.001-24.467-17.776l4.469-26.055-18.93-18.452c-10.008-9.756-4.486-26.753 9.346-28.763l26.16-3.801 11.699-23.705c6.184-12.533 24.056-12.533 30.242 0z" fill="url(#SVGID_12_)"/><path d="m443.314 173.396-15.891-2.309v.019c0 37.245-30.193 67.437-67.437 67.437-5.444 0-10.735-.65-15.805-1.867l-1.713 9.989c-2.363 13.775 12.096 24.28 24.467 17.776l23.398-12.301 23.398 12.301c12.371 6.504 26.83-4.001 24.467-17.776l-4.469-26.055 18.93-18.452c10.009-9.755 4.486-26.752-9.345-28.762z" fill="url(#SVGID_13_)"/></g><path d="m121.71 270.726c-1.516 0-3.057-.277-4.554-.863-6.428-2.518-9.599-9.77-7.082-16.197 13.371-34.146 36.416-63.299 66.641-84.304 30.946-21.505 67.29-32.872 105.105-32.872 17.198 0 34.229 2.368 50.623 7.04 6.639 1.892 10.488 8.808 8.596 15.447s-8.805 10.487-15.447 8.596c-14.165-4.036-28.891-6.083-43.771-6.083-66.096 0-124.372 39.759-148.467 101.291-1.932 4.931-6.65 7.945-11.644 7.945z" fill="url(#SVGID_14_)"/><g><circle cx="284.6" cy="335.215" fill="url(#SVGID_15_)" r="38.296"/><path d="m284.6 296.919c-3.638 0-7.153.518-10.487 1.466 16.05 4.562 27.809 19.318 27.809 36.83s-11.759 32.268-27.809 36.83c3.334.948 6.849 1.466 10.487 1.466 21.15 0 38.296-17.146 38.296-38.296s-17.146-38.296-38.296-38.296z" fill="url(#SVGID_16_)"/></g><g><circle cx="419.475" cy="335.215" fill="url(#SVGID_17_)" r="38.296"/><path d="m419.475 296.919c-3.638 0-7.153.518-10.487 1.466 16.05 4.562 27.809 19.318 27.809 36.83s-11.759 32.268-27.809 36.83c3.334.948 6.849 1.466 10.487 1.466 21.15 0 38.296-17.146 38.296-38.296s-17.146-38.296-38.296-38.296z" fill="url(#SVGID_18_)"/></g><g><circle cx="101.354" cy="174.785" fill="url(#SVGID_19_)" r="38.296"/><path d="m101.354 136.49c-3.638 0-7.153.518-10.487 1.466 16.05 4.562 27.809 19.318 27.809 36.83s-11.759 32.268-27.809 36.83c3.334.948 6.849 1.466 10.487 1.466 21.15 0 38.296-17.146 38.296-38.296s-17.146-38.296-38.296-38.296z" fill="url(#SVGID_20_)"/></g></g></g></svg>