<svg id="Capa_1" enable-background="new 0 0 510 510" height="512" viewBox="0 0 510 510" width="512" xmlns="http://www.w3.org/2000/svg" xmlns:xlink="http://www.w3.org/1999/xlink"><linearGradient id="lg1"><stop offset="0" stop-color="#f2fbff"/><stop offset=".593" stop-color="#faf7f7"/><stop offset="1" stop-color="#f3eae6"/></linearGradient><linearGradient id="SVGID_1_" gradientUnits="userSpaceOnUse" x1="47.332" x2="300.345" xlink:href="#lg1" y1="206.839" y2="206.839"/><linearGradient id="SVGID_2_" gradientUnits="userSpaceOnUse" x1="1.602" x2="502.582" xlink:href="#lg1" y1="182.743" y2="182.743"/><linearGradient id="lg2"><stop offset="0" stop-color="#f3eae6"/><stop offset="1" stop-color="#cdbfba"/></linearGradient><linearGradient id="SVGID_3_" gradientUnits="userSpaceOnUse" x1="197.144" x2="367.908" xlink:href="#lg2" y1="182.743" y2="182.743"/><linearGradient id="SVGID_4_" gradientUnits="userSpaceOnUse" x1="198.494" x2="331.235" xlink:href="#lg2" y1="206.839" y2="206.839"/><linearGradient id="lg3"><stop offset="0" stop-color="#cdbfba"/><stop offset="1" stop-color="#766e6e"/></linearGradient><linearGradient id="SVGID_5_" gradientUnits="userSpaceOnUse" x1="74" x2="471.135" xlink:href="#lg3" y1="182.119" y2="182.119"/><linearGradient id="SVGID_6_" gradientUnits="userSpaceOnUse" x1="74" x2="471.135" xlink:href="#lg3" y1="204.936" y2="204.936"/><linearGradient id="lg4"><stop offset="0" stop-color="#9e9797"/><stop offset="1" stop-color="#5b5555"/></linearGradient><linearGradient id="SVGID_8_" gradientUnits="userSpaceOnUse" x1="262.69" x2="373.545" xlink:href="#lg4" y1="203.71" y2="203.71"/><linearGradient id="SVGID_9_" gradientUnits="userSpaceOnUse" x1="399" x2="517.609" xlink:href="#lg2" y1="182.743" y2="182.743"/><linearGradient id="SVGID_10_" gradientUnits="userSpaceOnUse" x1="247.247" x2="316.214" xlink:href="#lg3" y1="337.715" y2="337.715"/><linearGradient id="SVGID_11_" gradientUnits="userSpaceOnUse" x1="1.092" x2="342.621" y1="206.839" y2="206.839"><stop offset="0" stop-color="#b0e7c9"/><stop offset=".593" stop-color="#46cc8d"/><stop offset="1" stop-color="#0ab69f"/></linearGradient><linearGradient id="SVGID_12_" gradientUnits="userSpaceOnUse" x1="157.019" x2="344.896" y1="206.839" y2="206.839"><stop offset="0" stop-color="#46cc8d"/><stop offset=".5484" stop-color="#0ab69f"/><stop offset="1" stop-color="#01998d"/></linearGradient><linearGradient id="SVGID_13_" gradientUnits="userSpaceOnUse" x1="286.133" x2="441.68" y1="403.437" y2="403.437"><stop offset="0" stop-color="#fe99a0"/><stop offset=".593" stop-color="#fe646f"/><stop offset="1" stop-color="#e41f2d"/></linearGradient><linearGradient id="SVGID_14_" gradientUnits="userSpaceOnUse" x1="343.012" x2="453.123" y1="403.439" y2="403.439"><stop offset="0" stop-color="#fe646f"/><stop offset=".7043" stop-color="#e41f2d"/><stop offset="1" stop-color="#c41926"/></linearGradient><linearGradient id="SVGID_15_" gradientUnits="userSpaceOnUse" x1="213.786" x2="345.554" xlink:href="#lg4" y1="207.792" y2="207.792"/><g><g><circle cx="173.839" cy="206.839" fill="url(#SVGID_1_)" r="126.506"/><path d="m478.077 285.154h-446.154c-17.631 0-31.923-14.293-31.923-31.923v-140.976c0-17.63 14.292-31.923 31.923-31.923h446.154c17.63 0 31.923 14.292 31.923 31.923v140.976c0 17.63-14.292 31.923-31.923 31.923z" fill="url(#SVGID_2_)"/><path d="m196.598 80.333c69.867 0 126.506 56.639 126.506 126.506 0 29.573-10.15 56.774-27.152 78.315h55.877c11.898-23.536 18.608-50.14 18.608-78.315 0-49.858-20.995-94.807-54.62-126.507z" fill="url(#SVGID_3_)"/><path d="m263.292 117.385c-29.144-29.144-68.969-41.089-106.874-35.848 26.35 3.643 51.773 15.588 72.033 35.848 49.404 49.404 49.404 129.503 0 178.907-20.26 20.26-45.683 32.205-72.033 35.848 37.905 5.241 77.73-6.704 106.874-35.848 49.404-49.404 49.404-129.503 0-178.907z" fill="url(#SVGID_4_)"/><g><path d="m212.926 127.484c0-6.061-9.982-11.052-18.004-11.052-4.278 0-7.843 1.426-8.913 5.169l-27.095 91.446-14.082-60.251c-1.07-4.813-7.309-7.308-13.37-7.308-6.06 0-12.299 2.495-13.369 7.308l-14.082 60.251-27.095-91.446c-1.069-3.744-4.635-5.169-8.913-5.169-8.022 0-18.004 4.991-18.004 11.052 0 .891.179 1.782.357 2.317l35.473 108.737c1.961 6.239 10.161 9.27 18.361 9.27 8.022 0 16.578-3.031 18.004-9.27l9.269-42.247 9.27 42.247c1.426 6.239 9.982 9.27 18.004 9.27 8.2 0 16.221-3.031 18.36-9.27l35.474-108.737c.178-.535.355-1.426.355-2.317z" fill="url(#SVGID_5_)"/><path d="m316.679 160.817c-3.743 0-6.595 1.604-7.487 4.278l-15.865 45.278-11.408-38.325c-1.426-4.813-5.169-5.348-9.091-5.348-4.1 0-7.665.535-9.091 5.348l-11.408 38.325-15.865-45.278c-1.069-3.03-4.1-4.278-7.665-4.278-7.13 0-18.182 4.635-18.182 11.052 0 1.07.179 1.961.892 3.744l27.451 68.629c1.426 3.565 6.061 4.813 10.518 4.813 5.348 0 10.517-1.782 11.587-4.813l11.765-31.017 11.765 31.017c1.07 3.031 6.061 4.813 11.408 4.813 4.635 0 9.27-1.247 10.696-4.813l27.452-68.629c.535-1.07.712-2.317.712-3.387-.002-6.774-11.411-11.409-18.184-11.409z" fill="url(#SVGID_6_)"/><path d="m441.818 160.817c-3.743 0-6.595 1.604-7.487 4.278l-15.865 45.278-11.408-38.325c-1.426-4.813-5.17-5.348-9.091-5.348-4.1 0-7.665.535-9.091 5.348l-11.408 38.325-15.865-45.278c-1.07-3.03-4.1-4.278-7.666-4.278-7.13 0-18.182 4.635-18.182 11.052 0 1.07.178 1.961.892 3.744l27.451 68.629c1.426 3.565 6.061 4.813 10.517 4.813 5.348 0 10.518-1.782 11.587-4.813l11.765-31.017 11.765 31.017c1.07 3.031 6.061 4.813 11.408 4.813 4.635 0 9.27-1.247 10.696-4.813l27.452-68.629c.535-1.07.712-2.317.712-3.387 0-6.774-11.408-11.409-18.182-11.409z" fill="url(#SVGID_6_)"/><path d="m353.938 160.817c-7.13 0-18.182 4.635-18.182 11.052 0 1.07.178 1.961.892 3.744l27.451 68.629c.378.945.986 1.723 1.752 2.362 2.991-12.772 4.587-26.081 4.587-39.765 0-6.671-.388-13.251-1.12-19.727l-7.714-22.017c-1.071-3.03-4.101-4.278-7.666-4.278z" fill="url(#SVGID_8_)"/></g><path d="m478.077 80.332h-41.025c17.63 0 31.923 14.292 31.923 31.923v140.976c0 17.63-14.292 31.923-31.923 31.923h41.025c17.63 0 31.923-14.292 31.923-31.923v-140.976c0-17.63-14.292-31.923-31.923-31.923z" fill="url(#SVGID_9_)"/></g><g><path d="m314.564 376.874-49.008-49.008c-7.886-7.886-7.886-20.672 0-28.558l.753-.753c7.886-7.886 20.672-7.886 28.558 0l49.008 49.008c7.886 7.886 7.886 20.672 0 28.557l-.753.753c-7.887 7.887-20.672 7.887-28.558.001z" fill="url(#SVGID_10_)"/><path d="m173.839 33c-96.009 0-173.839 77.83-173.839 173.839s77.83 173.839 173.839 173.839 173.839-77.83 173.839-173.839-77.831-173.839-173.839-173.839zm0 300.345c-69.867 0-126.506-56.639-126.506-126.506s56.638-126.506 126.506-126.506 126.506 56.639 126.506 126.506-56.639 126.506-126.506 126.506z" fill="url(#SVGID_11_)"/><g><path d="m173.839 33c-5.88 0-11.691.296-17.42.866 87.828 8.739 156.418 82.844 156.418 172.973s-68.59 164.233-156.418 172.973c5.73.57 11.54.866 17.42.866 96.008 0 173.839-77.83 173.839-173.839s-77.831-173.839-173.839-173.839z" fill="url(#SVGID_12_)"/></g><path d="m439.715 436.204-36.511 36.511c-5.714 5.714-14.977 5.714-20.691 0l-73.793-73.793c-15.796-15.796-15.796-41.406 0-57.202 15.796-15.796 41.406-15.796 57.202 0l73.793 73.793c5.713 5.714 5.713 14.978 0 20.691z" fill="url(#SVGID_13_)"/><path d="m439.715 415.513-73.793-73.793c-12.448-12.448-30.989-15.078-46.021-7.906 4.042 1.929 7.833 4.559 11.18 7.906l73.793 73.793c5.714 5.714 5.714 14.977 0 20.691l-29.436 29.436 7.075 7.075c5.714 5.714 14.977 5.714 20.691 0l36.511-36.511c5.713-5.713 5.713-14.977 0-20.691z" fill="url(#SVGID_14_)"/></g><path d="m281.919 172.048c-1.426-4.813-5.169-5.348-9.091-5.348-4.1 0-7.665.535-9.091 5.348l-1.65 5.542c5.383 22.751 4.393 46.7-2.973 69.009.942-.667 1.63-1.456 1.949-2.358l11.765-31.017 11.765 31.017c.878 2.488 4.4 4.132 8.59 4.642 6.364-18.106 8.481-37.37 6.36-56.248l-6.215 17.738z" fill="url(#SVGID_15_)"/></g></svg>