<svg id="Capa_1" enable-background="new 0 0 510 510" height="512" viewBox="0 0 510 510" width="512" xmlns="http://www.w3.org/2000/svg" xmlns:xlink="http://www.w3.org/1999/xlink"><linearGradient id="SVGID_1_" gradientUnits="userSpaceOnUse" x1="119.053" x2="360.115" y1="143.116" y2="143.116"><stop offset="0" stop-color="#fe99a0"/><stop offset=".593" stop-color="#fe646f"/><stop offset="1" stop-color="#e41f2d"/></linearGradient><linearGradient id="SVGID_2_" gradientUnits="userSpaceOnUse" x1="172.595" x2="369.291" y1="143.116" y2="143.116"><stop offset="0" stop-color="#fe646f"/><stop offset=".7043" stop-color="#e41f2d"/><stop offset="1" stop-color="#c41926"/></linearGradient><linearGradient id="lg1"><stop offset="0" stop-color="#fff9df"/><stop offset=".593" stop-color="#ffe177"/><stop offset="1" stop-color="#feb137"/></linearGradient><linearGradient id="SVGID_3_" gradientUnits="userSpaceOnUse" x1="156.594" x2="344.534" xlink:href="#lg1" y1="361.06" y2="361.06"/><linearGradient id="SVGID_4_" gradientUnits="userSpaceOnUse" x1="176.63" x2="326.304" y1="361.06" y2="361.06"><stop offset="0" stop-color="#ffe177"/><stop offset="1" stop-color="#feb137"/></linearGradient><linearGradient id="SVGID_5_" gradientUnits="userSpaceOnUse" x1="286.356" x2="378.184" y1="361.06" y2="361.06"><stop offset="0" stop-color="#feb137"/><stop offset="1" stop-color="#eca026"/></linearGradient><linearGradient id="SVGID_6_" gradientUnits="userSpaceOnUse" x1="172.084" x2="328.185" xlink:href="#lg1" y1="361.06" y2="361.06"/><g><g><path d="m383.162 0h-256.324c-34.342 0-53.837 39.317-33.049 66.653l85.151 111.97c4.03 5.299 6.212 11.774 6.212 18.431v64.589c0 13.579 11.008 24.587 24.587 24.587h90.521c13.579 0 24.587-11.008 24.587-24.587v-64.59c0-6.658 2.182-13.132 6.212-18.431l85.151-111.97c20.789-27.335 1.294-66.652-33.048-66.652z" fill="url(#SVGID_1_)"/><path d="m383.162 0h-40.02c34.342 0 53.837 39.317 33.049 66.653l-85.151 111.97c-4.03 5.299-6.212 11.774-6.212 18.431v64.589c0 13.579-11.008 24.587-24.587 24.587h40.02c13.579 0 24.587-11.008 24.587-24.587v-64.59c0-6.658 2.182-13.132 6.212-18.431l85.151-111.97c20.788-27.335 1.293-66.652-33.049-66.652z" fill="url(#SVGID_2_)"/></g><g><circle cx="255" cy="361.06" fill="url(#SVGID_3_)" r="148.94"/><circle cx="255" cy="361.06" fill="url(#SVGID_4_)" r="118.615"/><path d="m255 242.445c-7.662 0-15.151.735-22.408 2.123 54.794 10.478 96.206 58.645 96.206 116.491 0 57.847-41.413 106.014-96.206 116.492 7.257 1.388 14.746 2.123 22.408 2.123 65.509 0 118.615-53.106 118.615-118.615 0-65.508-53.106-118.614-118.615-118.614z" fill="url(#SVGID_5_)"/><path d="m265.907 343.069v-32.832c14.617 1.124 18.89 8.32 26.31 8.32 9.895 0 13.943-12.368 13.943-18.44 0-15.517-26.311-19.115-40.253-19.564v-5.622c0-3.148-4.273-6.072-8.545-6.072-4.947 0-8.545 2.923-8.545 6.072v6.297c-23.837 3.373-44.976 17.09-44.976 45.65 0 28.784 24.286 38.454 44.976 46.324v36.43c-16.641-2.923-24.287-16.191-33.732-16.191-8.545 0-15.291 11.243-15.291 18.889 0 14.392 22.038 28.334 49.023 29.234v5.622c0 3.149 3.598 6.072 8.545 6.072 4.273 0 8.545-2.923 8.545-6.072v-6.521c26.31-4.273 44.3-21.138 44.3-49.023 0-30.358-23.837-40.927-44.3-48.573zm-14.843-5.397c-8.545-3.598-14.392-7.646-14.392-14.167 0-5.397 4.274-10.569 14.392-12.593zm12.594 71.736v-30.133c8.096 3.823 13.718 8.545 13.718 15.966-.001 8.095-6.073 12.368-13.718 14.167z" fill="url(#SVGID_6_)"/></g></g></svg>