<svg id="Capa_1" enable-background="new 0 0 510 510" height="512" viewBox="0 0 510 510" width="512" xmlns="http://www.w3.org/2000/svg" xmlns:xlink="http://www.w3.org/1999/xlink"><linearGradient id="SVGID_1_" gradientUnits="userSpaceOnUse" x1="105.253" x2="550.625" y1="296.156" y2="296.156"><stop offset="0" stop-color="#cdbfba"/><stop offset="1" stop-color="#766e6e"/></linearGradient><linearGradient id="SVGID_2_" gradientUnits="userSpaceOnUse" x1="2.116" x2="380.751" y1="151.5" y2="151.5"><stop offset="0" stop-color="#fff9df"/><stop offset=".593" stop-color="#ffe177"/><stop offset="1" stop-color="#feb137"/></linearGradient><linearGradient id="lg1"><stop offset="0" stop-color="#ffe177"/><stop offset="1" stop-color="#feb137"/></linearGradient><linearGradient id="SVGID_3_" gradientUnits="userSpaceOnUse" x1="140.543" x2="289.028" xlink:href="#lg1" y1="151.5" y2="151.5"/><linearGradient id="lg2"><stop offset="0" stop-color="#9e9797"/><stop offset="1" stop-color="#5b5555"/></linearGradient><linearGradient id="SVGID_4_" gradientUnits="userSpaceOnUse" x1="206.531" x2="540.459" xlink:href="#lg2" y1="296.161" y2="296.161"/><linearGradient id="SVGID_5_" gradientUnits="userSpaceOnUse" x1="149" x2="364.541" xlink:href="#lg2" y1="384.122" y2="384.122"/><linearGradient id="SVGID_6_" gradientUnits="userSpaceOnUse" x1="129.362" x2="240.643" xlink:href="#lg1" y1="127.24" y2="127.24"/><linearGradient id="SVGID_7_" gradientUnits="userSpaceOnUse" x1="118.769" x2="230.05" y1="116.5" y2="116.5"><stop offset="0" stop-color="#fe99a0"/><stop offset=".593" stop-color="#fe646f"/><stop offset="1" stop-color="#e41f2d"/></linearGradient><g><path d="m107.915 468.516c56.624 55.616 147.606 55.314 203.845-.925l155.831-155.831c56.239-56.239 56.541-147.221.925-203.845-.078-.08-.144-.167-.223-.247l-.702-.702-10.239-10.239c-19.219-19.219-50.378-19.219-69.597 0l-17.847 17.847c-19.219 19.219-19.219 50.378 0 69.597l10.942 10.942c.533.533 1.091 1.028 1.669 1.483 14.672 11.548 21.677 30.489 16.142 48.322-4.126 13.294-11.452 25.808-21.979 36.335l-95.431 95.431c-10.527 10.527-23.041 17.853-36.335 21.979-17.832 5.535-36.773-1.47-48.322-16.142-.455-.578-.949-1.136-1.483-1.669l-10.942-10.942c-19.219-19.219-50.378-19.219-69.597 0l-17.847 17.847c-19.219 19.219-19.219 50.378 0 69.597l10.239 10.239.702.702c.082.077.169.143.249.221z" fill="url(#SVGID_1_)"/><path d="m99.045 0h150.73c54.701 0 99.045 44.344 99.045 99.045v41.296c0 38.492-21.958 71.855-54.031 88.248v57.603c0 14.944-18.068 22.428-28.636 11.861l-58.667-58.667h-108.441c-54.701 0-99.045-44.344-99.045-99.045v-41.296c0-54.701 44.344-99.045 99.045-99.045z" fill="url(#SVGID_2_)"/><path d="m249.775 0h-40.02c54.701 0 99.045 44.344 99.045 99.045v41.296c0 33.681-16.812 63.434-42.501 81.328-7.307 5.09-11.53 13.546-11.53 22.451v42.072c0 .156-.014.305-.017.459l11.402 11.402c10.567 10.567 28.635 3.083 28.635-11.861v-57.603c32.073-16.393 54.032-49.756 54.032-88.248v-41.296c-.001-54.701-44.345-99.045-99.046-99.045z" fill="url(#SVGID_3_)"/><g><path d="m468.516 107.915c-.078-.081-.144-.167-.223-.247l-.702-.702-10.24-10.24c-14.82-14.82-36.738-18.2-54.808-10.163 5.363 2.385 10.39 5.765 14.788 10.163l10.24 10.24.702.702c.079.079.145.166.223.247 55.616 56.624 55.314 147.606-.925 203.844l-155.831 155.832c-23.18 23.18-52.263 36.847-82.409 41.023 43.416 6.035 89.044-7.638 122.429-41.023l155.831-155.831c56.239-56.239 56.541-147.221.925-203.845z" fill="url(#SVGID_4_)"/><path d="m166.18 393.526c27.119 26.019 70.074 25.554 96.648-1.021l3.339-3.339-.536-.032c-6.55 4.111-13.516 7.292-20.715 9.526-10.889 3.379-22.19 2.083-31.97-2.78-.054-.027-.12-.056-.184-.084.005-.002.01-.004.015-.006-6.168-3.098-11.727-7.611-16.182-13.272-.455-.578-.949-1.135-1.483-1.669l-10.942-10.942c-14.82-14.82-36.738-18.2-54.808-10.163 2.341 1.042 18.9 16.591 36.818 33.782z" fill="url(#SVGID_5_)"/></g><g><path d="m210.244 121.676c-14.928 11.671-15.2 19.813-15.2 33.927 0 5.157-2.714 11.128-16.013 11.128-11.128 0-14.928-4.071-14.928-18.185 0-23.342 10.314-34.47 18.185-41.255 8.957-7.601 24.156-16.014 24.156-30.67 0-12.486-10.856-18.455-24.428-18.455-27.684 0-21.713 20.898-36.37 20.898-7.328 0-16.285-4.885-16.285-15.471 0-14.656 16.828-36.37 53.469-36.37 34.741 0 57.812 19.271 57.812 44.783.001 25.514-23.07 43.97-30.398 49.67zm-10.043 84.681c0 11.129-9.228 20.9-20.899 20.9-11.67 0-20.627-9.771-20.627-20.9 0-11.398 9.229-20.898 20.627-20.898 11.399 0 20.899 9.5 20.899 20.898z" fill="url(#SVGID_6_)"/></g><g><path d="m199.652 110.935c-14.928 11.671-15.2 19.813-15.2 33.927 0 5.157-2.714 11.128-16.013 11.128-11.128 0-14.928-4.071-14.928-18.185 0-23.342 10.314-34.47 18.185-41.255 8.957-7.601 24.156-16.014 24.156-30.67 0-12.486-10.856-18.455-24.428-18.455-27.684 0-21.713 20.898-36.37 20.898-7.328 0-16.285-4.885-16.285-15.471 0-14.656 16.828-36.37 53.469-36.37 34.741 0 57.812 19.271 57.812 44.783 0 25.515-23.071 43.971-30.398 49.67zm-10.043 84.682c0 11.129-9.228 20.9-20.899 20.9-11.67 0-20.627-9.771-20.627-20.9 0-11.398 9.229-20.898 20.627-20.898 11.399 0 20.899 9.499 20.899 20.898z" fill="url(#SVGID_7_)"/></g></g></svg>