<svg id="Capa_1" enable-background="new 0 0 510 510" height="512" viewBox="0 0 510 510" width="512" xmlns="http://www.w3.org/2000/svg" xmlns:xlink="http://www.w3.org/1999/xlink"><linearGradient id="SVGID_1_" gradientUnits="userSpaceOnUse" x1="0" x2="510" y1="255" y2="255"><stop offset="0" stop-color="#fe99a0"/><stop offset=".593" stop-color="#fe646f"/><stop offset="1" stop-color="#e41f2d"/></linearGradient><linearGradient id="lg1"><stop offset="0" stop-color="#fe646f"/><stop offset=".7043" stop-color="#e41f2d"/><stop offset="1" stop-color="#c41926"/></linearGradient><linearGradient id="SVGID_2_" gradientUnits="userSpaceOnUse" x1="196.766" x2="491.657" xlink:href="#lg1" y1="29.335" y2="29.335"/><linearGradient id="SVGID_3_" gradientUnits="userSpaceOnUse" x1="196.77" x2="491.626" xlink:href="#lg1" y1="480.665" y2="480.665"/><linearGradient id="SVGID_4_" gradientUnits="userSpaceOnUse" x1="194" x2="510.228" xlink:href="#lg1" y1="255" y2="255"/><linearGradient id="SVGID_5_" gradientTransform="matrix(.707 .707 -.707 .707 -56.638 646.737)" gradientUnits="userSpaceOnUse" x1="-217.77" x2="104.493" xlink:href="#lg1" y1="-497.362" y2="-497.362"/><linearGradient id="SVGID_6_" gradientTransform="matrix(.707 .707 -.707 .707 -56.638 646.737)" gradientUnits="userSpaceOnUse" x1="-2.016" x2="110.13" y1="-497.42" y2="-497.42"><stop offset="0" stop-color="#c41926"/><stop offset="1" stop-color="#c41926"/></linearGradient><linearGradient id="lg2"><stop offset="0" stop-color="#fff9df"/><stop offset=".593" stop-color="#ffe177"/><stop offset="1" stop-color="#feb137"/></linearGradient><linearGradient id="SVGID_7_" gradientUnits="userSpaceOnUse" x1="175.554" x2="334.446" xlink:href="#lg2" y1="201.472" y2="201.472"/><linearGradient id="SVGID_8_" gradientUnits="userSpaceOnUse" x1="136.704" x2="373.296" xlink:href="#lg2" y1="353.566" y2="353.566"/><linearGradient id="SVGID_9_" gradientUnits="userSpaceOnUse" x1="179" x2="385.039" y1="374.127" y2="374.127"><stop offset="0" stop-color="#ffe177"/><stop offset="1" stop-color="#feb137"/></linearGradient><g><path d="m492.295 314.117c6.396 0 11.916-4.527 13.122-10.808 3.003-15.642 4.583-31.791 4.583-48.309s-1.58-32.667-4.583-48.309c-1.206-6.281-6.726-10.808-13.122-10.808h-31.275c-5.689 0-10.727-3.612-12.615-8.978-2.469-7.015-5.307-13.856-8.494-20.499-2.463-5.133-1.459-11.254 2.567-15.279l22.101-22.101c4.525-4.525 5.221-11.632 1.631-16.93-9.106-13.438-19.455-25.965-30.894-37.404l-.008-.008c-11.439-11.439-23.966-21.788-37.404-30.894-5.297-3.589-12.405-2.893-16.93 1.631l-22.101 22.101c-4.026 4.026-10.146 5.03-15.279 2.567-6.642-3.187-13.483-6.025-20.499-8.494-5.366-1.888-8.978-6.926-8.978-12.615v-31.275c0-6.396-4.527-11.916-10.808-13.122-15.642-3.003-31.791-4.583-48.309-4.583s-32.667 1.58-48.309 4.583c-6.281 1.206-10.808 6.726-10.808 13.122v31.275c0 5.689-3.612 10.727-8.978 12.615-7.015 2.469-13.856 5.307-20.499 8.494-5.133 2.463-11.254 1.459-15.279-2.567l-22.101-22.101c-4.525-4.525-11.632-5.221-16.93-1.631-13.439 9.106-25.967 19.456-37.407 30.896l-.003.002c-11.44 11.44-21.79 23.968-30.896 37.407-3.589 5.297-2.893 12.405 1.631 16.93l22.101 22.101c4.026 4.026 5.03 10.146 2.567 15.279-3.187 6.642-6.025 13.483-8.494 20.499-1.888 5.366-6.926 8.978-12.615 8.978h-31.275c-6.396 0-11.916 4.527-13.122 10.808-3.003 15.643-4.583 31.792-4.583 48.31s1.58 32.667 4.583 48.309c1.206 6.281 6.726 10.808 13.122 10.808h31.275c5.689 0 10.727 3.612 12.615 8.978 2.469 7.015 5.307 13.856 8.494 20.499 2.463 5.133 1.459 11.254-2.567 15.279l-22.101 22.101c-4.525 4.525-5.221 11.632-1.631 16.93 9.106 13.439 19.456 25.967 30.896 37.407l.003.002c11.44 11.44 23.967 21.79 37.407 30.896 5.297 3.589 12.405 2.893 16.93-1.631l22.101-22.101c4.026-4.026 10.146-5.03 15.279-2.567 6.642 3.187 13.483 6.025 20.499 8.494 5.366 1.888 8.978 6.926 8.978 12.615v31.275c0 6.396 4.527 11.916 10.808 13.122 15.642 3.004 31.791 4.584 48.309 4.584s32.667-1.58 48.309-4.583c6.281-1.206 10.808-6.726 10.808-13.122v-31.275c0-5.689 3.612-10.727 8.978-12.615 7.015-2.469 13.856-5.307 20.499-8.494 5.133-2.463 11.254-1.459 15.279 2.567l22.101 22.101c4.525 4.525 11.632 5.221 16.93 1.631 13.438-9.106 25.965-19.455 37.404-30.894l.008-.008c11.439-11.439 21.788-23.966 30.894-37.404 3.589-5.297 2.893-12.405-1.631-16.93l-22.101-22.101c-4.026-4.026-5.03-10.146-2.567-15.279 3.187-6.642 6.025-13.483 8.494-20.499 1.888-5.366 6.926-8.978 12.615-8.978z" fill="url(#SVGID_1_)"/><g><path d="m274.1 46.76v-29.05c0-6.384-4.506-11.913-10.775-13.119-9.278-1.786-18.736-3.049-28.335-3.801 6.6-.51 13.27-.79 20.01-.79 16.52 0 32.67 1.58 48.31 4.58 6.28 1.21 10.81 6.73 10.81 13.13v31.27c0 3.76 1.57 7.22 4.18 9.69h-32.29c-6.578 0-11.91-5.332-11.91-11.91z" fill="url(#SVGID_2_)"/><path d="m318.29 451.33c-2.61 2.45-4.17 5.94-4.17 9.69v31.27c0 6.4-4.53 11.92-10.81 13.13-15.64 3-31.79 4.58-48.31 4.58-6.74 0-13.41-.28-20.01-.79 9.599-.751 19.057-2.015 28.335-3.801 6.269-1.207 10.775-6.735 10.775-13.119v-29.05c0-6.578 5.332-11.91 11.91-11.91z" fill="url(#SVGID_3_)"/><path d="m505.417 206.691c-1.206-6.281-6.726-10.808-13.122-10.808h-31.275c-5.689 0-10.727-3.612-12.615-8.978-2.469-7.015-5.307-13.856-8.494-20.499-2.463-5.133-1.459-11.254 2.567-15.28l22.101-22.101c4.525-4.525 5.221-11.632 1.631-16.93-9.106-13.438-19.455-25.965-30.894-37.404l-.008-.008c-11.439-11.439-23.966-21.788-37.404-30.894-5.297-3.589-12.405-2.893-16.93 1.631l-8.798 8.798c8.113 6.356 15.834 13.187 23.112 20.465l.008.008c11.439 11.439 21.788 23.966 30.894 37.404 3.589 5.297 2.893 12.405-1.631 16.93l-22.101 22.101c-4.026 4.026-5.03 10.146-2.567 15.28 3.187 6.642 6.025 13.483 8.494 20.499 1.888 5.366 6.926 8.978 12.615 8.978h31.275c6.396 0 11.916 4.527 13.122 10.808 3.003 15.642 4.583 31.79 4.583 48.309s-1.58 32.667-4.583 48.309c-1.206 6.281-6.726 10.808-13.122 10.808h-31.275c-5.689 0-10.727 3.612-12.615 8.978-2.469 7.015-5.307 13.856-8.494 20.499-2.463 5.133-1.459 11.254 2.567 15.28l22.101 22.101c4.525 4.525 5.221 11.632 1.631 16.93-9.106 13.438-19.455 25.965-30.894 37.404l-.008.008c-7.278 7.277-14.999 14.109-23.112 20.465l8.798 8.798c4.525 4.525 11.632 5.221 16.93 1.631 13.438-9.106 25.965-19.455 37.404-30.894l.008-.008c11.439-11.439 21.788-23.966 30.894-37.404 3.589-5.297 2.893-12.405-1.631-16.93l-22.101-22.101c-4.026-4.026-5.03-10.146-2.567-15.28 3.187-6.642 6.025-13.483 8.494-20.499 1.888-5.366 6.926-8.978 12.615-8.978h31.275c6.396 0 11.916-4.527 13.122-10.808 3.003-15.642 4.583-31.79 4.583-48.309s-1.58-32.667-4.583-48.309z" fill="url(#SVGID_4_)"/></g><circle cx="255" cy="255" fill="url(#SVGID_5_)" r="161.131"/><path d="m368.937 141.063c-4.593-4.593-9.399-8.84-14.379-12.763 49.817 63.237 45.57 155.163-12.763 213.495s-150.258 62.58-213.495 12.763c2.649 3.362 5.446 6.646 8.397 9.838 1.419 1.535 2.874 2.049 4.365 3.54 62.926 62.926 164.948 62.926 227.874 0 1.491-1.491 2.947-2.005 4.368-3.539 58.523-63.2 57.067-161.9-4.367-223.334z" fill="url(#SVGID_6_)"/><circle cx="255" cy="201.472" fill="url(#SVGID_7_)" r="79.446"/><path d="m141.063 368.937c62.926 62.926 164.948 62.926 227.874 0 1.492-1.492 2.937-3.013 4.359-4.548-21.59-43.491-66.448-73.389-118.296-73.389s-96.706 29.898-118.296 73.389c1.422 1.535 2.867 3.056 4.359 4.548z" fill="url(#SVGID_8_)"/><path d="m373.296 364.389c-5.9-11.885-13.547-22.744-22.59-32.266-2.818 3.313-5.781 6.544-8.91 9.672-55.385 55.385-141.049 62.006-203.693 19.894-.471.896-.947 1.79-1.398 2.699 1.421 1.535 2.867 3.056 4.359 4.548 62.926 62.926 164.948 62.926 227.874 0 1.491-1.491 2.936-3.012 4.358-4.547z" fill="url(#SVGID_9_)"/></g></svg>