<svg id="Capa_1" enable-background="new 0 0 510 510" height="512" viewBox="0 0 510 510" width="512" xmlns="http://www.w3.org/2000/svg" xmlns:xlink="http://www.w3.org/1999/xlink"><linearGradient id="SVGID_1_" gradientUnits="userSpaceOnUse" x1="2.536" x2="482.888" y1="125.058" y2="125.058"><stop offset="0" stop-color="#feb137"/><stop offset="1" stop-color="#fd6930"/></linearGradient><linearGradient id="SVGID_2_" gradientUnits="userSpaceOnUse" x1="121.044" x2="374.105" y1="163.06" y2="163.06"><stop offset="0" stop-color="#f2fbff"/><stop offset=".593" stop-color="#faf7f7"/><stop offset="1" stop-color="#f3eae6"/></linearGradient><linearGradient id="SVGID_3_" gradientUnits="userSpaceOnUse" x1="396" x2="453.058" y1="163.06" y2="163.06"><stop offset="0" stop-color="#f3eae6"/><stop offset="1" stop-color="#cdbfba"/></linearGradient><linearGradient id="SVGID_4_" gradientUnits="userSpaceOnUse" x1="1.602" x2="502.582" y1="317.001" y2="317.001"><stop offset="0" stop-color="#fff9df"/><stop offset=".593" stop-color="#ffe177"/><stop offset="1" stop-color="#feb137"/></linearGradient><linearGradient id="SVGID_5_" gradientUnits="userSpaceOnUse" x1="65.547" x2="254.049" y1="317.001" y2="317.001"><stop offset="0" stop-color="#ffe177"/><stop offset="1" stop-color="#feb137"/></linearGradient><g><path d="m459.392 72.575h-196.812c-14.102 0-27.627-5.602-37.598-15.574l-23.428-23.429c-9.972-9.972-23.496-15.574-37.598-15.574h-132.347c-16.904 0-30.608 13.704-30.608 30.608v152.901c0 16.904 13.704 30.608 30.608 30.608h427.783c16.905 0 30.608-13.704 30.608-30.608v-98.325c0-16.903-13.704-30.607-30.608-30.607z" fill="url(#SVGID_1_)"/><path d="m441.118 232.117h-394.337c-15.583 0-28.215-12.632-28.215-28.215v-81.684c0-15.583 12.632-28.215 28.215-28.215h394.337c15.583 0 28.215 12.632 28.215 28.215v81.684c0 15.582-12.632 28.215-28.215 28.215z" fill="url(#SVGID_2_)"/><path d="m441.118 94.003h-40.02c15.583 0 28.215 12.632 28.215 28.215v81.684c0 15.583-12.632 28.215-28.215 28.215h40.02c15.583 0 28.215-12.632 28.215-28.215v-81.684c0-15.583-12.632-28.215-28.215-28.215z" fill="url(#SVGID_3_)"/><g><path d="m478.077 492.001h-446.154c-17.631 0-31.923-14.292-31.923-31.923v-286.154c0-17.63 14.292-31.923 31.923-31.923h446.154c17.63 0 31.923 14.292 31.923 31.923v286.154c0 17.631-14.292 31.923-31.923 31.923z" fill="url(#SVGID_4_)"/><path d="m478.077 142.001h-41.025c17.63 0 31.923 14.292 31.923 31.923v286.155c0 17.63-14.292 31.923-31.923 31.923h41.025c17.63 0 31.923-14.292 31.923-31.923v-286.155c0-17.631-14.292-31.923-31.923-31.923z" fill="url(#SVGID_5_)"/></g></g></svg>