<svg id="Capa_1" enable-background="new 0 0 510 510" height="512" viewBox="0 0 510 510" width="512" xmlns="http://www.w3.org/2000/svg" xmlns:xlink="http://www.w3.org/1999/xlink"><linearGradient id="lg1"><stop offset="0" stop-color="#f3eae6"/><stop offset="1" stop-color="#cdbfba"/></linearGradient><linearGradient id="SVGID_1_" gradientUnits="userSpaceOnUse" x1="71.849" x2="447.849" xlink:href="#lg1" y1="243.961" y2="243.961"/><linearGradient id="SVGID_2_" gradientUnits="userSpaceOnUse" x1="112.151" x2="488.151" y1="266.039" y2="266.039"><stop offset="0" stop-color="#f2fbff"/><stop offset=".593" stop-color="#faf7f7"/><stop offset="1" stop-color="#f3eae6"/></linearGradient><linearGradient id="SVGID_3_" gradientUnits="userSpaceOnUse" x1="394.151" x2="500.321" xlink:href="#lg1" y1="266.039" y2="266.039"/><linearGradient id="SVGID_4_" gradientUnits="userSpaceOnUse" x1="305.151" x2="467.459" xlink:href="#lg1" y1="436" y2="436"/><linearGradient id="lg2"><stop offset="0" stop-color="#cdbfba"/><stop offset="1" stop-color="#766e6e"/></linearGradient><linearGradient id="SVGID_5_" gradientUnits="userSpaceOnUse" x1="148.774" x2="408.261" xlink:href="#lg2" y1="234.464" y2="234.464"/><linearGradient id="SVGID_6_" gradientUnits="userSpaceOnUse" x1="148.774" x2="408.261" xlink:href="#lg2" y1="310.646" y2="310.646"/><linearGradient id="SVGID_7_" gradientUnits="userSpaceOnUse" x1="148.774" x2="408.261" xlink:href="#lg2" y1="386.828" y2="386.828"/><linearGradient id="SVGID_8_" gradientUnits="userSpaceOnUse" x1="148.774" x2="408.261" xlink:href="#lg2" y1="158.282" y2="158.282"/><linearGradient id="SVGID_9_" gradientUnits="userSpaceOnUse" x1="148.774" x2="408.261" xlink:href="#lg2" y1="82.1" y2="82.1"/><linearGradient id="SVGID_10_" gradientUnits="userSpaceOnUse" x1="140.655" x2="271.255" y1="120.191" y2="120.191"><stop offset="0" stop-color="#01d0fb"/><stop offset=".6075" stop-color="#26a6fe"/><stop offset="1" stop-color="#0182fc"/></linearGradient><g><path d="m59.849 456v-424.077c0-17.631 14.292-31.923 31.923-31.923h286.154c17.63 0 31.923 14.292 31.923 31.923v324c0 72.902-59.098 132-132 132h-186.077c-17.631 0-31.923-14.293-31.923-31.923z" fill="url(#SVGID_1_)"/><g><path d="m100.151 478.077v-424.077c0-17.63 14.292-31.923 31.923-31.923h286.154c17.63 0 31.923 14.292 31.923 31.923v324c0 72.902-59.098 132-132 132h-186.077c-17.631 0-31.923-14.292-31.923-31.923z" fill="url(#SVGID_2_)"/><path d="m418.228 22.077h-40.02c17.63 0 31.923 14.292 31.923 31.923v324c0 72.902-59.098 132-132 132h40.02c72.902 0 132-59.098 132-132v-324c0-17.63-14.292-31.923-31.923-31.923z" fill="url(#SVGID_3_)"/><path d="m450.151 362v16c0 72.902-59.098 132-132 132h-16v-116.07c0-17.634 14.296-31.93 31.93-31.93z" fill="url(#SVGID_4_)"/><g><g><path d="m404.266 216.696h-258.23c-3.239 0-5.865 2.626-5.865 5.865v23.806c0 3.239 2.626 5.865 5.865 5.865h258.23c3.239 0 5.865-2.626 5.865-5.865v-23.806c0-3.239-2.626-5.865-5.865-5.865z" fill="url(#SVGID_5_)"/><path d="m404.266 292.878h-258.23c-3.239 0-5.865 2.626-5.865 5.865v23.806c0 3.239 2.626 5.865 5.865 5.865h258.23c3.239 0 5.865-2.626 5.865-5.865v-23.806c0-3.239-2.626-5.865-5.865-5.865z" fill="url(#SVGID_6_)"/><path d="m260.232 369.06h-114.196c-3.239 0-5.865 2.626-5.865 5.865v23.806c0 3.239 2.626 5.865 5.865 5.865h114.196c3.239 0 5.865-2.626 5.865-5.865v-23.806c0-3.239-2.626-5.865-5.865-5.865z" fill="url(#SVGID_7_)"/><path d="m404.266 140.514h-114.196c-3.239 0-5.865 2.626-5.865 5.865v23.806c0 3.239 2.626 5.865 5.865 5.865h114.196c3.239 0 5.865-2.626 5.865-5.865v-23.806c0-3.239-2.626-5.865-5.865-5.865z" fill="url(#SVGID_8_)"/><path d="m404.266 64.332h-114.196c-3.239 0-5.865 2.626-5.865 5.865v23.806c0 3.239 2.626 5.865 5.865 5.865h114.196c3.239 0 5.865-2.626 5.865-5.865v-23.807c0-3.239-2.626-5.864-5.865-5.864z" fill="url(#SVGID_9_)"/></g><path d="m244.847 176.05h-88.565c-7.987 0-14.462-6.475-14.462-14.462v-82.795c0-7.987 6.475-14.462 14.462-14.462h88.565c7.987 0 14.462 6.475 14.462 14.462v82.795c0 7.987-6.475 14.462-14.462 14.462z" fill="url(#SVGID_10_)"/></g></g></g></svg>