<svg id="Capa_1" enable-background="new 0 0 510 510" height="512" viewBox="0 0 510 510" width="512" xmlns="http://www.w3.org/2000/svg" xmlns:xlink="http://www.w3.org/1999/xlink"><linearGradient id="lg1"><stop offset="0" stop-color="#fff9df"/><stop offset=".593" stop-color="#ffe177"/><stop offset="1" stop-color="#feb137"/></linearGradient><linearGradient id="SVGID_1_" gradientUnits="userSpaceOnUse" x1="-12" x2="504.14" xlink:href="#lg1" y1="255" y2="255"/><linearGradient id="lg2"><stop offset="0" stop-color="#ffe177"/><stop offset="1" stop-color="#feb137"/></linearGradient><linearGradient id="SVGID_2_" gradientUnits="userSpaceOnUse" x1="48" x2="463.235" xlink:href="#lg2" y1="255" y2="255"/><linearGradient id="SVGID_3_" gradientUnits="userSpaceOnUse" x1="136" x2="363.271" xlink:href="#lg2" y1="255" y2="255"/><linearGradient id="SVGID_4_" gradientUnits="userSpaceOnUse" x1="192" x2="472.179" y1="255" y2="255"><stop offset="0" stop-color="#feb137"/><stop offset="1" stop-color="#eca026"/></linearGradient><linearGradient id="SVGID_5_" gradientUnits="userSpaceOnUse" x1="129.097" x2="366.128" xlink:href="#lg1" y1="255" y2="255"/><g><g><circle cx="255" cy="255" fill="url(#SVGID_1_)" r="255"/><path d="m255 0c-6.735 0-13.407.266-20.01.778 131.479 10.206 234.99 120.124 234.99 254.222s-103.511 244.016-234.99 254.222c6.603.512 13.275.778 20.01.778 140.833 0 255-114.167 255-255s-114.167-255-255-255z" fill="url(#SVGID_2_)"/></g><circle cx="255" cy="255" fill="url(#SVGID_3_)" r="180.11"/><path d="m255 74.89c-6.765 0-13.439.386-20.01 1.112 90.053 9.956 160.1 86.291 160.1 178.997s-70.047 169.042-160.1 178.997c6.571.727 13.245 1.112 20.01 1.112 99.472 0 180.11-80.638 180.11-180.11s-80.638-180.108-180.11-180.108z" fill="url(#SVGID_4_)"/><path d="m271.561 227.683v-49.854c22.196 1.707 28.683 12.634 39.95 12.634 15.026 0 21.171-18.781 21.171-28 0-23.561-39.952-29.024-61.122-29.707v-8.537c0-4.78-6.488-9.219-12.975-9.219-7.512 0-12.975 4.439-12.975 9.219v9.561c-36.195 5.121-68.293 25.951-68.293 69.317 0 43.707 36.878 58.39 68.293 70.341v55.317c-25.268-4.439-36.879-24.585-51.221-24.585-12.975 0-23.218 17.073-23.218 28.682 0 21.854 33.463 43.024 74.439 44.39v8.536c0 4.781 5.463 9.22 12.975 9.22 6.488 0 12.975-4.439 12.975-9.22v-9.903c39.95-6.488 67.268-32.097 67.268-74.438.001-46.096-36.195-62.145-67.267-73.754zm-22.537-8.195c-12.975-5.463-21.854-11.61-21.854-21.512 0-8.195 6.489-16.048 21.854-19.122zm19.122 108.926v-45.756c12.293 5.805 20.829 12.975 20.829 24.244.001 12.293-9.219 18.78-20.829 21.512z" fill="url(#SVGID_5_)"/></g></svg>