<svg id="Capa_1" enable-background="new 0 0 510 510" height="512" viewBox="0 0 510 510" width="512" xmlns="http://www.w3.org/2000/svg" xmlns:xlink="http://www.w3.org/1999/xlink"><linearGradient id="SVGID_1_" gradientUnits="userSpaceOnUse" x1="1.602" x2="502.582" y1="292.62" y2="292.62"><stop offset="0" stop-color="#f2fbff"/><stop offset=".593" stop-color="#faf7f7"/><stop offset="1" stop-color="#f3eae6"/></linearGradient><linearGradient id="SVGID_2_" gradientUnits="userSpaceOnUse" x1="437.053" x2="521.182" y1="317.497" y2="317.497"><stop offset="0" stop-color="#f3eae6"/><stop offset="1" stop-color="#cdbfba"/></linearGradient><linearGradient id="lg1"><stop offset="0" stop-color="#fff9df"/><stop offset=".593" stop-color="#ffe177"/><stop offset="1" stop-color="#feb137"/></linearGradient><linearGradient id="SVGID_3_" gradientUnits="userSpaceOnUse" x1="200" x2="326.862" xlink:href="#lg1" y1="75" y2="75"/><linearGradient id="lg2"><stop offset="0" stop-color="#ffe177"/><stop offset="1" stop-color="#feb137"/></linearGradient><linearGradient id="SVGID_4_" gradientUnits="userSpaceOnUse" x1="258.667" x2="321.333" xlink:href="#lg2" y1="75" y2="75"/><linearGradient id="lg3"><stop offset="0" stop-color="#cdbfba"/><stop offset="1" stop-color="#766e6e"/></linearGradient><linearGradient id="SVGID_5_" gradientUnits="userSpaceOnUse" x1="208.562" x2="466.806" xlink:href="#lg3" y1="250.55" y2="250.55"/><linearGradient id="SVGID_6_" gradientUnits="userSpaceOnUse" x1="208.562" x2="466.806" xlink:href="#lg3" y1="326.732" y2="326.732"/><linearGradient id="SVGID_7_" gradientUnits="userSpaceOnUse" x1="208.515" x2="465.337" xlink:href="#lg3" y1="402.914" y2="402.914"/><linearGradient id="SVGID_8_" gradientUnits="userSpaceOnUse" x1="41.358" x2="188.032" y1="318.232" y2="318.232"><stop offset="0" stop-color="#01d0fb"/><stop offset=".6075" stop-color="#26a6fe"/><stop offset="1" stop-color="#0182fc"/></linearGradient><linearGradient id="SVGID_9_" gradientUnits="userSpaceOnUse" x1="80" x2="226.67" y1="318.232" y2="318.232"><stop offset="0" stop-color="#01bffa"/><stop offset=".2539" stop-color="#1f9efc"/><stop offset=".5724" stop-color="#407afd"/><stop offset=".8326" stop-color="#5464ff"/><stop offset="1" stop-color="#5b5cff"/></linearGradient><linearGradient id="SVGID_10_" gradientUnits="userSpaceOnUse" x1="56.356" x2="160.927" xlink:href="#lg1" y1="299.386" y2="299.386"/><linearGradient id="SVGID_11_" gradientUnits="userSpaceOnUse" x1="42.667" x2="174.616" xlink:href="#lg1" y1="389.494" y2="389.494"/><linearGradient id="SVGID_12_" gradientUnits="userSpaceOnUse" x1="101" x2="174.246" xlink:href="#lg2" y1="299.386" y2="299.386"/><linearGradient id="SVGID_13_" gradientUnits="userSpaceOnUse" x1="68.667" x2="192.115" xlink:href="#lg2" y1="389.494" y2="389.494"/><g><path d="m478.08 142.5h-98.55c-16.5 0-29.88-13.38-29.88-29.88 0-5.49-2.23-10.46-5.82-14.06-3.6-3.6-8.57-5.82-14.06-5.82h-149.54c-10.98 0-19.88 8.9-19.88 19.88 0 8.25-3.35 15.72-8.75 21.13-5.41 5.41-12.88 8.75-21.13 8.75h-98.55c-17.63 0-31.92 14.29-31.92 31.92v286.15c0 17.63 14.29 31.93 31.92 31.93h446.16c17.63 0 31.92-14.3 31.92-31.93v-286.15c0-17.63-14.29-31.92-31.92-31.92zm-161.56-4.15c-2.57 2.57-6.11 4.15-10.02 4.15h-103c-7.82 0-14.17-6.34-14.17-14.17 0-3.91 1.59-7.45 4.15-10.01 2.57-2.56 6.11-4.15 10.02-4.15h103c7.82 0 14.17 6.34 14.17 14.16 0 3.91-1.59 7.46-4.15 10.02z" fill="url(#SVGID_1_)"/><path d="m478.077 142.497h-41.025c17.63 0 31.923 14.292 31.923 31.923v286.155c0 17.63-14.292 31.923-31.923 31.923h41.025c17.63 0 31.923-14.292 31.923-31.923v-286.155c0-17.631-14.292-31.923-31.923-31.923z" fill="url(#SVGID_2_)"/><path d="m296.667 132.5h-83.333c-7.364 0-13.333-5.97-13.333-13.333v-88.334c0-7.364 5.97-13.333 13.333-13.333h83.333c7.363 0 13.333 5.97 13.333 13.333v88.333c0 7.364-5.97 13.334-13.333 13.334z" fill="url(#SVGID_3_)"/><path d="m296.667 17.5h-40.02c7.364 0 13.333 5.969 13.333 13.333v88.333c0 7.364-5.969 13.333-13.333 13.333h40.02c7.364 0 13.333-5.97 13.333-13.333v-88.333c0-7.364-5.969-13.333-13.333-13.333z" fill="url(#SVGID_4_)"/><g><path d="m462.802 232.782h-256.937c-3.239 0-5.865 2.626-5.865 5.865v23.806c0 3.239 2.626 5.865 5.865 5.865h256.937c3.239 0 5.865-2.626 5.865-5.865v-23.806c0-3.239-2.626-5.865-5.865-5.865z" fill="url(#SVGID_5_)"/><path d="m462.802 308.964h-256.937c-3.239 0-5.865 2.626-5.865 5.865v23.806c0 3.239 2.626 5.865 5.865 5.865h256.937c3.239 0 5.865-2.626 5.865-5.865v-23.806c0-3.239-2.626-5.865-5.865-5.865z" fill="url(#SVGID_6_)"/><path d="m318.768 385.146h-112.903c-3.239 0-5.865 2.626-5.865 5.865v23.806c0 3.239 2.626 5.865 5.865 5.865h112.903c3.239 0 5.865-2.626 5.865-5.865v-23.806c0-3.239-2.626-5.865-5.865-5.865z" fill="url(#SVGID_7_)"/></g><path d="m160.155 403.682h-103.027c-7.987 0-14.462-6.475-14.462-14.462v-141.977c0-7.987 6.475-14.462 14.462-14.462h103.026c7.987 0 14.462 6.475 14.462 14.462v141.977c0 7.987-6.475 14.462-14.461 14.462z" fill="url(#SVGID_8_)"/><path d="m160.155 232.782h-40.02c7.987 0 14.462 6.475 14.462 14.462v141.977c0 7.987-6.475 14.462-14.462 14.462h40.02c7.987 0 14.462-6.475 14.462-14.462v-141.978c-.001-7.987-6.476-14.461-14.462-14.461z" fill="url(#SVGID_9_)"/><g><circle cx="108.641" cy="299.386" fill="url(#SVGID_10_)" r="52.285"/><path d="m108.641 358.306c-26.402 0-50.043 11.786-65.975 30.376v17.539c0 7.987 6.475 14.462 14.461 14.462h103.026c7.987 0 14.462-6.475 14.462-14.462v-17.539c-15.93-18.59-39.571-30.376-65.974-30.376z" fill="url(#SVGID_11_)"/></g><path d="m108.641 247.101c-7.089 0-13.845 1.418-20.01 3.974 18.946 7.856 32.275 26.524 32.275 48.311s-13.329 40.455-32.275 48.311c6.165 2.556 12.921 3.974 20.01 3.974 28.876 0 52.285-23.409 52.285-52.285.001-28.876-23.408-52.285-52.285-52.285z" fill="url(#SVGID_12_)"/><path d="m108.641 358.306c-6.888 0-13.586.809-20.01 2.325 10.21 2.409 19.725 6.619 28.19 12.277 11.118 7.431 17.775 19.94 17.775 33.312 0 7.987-6.475 14.462-14.462 14.462h40.02c7.987 0 14.462-6.475 14.462-14.462v-17.539c-15.931-18.589-39.572-30.375-65.975-30.375z" fill="url(#SVGID_13_)"/></g></svg>