<svg id="Capa_1" enable-background="new 0 0 510 510" height="512" viewBox="0 0 510 510" width="512" xmlns="http://www.w3.org/2000/svg" xmlns:xlink="http://www.w3.org/1999/xlink"><linearGradient id="SVGID_1_" gradientUnits="userSpaceOnUse" x1="1.602" x2="502.582" y1="201.472" y2="201.472"><stop offset="0" stop-color="#b0e7c9"/><stop offset=".593" stop-color="#46cc8d"/><stop offset="1" stop-color="#0ab69f"/></linearGradient><linearGradient id="SVGID_2_" gradientUnits="userSpaceOnUse" x1="401" x2="504.005" y1="173.142" y2="173.142"><stop offset="0" stop-color="#46cc8d"/><stop offset=".5484" stop-color="#0ab69f"/><stop offset="1" stop-color="#01998d"/></linearGradient><linearGradient id="lg1"><stop offset="0" stop-color="#fff9df"/><stop offset=".593" stop-color="#ffe177"/><stop offset="1" stop-color="#feb137"/></linearGradient><linearGradient id="SVGID_3_" gradientUnits="userSpaceOnUse" x1="16.73" x2="135.611" xlink:href="#lg1" y1="165.536" y2="165.536"/><linearGradient id="lg2"><stop offset="0" stop-color="#ffe177"/><stop offset="1" stop-color="#feb137"/></linearGradient><linearGradient id="SVGID_4_" gradientUnits="userSpaceOnUse" x1="54.667" x2="146.002" xlink:href="#lg2" y1="182.835" y2="182.835"/><linearGradient id="SVGID_5_" gradientUnits="userSpaceOnUse" x1="173.401" x2="292.282" xlink:href="#lg1" y1="165.536" y2="165.536"/><linearGradient id="SVGID_6_" gradientUnits="userSpaceOnUse" x1="203.333" x2="300.021" xlink:href="#lg2" y1="182.835" y2="182.835"/><linearGradient id="lg3"><stop offset="0" stop-color="#09a755"/><stop offset=".6075" stop-color="#01998d"/><stop offset="1" stop-color="#006e66"/></linearGradient><linearGradient id="SVGID_7_" gradientUnits="userSpaceOnUse" x1="330.072" x2="448.953" xlink:href="#lg3" y1="165.536" y2="165.536"/><linearGradient id="SVGID_8_" gradientUnits="userSpaceOnUse" x1="318.667" x2="439.341" xlink:href="#lg3" y1="182.835" y2="182.835"/><linearGradient id="SVGID_9_" gradientUnits="userSpaceOnUse" x1="232.208" x2="549.719" y1="373.454" y2="373.454"><stop offset="0" stop-color="#01d0fb"/><stop offset=".6075" stop-color="#26a6fe"/><stop offset="1" stop-color="#0182fc"/></linearGradient><linearGradient id="SVGID_10_" gradientUnits="userSpaceOnUse" x1="313" x2="484.657" y1="373.454" y2="373.454"><stop offset="0" stop-color="#01bffa"/><stop offset="1" stop-color="#5b5cff"/></linearGradient><g><g><path d="m478.077 23.046h-446.154c-17.631 0-31.923 14.292-31.923 31.922v236.346c0 17.63 14.292 31.923 31.923 31.923 13.788 0 24.966 11.177 24.966 24.966v3.337c0 25.215 30.486 37.842 48.315 20.013l40.026-40.026c5.308-5.308 12.507-8.29 20.013-8.29h312.835c17.63 0 31.923-14.292 31.923-31.923v-236.346c-.001-17.63-14.293-31.922-31.924-31.922z" fill="url(#SVGID_1_)"/><path d="m478.077 23.046h-41.025c17.63 0 31.923 14.292 31.923 31.923v236.346c0 17.63-14.292 31.923-31.923 31.923h41.025c17.63 0 31.923-14.292 31.923-31.923v-236.347c0-17.63-14.292-31.922-31.923-31.922z" fill="url(#SVGID_2_)"/><g><g><path d="m113.45 109.973 11.699 23.705 26.16 3.801c13.831 2.01 19.354 19.007 9.346 28.763l-18.93 18.452 4.469 26.055c2.363 13.775-12.096 24.28-24.467 17.776l-23.398-12.301-23.399 12.301c-12.371 6.504-26.83-4.001-24.467-17.776l4.469-26.055-18.93-18.452c-10.008-9.756-4.486-26.753 9.346-28.763l26.16-3.801 11.699-23.705c6.186-12.533 24.058-12.533 30.243 0z" fill="url(#SVGID_3_)"/><path d="m151.309 137.479-15.891-2.309v.019c0 37.245-30.193 67.437-67.437 67.437-5.444 0-10.735-.65-15.805-1.867l-1.713 9.989c-2.363 13.775 12.096 24.28 24.467 17.776l23.398-12.301 23.398 12.301c12.371 6.504 26.83-4.001 24.467-17.776l-4.469-26.055 18.93-18.452c10.009-9.755 4.487-26.752-9.345-28.762z" fill="url(#SVGID_4_)"/></g><g><path d="m270.121 109.973 11.699 23.705 26.16 3.801c13.831 2.01 19.354 19.007 9.346 28.763l-18.93 18.452 4.469 26.055c2.363 13.775-12.096 24.28-24.467 17.776l-23.398-12.302-23.398 12.301c-12.371 6.504-26.83-4.001-24.467-17.776l4.469-26.055-18.93-18.452c-10.008-9.756-4.486-26.753 9.346-28.763l26.16-3.801 11.699-23.705c6.185-12.532 24.057-12.532 30.242.001z" fill="url(#SVGID_5_)"/><path d="m307.981 137.479-15.891-2.309v.019c0 37.245-30.193 67.437-67.437 67.437-5.444 0-10.735-.65-15.805-1.867l-1.713 9.989c-2.363 13.775 12.096 24.28 24.467 17.776l23.398-12.301 23.398 12.301c12.371 6.504 26.83-4.001 24.467-17.776l-4.469-26.055 18.93-18.452c10.009-9.755 4.486-26.752-9.345-28.762z" fill="url(#SVGID_6_)"/></g><g><path d="m426.793 109.973 11.699 23.705 26.16 3.801c13.831 2.01 19.354 19.007 9.346 28.763l-18.93 18.452 4.469 26.055c2.363 13.775-12.096 24.28-24.467 17.776l-23.398-12.301-23.398 12.301c-12.371 6.504-26.83-4.001-24.467-17.776l4.469-26.055-18.93-18.452c-10.008-9.756-4.486-26.753 9.346-28.763l26.16-3.801 11.699-23.705c6.184-12.533 24.056-12.533 30.242 0z" fill="url(#SVGID_7_)"/><path d="m464.652 137.479-15.891-2.309v.019c0 37.245-30.193 67.437-67.437 67.437-5.444 0-10.735-.65-15.805-1.867l-1.713 9.989c-2.363 13.775 12.096 24.28 24.467 17.776l23.398-12.301 23.398 12.301c12.371 6.504 26.83-4.001 24.467-17.776l-4.469-26.055 18.93-18.452c10.009-9.755 4.487-26.752-9.345-28.762z" fill="url(#SVGID_8_)"/></g></g></g><g><path d="m235.642 259.954h207.803c15.435 0 27.948 12.513 27.948 27.948v121.498c0 15.435-12.513 27.948-27.948 27.948-12.071 0-21.857 9.786-21.857 21.857v2.921c0 22.075-26.69 33.13-42.299 17.521l-35.042-35.042c-4.647-4.647-10.949-7.257-17.521-7.257h-91.084c-15.435 0-27.948-12.513-27.948-27.948v-121.498c0-15.435 12.513-27.948 27.948-27.948z" fill="url(#SVGID_9_)"/><path d="m443.445 259.954h-40.02c15.435 0 27.948 12.513 27.948 27.948v121.498c0 15.435-12.513 27.948-27.948 27.948-12.071 0-21.857 9.786-21.857 21.857v2.922c0 5.834-1.876 10.887-4.907 14.893l2.628 2.628c15.609 15.61 42.299 4.554 42.299-17.521v-2.922c0-12.071 9.786-21.857 21.857-21.857 15.435 0 27.948-12.513 27.948-27.948v-121.498c0-15.435-12.513-27.948-27.948-27.948z" fill="url(#SVGID_10_)"/></g></g></svg>