<svg id="Capa_1" enable-background="new 0 0 510 510" height="512" viewBox="0 0 510 510" width="512" xmlns="http://www.w3.org/2000/svg" xmlns:xlink="http://www.w3.org/1999/xlink"><linearGradient id="lg1"><stop offset="0" stop-color="#cdbfba"/><stop offset="1" stop-color="#766e6e"/></linearGradient><linearGradient id="SVGID_1_" gradientUnits="userSpaceOnUse" x1="205" x2="311" xlink:href="#lg1" y1="452.5" y2="452.5"/><linearGradient id="SVGID_2_" gradientUnits="userSpaceOnUse" x1="231" x2="338.019" y1="452.5" y2="452.5"><stop offset="0" stop-color="#9e9797"/><stop offset="1" stop-color="#5b5555"/></linearGradient><linearGradient id="SVGID_3_" gradientUnits="userSpaceOnUse" x1="109.852" x2="129.852" xlink:href="#lg1" y1="255" y2="255"/><linearGradient id="SVGID_4_" gradientUnits="userSpaceOnUse" x1="245" x2="265" xlink:href="#lg1" y1="68.75" y2="68.75"/><linearGradient id="SVGID_5_" gradientUnits="userSpaceOnUse" x1="380.148" x2="400.148" xlink:href="#lg1" y1="255" y2="255"/><linearGradient id="SVGID_6_" gradientUnits="userSpaceOnUse" x1="1.602" x2="502.582" y1="255.247" y2="255.247"><stop offset="0" stop-color="#f2fbff"/><stop offset=".593" stop-color="#faf7f7"/><stop offset="1" stop-color="#f3eae6"/></linearGradient><linearGradient id="SVGID_7_" gradientUnits="userSpaceOnUse" x1="42.369" x2="462.751" y1="255.247" y2="255.247"><stop offset="0" stop-color="#fe99a0"/><stop offset=".593" stop-color="#fe646f"/><stop offset="1" stop-color="#e41f2d"/></linearGradient><linearGradient id="lg2"><stop offset="0" stop-color="#fff9df"/><stop offset=".593" stop-color="#ffe177"/><stop offset="1" stop-color="#feb137"/></linearGradient><linearGradient id="SVGID_8_" gradientUnits="userSpaceOnUse" x1="82.599" x2="429.614" xlink:href="#lg2" y1="255.247" y2="255.247"/><linearGradient id="SVGID_9_" gradientUnits="userSpaceOnUse" x1="82.599" x2="429.614" xlink:href="#lg2" y1="256.038" y2="256.038"/><linearGradient id="SVGID_10_" gradientUnits="userSpaceOnUse" x1="429.082" x2="566.397" y1="255.247" y2="255.247"><stop offset="0" stop-color="#f3eae6"/><stop offset="1" stop-color="#cdbfba"/></linearGradient><linearGradient id="SVGID_11_" gradientUnits="userSpaceOnUse" x1="77.681" x2="162.023" xlink:href="#lg1" y1="14.795" y2="14.795"/><linearGradient id="SVGID_12_" gradientTransform="matrix(1 0 0 -1 0 33.076)" gradientUnits="userSpaceOnUse" x1="77.681" x2="162.023" xlink:href="#lg2" y1="-11.31" y2="-11.31"/><linearGradient id="lg3"><stop offset="0" stop-color="#ffe177"/><stop offset="1" stop-color="#feb137"/></linearGradient><linearGradient id="SVGID_13_" gradientUnits="userSpaceOnUse" x1="119.171" x2="159.85" xlink:href="#lg3" y1="44.386" y2="44.386"/><linearGradient id="SVGID_14_" gradientUnits="userSpaceOnUse" x1="212.829" x2="297.171" xlink:href="#lg1" y1="14.795" y2="14.795"/><linearGradient id="SVGID_15_" gradientTransform="matrix(1 0 0 -1 0 33.076)" gradientUnits="userSpaceOnUse" x1="212.829" x2="297.171" xlink:href="#lg2" y1="-11.31" y2="-11.31"/><linearGradient id="SVGID_16_" gradientUnits="userSpaceOnUse" x1="254.32" x2="294.999" xlink:href="#lg3" y1="44.386" y2="44.386"/><linearGradient id="SVGID_17_" gradientUnits="userSpaceOnUse" x1="347.977" x2="432.32" xlink:href="#lg1" y1="14.795" y2="14.795"/><linearGradient id="SVGID_18_" gradientTransform="matrix(1 0 0 -1 0 33.076)" gradientUnits="userSpaceOnUse" x1="347.977" x2="432.32" xlink:href="#lg2" y1="-11.31" y2="-11.31"/><linearGradient id="SVGID_19_" gradientUnits="userSpaceOnUse" x1="389.468" x2="430.147" xlink:href="#lg3" y1="44.386" y2="44.386"/><linearGradient id="SVGID_20_" gradientUnits="userSpaceOnUse" x1="13.523" x2="507" xlink:href="#lg1" y1="459.25" y2="459.25"/><g><g><path d="m296.667 510h-83.333c-7.364 0-13.334-5.97-13.334-13.333v-88.333c0-7.364 5.97-13.333 13.333-13.333h83.333c7.364 0 13.333 5.97 13.333 13.333v88.333c.001 7.363-5.969 13.333-13.332 13.333z" fill="url(#SVGID_1_)"/><path d="m296.667 395h-40.02c7.364 0 13.333 5.969 13.333 13.333v88.333c0 7.364-5.969 13.333-13.333 13.333h40.02c7.364 0 13.333-5.97 13.333-13.333v-88.333c0-7.364-5.969-13.333-13.333-13.333z" fill="url(#SVGID_2_)"/></g><path d="m119.852 469.25c-5.523 0-10-4.477-10-10v-408.5c0-5.523 4.477-10 10-10s10 4.477 10 10v408.5c0 5.523-4.477 10-10 10z" fill="url(#SVGID_3_)"/><path d="m255 96.75c-5.523 0-10-4.477-10-10v-36c0-5.523 4.477-10 10-10 5.522 0 10 4.477 10 10v36c0 5.523-4.478 10-10 10z" fill="url(#SVGID_4_)"/><path d="m390.148 469.25c-5.522 0-10-4.477-10-10v-408.5c0-5.523 4.478-10 10-10s10 4.477 10 10v408.5c0 5.523-4.477 10-10 10z" fill="url(#SVGID_5_)"/><path d="m478.077 430.247h-446.154c-17.631 0-31.923-14.293-31.923-31.923v-286.154c0-17.63 14.292-31.923 31.923-31.923h446.154c17.63 0 31.923 14.292 31.923 31.923v286.155c0 17.629-14.292 31.922-31.923 31.922z" fill="url(#SVGID_6_)"/><path d="m443.258 390.605h-376.515c-14.204 0-25.718-11.514-25.718-25.718v-219.281c0-14.204 11.514-25.718 25.718-25.718h376.515c14.204 0 25.718 11.514 25.718 25.718v219.281c-.001 14.204-11.515 25.718-25.718 25.718z" fill="url(#SVGID_7_)"/><g><path d="m105.899 335.602c0-.792.264-1.848.527-2.903l49.084-160.976c2.903-9.236 14.779-13.722 26.917-13.722 12.14 0 24.015 4.486 26.917 13.722l49.349 160.977c.264 1.055.527 2.111.527 2.903 0 9.764-15.042 16.889-26.389 16.889-6.598 0-11.875-2.111-13.459-7.653l-8.973-32.987h-55.682l-8.972 32.987c-1.583 5.542-6.861 7.653-13.459 7.653-11.346 0-26.387-7.125-26.387-16.89zm95.794-55.417-19.265-70.723-19.264 70.723z" fill="url(#SVGID_8_)"/><path d="m339.184 159.585c36.418 0 64.918 16.889 64.918 62.279v68.349c0 45.389-28.5 62.279-64.918 62.279h-46.71c-10.819 0-17.945-5.806-17.945-12.403v-168.1c0-6.598 7.126-12.403 17.945-12.403h46.71zm-23.487 35.89v121.127h23.486c14.777 0 23.751-8.445 23.751-26.389v-68.349c0-17.945-8.973-26.389-23.751-26.389z" fill="url(#SVGID_9_)"/></g><path d="m478.077 80.247h-41.025c17.63 0 31.923 14.292 31.923 31.923v286.155c0 17.63-14.292 31.923-31.923 31.923h41.025c17.63 0 31.923-14.292 31.923-31.923v-286.155c0-17.631-14.292-31.923-31.923-31.923z" fill="url(#SVGID_10_)"/><g><g><path d="m162.023 29.591h-84.342c0-16.343 13.248-29.591 29.59-29.591h25.16c16.343 0 29.592 13.248 29.592 29.591z" fill="url(#SVGID_11_)"/><path d="m162.023 29.591h-84.342c0 16.343 13.248 29.591 29.591 29.591h25.16c16.342 0 29.591-13.249 29.591-29.591z" fill="url(#SVGID_12_)"/><path d="m77.681 29.591c0 2.71.372 5.332 1.054 7.826h36.145c11.146 0 16.49 14.147 7.79 21.115-.28.224-.569.441-.868.65h10.63c16.343 0 29.591-13.248 29.591-29.591z" fill="url(#SVGID_13_)"/></g><g><path d="m297.171 29.591h-84.342c0-16.343 13.248-29.591 29.591-29.591h25.16c16.343 0 29.591 13.248 29.591 29.591z" fill="url(#SVGID_14_)"/><path d="m297.171 29.591h-84.342c0 16.343 13.248 29.591 29.591 29.591h25.16c16.343 0 29.591-13.249 29.591-29.591z" fill="url(#SVGID_15_)"/><path d="m212.829 29.591c0 2.71.372 5.332 1.054 7.826h36.145c11.146 0 16.49 14.147 7.79 21.115-.28.224-.569.441-.868.65h10.63c16.343 0 29.591-13.248 29.591-29.591z" fill="url(#SVGID_16_)"/></g><g><path d="m432.319 29.591h-84.342c0-16.343 13.249-29.591 29.591-29.591h25.16c16.343 0 29.591 13.248 29.591 29.591z" fill="url(#SVGID_17_)"/><path d="m432.319 29.591h-84.342c0 16.343 13.248 29.591 29.591 29.591h25.16c16.343 0 29.591-13.249 29.591-29.591z" fill="url(#SVGID_18_)"/><path d="m347.977 29.591c0 2.71.372 5.332 1.054 7.826h36.145c11.146 0 16.49 14.147 7.79 21.115-.28.224-.569.441-.868.65h10.63c16.343 0 29.591-13.248 29.591-29.591z" fill="url(#SVGID_19_)"/></g></g><path d="m497 469.25h-473.478c-5.523 0-10-4.477-10-10s4.477-10 10-10h473.478c5.522 0 10 4.477 10 10s-4.478 10-10 10z" fill="url(#SVGID_20_)"/></g></svg>