<svg id="Capa_1" enable-background="new 0 0 510 510" height="512" viewBox="0 0 510 510" width="512" xmlns="http://www.w3.org/2000/svg" xmlns:xlink="http://www.w3.org/1999/xlink"><linearGradient id="SVGID_1_" gradientUnits="userSpaceOnUse" x1="33.018" x2="471.887" y1="207.461" y2="207.461"><stop offset="0" stop-color="#cdbfba"/><stop offset="1" stop-color="#766e6e"/></linearGradient><linearGradient id="lg1"><stop offset="0" stop-color="#9e9797"/><stop offset="1" stop-color="#5b5555"/></linearGradient><linearGradient id="SVGID_2_" gradientUnits="userSpaceOnUse" x1="272" x2="499.379" xlink:href="#lg1" y1="207.461" y2="207.461"/><linearGradient id="lg2"><stop offset="0" stop-color="#f2fbff"/><stop offset=".593" stop-color="#faf7f7"/><stop offset="1" stop-color="#f3eae6"/></linearGradient><linearGradient id="SVGID_3_" gradientUnits="userSpaceOnUse" x1="80.15" x2="425.837" xlink:href="#lg2" y1="311.192" y2="311.192"/><linearGradient id="lg3"><stop offset="0" stop-color="#f3eae6"/><stop offset="1" stop-color="#cdbfba"/></linearGradient><linearGradient id="SVGID_4_" gradientUnits="userSpaceOnUse" x1="359.239" x2="429.909" xlink:href="#lg3" y1="311.192" y2="311.192"/><linearGradient id="SVGID_5_" gradientUnits="userSpaceOnUse" x1="429" x2="466.62" xlink:href="#lg1" y1="409.183" y2="409.183"/><linearGradient id="SVGID_6_" gradientUnits="userSpaceOnUse" x1="154" x2="382.316" xlink:href="#lg1" y1="80.853" y2="80.853"/><linearGradient id="SVGID_7_" gradientUnits="userSpaceOnUse" x1="104.55" x2="311.929" xlink:href="#lg2" y1="83.354" y2="83.354"/><linearGradient id="SVGID_8_" gradientUnits="userSpaceOnUse" x1="243.283" x2="313.954" xlink:href="#lg3" y1="83.354" y2="83.354"/><linearGradient id="SVGID_9_" gradientUnits="userSpaceOnUse" x1="291.333" x2="344.508" xlink:href="#lg1" y1="9.611" y2="9.611"/><linearGradient id="SVGID_10_" gradientUnits="userSpaceOnUse" x1="114" x2="409.447" y1="358.731" y2="358.731"><stop offset="0" stop-color="#fe99a0"/><stop offset=".593" stop-color="#fe646f"/><stop offset="1" stop-color="#e41f2d"/></linearGradient><linearGradient id="lg4"><stop offset="0" stop-color="#fe646f"/><stop offset=".7043" stop-color="#e41f2d"/><stop offset="1" stop-color="#c41926"/></linearGradient><linearGradient id="SVGID_11_" gradientUnits="userSpaceOnUse" x1="266.143" x2="377.178" xlink:href="#lg4" y1="274.673" y2="274.673"/><linearGradient id="SVGID_12_" gradientUnits="userSpaceOnUse" x1="266.143" x2="377.178" xlink:href="#lg4" y1="425.938" y2="425.938"/><g><g><path d="m360.066 0h-296.529c-17.63 0-31.923 14.292-31.923 31.923v351.076c0 17.63 14.292 31.923 31.923 31.923h382.926c17.63 0 31.923-14.292 31.923-31.923v-264.68c0-12.08-4.799-23.666-13.341-32.208l-72.77-72.77c-8.543-8.542-20.128-13.341-32.209-13.341z" fill="url(#SVGID_1_)"/><path d="m465.045 86.111-72.77-72.77c-8.543-8.542-20.128-13.341-32.209-13.341h-40.02c12.08 0 23.666 4.799 32.208 13.341l72.77 72.77c8.542 8.542 13.341 20.128 13.341 32.208v264.68c0 17.63-14.292 31.923-31.923 31.923h40.02c17.63 0 31.923-14.292 31.923-31.923v-264.68c.001-12.08-4.798-23.666-13.34-32.208z" fill="url(#SVGID_2_)"/><path d="m399.033 207.461h-83.84l-58.023 7-62.11-7h-84.092c-17.63 0-31.923 14.292-31.923 31.923v175.538h351.911v-175.538c-.001-17.631-14.293-31.923-31.923-31.923z" fill="url(#SVGID_3_)"/><path d="m399.033 207.461h-40.02c17.63 0 31.923 14.292 31.923 31.923v175.538h40.02v-175.538c-.001-17.631-14.293-31.923-31.923-31.923z" fill="url(#SVGID_4_)"/><path d="m406.443 414.922h24.513v-11.478c-5.856 7.014-14.662 11.478-24.513 11.478z" fill="url(#SVGID_5_)"/><path d="m111.968 161.705h214.245c17.63 0 31.923-14.292 31.923-31.923v-129.782h-278.091v129.782c0 17.631 14.292 31.923 31.923 31.923z" fill="url(#SVGID_6_)"/><g><path d="m103.887 0v134.785c0 17.63 14.292 31.923 31.923 31.923h147.268c17.63 0 31.923-14.292 31.923-31.923v-134.785zm174.795 119.381c0 8.269-6.703 14.973-14.973 14.973h-18.721c-8.269 0-14.973-6.703-14.973-14.973v-72.054c0-8.269 6.703-14.973 14.973-14.973h18.721c8.269 0 14.973 6.703 14.973 14.973z" fill="url(#SVGID_7_)"/><g><path d="m274.98 0v37.491c2.299 2.632 3.703 6.067 3.703 9.836v72.055c0 3.769-1.403 7.204-3.703 9.836v5.568c0 17.63-14.292 31.923-31.923 31.923h40.02c17.63 0 31.923-14.292 31.923-31.923v-134.786z" fill="url(#SVGID_8_)"/></g></g><path d="m358.136 19.222v-19.222h-38.089c12.08 0 23.666 4.799 32.208 13.341z" fill="url(#SVGID_9_)"/></g><path d="m367.001 341.884h-52.001v-134.423h-120v134.423h-52.001c-20.366 0-31.392 23.852-18.197 39.365l96.098 112.988c17.875 21.017 50.323 21.017 68.199 0l96.098-112.988c13.196-15.513 2.17-39.365-18.196-39.365z" fill="url(#SVGID_10_)"/><g><path d="m274.98 207.461h40.02v134.423h-40.02z" fill="url(#SVGID_11_)"/><path d="m367.001 341.884h-40.02c20.366 0 31.392 23.852 18.197 39.365l-96.098 112.988c-4.058 4.771-8.871 8.447-14.089 11.052 17.771 8.87 40.292 5.194 54.109-11.052l96.098-112.988c13.195-15.513 2.169-39.365-18.197-39.365z" fill="url(#SVGID_12_)"/></g></g></svg>