<svg id="Capa_1" enable-background="new 0 0 510 510" height="512" viewBox="0 0 510 510" width="512" xmlns="http://www.w3.org/2000/svg" xmlns:xlink="http://www.w3.org/1999/xlink"><linearGradient id="SVGID_1_" gradientUnits="userSpaceOnUse" x1="149.287" x2="351.182" y1="409.059" y2="409.059"><stop offset="0" stop-color="#f2fbff"/><stop offset=".593" stop-color="#faf7f7"/><stop offset="1" stop-color="#f3eae6"/></linearGradient><linearGradient id="SVGID_2_" gradientUnits="userSpaceOnUse" x1="149.287" x2="351.182" y1="409.06" y2="409.06"><stop offset="0" stop-color="#f3eae6"/><stop offset="1" stop-color="#cdbfba"/></linearGradient><linearGradient id="SVGID_3_" gradientUnits="userSpaceOnUse" x1="95" x2="413.354" y1="409.06" y2="409.06"><stop offset="0" stop-color="#01d0fb"/><stop offset=".6075" stop-color="#26a6fe"/><stop offset="1" stop-color="#0182fc"/></linearGradient><linearGradient id="lg1"><stop offset="0" stop-color="#01bffa"/><stop offset="1" stop-color="#5b5cff"/></linearGradient><linearGradient id="SVGID_4_" gradientUnits="userSpaceOnUse" x1="95" x2="413.354" xlink:href="#lg1" y1="355.624" y2="355.624"/><linearGradient id="SVGID_6_" gradientUnits="userSpaceOnUse" x1="278.667" x2="410.286" xlink:href="#lg1" y1="409.06" y2="409.06"/><linearGradient id="SVGID_7_" gradientUnits="userSpaceOnUse" x1="46.383" x2="449.662" y1="199.241" y2="199.241"><stop offset="0" stop-color="#fff9df"/><stop offset=".593" stop-color="#ffe177"/><stop offset="1" stop-color="#feb137"/></linearGradient><linearGradient id="lg2"><stop offset="0" stop-color="#ffe177"/><stop offset="1" stop-color="#feb137"/></linearGradient><linearGradient id="SVGID_8_" gradientUnits="userSpaceOnUse" x1="201" x2="394.21" xlink:href="#lg2" y1="199.241" y2="199.241"/><linearGradient id="SVGID_9_" gradientUnits="userSpaceOnUse" x1="162.021" x2="339.596" xlink:href="#lg2" y1="199.241" y2="199.241"/><linearGradient id="SVGID_10_" gradientUnits="userSpaceOnUse" x1="262.258" x2="363.67" y1="199.241" y2="199.241"><stop offset="0" stop-color="#feb137"/><stop offset="1" stop-color="#eca026"/></linearGradient><linearGradient id="SVGID_11_" gradientUnits="userSpaceOnUse" x1="134" x2="310.284" y1="199.241" y2="199.241"><stop offset="0" stop-color="#fe99a0"/><stop offset=".593" stop-color="#fe646f"/><stop offset="1" stop-color="#e41f2d"/></linearGradient><linearGradient id="SVGID_12_" gradientUnits="userSpaceOnUse" x1="217" x2="351" y1="224.892" y2="224.892"><stop offset="0" stop-color="#fe646f"/><stop offset=".7043" stop-color="#e41f2d"/><stop offset="1" stop-color="#c41926"/></linearGradient><g><path d="m373.479 508.273-93.27-32.061c-16.337-5.616-34.081-5.616-50.417 0l-93.27 32.061c-20.344 6.993-41.522-8.122-41.522-29.633v-170.522h320v170.522c0 21.511-21.178 36.626-41.521 29.633z" fill="url(#SVGID_1_)"/><path d="m415 308.12v170.52c0 21.51-21.18 36.63-41.52 29.63l-11.75-4.04c7.9-5.58 13.25-14.78 13.25-25.59v-95.31c-33.37 25.21-74.93 40.16-119.98 40.16-65.54 0-123.69-31.65-160-80.49v-34.88z" fill="url(#SVGID_2_)"/><g><path d="m95 478.64c0 21.51 21.18 36.63 41.52 29.63l30.68-10.55v-189.6h-72.2z" fill="url(#SVGID_3_)"/><path d="m167.2 403.128v-95.008h-72.2v34.88c18.851 25.356 43.598 46.061 72.2 60.128z" fill="url(#SVGID_4_)"/><path d="m342.8 308.12v189.6l30.68 10.55c20.34 7 41.52-8.12 41.52-29.63v-170.52z" fill="url(#SVGID_3_)"/><path d="m374.98 383.33v95.31c0 10.81-5.35 20.01-13.25 25.59l11.75 4.04c20.34 7 41.52-8.12 41.52-29.63v-170.52h-72.2v95.023c11.38-5.596 22.152-12.237 32.18-19.813z" fill="url(#SVGID_6_)"/></g><g><g><circle cx="255" cy="199.241" fill="url(#SVGID_7_)" r="199.241"/></g><path d="m255 0c-6.754 0-13.429.34-20.01.997 100.641 10.037 179.231 94.961 179.231 198.244s-78.59 188.207-179.231 198.244c6.581.656 13.256.997 20.01.997 110.038 0 199.241-89.203 199.241-199.241s-89.203-199.241-199.241-199.241z" fill="url(#SVGID_8_)"/><circle cx="255" cy="199.241" fill="url(#SVGID_9_)" r="140.726"/><path d="m255 58.515c-6.794 0-13.473.492-20.01 1.423 68.242 9.716 120.716 68.377 120.716 139.304s-52.474 129.586-120.716 139.302c6.537.931 13.216 1.423 20.01 1.423 77.721 0 140.726-63.005 140.726-140.726s-63.005-140.726-140.726-140.726z" fill="url(#SVGID_10_)"/><g><path d="m277.423 116.848 17.348 35.152 38.792 5.637c20.51 2.98 28.699 28.185 13.858 42.651l-28.07 27.362 6.626 38.635c3.503 20.427-17.937 36.004-36.281 26.36l-34.696-18.242-34.697 18.241c-18.344 9.644-39.785-5.933-36.281-26.36l6.626-38.635-28.07-27.362c-14.841-14.466-6.652-39.671 13.858-42.651l38.793-5.636 17.348-35.152c9.172-18.585 35.674-18.585 44.846 0z" fill="url(#SVGID_11_)"/><path d="m333.563 157.637-23.563-3.424v.028c0 55.228-44.772 100-100 100-8.072 0-15.919-.963-23.437-2.769l-2.541 14.813c-3.503 20.427 17.937 36.004 36.281 26.36l34.697-18.242 34.697 18.241c18.344 9.644 39.785-5.933 36.281-26.36l-6.626-38.635 28.07-27.362c14.84-14.466 6.651-39.67-13.859-42.65z" fill="url(#SVGID_12_)"/></g></g></g></svg>