<svg id="Capa_1" enable-background="new 0 0 510 510" height="512" viewBox="0 0 510 510" width="512" xmlns="http://www.w3.org/2000/svg" xmlns:xlink="http://www.w3.org/1999/xlink"><linearGradient id="SVGID_1_" gradientUnits="userSpaceOnUse" x1="1.602" x2="502.582" y1="289.504" y2="289.504"><stop offset="0" stop-color="#f2fbff"/><stop offset=".593" stop-color="#faf7f7"/><stop offset="1" stop-color="#f3eae6"/></linearGradient><linearGradient id="SVGID_2_" gradientUnits="userSpaceOnUse" x1="1.602" x2="502.582" y1="289.504" y2="289.504"><stop offset="0" stop-color="#f3eae6"/><stop offset="1" stop-color="#cdbfba"/></linearGradient><linearGradient id="SVGID_3_" gradientUnits="userSpaceOnUse" x1="1.602" x2="502.582" y1="130.118" y2="130.118"><stop offset="0" stop-color="#01d0fb"/><stop offset=".6075" stop-color="#26a6fe"/><stop offset="1" stop-color="#0182fc"/></linearGradient><linearGradient id="lg1"><stop offset="0" stop-color="#01bffa"/><stop offset=".2539" stop-color="#1f9efc"/><stop offset=".5724" stop-color="#407afd"/><stop offset=".8326" stop-color="#5464ff"/><stop offset="1" stop-color="#5b5cff"/></linearGradient><linearGradient id="SVGID_4_" gradientUnits="userSpaceOnUse" x1="98.667" x2="201.813" xlink:href="#lg1" y1="121.482" y2="121.482"/><linearGradient id="SVGID_5_" gradientUnits="userSpaceOnUse" x1="224" x2="346.465" xlink:href="#lg1" y1="121.482" y2="121.482"/><linearGradient id="SVGID_6_" gradientUnits="userSpaceOnUse" x1="313.333" x2="451.312" xlink:href="#lg1" y1="121.482" y2="121.482"/><linearGradient id="SVGID_7_" gradientUnits="userSpaceOnUse" x1="365" x2="527.25" xlink:href="#lg1" y1="130.118" y2="130.118"/><linearGradient id="lg2"><stop offset="0" stop-color="#fff9df"/><stop offset=".593" stop-color="#ffe177"/><stop offset="1" stop-color="#feb137"/></linearGradient><linearGradient id="SVGID_8_" gradientUnits="userSpaceOnUse" x1="78" x2="141.161" xlink:href="#lg2" y1="77.003" y2="77.003"/><linearGradient id="lg3"><stop offset="0" stop-color="#ffe177"/><stop offset="1" stop-color="#feb137"/></linearGradient><linearGradient id="SVGID_9_" gradientUnits="userSpaceOnUse" x1="106" x2="148.031" xlink:href="#lg3" y1="77.003" y2="77.003"/><linearGradient id="SVGID_10_" gradientUnits="userSpaceOnUse" x1="221.549" x2="284.71" xlink:href="#lg2" y1="77.003" y2="77.003"/><linearGradient id="SVGID_11_" gradientUnits="userSpaceOnUse" x1="249.549" x2="291.58" xlink:href="#lg3" y1="77.003" y2="77.003"/><linearGradient id="SVGID_12_" gradientUnits="userSpaceOnUse" x1="365.098" x2="428.259" xlink:href="#lg2" y1="77.003" y2="77.003"/><linearGradient id="SVGID_13_" gradientUnits="userSpaceOnUse" x1="393.098" x2="435.129" xlink:href="#lg3" y1="77.003" y2="77.003"/><linearGradient id="lg4"><stop offset="0" stop-color="#b0e7c9"/><stop offset=".593" stop-color="#46cc8d"/><stop offset="1" stop-color="#0ab69f"/></linearGradient><linearGradient id="SVGID_14_" gradientUnits="userSpaceOnUse" x1="-51.923" x2="155.728" xlink:href="#lg4" y1="282.416" y2="282.416"/><linearGradient id="SVGID_15_" gradientUnits="userSpaceOnUse" x1="101.997" x2="309.648" xlink:href="#lg4" y1="282.416" y2="282.416"/><linearGradient id="SVGID_16_" gradientUnits="userSpaceOnUse" x1="255.917" x2="463.568" xlink:href="#lg4" y1="282.416" y2="282.416"/><linearGradient id="SVGID_17_" gradientUnits="userSpaceOnUse" x1="-51.923" x2="155.728" xlink:href="#lg4" y1="407.87" y2="407.87"/><linearGradient id="SVGID_18_" gradientUnits="userSpaceOnUse" x1="101.997" x2="309.648" xlink:href="#lg4" y1="407.87" y2="407.87"/><linearGradient id="SVGID_19_" gradientUnits="userSpaceOnUse" x1="354" x2="469.004" y1="407.87" y2="407.87"><stop offset="0" stop-color="#fe99a0"/><stop offset=".593" stop-color="#fe646f"/><stop offset="1" stop-color="#e41f2d"/></linearGradient><g><path d="m478.077 500.608h-446.154c-17.631 0-31.923-14.293-31.923-31.923v-358.363c0-17.63 14.292-31.923 31.923-31.923h446.154c17.63 0 31.923 14.292 31.923 31.923v358.363c0 17.63-14.292 31.923-31.923 31.923z" fill="url(#SVGID_1_)"/><path d="m478.077 78.399h-446.154c-17.631 0-31.923 14.293-31.923 31.923v96.526h468.975v261.837c0 17.63-14.292 31.923-31.923 31.923h41.024c17.63 0 31.923-14.292 31.923-31.923v-358.363c.001-17.63-14.291-31.923-31.922-31.923z" fill="url(#SVGID_2_)"/><path d="m510 181.837h-510v-71.515c0-17.63 14.292-31.923 31.923-31.923h446.154c17.63 0 31.923 14.292 31.923 31.923z" fill="url(#SVGID_3_)"/><path d="m160.31 78.402v53.76c0 8.95-3.63 17.05-9.49 22.91-5.87 5.86-13.97 9.49-22.92 9.49-17.9 0-32.4-14.51-32.4-32.4v-53.76z" fill="url(#SVGID_4_)"/><path d="m303.86 78.402v53.76c0 8.95-3.63 17.05-9.49 22.91-5.87 5.86-13.97 9.49-22.92 9.49-17.9 0-32.41-14.51-32.41-32.4v-53.76z" fill="url(#SVGID_5_)"/><path d="m447.41 78.402v53.76c0 8.95-3.63 17.05-9.49 22.91-5.87 5.86-13.97 9.49-22.92 9.49-17.9 0-32.41-14.51-32.41-32.4v-53.76z" fill="url(#SVGID_6_)"/><path d="m478.077 78.399h-40.02c17.631 0 31.923 14.292 31.923 31.923v71.515h40.02v-71.515c0-17.63-14.292-31.923-31.923-31.923z" fill="url(#SVGID_7_)"/><g><g><path d="m143.857 112.208v-70.409c0-17.898-14.509-32.406-32.406-32.406-17.898 0-32.406 14.509-32.406 32.406v70.409c0 17.898 14.509 32.406 32.406 32.406 17.898 0 32.406-14.509 32.406-32.406z" fill="url(#SVGID_8_)"/><path d="m111.451 9.392c-4.433 0-8.657.893-12.505 2.504 11.688 4.894 19.901 16.438 19.901 29.903v70.409c0 13.464-8.213 25.009-19.901 29.903 3.848 1.611 8.072 2.504 12.505 2.504 17.898 0 32.406-14.509 32.406-32.406v-70.41c0-17.898-14.508-32.407-32.406-32.407z" fill="url(#SVGID_9_)"/></g><g><path d="m287.406 112.208v-70.409c0-17.898-14.509-32.406-32.406-32.406-17.898 0-32.406 14.509-32.406 32.406v70.409c0 17.898 14.509 32.406 32.406 32.406 17.898 0 32.406-14.509 32.406-32.406z" fill="url(#SVGID_10_)"/><path d="m255 9.392c-4.433 0-8.657.893-12.505 2.504 11.688 4.894 19.901 16.438 19.901 29.903v70.409c0 13.464-8.213 25.009-19.901 29.903 3.848 1.611 8.072 2.504 12.505 2.504 17.898 0 32.406-14.509 32.406-32.406v-70.41c0-17.898-14.508-32.407-32.406-32.407z" fill="url(#SVGID_11_)"/></g><g><path d="m430.955 112.208v-70.409c0-17.898-14.509-32.406-32.406-32.406-17.898 0-32.406 14.509-32.406 32.406v70.409c0 17.898 14.509 32.406 32.406 32.406 17.898 0 32.406-14.509 32.406-32.406z" fill="url(#SVGID_12_)"/><path d="m398.549 9.392c-4.433 0-8.657.893-12.505 2.504 11.688 4.894 19.901 16.438 19.901 29.903v70.409c0 13.464-8.213 25.009-19.901 29.903 3.848 1.611 8.072 2.504 12.505 2.504 17.898 0 32.406-14.509 32.406-32.406v-70.41c0-17.898-14.508-32.407-32.406-32.407z" fill="url(#SVGID_13_)"/></g></g><g><path d="m123.786 320.55h-45.412c-14.398 0-26.069-11.672-26.069-26.069v-24.129c0-14.398 11.672-26.069 26.069-26.069h45.412c14.398 0 26.069 11.672 26.069 26.069v24.129c0 14.398-11.672 26.069-26.069 26.069z" fill="url(#SVGID_14_)"/><path d="m277.706 320.55h-45.412c-14.398 0-26.069-11.672-26.069-26.069v-24.129c0-14.398 11.672-26.069 26.069-26.069h45.412c14.398 0 26.069 11.672 26.069 26.069v24.129c0 14.398-11.671 26.069-26.069 26.069z" fill="url(#SVGID_15_)"/><path d="m431.626 320.55h-45.412c-14.398 0-26.069-11.672-26.069-26.069v-24.129c0-14.398 11.672-26.069 26.069-26.069h45.412c14.398 0 26.069 11.672 26.069 26.069v24.129c0 14.398-11.671 26.069-26.069 26.069z" fill="url(#SVGID_16_)"/></g><g><path d="m123.786 446.004h-45.412c-14.398 0-26.069-11.672-26.069-26.069v-24.129c0-14.398 11.672-26.069 26.069-26.069h45.412c14.398 0 26.069 11.672 26.069 26.069v24.129c0 14.397-11.672 26.069-26.069 26.069z" fill="url(#SVGID_17_)"/><path d="m277.706 446.004h-45.412c-14.398 0-26.069-11.672-26.069-26.069v-24.129c0-14.398 11.672-26.069 26.069-26.069h45.412c14.398 0 26.069 11.672 26.069 26.069v24.129c0 14.397-11.671 26.069-26.069 26.069z" fill="url(#SVGID_18_)"/></g><path d="m437.219 407.87 13.723-13.723c7.814-7.814 7.814-20.484 0-28.298-7.814-7.814-20.484-7.814-28.298 0l-13.723 13.723-13.723-13.723c-7.814-7.814-20.484-7.814-28.298 0-7.814 7.814-7.814 20.484 0 28.298l13.723 13.723-13.723 13.723c-7.814 7.814-7.814 20.484 0 28.298s20.484 7.814 28.298 0l13.723-13.723 13.723 13.723c7.814 7.814 20.484 7.814 28.298 0 7.814-7.814 7.814-20.484 0-28.298z" fill="url(#SVGID_19_)"/></g></svg>