<svg id="Capa_1" enable-background="new 0 0 510 510" height="512" viewBox="0 0 510 510" width="512" xmlns="http://www.w3.org/2000/svg" xmlns:xlink="http://www.w3.org/1999/xlink"><linearGradient id="SVGID_1_" gradientUnits="userSpaceOnUse" x1="202.008" x2="304.593" y1="255" y2="255"><stop offset="0" stop-color="#cdbfba"/><stop offset="1" stop-color="#766e6e"/></linearGradient><linearGradient id="SVGID_2_" gradientUnits="userSpaceOnUse" x1="245.931" x2="283.289" y1="255" y2="255"><stop offset="0" stop-color="#9e9797"/><stop offset="1" stop-color="#5b5555"/></linearGradient><linearGradient id="SVGID_3_" gradientUnits="userSpaceOnUse" x1="9.95" x2="186.713" y1="146.561" y2="146.561"><stop offset="0" stop-color="#01d0fb"/><stop offset=".6075" stop-color="#26a6fe"/><stop offset="1" stop-color="#0182fc"/></linearGradient><linearGradient id="lg1"><stop offset="0" stop-color="#b0e7c9"/><stop offset=".593" stop-color="#46cc8d"/><stop offset="1" stop-color="#0ab69f"/></linearGradient><linearGradient id="SVGID_4_" gradientUnits="userSpaceOnUse" x1="134.435" x2="257.489" xlink:href="#lg1" y1="146.561" y2="146.561"/><linearGradient id="SVGID_5_" gradientUnits="userSpaceOnUse" x1="371.757" x2="379.343" xlink:href="#lg1" y1="258.5" y2="258.5"/><linearGradient id="SVGID_6_" gradientUnits="userSpaceOnUse" x1="254.644" x2="482.58" y1="146.557" y2="146.557"><stop offset="0" stop-color="#fe99a0"/><stop offset=".593" stop-color="#fe646f"/><stop offset="1" stop-color="#e41f2d"/></linearGradient><linearGradient id="SVGID_7_" gradientUnits="userSpaceOnUse" x1="253.933" x2="371.607" y1="146.561" y2="146.561"><stop offset="0" stop-color="#fff9df"/><stop offset=".593" stop-color="#ffe177"/><stop offset="1" stop-color="#feb137"/></linearGradient><linearGradient id="SVGID_8_" gradientUnits="userSpaceOnUse" x1="370.23" x2="490.837" y1="141.486" y2="141.486"><stop offset="0" stop-color="#fe646f"/><stop offset=".7043" stop-color="#e41f2d"/><stop offset="1" stop-color="#c41926"/></linearGradient><linearGradient id="lg2"><stop offset="0" stop-color="#f2fbff"/><stop offset=".593" stop-color="#faf7f7"/><stop offset="1" stop-color="#f3eae6"/></linearGradient><linearGradient id="SVGID_9_" gradientUnits="userSpaceOnUse" x1="228" x2="405.074" xlink:href="#lg2" y1="398.015" y2="398.015"/><linearGradient id="SVGID_10_" gradientUnits="userSpaceOnUse" x1="208" x2="316.718" xlink:href="#lg2" y1="398.015" y2="398.015"/><linearGradient id="SVGID_11_" gradientUnits="userSpaceOnUse" x1="388.5" x2="473.006" y1="398.015" y2="398.015"><stop offset="0" stop-color="#f3eae6"/><stop offset="1" stop-color="#cdbfba"/></linearGradient><linearGradient id="SVGID_12_" gradientUnits="userSpaceOnUse" x1="286.653" x2="423.409" y1="146.556" y2="146.556"><stop offset="0" stop-color="#ffe177"/><stop offset="1" stop-color="#feb137"/></linearGradient><g><g><g><path d="m254.156.015c-12.539.446-22.295 11.131-22.295 23.678v431.242c0 4.854-3.935 8.789-8.789 8.789-4.854 0-8.789-3.935-8.789-8.789v-21.911c0-12.547-9.756-23.232-22.295-23.678-13.164-.468-23.982 10.064-23.982 23.123v22.466c0 30.412 24.654 55.065 55.065 55.065 30.412 0 55.065-24.654 55.065-55.065v-431.797c.002-13.059-10.816-23.591-23.98-23.123z" fill="url(#SVGID_1_)"/><path d="m254.156.015c-4.637.165-8.89 1.737-12.413 4.28 5.877 4.196 9.71 11.072 9.71 18.844v205.339c-6.699-.412-13.34-1.979-19.591-4.726v56.904c6.251 2.747 12.892 4.315 19.591 4.726v169.553c0 25.809-17.76 47.463-41.723 53.429 4.273 1.064 8.74 1.637 13.343 1.637 30.412 0 55.065-24.654 55.065-55.065v-431.798c0-13.059-10.818-23.591-23.982-23.123z" fill="url(#SVGID_2_)"/><g><path d="m497.815 224.44c-28.269-109.374-133.315-190.163-242.815-190.163-118.208 0-217.547 80.788-245.815 190.163-4.016 15.539 11.369 28.747 26.273 22.794 8.382-3.347 17.528-5.189 27.106-5.189 13.053 0 25.306 3.418 35.915 9.409 8.727 4.927 18.479 7.391 28.23 7.391s19.504-4.464 28.23-9.391c10.609-5.99 22.862-9.409 35.915-9.409s25.306 3.418 35.915 9.408c17.454 9.855 39.007 9.855 56.461 0 10.609-5.99 22.862-9.408 35.915-9.408s25.306 3.418 35.915 9.409c17.454 9.855 39.007 9.855 56.461 0 10.609-5.99 22.862-9.409 35.915-9.409 9.578 0 18.724 1.841 27.106 5.189 14.904 5.953 27.289-5.255 23.273-20.794z" fill="url(#SVGID_3_)"/><path d="m127.292 258.827c9.557-.096 19.095-2.543 27.648-7.373 10.609-5.99 22.862-9.409 35.915-9.409s25.306 3.418 35.915 9.408c8.727 4.927 18.479 7.391 28.231 7.391v-224.567c-65.983 0-120.345 98.155-127.709 224.55z" fill="url(#SVGID_4_)"/><g><path d="m375.565 258.318c1.184.16 2.369.277 3.564.363-1.196-.075-2.38-.192-3.564-.363z" fill="url(#SVGID_5_)"/><path d="m474.545 247.233c-8.386-3.35-17.53-5.185-27.111-5.185-13.049 0-25.308 3.414-35.913 9.41-8.898 5.025-18.864 7.479-28.808 7.373-7.372-126.402-61.733-224.55-127.713-224.55 118.207 0 217.55 80.789 245.814 190.162 4.022 15.534-11.364 28.743-26.269 22.79z" fill="url(#SVGID_6_)"/></g><path d="m255 34.277v224.569c9.752 0 19.504-2.464 28.231-7.391 10.609-5.99 22.862-9.408 35.915-9.408s25.306 3.418 35.915 9.409c8.553 4.829 18.091 7.277 27.648 7.373-7.366-126.397-61.728-224.552-127.709-224.552z" fill="url(#SVGID_7_)"/></g><path d="m500.813 224.443c-28.263-109.373-127.606-190.162-245.813-190.162 15.393 0 30.153 5.346 43.833 15.143 78.049 28.296 138.284 93.763 159.282 175.019 1.792 6.921-.274 13.374-4.427 17.883 7.311.618 14.317 2.294 20.858 4.907 14.904 5.953 30.29-7.256 26.267-22.79z" fill="url(#SVGID_8_)"/></g><g><path d="m450.68 376.8c-.53-2.76-2.95-4.75-5.76-4.75h-13.74c-2.5 0-4.71-1.58-5.54-3.94-1.08-3.08-2.33-6.08-3.73-9-1.08-2.26-.64-4.94 1.13-6.71l9.7-9.71c1.99-1.98 2.3-5.11.72-7.43-4-5.9-8.54-11.41-13.57-16.43-5.02-5.03-10.52-9.57-16.43-13.57-2.32-1.58-5.44-1.27-7.43.72l-9.71 9.7c-1.76 1.77-4.45 2.21-6.71 1.13-2.91-1.4-5.92-2.65-9-3.73-2.36-.83-3.94-3.04-3.94-5.54v-13.73c0-2.81-1.99-5.24-4.75-5.77-6.87-1.32-13.96-2.01-21.21-2.01-7.26 0-14.35.69-21.22 2.01-2.76.53-4.74 2.96-4.74 5.77v13.73c0 2.5-1.59 4.71-3.95 5.54-3.08 1.08-6.08 2.33-9 3.73-2.25 1.08-4.94.64-6.71-1.13l-9.71-9.7c-1.98-1.99-5.1-2.3-7.43-.72-5.9 4-11.4 8.54-16.43 13.57-5.02 5.02-9.57 10.53-13.57 16.43-1.57 2.32-1.27 5.45.72 7.43l9.7 9.71c1.77 1.77 2.21 4.45 1.13 6.71-1.4 2.92-2.64 5.92-3.73 9-.83 2.36-3.04 3.94-5.54 3.94h-13.73c-2.81 0-5.24 1.99-5.77 4.75-1.31 6.87-2.01 13.96-2.01 21.21 0 7.26.7 14.35 2.01 21.22.53 2.76 2.96 4.75 5.77 4.75h13.73c2.5 0 4.71 1.58 5.54 3.94 1.09 3.08 2.33 6.08 3.73 9 1.08 2.26.64 4.94-1.13 6.71l-9.7 9.71c-1.99 1.98-2.29 5.11-.72 7.43 4 5.9 8.55 11.41 13.57 16.43 5.03 5.02 10.53 9.57 16.43 13.57 2.33 1.58 5.45 1.27 7.43-.72l9.71-9.7c1.77-1.77 4.46-2.21 6.71-1.13 2.92 1.4 5.92 2.65 9 3.73 2.36.83 3.95 3.04 3.95 5.54v13.73c0 2.81 1.98 5.24 4.74 5.77 6.87 1.32 13.96 2.01 21.22 2.01 7.25 0 14.34-.69 21.21-2.01 2.76-.53 4.75-2.96 4.75-5.77v-13.73c0-2.5 1.58-4.71 3.94-5.54 3.08-1.08 6.09-2.33 9-3.73 2.26-1.08 4.95-.64 6.71 1.13l9.71 9.7c1.99 1.99 5.11 2.3 7.43.72 5.91-4 11.41-8.54 16.43-13.57 5.03-5.03 9.57-10.53 13.57-16.43 1.58-2.32 1.27-5.45-.72-7.43l-9.7-9.71c-1.77-1.77-2.21-4.45-1.13-6.71 1.4-2.92 2.65-5.92 3.73-9 .83-2.36 3.04-3.94 5.54-3.94h13.74c2.81 0 5.23-1.99 5.76-4.75 1.32-6.87 2.01-13.96 2.01-21.22 0-7.25-.69-14.34-2.01-21.21zm-109.97 66.51c-25.02 0-45.3-20.28-45.3-45.3 0-25.01 20.28-45.29 45.3-45.29 25.01 0 45.29 20.28 45.29 45.29 0 25.02-20.28 45.3-45.29 45.3z" fill="url(#SVGID_9_)"/><path d="m340.71 327.22c-39.1 0-70.8 31.7-70.8 70.79 0 39.1 31.7 70.8 70.8 70.8 39.09 0 70.79-31.7 70.79-70.8 0-39.09-31.7-70.79-70.79-70.79zm0 116.09c-25.02 0-45.3-20.28-45.3-45.3 0-25.01 20.28-45.29 45.3-45.29 25.01 0 45.29 20.28 45.29 45.29 0 25.02-20.28 45.3-45.29 45.3z" fill="url(#SVGID_10_)"/><g><path d="m450.68 376.8c-.53-2.76-2.95-4.75-5.76-4.75h-13.74c-2.5 0-4.71-1.58-5.54-3.94-1.08-3.08-2.33-6.08-3.73-9-1.08-2.26-.64-4.94 1.13-6.71l9.7-9.71c1.99-1.98 2.3-5.11.72-7.43-4-5.9-8.54-11.41-13.57-16.43-5.02-5.03-10.52-9.57-16.43-13.57-2.32-1.58-5.44-1.27-7.43.72l-9.71 9.7c-1.76 1.77-4.45 2.21-6.71 1.13-1.157-.557-2.334-1.083-3.521-1.591 1.288 1.174 2.55 2.377 3.782 3.611 5.03 5.02 9.57 10.53 13.57 16.43 1.58 2.32 1.27 5.45-.72 7.43l-9.7 9.71c-1.77 1.77-2.21 4.45-1.13 6.71 1.4 2.92 2.65 5.92 3.73 9 .83 2.36 3.04 3.94 5.54 3.94h13.74c2.81 0 5.23 1.99 5.76 4.75 1.32 6.87 2.01 13.96 2.01 21.21 0 7.26-.69 14.35-2.01 21.22-.53 2.76-2.95 4.75-5.76 4.75h-13.74c-2.5 0-4.71 1.58-5.54 3.94-1.08 3.08-2.33 6.08-3.73 9-1.08 2.26-.64 4.94 1.13 6.71l9.7 9.71c1.99 1.98 2.3 5.11.72 7.43-4 5.9-8.54 11.4-13.57 16.43-1.231 1.234-2.493 2.437-3.781 3.611 1.187-.508 2.364-1.034 3.521-1.591 2.26-1.08 4.95-.64 6.71 1.13l9.71 9.7c1.99 1.99 5.11 2.3 7.43.72 5.91-4 11.41-8.54 16.43-13.57 5.03-5.03 9.57-10.53 13.57-16.43 1.58-2.32 1.27-5.45-.72-7.43l-9.7-9.71c-1.77-1.77-2.21-4.45-1.13-6.71 1.4-2.92 2.65-5.92 3.73-9 .83-2.36 3.04-3.94 5.54-3.94h13.74c2.81 0 5.23-1.99 5.76-4.75 1.32-6.87 2.01-13.96 2.01-21.22-.001-7.25-.691-14.34-2.011-21.21z" fill="url(#SVGID_11_)"/></g></g></g><path d="m255.355 34.285c43.297 32.497 75.904 112.608 83.708 210.515 5.637 1.592 11.001 3.834 15.997 6.655 8.553 4.829 18.091 7.277 27.648 7.373-7.351-126.169-61.533-224.191-127.353-224.543z" fill="url(#SVGID_12_)"/></g></svg>