<svg id="Capa_1" enable-background="new 0 0 510 510" height="512" viewBox="0 0 510 510" width="512" xmlns="http://www.w3.org/2000/svg" xmlns:xlink="http://www.w3.org/1999/xlink"><linearGradient id="lg1"><stop offset="0" stop-color="#01d0fb"/><stop offset=".6075" stop-color="#26a6fe"/><stop offset="1" stop-color="#0182fc"/></linearGradient><linearGradient id="SVGID_1_" gradientUnits="userSpaceOnUse" x1="0" x2="510" xlink:href="#lg1" y1="152.009" y2="152.009"/><linearGradient id="SVGID_2_" gradientUnits="userSpaceOnUse" x1="8.892" x2="406.833" xlink:href="#lg1" y1="199.669" y2="199.669"/><linearGradient id="SVGID_3_" gradientUnits="userSpaceOnUse" x1="321" x2="491.987" y1="97.672" y2="97.672"><stop offset="0" stop-color="#01bffa"/><stop offset="1" stop-color="#5b5cff"/></linearGradient><linearGradient id="lg2"><stop offset="0" stop-color="#fff9df"/><stop offset=".593" stop-color="#ffe177"/><stop offset="1" stop-color="#feb137"/></linearGradient><linearGradient id="SVGID_4_" gradientUnits="userSpaceOnUse" x1="-8.449" x2="83.186" xlink:href="#lg2" y1="446.492" y2="446.492"/><linearGradient id="lg3"><stop offset="0" stop-color="#ffe177"/><stop offset="1" stop-color="#feb137"/></linearGradient><linearGradient id="SVGID_5_" gradientUnits="userSpaceOnUse" x1="34.241" x2="147.327" xlink:href="#lg3" y1="446.492" y2="446.492"/><linearGradient id="SVGID_6_" gradientUnits="userSpaceOnUse" x1="68.553" x2="106.732" xlink:href="#lg3" y1="446.492" y2="446.492"/><linearGradient id="SVGID_7_" gradientUnits="userSpaceOnUse" x1="2.667" x2="138.277" xlink:href="#lg3" y1="446.492" y2="446.492"/><linearGradient id="SVGID_8_" gradientUnits="userSpaceOnUse" x1="-8.449" x2="83.186" xlink:href="#lg2" y1="372.858" y2="372.858"/><linearGradient id="SVGID_9_" gradientUnits="userSpaceOnUse" x1="34.241" x2="147.327" xlink:href="#lg3" y1="372.858" y2="372.858"/><linearGradient id="SVGID_10_" gradientUnits="userSpaceOnUse" x1="68.553" x2="106.732" xlink:href="#lg3" y1="372.858" y2="372.858"/><linearGradient id="lg4"><stop offset="0" stop-color="#feb137"/><stop offset="1" stop-color="#eca026"/></linearGradient><linearGradient id="SVGID_11_" gradientUnits="userSpaceOnUse" x1="117.847" x2="173.907" xlink:href="#lg4" y1="372.858" y2="372.858"/><linearGradient id="SVGID_12_" gradientUnits="userSpaceOnUse" x1="166.111" x2="257.745" xlink:href="#lg2" y1="446.492" y2="446.492"/><linearGradient id="SVGID_13_" gradientUnits="userSpaceOnUse" x1="208.8" x2="321.886" xlink:href="#lg3" y1="446.492" y2="446.492"/><linearGradient id="SVGID_14_" gradientUnits="userSpaceOnUse" x1="243.112" x2="281.291" xlink:href="#lg3" y1="446.492" y2="446.492"/><linearGradient id="SVGID_15_" gradientUnits="userSpaceOnUse" x1="177.226" x2="312.837" xlink:href="#lg3" y1="446.492" y2="446.492"/><linearGradient id="SVGID_16_" gradientUnits="userSpaceOnUse" x1="166.111" x2="257.745" xlink:href="#lg2" y1="372.738" y2="372.738"/><linearGradient id="SVGID_17_" gradientUnits="userSpaceOnUse" x1="208.8" x2="321.886" xlink:href="#lg3" y1="372.738" y2="372.738"/><linearGradient id="SVGID_18_" gradientUnits="userSpaceOnUse" x1="243.112" x2="281.291" xlink:href="#lg3" y1="372.738" y2="372.738"/><linearGradient id="SVGID_19_" gradientUnits="userSpaceOnUse" x1="177.226" x2="312.837" xlink:href="#lg3" y1="372.738" y2="372.738"/><linearGradient id="SVGID_20_" gradientUnits="userSpaceOnUse" x1="166.111" x2="257.745" xlink:href="#lg2" y1="298.983" y2="298.983"/><linearGradient id="SVGID_21_" gradientUnits="userSpaceOnUse" x1="208.8" x2="321.886" xlink:href="#lg3" y1="298.983" y2="298.983"/><linearGradient id="SVGID_22_" gradientUnits="userSpaceOnUse" x1="243.112" x2="281.291" xlink:href="#lg3" y1="298.983" y2="298.983"/><linearGradient id="SVGID_23_" gradientUnits="userSpaceOnUse" x1="292.406" x2="348.466" xlink:href="#lg4" y1="298.983" y2="298.983"/><linearGradient id="SVGID_24_" gradientUnits="userSpaceOnUse" x1="340.67" x2="432.304" xlink:href="#lg2" y1="372.738" y2="372.738"/><linearGradient id="SVGID_25_" gradientUnits="userSpaceOnUse" x1="383.359" x2="496.446" xlink:href="#lg3" y1="372.738" y2="372.738"/><linearGradient id="SVGID_26_" gradientUnits="userSpaceOnUse" x1="417.672" x2="455.85" xlink:href="#lg3" y1="372.738" y2="372.738"/><linearGradient id="SVGID_27_" gradientUnits="userSpaceOnUse" x1="351.785" x2="487.396" xlink:href="#lg3" y1="372.738" y2="372.738"/><linearGradient id="SVGID_28_" gradientUnits="userSpaceOnUse" x1="340.67" x2="432.304" xlink:href="#lg2" y1="446.492" y2="446.492"/><linearGradient id="SVGID_29_" gradientUnits="userSpaceOnUse" x1="383.359" x2="496.446" xlink:href="#lg3" y1="446.492" y2="446.492"/><linearGradient id="SVGID_30_" gradientUnits="userSpaceOnUse" x1="417.672" x2="455.85" xlink:href="#lg3" y1="446.492" y2="446.492"/><linearGradient id="SVGID_31_" gradientUnits="userSpaceOnUse" x1="351.785" x2="487.396" xlink:href="#lg3" y1="446.492" y2="446.492"/><linearGradient id="SVGID_32_" gradientUnits="userSpaceOnUse" x1="340.67" x2="432.304" xlink:href="#lg2" y1="298.983" y2="298.983"/><linearGradient id="SVGID_33_" gradientUnits="userSpaceOnUse" x1="383.359" x2="496.446" xlink:href="#lg3" y1="298.983" y2="298.983"/><linearGradient id="SVGID_34_" gradientUnits="userSpaceOnUse" x1="417.672" x2="455.85" xlink:href="#lg3" y1="298.983" y2="298.983"/><linearGradient id="SVGID_35_" gradientUnits="userSpaceOnUse" x1="351.785" x2="487.396" xlink:href="#lg3" y1="298.983" y2="298.983"/><linearGradient id="SVGID_36_" gradientUnits="userSpaceOnUse" x1="340.67" x2="432.304" xlink:href="#lg2" y1="225.229" y2="225.229"/><linearGradient id="SVGID_37_" gradientUnits="userSpaceOnUse" x1="383.359" x2="496.446" xlink:href="#lg3" y1="225.229" y2="225.229"/><linearGradient id="SVGID_38_" gradientUnits="userSpaceOnUse" x1="417.672" x2="455.85" xlink:href="#lg3" y1="225.229" y2="225.229"/><linearGradient id="SVGID_39_" gradientUnits="userSpaceOnUse" x1="466.966" x2="523.026" xlink:href="#lg4" y1="225.229" y2="225.229"/><g><g><path d="m490.606 47.986-80.813-20.532c-20.306-5.159-37.924 14.835-30.251 34.33l7.843 19.928-370.447 144.287c-10.213 3.978-16.938 13.815-16.938 24.775 0 18.707 18.806 31.564 36.237 24.775l370.621-144.354 8.354 21.226c7.672 19.495 34.192 22.118 45.535 4.503l45.143-70.104c9.509-14.767 1.739-34.509-15.284-38.834z" fill="url(#SVGID_1_)"/><path d="m387.98 122.95-379.089 147.662c7.09 6.302 17.438 8.796 27.345 4.937l370.596-144.354c-2.939-7.473-11.37-11.159-18.852-8.245z" fill="url(#SVGID_2_)"/><path d="m490.606 47.986-80.813-20.532c-8.32-2.114-16.185-.001-22.047 4.566l62.841 15.966c17.023 4.325 24.792 24.067 15.284 38.833l-45.143 70.103c-.51.792-1.06 1.529-1.629 2.239 10.441 13.086 31.783 13.082 41.649-2.239l45.142-70.102c9.509-14.767 1.739-34.509-15.284-38.834z" fill="url(#SVGID_3_)"/></g><g><g><path d="m144.83 409.615h-128.778c-8.865 0-16.052 7.186-16.052 16.051v41.651c0 8.865 7.187 16.052 16.052 16.052h128.778c8.865 0 16.052-7.187 16.052-16.052v-41.651c-.001-8.865-7.187-16.051-16.052-16.051z" fill="url(#SVGID_4_)"/><path d="m117.198 483.369h-73.515c-6.942 0-12.57-5.628-12.57-12.57v-48.615c0-6.942 5.628-12.57 12.57-12.57h73.515c6.942 0 12.57 5.628 12.57 12.57v48.616c0 6.942-5.628 12.569-12.57 12.569z" fill="url(#SVGID_5_)"/><path d="m91.162 483.369h-21.442c-4.24 0-7.676-3.437-7.676-7.676v-58.402c0-4.24 3.437-7.676 7.676-7.676h21.442c4.24 0 7.676 3.437 7.676 7.676v58.402c0 4.239-3.437 7.676-7.676 7.676z" fill="url(#SVGID_6_)"/><path d="m144.83 409.615h-38.68-90.098c-8.865 0-16.052 7.186-16.052 16.051v25.011c0-8.865 7.187-16.052 16.052-16.052h106.148v32.692c0 8.865-7.187 16.052-16.052 16.052h38.681c8.865 0 16.052-7.187 16.052-16.052v-41.651c0-8.865-7.186-16.051-16.051-16.051z" fill="url(#SVGID_7_)"/></g><g><path d="m144.83 335.981h-128.778c-8.865 0-16.052 7.186-16.052 16.052v41.651c0 8.865 7.187 16.052 16.052 16.052h128.778c8.865 0 16.052-7.187 16.052-16.052v-41.651c-.001-8.866-7.187-16.052-16.052-16.052z" fill="url(#SVGID_8_)"/><path d="m117.198 409.735h-73.515c-6.942 0-12.57-5.628-12.57-12.57v-48.615c0-6.942 5.628-12.57 12.57-12.57h73.515c6.942 0 12.57 5.628 12.57 12.57v48.615c0 6.943-5.628 12.57-12.57 12.57z" fill="url(#SVGID_9_)"/><path d="m91.162 409.735h-21.442c-4.24 0-7.676-3.437-7.676-7.676v-58.402c0-4.24 3.437-7.676 7.676-7.676h21.442c4.24 0 7.676 3.437 7.676 7.676v58.402c0 4.24-3.437 7.676-7.676 7.676z" fill="url(#SVGID_10_)"/><path d="m144.83 335.981h-38.681c8.865 0 16.052 7.187 16.052 16.052v41.651c0 8.865-7.187 16.052-16.052 16.052h38.681c8.865 0 16.052-7.187 16.052-16.052v-41.651c-.001-8.865-7.187-16.052-16.052-16.052z" fill="url(#SVGID_11_)"/></g><g><path d="m319.389 409.615h-128.778c-8.865 0-16.052 7.187-16.052 16.052v41.651c0 8.865 7.187 16.052 16.052 16.052h128.778c8.865 0 16.052-7.187 16.052-16.052v-41.651c0-8.866-7.187-16.052-16.052-16.052z" fill="url(#SVGID_12_)"/><path d="m291.758 483.369h-73.515c-6.942 0-12.57-5.628-12.57-12.57v-48.615c0-6.942 5.628-12.57 12.57-12.57h73.515c6.942 0 12.57 5.628 12.57 12.57v48.616c-.001 6.942-5.628 12.569-12.57 12.569z" fill="url(#SVGID_13_)"/><path d="m265.721 483.369h-21.442c-4.24 0-7.676-3.437-7.676-7.676v-58.402c0-4.24 3.437-7.676 7.676-7.676h21.442c4.24 0 7.676 3.437 7.676 7.676v58.402c.001 4.239-3.436 7.676-7.676 7.676z" fill="url(#SVGID_14_)"/><path d="m319.389 409.615h-38.68-90.098c-8.865 0-16.052 7.187-16.052 16.052v25.011c0-8.865 7.187-16.052 16.052-16.052h106.148v32.692c0 8.865-7.187 16.052-16.052 16.052h38.681c8.865 0 16.052-7.187 16.052-16.052v-41.651c.001-8.866-7.186-16.052-16.051-16.052z" fill="url(#SVGID_15_)"/></g><g><path d="m319.389 335.86h-128.778c-8.865 0-16.052 7.187-16.052 16.052v41.651c0 8.865 7.187 16.052 16.052 16.052h128.778c8.865 0 16.052-7.187 16.052-16.052v-41.651c0-8.865-7.187-16.052-16.052-16.052z" fill="url(#SVGID_16_)"/><path d="m291.758 409.615h-73.515c-6.942 0-12.57-5.628-12.57-12.57v-48.615c0-6.942 5.628-12.57 12.57-12.57h73.515c6.942 0 12.57 5.628 12.57 12.57v48.615c-.001 6.942-5.628 12.57-12.57 12.57z" fill="url(#SVGID_17_)"/><path d="m265.721 409.615h-21.442c-4.24 0-7.676-3.437-7.676-7.676v-58.402c0-4.24 3.437-7.676 7.676-7.676h21.442c4.24 0 7.676 3.437 7.676 7.676v58.402c.001 4.239-3.436 7.676-7.676 7.676z" fill="url(#SVGID_18_)"/><path d="m319.389 335.86h-38.68-90.098c-8.865 0-16.052 7.187-16.052 16.052v25.011c0-8.865 7.187-16.052 16.052-16.052h106.148v32.692c0 8.865-7.187 16.052-16.052 16.052h38.681c8.865 0 16.052-7.187 16.052-16.052v-41.651c.001-8.865-7.186-16.052-16.051-16.052z" fill="url(#SVGID_19_)"/></g><g><path d="m319.389 262.106h-128.778c-8.865 0-16.052 7.187-16.052 16.052v41.651c0 8.865 7.187 16.052 16.052 16.052h128.778c8.865 0 16.052-7.187 16.052-16.052v-41.651c0-8.866-7.187-16.052-16.052-16.052z" fill="url(#SVGID_20_)"/><path d="m291.758 335.86h-73.515c-6.942 0-12.57-5.628-12.57-12.57v-48.615c0-6.942 5.628-12.57 12.57-12.57h73.515c6.942 0 12.57 5.628 12.57 12.57v48.615c-.001 6.943-5.628 12.57-12.57 12.57z" fill="url(#SVGID_21_)"/><path d="m265.721 335.86h-21.442c-4.24 0-7.676-3.437-7.676-7.676v-58.402c0-4.24 3.437-7.676 7.676-7.676h21.442c4.24 0 7.676 3.437 7.676 7.676v58.402c.001 4.239-3.436 7.676-7.676 7.676z" fill="url(#SVGID_22_)"/><path d="m319.389 262.106h-38.681c8.865 0 16.052 7.187 16.052 16.052v41.651c0 8.865-7.187 16.052-16.052 16.052h38.681c8.865 0 16.052-7.187 16.052-16.052v-41.651c0-8.865-7.187-16.052-16.052-16.052z" fill="url(#SVGID_23_)"/></g><g><path d="m493.949 335.86h-128.779c-8.865 0-16.052 7.187-16.052 16.052v41.651c0 8.865 7.187 16.052 16.052 16.052h128.778c8.865 0 16.052-7.187 16.052-16.052v-41.651c0-8.865-7.186-16.052-16.051-16.052z" fill="url(#SVGID_24_)"/><path d="m466.317 409.615h-73.515c-6.942 0-12.57-5.628-12.57-12.57v-48.615c0-6.942 5.628-12.57 12.57-12.57h73.515c6.942 0 12.57 5.628 12.57 12.57v48.615c0 6.942-5.628 12.57-12.57 12.57z" fill="url(#SVGID_25_)"/><path d="m440.28 409.615h-21.442c-4.24 0-7.676-3.437-7.676-7.676v-58.402c0-4.24 3.437-7.676 7.676-7.676h21.442c4.24 0 7.676 3.437 7.676 7.676v58.402c.001 4.239-3.436 7.676-7.676 7.676z" fill="url(#SVGID_26_)"/><path d="m493.949 335.86h-38.68-90.099c-8.865 0-16.052 7.187-16.052 16.052v25.011c0-8.865 7.187-16.052 16.052-16.052h106.148v32.692c0 8.865-7.187 16.052-16.052 16.052h38.681c8.865 0 16.052-7.187 16.052-16.052v-41.651c.001-8.865-7.185-16.052-16.05-16.052z" fill="url(#SVGID_27_)"/></g><g><path d="m493.949 409.615h-128.779c-8.865 0-16.052 7.187-16.052 16.052v41.651c0 8.865 7.187 16.052 16.052 16.052h128.778c8.865 0 16.052-7.187 16.052-16.052v-41.651c0-8.866-7.186-16.052-16.051-16.052z" fill="url(#SVGID_28_)"/><path d="m466.317 483.369h-73.515c-6.942 0-12.57-5.628-12.57-12.57v-48.615c0-6.942 5.628-12.57 12.57-12.57h73.515c6.942 0 12.57 5.628 12.57 12.57v48.616c0 6.942-5.628 12.569-12.57 12.569z" fill="url(#SVGID_29_)"/><path d="m440.28 483.369h-21.442c-4.24 0-7.676-3.437-7.676-7.676v-58.402c0-4.24 3.437-7.676 7.676-7.676h21.442c4.24 0 7.676 3.437 7.676 7.676v58.402c.001 4.239-3.436 7.676-7.676 7.676z" fill="url(#SVGID_30_)"/><path d="m493.949 409.615h-38.68-90.099c-8.865 0-16.052 7.187-16.052 16.052v25.011c0-8.865 7.187-16.052 16.052-16.052h106.148v32.692c0 8.865-7.187 16.052-16.052 16.052h38.681c8.865 0 16.052-7.187 16.052-16.052v-41.651c.001-8.866-7.185-16.052-16.05-16.052z" fill="url(#SVGID_31_)"/></g><g><path d="m493.949 262.106h-128.779c-8.865 0-16.052 7.187-16.052 16.052v41.651c0 8.865 7.187 16.052 16.052 16.052h128.778c8.865 0 16.052-7.187 16.052-16.052v-41.651c0-8.866-7.186-16.052-16.051-16.052z" fill="url(#SVGID_32_)"/><path d="m466.317 335.86h-73.515c-6.942 0-12.57-5.628-12.57-12.57v-48.615c0-6.942 5.628-12.57 12.57-12.57h73.515c6.942 0 12.57 5.628 12.57 12.57v48.615c0 6.943-5.628 12.57-12.57 12.57z" fill="url(#SVGID_33_)"/><path d="m440.28 335.86h-21.442c-4.24 0-7.676-3.437-7.676-7.676v-58.402c0-4.24 3.437-7.676 7.676-7.676h21.442c4.24 0 7.676 3.437 7.676 7.676v58.402c.001 4.24-3.436 7.676-7.676 7.676z" fill="url(#SVGID_34_)"/><path d="m493.949 262.106h-38.68-90.099c-8.865 0-16.052 7.187-16.052 16.052v25.011c0-8.865 7.187-16.052 16.052-16.052h106.148v32.692c0 8.865-7.187 16.052-16.052 16.052h38.681c8.865 0 16.052-7.187 16.052-16.052v-41.651c.001-8.866-7.185-16.052-16.05-16.052z" fill="url(#SVGID_35_)"/></g><g><path d="m493.949 188.351h-128.779c-8.865 0-16.052 7.187-16.052 16.052v41.651c0 8.865 7.187 16.052 16.052 16.052h128.778c8.865 0 16.052-7.187 16.052-16.052v-41.651c0-8.865-7.186-16.052-16.051-16.052z" fill="url(#SVGID_36_)"/><path d="m466.317 262.106h-73.515c-6.942 0-12.57-5.628-12.57-12.57v-48.615c0-6.942 5.628-12.57 12.57-12.57h73.515c6.942 0 12.57 5.628 12.57 12.57v48.615c0 6.942-5.628 12.57-12.57 12.57z" fill="url(#SVGID_37_)"/><path d="m440.28 262.106h-21.442c-4.24 0-7.676-3.437-7.676-7.676v-58.402c0-4.24 3.437-7.676 7.676-7.676h21.442c4.24 0 7.676 3.437 7.676 7.676v58.402c.001 4.239-3.436 7.676-7.676 7.676z" fill="url(#SVGID_38_)"/><path d="m493.949 188.351h-38.681c8.865 0 16.052 7.187 16.052 16.052v41.651c0 8.865-7.187 16.052-16.052 16.052h38.681c8.865 0 16.052-7.187 16.052-16.052v-41.651c-.001-8.865-7.187-16.052-16.052-16.052z" fill="url(#SVGID_39_)"/></g></g></g></svg>