<svg id="Capa_1" enable-background="new 0 0 510 510" height="512" viewBox="0 0 510 510" width="512" xmlns="http://www.w3.org/2000/svg" xmlns:xlink="http://www.w3.org/1999/xlink"><linearGradient id="lg1"><stop offset="0" stop-color="#f3eae6"/><stop offset="1" stop-color="#cdbfba"/></linearGradient><linearGradient id="SVGID_1_" gradientUnits="userSpaceOnUse" x1="87.917" x2="422.083" xlink:href="#lg1" y1="115.83" y2="115.83"/><linearGradient id="SVGID_2_" gradientUnits="userSpaceOnUse" x1="58.23" x2="190.323" xlink:href="#lg1" y1="143.33" y2="143.33"/><linearGradient id="SVGID_3_" gradientUnits="userSpaceOnUse" x1="157.333" x2="270.867" xlink:href="#lg1" y1="115.83" y2="115.83"/><linearGradient id="SVGID_4_" gradientUnits="userSpaceOnUse" x1="46.601" x2="459.255" y1="357.758" y2="357.758"><stop offset="0" stop-color="#fff9df"/><stop offset=".593" stop-color="#ffe177"/><stop offset="1" stop-color="#feb137"/></linearGradient><linearGradient id="lg2"><stop offset="0" stop-color="#ffe177"/><stop offset="1" stop-color="#feb137"/></linearGradient><linearGradient id="SVGID_5_" gradientUnits="userSpaceOnUse" x1="187.333" x2="362.325" xlink:href="#lg2" y1="357.757" y2="357.757"/><linearGradient id="SVGID_6_" gradientUnits="userSpaceOnUse" x1="232.592" x2="426.471" xlink:href="#lg2" y1="357.758" y2="357.758"/><linearGradient id="SVGID_7_" gradientUnits="userSpaceOnUse" x1="178.73" x2="336.579" y1="357.758" y2="357.758"><stop offset="0" stop-color="#cdbfba"/><stop offset="1" stop-color="#766e6e"/></linearGradient><linearGradient id="SVGID_8_" gradientUnits="userSpaceOnUse" x1="180" x2="341.028" y1="357.767" y2="357.767"><stop offset="0" stop-color="#9e9797"/><stop offset="1" stop-color="#5b5555"/></linearGradient><g><path d="m142.916 231.66v-64.577c0-61.803 50.281-112.083 112.084-112.083s112.083 50.28 112.083 112.083v64.577h55v-64.577c0-92.13-74.953-167.083-167.083-167.083s-167.084 74.953-167.084 167.083v64.577z" fill="url(#SVGID_1_)"/><g><path d="m214.98 55c-61.803 0-112.084 50.28-112.084 112.083v64.577h40.02v-64.577c0-54.974 39.784-100.83 92.073-110.292-6.494-1.175-13.181-1.791-20.009-1.791z" fill="url(#SVGID_2_)"/><path d="m255 0c-6.772 0-13.447.416-20.01 1.203 82.73 9.919 147.073 80.522 147.073 165.88v64.577h40.02v-64.577c0-92.13-74.953-167.083-167.083-167.083z" fill="url(#SVGID_3_)"/></g><g><path d="m416.595 510h-323.19c-19.656 0-35.591-15.935-35.591-35.591v-233.303c0-19.656 15.935-35.591 35.591-35.591h323.19c19.656 0 35.591 15.935 35.591 35.591v233.302c0 19.657-15.934 35.592-35.591 35.592z" fill="url(#SVGID_4_)"/><path d="m255 480.951c-23.682 0-42.949-19.267-42.949-42.948v-26.709c-8.534-4.42-16.407-10.159-23.223-16.975-36.488-36.489-36.488-95.859 0-132.347 17.675-17.675 41.176-27.409 66.172-27.409 24.997 0 48.497 9.734 66.173 27.409 17.675 17.676 27.409 41.176 27.409 66.173s-9.734 48.498-27.409 66.174c-6.817 6.815-14.689 12.555-23.224 16.975v26.709c0 23.682-19.266 42.948-42.949 42.948z" fill="url(#SVGID_5_)"/><path d="m416.595 205.515h-40.02c19.656 0 35.591 15.935 35.591 35.591v233.302c0 19.656-15.935 35.591-35.591 35.591h40.02c19.656 0 35.591-15.935 35.591-35.591v-233.302c0-19.656-15.934-35.591-35.591-35.591z" fill="url(#SVGID_6_)"/><path d="m307.03 276.115c-28.736-28.736-75.325-28.736-104.061 0s-28.736 75.325 0 104.061c8.452 8.452 18.449 14.415 29.082 17.895v39.931c0 12.674 10.275 22.949 22.949 22.949 12.674 0 22.949-10.275 22.949-22.949v-39.931c10.632-3.48 20.63-9.443 29.081-17.895 28.736-28.735 28.736-75.325 0-104.061z" fill="url(#SVGID_7_)"/><path d="m307.03 276.115c-17.561-17.562-41.788-24.37-64.536-20.466 14.474 2.484 28.351 9.292 39.525 20.466 28.736 28.735 28.736 75.325 0 104.061-8.452 8.452-18.449 14.415-29.081 17.895v39.931c0 8.06-4.159 15.144-10.443 19.238 3.598 2.344 7.891 3.711 12.505 3.711 12.674 0 22.949-10.275 22.949-22.949v-39.931c10.632-3.48 20.63-9.443 29.082-17.895 28.735-28.735 28.735-75.325-.001-104.061z" fill="url(#SVGID_8_)"/></g></g></svg>