<svg id="Capa_1" enable-background="new 0 0 510.002 510.002" height="512" viewBox="0 0 510.002 510.002" width="512" xmlns="http://www.w3.org/2000/svg" xmlns:xlink="http://www.w3.org/1999/xlink"><linearGradient id="SVGID_1_" gradientUnits="userSpaceOnUse" x1="93" x2="406.026" y1="255.001" y2="255.001"><stop offset="0" stop-color="#f2fbff"/><stop offset=".593" stop-color="#faf7f7"/><stop offset="1" stop-color="#f3eae6"/></linearGradient><linearGradient id="SVGID_2_" gradientUnits="userSpaceOnUse" x1="328" x2="475.34" y1="255.001" y2="255.001"><stop offset="0" stop-color="#f3eae6"/><stop offset="1" stop-color="#cdbfba"/></linearGradient><linearGradient id="SVGID_3_" gradientUnits="userSpaceOnUse" x1="144" x2="366.194" y1="255.001" y2="255.001"><stop offset="0" stop-color="#cdbfba"/><stop offset="1" stop-color="#766e6e"/></linearGradient><linearGradient id="SVGID_5_" gradientUnits="userSpaceOnUse" x1="48" x2="390.23" y1="165.426" y2="165.426"><stop offset="0" stop-color="#01d0fb"/><stop offset=".6075" stop-color="#26a6fe"/><stop offset="1" stop-color="#0182fc"/></linearGradient><linearGradient id="lg1"><stop offset="0" stop-color="#01bffa"/><stop offset="1" stop-color="#5b5cff"/></linearGradient><linearGradient id="SVGID_6_" gradientUnits="userSpaceOnUse" x1="163" x2="424.62" xlink:href="#lg1" y1="141.501" y2="141.501"/><linearGradient id="SVGID_7_" gradientUnits="userSpaceOnUse" x1="63.531" x2="198.723" xlink:href="#lg1" y1="198.76" y2="198.76"/><linearGradient id="SVGID_8_" gradientUnits="userSpaceOnUse" x1="12.576" x2="447.05" y1="344.575" y2="344.575"><stop offset="0" stop-color="#b0e7c9"/><stop offset=".593" stop-color="#46cc8d"/><stop offset="1" stop-color="#0ab69f"/></linearGradient><linearGradient id="lg2"><stop offset="0" stop-color="#46cc8d"/><stop offset=".5484" stop-color="#0ab69f"/><stop offset="1" stop-color="#01998d"/></linearGradient><linearGradient id="SVGID_9_" gradientUnits="userSpaceOnUse" x1="12.667" x2="148.151" xlink:href="#lg2" y1="340.351" y2="340.351"/><linearGradient id="SVGID_10_" gradientUnits="userSpaceOnUse" x1="293.333" x2="473.186" xlink:href="#lg2" y1="344.575" y2="344.575"/><g><circle cx="255" cy="255.001" fill="url(#SVGID_1_)" r="166"/><path d="m255 89.001c-6.773 0-13.449.416-20.01 1.204 82.242 9.883 145.99 79.89 145.99 164.796s-63.748 154.913-145.99 164.796c6.561.788 13.237 1.204 20.01 1.204 91.679 0 166-74.321 166-166s-74.321-166-166-166z" fill="url(#SVGID_2_)"/><g fill="url(#SVGID_3_)"><path d="m247.633 217.941c0-31.332-27.356-48.401-54.479-48.401-26.655 0-52.843 16.367-52.843 44.893 0 14.731 7.015 18.939 16.367 18.939 11.926 0 19.174-6.547 19.174-13.327 0-12.86 8.183-17.537 17.536-17.537 13.094 0 17.771 9.119 17.771 16.601 0 29.694-73.653 50.738-73.653 87.447v22.681c0 6.781 9.353 11.223 15.9 11.223h83.239c5.845 0 10.989-7.716 10.989-16.134 0-8.417-5.144-15.666-10.989-15.666h-61.26v-2.104c-.001-21.275 72.248-37.877 72.248-88.615z"/><path d="m361.272 270.784h-10.054v-16.367c0-7.716-9.118-10.99-18.237-10.99s-18.238 3.274-18.238 10.99v16.367h-20.108l41.386-83.005c.701-1.637 1.169-3.04 1.169-4.442 0-8.418-11.925-13.796-18.237-13.796-5.846 0-11.691 2.573-15.198 9.353l-54.012 105.919c-1.403 2.572-1.871 5.144-1.871 7.015 0 8.183 5.378 12.626 12.159 12.626h54.713v24.785c0 7.482 9.119 11.223 18.238 11.223s18.237-3.741 18.237-11.223v-24.785h10.054c5.611 0 11.223-8.418 11.223-16.835-.001-8.418-3.742-16.835-11.224-16.835z"/></g><path d="m255 28.001c-108.949 0-199.958 76.763-221.93 179.149h-17.246c-13.064 0-20.48 14.957-12.572 25.356l48.755 64.111c6.321 8.312 18.824 8.312 25.145 0l48.755-64.111c7.908-10.399.492-25.356-12.572-25.356h-11.403c20.354-65.176 81.187-112.482 153.068-112.482 88.548 0 160.333 71.785 160.333 160.333h66.667c0-125.366-101.634-227-227-227z" fill="url(#SVGID_5_)"/><g><path d="m255 28.001c-6.776 0-13.481.298-20.106.879 116.038 10.089 207.086 107.466 207.086 226.121h40.02c0-125.366-101.634-227-227-227z" fill="url(#SVGID_6_)"/><path d="m234.976 95.908c-6.551-.815-13.224-1.24-19.996-1.24-67.769 0-125.717 42.048-149.183 101.477-2.086 5.282 1.838 11.006 7.517 11.006 13.064 0 20.481 14.957 12.572 25.356l-41.318 54.331 7.438 9.78c6.321 8.312 18.824 8.312 25.145 0l48.755-64.111c7.908-10.399.492-25.356-12.572-25.356h-11.403c18.434-59.028 70.07-103.397 133.045-111.243z" fill="url(#SVGID_7_)"/></g><path d="m494.18 302.851h-17.25c-21.97 102.39-112.98 179.15-221.93 179.15-121.89 0-221.34-96.07-226.76-216.63l23.77 31.25c6.32 8.31 18.82 8.31 25.14 0l18.46-24.26c8.64 80.39 76.71 142.97 159.39 142.97 71.88 0 132.71-47.3 153.07-112.48h-11.4c-13.07 0-20.48-14.96-12.58-25.36l30.3-39.85 18.46-24.26c6.32-8.31 18.82-8.31 25.14 0l23.77 31.25 24.99 32.86c7.91 10.4.49 25.36-12.57 25.36z" fill="url(#SVGID_8_)"/><path d="m95.61 272.361-18.46 24.26c-6.32 8.31-18.82 8.31-25.14 0l-23.77-31.25c.446 9.93 1.543 19.689 3.226 29.247l20.541 27.01c4.723 6.211 12.896 7.776 19.364 4.706 26.244 52.751 80.691 88.996 143.609 88.996 6.786 0 13.473-.423 20.037-1.241-73.44-9.13-131.474-67.918-139.407-141.728z" fill="url(#SVGID_9_)"/><path d="m506.75 277.491-24.99-32.86-23.77-31.25c-6.32-8.31-18.82-8.31-25.14 0l-7.441 9.779 16.331 21.471 24.99 32.86c7.91 10.4.49 25.36-12.57 25.36h-.388c-9.701 0-18.136 6.474-20.851 15.788-25.708 88.2-103.491 154.204-197.839 162.483 6.565.571 13.205.879 19.918.879 108.95 0 199.96-76.76 221.93-179.15h17.25c13.06 0 20.48-14.96 12.57-25.36z" fill="url(#SVGID_10_)"/></g></svg>