<svg id="Capa_1" enable-background="new 0 0 510 510" height="512" viewBox="0 0 510 510" width="512" xmlns="http://www.w3.org/2000/svg" xmlns:xlink="http://www.w3.org/1999/xlink"><linearGradient id="SVGID_1_" gradientUnits="userSpaceOnUse" x1="56.753" x2="453.247" y1="340.717" y2="340.717"><stop offset="0" stop-color="#cdbfba"/><stop offset="1" stop-color="#766e6e"/></linearGradient><linearGradient id="SVGID_2_" gradientUnits="userSpaceOnUse" x1="242.5" x2="267.5" y1="310.193" y2="310.193"><stop offset="0" stop-color="#9e9797"/><stop offset="1" stop-color="#5b5555"/></linearGradient><linearGradient id="SVGID_3_" gradientUnits="userSpaceOnUse" x1=".435" x2="136.491" y1="440.747" y2="440.747"><stop offset="0" stop-color="#b0e7c9"/><stop offset=".593" stop-color="#46cc8d"/><stop offset="1" stop-color="#0ab69f"/></linearGradient><linearGradient id="SVGID_4_" gradientUnits="userSpaceOnUse" x1="186.182" x2="322.238" y1="440.747" y2="440.747"><stop offset="0" stop-color="#fff9df"/><stop offset=".593" stop-color="#ffe177"/><stop offset="1" stop-color="#feb137"/></linearGradient><linearGradient id="SVGID_5_" gradientUnits="userSpaceOnUse" x1="371.93" x2="507.986" y1="440.747" y2="440.747"><stop offset="0" stop-color="#fe99a0"/><stop offset=".593" stop-color="#fe646f"/><stop offset="1" stop-color="#e41f2d"/></linearGradient><linearGradient id="SVGID_6_" gradientUnits="userSpaceOnUse" x1="49.52" x2="137.212" y1="440.748" y2="440.748"><stop offset="0" stop-color="#46cc8d"/><stop offset=".5484" stop-color="#0ab69f"/><stop offset="1" stop-color="#01998d"/></linearGradient><linearGradient id="SVGID_7_" gradientUnits="userSpaceOnUse" x1="235.27" x2="322.952" y1="440.748" y2="440.748"><stop offset="0" stop-color="#ffe177"/><stop offset="1" stop-color="#feb137"/></linearGradient><linearGradient id="SVGID_8_" gradientUnits="userSpaceOnUse" x1="421.02" x2="508.702" y1="440.748" y2="440.748"><stop offset="0" stop-color="#fe646f"/><stop offset=".7043" stop-color="#e41f2d"/><stop offset="1" stop-color="#c41926"/></linearGradient><linearGradient id="SVGID_9_" gradientUnits="userSpaceOnUse" x1="76.116" x2="324.263" y1="149.294" y2="149.294"><stop offset="0" stop-color="#f2fbff"/><stop offset=".593" stop-color="#faf7f7"/><stop offset="1" stop-color="#f3eae6"/></linearGradient><linearGradient id="SVGID_10_" gradientUnits="userSpaceOnUse" x1="284" x2="484.442" y1="149.294" y2="149.294"><stop offset="0" stop-color="#f3eae6"/><stop offset="1" stop-color="#cdbfba"/></linearGradient><g><g><path d="m382.58 321.98h-115.08v-81.293c0-6.903-5.597-12.5-12.5-12.5s-12.5 5.597-12.5 12.5v81.293h-115.08c-38.966 0-70.667 31.701-70.667 70.668v48.1c0 6.903 5.597 12.5 12.5 12.5s12.5-5.597 12.5-12.5v-48.1c0-25.182 20.486-45.668 45.667-45.668h115.08v93.768c0 6.903 5.597 12.5 12.5 12.5s12.5-5.597 12.5-12.5v-93.768h115.08c25.181 0 45.667 20.486 45.667 45.668v48.1c0 6.903 5.597 12.5 12.5 12.5s12.5-5.597 12.5-12.5v-48.1c0-38.967-31.701-70.668-70.667-70.668z" fill="url(#SVGID_1_)"/><path d="m242.5 298.406h25v23.573h-25z" fill="url(#SVGID_2_)"/><circle cx="69.253" cy="440.747" fill="url(#SVGID_3_)" r="69.253"/><circle cx="255" cy="440.747" fill="url(#SVGID_4_)" r="69.253"/><circle cx="440.747" cy="440.747" fill="url(#SVGID_5_)" r="69.253"/><path d="m138.51 440.748c0 38.25-31.01 69.25-69.26 69.25-6.96 0-13.68-1.03-20.01-2.94 28.49-8.58 49.25-35.02 49.25-66.31s-20.76-57.73-49.25-66.31c6.33-1.91 13.05-2.94 20.01-2.94 38.25 0 69.26 31 69.26 69.25z" fill="url(#SVGID_6_)"/><path d="m324.25 440.748c0 38.25-31 69.25-69.25 69.25-6.96 0-13.68-1.03-20.01-2.94 28.49-8.58 49.24-35.02 49.24-66.31s-20.75-57.73-49.24-66.31c6.33-1.91 13.05-2.94 20.01-2.94 38.25 0 69.25 31 69.25 69.25z" fill="url(#SVGID_7_)"/><path d="m510 440.748c0 38.25-31.01 69.25-69.25 69.25-6.96 0-13.68-1.03-20.01-2.94 28.49-8.58 49.24-35.02 49.24-66.31s-20.75-57.73-49.24-66.31c6.33-1.91 13.05-2.94 20.01-2.94 38.24 0 69.25 31 69.25 69.25z" fill="url(#SVGID_8_)"/></g><path d="m398.166 112.209c-8.562-63.361-62.853-112.209-128.561-112.209-71.656 0-129.745 58.089-129.745 129.745v.022c-.569-.011-1.138-.022-1.71-.022-46.625 0-84.421 37.797-84.421 84.421s37.797 84.421 84.421 84.421h220.817c53.738 0 97.302-43.563 97.302-97.302.001-39.791-23.888-73.998-58.103-89.076z" fill="url(#SVGID_9_)"/><path d="m398.166 112.209c-8.562-63.361-62.853-112.209-128.561-112.209-6.811 0-13.499.528-20.027 1.539 56.46 8.735 100.891 53.866 108.567 110.67 34.216 15.078 58.105 49.285 58.105 89.076 0 53.738-43.563 97.302-97.302 97.302h40.02c53.738 0 97.302-43.563 97.302-97.302 0-39.791-23.889-73.998-58.104-89.076z" fill="url(#SVGID_10_)"/></g></svg>