<svg id="Capa_1" enable-background="new 0 0 510 510" height="512" viewBox="0 0 510 510" width="512" xmlns="http://www.w3.org/2000/svg" xmlns:xlink="http://www.w3.org/1999/xlink"><linearGradient id="SVGID_1_" gradientUnits="userSpaceOnUse" x1="1.602" x2="502.582" y1="255" y2="255"><stop offset="0" stop-color="#fff9df"/><stop offset=".593" stop-color="#ffe177"/><stop offset="1" stop-color="#feb137"/></linearGradient><linearGradient id="lg1"><stop offset="0" stop-color="#ffe177"/><stop offset="1" stop-color="#feb137"/></linearGradient><linearGradient id="SVGID_2_" gradientUnits="userSpaceOnUse" x1="157.333" x2="389.028" xlink:href="#lg1" y1="229.494" y2="229.494"/><linearGradient id="SVGID_3_" gradientUnits="userSpaceOnUse" x1="84.065" x2="204.853" xlink:href="#lg1" y1="429.998" y2="429.998"/><linearGradient id="SVGID_4_" gradientUnits="userSpaceOnUse" x1="187.12" x2="465.917" xlink:href="#lg1" y1="208.496" y2="208.496"/><linearGradient id="SVGID_5_" gradientUnits="userSpaceOnUse" x1="108.873" x2="401.127" y1="208.496" y2="208.496"><stop offset="0" stop-color="#fe99a0"/><stop offset=".593" stop-color="#fe646f"/><stop offset="1" stop-color="#e41f2d"/></linearGradient><linearGradient id="lg2"><stop offset="0" stop-color="#fe646f"/><stop offset=".7043" stop-color="#e41f2d"/><stop offset="1" stop-color="#c41926"/></linearGradient><linearGradient id="SVGID_6_" gradientUnits="userSpaceOnUse" x1="189.02" x2="237.465" xlink:href="#lg2" y1="206.114" y2="206.114"/><linearGradient id="SVGID_7_" gradientUnits="userSpaceOnUse" x1="204.629" x2="256.082" xlink:href="#lg2" y1="96.574" y2="96.574"/><linearGradient id="SVGID_8_" gradientUnits="userSpaceOnUse" x1="158.772" x2="218.847" xlink:href="#lg2" y1="318.036" y2="318.036"/><linearGradient id="SVGID_9_" gradientUnits="userSpaceOnUse" x1="233" x2="406.833" xlink:href="#lg2" y1="208.496" y2="208.496"/><g><path d="m365.189 33.496h-220.378c-79.977 0-144.811 64.834-144.811 144.811v60.378c0 56.278 32.105 105.057 78.998 129.025v84.22c0 21.85 26.417 32.792 41.867 17.342l85.776-85.776h158.548c79.977 0 144.811-64.834 144.811-144.811v-60.378c0-79.977-64.834-144.811-144.811-144.811z" fill="url(#SVGID_1_)"/><path d="m393.409 203.732c9.526 0 19.051-10.39 19.051-25.112 0-13.855-9.092-24.679-18.617-24.679h-30.307l9.525-48.061c-.434-18.183-15.587-24.677-30.741-24.677-12.989 0-26.411 5.195-28.143 13.855l-11.257 58.883h-44.595l9.091-48.061c0-18.183-15.154-24.677-30.307-24.677-12.989 0-26.411 5.195-28.143 13.855l-11.257 58.883h-40.266c-11.257 0-18.617 11.256-18.617 25.546 0 14.718 6.927 24.245 18.185 24.245h30.74l-9.092 46.76h-39.833c-10.824 0-18.617 11.257-18.617 25.544 0 14.722 7.36 24.247 18.185 24.247h30.307l-9.525 52.822c0 16.452 18.617 24.679 32.905 24.679 10.391 0 24.246-6.494 25.979-14.72l12.123-62.781h43.73l-9.959 52.822c0 16.452 19.051 24.679 33.339 24.679 10.825 0 24.246-6.494 25.979-14.72l12.123-62.781h39.4c9.526 0 19.484-9.957 19.484-25.111 0-13.855-9.525-24.681-19.05-24.681h-30.308l9.526-46.76h38.962zm-109.54 46.76h-44.163l9.092-46.76h44.163z" fill="url(#SVGID_2_)"/><g><path d="m83.678 466.439c8.283 11.23 25.74 14.28 37.187 2.833l85.776-85.776h-40.02z" fill="url(#SVGID_3_)"/><path d="m365.189 33.496h-40.02c79.977 0 144.811 64.834 144.811 144.811v60.378c0 79.977-64.834 144.811-144.811 144.811h40.02c79.977 0 144.811-64.834 144.811-144.811v-60.378c0-79.977-64.834-144.811-144.811-144.811z" fill="url(#SVGID_4_)"/></g><g><path d="m256.082 84.882-9.091 48.061h44.595l11.257-58.883c1.731-8.66 15.154-13.855 28.143-13.855 15.154 0 30.307 6.494 30.741 24.677l-9.525 48.061h30.307c9.525 0 18.617 10.824 18.617 24.679 0 14.722-9.525 25.112-19.051 25.112h-38.966l-9.526 46.76h30.308c9.525 0 19.05 10.826 19.05 24.681 0 15.154-9.958 25.11-19.484 25.11h-39.4l-12.123 62.781c-1.732 8.226-15.154 14.72-25.979 14.72-14.288 0-33.339-8.226-33.339-24.679l9.959-52.822h-43.73l-12.123 62.781c-1.732 8.226-15.587 14.72-25.979 14.72-14.288 0-32.905-8.226-32.905-24.679l9.525-52.822h-30.307c-10.825 0-18.185-9.525-18.185-24.247 0-14.287 7.794-25.544 18.617-25.544h39.833l9.092-46.76h-30.74c-11.257 0-18.185-9.527-18.185-24.245 0-14.29 7.36-25.546 18.617-25.546h40.266l11.257-58.883c1.731-8.66 15.154-13.855 28.143-13.855 15.157 0 30.311 6.494 30.311 24.677zm-27.71 144.612h44.163l9.092-46.76h-44.163z" fill="url(#SVGID_5_)"/></g><g><path d="m237.464 182.734h-33.266c-4.765 0-8.861 3.377-9.771 8.054l-5.222 26.853c-1.195 6.144 3.511 11.853 9.771 11.853h29.395z" fill="url(#SVGID_6_)"/><path d="m214.612 84.882-6.859 36.257c-1.16 6.13 3.541 11.804 9.78 11.804h29.457l9.091-48.061c0-18.183-15.154-24.677-30.307-24.677-7.755 0-15.662 1.853-21.146 5.188 5.964 3.875 9.984 10.13 9.984 19.489z" fill="url(#SVGID_7_)"/><path d="m185.592 279.285c-4.77 0-8.869 3.383-9.773 8.066l-10.565 54.715c-.665 3.16-3.123 6.062-6.482 8.441 6.465 4.185 14.769 6.28 21.974 6.28 10.391 0 24.246-6.494 25.979-14.72l12.123-62.781h-33.256z" fill="url(#SVGID_8_)"/><path d="m382.076 182.734c9.526 0 19.051-10.39 19.051-25.113 0-13.855-9.092-24.679-18.617-24.679h-30.307l9.525-48.061c-.434-18.183-15.587-24.677-30.741-24.677-7.743 0-15.638 1.847-21.121 5.173 6.029 3.873 10.168 10.133 10.391 19.504l-7.169 36.172c-1.22 6.154 3.49 11.889 9.764 11.889h18.188c9.525 0 18.617 10.824 18.617 24.679 0 14.722-9.525 25.113-19.051 25.113h-30.836c-4.731 0-8.809 3.331-9.753 7.967l-5.471 26.853c-1.257 6.169 3.458 11.94 9.753 11.94h18.123c9.525 0 19.05 10.826 19.05 24.681 0 15.154-9.958 25.11-19.484 25.11h-31.184c-4.77 0-8.869 3.383-9.773 8.066l-10.565 54.715c-.676 3.211-3.138 6.156-6.527 8.556 6.547 4.11 14.878 6.165 22.019 6.165 10.825 0 24.246-6.494 25.979-14.72l12.123-62.781h39.4c9.526 0 19.484-9.957 19.484-25.11 0-13.855-9.525-24.681-19.05-24.681h-30.308l9.526-46.76h38.964z" fill="url(#SVGID_9_)"/></g></g></svg>