<svg id="Capa_1" enable-background="new 0 0 510 510" height="512" viewBox="0 0 510 510" width="512" xmlns="http://www.w3.org/2000/svg" xmlns:xlink="http://www.w3.org/1999/xlink"><linearGradient id="lg1"><stop offset="0" stop-color="#f3eae6"/><stop offset="1" stop-color="#cdbfba"/></linearGradient><linearGradient id="SVGID_1_" gradientUnits="userSpaceOnUse" x1="240.565" x2="447.124" xlink:href="#lg1" y1="317.701" y2="317.701"/><linearGradient id="lg2"><stop offset="0" stop-color="#cdbfba"/><stop offset="1" stop-color="#766e6e"/></linearGradient><linearGradient id="SVGID_2_" gradientUnits="userSpaceOnUse" x1="385" x2="458" xlink:href="#lg2" y1="317.701" y2="317.701"/><linearGradient id="SVGID_3_" gradientUnits="userSpaceOnUse" x1="40.393" x2="482.609" y1="255" y2="255"><stop offset="0" stop-color="#f2fbff"/><stop offset=".593" stop-color="#faf7f7"/><stop offset="1" stop-color="#f3eae6"/></linearGradient><linearGradient id="SVGID_4_" gradientUnits="userSpaceOnUse" x1="323.06" x2="476.06" xlink:href="#lg1" y1="255" y2="255"/><linearGradient id="SVGID_5_" gradientUnits="userSpaceOnUse" x1="77.103" x2="348.331" xlink:href="#lg2" y1="179.511" y2="179.511"/><linearGradient id="SVGID_6_" gradientUnits="userSpaceOnUse" x1="77.103" x2="348.331" xlink:href="#lg2" y1="259.141" y2="259.141"/><linearGradient id="SVGID_7_" gradientUnits="userSpaceOnUse" x1="77.103" x2="348.331" xlink:href="#lg2" y1="338.77" y2="338.77"/><linearGradient id="SVGID_8_" gradientUnits="userSpaceOnUse" x1="77.103" x2="348.331" xlink:href="#lg2" y1="418.399" y2="418.399"/><linearGradient id="lg3"><stop offset="0" stop-color="#fe99a0"/><stop offset=".593" stop-color="#fe646f"/><stop offset="1" stop-color="#e41f2d"/></linearGradient><linearGradient id="SVGID_9_" gradientUnits="userSpaceOnUse" x1="68.11" x2="335.703" xlink:href="#lg3" y1="84.702" y2="84.702"/><linearGradient id="SVGID_10_" gradientUnits="userSpaceOnUse" x1="68.073" x2="335.666" xlink:href="#lg3" y1="84.702" y2="84.702"/><linearGradient id="SVGID_11_" gradientUnits="userSpaceOnUse" x1="68.073" x2="335.666" xlink:href="#lg3" y1="85.036" y2="85.036"/><linearGradient id="SVGID_12_" gradientUnits="userSpaceOnUse" x1="68.073" x2="335.666" xlink:href="#lg3" y1="84.924" y2="84.924"/><g><g><path d="m450.346 125.401h-299.098c-18.428 0-33.364 14.936-33.364 33.364v317.87c0 18.428 14.937 33.364 33.364 33.364h286.67c25.295 0 45.803-20.508 45.803-45.803v-305.431c0-18.427-14.948-33.364-33.375-33.364z" fill="url(#SVGID_1_)"/><path d="m389.656 125.401h40.02v384.599h-40.02z" fill="url(#SVGID_2_)"/></g><g><path d="m26.279 464.2v-430.833c0-18.428 14.939-33.367 33.368-33.367h299.102c18.428 0 33.367 14.939 33.367 33.367v430.833c0 25.295 20.506 45.8 45.8 45.8h-365.836c-25.295 0-45.801-20.506-45.801-45.8z" fill="url(#SVGID_3_)"/><path d="m392.116 464.199v-430.832c0-18.428-14.939-33.367-33.367-33.367h-42.611c18.428 0 33.367 14.939 33.367 33.367v430.832c0 25.295 20.506 45.801 45.801 45.801h42.611c-25.295 0-45.801-20.506-45.801-45.801z" fill="url(#SVGID_4_)"/><g><g><path d="m344.155 160.939h-269.914c-3.386 0-6.13 2.745-6.13 6.13v24.883c0 3.386 2.745 6.13 6.13 6.13h269.914c3.386 0 6.13-2.745 6.13-6.13v-24.882c0-3.386-2.745-6.131-6.13-6.131z" fill="url(#SVGID_5_)"/><path d="m344.155 240.569h-269.914c-3.386 0-6.13 2.745-6.13 6.13v24.883c0 3.386 2.745 6.13 6.13 6.13h269.914c3.386 0 6.13-2.745 6.13-6.13v-24.883c0-3.386-2.745-6.13-6.13-6.13z" fill="url(#SVGID_6_)"/><path d="m344.155 320.198h-269.914c-3.386 0-6.13 2.745-6.13 6.13v24.883c0 3.386 2.745 6.13 6.13 6.13h269.914c3.386 0 6.13-2.745 6.13-6.13v-24.883c0-3.386-2.745-6.13-6.13-6.13z" fill="url(#SVGID_7_)"/><path d="m193.604 399.827h-119.363c-3.386 0-6.13 2.745-6.13 6.13v24.883c0 3.386 2.745 6.13 6.13 6.13h119.363c3.386 0 6.13-2.745 6.13-6.13v-24.883c0-3.385-2.744-6.13-6.13-6.13z" fill="url(#SVGID_8_)"/></g></g><g><path d="m116.327 44.002c-4.343 0-8.686 1.559-8.686 5.234v37.86l-18.039-34.408c-4.231-8.129-6.57-8.686-12.806-8.686-4.343 0-8.686 1.671-8.686 5.345v70.709c0 3.563 4.343 5.346 8.686 5.346s8.686-1.782 8.686-5.346v-37.86l21.157 38.528c2.116 3.897 5.679 4.677 9.688 4.677 4.343 0 8.686-1.782 8.686-5.346v-70.82c-.001-3.674-4.344-5.233-8.686-5.233z" fill="url(#SVGID_9_)"/><path d="m184.253 59.146c3.341 0 5.234-3.563 5.234-7.683 0-3.563-1.559-7.461-5.234-7.461h-39.641c-3.786 0-7.572 1.782-7.572 5.345v70.709c0 3.563 3.786 5.346 7.572 5.346h39.641c3.675 0 5.234-3.897 5.234-7.461 0-4.12-1.893-7.684-5.234-7.684h-29.843v-18.93h16.703c3.675 0 5.234-3.563 5.234-6.57 0-3.563-1.893-6.793-5.234-6.793h-16.703v-18.818z" fill="url(#SVGID_10_)"/><path d="m281.911 44.002c-2.672 0-4.899.891-5.568 3.229l-16.926 57.125-8.797-37.638c-.668-3.007-4.565-4.565-8.352-4.565-3.786 0-7.683 1.559-8.351 4.565l-8.797 37.638-16.926-57.125c-.668-2.339-2.895-3.229-5.567-3.229-5.011 0-11.247 3.118-11.247 6.904 0 .557.112 1.113.223 1.447l22.159 67.926c1.225 3.897 6.348 5.791 11.469 5.791 5.011 0 10.356-1.893 11.247-5.791l5.79-26.391 5.791 26.391c.891 3.897 6.236 5.791 11.247 5.791 5.122 0 10.133-1.893 11.469-5.791l22.159-67.926c.112-.334.223-.89.223-1.447.001-3.786-6.235-6.904-11.246-6.904z" fill="url(#SVGID_11_)"/><path d="m314.986 64.714c0-3.452 3.229-6.681 11.135-6.681 9.131 0 11.247 4.231 15.255 4.231 4.9 0 6.904-6.125 6.904-9.131 0-8.686-16.257-9.799-22.159-9.799-13.919 0-28.507 6.347-28.507 23.05 0 26.057 35.299 23.719 35.299 37.192 0 5.345-5.679 7.35-10.801 7.35-10.356 0-13.696-8.24-18.93-8.24-4.232 0-7.572 5.567-7.572 9.353 0 7.349 12.249 14.476 26.836 14.476 16.146 0 27.838-8.686 27.838-24.72.001-28.062-35.298-25.946-35.298-37.081z" fill="url(#SVGID_12_)"/></g></g></g></svg>