<svg id="Capa_1" enable-background="new 0 0 510 510" height="512" viewBox="0 0 510 510" width="512" xmlns="http://www.w3.org/2000/svg" xmlns:xlink="http://www.w3.org/1999/xlink"><linearGradient id="SVGID_1_" gradientUnits="userSpaceOnUse" x1="155.434" x2="354.566" y1="464.259" y2="464.259"><stop offset="0" stop-color="#b0e7c9"/><stop offset=".593" stop-color="#46cc8d"/><stop offset="1" stop-color="#0ab69f"/></linearGradient><linearGradient id="SVGID_2_" gradientUnits="userSpaceOnUse" x1="193.87" x2="354.563" y1="464.261" y2="464.261"><stop offset="0" stop-color="#46cc8d"/><stop offset=".5484" stop-color="#0ab69f"/><stop offset="1" stop-color="#01998d"/></linearGradient><linearGradient id="SVGID_3_" gradientUnits="userSpaceOnUse" x1="69.27" x2="440.731" y1="220.232" y2="220.232"><stop offset="0" stop-color="#fe99a0"/><stop offset=".593" stop-color="#fe646f"/><stop offset="1" stop-color="#e41f2d"/></linearGradient><linearGradient id="SVGID_4_" gradientUnits="userSpaceOnUse" x1="111.813" x2="440.731" y1="220.224" y2="220.224"><stop offset="0" stop-color="#fe646f"/><stop offset=".7043" stop-color="#e41f2d"/><stop offset="1" stop-color="#c41926"/></linearGradient><linearGradient id="SVGID_5_" gradientUnits="userSpaceOnUse" x1="111.813" x2="398.187" y1="175.324" y2="175.324"><stop offset="0" stop-color="#01d0fb"/><stop offset=".6075" stop-color="#26a6fe"/><stop offset="1" stop-color="#0182fc"/></linearGradient><linearGradient id="SVGID_6_" gradientUnits="userSpaceOnUse" x1="148.732" x2="384.884" y1="175.324" y2="175.324"><stop offset="0" stop-color="#01bffa"/><stop offset="1" stop-color="#5b5cff"/></linearGradient><g><ellipse cx="255" cy="464.259" fill="url(#SVGID_1_)" rx="99.566" ry="45.741"/><path d="m354.563 464.261c0 25.258-44.575 45.739-99.563 45.739-6.942 0-13.711-.324-20.249-.951 45.273-4.291 79.314-22.718 79.314-44.788 0-7.64-4.078-14.835-11.283-21.159-.799.89-1.609 1.771-2.398 2.641-24.347 26.705-66.422 26.705-90.769 0-5.029-5.515-10.301-11.394-15.745-17.587 11.789-4.22 25.703-7.245 40.882-8.682 6.537-.628 13.307-.951 20.249-.951 23.041 0 44.261 3.592 61.13 9.633 23.385 8.369 38.432 21.422 38.432 36.105z" fill="url(#SVGID_2_)"/><path d="m440.73 185.73c0 69.538-85.357 174.38-140.341 234.7-24.348 26.711-66.431 26.711-90.779 0-54.983-60.32-140.34-165.161-140.34-234.7 0-102.576 83.154-185.73 185.73-185.73s185.73 83.154 185.73 185.73z" fill="url(#SVGID_3_)"/><path d="m255 0c-6.843 0-13.597.381-20.248 1.103 93.049 10.09 165.482 88.895 165.482 184.628 0 6.533-.754 13.377-2.165 20.467.071-1.847.118-3.7.118-5.564 0-79.08-64.107-143.187-143.187-143.187s-143.187 64.107-143.187 143.187 64.107 143.187 143.187 143.187c36.296 0 69.432-13.512 94.669-35.772-28.036 41.91-62.611 82.58-89.777 112.382-7.149 7.843-15.832 13.364-25.141 16.601 22.396 7.788 48.439 2.267 65.638-16.601 54.984-60.321 140.341-165.161 140.341-234.7 0-102.577-83.154-185.731-185.73-185.731z" fill="url(#SVGID_4_)"/><g><circle cx="255" cy="175.324" fill="url(#SVGID_5_)" r="143.187"/><path d="m255 32.138c-79.08 0-143.187 64.107-143.187 143.186s64.107 143.187 143.187 143.187 143.187-64.107 143.187-143.187-64.107-143.186-143.187-143.186zm112.71 128.427h-31.373c-1.823-31.168-9.354-59.374-20.733-81.362 27.918 17.665 47.65 47.146 52.106 81.362zm-127.47-93.025v93.025h-36.972c1.844-27.303 8.728-52.906 19.546-71.851 5.315-9.304 11.339-16.533 17.426-21.174zm0 122.544v93.025c-6.087-4.642-12.112-11.87-17.425-21.175-10.819-18.945-17.702-44.547-19.547-71.85zm29.519 93.025v-93.025h36.972c-1.844 27.303-8.728 52.906-19.546 71.85-5.314 9.305-11.338 16.533-17.426 21.175zm0-122.544v-93.025c6.087 4.642 12.112 11.87 17.425 21.175 10.819 18.945 17.702 44.547 19.546 71.851h-36.971zm-75.363-81.362c-11.379 21.988-18.911 50.194-20.733 81.362h-31.373c4.456-34.216 24.187-63.697 52.106-81.362zm-52.106 110.881h31.373c1.823 31.168 9.354 59.374 20.734 81.361-27.919-17.665-47.651-47.145-52.107-81.361zm173.314 81.361c11.379-21.987 18.911-50.193 20.733-81.361h31.373c-4.456 34.216-24.188 63.696-52.106 81.361z" fill="url(#SVGID_6_)"/></g></g></svg>