<svg id="Capa_1" enable-background="new 0 0 510.001 510.001" height="512" viewBox="0 0 510.001 510.001" width="512" xmlns="http://www.w3.org/2000/svg" xmlns:xlink="http://www.w3.org/1999/xlink"><linearGradient id="lg1"><stop offset="0" stop-color="#b0e7c9"/><stop offset=".593" stop-color="#46cc8d"/><stop offset="1" stop-color="#0ab69f"/></linearGradient><linearGradient id="SVGID_1_" gradientUnits="userSpaceOnUse" x1="1.602" x2="502.582" xlink:href="#lg1" y1="255.001" y2="255.001"/><linearGradient id="lg2"><stop offset="0" stop-color="#46cc8d"/><stop offset=".5484" stop-color="#0ab69f"/><stop offset="1" stop-color="#01998d"/></linearGradient><linearGradient id="SVGID_2_" gradientUnits="userSpaceOnUse" x1="13.601" x2="271.186" xlink:href="#lg2" y1="186.214" y2="186.214"/><linearGradient id="SVGID_3_" gradientUnits="userSpaceOnUse" x1="401" x2="504.005" xlink:href="#lg2" y1="255.001" y2="255.001"/><linearGradient id="SVGID_4_" gradientTransform="matrix(-1 0 0 1 1574.001 0)" gradientUnits="userSpaceOnUse" x1="1040.757" x2="1596.831" y1="255.001" y2="255.001"><stop offset="0" stop-color="#006e66"/><stop offset=".3925" stop-color="#01998d"/><stop offset="1" stop-color="#09a755"/></linearGradient><linearGradient id="lg3"><stop offset="0" stop-color="#09a755"/><stop offset=".6075" stop-color="#01998d"/><stop offset="1" stop-color="#006e66"/></linearGradient><linearGradient id="SVGID_5_" gradientUnits="userSpaceOnUse" x1="-83.333" x2="159.073" xlink:href="#lg3" y1="203.592" y2="203.592"/><linearGradient id="SVGID_6_" gradientUnits="userSpaceOnUse" x1="154.667" x2="345.352" xlink:href="#lg1" y1="255.001" y2="255.001"/><linearGradient id="SVGID_7_" gradientUnits="userSpaceOnUse" x1="250" x2="365.004" xlink:href="#lg2" y1="255.001" y2="255.001"/><linearGradient id="SVGID_8_" gradientUnits="userSpaceOnUse" x1="50.333" x2="130.333" y1="255.001" y2="255.001"><stop offset="0" stop-color="#fff9df"/><stop offset=".593" stop-color="#ffe177"/><stop offset="1" stop-color="#feb137"/></linearGradient><linearGradient id="lg4"><stop offset="0" stop-color="#ffe177"/><stop offset="1" stop-color="#feb137"/></linearGradient><linearGradient id="SVGID_9_" gradientUnits="userSpaceOnUse" x1="50" x2="116.483" xlink:href="#lg4" y1="255.001" y2="255.001"/><linearGradient id="SVGID_10_" gradientUnits="userSpaceOnUse" x1="379.667" x2="459.667" xlink:href="#lg4" y1="255.001" y2="255.001"/><linearGradient id="SVGID_11_" gradientUnits="userSpaceOnUse" x1="382" x2="469.006" xlink:href="#lg3" y1="255.001" y2="255.001"/><linearGradient id="lg5"><stop offset="0" stop-color="#01d0fb"/><stop offset=".6075" stop-color="#26a6fe"/><stop offset="1" stop-color="#0182fc"/></linearGradient><linearGradient id="SVGID_12_" gradientUnits="userSpaceOnUse" x1="42.619" x2="346.487" xlink:href="#lg5" y1="137.427" y2="137.427"/><linearGradient id="lg6"><stop offset="0" stop-color="#01bffa"/><stop offset="1" stop-color="#5b5cff"/></linearGradient><linearGradient id="SVGID_13_" gradientUnits="userSpaceOnUse" x1="178.727" x2="383.138" xlink:href="#lg6" y1="40.001" y2="40.001"/><linearGradient id="SVGID_14_" gradientUnits="userSpaceOnUse" x1="63.53" x2="198.722" xlink:href="#lg6" y1="170.759" y2="170.759"/><linearGradient id="SVGID_15_" gradientUnits="userSpaceOnUse" x1="68.105" x2="454.076" xlink:href="#lg5" y1="372.574" y2="372.574"/><linearGradient id="SVGID_16_" gradientUnits="userSpaceOnUse" x1="80.667" x2="471.302" xlink:href="#lg6" y1="372.574" y2="372.574"/><linearGradient id="SVGID_17_" gradientUnits="userSpaceOnUse" x1="26" x2="225.37" xlink:href="#lg6" y1="436.646" y2="436.646"/><g><g><path d="m478.077 430h-446.154c-17.631 0-31.923-14.292-31.923-31.922v-286.155c0-17.63 14.292-31.923 31.923-31.923h446.154c17.631 0 31.923 14.293 31.923 31.923v286.155c0 17.63-14.292 31.922-31.923 31.922z" fill="url(#SVGID_1_)"/><g><path d="m94.817 97.574c-23.83 28.01-40.97 61.88-48.97 99.15h-17.25c-9.36 0-15.82 7.68-15.82 15.86 0 3.24 1.01 6.55 3.25 9.5l48.76 64.11c6.32 8.31 18.82 8.31 25.14 0l48.76-64.11c7.9-10.4.49-25.36-12.58-25.36h-11.4c13.9-44.52 53.913-84.944 96.203-103.394 19.63-8.58 41.3-13.33 64.09-13.33h-163.53c-5.852 5.562-11.419 11.421-16.653 17.574z" fill="url(#SVGID_2_)"/></g><path d="m478.077 80h-41.025c17.63 0 31.923 14.292 31.923 31.923v286.155c0 17.63-14.292 31.923-31.923 31.923h41.025c17.63 0 31.923-14.292 31.923-31.923v-286.155c0-17.63-14.292-31.923-31.923-31.923z" fill="url(#SVGID_3_)"/><path d="m38.742 164.312c16.199-5.905 29.035-19.012 34.8-35.538 2.956-8.474 11.123-14.017 20.097-14.017h322.722c8.974 0 17.142 5.544 20.097 14.017 5.764 16.526 18.601 29.633 34.8 35.538 8.334 3.038 13.742 11.138 13.742 20.009v141.359c0 8.871-5.408 16.972-13.742 20.009-16.199 5.905-29.035 19.012-34.8 35.538-2.956 8.474-11.123 14.017-20.097 14.017h-322.722c-8.974 0-17.142-5.544-20.097-14.017-5.764-16.526-18.601-29.633-34.8-35.538-8.334-3.038-13.742-11.139-13.742-20.009v-141.359c0-8.871 5.408-16.971 13.742-20.009z" fill="url(#SVGID_4_)"/><path d="m174.946 114.757h-81.307c-8.974 0-17.142 5.544-20.097 14.017-2.515 7.211-6.378 13.771-11.279 19.365-7.209 15.338-12.771 31.603-16.416 48.585h-17.25c-1.256 0-2.455.148-3.598.407v36.75l39.788 52.313c6.32 8.31 18.82 8.31 25.14 0l48.76-64.11c7.9-10.4.49-25.36-12.58-25.36h-11.4c9.83-31.482 32.723-60.904 60.239-81.967z" fill="url(#SVGID_5_)"/><circle cx="255" cy="255" fill="url(#SVGID_6_)" r="100"/><path d="m255 155c-6.854 0-13.546.691-20.012 2.005 45.639 9.27 79.988 49.621 79.988 97.995s-34.349 88.725-79.988 97.995c6.466 1.314 13.158 2.005 20.012 2.005 55.228 0 100-44.771 100-100s-44.772-100-100-100z" fill="url(#SVGID_7_)"/><g><path d="m112.833 237.5h-45c-9.665 0-17.5 7.835-17.5 17.5 0 9.665 7.835 17.5 17.5 17.5h45c9.665 0 17.5-7.835 17.5-17.5 0-9.665-7.835-17.5-17.5-17.5z" fill="url(#SVGID_8_)"/><path d="m100.342 272.5 23.596-31.024c-3.021-2.484-6.888-3.976-11.105-3.976h-45c-9.665 0-17.5 7.835-17.5 17.5 0 9.665 7.835 17.5 17.5 17.5z" fill="url(#SVGID_9_)"/><path d="m442.167 237.5h-45c-9.665 0-17.5 7.835-17.5 17.5 0 9.665 7.835 17.5 17.5 17.5h45c9.665 0 17.5-7.835 17.5-17.5 0-9.665-7.835-17.5-17.5-17.5z" fill="url(#SVGID_10_)"/></g><path d="m471.258 164.312c-.771-.281-1.527-.593-2.282-.907v183.191c.755-.313 1.511-.625 2.282-.907 8.334-3.038 13.742-11.138 13.742-20.009v-141.359c0-8.871-5.408-16.971-13.742-20.009z" fill="url(#SVGID_11_)"/></g><g><path d="m427.97 80h-108.86c-19.63-8.57-41.31-13.33-64.11-13.33-22.79 0-44.46 4.75-64.09 13.33-42.29 18.45-75.08 54.63-88.98 99.15h11.4c13.07 0 20.48 14.96 12.58 25.36l-48.76 64.11c-6.32 8.31-18.82 8.31-25.14 0l-48.76-64.11c-2.24-2.95-3.25-6.26-3.25-9.5 0-8.18 6.46-15.86 15.82-15.86h17.25c8-37.27 25.14-71.14 48.97-99.15 37.56-44.16 91.73-73.76 152.85-79.12h.01c.14-.01.28-.03.42-.03 1.51-.14 3.03-.25 4.56-.35 5-.33 10.04-.5 15.12-.5 69.3 0 131.34 31.051 172.97 80z" fill="url(#SVGID_12_)"/><g><path d="m427.97 80h-40.03c-37.6-44.2-91.85-73.8-153.04-79.12.14-.01.28-.03.42-.03 1.51-.14 3.03-.25 4.56-.35 5-.33 10.04-.5 15.12-.5 69.3 0 131.34 31.051 172.97 80z" fill="url(#SVGID_13_)"/><path d="m234.975 67.907c-6.551-.815-13.224-1.24-19.996-1.24-67.769 0-125.717 42.048-149.183 101.477-2.086 5.282 1.838 11.006 7.517 11.006 13.064 0 20.481 14.957 12.572 25.356l-41.318 54.331 7.438 9.78c6.321 8.312 18.824 8.312 25.145 0l48.755-64.112c7.908-10.399.492-25.356-12.572-25.356h-11.403c18.435-59.026 70.07-103.395 133.045-111.242z" fill="url(#SVGID_14_)"/></g></g><g><path d="m510 314.99c0 8.18-6.46 15.86-15.82 15.86h-17.25c-8 37.27-25.14 71.14-48.97 99.15-41.63 48.95-103.67 80-172.96 80-69.3 0-131.34-31.05-172.98-80h108.88c19.63 8.57 41.31 13.33 64.1 13.33s44.46-4.75 64.09-13.33c42.29-18.45 75.07-54.63 88.98-99.15h-11.4c-13.07 0-20.48-14.96-12.58-25.36l30.3-39.85 18.46-24.26c6.32-8.31 18.82-8.31 25.14 0l23.77 31.25 24.99 32.86c2.24 2.95 3.25 6.26 3.25 9.5z" fill="url(#SVGID_15_)"/><path d="m506.749 305.49-24.99-32.86-23.77-31.25c-6.32-8.31-18.82-8.31-25.14 0l-7.441 9.779 16.331 21.471 24.99 32.86c7.91 10.4.49 25.36-12.57 25.36h-.388c-9.701 0-18.136 6.474-20.851 15.788-25.708 88.2-103.491 154.204-197.839 162.483 6.565.571 13.205.879 19.918.879 108.95 0 199.96-76.76 221.93-179.15h17.25c13.06 0 20.48-14.959 12.57-25.36z" fill="url(#SVGID_16_)"/></g><path d="m190.9 430h-108.88c3.906 4.592 7.992 9.026 12.246 13.292h157.785c-21.71-.392-42.37-5.092-61.151-13.292z" fill="url(#SVGID_17_)"/></g></svg>