<svg id="Capa_1" enable-background="new 0 0 510 510" height="512" viewBox="0 0 510 510" width="512" xmlns="http://www.w3.org/2000/svg" xmlns:xlink="http://www.w3.org/1999/xlink"><linearGradient id="lg1"><stop offset="0" stop-color="#cdbfba"/><stop offset="1" stop-color="#766e6e"/></linearGradient><linearGradient id="SVGID_1_" gradientUnits="userSpaceOnUse" x1="251" x2="362.162" xlink:href="#lg1" y1="323.381" y2="323.381"/><linearGradient id="SVGID_2_" gradientUnits="userSpaceOnUse" x1="321.457" x2="505.65" y1="96.405" y2="96.405"><stop offset="0" stop-color="#b0e7c9"/><stop offset=".593" stop-color="#46cc8d"/><stop offset="1" stop-color="#0ab69f"/></linearGradient><linearGradient id="lg2"><stop offset="0" stop-color="#46cc8d"/><stop offset=".5484" stop-color="#0ab69f"/><stop offset="1" stop-color="#01998d"/></linearGradient><linearGradient id="SVGID_3_" gradientUnits="userSpaceOnUse" x1="319" x2="418.247" xlink:href="#lg2" y1="137.511" y2="137.511"/><linearGradient id="SVGID_4_" gradientUnits="userSpaceOnUse" x1="396.161" x2="507.374" xlink:href="#lg2" y1="96.405" y2="96.405"/><linearGradient id="SVGID_5_" gradientUnits="userSpaceOnUse" x1="246" x2="395.933" xlink:href="#lg1" y1="155" y2="155"/><linearGradient id="SVGID_6_" gradientUnits="userSpaceOnUse" x1="250.666" x2="317.669" xlink:href="#lg1" y1="299.199" y2="299.199"/><linearGradient id="SVGID_7_" gradientUnits="userSpaceOnUse" x1="247.923" x2="328.528" xlink:href="#lg1" y1="186.311" y2="186.311"/><linearGradient id="SVGID_8_" gradientUnits="userSpaceOnUse" x1="7.131" x2="314.992" y1="255" y2="255"><stop offset="0" stop-color="#fff9df"/><stop offset=".593" stop-color="#ffe177"/><stop offset="1" stop-color="#feb137"/></linearGradient><linearGradient id="SVGID_9_" gradientUnits="userSpaceOnUse" x1="32.131" x2="283.179" y1="272.216" y2="272.216"><stop offset="0" stop-color="#ffe177"/><stop offset="1" stop-color="#feb137"/></linearGradient><linearGradient id="SVGID_10_" gradientUnits="userSpaceOnUse" x1="81.685" x2="240.577" xlink:href="#lg1" y1="201.472" y2="201.472"/><linearGradient id="SVGID_11_" gradientUnits="userSpaceOnUse" x1="42.836" x2="279.427" xlink:href="#lg1" y1="353.566" y2="353.566"/><linearGradient id="SVGID_12_" gradientUnits="userSpaceOnUse" x1="85.131" x2="291.17" y1="374.127" y2="374.127"><stop offset="0" stop-color="#9e9797"/><stop offset="1" stop-color="#5b5555"/></linearGradient><linearGradient id="SVGID_13_" gradientUnits="userSpaceOnUse" x1="321.457" x2="505.65" y1="413.595" y2="413.595"><stop offset="0" stop-color="#fe99a0"/><stop offset=".593" stop-color="#fe646f"/><stop offset="1" stop-color="#e41f2d"/></linearGradient><linearGradient id="SVGID_14_" gradientUnits="userSpaceOnUse" x1="396.161" x2="507.374" y1="413.595" y2="413.595"><stop offset="0" stop-color="#fe646f"/><stop offset=".7043" stop-color="#e41f2d"/><stop offset="1" stop-color="#c41926"/></linearGradient><g><path d="m256.508 256.508c-8.469 8.469-8.469 22.2 0 30.669l103.077 103.077c8.469 8.469 22.2 8.469 30.669 0s8.469-22.2 0-30.669l-103.077-103.077c-8.469-8.469-22.2-8.469-30.669 0z" fill="url(#SVGID_1_)"/><g><circle cx="413.595" cy="96.405" fill="url(#SVGID_2_)" r="96.405"/><path d="m374.989 103.53-43.456 43.456c3.86 6.25 8.473 12.167 13.893 17.587 5.131 5.131 10.708 9.537 16.589 13.269l43.643-43.643c8.469-8.469 8.469-22.2 0-30.669s-22.2-8.469-30.669 0z" fill="url(#SVGID_3_)"/><path d="m481.764 28.236c-23.945-23.944-57.346-32.635-88.179-26.122 17.646 3.728 34.454 12.418 48.158 26.122 37.649 37.649 37.649 98.688 0 136.337-13.704 13.704-30.512 22.395-48.158 26.122 30.833 6.513 64.234-2.178 88.178-26.122 37.649-37.648 37.649-98.688.001-136.337z" fill="url(#SVGID_4_)"/></g><path d="m256.508 221.873c-8.469-8.469-8.469-22.2 0-30.669l103.077-103.077c8.469-8.469 22.2-8.469 30.669 0s8.469 22.2 0 30.669l-103.077 103.077c-8.469 8.469-22.2 8.469-30.669 0z" fill="url(#SVGID_5_)"/><path d="m338.43 307.76c-4.91 14.2-11.85 27.84-20.85 40.48l-61.07-61.06c-8.47-8.47-8.47-22.2 0-30.67s22.2-8.47 30.67 0z" fill="url(#SVGID_6_)"/><path d="m328.89 180.16-41.71 41.71c-8.47 8.47-22.2 8.47-30.67 0s-8.47-22.2 0-30.67l46.81-46.8c10.35 10.95 18.88 23 25.57 35.76z" fill="url(#SVGID_7_)"/><g><circle cx="161.131" cy="255" fill="url(#SVGID_8_)" r="161.131"/><path d="m275.068 141.063c-4.593-4.593-9.399-8.84-14.379-12.763 49.817 63.237 45.57 155.163-12.763 213.495s-150.258 62.58-213.495 12.763c3.922 4.979 8.17 9.786 12.763 14.379 62.926 62.926 164.948 62.926 227.874 0s62.926-164.948 0-227.874z" fill="url(#SVGID_9_)"/><circle cx="161.131" cy="201.472" fill="url(#SVGID_10_)" r="79.446"/><path d="m47.194 368.937c62.926 62.926 164.948 62.926 227.874 0 1.492-1.492 2.937-3.013 4.359-4.548-21.59-43.491-66.448-73.389-118.296-73.389s-96.706 29.898-118.296 73.389c1.422 1.535 2.867 3.056 4.359 4.548z" fill="url(#SVGID_11_)"/><path d="m279.427 364.389c-5.9-11.885-13.547-22.744-22.59-32.266-2.818 3.313-5.781 6.544-8.91 9.672-55.385 55.385-141.049 62.006-203.693 19.894-.471.896-.947 1.79-1.398 2.699 1.421 1.535 2.867 3.056 4.359 4.548 62.926 62.926 164.948 62.926 227.874 0 1.491-1.491 2.937-3.012 4.358-4.547z" fill="url(#SVGID_12_)"/></g><g><circle cx="413.595" cy="413.595" fill="url(#SVGID_13_)" r="96.405"/><path d="m481.764 345.427c-23.944-23.944-57.346-32.635-88.178-26.122 17.646 3.728 34.454 12.418 48.158 26.122 37.649 37.649 37.649 98.688 0 136.337-13.704 13.704-30.512 22.395-48.158 26.122 30.833 6.513 64.234-2.178 88.178-26.122 37.648-37.649 37.648-98.689 0-136.337z" fill="url(#SVGID_14_)"/></g></g></svg>