<svg id="Capa_1" enable-background="new 0 0 510 510" height="512" viewBox="0 0 510 510" width="512" xmlns="http://www.w3.org/2000/svg" xmlns:xlink="http://www.w3.org/1999/xlink"><linearGradient id="lg1"><stop offset="0" stop-color="#fff9df"/><stop offset=".593" stop-color="#ffe177"/><stop offset="1" stop-color="#feb137"/></linearGradient><linearGradient id="SVGID_1_" gradientUnits="userSpaceOnUse" x1="255.185" x2="323.654" xlink:href="#lg1" y1="385.84" y2="385.84"/><linearGradient id="lg2"><stop offset="0" stop-color="#f2fbff"/><stop offset=".593" stop-color="#faf7f7"/><stop offset="1" stop-color="#f3eae6"/></linearGradient><linearGradient id="SVGID_2_" gradientUnits="userSpaceOnUse" x1="221.185" x2="302.185" xlink:href="#lg2" y1="445.664" y2="445.664"/><linearGradient id="lg3"><stop offset="0" stop-color="#f3eae6"/><stop offset="1" stop-color="#cdbfba"/></linearGradient><linearGradient id="SVGID_3_" gradientUnits="userSpaceOnUse" x1="231.185" x2="387.237" xlink:href="#lg3" y1="444.481" y2="444.481"/><linearGradient id="SVGID_4_" gradientUnits="userSpaceOnUse" x1="232.185" x2="425.084" xlink:href="#lg1" y1="158.524" y2="158.524"/><linearGradient id="SVGID_5_" gradientUnits="userSpaceOnUse" x1="232.185" x2="403.422" y1="146.343" y2="146.343"><stop offset="0" stop-color="#ffe177"/><stop offset="1" stop-color="#feb137"/></linearGradient><linearGradient id="SVGID_6_" gradientUnits="userSpaceOnUse" x1="33.185" x2="374.199" xlink:href="#lg2" y1="238.09" y2="238.09"/><linearGradient id="SVGID_7_" gradientUnits="userSpaceOnUse" x1="225.185" x2="398.185" xlink:href="#lg3" y1="167.733" y2="167.733"/><linearGradient id="lg4"><stop offset="0" stop-color="#fe99a0"/><stop offset=".593" stop-color="#fe646f"/><stop offset="1" stop-color="#e41f2d"/></linearGradient><linearGradient id="SVGID_8_" gradientUnits="userSpaceOnUse" x1="18.185" x2="83.377" xlink:href="#lg4" y1="410.883" y2="410.883"/><linearGradient id="SVGID_9_" gradientUnits="userSpaceOnUse" x1="19.797" x2="224.157" xlink:href="#lg4" y1="337.536" y2="337.536"/><linearGradient id="SVGID_10_" gradientUnits="userSpaceOnUse" x1="184.185" x2="420.101" xlink:href="#lg4" y1="156.674" y2="156.674"/><linearGradient id="SVGID_11_" gradientUnits="userSpaceOnUse" x1="380.014" x2="407.165" xlink:href="#lg1" y1="40.229" y2="13.078"/><linearGradient id="SVGID_12_" gradientTransform="matrix(0 1 -1 0 428.077 -375.791)" gradientUnits="userSpaceOnUse" x1="449.021" x2="476.172" xlink:href="#lg1" y1="-12.089" y2="-39.24"/><linearGradient id="SVGID_13_" gradientTransform="matrix(.707 .707 -.707 .707 136.21 -276.553)" gradientUnits="userSpaceOnUse" x1="425.353" x2="452.504" xlink:href="#lg1" y1="28.362" y2="1.211"/><g><path d="m283.033 363.453-29.637 29.637c16.902 19.395 46.364 20.151 64.245 2.27.075-.075.149-.15.224-.225 5.972-6.057 2.241-16.211-6.177-17.44-10.535-1.537-21.086-6.673-28.655-14.242z" fill="url(#SVGID_1_)"/><path d="m265.158 381.328 75.254 75.254c12.22 12.22 12.22 32.033 0 44.253-12.22 12.22-32.033 12.22-44.253 0l-75.254-75.254z" fill="url(#SVGID_2_)"/><path d="m220.905 425.581 4.497 4.497c11.425 11.425 29.873 11.499 41.482.261.513-.496 1.022-.997 1.528-1.504l5.155-5.155 49.871 49.871c9.214 9.214 11.473 22.746 6.794 34.082 3.702-1.527 7.171-3.791 10.179-6.799 12.22-12.22 12.22-32.033 0-44.253l-75.254-75.254z" fill="url(#SVGID_3_)"/><circle cx="321.871" cy="158.524" fill="url(#SVGID_4_)" r="104.305"/><path d="m244.187 88.922 147.286 147.286c1.41-1.266 2.796-2.573 4.152-3.929 14.836-14.836 24.262-33.029 28.29-52.134l-123.665-123.666c-19.104 4.029-37.298 13.455-52.134 28.29-1.356 1.357-2.663 2.743-3.929 4.153z" fill="url(#SVGID_5_)"/><path d="m142.753 153.225.024.007-74.984 74.984c-50.917 50.917-50.917 133.469 0 184.386 50.917 50.917 133.469 50.917 184.386 0l74.984-74.984.007.024c30.047-29.276 70.718-41.172 109.399-35.676l18.434-18.434-258.14-258.141-18.434 18.434c5.496 38.682-6.4 79.352-35.676 109.4z" fill="url(#SVGID_6_)"/><path d="m196.863 25.391 258.141 258.141-18.431 18.431c-22.547-3.208-45.772-.502-67.176 8.113l-199.078-199.078c8.615-21.404 11.321-44.629 8.113-67.176z" fill="url(#SVGID_7_)"/><path d="m106.514 418.133-20.586 20.586c-12.22 12.22-32.033 12.22-44.253 0-12.22-12.22-12.22-32.033 0-44.253l20.586-20.586z" fill="url(#SVGID_8_)"/><path d="m256.113 408.668-184.387-184.386-3.934 3.934c-50.917 50.917-50.917 133.469 0 184.386 50.917 50.917 133.469 50.917 184.386 0z" fill="url(#SVGID_9_)"/><path d="m426.977 304.183-250.765-250.765c-12.22-12.22-12.22-32.033 0-44.253 12.22-12.22 32.033-12.22 44.253 0l250.765 250.765c12.22 12.22 12.22 32.033 0 44.253-12.22 12.22-32.033 12.22-44.253 0z" fill="url(#SVGID_10_)"/><g><g><path d="m393.589 49.663c-5.523 0-10-4.477-10-10v-26.018c0-5.523 4.477-10 10-10 5.523 0 10 4.477 10 10v26.018c0 5.523-4.477 10-10 10z" fill="url(#SVGID_11_)"/></g><g><path d="m466.75 96.806h-26.018c-5.523 0-10-4.477-10-10 0-5.523 4.477-10 10-10h26.018c5.523 0 10 4.477 10 10 0 5.523-4.477 10-10 10z" fill="url(#SVGID_12_)"/></g><g><path d="m419.854 60.542c-3.905-3.905-3.906-10.237 0-14.142l18.397-18.397c3.905-3.905 10.237-3.905 14.142 0 3.905 3.905 3.906 10.237 0 14.142l-18.397 18.397c-3.905 3.905-10.237 3.905-14.142 0z" fill="url(#SVGID_13_)"/></g></g></g></svg>