<svg id="Capa_1" enable-background="new 0 0 510 510" height="512" viewBox="0 0 510 510" width="512" xmlns="http://www.w3.org/2000/svg" xmlns:xlink="http://www.w3.org/1999/xlink"><linearGradient id="lg1"><stop offset="0" stop-color="#fff9df"/><stop offset=".593" stop-color="#ffe177"/><stop offset="1" stop-color="#feb137"/></linearGradient><linearGradient id="SVGID_1_" gradientUnits="userSpaceOnUse" x1="0" x2="510" xlink:href="#lg1" y1="194.921" y2="194.921"/><linearGradient id="lg2"><stop offset="0" stop-color="#fff9df"/><stop offset="1" stop-color="#ffd15b"/></linearGradient><linearGradient id="SVGID_2_" gradientUnits="userSpaceOnUse" x1="27" x2="101" xlink:href="#lg2" y1="275.335" y2="275.335"/><linearGradient id="SVGID_3_" gradientUnits="userSpaceOnUse" x1="27" x2="101" xlink:href="#lg2" y1="116.255" y2="116.255"/><linearGradient id="lg3"><stop offset="0" stop-color="#feb137"/><stop offset="1" stop-color="#eca026"/></linearGradient><linearGradient id="SVGID_4_" gradientUnits="userSpaceOnUse" x1="417.333" x2="459.333" xlink:href="#lg3" y1="276.05" y2="276.05"/><linearGradient id="SVGID_5_" gradientUnits="userSpaceOnUse" x1="417.333" x2="459.333" xlink:href="#lg3" y1="115.55" y2="115.55"/><linearGradient id="SVGID_6_" gradientUnits="userSpaceOnUse" x1="100.598" x2="438.085" xlink:href="#lg1" y1="457" y2="457"/><linearGradient id="lg4"><stop offset="0" stop-color="#ffe177"/><stop offset="1" stop-color="#feb137"/></linearGradient><linearGradient id="SVGID_7_" gradientUnits="userSpaceOnUse" x1="230" x2="301.532" xlink:href="#lg4" y1="418.908" y2="418.908"/><linearGradient id="SVGID_8_" gradientUnits="userSpaceOnUse" x1="81.099" x2="424.909" xlink:href="#lg1" y1="213.803" y2="213.803"/><linearGradient id="SVGID_9_" gradientUnits="userSpaceOnUse" x1="226.091" x2="408.626" xlink:href="#lg4" y1="213.8" y2="213.8"/><linearGradient id="SVGID_10_" gradientUnits="userSpaceOnUse" x1="49.131" x2="499.113" xlink:href="#lg1" y1="30" y2="30"/><linearGradient id="SVGID_11_" gradientUnits="userSpaceOnUse" x1="134" x2="310.284" y1="228.803" y2="228.803"><stop offset="0" stop-color="#fe99a0"/><stop offset=".593" stop-color="#fe646f"/><stop offset="1" stop-color="#e41f2d"/></linearGradient><linearGradient id="SVGID_12_" gradientUnits="userSpaceOnUse" x1="217" x2="351" y1="254.455" y2="254.455"><stop offset="0" stop-color="#fe646f"/><stop offset=".7043" stop-color="#e41f2d"/><stop offset="1" stop-color="#c41926"/></linearGradient><g><path d="m393.379 113.3c45.006 0 81.621 36.615 81.621 81.621s-36.615 81.621-81.621 81.621h-276.758c-45.006.001-81.621-36.615-81.621-81.621s36.615-81.621 81.621-81.621zm0-35h-276.758c-64.408 0-116.621 52.213-116.621 116.621 0 64.408 52.213 116.621 116.621 116.621h276.758c64.408.001 116.621-52.212 116.621-116.62 0-64.409-52.213-116.622-116.621-116.622z" fill="url(#SVGID_1_)"/><g><path d="m85.87 270.53c-15.05-6.14-27.86-16.65-36.87-29.94.2 19.42 3.55 38.09 9.59 55.51 12 6.89 25.34 11.72 39.54 13.98-5.57-12.48-9.73-25.73-12.26-39.55z" fill="url(#SVGID_2_)"/><path d="m83 120.55v-37.33c-12.32 3.71-23.78 9.39-34.02 16.69v49.38c8.43-12.45 20.2-22.46 34.02-28.74z" fill="url(#SVGID_3_)"/></g><g><path d="m424.13 270.51c-2.53 13.82-6.68 27.09-12.26 39.57 13.71-2.18 26.62-6.76 38.3-13.28 6.03-17.19 9.46-35.61 9.81-54.78-8.94 12.61-21.36 22.58-35.85 28.49z" fill="url(#SVGID_4_)"/><path d="m427 83.22v37.34c13.28 6.03 24.67 15.53 33.02 27.32v-48.67c-9.98-6.96-21.1-12.4-33.02-15.99z" fill="url(#SVGID_5_)"/></g><path d="m374.376 450h-23.376c-25.405 0-46-20.595-46-46h-100c0 25.405-20.595 46-46 46h-23.376c-16.347 0-30.164 12.816-30.612 29.157-.465 16.954 13.139 30.843 29.988 30.843h240c16.849 0 30.453-13.889 29.988-30.843-.448-16.341-14.265-29.157-30.612-29.157z" fill="url(#SVGID_6_)"/><path d="m205 404c0 7.555-1.833 14.678-5.061 20.967 17.314 5.735 35.823 8.848 55.06 8.848 19.238 0 37.746-3.114 55.06-8.848-3.226-6.289-5.059-13.412-5.059-20.967z" fill="url(#SVGID_7_)"/><path d="m255 413.803c-96.65 0-175-78.35-175-175v-225h350v225c0 96.65-78.35 175-175 175z" fill="url(#SVGID_8_)"/><path d="m430 13.8v225c0 96.65-78.35 175-175 175-6.77 0-13.45-.38-20.01-1.13 87.23-9.93 154.99-83.99 154.99-173.87v-153.789h-309.98v-71.211z" fill="url(#SVGID_9_)"/><path d="m425 60h-340c-16.569 0-30-13.431-30-30 0-16.569 13.431-30 30-30h340c16.569 0 30 13.431 30 30 0 16.569-13.431 30-30 30z" fill="url(#SVGID_10_)"/><g><path d="m277.423 146.411 17.348 35.152 38.792 5.637c20.51 2.98 28.699 28.185 13.858 42.651l-28.07 27.362 6.626 38.635c3.503 20.427-17.937 36.004-36.281 26.36l-34.696-18.242-34.697 18.241c-18.344 9.644-39.785-5.933-36.281-26.36l6.626-38.635-28.07-27.362c-14.841-14.466-6.652-39.671 13.858-42.651l38.792-5.637 17.348-35.152c9.173-18.584 35.675-18.584 44.847.001z" fill="url(#SVGID_11_)"/><path d="m333.563 187.199-23.563-3.424v.028c0 55.228-44.772 100-100 100-8.072 0-15.919-.963-23.437-2.769l-2.541 14.813c-3.503 20.427 17.937 36.004 36.281 26.36l34.697-18.241 34.697 18.241c18.344 9.644 39.785-5.933 36.281-26.36l-6.626-38.635 28.07-27.362c14.84-14.466 6.651-39.671-13.859-42.651z" fill="url(#SVGID_12_)"/></g></g></svg>