<svg id="Capa_1" enable-background="new 0 0 510 510" height="512" viewBox="0 0 510 510" width="512" xmlns="http://www.w3.org/2000/svg" xmlns:xlink="http://www.w3.org/1999/xlink"><linearGradient id="SVGID_1_" gradientUnits="userSpaceOnUse" x1="284" x2="363.218" y1="350.011" y2="350.011"><stop offset="0" stop-color="#cdbfba"/><stop offset="1" stop-color="#766e6e"/></linearGradient><linearGradient id="SVGID_2_" gradientUnits="userSpaceOnUse" x1="1.254" x2="393.551" y1="199.68" y2="199.68"><stop offset="0" stop-color="#01d0fb"/><stop offset=".6075" stop-color="#26a6fe"/><stop offset="1" stop-color="#0182fc"/></linearGradient><linearGradient id="SVGID_3_" gradientUnits="userSpaceOnUse" x1="180.36" x2="396.164" y1="199.68" y2="199.68"><stop offset="0" stop-color="#01bffa"/><stop offset="1" stop-color="#5b5cff"/></linearGradient><linearGradient id="SVGID_4_" gradientUnits="userSpaceOnUse" x1="54.368" x2="344.991" y1="199.68" y2="199.68"><stop offset="0" stop-color="#f2fbff"/><stop offset=".593" stop-color="#faf7f7"/><stop offset="1" stop-color="#f3eae6"/></linearGradient><linearGradient id="SVGID_5_" gradientUnits="userSpaceOnUse" x1="228" x2="380.473" y1="199.68" y2="199.68"><stop offset="0" stop-color="#f3eae6"/><stop offset="1" stop-color="#cdbfba"/></linearGradient><linearGradient id="lg1"><stop offset="0" stop-color="#fff9df"/><stop offset=".593" stop-color="#ffe177"/><stop offset="1" stop-color="#feb137"/></linearGradient><linearGradient id="SVGID_6_" gradientUnits="userSpaceOnUse" x1="128.034" x2="271.326" xlink:href="#lg1" y1="151.407" y2="151.407"/><linearGradient id="SVGID_7_" gradientUnits="userSpaceOnUse" x1="92.998" x2="306.361" xlink:href="#lg1" y1="288.568" y2="288.568"/><linearGradient id="SVGID_8_" gradientUnits="userSpaceOnUse" x1="328.667" x2="507.335" y1="425.502" y2="425.502"><stop offset="0" stop-color="#fe99a0"/><stop offset=".593" stop-color="#fe646f"/><stop offset="1" stop-color="#e41f2d"/></linearGradient><linearGradient id="SVGID_9_" gradientUnits="userSpaceOnUse" x1="157" x2="283.343" y1="307.544" y2="307.544"><stop offset="0" stop-color="#ffe177"/><stop offset="1" stop-color="#feb137"/></linearGradient><linearGradient id="SVGID_10_" gradientUnits="userSpaceOnUse" x1="394" x2="520.479" y1="425.505" y2="425.505"><stop offset="0" stop-color="#fe646f"/><stop offset=".7043" stop-color="#e41f2d"/><stop offset="1" stop-color="#c41926"/></linearGradient><g><path d="m361.323 394.991-56.293-56.293c-9.058-9.058-9.058-23.744 0-32.803l.865-.865c9.058-9.058 23.744-9.058 32.803 0l56.293 56.293c9.058 9.058 9.058 23.744 0 32.803l-.865.865c-9.058 9.058-23.745 9.058-32.803 0z" fill="url(#SVGID_1_)"/><path d="m199.68 0c-110.28 0-199.68 89.4-199.68 199.68s89.4 199.68 199.68 199.68 199.68-89.4 199.68-199.68-89.4-199.68-199.68-199.68zm0 344.991c-80.253 0-145.311-65.058-145.311-145.311s65.057-145.312 145.311-145.312 145.311 65.058 145.311 145.311-65.058 145.312-145.311 145.312z" fill="url(#SVGID_2_)"/><g><path d="m199.68 0c-6.754 0-13.428.34-20.01.995 100.884 10.039 179.67 95.159 179.67 198.685s-78.786 188.646-179.67 198.685c6.582.655 13.256.995 20.01.995 110.28 0 199.68-89.4 199.68-199.68s-89.4-199.68-199.68-199.68z" fill="url(#SVGID_3_)"/></g><circle cx="199.68" cy="199.68" fill="url(#SVGID_4_)" r="145.311"/><path d="m302.43 96.929c-33.476-33.476-79.221-47.197-122.761-41.177 30.267 4.185 59.469 17.905 82.741 41.177 56.748 56.748 56.748 148.754 0 205.501-23.272 23.272-52.473 36.992-82.741 41.177 43.54 6.02 89.285-7.701 122.761-41.177 56.748-56.747 56.748-148.753 0-205.501z" fill="url(#SVGID_5_)"/><circle cx="199.68" cy="151.407" fill="url(#SVGID_6_)" r="71.646"/><path d="m96.929 302.43c56.748 56.748 148.754 56.748 205.501 0 1.346-1.346 2.649-2.717 3.931-4.102-19.47-39.221-59.924-66.184-106.682-66.184s-87.211 26.962-106.682 66.184c1.283 1.385 2.586 2.757 3.932 4.102z" fill="url(#SVGID_7_)"/><path d="m505.078 463.14-41.938 41.938c-6.563 6.563-17.204 6.563-23.767 0l-84.762-84.762c-18.144-18.144-18.144-47.561 0-65.704 18.144-18.144 47.561-18.144 65.704 0l84.762 84.762c6.564 6.562 6.564 17.203.001 23.766z" fill="url(#SVGID_8_)"/><path d="m262.41 302.43c-23.271 23.271-52.473 36.992-82.74 41.177 43.539 6.02 89.285-7.701 122.761-41.177 1.346-1.346 2.649-2.717 3.931-4.102-5.142-10.357-11.759-19.848-19.557-28.225-6.428 11.59-14.557 22.489-24.395 32.327z" fill="url(#SVGID_9_)"/><path d="m505.078 439.373-84.762-84.762c-14.299-14.299-35.596-17.32-52.862-9.081 4.643 2.215 8.997 5.236 12.842 9.081l84.762 84.762c6.563 6.563 6.563 17.204 0 23.767l-33.811 33.811 8.127 8.127c6.563 6.563 17.204 6.563 23.767 0l41.938-41.938c6.562-6.563 6.562-17.204-.001-23.767z" fill="url(#SVGID_10_)"/></g></svg>