<svg id="Capa_1" enable-background="new 0 0 510 510" height="512" viewBox="0 0 510 510" width="512" xmlns="http://www.w3.org/2000/svg" xmlns:xlink="http://www.w3.org/1999/xlink"><linearGradient id="lg1"><stop offset="0" stop-color="#fff9df"/><stop offset=".593" stop-color="#ffe177"/><stop offset="1" stop-color="#feb137"/></linearGradient><linearGradient id="SVGID_1_" gradientUnits="userSpaceOnUse" x1="139.606" x2="370.394" xlink:href="#lg1" y1="85.401" y2="85.401"/><linearGradient id="lg2"><stop offset="0" stop-color="#01d0fb"/><stop offset=".6075" stop-color="#26a6fe"/><stop offset="1" stop-color="#0182fc"/></linearGradient><linearGradient id="SVGID_2_" gradientUnits="userSpaceOnUse" x1="-84.446" x2="362.655" xlink:href="#lg2" y1="303.563" y2="303.563"/><linearGradient id="lg3"><stop offset="0" stop-color="#01bffa"/><stop offset=".2539" stop-color="#1f9efc"/><stop offset=".5724" stop-color="#407afd"/><stop offset=".8326" stop-color="#5464ff"/><stop offset="1" stop-color="#5b5cff"/></linearGradient><linearGradient id="SVGID_3_" gradientUnits="userSpaceOnUse" x1="62.781" x2="511.639" xlink:href="#lg3" y1="303.563" y2="303.563"/><linearGradient id="SVGID_4_" gradientUnits="userSpaceOnUse" x1="1.602" x2="502.582" xlink:href="#lg2" y1="196.518" y2="196.518"/><linearGradient id="SVGID_5_" gradientUnits="userSpaceOnUse" x1="357" x2="544.683" xlink:href="#lg3" y1="196.518" y2="196.518"/><linearGradient id="SVGID_6_" gradientUnits="userSpaceOnUse" x1="140.003" x2="466.93" xlink:href="#lg3" y1="263.02" y2="263.02"/><linearGradient id="SVGID_7_" gradientUnits="userSpaceOnUse" x1="140.005" x2="466.933" xlink:href="#lg3" y1="263.02" y2="263.02"/><linearGradient id="SVGID_8_" gradientUnits="userSpaceOnUse" x1="96.636" x2="181.97" xlink:href="#lg1" y1="277.481" y2="277.481"/><linearGradient id="lg4"><stop offset="0" stop-color="#ffe177"/><stop offset="1" stop-color="#feb137"/></linearGradient><linearGradient id="SVGID_9_" gradientUnits="userSpaceOnUse" x1="100.303" x2="192.355" xlink:href="#lg4" y1="277.481" y2="277.481"/><linearGradient id="SVGID_10_" gradientUnits="userSpaceOnUse" x1="328.03" x2="413.364" xlink:href="#lg1" y1="277.481" y2="277.481"/><linearGradient id="SVGID_11_" gradientUnits="userSpaceOnUse" x1="331.697" x2="423.748" xlink:href="#lg4" y1="277.481" y2="277.481"/><g><path d="m175.156 135.247c7.817-36.908 40.642-64.692 79.844-64.692s72.027 27.784 79.844 64.692h35.55c-8.2-56.384-56.736-99.692-115.394-99.692-58.658 0-107.193 43.308-115.394 99.692z" fill="url(#SVGID_1_)"/><path d="m472.828 474.445h-435.656c-17.216 0-31.172-13.956-31.172-31.172v-279.421c0-17.216 13.956-31.172 31.172-31.172h435.657c17.216 0 31.172 13.956 31.172 31.172v279.421c-.001 17.216-13.957 31.172-31.173 31.172z" fill="url(#SVGID_2_)"/><path d="m472.828 132.68h-435.656c-17.216 0-31.172 13.956-31.172 31.172v146.546h456.418v132.876c0 17.216-13.956 31.172-31.172 31.172h41.582c17.216 0 31.172-13.956 31.172-31.172v-279.422c0-17.216-13.956-31.172-31.172-31.172z" fill="url(#SVGID_3_)"/><path d="m478.077 277.481h-446.154c-17.631 0-31.923-14.293-31.923-31.923v-98.08c0-17.63 14.292-31.923 31.923-31.923h446.154c17.63 0 31.923 14.292 31.923 31.923v98.08c0 17.63-14.292 31.923-31.923 31.923z" fill="url(#SVGID_4_)"/><path d="m478.077 115.555h-40.02c17.631 0 31.923 14.292 31.923 31.923v98.08c0 17.63-14.292 31.923-31.923 31.923h40.02c17.631 0 31.923-14.292 31.923-31.923v-98.08c0-17.631-14.292-31.923-31.923-31.923z" fill="url(#SVGID_5_)"/><g><path d="m221.99 262.05v15.43h-70.69v-15.43c0-7.45 6.04-13.49 13.49-13.49h43.71c7.45 0 13.49 6.04 13.49 13.49z" fill="url(#SVGID_6_)"/><path d="m453.38 262.05v15.43h-70.69v-15.43c0-7.45 6.04-13.49 13.49-13.49h43.71c7.45 0 13.49 6.04 13.49 13.49z" fill="url(#SVGID_7_)"/></g><g><g><path d="m168.477 306.402h-58.348c-7.452 0-13.493-6.041-13.493-13.493v-30.857c0-7.452 6.041-13.493 13.493-13.493h58.348c7.452 0 13.493 6.041 13.493 13.493v30.857c0 7.452-6.041 13.493-13.493 13.493z" fill="url(#SVGID_8_)"/><path d="m168.477 248.559h-.755c-3.852 26.798-22.331 48.867-47.096 57.843h47.851c7.452 0 13.493-6.041 13.493-13.493v-30.858c0-7.451-6.041-13.492-13.493-13.492z" fill="url(#SVGID_9_)"/></g><g><path d="m399.871 306.402h-58.348c-7.452 0-13.493-6.041-13.493-13.493v-30.857c0-7.452 6.041-13.493 13.493-13.493h58.348c7.452 0 13.493 6.041 13.493 13.493v30.857c-.001 7.452-6.041 13.493-13.493 13.493z" fill="url(#SVGID_10_)"/><path d="m399.871 248.559h-.755c-3.852 26.798-22.331 48.867-47.096 57.843h47.851c7.452 0 13.493-6.041 13.493-13.493v-30.858c0-7.451-6.041-13.492-13.493-13.492z" fill="url(#SVGID_11_)"/></g></g></g></svg>