<svg id="Capa_1" enable-background="new 0 0 510 510" height="512" viewBox="0 0 510 510" width="512" xmlns="http://www.w3.org/2000/svg" xmlns:xlink="http://www.w3.org/1999/xlink"><linearGradient id="lg1"><stop offset="0" stop-color="#ffe177"/><stop offset=".5725" stop-color="#feb137"/><stop offset="1" stop-color="#fe646f"/></linearGradient><linearGradient id="SVGID_1_" gradientTransform="matrix(.707 .707 -.707 .707 584.95 -850.401)" gradientUnits="userSpaceOnUse" x1="528.132" x2="585.44" xlink:href="#lg1" y1="1324.618" y2="1324.618"/><linearGradient id="lg2"><stop offset="0" stop-color="#537983"/><stop offset="1" stop-color="#3e5959"/></linearGradient><linearGradient id="SVGID_2_" gradientUnits="userSpaceOnUse" x1="16" x2="125.33" xlink:href="#lg2" y1="433.433" y2="433.433"/><linearGradient id="lg3"><stop offset="0" stop-color="#537983"/><stop offset="1" stop-color="#384949"/></linearGradient><linearGradient id="SVGID_3_" gradientUnits="userSpaceOnUse" x1="-15.5" x2="116.343" xlink:href="#lg3" y1="431.636" y2="431.636"/><linearGradient id="SVGID_4_" gradientUnits="userSpaceOnUse" x1="22" x2="224.074" xlink:href="#lg2" y1="381.478" y2="381.478"/><linearGradient id="SVGID_5_" gradientUnits="userSpaceOnUse" x1="-4.333" x2="202.262" xlink:href="#lg3" y1="381.4" y2="381.4"/><linearGradient id="SVGID_6_" gradientUnits="userSpaceOnUse" x1="58" x2="485.282" xlink:href="#lg1" y1="226.054" y2="226.054"/><linearGradient id="SVGID_7_" gradientUnits="userSpaceOnUse" x1="-17" x2="440.223" xlink:href="#lg1" y1="226.063" y2="226.063"/><linearGradient id="SVGID_8_" gradientUnits="userSpaceOnUse" x1="247" x2="527.829" xlink:href="#lg2" y1="111.364" y2="111.364"/><linearGradient id="SVGID_9_" gradientUnits="userSpaceOnUse" x1="298" x2="398.269" xlink:href="#lg3" y1="122.8" y2="122.8"/><linearGradient id="SVGID_10_" gradientUnits="userSpaceOnUse" x1="283" x2="508.737" xlink:href="#lg3" y1="111.372" y2="111.372"/><linearGradient id="SVGID_11_" gradientUnits="userSpaceOnUse" x1="220" x2="426.4" xlink:href="#lg2" y1="181.632" y2="181.632"/><linearGradient id="lg4"><stop offset="0" stop-color="#cdbfba"/><stop offset="1" stop-color="#766e6e"/></linearGradient><linearGradient id="SVGID_12_" gradientUnits="userSpaceOnUse" x1="190.77" x2="191.172" xlink:href="#lg4" y1="448.877" y2="448.877"/><linearGradient id="SVGID_13_" gradientUnits="userSpaceOnUse" x1="191.266" x2="191.448" xlink:href="#lg4" y1="448.506" y2="448.506"/><g><path d="m346.833 506.279h-339.333c-4.142 0-7.5-3.358-7.5-7.5s3.358-7.5 7.5-7.5h339.333c4.143 0 7.5 3.358 7.5 7.5s-3.357 7.5-7.5 7.5z" fill="#ffd15b"/><g><path d="m79.282 468.842-34.403-34.403-42.381 42.381c-5.335 5.335-1.557 14.458 5.989 14.458h41.05c4.68 0 9.168-1.859 12.477-5.168z" fill="url(#SVGID_1_)"/><g><path d="m74.491 476.807-37.577-37.577c-6.635-6.635-6.635-17.392 0-24.027l30.12-30.12 61.604 61.604-30.12 30.12c-6.634 6.635-17.392 6.635-24.027 0z" fill="url(#SVGID_2_)"/><path d="m128.64 446.691-13.91 13.92-16.21 16.2c-.5.5-1.03.97-1.58 1.38l-61.41-61.41c.41-.55.88-1.08 1.38-1.58l16.21-16.2 13.91-13.92z" fill="url(#SVGID_3_)"/><path d="m226.749 413.117-126.145-126.145-35.092 35.092c-4.34 4.34-6.471 10.053-6.392 15.741.116 8.412-3.747 16.483-10.741 21.159-1.478.988-2.916 2.136-4.248 3.468-8.526 8.526-8.526 22.349 0 30.875l76.283 76.283c8.526 8.526 22.349 8.526 30.875 0 1.332-1.332 2.48-2.77 3.468-4.248 4.676-6.994 12.747-10.857 21.159-10.741 5.688.079 11.401-2.052 15.741-6.392-6.206 6.206 22.79-22.791 35.092-35.092z" fill="url(#SVGID_4_)"/><path d="m100.604 286.972-.002.002-.003-.003-32.63 32.64-2.46 2.45c-4.26 4.26-6.39 9.85-6.39 15.43v.31c.04 2.52-.29 5.01-.95 7.38l93.498 93.498c2.623 2.623 2.621 6.878-.002 9.501-.01.01-.019.019-.029.029-4.34 4.34-10.053 6.471-15.741 6.392-8.069-.112-15.815 3.447-20.561 9.909l4.815 4.815c8.51 8.51 22.68 8.757 31.174.231 1.318-1.323 2.455-2.749 3.435-4.215 4.68-7 12.744-10.854 21.164-10.74 5.686.077 11.396-2.054 15.735-6.392 4.441-4.441 25.18-25.18 35.092-35.092z" fill="url(#SVGID_5_)"/><path d="m178.317 432.55-97.145-97.145c-13.009-13.009-13.009-34.1 0-47.108l256.712-256.713c29.043-29.043 76.132-29.043 105.175 0l39.079 39.079c29.043 29.043 29.043 76.132 0 105.175l-256.713 256.712c-13.009 13.008-34.1 13.008-47.108 0z" fill="url(#SVGID_6_)"/><path d="m482.137 70.663-39.079-39.079c-18.882-18.882-45.385-25.463-69.604-19.792-.986.218-1.981.457-2.999.74-11.93 3.321-23.194 9.671-32.576 19.05l-37.76 37.76-26.92 26.93 15.98 15.98c11.776 11.776 11.776 30.869 0 42.646l-73.982 73.982c-5.995 5.995-5.995 15.715 0 21.709l22.924 22.925c5.995 5.995 15.715 5.995 21.709 0l95.304-95.304 13.429 13.429c15.948 15.948 15.948 41.804 0 57.752l-183.158 183.159c-1.123 1.123-2.311 2.143-3.544 3.072 13.05 9.833 31.679 8.813 43.564-3.072l256.712-256.712c29.043-29.044 29.043-76.132 0-105.175z" fill="url(#SVGID_7_)"/></g><path d="m454.831 212.956 31.905-31.905c31.019-31.019 31.019-81.31 0-112.329l-41.737-41.737c-31.019-31.019-81.31-31.019-112.329 0l-31.905 31.905c-8.068 8.068-8.068 21.149 0 29.217l124.849 124.849c8.068 8.068 21.149 8.068 29.217 0z" fill="url(#SVGID_8_)"/><path d="m376.033 89.753c-5.995-5.995-15.714-5.995-21.709 0l-25.957 25.957 44.634 44.634 25.957-25.957c5.995-5.995 5.995-15.715 0-21.709z" fill="url(#SVGID_9_)"/><path d="m486.736 68.722-41.737-41.737c-20.644-20.644-49.82-27.53-76.174-20.695 13.245 3.435 25.78 10.32 36.154 20.695l41.737 41.737c31.019 31.019 31.019 81.31 0 112.329l-26.504 26.504 5.401 5.401c8.068 8.068 21.149 8.068 29.217 0l31.905-31.905c31.02-31.019 31.02-81.31.001-112.329z" fill="url(#SVGID_10_)"/><path d="m263.134 273.512-22.924-22.924c-5.995-5.995-5.995-15.715 0-21.709l139.125-139.126c5.995-5.995 15.715-5.995 21.709 0l22.924 22.924c5.995 5.995 5.995 15.715 0 21.709l-139.125 139.126c-5.995 5.995-15.714 5.995-21.709 0z" fill="url(#SVGID_11_)"/></g><g><path d="m191.177 448.689c-.522.522-.48.48 0 0z" fill="url(#SVGID_12_)"/></g><path d="m191.28 448.591c.04-.05.09-.09.14-.15.01 0 .02-.01.03-.02z" fill="url(#SVGID_13_)"/></g></svg>