<svg id="Capa_1" enable-background="new 0 0 510 510" height="512" viewBox="0 0 510 510" width="512" xmlns="http://www.w3.org/2000/svg" xmlns:xlink="http://www.w3.org/1999/xlink"><linearGradient id="lg1"><stop offset="0" stop-color="#537983"/><stop offset="1" stop-color="#3e5959"/></linearGradient><linearGradient id="SVGID_1_" gradientUnits="userSpaceOnUse" x1="14.003" x2="101.37" xlink:href="#lg1" y1="246.861" y2="246.861"/><linearGradient id="lg2"><stop offset="0" stop-color="#537983"/><stop offset="1" stop-color="#384949"/></linearGradient><linearGradient id="SVGID_2_" gradientUnits="userSpaceOnUse" x1="-36" x2="84.119" xlink:href="#lg2" y1="177.096" y2="177.096"/><linearGradient id="lg3"><stop offset="0" stop-color="#ffe177"/><stop offset=".5725" stop-color="#feb137"/><stop offset="1" stop-color="#fe646f"/></linearGradient><linearGradient id="SVGID_3_" gradientUnits="userSpaceOnUse" x1="15.388" x2="110.282" xlink:href="#lg3" y1="161.51" y2="161.51"/><linearGradient id="SVGID_4_" gradientUnits="userSpaceOnUse" x1="-17" x2="100.47" xlink:href="#lg3" y1="161.511" y2="161.511"/><linearGradient id="SVGID_5_" gradientUnits="userSpaceOnUse" x1="143.074" x2="230.441" xlink:href="#lg1" y1="246.861" y2="246.861"/><linearGradient id="SVGID_6_" gradientUnits="userSpaceOnUse" x1="93.071" x2="213.19" xlink:href="#lg2" y1="177.096" y2="177.096"/><linearGradient id="SVGID_7_" gradientUnits="userSpaceOnUse" x1="144.459" x2="239.354" xlink:href="#lg3" y1="161.51" y2="161.51"/><linearGradient id="SVGID_8_" gradientUnits="userSpaceOnUse" x1="112.071" x2="229.542" xlink:href="#lg3" y1="161.511" y2="161.511"/><linearGradient id="SVGID_9_" gradientTransform="matrix(.836 -.549 .549 .836 -102.71 205.974)" gradientUnits="userSpaceOnUse" x1="311.833" x2="399.2" xlink:href="#lg1" y1="315.208" y2="315.208"/><linearGradient id="SVGID_10_" gradientUnits="userSpaceOnUse" x1="254.5" x2="354.601" xlink:href="#lg2" y1="196.174" y2="196.174"/><linearGradient id="SVGID_11_" gradientUnits="userSpaceOnUse" x1="273.534" x2="368.429" xlink:href="#lg3" y1="161.51" y2="161.51"/><linearGradient id="SVGID_12_" gradientUnits="userSpaceOnUse" x1="241.147" x2="358.617" xlink:href="#lg3" y1="161.511" y2="161.511"/><linearGradient id="lg4"><stop offset="0" stop-color="#f9f3f1"/><stop offset=".5725" stop-color="#efe2dd"/><stop offset="1" stop-color="#cdbfba"/></linearGradient><linearGradient id="SVGID_13_" gradientUnits="userSpaceOnUse" x1="1.602" x2="539.627" xlink:href="#lg4" y1="94.051" y2="94.051"/><linearGradient id="SVGID_14_" gradientUnits="userSpaceOnUse" x1="157.122" x2="432.28" xlink:href="#lg4" y1="94.051" y2="94.051"/><linearGradient id="lg5"><stop offset="0" stop-color="#fe646f"/><stop offset=".5725" stop-color="#fb2b3a"/><stop offset="1" stop-color="#c41926"/></linearGradient><linearGradient id="SVGID_15_" gradientUnits="userSpaceOnUse" x1="4.97" x2="133.064" xlink:href="#lg5" y1="398.664" y2="398.664"/><linearGradient id="SVGID_16_" gradientUnits="userSpaceOnUse" x1="-48.045" x2="128.098" xlink:href="#lg5" y1="401.48" y2="401.48"/><linearGradient id="lg6"><stop offset="0" stop-color="#6bd9e7"/><stop offset=".5725" stop-color="#26a6fe"/><stop offset="1" stop-color="#0172fb"/></linearGradient><linearGradient id="SVGID_17_" gradientUnits="userSpaceOnUse" x1="134.044" x2="262.137" xlink:href="#lg6" y1="398.664" y2="398.664"/><linearGradient id="SVGID_18_" gradientUnits="userSpaceOnUse" x1="81.028" x2="257.172" xlink:href="#lg6" y1="401.48" y2="401.48"/><linearGradient id="lg7"><stop offset="0" stop-color="#7acaa6"/><stop offset=".5725" stop-color="#09a76d"/><stop offset="1" stop-color="#026841"/></linearGradient><linearGradient id="SVGID_19_" gradientUnits="userSpaceOnUse" x1="392.19" x2="520.284" xlink:href="#lg7" y1="398.664" y2="398.664"/><linearGradient id="SVGID_20_" gradientUnits="userSpaceOnUse" x1="339.175" x2="515.319" xlink:href="#lg7" y1="401.48" y2="401.48"/><g><g><path d="m48.89 128.671h25v236.38h-25z" fill="url(#SVGID_1_)"/><path d="m48.89 128.671h25v96.85h-25z" fill="url(#SVGID_2_)"/><path d="m68.596 200.51h-14.417c-14.796 0-26.791-11.995-26.791-26.791v-51.209h68v51.209c0 14.796-11.995 26.791-26.792 26.791z" fill="url(#SVGID_3_)"/><path d="m95.39 122.511v51.21c0 14.796-11.994 26.79-26.79 26.79h-14.42c-1.81 0-3.59-.18-5.3-.52 12.26-2.46 21.5-13.29 21.5-26.27 0-5.832-4.728-10.56-10.56-10.56h-32.43v-40.65z" fill="url(#SVGID_4_)"/></g><g><path d="m177.961 128.671h25v236.38h-25z" fill="url(#SVGID_5_)"/><path d="m177.961 128.671h25v96.85h-25z" fill="url(#SVGID_6_)"/><path d="m197.668 200.51h-14.418c-14.796 0-26.791-11.995-26.791-26.791v-51.209h68v51.209c0 14.796-11.995 26.791-26.791 26.791z" fill="url(#SVGID_7_)"/><path d="m224.461 122.511v51.21c0 14.796-11.994 26.79-26.79 26.79h-14.42c-1.81 0-3.59-.18-5.3-.52 12.26-2.46 21.5-13.29 21.5-26.27 0-5.832-4.728-10.56-10.56-10.56h-32.43v-40.65z" fill="url(#SVGID_8_)"/></g><g><path d="m316.169 166.826 129.652 197.651-20.904 13.712-129.652-197.651z" fill="url(#SVGID_9_)"/></g><path d="m316.169 166.826-20.904 13.712 29.507 44.983h1.971c8.595 0 16.239-4.052 21.141-10.345z" fill="url(#SVGID_10_)"/><g><path d="m326.743 200.51h-14.418c-14.796 0-26.791-11.995-26.791-26.791v-51.209h68v51.209c0 14.796-11.994 26.791-26.791 26.791z" fill="url(#SVGID_11_)"/><path d="m353.537 122.511v51.21c0 14.796-11.994 26.79-26.79 26.79h-14.42c-1.81 0-3.59-.18-5.3-.52 12.26-2.46 21.5-13.29 21.5-26.27 0-5.832-4.728-10.56-10.56-10.56h-32.43v-40.65z" fill="url(#SVGID_12_)"/></g><g><path d="m478.077 138.153h-446.154c-17.631 0-31.923-14.292-31.923-31.923v-24.358c0-17.63 14.292-31.923 31.923-31.923h446.154c17.63 0 31.923 14.292 31.923 31.923v24.359c0 17.63-14.292 31.922-31.923 31.922z" fill="url(#SVGID_13_)"/><path d="m478.077 49.949h-41.025c17.63 0 31.923 14.292 31.923 31.923v24.359c0 17.63-14.292 31.923-31.923 31.923h41.025c17.63 0 31.923-14.292 31.923-31.923v-24.359c0-17.631-14.292-31.923-31.923-31.923z" fill="url(#SVGID_14_)"/></g><g><g><circle cx="61.387" cy="398.664" fill="url(#SVGID_15_)" r="61.387"/><path d="m122.78 398.664c0 33.897-27.485 61.382-61.398 61.382-21.007 0-39.546-10.554-50.596-26.64 2.502.265 5.053.398 7.621.398 39.43 0 71.405-31.975 71.405-71.405 0-6.759-.944-13.303-2.7-19.483 21.056 9.724 35.668 31.029 35.668 55.748z" fill="url(#SVGID_16_)"/></g><g><circle cx="190.461" cy="398.664" fill="url(#SVGID_17_)" r="61.387"/><path d="m251.853 398.664c0 33.897-27.485 61.382-61.398 61.382-21.007 0-39.546-10.554-50.596-26.64 2.502.265 5.053.398 7.621.398 39.43 0 71.405-31.975 71.405-71.405 0-6.759-.944-13.303-2.7-19.483 21.056 9.724 35.668 31.029 35.668 55.748z" fill="url(#SVGID_18_)"/></g><g><circle cx="448.608" cy="398.664" fill="url(#SVGID_19_)" r="61.387"/><path d="m510 398.664c0 33.897-27.485 61.382-61.398 61.382-21.007 0-39.546-10.554-50.596-26.64 2.502.265 5.053.398 7.621.398 39.43 0 71.405-31.975 71.405-71.405 0-6.759-.944-13.303-2.7-19.483 21.056 9.724 35.668 31.029 35.668 55.748z" fill="url(#SVGID_20_)"/></g></g></g></svg>