<svg id="Capa_1" enable-background="new 0 0 510 510" height="512" viewBox="0 0 510 510" width="512" xmlns="http://www.w3.org/2000/svg" xmlns:xlink="http://www.w3.org/1999/xlink"><linearGradient id="SVGID_1_" gradientUnits="userSpaceOnUse" x1="122.83" x2="488.32" y1="194.635" y2="194.635"><stop offset="0" stop-color="#537983"/><stop offset="1" stop-color="#3e5959"/></linearGradient><linearGradient id="lg1"><stop offset="0" stop-color="#537983"/><stop offset="1" stop-color="#384949"/></linearGradient><linearGradient id="SVGID_2_" gradientUnits="userSpaceOnUse" x1="31.114" x2="449.887" xlink:href="#lg1" y1="194.637" y2="194.637"/><linearGradient id="lg2"><stop offset="0" stop-color="#ffe177"/><stop offset=".5725" stop-color="#feb137"/><stop offset="1" stop-color="#fe646f"/></linearGradient><linearGradient id="SVGID_3_" gradientUnits="userSpaceOnUse" x1=".765" x2="177.567" xlink:href="#lg2" y1="407.083" y2="407.083"/><linearGradient id="SVGID_4_" gradientUnits="userSpaceOnUse" x1="-86.588" x2="179.084" xlink:href="#lg2" y1="404.052" y2="404.052"/><linearGradient id="lg3"><stop offset="0" stop-color="#f9f3f1"/><stop offset=".5725" stop-color="#efe2dd"/><stop offset="1" stop-color="#cdbfba"/></linearGradient><linearGradient id="SVGID_5_" gradientUnits="userSpaceOnUse" x1="115.551" x2="254.952" xlink:href="#lg3" y1="331.772" y2="331.772"/><linearGradient id="SVGID_6_" gradientUnits="userSpaceOnUse" x1="37.647" x2="223.469" xlink:href="#lg3" y1="331.772" y2="331.772"/><linearGradient id="SVGID_7_" gradientUnits="userSpaceOnUse" x1="8.529" x2="62.852" xlink:href="#lg1" y1="440.774" y2="440.774"/><g><path d="m346.833 510h-339.333c-4.142 0-7.5-3.358-7.5-7.5s3.358-7.5 7.5-7.5h339.333c4.143 0 7.5 3.358 7.5 7.5s-3.357 7.5-7.5 7.5z" fill="#766e6e"/><g><path d="m494.168 15.832c-19.7-19.7-51.147-21.199-72.632-3.463l-215.043 177.529c-21.212 17.512-38.675 39.123-51.342 63.539l-34.42 66.347 69.485 69.485 66.347-34.42c24.417-12.667 46.027-30.129 63.539-51.342l177.529-215.043c17.737-21.485 16.238-52.932-3.463-72.632z" fill="url(#SVGID_1_)"/><path d="m494.168 15.832c-15.473-15.473-38.191-19.712-57.639-12.227 6.867 2.64 13.291 6.721 18.796 12.227 19.7 19.7 21.199 51.147 3.462 72.632l-177.528 215.043c-17.512 21.212-39.123 38.675-63.539 51.342l-40.772 21.152 13.268 13.268 66.347-34.42c24.417-12.667 46.027-30.129 63.539-51.342l177.529-215.043c17.737-21.485 16.237-52.932-3.463-72.632z" fill="url(#SVGID_2_)"/><path d="m190.834 389.889-11.979 11.979c-12.063 12.063-18.84 28.424-18.84 45.484 0 27.285-25.844 47.17-52.218 40.177-29.069-7.708-59.903-5.194-87.339 7.12-3.24 1.454-6.561-1.866-5.107-5.107 12.314-27.436 14.828-58.27 7.12-87.339-6.993-26.374 12.892-52.218 40.177-52.218 17.06 0 33.421-6.777 45.484-18.84l11.979-11.979z" fill="url(#SVGID_3_)"/><path d="m120.111 319.166-11.979 11.979c-2.511 2.511-5.217 4.778-8.068 6.818l39.948 39.948c6.616 6.616 6.616 17.341 0 23.957-12.063 12.063-18.84 28.424-18.84 45.484 0 17.104-10.157 31.296-24.232 37.787 3.639.641 7.262 1.437 10.857 2.39 26.374 6.993 52.218-12.892 52.218-40.177 0-17.06 6.777-33.421 18.84-45.484l11.979-11.978z" fill="url(#SVGID_4_)"/><path d="m132.146 275.854-14.792 31.197c-3.98 8.394-2.251 18.384 4.317 24.952l56.324 56.324c6.569 6.569 16.558 8.297 24.952 4.317l31.197-14.792c7.73-3.665 9.498-13.881 3.448-19.931l-85.517-85.517c-6.047-6.047-16.263-4.28-19.929 3.45z" fill="url(#SVGID_5_)"/><path d="m237.594 357.923-85.517-85.517c-6.049-6.049-16.266-4.282-19.931 3.448l-4.974 10.49 71.578 71.578c6.049 6.049 4.282 16.266-3.448 19.931l-18.845 8.935 1.539 1.539c6.569 6.569 16.558 8.297 24.952 4.317l31.197-14.792c7.731-3.664 9.498-13.88 3.449-19.929z" fill="url(#SVGID_6_)"/><path d="m115.222 392.578c-8.923-7.878-22.549-8.06-31.661-.401-7.928 6.664-10.452 17.043-7.573 26.073.809 2.538.154 5.314-1.73 7.197l-48.228 48.228c-4.407 4.407-7.913 9.615-10.433 15.315-.081.184-.163.368-.246.552-1.454 3.24 1.866 6.561 5.107 5.107 0 0 .001 0 .002-.001 5.923-2.501 11.312-6.125 15.859-10.672l48.234-48.234c1.855-1.855 4.594-2.574 7.09-1.765 8.418 2.727 18.028.749 24.714-5.938 9.862-9.862 9.483-26.087-1.135-35.461z" fill="url(#SVGID_7_)"/></g></g></svg>