<svg id="Capa_1" enable-background="new 0 0 509.999 509.999" height="512" viewBox="0 0 509.999 509.999" width="512" xmlns="http://www.w3.org/2000/svg" xmlns:xlink="http://www.w3.org/1999/xlink"><linearGradient id="lg1"><stop offset="0" stop-color="#fe646f"/><stop offset=".5725" stop-color="#fb2b3a"/><stop offset="1" stop-color="#c41926"/></linearGradient><linearGradient id="SVGID_1_" gradientUnits="userSpaceOnUse" x1="339" x2="530.628" xlink:href="#lg1" y1="87.084" y2="87.084"/><linearGradient id="SVGID_2_" gradientUnits="userSpaceOnUse" x1="285" x2="505.082" xlink:href="#lg1" y1="87.091" y2="87.091"/><linearGradient id="SVGID_3_" gradientUnits="userSpaceOnUse" x1="5.941" x2="153.811" y1="287.171" y2="287.171"><stop offset="0" stop-color="#ffdcbd"/><stop offset=".0028" stop-color="#ffdcbd"/><stop offset="1" stop-color="#ffa9b1"/></linearGradient><linearGradient id="SVGID_4_" gradientUnits="userSpaceOnUse" x1="40.5" x2="180.154" y1="459.408" y2="459.408"><stop offset="0" stop-color="#ffc2b5"/><stop offset="1" stop-color="#ff89a8"/></linearGradient><linearGradient id="lg2"><stop offset="0" stop-color="#ffe177"/><stop offset=".5725" stop-color="#feb137"/><stop offset="1" stop-color="#fe646f"/></linearGradient><linearGradient id="SVGID_5_" gradientUnits="userSpaceOnUse" x1="18.181" x2="451.211" xlink:href="#lg2" y1="268.114" y2="268.114"/><linearGradient id="SVGID_6_" gradientUnits="userSpaceOnUse" x1="8.61" x2="421.913" xlink:href="#lg2" y1="268.117" y2="268.117"/><linearGradient id="lg3"><stop offset="0" stop-color="#537983"/><stop offset="1" stop-color="#384949"/></linearGradient><linearGradient id="SVGID_7_" gradientUnits="userSpaceOnUse" x1="0" x2="353.26" xlink:href="#lg3" y1="501.691" y2="501.691"/><linearGradient id="SVGID_8_" gradientUnits="userSpaceOnUse" x1="-17.729" x2="386.053" xlink:href="#lg2" y1="271.379" y2="271.379"/><linearGradient id="SVGID_9_" gradientUnits="userSpaceOnUse" x1="-15" x2="52.766" y1="473.114" y2="473.114"><stop offset="0" stop-color="#537983"/><stop offset="1" stop-color="#3e5959"/></linearGradient><linearGradient id="SVGID_10_" gradientUnits="userSpaceOnUse" x1="14.532" x2="329.997" xlink:href="#lg2" y1="148.737" y2="148.737"/><linearGradient id="SVGID_11_" gradientUnits="userSpaceOnUse" x1="-46.5" x2="29.699" xlink:href="#lg3" y1="487.789" y2="487.789"/><linearGradient id="lg4"><stop offset="0" stop-color="#f9f3f1"/><stop offset=".5725" stop-color="#efe2dd"/><stop offset="1" stop-color="#cdbfba"/></linearGradient><linearGradient id="SVGID_12_" gradientUnits="userSpaceOnUse" x1="302" x2="473.143" xlink:href="#lg4" y1="121.481" y2="121.481"/><linearGradient id="SVGID_13_" gradientUnits="userSpaceOnUse" x1="281.231" x2="436.511" xlink:href="#lg4" y1="121.481" y2="121.481"/><g><path d="m451.478 173.338 39.973-39.973c24.731-24.731 24.731-64.829 0-89.56l-24.426-24.426c-24.731-24.731-64.828-24.731-89.56 0l-39.973 39.973z" fill="url(#SVGID_1_)"/><path d="m491.451 43.805-24.426-24.426c-17.527-17.527-42.767-22.617-64.79-15.301 9.053 3.007 17.565 8.097 24.77 15.301l24.426 24.426c24.731 24.731 24.731 64.829 0 89.56l-19.963 19.963 20.01 20.01 39.973-39.973c24.731-24.731 24.731-64.829 0-89.56z" fill="url(#SVGID_2_)"/><g><path d="m317.171 79.67-261.597 261.597c-6.463 6.463-11.039 14.567-13.234 23.439l-25.532 103.174c-3.904 15.775 10.365 30.044 26.141 26.141l103.173-25.531c8.872-2.195 16.976-6.771 23.439-13.234l261.597-261.597z" fill="url(#SVGID_3_)"/><path d="m180.66 444.159-11.1 11.1c-6.46 6.46-14.57 11.04-23.44 13.23l-103.17 25.53c-7.53 1.86-14.71-.42-19.74-5.02l82.89-20.51c8.87-2.19 16.98-6.77 23.44-13.23l31.11-31.11z" fill="url(#SVGID_4_)"/><path d="m169.56 455.256c-.078.078-.155.155-.234.232-1.583 1.563-4.197 1.383-5.557-.377-1.404-1.817-2.94-3.566-4.608-5.234-7.53-7.53-16.725-12.373-26.399-14.537-4.547-1.017-8.114-4.584-9.131-9.131-2.164-9.674-7.007-18.87-14.537-26.399-7.53-7.53-16.725-12.373-26.399-14.537-4.547-1.017-8.114-4.584-9.131-9.131-2.164-9.674-7.007-18.87-14.537-26.399-1.061-1.061-2.152-2.067-3.271-3.021-1.642-1.398-1.737-3.898-.212-5.423l.03-.03 261.597-261.595 113.985 113.986z" fill="url(#SVGID_5_)"/><path d="m317.171 79.67-26.055 26.059 80.514 80.514c7.435 7.435 7.435 19.489 0 26.923l-226.55 226.551c5.081 2.537 9.845 5.923 14.082 10.16 1.675 1.675 3.218 3.432 4.627 5.259 1.357 1.759 3.957 1.913 5.538.352.078-.077.156-.154.233-.232l261.599-261.598z" fill="url(#SVGID_6_)"/><path d="m345.782 509.168h-338.305c-4.13 0-7.477-3.348-7.477-7.477 0-4.13 3.348-7.477 7.477-7.477h338.305c4.13 0 7.477 3.348 7.477 7.477.001 4.13-3.347 7.477-7.477 7.477z" fill="url(#SVGID_7_)"/><path d="m397.875 160.378-49.347-49.347-271.349 271.348c1.528 1.405 3.415 2.425 5.517 2.895 9.674 2.164 18.87 7.007 26.399 14.537s12.373 16.725 14.537 26.399c.47 2.102 1.49 3.989 2.895 5.517z" fill="url(#SVGID_8_)"/><path d="m45.517 463.389c-6.909-6.909-15.658-10.846-24.669-11.832l-4.039 16.323c-3.904 15.775 10.365 30.044 26.141 26.141l14.595-3.612c-.514-9.83-4.52-19.512-12.028-27.02z" fill="url(#SVGID_9_)"/><path d="m322.473 137.085 49.157 49.157c.064.064.117.135.181.2l26.064-26.064-23.711-23.711-25.636-25.636z" fill="url(#SVGID_10_)"/><path d="m42.949 494.02 14.595-3.612c-.167-3.207-.713-6.396-1.625-9.501l-32.707 8.094c.001.001.001.001.001.001 5.032 4.601 12.21 6.881 19.736 5.018z" fill="url(#SVGID_11_)"/></g><path d="m421.599 196.196-108.889-108.89c-5.568-5.568-5.568-14.596 0-20.164l20.377-20.377c5.568-5.568 14.596-5.568 20.164 0l108.89 108.89c5.568 5.568 5.568 14.596 0 20.164l-20.377 20.377c-5.569 5.568-14.597 5.568-20.165 0z" fill="url(#SVGID_12_)"/><path d="m462.14 155.655-108.89-108.889c-5.568-5.568-14.596-5.568-20.164 0l-9.928 9.928 98.961 98.962c5.568 5.568 5.568 14.596 0 20.164l-10.449 10.449 9.928 9.928c5.568 5.568 14.596 5.568 20.164 0l20.377-20.377c5.569-5.569 5.569-14.597.001-20.165z" fill="url(#SVGID_13_)"/></g></svg>