<svg id="Capa_1" enable-background="new 0 0 510 510" height="512" viewBox="0 0 510 510" width="512" xmlns="http://www.w3.org/2000/svg" xmlns:xlink="http://www.w3.org/1999/xlink"><linearGradient id="lg1"><stop offset="0" stop-color="#7acaa6"/><stop offset=".5725" stop-color="#09a76d"/><stop offset="1" stop-color="#026841"/></linearGradient><linearGradient id="SVGID_1_" gradientUnits="userSpaceOnUse" x1="-229.385" x2="357.676" xlink:href="#lg1" y1="255" y2="255"/><linearGradient id="SVGID_2_" gradientUnits="userSpaceOnUse" x1="-21.5" x2="105.568" xlink:href="#lg1" y1="394.271" y2="394.271"/><linearGradient id="SVGID_3_" gradientUnits="userSpaceOnUse" x1="-49" x2="200.813" xlink:href="#lg1" y1="131.592" y2="131.592"/><linearGradient id="SVGID_4_" gradientUnits="userSpaceOnUse" x1="367" x2="480.864" y1="255" y2="255"><stop offset="0" stop-color="#026841"/><stop offset="1" stop-color="#384949"/></linearGradient><linearGradient id="lg2"><stop offset="0" stop-color="#ffe177"/><stop offset=".5725" stop-color="#feb137"/><stop offset="1" stop-color="#fe646f"/></linearGradient><linearGradient id="SVGID_5_" gradientUnits="userSpaceOnUse" x1="-7.396" x2="592.008" xlink:href="#lg2" y1="255" y2="255"/><linearGradient id="SVGID_6_" gradientUnits="userSpaceOnUse" x1="-5.5" x2="177.708" xlink:href="#lg2" y1="406.178" y2="406.178"/><linearGradient id="SVGID_7_" gradientUnits="userSpaceOnUse" x1="265" x2="493.316" xlink:href="#lg2" y1="255" y2="255"/><linearGradient id="SVGID_8_" gradientUnits="userSpaceOnUse" x1="-8" x2="73.499" xlink:href="#lg2" y1="255" y2="255"/><linearGradient id="lg3"><stop offset="0" stop-color="#f9f3f1"/><stop offset=".5725" stop-color="#efe2dd"/><stop offset="1" stop-color="#cdbfba"/></linearGradient><linearGradient id="SVGID_9_" gradientUnits="userSpaceOnUse" x1="98.778" x2="470.678" xlink:href="#lg3" y1="254.348" y2="254.348"/><linearGradient id="SVGID_10_" gradientUnits="userSpaceOnUse" x1="98.778" x2="470.678" xlink:href="#lg3" y1="255" y2="255"/><linearGradient id="SVGID_11_" gradientUnits="userSpaceOnUse" x1="98.778" x2="470.678" xlink:href="#lg3" y1="255.652" y2="255.652"/><linearGradient id="SVGID_12_" gradientUnits="userSpaceOnUse" x1="289.333" x2="352.698" xlink:href="#lg3" y1="296.313" y2="296.313"/><linearGradient id="SVGID_13_" gradientUnits="userSpaceOnUse" x1="289.333" x2="352.698" xlink:href="#lg3" y1="213.464" y2="213.464"/><linearGradient id="SVGID_14_" gradientUnits="userSpaceOnUse" x1="63.5" x2="158.607" xlink:href="#lg2" y1="115.81" y2="115.81"/><linearGradient id="SVGID_15_" gradientUnits="userSpaceOnUse" x1="85.5" x2="197.902" xlink:href="#lg3" y1="121.579" y2="121.579"/><linearGradient id="SVGID_16_" gradientUnits="userSpaceOnUse" x1="80" x2="176.13" y1="388" y2="388"><stop offset="0" stop-color="#ffdcbd"/><stop offset=".0028" stop-color="#ffdcbd"/><stop offset="1" stop-color="#ffa9b1"/></linearGradient><linearGradient id="SVGID_17_" gradientUnits="userSpaceOnUse" x1="98" x2="181.744" y1="388" y2="388"><stop offset="0" stop-color="#ffc2b5"/><stop offset="1" stop-color="#ff89a8"/></linearGradient><linearGradient id="lg4"><stop offset="0" stop-color="#fe646f"/><stop offset=".5725" stop-color="#fb2b3a"/><stop offset="1" stop-color="#c41926"/></linearGradient><linearGradient id="SVGID_18_" gradientUnits="userSpaceOnUse" x1="67" x2="244.406" xlink:href="#lg4" y1="409.07" y2="409.07"/><linearGradient id="SVGID_19_" gradientUnits="userSpaceOnUse" x1="54.5" x2="186.274" xlink:href="#lg4" y1="409.07" y2="409.07"/><g><path d="m479.676 423.542h-449.352c-13.762 0-24.918-11.156-24.918-24.918v-287.248c0-13.762 11.156-24.918 24.918-24.918h449.352c13.762 0 24.918 11.156 24.918 24.918v287.247c0 13.762-11.156 24.919-24.918 24.919z" fill="url(#SVGID_1_)"/><path d="m151.344 389.07h-1.787v-12.372c0-6.461-5.237-11.698-11.698-11.698h-70.937c-6.461 0-11.698 5.237-11.698 11.698v12.372h-1.787c-4.222 0-7.645 3.423-7.645 7.645v24.71c0 .735.11 1.444.303 2.117h112.591c.194-.673.303-1.381.303-2.117v-24.71c0-4.222-3.423-7.645-7.645-7.645z" fill="url(#SVGID_2_)"/><path d="m143.827 155.341-33.336-33.336c-3.911-3.911-3.911-10.252 0-14.163s10.252-3.911 14.163 0l33.336 33.336c3.911 3.911 3.911 10.252 0 14.163s-10.252 3.911-14.163 0z" fill="url(#SVGID_3_)"/><path d="m454.69 126.71h-39.66c8.25 0 14.93 6.68 14.93 14.93v226.72c0 8.25-6.68 14.93-14.93 14.93h39.66c8.25 0 14.93-6.68 14.93-14.93v-226.72c0-8.25-6.68-14.93-14.93-14.93z" fill="url(#SVGID_4_)"/><path d="m484.4 80.93h-458.8c-14.14 0-25.6 11.46-25.6 25.6v296.94c0 14.14 11.46 25.6 25.6 25.6h458.8c14.14 0 25.6-11.46 25.6-25.6v-296.94c0-14.14-11.46-25.6-25.6-25.6zm-14.78 287.43c0 8.25-6.68 14.93-14.93 14.93h-399.38c-8.25 0-14.93-6.68-14.93-14.93v-226.72c0-8.25 6.68-14.93 14.93-14.93h399.38c8.25 0 14.93 6.68 14.93 14.93z" fill="url(#SVGID_5_)"/><path d="m158.989 421.425v-24.71c0-4.222-3.423-7.645-7.645-7.645h-1.787v-5.78h-94.247c-.029 0-.057-.004-.086-.004v5.784h-1.787c-4.222 0-7.645 3.423-7.645 7.645v24.71c0 4.222 3.423 7.645 7.645 7.645h97.908c4.221 0 7.644-3.423 7.644-7.645z" fill="url(#SVGID_6_)"/><path d="m484.4 80.93h-40.02c14.14 0 25.6 11.46 25.6 25.6v296.94c0 14.14-11.46 25.6-25.6 25.6h40.02c14.14 0 25.6-11.46 25.6-25.6v-296.94c0-14.14-11.46-25.6-25.6-25.6z" fill="url(#SVGID_7_)"/><path d="m40.38 368.36v-226.72c0-8.25 6.68-14.93 14.93-14.93h-25.011c-8.25 0-14.93 6.68-14.93 14.93v226.72c0 8.25 6.68 14.93 14.93 14.93h25.011c-8.25 0-14.93-6.68-14.93-14.93z" fill="url(#SVGID_8_)"/><g><path d="m156.05 185.519c-2.392-7.611-12.178-11.308-22.182-11.308-10.003 0-19.79 3.696-22.182 11.308l-40.449 132.656c-.217.869-.435 1.739-.435 2.392 0 8.047 12.396 13.918 21.747 13.918 5.437 0 9.786-1.739 11.091-6.307l7.394-27.184h45.886l7.394 27.184c1.305 4.567 5.654 6.307 11.091 6.307 9.351 0 21.747-5.871 21.747-13.918 0-.652-.217-1.522-.435-2.392zm-38.057 89.379 15.875-58.281 15.875 58.281z" fill="url(#SVGID_9_)"/><path d="m294.144 248.367c11.526-5.002 18.485-16.527 18.485-34.143 0-30.881-21.747-38.709-43.494-38.709h-44.581c-7.394 0-14.788 3.479-14.788 10.438v138.31c0 5.437 5.654 10.221 14.788 10.221h48.278c24.574 0 43.711-12.396 43.711-46.756v-4.566c0-21.747-9.133-29.793-22.399-34.795zm-50.67-43.276h22.834c8.264 0 12.396 7.611 12.396 15.223 0 7.395-4.132 15.006-12.396 15.006h-22.834zm39.144 79.81c0 13.918-6.524 20.008-17.397 20.008h-21.747v-43.494h21.747c10.874 0 17.397 5.22 17.397 20.007z" fill="url(#SVGID_10_)"/><path d="m422.018 274.246c-8.698 0-16.093 2.175-16.745 10.221-.652 8.481-1.739 21.747-19.137 21.747-12.613 0-19.79-6.959-19.79-21.747v-57.629c0-14.788 7.177-21.747 19.572-21.747 18.484 0 19.138 13.918 19.354 19.572.436 7.829 7.829 10.221 16.963 10.221 11.525 0 16.962-3.044 16.962-16.093 0-27.618-23.486-43.275-54.584-43.275-28.488 0-52.192 13.918-52.192 51.322v57.629c0 37.404 23.704 51.322 52.192 51.322 31.098 0 54.584-16.527 54.584-45.45.001-13.049-5.436-16.093-17.179-16.093z" fill="url(#SVGID_11_)"/></g><g><path d="m429.96 275.001v42.623c5.868-7.172 9.238-16.339 9.238-27.285 0-9.631-2.966-13.808-9.238-15.338z" fill="url(#SVGID_12_)"/><path d="m429.96 234.151c6.245-1.512 9.238-5.684 9.238-15.36 0-10.453-3.369-19.189-9.238-26.015z" fill="url(#SVGID_13_)"/></g><path d="m124.654 107.842c-3.911-3.911-10.252-3.911-14.163 0s-3.911 10.252 0 14.163l4.705 4.705h28.326z" fill="url(#SVGID_14_)"/><path d="m153.84 145.328-33.336-33.336c-3.911-3.911-3.911-10.252 0-14.163s10.252-3.911 14.163 0l33.336 33.336c3.911 3.911 3.911 10.252 0 14.163s-10.252 3.911-14.163 0z" fill="url(#SVGID_15_)"/><path d="m174.568 411h-94.333v-34.302c0-6.461 5.237-11.698 11.698-11.698h70.937c6.461 0 11.698 5.237 11.698 11.698z" fill="url(#SVGID_16_)"/><path d="m162.87 365h-25.011c6.461 0 11.698 5.237 11.698 11.698v34.302h25.011v-34.302c0-6.461-5.237-11.698-11.698-11.698z" fill="url(#SVGID_17_)"/><path d="m153.754 396.715c0 4.222-3.423 7.645-7.645 7.645h-37.415c-4.222 0-7.645-3.423-7.645-7.645 0-4.222-3.423-7.645-7.645-7.645h-14.957c-4.222 0-7.645 3.423-7.645 7.645v24.71c0 4.222 3.423 7.645 7.645 7.645h97.908c4.222 0 7.645-3.423 7.645-7.645v-24.71c0-4.222-3.423-7.645-7.645-7.645h-14.956c-4.222 0-7.645 3.423-7.645 7.645z" fill="url(#SVGID_18_)"/><path d="m176.355 389.07h-14.956c-1.927 0-3.683.719-5.027 1.895 1.601 1.401 2.617 3.455 2.617 5.75v24.71c0 4.222-3.423 7.645-7.645 7.645h25.011c4.222 0 7.645-3.423 7.645-7.645v-24.71c0-4.222-3.423-7.645-7.645-7.645z" fill="url(#SVGID_19_)"/></g></svg>