<svg id="Capa_1" enable-background="new 0 0 510 510" height="512" viewBox="0 0 510 510" width="512" xmlns="http://www.w3.org/2000/svg" xmlns:xlink="http://www.w3.org/1999/xlink"><linearGradient id="lg1"><stop offset="0" stop-color="#f9f3f1"/><stop offset=".5725" stop-color="#efe2dd"/><stop offset="1" stop-color="#cdbfba"/></linearGradient><linearGradient id="SVGID_1_" gradientTransform="matrix(1 0 0 -1 0 -1647.99)" gradientUnits="userSpaceOnUse" x1="81.117" x2="492.176" xlink:href="#lg1" y1="-1887.995" y2="-1887.995"/><linearGradient id="SVGID_2_" gradientTransform="matrix(1 0 0 -1 0 -1647.99)" gradientUnits="userSpaceOnUse" x1="148.802" x2="395.598" xlink:href="#lg1" y1="-1887.995" y2="-1887.995"/><linearGradient id="SVGID_3_" gradientTransform="matrix(1 0 0 -1 0 -1647.99)" gradientUnits="userSpaceOnUse" x1="315.105" x2="485.259" xlink:href="#lg1" y1="-1706.023" y2="-1706.023"/><linearGradient id="SVGID_4_" gradientUnits="userSpaceOnUse" x1=".257" x2="261.64" xlink:href="#lg1" y1="348.653" y2="348.653"/><linearGradient id="SVGID_5_" gradientUnits="userSpaceOnUse" x1="126.257" x2="196.606" xlink:href="#lg1" y1="440.322" y2="440.322"/><linearGradient id="SVGID_6_" gradientUnits="userSpaceOnUse" x1="38.257" x2="179.531" xlink:href="#lg1" y1="440.319" y2="440.319"/><linearGradient id="lg2"><stop offset="0" stop-color="#fe646f"/><stop offset=".5725" stop-color="#fb2b3a"/><stop offset="1" stop-color="#c41926"/></linearGradient><linearGradient id="SVGID_7_" gradientUnits="userSpaceOnUse" x1="56.257" x2="127.516" xlink:href="#lg2" y1="437.594" y2="437.594"/><linearGradient id="SVGID_8_" gradientUnits="userSpaceOnUse" x1="39.59" x2="118.889" xlink:href="#lg2" y1="404.228" y2="404.228"/><linearGradient id="lg3"><stop offset="0" stop-color="#6bd9e7"/><stop offset=".5725" stop-color="#26a6fe"/><stop offset="1" stop-color="#0172fb"/></linearGradient><linearGradient id="SVGID_9_" gradientUnits="userSpaceOnUse" x1="151.59" x2="241.013" xlink:href="#lg3" y1="440.319" y2="440.319"/><linearGradient id="SVGID_10_" gradientUnits="userSpaceOnUse" x1="111.257" x2="216.376" xlink:href="#lg3" y1="440.319" y2="440.319"/><linearGradient id="lg4"><stop offset="0" stop-color="#ffe177"/><stop offset=".5725" stop-color="#feb137"/><stop offset="1" stop-color="#fe646f"/></linearGradient><linearGradient id="SVGID_11_" gradientUnits="userSpaceOnUse" x1="48.928" x2="294.28" xlink:href="#lg4" y1="317.296" y2="317.296"/><linearGradient id="SVGID_12_" gradientUnits="userSpaceOnUse" x1="15.262" x2="253.91" xlink:href="#lg4" y1="317.296" y2="317.296"/><linearGradient id="SVGID_13_" gradientUnits="userSpaceOnUse" x1="48.257" x2="223.957" xlink:href="#lg4" y1="317.296" y2="317.296"/><linearGradient id="lg5"><stop offset="0" stop-color="#537983"/><stop offset="1" stop-color="#3e5959"/></linearGradient><linearGradient id="SVGID_14_" gradientTransform="matrix(1 0 0 -1 56.514 480.01)" gradientUnits="userSpaceOnUse" x1="100.366" x2="359.853" xlink:href="#lg5" y1="316.187" y2="316.187"/><linearGradient id="SVGID_15_" gradientTransform="matrix(1 0 0 -1 56.514 480.01)" gradientUnits="userSpaceOnUse" x1="102.44" x2="424.484" xlink:href="#lg5" y1="392.369" y2="392.369"/><linearGradient id="SVGID_16_" gradientTransform="matrix(1 0 0 -1 56.514 480.01)" gradientUnits="userSpaceOnUse" x1="81.575" x2="359.719" xlink:href="#lg5" y1="163.823" y2="163.823"/><linearGradient id="SVGID_17_" gradientTransform="matrix(1 0 0 -1 56.514 480.01)" gradientUnits="userSpaceOnUse" x1="81.575" x2="359.719" xlink:href="#lg5" y1="240.005" y2="240.005"/><linearGradient id="SVGID_18_" gradientTransform="matrix(1 0 0 -1 56.514 480.01)" gradientUnits="userSpaceOnUse" x1="81.575" x2="359.719" xlink:href="#lg5" y1="87.641" y2="87.641"/><g><g><path d="m344.673 0h-212.516c-14.57 0-26.381 11.811-26.381 26.381v427.248c0 14.57 11.811 26.381 26.381 26.381h302.201c14.57 0 26.381-11.811 26.381-26.381v-337.564z" fill="url(#SVGID_1_)"/><path d="m434.357 480.01h-40.02c14.57 0 26.381-11.811 26.381-26.381v-285.492c0-14.882-12.064-26.946-26.946-26.946h-50.87c-12.835 0-23.24-10.405-23.24-23.24v-117.951h25.011l116.066 116.065v337.564c-.001 14.57-11.812 26.381-26.382 26.381z" fill="url(#SVGID_2_)"/><path d="m344.673 0v92.825c0 12.835 10.405 23.24 23.24 23.24h92.825c0-64.101-51.964-116.065-116.065-116.065z" fill="url(#SVGID_3_)"/></g><path d="m249.939 382.677c15.161-17.531 24.333-40.385 24.333-65.381 0-55.228-44.772-100-100-100-26.507 0-50.601 10.318-68.497 27.15v209.183c0 14.57 11.811 26.381 26.381 26.381h10.809l12.152-12.152c9.074-9.074 23.787-9.074 32.862 0l12.152 12.152h49.808z" fill="url(#SVGID_4_)"/><path d="m162.968 467.858 38.003 38.003c8.841 8.841 23.957 2.579 23.957-9.923v-125.294h-151.333v119.846c0 12.503 15.116 18.764 23.957 9.923l32.555-32.555c9.074-9.074 23.787-9.074 32.861 0z" fill="url(#SVGID_5_)"/><path d="m224.927 370.64v125.3c0 12.5-15.12 18.76-23.96 9.92l-16.06-16.06v-54.04c-11.07 4.24-23.09 6.55-35.65 6.55-30.23 0-57.33-13.41-75.66-34.62v-37.05z" fill="url(#SVGID_6_)"/><path d="m73.597 370.64h45.93v107.8l-21.98 21.97c-8.84 8.84-23.95 2.58-23.95-9.92z" fill="url(#SVGID_7_)"/><path d="m119.527 437.816v-67.176h-45.93v37.05c12.053 13.946 27.898 24.519 45.93 30.126z" fill="url(#SVGID_8_)"/><path d="m224.927 370.64v125.3c0 12.5-15.12 18.76-23.96 9.92l-21.97-21.97v-113.25z" fill="url(#SVGID_9_)"/><path d="m184.907 435.76v54.04l16.06 16.06c8.84 8.84 23.96 2.58 23.96-9.92v-125.3h-45.93v67.145c1.994-.622 3.972-1.283 5.91-2.025z" fill="url(#SVGID_10_)"/><g><circle cx="149.262" cy="317.296" fill="url(#SVGID_11_)" r="100"/><path d="m149.262 217.296c-6.854 0-13.546.691-20.012 2.005 45.639 9.27 79.988 49.621 79.988 97.995s-34.349 88.725-79.988 97.995c6.466 1.313 13.158 2.005 20.012 2.005 55.228 0 100-44.771 100-100s-44.772-100-100-100z" fill="url(#SVGID_12_)"/></g><circle cx="149.262" cy="317.296" fill="url(#SVGID_13_)" r="59.995"/><g><path d="m412.372 181.591h-258.23c-3.239 0-5.865-2.626-5.865-5.865v-23.806c0-3.239 2.626-5.865 5.865-5.865h258.23c3.239 0 5.865 2.626 5.865 5.865v23.806c0 3.239-2.626 5.865-5.865 5.865z" fill="url(#SVGID_14_)"/><path d="m298.696 105.409h-144.554c-3.239 0-5.865-2.626-5.865-5.865v-23.806c0-3.239 2.626-5.865 5.865-5.865h144.554c3.239 0 5.865 2.626 5.865 5.865v23.806c0 3.239-2.626 5.865-5.865 5.865z" fill="url(#SVGID_15_)"/><path d="m412.372 333.955h-123.25c-3.239 0-5.865-2.626-5.865-5.865v-23.806c0-3.239 2.626-5.865 5.865-5.865h123.25c3.239 0 5.865 2.626 5.865 5.865v23.806c0 3.239-2.626 5.865-5.865 5.865z" fill="url(#SVGID_16_)"/><path d="m412.372 257.773h-123.25c-3.239 0-5.865-2.626-5.865-5.865v-23.806c0-3.239 2.626-5.865 5.865-5.865h123.25c3.239 0 5.865 2.626 5.865 5.865v23.806c0 3.239-2.626 5.865-5.865 5.865z" fill="url(#SVGID_17_)"/><path d="m412.372 410.137h-123.25c-3.239 0-5.865-2.626-5.865-5.865v-23.806c0-3.239 2.626-5.865 5.865-5.865h123.25c3.239 0 5.865 2.626 5.865 5.865v23.806c0 3.24-2.626 5.865-5.865 5.865z" fill="url(#SVGID_18_)"/></g></g></svg>