<svg id="Capa_1" enable-background="new 0 0 510 510" height="512" viewBox="0 0 510 510" width="512" xmlns="http://www.w3.org/2000/svg" xmlns:xlink="http://www.w3.org/1999/xlink"><linearGradient id="lg1"><stop offset="0" stop-color="#537983"/><stop offset="1" stop-color="#3e5959"/></linearGradient><linearGradient id="SVGID_1_" gradientUnits="userSpaceOnUse" x1="30" x2="524.569" xlink:href="#lg1" y1="141.596" y2="141.596"/><linearGradient id="SVGID_2_" gradientUnits="userSpaceOnUse" x1="30" x2="524.569" xlink:href="#lg1" y1="217.199" y2="217.199"/><linearGradient id="SVGID_3_" gradientUnits="userSpaceOnUse" x1="30" x2="524.569" xlink:href="#lg1" y1="292.802" y2="292.802"/><linearGradient id="SVGID_4_" gradientUnits="userSpaceOnUse" x1="30" x2="524.569" xlink:href="#lg1" y1="368.405" y2="368.405"/><linearGradient id="lg2"><stop offset="0" stop-color="#537983"/><stop offset="1" stop-color="#384949"/></linearGradient><linearGradient id="SVGID_5_" gradientUnits="userSpaceOnUse" x1="143.333" x2="346.92" xlink:href="#lg2" y1="141.6" y2="141.6"/><linearGradient id="SVGID_6_" gradientUnits="userSpaceOnUse" x1="143.333" x2="346.92" xlink:href="#lg2" y1="217.2" y2="217.2"/><linearGradient id="SVGID_7_" gradientUnits="userSpaceOnUse" x1="143.333" x2="346.92" xlink:href="#lg2" y1="292.8" y2="292.8"/><linearGradient id="SVGID_8_" gradientUnits="userSpaceOnUse" x1="143.333" x2="346.92" xlink:href="#lg2" y1="368.4" y2="368.4"/><linearGradient id="lg3"><stop offset="0" stop-color="#ffe177"/><stop offset=".5725" stop-color="#feb137"/><stop offset="1" stop-color="#fe646f"/></linearGradient><linearGradient id="SVGID_9_" gradientUnits="userSpaceOnUse" x1="-7.396" x2="592.008" xlink:href="#lg3" y1="255" y2="255"/><linearGradient id="SVGID_10_" gradientUnits="userSpaceOnUse" x1="265" x2="493.316" xlink:href="#lg3" y1="255" y2="255"/><linearGradient id="SVGID_11_" gradientUnits="userSpaceOnUse" x1="-8" x2="73.499" xlink:href="#lg3" y1="255" y2="255"/><linearGradient id="lg4"><stop offset="0" stop-color="#fe646f"/><stop offset=".5725" stop-color="#fb2b3a"/><stop offset="1" stop-color="#c41926"/></linearGradient><linearGradient id="SVGID_12_" gradientUnits="userSpaceOnUse" x1="80.892" x2="158.209" xlink:href="#lg4" y1="141.596" y2="141.596"/><linearGradient id="SVGID_13_" gradientUnits="userSpaceOnUse" x1="48.892" x2="155.212" xlink:href="#lg4" y1="143.296" y2="143.296"/><linearGradient id="SVGID_14_" gradientUnits="userSpaceOnUse" x1="154.999" x2="232.316" xlink:href="#lg4" y1="141.596" y2="141.596"/><linearGradient id="SVGID_15_" gradientUnits="userSpaceOnUse" x1="122.999" x2="229.319" xlink:href="#lg4" y1="143.296" y2="143.296"/><linearGradient id="SVGID_16_" gradientUnits="userSpaceOnUse" x1="360.999" x2="438.316" xlink:href="#lg4" y1="141.596" y2="141.596"/><linearGradient id="SVGID_17_" gradientUnits="userSpaceOnUse" x1="328.999" x2="435.319" xlink:href="#lg4" y1="143.296" y2="143.296"/><linearGradient id="SVGID_18_" gradientUnits="userSpaceOnUse" x1="154.999" x2="232.316" xlink:href="#lg4" y1="217.199" y2="217.199"/><linearGradient id="SVGID_19_" gradientUnits="userSpaceOnUse" x1="122.999" x2="229.319" xlink:href="#lg4" y1="218.899" y2="218.899"/><linearGradient id="SVGID_20_" gradientUnits="userSpaceOnUse" x1="290.332" x2="367.649" xlink:href="#lg4" y1="217.199" y2="217.199"/><linearGradient id="SVGID_21_" gradientUnits="userSpaceOnUse" x1="258.332" x2="364.652" xlink:href="#lg4" y1="218.899" y2="218.899"/><linearGradient id="SVGID_22_" gradientUnits="userSpaceOnUse" x1="232.364" x2="309.681" xlink:href="#lg4" y1="292.802" y2="292.802"/><linearGradient id="SVGID_23_" gradientUnits="userSpaceOnUse" x1="200.364" x2="306.684" xlink:href="#lg4" y1="294.502" y2="294.502"/><linearGradient id="SVGID_24_" gradientUnits="userSpaceOnUse" x1="360.999" x2="438.316" xlink:href="#lg4" y1="292.802" y2="292.802"/><linearGradient id="SVGID_25_" gradientUnits="userSpaceOnUse" x1="328.999" x2="435.319" xlink:href="#lg4" y1="294.502" y2="294.502"/><linearGradient id="SVGID_26_" gradientUnits="userSpaceOnUse" x1="80.892" x2="158.209" xlink:href="#lg4" y1="368.405" y2="368.405"/><linearGradient id="SVGID_27_" gradientUnits="userSpaceOnUse" x1="48.892" x2="155.212" xlink:href="#lg4" y1="370.105" y2="370.105"/><linearGradient id="SVGID_28_" gradientUnits="userSpaceOnUse" x1="154.999" x2="232.316" xlink:href="#lg4" y1="368.405" y2="368.405"/><linearGradient id="SVGID_29_" gradientUnits="userSpaceOnUse" x1="122.999" x2="229.319" xlink:href="#lg4" y1="370.105" y2="370.105"/><linearGradient id="SVGID_30_" gradientUnits="userSpaceOnUse" x1="229.109" x2="306.426" xlink:href="#lg4" y1="368.405" y2="368.405"/><linearGradient id="SVGID_31_" gradientUnits="userSpaceOnUse" x1="197.109" x2="303.429" xlink:href="#lg4" y1="370.105" y2="370.105"/><g><g><g><path d="m32.81 129.095h444.38v25h-444.38z" fill="url(#SVGID_1_)"/></g></g><g><g><path d="m32.81 204.698h444.38v25h-444.38z" fill="url(#SVGID_2_)"/></g></g><g><g><g><path d="m32.81 280.302h444.38v25h-444.38z" fill="url(#SVGID_3_)"/></g></g></g><g><g><g><path d="m32.81 355.905h444.38v25h-444.38z" fill="url(#SVGID_4_)"/></g></g></g><g><path d="m429.36 129.1h47.83v25h-47.83z" fill="url(#SVGID_5_)"/><path d="m429.36 204.7h47.83v25h-47.83z" fill="url(#SVGID_6_)"/><path d="m429.36 280.3h47.83v25h-47.83z" fill="url(#SVGID_7_)"/><path d="m429.36 355.9h47.83v25h-47.83z" fill="url(#SVGID_8_)"/></g><g><path d="m484.4 43.091h-458.8c-14.14 0-25.6 11.46-25.6 25.6v372.617c0 14.14 11.46 25.6 25.6 25.6h458.8c14.14 0 25.6-11.46 25.6-25.6v-372.617c0-14.14-11.46-25.6-25.6-25.6zm-14.78 363.108c0 8.25-6.68 14.93-14.93 14.93h-399.38c-8.25 0-14.93-6.68-14.93-14.93v-302.398c0-8.25 6.68-14.93 14.93-14.93h399.38c8.25 0 14.93 6.68 14.93 14.93z" fill="url(#SVGID_9_)"/><path d="m484.4 43.091h-40.02c14.14 0 25.6 11.46 25.6 25.6v372.617c0 14.14-11.46 25.6-25.6 25.6h40.02c14.14 0 25.6-11.46 25.6-25.6v-372.617c0-14.14-11.46-25.6-25.6-25.6z" fill="url(#SVGID_10_)"/><path d="m40.38 406.199v-302.398c0-8.25 6.68-14.93 14.93-14.93h-25.011c-8.25 0-14.93 6.68-14.93 14.93v302.398c0 8.25 6.68 14.93 14.93 14.93h25.011c-8.25 0-14.93-6.68-14.93-14.93z" fill="url(#SVGID_11_)"/></g><g><g><circle cx="114.945" cy="141.595" fill="url(#SVGID_12_)" r="37.053"/><path d="m152.002 141.595c0 20.46-16.59 37.05-37.06 37.05-12.68 0-23.87-6.37-30.54-16.08 1.51.16 3.05.24 4.6.24 23.8 0 43.1-19.3 43.1-43.1 0-4.08-.57-8.03-1.63-11.76 12.71 5.87 21.53 18.731 21.53 33.65z" fill="url(#SVGID_13_)"/></g><g><circle cx="189.052" cy="141.595" fill="url(#SVGID_14_)" r="37.053"/><path d="m226.108 141.595c0 20.46-16.59 37.05-37.06 37.05-12.68 0-23.87-6.37-30.54-16.08 1.51.16 3.05.24 4.6.24 23.8 0 43.1-19.3 43.1-43.1 0-4.08-.57-8.03-1.63-11.76 12.711 5.87 21.53 18.731 21.53 33.65z" fill="url(#SVGID_15_)"/></g><g><circle cx="395.052" cy="141.595" fill="url(#SVGID_16_)" r="37.053"/><path d="m432.108 141.595c0 20.46-16.59 37.05-37.06 37.05-12.68 0-23.87-6.37-30.54-16.08 1.51.16 3.05.24 4.6.24 23.8 0 43.1-19.3 43.1-43.1 0-4.08-.57-8.03-1.63-11.76 12.711 5.87 21.53 18.731 21.53 33.65z" fill="url(#SVGID_17_)"/></g></g><g><circle cx="189.052" cy="217.198" fill="url(#SVGID_18_)" r="37.053"/><path d="m226.108 217.198c0 20.46-16.59 37.05-37.06 37.05-12.68 0-23.87-6.37-30.54-16.08 1.51.16 3.05.24 4.6.24 23.8 0 43.1-19.3 43.1-43.1 0-4.08-.57-8.03-1.63-11.76 12.711 5.87 21.53 18.731 21.53 33.65z" fill="url(#SVGID_19_)"/></g><g><circle cx="324.385" cy="217.198" fill="url(#SVGID_20_)" r="37.053"/><path d="m361.442 217.198c0 20.46-16.59 37.05-37.06 37.05-12.68 0-23.87-6.37-30.54-16.08 1.51.16 3.05.24 4.6.24 23.8 0 43.1-19.3 43.1-43.1 0-4.08-.57-8.03-1.63-11.76 12.71 5.87 21.53 18.731 21.53 33.65z" fill="url(#SVGID_21_)"/></g><g><circle cx="266.417" cy="292.802" fill="url(#SVGID_22_)" r="37.053"/><path d="m303.473 292.802c0 20.46-16.59 37.05-37.06 37.05-12.68 0-23.87-6.37-30.54-16.08 1.51.16 3.05.24 4.6.24 23.8 0 43.1-19.3 43.1-43.1 0-4.08-.57-8.03-1.63-11.76 12.711 5.869 21.53 18.73 21.53 33.65z" fill="url(#SVGID_23_)"/></g><g><circle cx="395.052" cy="292.802" fill="url(#SVGID_24_)" r="37.053"/><path d="m432.108 292.802c0 20.46-16.59 37.05-37.06 37.05-12.68 0-23.87-6.37-30.54-16.08 1.51.16 3.05.24 4.6.24 23.8 0 43.1-19.3 43.1-43.1 0-4.08-.57-8.03-1.63-11.76 12.711 5.869 21.53 18.73 21.53 33.65z" fill="url(#SVGID_25_)"/></g><g><circle cx="114.945" cy="368.405" fill="url(#SVGID_26_)" r="37.053"/><path d="m152.002 368.405c0 20.46-16.59 37.05-37.06 37.05-12.68 0-23.87-6.37-30.54-16.08 1.51.16 3.05.24 4.6.24 23.8 0 43.1-19.3 43.1-43.1 0-4.08-.57-8.03-1.63-11.76 12.71 5.869 21.53 18.73 21.53 33.65z" fill="url(#SVGID_27_)"/></g><g><circle cx="189.052" cy="368.405" fill="url(#SVGID_28_)" r="37.053"/><path d="m226.108 368.405c0 20.46-16.59 37.05-37.06 37.05-12.68 0-23.87-6.37-30.54-16.08 1.51.16 3.05.24 4.6.24 23.8 0 43.1-19.3 43.1-43.1 0-4.08-.57-8.03-1.63-11.76 12.711 5.869 21.53 18.73 21.53 33.65z" fill="url(#SVGID_29_)"/></g><g><circle cx="263.162" cy="368.405" fill="url(#SVGID_30_)" r="37.053"/><path d="m300.218 368.405c0 20.46-16.59 37.05-37.06 37.05-12.68 0-23.87-6.37-30.54-16.08 1.51.16 3.05.24 4.6.24 23.8 0 43.1-19.3 43.1-43.1 0-4.08-.57-8.03-1.63-11.76 12.71 5.869 21.53 18.73 21.53 33.65z" fill="url(#SVGID_31_)"/></g></g></svg>