<svg id="Capa_1" enable-background="new 0 0 510 510" height="512" viewBox="0 0 510 510" width="512" xmlns="http://www.w3.org/2000/svg" xmlns:xlink="http://www.w3.org/1999/xlink"><linearGradient id="lg1"><stop offset="0" stop-color="#537983"/><stop offset="1" stop-color="#3e5959"/></linearGradient><linearGradient id="SVGID_1_" gradientUnits="userSpaceOnUse" x1="36" x2="372.63" xlink:href="#lg1" y1="226.859" y2="226.859"/><linearGradient id="lg2"><stop offset="0" stop-color="#537983"/><stop offset="1" stop-color="#384949"/></linearGradient><linearGradient id="SVGID_2_" gradientUnits="userSpaceOnUse" x1="173" x2="446.876" xlink:href="#lg2" y1="226.859" y2="226.859"/><linearGradient id="lg3"><stop offset="0" stop-color="#f9f3f1"/><stop offset=".5725" stop-color="#efe2dd"/><stop offset="1" stop-color="#cdbfba"/></linearGradient><linearGradient id="SVGID_3_" gradientUnits="userSpaceOnUse" x1="-1.792" x2="514.013" xlink:href="#lg3" y1="225.979" y2="225.979"/><linearGradient id="SVGID_4_" gradientUnits="userSpaceOnUse" x1="1.602" x2="539.627" xlink:href="#lg1" y1="401.699" y2="401.699"/><linearGradient id="SVGID_5_" gradientUnits="userSpaceOnUse" x1="253" x2="522.073" xlink:href="#lg2" y1="401.699" y2="401.699"/><linearGradient id="SVGID_6_" gradientUnits="userSpaceOnUse" x1="104" x2="265.009" y1="163.805" y2="163.805"><stop offset="0" stop-color="#6bd9e7"/><stop offset=".5725" stop-color="#26a6fe"/><stop offset="1" stop-color="#0172fb"/></linearGradient><linearGradient id="SVGID_7_" gradientUnits="userSpaceOnUse" x1="202" x2="350.054" xlink:href="#lg3" y1="225.979" y2="225.979"/><linearGradient id="SVGID_8_" gradientTransform="matrix(1 0 0 -1 0 301.386)" gradientUnits="userSpaceOnUse" x1="120.009" x2="397.184" xlink:href="#lg1" y1="-23.798" y2="-23.798"/><linearGradient id="SVGID_9_" gradientTransform="matrix(1 0 0 -1 0 301.386)" gradientUnits="userSpaceOnUse" x1="120.009" x2="397.184" xlink:href="#lg1" y1="52.384" y2="52.384"/><linearGradient id="SVGID_10_" gradientTransform="matrix(1 0 0 -1 0 301.386)" gradientUnits="userSpaceOnUse" x1="273.861" x2="551.036" xlink:href="#lg1" y1="128.566" y2="128.566"/><g><path d="m462.25 389.52h-414.5v-297.475c0-15.379 12.467-27.846 27.846-27.846h358.808c15.379 0 27.846 12.467 27.846 27.846z" fill="url(#SVGID_1_)"/><path d="m434.404 64.199h-40.02c15.379 0 27.846 12.467 27.846 27.846v297.475h40.02v-297.475c0-15.379-12.467-27.846-27.846-27.846z" fill="url(#SVGID_2_)"/><path d="m415.825 357.597h-321.65c-11.723 0-21.227-9.504-21.227-21.227v-220.783c0-11.723 9.504-21.227 21.227-21.227h321.651c11.723 0 21.227 9.504 21.227 21.227v220.783c0 11.723-9.504 21.227-21.228 21.227z" fill="url(#SVGID_3_)"/><g><path d="m510 389.519v24.36c0 17.629-14.291 31.92-31.92 31.92h-446.16c-17.629 0-31.92-14.291-31.92-31.92v-24.36c0-17.629 14.291-31.92 31.92-31.92h150.345c6.547 0 11.855 5.308 11.855 11.855 0 6.547 5.308 11.855 11.855 11.855h98.05c6.547 0 11.855-5.308 11.855-11.855 0-6.547 5.308-11.855 11.855-11.855h150.345c17.629 0 31.92 14.291 31.92 31.92z" fill="url(#SVGID_4_)"/><path d="m478.077 357.597h-41.025c17.63 0 31.923 14.292 31.923 31.923v24.359c0 17.63-14.292 31.923-31.923 31.923h41.025c17.63 0 31.923-14.292 31.923-31.923v-24.359c0-17.631-14.292-31.923-31.923-31.923z" fill="url(#SVGID_5_)"/></g><path d="m215.652 219.664h-88.565c-7.987 0-14.462-6.475-14.462-14.462v-82.795c0-7.987 6.475-14.462 14.462-14.462h88.565c7.987 0 14.462 6.475 14.462 14.462v82.795c-.001 7.987-6.476 14.462-14.462 14.462z" fill="url(#SVGID_6_)"/><path d="m437.053 336.37v-220.783c0-9.491-6.23-17.522-14.823-20.239v261.26c8.592-2.716 14.823-10.748 14.823-20.238z" fill="url(#SVGID_7_)"/><g><path d="m392.916 342.953h-275.832c-3.46 0-6.265-2.626-6.265-5.865v-23.806c0-3.239 2.805-5.865 6.265-5.865h275.833c3.46 0 6.265 2.626 6.265 5.865v23.806c-.001 3.239-2.806 5.865-6.266 5.865z" fill="url(#SVGID_8_)"/><path d="m392.916 266.77h-275.832c-3.46 0-6.265-2.626-6.265-5.865v-23.806c0-3.239 2.805-5.865 6.265-5.865h275.833c3.46 0 6.265 2.626 6.265 5.865v23.806c-.001 3.24-2.806 5.865-6.266 5.865z" fill="url(#SVGID_9_)"/><path d="m392.916 190.588h-121.98c-3.46 0-6.265-2.626-6.265-5.865v-23.806c0-3.239 2.805-5.865 6.265-5.865h121.98c3.46 0 6.265 2.626 6.265 5.865v23.806c0 3.239-2.805 5.865-6.265 5.865z" fill="url(#SVGID_10_)"/></g></g></svg>