<svg id="Capa_1" enable-background="new 0 0 510.001 510.001" height="512" viewBox="0 0 510.001 510.001" width="512" xmlns="http://www.w3.org/2000/svg" xmlns:xlink="http://www.w3.org/1999/xlink"><linearGradient id="lg1"><stop offset="0" stop-color="#ffe177"/><stop offset=".5725" stop-color="#feb137"/><stop offset="1" stop-color="#fe646f"/></linearGradient><linearGradient id="SVGID_1_" gradientUnits="userSpaceOnUse" x1="20.914" x2="558.964" xlink:href="#lg1" y1="254.999" y2="254.999"/><linearGradient id="SVGID_2_" gradientUnits="userSpaceOnUse" x1="147.66" x2="399.584" xlink:href="#lg1" y1="254.999" y2="254.999"/><linearGradient id="lg2"><stop offset="0" stop-color="#fe646f"/><stop offset=".5725" stop-color="#fb2b3a"/><stop offset="1" stop-color="#c41926"/></linearGradient><linearGradient id="SVGID_3_" gradientUnits="userSpaceOnUse" x1="-16.703" x2="592.813" xlink:href="#lg2" y1="116.341" y2="116.341"/><linearGradient id="SVGID_4_" gradientUnits="userSpaceOnUse" x1="-16.703" x2="592.813" xlink:href="#lg2" y1="77.136" y2="77.136"/><linearGradient id="SVGID_5_" gradientUnits="userSpaceOnUse" x1="-16.703" x2="592.813" xlink:href="#lg2" y1="200.042" y2="200.042"/><linearGradient id="SVGID_6_" gradientUnits="userSpaceOnUse" x1="-16.703" x2="592.813" xlink:href="#lg2" y1="163.436" y2="163.436"/><linearGradient id="SVGID_7_" gradientUnits="userSpaceOnUse" x1="-16.703" x2="592.813" xlink:href="#lg2" y1="393.657" y2="393.657"/><linearGradient id="SVGID_8_" gradientUnits="userSpaceOnUse" x1="-16.703" x2="592.813" xlink:href="#lg2" y1="309.956" y2="309.956"/><linearGradient id="SVGID_9_" gradientUnits="userSpaceOnUse" x1="-16.703" x2="592.813" xlink:href="#lg2" y1="432.861" y2="432.861"/><linearGradient id="SVGID_10_" gradientUnits="userSpaceOnUse" x1="-16.703" x2="592.813" xlink:href="#lg2" y1="346.561" y2="346.561"/><linearGradient id="SVGID_11_" gradientUnits="userSpaceOnUse" x1="-72.376" x2="492.941" xlink:href="#lg2" y1="43.212" y2="43.212"/><linearGradient id="SVGID_12_" gradientUnits="userSpaceOnUse" x1="-72.376" x2="492.941" xlink:href="#lg2" y1="163.436" y2="163.436"/><linearGradient id="SVGID_13_" gradientUnits="userSpaceOnUse" x1="-72.376" x2="492.941" xlink:href="#lg2" y1="467.168" y2="467.168"/><linearGradient id="SVGID_14_" gradientUnits="userSpaceOnUse" x1="-72.376" x2="492.941" xlink:href="#lg2" y1="341.12" y2="341.12"/><linearGradient id="SVGID_15_" gradientUnits="userSpaceOnUse" x1="-72.376" x2="492.941" xlink:href="#lg2" y1="424.804" y2="424.804"/><linearGradient id="SVGID_16_" gradientUnits="userSpaceOnUse" x1="-72.376" x2="492.941" xlink:href="#lg2" y1="132.66" y2="132.66"/><linearGradient id="SVGID_17_" gradientUnits="userSpaceOnUse" x1="-72.376" x2="492.941" xlink:href="#lg2" y1="143.236" y2="143.236"/><linearGradient id="SVGID_18_" gradientUnits="userSpaceOnUse" x1="-72.376" x2="492.941" xlink:href="#lg2" y1="222.183" y2="222.183"/><linearGradient id="SVGID_19_" gradientUnits="userSpaceOnUse" x1="-72.376" x2="492.941" xlink:href="#lg2" y1="296.492" y2="296.492"/><g><circle cx="254.999" cy="254.999" fill="url(#SVGID_1_)" r="248.787"/><path d="m279.303 502.598c55.345-5.401 109.225-29.291 151.615-71.68 97.157-97.157 97.157-254.681 0-351.838-42.39-42.39-96.271-66.28-151.615-71.68 110.076 28.572 191.359 128.585 191.359 247.599-.001 119.014-81.284 219.026-191.359 247.599z" fill="url(#SVGID_2_)"/><g><path d="m247.174 229.44c4.322 4.322 11.329 4.322 15.65 0l45.648-45.648c4.069-4.069 4.336-10.575.618-14.967-37.77-44.623-59.665-99.713-62.813-158.306-.334-6.222-5.698-10.982-11.909-10.483-50.72 4.078-100.454 23.218-141.932 57.436-5.055 4.17-5.461 11.769-.827 16.402z" fill="url(#SVGID_3_)"/><path d="m325.576 149.433c4.152 5.079 11.777 5.478 16.416.84l76.397-76.397c4.627-4.627 4.239-12.225-.809-16.389-39.227-32.367-85.84-51.247-133.689-56.653-6.894-.779-12.837 4.818-12.368 11.741 3.414 50.436 22.18 97.872 54.053 136.858z" fill="url(#SVGID_4_)"/><path d="m10.52 246.275c58.593 3.149 113.683 25.044 158.306 62.814 4.392 3.718 10.898 3.451 14.967-.618l45.648-45.648c4.322-4.322 4.322-11.328 0-15.65l-155.566-155.565c-4.634-4.634-12.232-4.228-16.402.827-34.218 41.478-53.358 91.212-57.437 141.932-.499 6.21 4.262 11.574 10.484 11.908z" fill="url(#SVGID_5_)"/><path d="m360.565 184.422c38.985 31.873 86.422 50.639 136.858 54.054 6.922.469 12.519-5.474 11.741-12.368-5.406-47.849-24.286-94.462-56.652-133.689-4.165-5.048-11.762-5.436-16.389-.809l-76.397 76.397c-4.639 4.638-4.24 12.262.839 16.415z" fill="url(#SVGID_6_)"/><path d="m262.824 280.557c-4.322-4.322-11.328-4.322-15.65 0l-45.648 45.648c-4.069 4.069-4.336 10.575-.618 14.967 37.77 44.623 59.665 99.713 62.814 158.306.334 6.222 5.698 10.982 11.909 10.483 50.72-4.078 100.454-23.218 141.932-57.436 5.055-4.17 5.461-11.769.827-16.402z" fill="url(#SVGID_7_)"/><path d="m499.479 263.722c-58.593-3.149-113.683-25.044-158.306-62.813-4.392-3.718-10.898-3.451-14.967.618l-45.648 45.648c-4.322 4.322-4.322 11.328 0 15.65l155.566 155.566c4.634 4.634 12.232 4.228 16.402-.827 34.217-41.478 53.358-91.212 57.436-141.932.499-6.212-4.262-11.576-10.483-11.91z" fill="url(#SVGID_8_)"/><path d="m184.422 360.565c-4.152-5.079-11.777-5.478-16.416-.84l-76.396 76.397c-4.627 4.627-4.239 12.225.809 16.389 39.227 32.366 85.84 51.246 133.689 56.652 6.894.779 12.837-4.818 12.368-11.74-3.415-50.436-22.181-97.873-54.054-136.858z" fill="url(#SVGID_9_)"/><path d="m149.433 325.576c-38.985-31.873-86.422-50.639-136.858-54.054-6.922-.469-12.519 5.474-11.741 12.368 5.406 47.849 24.286 94.462 56.652 133.689 4.165 5.047 11.762 5.436 16.389.809l76.397-76.397c4.639-4.638 4.24-12.263-.839-16.415z" fill="url(#SVGID_10_)"/></g><g><path d="m406.599 85.663 11.787-11.787c4.635-4.625 4.243-12.229-.803-16.392-39.234-32.362-85.841-51.242-133.693-56.649-4.434-.502-8.467 1.625-10.664 5.056 52.527 12.248 98.823 40.688 133.373 79.772z" fill="url(#SVGID_11_)"/><path d="m497.426 238.476c6.922.472 12.52-5.477 11.737-12.369-5.407-47.851-24.287-94.459-56.649-133.693-4.163-5.046-11.767-5.437-16.392-.803l-13.763 13.764c26.735 37.007 43.819 81.468 47.53 129.66 9.048 1.656 18.248 2.809 27.537 3.441z" fill="url(#SVGID_12_)"/><path d="m406.599 424.334c-36.114 40.859-85.089 70.092-140.585 81.347 2.207 2.859 5.748 4.594 9.62 4.284 50.72-4.083 100.448-23.223 141.929-57.442 5.056-4.163 5.457-11.767.823-16.402z" fill="url(#SVGID_13_)"/><path d="m499.482 263.726c-9.741-.522-19.381-1.565-28.891-3.11-.66 31.008-6.854 60.654-17.616 88.003-2.778-5.038-8.137-8.453-14.297-8.453-9.013 0-16.32 7.307-16.32 16.32s7.307 16.32 16.32 16.32c1.202 0 2.37-.139 3.499-.385-5.822 11.247-12.453 22.007-19.818 32.202l13.763 13.764c4.635 4.635 12.239 4.233 16.402-.823 34.218-41.481 53.359-91.208 57.442-141.929.491-6.211-4.264-11.578-10.484-11.909z" fill="url(#SVGID_14_)"/><circle cx="293.636" cy="424.804" fill="url(#SVGID_15_)" r="16.32"/><circle cx="222.182" cy="132.66" fill="url(#SVGID_16_)" r="16.32"/><circle cx="421.623" cy="143.236" fill="url(#SVGID_17_)" r="16.32"/><circle cx="123.68" cy="222.183" fill="url(#SVGID_18_)" r="16.32"/><circle cx="381.482" cy="296.492" fill="url(#SVGID_19_)" r="24.996"/></g></g></svg>