<svg id="Capa_1" enable-background="new 0 0 510 510" height="512" viewBox="0 0 510 510" width="512" xmlns="http://www.w3.org/2000/svg" xmlns:xlink="http://www.w3.org/1999/xlink"><linearGradient id="lg1"><stop offset="0" stop-color="#f9f3f1"/><stop offset=".5725" stop-color="#efe2dd"/><stop offset="1" stop-color="#cdbfba"/></linearGradient><linearGradient id="SVGID_1_" gradientUnits="userSpaceOnUse" x1="77.626" x2="555.095" xlink:href="#lg1" y1="269.988" y2="269.988"/><linearGradient id="lg2"><stop offset="0" stop-color="#7acaa6"/><stop offset=".5725" stop-color="#09a76d"/><stop offset="1" stop-color="#026841"/></linearGradient><linearGradient id="SVGID_2_" gradientUnits="userSpaceOnUse" x1="26" x2="233.964" xlink:href="#lg2" y1="336.515" y2="336.515"/><linearGradient id="SVGID_3_" gradientUnits="userSpaceOnUse" x1="54" x2="205.648" xlink:href="#lg2" y1="336.515" y2="336.515"/><linearGradient id="lg3"><stop offset="0" stop-color="#ffe177"/><stop offset=".5725" stop-color="#feb137"/><stop offset="1" stop-color="#fe646f"/></linearGradient><linearGradient id="SVGID_4_" gradientUnits="userSpaceOnUse" x1="57.321" x2="201.487" xlink:href="#lg3" y1="401.5" y2="401.5"/><linearGradient id="SVGID_5_" gradientUnits="userSpaceOnUse" x1="70" x2="176.8" xlink:href="#lg3" y1="401.5" y2="401.5"/><linearGradient id="SVGID_6_" gradientUnits="userSpaceOnUse" x1="85.017" x2="182.827" xlink:href="#lg3" y1="311.639" y2="311.639"/><linearGradient id="SVGID_7_" gradientUnits="userSpaceOnUse" x1="44.536" x2="179.035" xlink:href="#lg3" y1="313.789" y2="313.789"/><linearGradient id="SVGID_8_" gradientUnits="userSpaceOnUse" x1="243" x2="471.316" xlink:href="#lg1" y1="302.488" y2="302.488"/><linearGradient id="lg4"><stop offset="0" stop-color="#6bd9e7"/><stop offset=".5725" stop-color="#26a6fe"/><stop offset="1" stop-color="#0172fb"/></linearGradient><linearGradient id="SVGID_9_" gradientUnits="userSpaceOnUse" x1="-6" x2="557.006" xlink:href="#lg4" y1="129.943" y2="129.943"/><linearGradient id="SVGID_10_" gradientUnits="userSpaceOnUse" x1="255" x2="477.144" xlink:href="#lg4" y1="162.443" y2="162.443"/><linearGradient id="SVGID_11_" gradientUnits="userSpaceOnUse" x1="219.333" x2="298.229" xlink:href="#lg3" y1="88.105" y2="88.105"/><linearGradient id="lg5"><stop offset="0" stop-color="#537983"/><stop offset="1" stop-color="#3e5959"/></linearGradient><linearGradient id="SVGID_12_" gradientUnits="userSpaceOnUse" x1="233.718" x2="450.627" xlink:href="#lg5" y1="260.333" y2="260.333"/><linearGradient id="SVGID_13_" gradientUnits="userSpaceOnUse" x1="233.718" x2="450.627" xlink:href="#lg5" y1="336.515" y2="336.515"/><linearGradient id="SVGID_14_" gradientUnits="userSpaceOnUse" x1="235.13" x2="494.617" xlink:href="#lg5" y1="412.697" y2="412.697"/><g><path d="m484.4 128.418h-139.45c-12.84 0-24.2-8.25-28.23-20.44-8.57-25.88-32.96-44.56-61.72-44.56s-53.15 18.68-61.72 44.56c-4.03 12.19-15.39 20.44-28.23 20.44h-139.45c-14.14 0-25.6 11.46-25.6 25.6v296.94c0 14.14 11.46 25.6 25.6 25.6h458.8c14.14 0 25.6-11.46 25.6-25.6v-296.94c0-14.14-11.46-25.6-25.6-25.6zm-229.4 34.2c-18.89 0-34.2-15.31-34.2-34.2s15.31-34.2 34.2-34.2 34.2 15.31 34.2 34.2-15.31 34.2-34.2 34.2z" fill="url(#SVGID_1_)"/><g><path d="m178.657 437.986h-101.118c-13.018 0-23.572-10.553-23.572-23.572v-155.799c0-13.018 10.553-23.572 23.572-23.572h101.118c13.018 0 23.572 10.553 23.572 23.572v155.798c0 13.019-10.554 23.573-23.572 23.573z" fill="url(#SVGID_2_)"/><path d="m178.657 235.044h-25.708c13.018 0 23.572 10.553 23.572 23.572v155.798c0 13.018-10.553 23.572-23.572 23.572h25.708c13.018 0 23.572-10.553 23.572-23.572v-155.799c0-13.018-10.554-23.571-23.572-23.571z" fill="url(#SVGID_3_)"/><path d="m179.487 437.986h-102.778v-21.582c0-28.381 23.008-51.389 51.389-51.389 28.381 0 51.389 23.008 51.389 51.389z" fill="url(#SVGID_4_)"/><path d="m128.098 365.015c-4.314 0-8.502.539-12.506 1.54 22.336 5.586 38.883 25.782 38.883 49.849v21.582h25.011v-21.582c.001-28.382-23.007-51.389-51.388-51.389z" fill="url(#SVGID_5_)"/><g><circle cx="128.096" cy="311.639" fill="url(#SVGID_6_)" r="46.874"/><path d="m174.974 311.639c0 25.883-20.987 46.87-46.882 46.87-16.041 0-30.196-8.058-38.634-20.342 1.91.202 3.858.304 5.819.304 30.108 0 54.523-24.415 54.523-54.523 0-5.161-.721-10.158-2.062-14.877 16.078 7.425 27.236 23.694 27.236 42.568z" fill="url(#SVGID_7_)"/></g></g><path d="m484.4 128.418h-40.02c14.14 0 25.6 11.46 25.6 25.6v296.94c0 14.14-11.46 25.6-25.6 25.6h40.02c14.14 0 25.6-11.46 25.6-25.6v-296.94c0-14.14-11.46-25.6-25.6-25.6z" fill="url(#SVGID_8_)"/><path d="m484.4 128.418h-139.45c-12.84 0-24.2-8.25-28.23-20.44-8.57-25.88-32.96-44.56-61.72-44.56s-53.15 18.68-61.72 44.56c-4.03 12.19-15.39 20.44-28.23 20.44h-139.45c-14.14 0-25.6 11.46-25.6 25.6v42.449h510v-42.449c0-14.14-11.46-25.6-25.6-25.6zm-229.4 34.2c-18.89 0-34.2-15.31-34.2-34.2s15.31-34.2 34.2-34.2 34.2 15.31 34.2 34.2-15.31 34.2-34.2 34.2z" fill="url(#SVGID_9_)"/><path d="m469.98 154.018v42.449h40.02v-42.449c0-14.14-11.46-25.6-25.6-25.6h-40.02c14.14 0 25.6 11.46 25.6 25.6z" fill="url(#SVGID_10_)"/><path d="m228.908 116.676v-57.142c0-14.41 11.682-26.092 26.092-26.092 14.41 0 26.092 11.682 26.092 26.092v57.142c0 14.41-11.682 26.092-26.092 26.092-14.41 0-26.092-11.682-26.092-26.092z" fill="url(#SVGID_11_)"/><g><path d="m446.324 242.564h-213.933c-3.239 0-5.865 2.626-5.865 5.865v23.806c0 3.239 2.626 5.865 5.865 5.865h213.933c3.239 0 5.865-2.626 5.865-5.865v-23.806c0-3.239-2.625-5.865-5.865-5.865z" fill="url(#SVGID_12_)"/><path d="m446.324 318.747h-213.933c-3.239 0-5.865 2.626-5.865 5.865v23.806c0 3.239 2.626 5.865 5.865 5.865h213.933c3.239 0 5.865-2.626 5.865-5.865v-23.806c0-3.24-2.625-5.865-5.865-5.865z" fill="url(#SVGID_13_)"/><path d="m346.587 394.929h-114.196c-3.239 0-5.865 2.626-5.865 5.865v23.806c0 3.239 2.626 5.865 5.865 5.865h114.196c3.239 0 5.865-2.626 5.865-5.865v-23.806c0-3.239-2.625-5.865-5.865-5.865z" fill="url(#SVGID_14_)"/></g></g></svg>