<svg id="Capa_1" enable-background="new 0 0 510.343 510.343" height="512" viewBox="0 0 510.343 510.343" width="512" xmlns="http://www.w3.org/2000/svg" xmlns:xlink="http://www.w3.org/1999/xlink"><linearGradient id="lg1"><stop offset="0" stop-color="#f9f3f1"/><stop offset=".5725" stop-color="#efe2dd"/><stop offset="1" stop-color="#cdbfba"/></linearGradient><linearGradient id="SVGID_1_" gradientUnits="userSpaceOnUse" x1="120.509" x2="389.834" xlink:href="#lg1" y1="270.504" y2="270.504"/><linearGradient id="SVGID_2_" gradientUnits="userSpaceOnUse" x1="40.299" x2="403.284" xlink:href="#lg1" y1="270.501" y2="270.501"/><linearGradient id="lg2"><stop offset="0" stop-color="#6bd9e7"/><stop offset=".5725" stop-color="#26a6fe"/><stop offset="1" stop-color="#0172fb"/></linearGradient><linearGradient id="SVGID_3_" gradientUnits="userSpaceOnUse" x1="172.824" x2="338.577" xlink:href="#lg2" y1="26.092" y2="26.092"/><linearGradient id="SVGID_4_" gradientUnits="userSpaceOnUse" x1="122.171" x2="327.466" xlink:href="#lg2" y1="26.092" y2="26.092"/><linearGradient id="lg3"><stop offset="0" stop-color="#fff"/><stop offset="1" stop-color="#f9f3f1"/></linearGradient><linearGradient id="SVGID_5_" gradientUnits="userSpaceOnUse" x1="142.29" x2="355.334" xlink:href="#lg3" y1="307.158" y2="307.158"/><linearGradient id="lg4"><stop offset="0" stop-color="#f9f3f1"/><stop offset="1" stop-color="#efe2dd"/></linearGradient><linearGradient id="SVGID_6_" gradientUnits="userSpaceOnUse" x1="142.29" x2="355.334" xlink:href="#lg4" y1="305.748" y2="305.748"/><linearGradient id="SVGID_7_" gradientUnits="userSpaceOnUse" x1="134.794" x2="406.616" xlink:href="#lg2" y1="352.859" y2="352.859"/><linearGradient id="SVGID_8_" gradientUnits="userSpaceOnUse" x1="160.171" x2="357.174" xlink:href="#lg2" y1="352.859" y2="352.859"/><linearGradient id="SVGID_9_" gradientUnits="userSpaceOnUse" x1="140.171" x2="210.156" xlink:href="#lg3" y1="352.511" y2="352.511"/><linearGradient id="SVGID_10_" gradientUnits="userSpaceOnUse" x1="222.671" x2="240.747" xlink:href="#lg3" y1="352.511" y2="352.511"/><linearGradient id="SVGID_11_" gradientUnits="userSpaceOnUse" x1="253.26" x2="302.967" xlink:href="#lg3" y1="352.511" y2="352.511"/><linearGradient id="SVGID_12_" gradientUnits="userSpaceOnUse" x1="310.268" x2="370.171" xlink:href="#lg3" y1="352.859" y2="352.859"/><linearGradient id="SVGID_13_" gradientUnits="userSpaceOnUse" x1="299.671" x2="355.674" xlink:href="#lg4" y1="325.61" y2="325.61"/><linearGradient id="SVGID_14_" gradientUnits="userSpaceOnUse" x1="299.671" x2="355.674" xlink:href="#lg4" y1="374.651" y2="374.651"/><g><path d="m330.078 92.714v-62.048h-149.813v62.048c0 19.454-4.785 38.609-13.933 55.778l-10.073 18.905c-23.473 44.055-35.751 93.207-35.751 143.125v153.535c0 25.563 20.723 46.286 46.286 46.286h176.752c25.563 0 46.286-20.723 46.286-46.286v-153.536c0-49.918-12.278-99.07-35.751-143.125l-10.073-18.905c-9.146-17.168-13.93-36.323-13.93-55.777z" fill="url(#SVGID_1_)"/><path d="m354.081 167.391-10.07-18.9c-9.15-17.17-13.93-36.32-13.93-55.78v-62.05h-149.82v45.72c2.07.53 4.24.81 6.48.81h87.8c8.571 0 15.52 6.949 15.52 15.52 0 19.46 4.78 38.61 13.93 55.78l10.07 18.9c23.47 44.06 35.75 93.21 35.75 143.13v115.775h-229.302v27.969h219.517c5.404 0 9.786 4.381 9.786 9.786 0 25.57-20.72 46.29-46.28 46.29h40.02c25.56 0 46.28-20.72 46.28-46.29v-153.53c-.001-49.92-12.281-99.07-35.751-143.13z" fill="url(#SVGID_2_)"/><g><path d="m323.598 52.184h-136.854c-14.41 0-26.092-11.682-26.092-26.092 0-14.41 11.682-26.092 26.092-26.092h136.854c14.41 0 26.092 11.682 26.092 26.092 0 14.41-11.682 26.092-26.092 26.092z" fill="url(#SVGID_3_)"/><path d="m323.598 0h-40.02c14.41 0 26.092 11.682 26.092 26.092 0 14.41-11.682 26.092-26.092 26.092h40.02c14.41 0 26.092-11.682 26.092-26.092 0-14.41-11.682-26.092-26.092-26.092z" fill="url(#SVGID_4_)"/></g><path d="m370.171 316.181v131.11c0 21.832-17.698 39.53-39.53 39.53h-150.94c-21.832 0-39.53-17.698-39.53-39.53v-131.11c0-26.818 4.149-53.374 12.218-78.75 6.515-20.49 22.027-36.717 42.01-44.649 15.696-6.23 30.405-15.695 43.102-28.391 21.986-21.986 49.973-34.278 78.684-36.886 1.584-.144 2.956 1.085 2.956 2.676 0 16.61 4.08 32.97 11.89 47.63l8.61 16.15c20.04 37.62 30.53 79.59 30.53 122.22z" fill="url(#SVGID_5_)"/><path d="m339.641 193.961-8.61-16.15c-7.814-14.668-11.895-31.038-11.89-47.657 0-1.581-1.382-2.791-2.956-2.648-6.662.605-13.284 1.739-19.803 3.387 2.054 6.041 4.588 11.93 7.609 17.599l10.07 18.9c23.47 44.06 35.75 93.21 35.75 143.13v115.775h-209.64v20.995c0 2.381.222 4.709.626 6.974h199.229c5.404 0 9.786 4.381 9.786 9.786 0 7.144-1.62 13.909-4.509 19.95 14.57-5.825 24.869-20.06 24.869-36.71v-131.11c-.001-42.631-10.491-84.601-30.531-122.221z" fill="url(#SVGID_6_)"/><path d="m120.509 310.521v118.734h269.325v-118.734c0-11.41-.649-22.78-1.919-34.058h-265.487c-1.27 11.278-1.919 22.647-1.919 34.058z" fill="url(#SVGID_7_)"/><path d="m349.811 310.521v118.733h40.02v-118.733c0-11.411-.649-22.78-1.919-34.059h-40.02c1.27 11.279 1.919 22.649 1.919 34.059z" fill="url(#SVGID_8_)"/><g><path d="m180.957 364.851c-1.506 2.549-3.824 3.36-6.025 3.36-2.086 0-4.287-.695-5.678-3.36l-11.007-20.161v44.609c0 3.708-4.519 5.562-9.038 5.562s-9.038-1.854-9.038-5.562v-70.1c0-6.604 4.519-9.037 9.038-9.037 6.488 0 9.269.695 14.02 9.037l11.934 20.856 11.934-20.856c4.751-8.342 7.531-9.037 14.02-9.037 4.634 0 9.038 2.433 9.038 9.037v70.1c0 3.708-4.519 5.562-9.038 5.562s-9.038-1.854-9.038-5.562v-43.451z" fill="url(#SVGID_9_)"/><path d="m222.671 315.607c0-3.824 4.519-5.446 9.038-5.446s9.038 1.622 9.038 5.446v73.692c0 3.708-4.519 5.562-9.038 5.562s-9.038-1.854-9.038-5.562z" fill="url(#SVGID_10_)"/><path d="m261.139 394.861c-3.94 0-7.879-1.854-7.879-5.562v-73.692c0-3.824 4.519-5.446 9.038-5.446s9.038 1.622 9.038 5.446v63.496h26.418c3.476 0 5.214 3.939 5.214 7.879s-1.738 7.879-5.214 7.879z" fill="url(#SVGID_11_)"/><path d="m310.268 315.607c0-3.824 4.519-5.446 9.038-5.446s9.038 1.622 9.038 5.446v27.808l21.667-30.705c1.275-1.854 2.897-2.549 4.75-2.549 4.635 0 10.66 4.75 10.66 9.269 0 .927-.232 2.201-1.159 3.476l-19.002 23.869 23.984 36.73c.579.927.927 1.97.927 3.013 0 4.519-5.677 9.037-10.892 9.037-2.433 0-4.75-.927-6.257-3.36l-19.814-30.125-4.866 6.257v20.972c0 3.708-4.519 5.562-9.038 5.562s-9.038-1.854-9.038-5.562v-73.692z" fill="url(#SVGID_12_)"/></g><g><path d="m364.262 322.907c.927-1.274 1.159-2.549 1.159-3.476 0-4.519-6.025-9.269-10.66-9.269-1.854 0-3.476.695-4.75 2.549l-.199.282v28.066z" fill="url(#SVGID_13_)"/><path d="m359.28 395.556c5.214 0 10.891-4.518 10.891-9.037 0-1.043-.348-2.086-.927-3.013l-19.433-29.76v33.567l3.212 4.883c1.506 2.433 3.824 3.36 6.257 3.36z" fill="url(#SVGID_14_)"/></g></g></svg>