<svg id="Capa_1" enable-background="new 0 0 510.343 510.343" height="512" viewBox="0 0 510.343 510.343" width="512" xmlns="http://www.w3.org/2000/svg" xmlns:xlink="http://www.w3.org/1999/xlink"><linearGradient id="lg1"><stop offset="0" stop-color="#7acaa6"/><stop offset=".5725" stop-color="#09a76d"/><stop offset="1" stop-color="#026841"/></linearGradient><linearGradient id="SVGID_1_" gradientUnits="userSpaceOnUse" x1="136.171" x2="275.462" xlink:href="#lg1" y1="59.853" y2="59.853"/><linearGradient id="SVGID_2_" gradientUnits="userSpaceOnUse" x1="116.838" x2="251.5" xlink:href="#lg1" y1="80.348" y2="80.348"/><linearGradient id="SVGID_3_" gradientUnits="userSpaceOnUse" x1="142.171" x2="350.726" y1="71.895" y2="71.895"><stop offset="0" stop-color="#537983"/><stop offset="1" stop-color="#384949"/></linearGradient><linearGradient id="lg2"><stop offset="0" stop-color="#fe646f"/><stop offset=".5725" stop-color="#fb2b3a"/><stop offset="1" stop-color="#c41926"/></linearGradient><linearGradient id="SVGID_4_" gradientUnits="userSpaceOnUse" x1="2.869" x2="529.434" xlink:href="#lg2" y1="306.458" y2="306.458"/><linearGradient id="SVGID_5_" gradientUnits="userSpaceOnUse" x1="-39.277" x2="458.719" xlink:href="#lg2" y1="338.687" y2="338.687"/><linearGradient id="SVGID_6_" gradientUnits="userSpaceOnUse" x1="-39.277" x2="458.719" xlink:href="#lg2" y1="389.181" y2="389.181"/><linearGradient id="SVGID_7_" gradientUnits="userSpaceOnUse" x1="-39.277" x2="458.719" xlink:href="#lg2" y1="306.454" y2="306.454"/><g><path d="m169.19 85.981c17.55 17.55 39.106 28.65 61.725 33.304 14.128 2.907 26.743-9.708 23.836-23.836-4.655-22.619-15.754-44.174-33.304-61.725s-39.107-28.648-61.725-33.303c-14.128-2.907-26.743 9.708-23.836 23.836 4.654 22.618 15.754 44.174 33.304 61.724z" fill="url(#SVGID_1_)"/><path d="m248.951 114.011c-4.55 4.39-11.11 6.7-18.04 5.27-6.01-1.24-11.94-2.93-17.74-5.07-2.14-16.9-2.27-45.57 14.98-73.22 9.52 11.16 16.69 23.63 21.54 36.76 2.14 5.79 3.83 11.71 5.06 17.7 1.48 7.2-1.07 14.01-5.8 18.56z" fill="url(#SVGID_2_)"/><path d="m258.203 143.79c-8.426 0-15.848-6.094-17.246-14.679-.563-3.459-16.423-56.216 21.504-100.82 15.961-18.772 37.914-28.291 65.249-28.291 9.665 0 17.5 7.835 17.5 17.5s-7.835 17.5-17.5 17.5c-16.809 0-29.418 5.207-38.548 15.918-22.794 26.741-16.737 53.391-13.658 72.586 1.529 9.535-4.951 18.517-14.484 20.058-.946.154-1.888.228-2.817.228z" fill="url(#SVGID_3_)"/><path d="m335.134 102.573c-21.829.049-42.634 4.453-61.595 12.388-11.726 4.907-25.006 4.905-36.732-.002-18.94-7.925-39.72-12.328-61.523-12.386-89.825-.237-161.889 74.159-161.067 163.981 1.07 117.021 58.488 189.373 121.228 228.825 27.285 17.157 61.173 19.501 91.009 7.309 8.861-3.621 18.558-5.617 28.723-5.617 10.166 0 19.863 1.997 28.725 5.618 29.814 12.184 63.683 9.862 90.952-7.276 62.543-39.308 119.811-111.302 121.269-227.638 1.128-90.22-70.762-165.403-160.989-165.202z" fill="url(#SVGID_4_)"/><g><circle cx="346.691" cy="338.686" fill="url(#SVGID_5_)" r="20.215"/><circle cx="245.145" cy="389.181" fill="url(#SVGID_6_)" r="20.215"/><path d="m335.134 102.573c-6.677.015-13.258.442-19.72 1.248 80.467 10.112 141.731 80.615 140.687 163.954-.964 76.973-26.365 134.529-61.556 176.054.002-.146.011-.289.011-.435 0-18.8-15.24-34.04-34.04-34.04s-34.04 15.24-34.04 34.04c0 18.647 14.995 33.783 33.583 34.028-8.225 6.626-16.676 12.617-25.228 17.991-10.036 6.308-20.968 10.601-32.261 12.91 24.694 4.975 50.577.731 72.281-12.91 62.542-39.308 119.812-111.302 121.269-227.638 1.131-90.22-70.759-165.403-160.986-165.202z" fill="url(#SVGID_7_)"/></g></g></svg>