<svg id="Capa_1" enable-background="new 0 0 510.171 510.171" height="512" viewBox="0 0 510.171 510.171" width="512" xmlns="http://www.w3.org/2000/svg" xmlns:xlink="http://www.w3.org/1999/xlink"><linearGradient id="lg1"><stop offset="0" stop-color="#537983"/><stop offset="1" stop-color="#3e5959"/></linearGradient><linearGradient id="SVGID_1_" gradientUnits="userSpaceOnUse" x1="-.788" x2="42.956" xlink:href="#lg1" y1="495.671" y2="495.671"/><linearGradient id="SVGID_2_" gradientUnits="userSpaceOnUse" x1="114.759" x2="158.503" xlink:href="#lg1" y1="495.671" y2="495.671"/><linearGradient id="SVGID_3_" gradientUnits="userSpaceOnUse" x1="169.212" x2="212.956" xlink:href="#lg1" y1="495.671" y2="495.671"/><linearGradient id="SVGID_4_" gradientUnits="userSpaceOnUse" x1="284.759" x2="328.503" xlink:href="#lg1" y1="495.671" y2="495.671"/><linearGradient id="SVGID_5_" gradientUnits="userSpaceOnUse" x1="339.212" x2="382.956" xlink:href="#lg1" y1="495.671" y2="495.671"/><linearGradient id="SVGID_6_" gradientUnits="userSpaceOnUse" x1="454.759" x2="498.503" xlink:href="#lg1" y1="495.671" y2="495.671"/><linearGradient id="lg2"><stop offset="0" stop-color="#f9f3f1"/><stop offset=".5725" stop-color="#efe2dd"/><stop offset="1" stop-color="#cdbfba"/></linearGradient><linearGradient id="SVGID_7_" gradientUnits="userSpaceOnUse" x1="-25.265" x2="218.097" xlink:href="#lg2" y1="245.203" y2="245.203"/><linearGradient id="SVGID_8_" gradientUnits="userSpaceOnUse" x1="-45.914" x2="173.314" xlink:href="#lg2" y1="245.203" y2="245.203"/><linearGradient id="lg3"><stop offset="0" stop-color="#6bd9e7"/><stop offset=".5725" stop-color="#26a6fe"/><stop offset="1" stop-color="#0172fb"/></linearGradient><linearGradient id="SVGID_9_" gradientUnits="userSpaceOnUse" x1="-8.743" x2="198.182" xlink:href="#lg3" y1="245.203" y2="245.203"/><linearGradient id="SVGID_10_" gradientUnits="userSpaceOnUse" x1="37.086" x2="152.125" xlink:href="#lg3" y1="245.203" y2="245.203"/><linearGradient id="lg4"><stop offset="0" stop-color="#ffe177"/><stop offset=".5725" stop-color="#feb137"/><stop offset="1" stop-color="#fe646f"/></linearGradient><linearGradient id="SVGID_11_" gradientUnits="userSpaceOnUse" x1="29.71" x2="87.627" xlink:href="#lg4" y1="255" y2="255"/><linearGradient id="SVGID_12_" gradientUnits="userSpaceOnUse" x1="5.739" x2="85.381" xlink:href="#lg4" y1="256.273" y2="256.273"/><linearGradient id="SVGID_13_" gradientUnits="userSpaceOnUse" x1="-22.414" x2="119.095" xlink:href="#lg3" y1="70.654" y2="70.654"/><linearGradient id="SVGID_14_" gradientUnits="userSpaceOnUse" x1="-22.414" x2="119.095" xlink:href="#lg3" y1="104.154" y2="104.154"/><linearGradient id="SVGID_15_" gradientUnits="userSpaceOnUse" x1="-22.414" x2="119.095" xlink:href="#lg3" y1="137.654" y2="137.654"/><linearGradient id="SVGID_16_" gradientUnits="userSpaceOnUse" x1="-22.414" x2="119.095" xlink:href="#lg3" y1="386.253" y2="386.253"/><linearGradient id="SVGID_17_" gradientUnits="userSpaceOnUse" x1="-22.414" x2="119.095" xlink:href="#lg3" y1="419.753" y2="419.753"/><linearGradient id="SVGID_18_" gradientUnits="userSpaceOnUse" x1="144.735" x2="388.097" xlink:href="#lg2" y1="245.203" y2="245.203"/><linearGradient id="SVGID_19_" gradientUnits="userSpaceOnUse" x1="124.086" x2="343.314" xlink:href="#lg2" y1="245.203" y2="245.203"/><linearGradient id="SVGID_20_" gradientUnits="userSpaceOnUse" x1="161.257" x2="368.182" xlink:href="#lg3" y1="245.203" y2="245.203"/><linearGradient id="SVGID_21_" gradientUnits="userSpaceOnUse" x1="207.086" x2="322.125" xlink:href="#lg3" y1="245.203" y2="245.203"/><linearGradient id="SVGID_22_" gradientUnits="userSpaceOnUse" x1="199.71" x2="257.627" xlink:href="#lg4" y1="255" y2="255"/><linearGradient id="SVGID_23_" gradientUnits="userSpaceOnUse" x1="175.739" x2="255.381" xlink:href="#lg4" y1="256.273" y2="256.273"/><linearGradient id="SVGID_24_" gradientUnits="userSpaceOnUse" x1="147.586" x2="289.095" xlink:href="#lg3" y1="70.654" y2="70.654"/><linearGradient id="SVGID_25_" gradientUnits="userSpaceOnUse" x1="147.586" x2="289.095" xlink:href="#lg3" y1="104.154" y2="104.154"/><linearGradient id="SVGID_26_" gradientUnits="userSpaceOnUse" x1="147.586" x2="289.095" xlink:href="#lg3" y1="137.654" y2="137.654"/><linearGradient id="SVGID_27_" gradientUnits="userSpaceOnUse" x1="147.586" x2="289.095" xlink:href="#lg3" y1="386.253" y2="386.253"/><linearGradient id="SVGID_28_" gradientUnits="userSpaceOnUse" x1="147.586" x2="289.095" xlink:href="#lg3" y1="419.753" y2="419.753"/><linearGradient id="SVGID_29_" gradientUnits="userSpaceOnUse" x1="314.735" x2="558.097" xlink:href="#lg2" y1="245.203" y2="245.203"/><linearGradient id="SVGID_30_" gradientUnits="userSpaceOnUse" x1="294.086" x2="513.314" xlink:href="#lg2" y1="245.203" y2="245.203"/><linearGradient id="SVGID_31_" gradientUnits="userSpaceOnUse" x1="331.257" x2="538.182" xlink:href="#lg3" y1="245.203" y2="245.203"/><linearGradient id="SVGID_32_" gradientUnits="userSpaceOnUse" x1="377.086" x2="492.125" xlink:href="#lg3" y1="245.203" y2="245.203"/><linearGradient id="SVGID_33_" gradientUnits="userSpaceOnUse" x1="369.71" x2="427.627" xlink:href="#lg4" y1="255" y2="255"/><linearGradient id="SVGID_34_" gradientUnits="userSpaceOnUse" x1="345.739" x2="425.381" xlink:href="#lg4" y1="256.273" y2="256.273"/><linearGradient id="SVGID_35_" gradientUnits="userSpaceOnUse" x1="317.586" x2="459.095" xlink:href="#lg3" y1="70.654" y2="70.654"/><linearGradient id="SVGID_36_" gradientUnits="userSpaceOnUse" x1="317.586" x2="459.095" xlink:href="#lg3" y1="104.154" y2="104.154"/><linearGradient id="SVGID_37_" gradientUnits="userSpaceOnUse" x1="317.586" x2="459.095" xlink:href="#lg3" y1="137.654" y2="137.654"/><linearGradient id="SVGID_38_" gradientUnits="userSpaceOnUse" x1="317.586" x2="459.095" xlink:href="#lg3" y1="386.253" y2="386.253"/><linearGradient id="SVGID_39_" gradientUnits="userSpaceOnUse" x1="317.586" x2="459.095" xlink:href="#lg3" y1="419.753" y2="419.753"/><g><g><path d="m32.133 510.171h-9.641c-5.346 0-9.68-4.334-9.68-9.68v-19.32h29v19.32c0 5.347-4.334 9.68-9.679 9.68z" fill="url(#SVGID_1_)"/><path d="m147.679 510.171h-9.641c-5.346 0-9.68-4.334-9.68-9.68v-19.32h29v19.32c.001 5.347-4.333 9.68-9.679 9.68z" fill="url(#SVGID_2_)"/></g><g><path d="m202.133 510.171h-9.641c-5.346 0-9.68-4.334-9.68-9.68v-19.32h29v19.32c0 5.347-4.334 9.68-9.679 9.68z" fill="url(#SVGID_3_)"/><path d="m317.679 510.171h-9.641c-5.346 0-9.68-4.334-9.68-9.68v-19.32h29v19.32c.001 5.347-4.333 9.68-9.679 9.68z" fill="url(#SVGID_4_)"/></g><g><path d="m372.133 510.171h-9.641c-5.346 0-9.68-4.334-9.68-9.68v-19.32h29v19.32c0 5.347-4.334 9.68-9.679 9.68z" fill="url(#SVGID_5_)"/><path d="m487.679 510.171h-9.641c-5.346 0-9.68-4.334-9.68-9.68v-19.32h29v19.32c.001 5.347-4.333 9.68-9.679 9.68z" fill="url(#SVGID_6_)"/></g><g><path d="m147.138 490.406h-124.105c-12.673 0-22.947-10.274-22.947-22.947v-444.512c0-12.673 10.273-22.947 22.947-22.947h124.106c12.673 0 22.947 10.274 22.947 22.947v444.512c0 12.674-10.274 22.947-22.948 22.947z" fill="url(#SVGID_7_)"/><path d="m147.138 0h-40.02c12.673 0 22.947 10.274 22.947 22.947v444.512c0 12.673-10.274 22.947-22.947 22.947h40.02c12.673 0 22.947-10.274 22.947-22.947v-444.512c.001-12.673-10.273-22.947-22.947-22.947z" fill="url(#SVGID_8_)"/><path d="m136.855 474.859h-103.538c-11.324 0-20.505-9.18-20.505-20.505v-418.303c0-11.324 9.18-20.505 20.505-20.505h103.538c11.324 0 20.505 9.18 20.505 20.505v418.304c-.001 11.324-9.181 20.504-20.505 20.504z" fill="url(#SVGID_9_)"/><path d="m136.855 15.547h-8.016c.791 2.323 1.227 4.81 1.227 7.4v444.512c0 2.59-.436 5.078-1.227 7.4h8.016c11.324 0 20.505-9.18 20.505-20.505v-418.303c-.001-11.324-9.181-20.504-20.505-20.504z" fill="url(#SVGID_10_)"/><g><circle cx="55.218" cy="255" fill="url(#SVGID_11_)" r="27.756"/><path d="m82.977 255c0 15.326-12.427 27.753-27.761 27.753-9.498 0-17.881-4.772-22.877-12.045 1.131.12 2.285.18 3.446.18 17.828 0 32.285-14.457 32.285-32.285 0-3.056-.427-6.015-1.221-8.809 9.521 4.397 16.128 14.03 16.128 25.206z" fill="url(#SVGID_12_)"/></g><g><path d="m122.369 83.774h-74.566c-3.642 0-6.594-2.952-6.594-6.594v-9.533c0-5.585 4.528-10.113 10.113-10.113h67.528c5.585 0 10.113 4.528 10.113 10.113v9.533c-.001 3.642-2.953 6.594-6.594 6.594z" fill="url(#SVGID_13_)"/><path d="m122.369 117.274h-74.566c-3.642 0-6.594-2.952-6.594-6.594v-9.533c0-5.585 4.528-10.113 10.113-10.113h67.528c5.585 0 10.113 4.528 10.113 10.113v9.533c-.001 3.642-2.953 6.594-6.594 6.594z" fill="url(#SVGID_14_)"/><path d="m122.369 150.774h-74.566c-3.642 0-6.594-2.952-6.594-6.594v-9.533c0-5.585 4.528-10.113 10.113-10.113h67.528c5.585 0 10.113 4.528 10.113 10.113v9.533c-.001 3.642-2.953 6.594-6.594 6.594z" fill="url(#SVGID_15_)"/><path d="m122.369 399.372h-74.566c-3.642 0-6.594-2.952-6.594-6.594v-9.533c0-5.585 4.528-10.113 10.113-10.113h67.528c5.585 0 10.113 4.528 10.113 10.113v9.533c-.001 3.642-2.953 6.594-6.594 6.594z" fill="url(#SVGID_16_)"/><path d="m122.369 432.872h-74.566c-3.642 0-6.594-2.952-6.594-6.594v-9.533c0-5.585 4.528-10.113 10.113-10.113h67.528c5.585 0 10.113 4.528 10.113 10.113v9.533c-.001 3.642-2.953 6.594-6.594 6.594z" fill="url(#SVGID_17_)"/></g></g><g><path d="m317.138 490.406h-124.105c-12.673 0-22.947-10.274-22.947-22.947v-444.512c0-12.673 10.273-22.947 22.947-22.947h124.106c12.673 0 22.947 10.274 22.947 22.947v444.512c0 12.674-10.274 22.947-22.948 22.947z" fill="url(#SVGID_18_)"/><path d="m317.138 0h-40.02c12.673 0 22.947 10.274 22.947 22.947v444.512c0 12.673-10.274 22.947-22.947 22.947h40.02c12.673 0 22.947-10.274 22.947-22.947v-444.512c.001-12.673-10.273-22.947-22.947-22.947z" fill="url(#SVGID_19_)"/><path d="m306.855 474.859h-103.538c-11.324 0-20.505-9.18-20.505-20.505v-418.303c0-11.324 9.18-20.505 20.505-20.505h103.538c11.324 0 20.505 9.18 20.505 20.505v418.304c-.001 11.324-9.181 20.504-20.505 20.504z" fill="url(#SVGID_20_)"/><path d="m306.855 15.547h-8.016c.791 2.323 1.227 4.81 1.227 7.4v444.512c0 2.59-.436 5.078-1.227 7.4h8.016c11.324 0 20.505-9.18 20.505-20.505v-418.303c-.001-11.324-9.181-20.504-20.505-20.504z" fill="url(#SVGID_21_)"/><g><circle cx="225.218" cy="255" fill="url(#SVGID_22_)" r="27.756"/><path d="m252.977 255c0 15.326-12.427 27.753-27.761 27.753-9.498 0-17.881-4.772-22.877-12.045 1.131.12 2.285.18 3.446.18 17.828 0 32.285-14.457 32.285-32.285 0-3.056-.427-6.015-1.221-8.809 9.521 4.397 16.128 14.03 16.128 25.206z" fill="url(#SVGID_23_)"/></g><g><path d="m292.369 83.774h-74.566c-3.642 0-6.594-2.952-6.594-6.594v-9.533c0-5.585 4.528-10.113 10.113-10.113h67.528c5.585 0 10.113 4.528 10.113 10.113v9.533c-.001 3.642-2.953 6.594-6.594 6.594z" fill="url(#SVGID_24_)"/><path d="m292.369 117.274h-74.566c-3.642 0-6.594-2.952-6.594-6.594v-9.533c0-5.585 4.528-10.113 10.113-10.113h67.528c5.585 0 10.113 4.528 10.113 10.113v9.533c-.001 3.642-2.953 6.594-6.594 6.594z" fill="url(#SVGID_25_)"/><path d="m292.369 150.774h-74.566c-3.642 0-6.594-2.952-6.594-6.594v-9.533c0-5.585 4.528-10.113 10.113-10.113h67.528c5.585 0 10.113 4.528 10.113 10.113v9.533c-.001 3.642-2.953 6.594-6.594 6.594z" fill="url(#SVGID_26_)"/><path d="m292.369 399.372h-74.566c-3.642 0-6.594-2.952-6.594-6.594v-9.533c0-5.585 4.528-10.113 10.113-10.113h67.528c5.585 0 10.113 4.528 10.113 10.113v9.533c-.001 3.642-2.953 6.594-6.594 6.594z" fill="url(#SVGID_27_)"/><path d="m292.369 432.872h-74.566c-3.642 0-6.594-2.952-6.594-6.594v-9.533c0-5.585 4.528-10.113 10.113-10.113h67.528c5.585 0 10.113 4.528 10.113 10.113v9.533c-.001 3.642-2.953 6.594-6.594 6.594z" fill="url(#SVGID_28_)"/></g></g><g><path d="m487.138 490.406h-124.105c-12.673 0-22.947-10.274-22.947-22.947v-444.512c0-12.673 10.273-22.947 22.947-22.947h124.106c12.673 0 22.947 10.274 22.947 22.947v444.512c0 12.674-10.274 22.947-22.948 22.947z" fill="url(#SVGID_29_)"/><path d="m487.138 0h-40.02c12.673 0 22.947 10.274 22.947 22.947v444.512c0 12.673-10.274 22.947-22.947 22.947h40.02c12.673 0 22.947-10.274 22.947-22.947v-444.512c.001-12.673-10.273-22.947-22.947-22.947z" fill="url(#SVGID_30_)"/><path d="m476.855 474.859h-103.538c-11.324 0-20.505-9.18-20.505-20.505v-418.303c0-11.324 9.18-20.505 20.505-20.505h103.538c11.324 0 20.505 9.18 20.505 20.505v418.304c-.001 11.324-9.181 20.504-20.505 20.504z" fill="url(#SVGID_31_)"/><path d="m476.855 15.547h-8.016c.791 2.323 1.227 4.81 1.227 7.4v444.512c0 2.59-.436 5.078-1.227 7.4h8.016c11.324 0 20.505-9.18 20.505-20.505v-418.303c-.001-11.324-9.181-20.504-20.505-20.504z" fill="url(#SVGID_32_)"/><g><circle cx="395.218" cy="255" fill="url(#SVGID_33_)" r="27.756"/><path d="m422.977 255c0 15.326-12.427 27.753-27.761 27.753-9.498 0-17.881-4.772-22.877-12.045 1.131.12 2.285.18 3.446.18 17.828 0 32.285-14.457 32.285-32.285 0-3.056-.427-6.015-1.221-8.809 9.521 4.397 16.128 14.03 16.128 25.206z" fill="url(#SVGID_34_)"/></g><g><path d="m462.369 83.774h-74.566c-3.642 0-6.594-2.952-6.594-6.594v-9.533c0-5.585 4.528-10.113 10.113-10.113h67.528c5.585 0 10.113 4.528 10.113 10.113v9.533c-.001 3.642-2.953 6.594-6.594 6.594z" fill="url(#SVGID_35_)"/><path d="m462.369 117.274h-74.566c-3.642 0-6.594-2.952-6.594-6.594v-9.533c0-5.585 4.528-10.113 10.113-10.113h67.528c5.585 0 10.113 4.528 10.113 10.113v9.533c-.001 3.642-2.953 6.594-6.594 6.594z" fill="url(#SVGID_36_)"/><path d="m462.369 150.774h-74.566c-3.642 0-6.594-2.952-6.594-6.594v-9.533c0-5.585 4.528-10.113 10.113-10.113h67.528c5.585 0 10.113 4.528 10.113 10.113v9.533c-.001 3.642-2.953 6.594-6.594 6.594z" fill="url(#SVGID_37_)"/><path d="m462.369 399.372h-74.566c-3.642 0-6.594-2.952-6.594-6.594v-9.533c0-5.585 4.528-10.113 10.113-10.113h67.528c5.585 0 10.113 4.528 10.113 10.113v9.533c-.001 3.642-2.953 6.594-6.594 6.594z" fill="url(#SVGID_38_)"/><path d="m462.369 432.872h-74.566c-3.642 0-6.594-2.952-6.594-6.594v-9.533c0-5.585 4.528-10.113 10.113-10.113h67.528c5.585 0 10.113 4.528 10.113 10.113v9.533c-.001 3.642-2.953 6.594-6.594 6.594z" fill="url(#SVGID_39_)"/></g></g></g></svg>