<svg id="Capa_1" enable-background="new 0 0 510 510" height="512" viewBox="0 0 510 510" width="512" xmlns="http://www.w3.org/2000/svg" xmlns:xlink="http://www.w3.org/1999/xlink"><linearGradient id="lg1"><stop offset="0" stop-color="#f9f3f1"/><stop offset=".5725" stop-color="#efe2dd"/><stop offset="1" stop-color="#cdbfba"/></linearGradient><linearGradient id="SVGID_1_" gradientUnits="userSpaceOnUse" x1=".722" x2="188.845" xlink:href="#lg1" y1="400.112" y2="400.112"/><linearGradient id="SVGID_2_" gradientUnits="userSpaceOnUse" x1="-76.062" x2="145.604" xlink:href="#lg1" y1="400.112" y2="400.112"/><linearGradient id="lg2"><stop offset="0" stop-color="#7acaa6"/><stop offset=".5725" stop-color="#09a76d"/><stop offset="1" stop-color="#026841"/></linearGradient><linearGradient id="SVGID_3_" gradientUnits="userSpaceOnUse" x1="76" x2="448.262" xlink:href="#lg2" y1="249.259" y2="249.259"/><linearGradient id="SVGID_4_" gradientUnits="userSpaceOnUse" x1="45.889" x2="396.608" xlink:href="#lg2" y1="249.261" y2="249.261"/><linearGradient id="SVGID_5_" gradientUnits="userSpaceOnUse" x1="214.512" x2="522.27" xlink:href="#lg2" y1="119.392" y2="119.392"/><linearGradient id="SVGID_6_" gradientUnits="userSpaceOnUse" x1="170.851" x2="493.242" xlink:href="#lg2" y1="188.23" y2="188.23"/><g><path d="m193.479 368.451c-59.486 59.486-177.684 154.434-192.024 140.094s80.608-132.538 140.094-192.024 111.416-7.556 51.93 51.93z" fill="url(#SVGID_1_)"/><path d="m141.549 316.521c-9.42 9.42-19.731 20.316-30.355 32.035.066.121.123.242.19.362 3.761 4.378 7.636 8.716 11.606 12.995 10.401 11.211 8.914 28.888-3.254 38.151-23.363 17.786-93.71 79.401-116.094 91.263-3.77 8.529-4.8 14.604-2.187 17.218 14.34 14.34 132.538-80.608 192.024-140.094s7.556-111.416-51.93-51.93z" fill="url(#SVGID_2_)"/><path d="m404.202 229.472 48.824-48.824-123.675-123.674-48.824 48.824c-17.21 17.21-41.02 25.895-65.314 24.418-48.447-2.945-97.882 14.092-134.901 51.111-68.583 68.583 179.778 316.944 248.361 248.361 37.019-37.019 54.056-86.454 51.111-134.901-1.476-24.294 7.208-48.104 24.418-65.315z" fill="url(#SVGID_3_)"/><path d="m328.671 429.69c-36.908 36.908-125.891-17.993-189.515-87.251 59.436 54.595 129.44 90.516 161.11 58.847 37.021-37.021 54.063-86.457 51.11-134.905-.676-11.102.771-22.101 4.185-32.416 7.777-23.496 2.166-49.344-15.335-66.845l-60.522-60.522c.284-.256.554-.525.823-.795l48.825-48.825 123.67 123.67-48.825 48.825c-.27.27-.539.539-.795.823-16.687 17.141-25.076 40.577-23.621 64.489 2.953 48.448-14.088 97.883-51.11 134.905z" fill="url(#SVGID_4_)"/><g><path d="m438.011 229.398-157.409-157.409c-12.513-12.513-12.513-32.802 0-45.315l17.288-17.289c12.513-12.513 32.802-12.513 45.315 0l157.409 157.409c12.513 12.513 12.513 32.802 0 45.315l-17.289 17.289c-12.512 12.514-32.801 12.514-45.314 0z" fill="url(#SVGID_5_)"/><path d="m500.615 166.794-29.118-29.118c12.513 12.513 12.514 32.802 0 45.315l-17.289 17.289c-12.514 12.514-32.802 12.513-45.315 0l29.118 29.118c12.513 12.513 32.802 12.514 45.315 0l17.289-17.289c12.513-12.513 12.513-32.801 0-45.315z" fill="url(#SVGID_6_)"/></g></g></svg>