<svg id="Capa_1" enable-background="new 0 0 510 510" height="512" viewBox="0 0 510 510" width="512" xmlns="http://www.w3.org/2000/svg" xmlns:xlink="http://www.w3.org/1999/xlink"><linearGradient id="lg1"><stop offset="0" stop-color="#fdb4ba"/><stop offset=".5725" stop-color="#bd80e1"/><stop offset="1" stop-color="#9857bd"/></linearGradient><linearGradient id="SVGID_1_" gradientUnits="userSpaceOnUse" x1="330.069" x2="451.958" xlink:href="#lg1" y1="451.586" y2="451.586"/><linearGradient id="SVGID_2_" gradientUnits="userSpaceOnUse" x1="279.622" x2="447.233" xlink:href="#lg1" y1="454.266" y2="454.266"/><linearGradient id="lg2"><stop offset="0" stop-color="#f9f3f1"/><stop offset=".5725" stop-color="#efe2dd"/><stop offset="1" stop-color="#cdbfba"/></linearGradient><linearGradient id="SVGID_3_" gradientUnits="userSpaceOnUse" x1="255.541" x2="365.997" xlink:href="#lg2" y1="396.049" y2="396.049"/><linearGradient id="lg3"><stop offset="0" stop-color="#ffe177"/><stop offset=".5725" stop-color="#feb137"/><stop offset="1" stop-color="#fe646f"/></linearGradient><linearGradient id="SVGID_4_" gradientUnits="userSpaceOnUse" x1="397.897" x2="519.786" xlink:href="#lg3" y1="88.312" y2="88.312"/><linearGradient id="SVGID_5_" gradientUnits="userSpaceOnUse" x1="347.45" x2="515.061" xlink:href="#lg3" y1="90.992" y2="90.992"/><linearGradient id="SVGID_6_" gradientUnits="userSpaceOnUse" x1="316.958" x2="466.44" xlink:href="#lg2" y1="151.043" y2="151.043"/><linearGradient id="SVGID_7_" gradientUnits="userSpaceOnUse" x1="191" x2="357.111" xlink:href="#lg2" y1="353.958" y2="353.958"/><linearGradient id="SVGID_8_" gradientUnits="userSpaceOnUse" x1="272" x2="392.266" xlink:href="#lg2" y1="185.49" y2="185.49"/><linearGradient id="lg4"><stop offset="0" stop-color="#fe646f"/><stop offset=".5725" stop-color="#fb2b3a"/><stop offset="1" stop-color="#c41926"/></linearGradient><linearGradient id="SVGID_9_" gradientUnits="userSpaceOnUse" x1="125.816" x2="441.719" xlink:href="#lg4" y1="255" y2="255"/><linearGradient id="SVGID_10_" gradientUnits="userSpaceOnUse" x1="106" x2="255.021" xlink:href="#lg4" y1="182.217" y2="182.217"/><linearGradient id="SVGID_11_" gradientUnits="userSpaceOnUse" x1="106" x2="218.7" xlink:href="#lg4" y1="308.219" y2="308.219"/><linearGradient id="SVGID_12_" gradientUnits="userSpaceOnUse" x1="82.468" x2="389.74" xlink:href="#lg4" y1="255" y2="255"/><linearGradient id="SVGID_13_" gradientUnits="userSpaceOnUse" x1="79.332" x2="189.787" xlink:href="#lg2" y1="113.07" y2="113.07"/><linearGradient id="SVGID_14_" gradientUnits="userSpaceOnUse" x1="37.5" x2="169.095" xlink:href="#lg2" y1="85.802" y2="85.802"/><linearGradient id="lg5"><stop offset="0" stop-color="#7acaa6"/><stop offset=".5725" stop-color="#09a76d"/><stop offset="1" stop-color="#026841"/></linearGradient><linearGradient id="SVGID_15_" gradientUnits="userSpaceOnUse" x1="43.666" x2="165.555" xlink:href="#lg5" y1="58.414" y2="58.414"/><linearGradient id="SVGID_16_" gradientUnits="userSpaceOnUse" x1="-6.781" x2="160.83" xlink:href="#lg5" y1="61.094" y2="61.094"/><linearGradient id="SVGID_17_" gradientUnits="userSpaceOnUse" x1="64" x2="201.612" xlink:href="#lg2" y1="324.084" y2="324.084"/><linearGradient id="SVGID_18_" gradientUnits="userSpaceOnUse" x1="2" x2="127.229" xlink:href="#lg2" y1="355.202" y2="355.202"/><linearGradient id="lg6"><stop offset="0" stop-color="#6bd9e7"/><stop offset=".5725" stop-color="#26a6fe"/><stop offset="1" stop-color="#0172fb"/></linearGradient><linearGradient id="SVGID_19_" gradientUnits="userSpaceOnUse" x1="4.73" x2="126.619" xlink:href="#lg6" y1="383.89" y2="383.89"/><linearGradient id="SVGID_20_" gradientUnits="userSpaceOnUse" x1="-45.718" x2="121.893" xlink:href="#lg6" y1="386.57" y2="386.57"/><g><g><circle cx="383.753" cy="451.586" fill="url(#SVGID_1_)" r="58.414"/><path d="m442.172 451.586c0 32.255-26.154 58.408-58.424 58.408-19.99 0-37.63-10.042-48.145-25.35 2.38.252 4.808.378 7.252.378 37.52 0 67.946-30.426 67.946-67.946 0-6.432-.898-12.659-2.569-18.539 20.035 9.255 33.94 29.528 33.94 53.049z" fill="url(#SVGID_2_)"/></g><path d="m394.909 437.612-108.254-108.254c-6.939-6.939-18.189-6.939-25.128 0-6.939 6.939-6.939 18.189 0 25.128l108.255 108.254c6.939 6.939 18.189 6.939 25.128 0 6.938-6.939 6.938-18.189-.001-25.128z" fill="url(#SVGID_3_)"/><g><circle cx="451.581" cy="88.312" fill="url(#SVGID_4_)" r="58.414"/><path d="m510 88.312c0 32.255-26.154 58.408-58.424 58.408-19.99 0-37.63-10.042-48.145-25.35 2.38.252 4.808.378 7.252.378 37.52 0 67.946-30.426 67.946-67.946 0-6.432-.898-12.659-2.569-18.539 20.035 9.255 33.94 29.528 33.94 53.049z" fill="url(#SVGID_5_)"/></g><path d="m347.29 217.734 108.254-108.254c6.939-6.939 6.939-18.189 0-25.128-6.939-6.939-18.189-6.939-25.128 0l-108.254 108.254c-6.939 6.939-6.939 18.189 0 25.128 6.939 6.939 18.189 6.939 25.128 0z" fill="url(#SVGID_6_)"/><path d="m334.79 377.5c-12.53 4.06-25.89 6.26-39.77 6.26-1.44 0-2.87-.02-4.29-.07l-29.2-29.2c-3.47-3.47-5.21-8.02-5.21-12.57 0-4.54 1.74-9.09 5.21-12.56 6.94-6.94 18.19-6.94 25.12 0z" fill="url(#SVGID_7_)"/><path d="m393.26 171.76-45.97 45.97c-3.47 3.47-8.02 5.21-12.57 5.21-4.54 0-9.09-1.74-12.56-5.21-6.94-6.93-6.94-18.19 0-25.12l44.57-44.57c9.9 6.66 18.83 14.65 26.53 23.72z" fill="url(#SVGID_8_)"/><g><circle cx="255" cy="255" fill="url(#SVGID_9_)" r="128.755"/><path d="m154.638 174.351 34.91 34.909c6.939 6.939 18.189 6.939 25.128 0 6.939-6.939 6.939-18.189 0-25.128l-34.165-34.165c-9.711 6.9-18.417 15.118-25.873 24.384z" fill="url(#SVGID_10_)"/><path d="m175.286 278.587-34.98 34.98c5.528 10.804 12.544 20.719 20.767 29.488l39.34-39.34c6.939-6.939 6.939-18.189 0-25.128-6.938-6.939-18.188-6.939-25.127 0z" fill="url(#SVGID_11_)"/><path d="m255 126.245c-8.825 0-17.441.89-25.766 2.581 58.762 11.936 102.989 63.889 102.989 126.174s-44.227 114.238-102.989 126.174c8.325 1.691 16.942 2.581 25.766 2.581 71.11 0 128.755-57.646 128.755-128.755s-57.645-128.755-128.755-128.755z" fill="url(#SVGID_12_)"/></g><path d="m218.7 154.633-108.254-108.254c-6.939-6.939-18.189-6.939-25.128 0-6.939 6.939-6.939 18.189 0 25.128l108.254 108.254c6.939 6.939 18.189 6.939 25.128 0 6.939-6.939 6.939-18.189 0-25.128z" fill="url(#SVGID_13_)"/><path d="m110.446 46.379c-6.939-6.939-18.189-6.939-25.128 0-6.939 6.939-6.939 18.189 0 25.128l58.922 58.922c10.76-5.563 19.564-14.368 25.127-25.128z" fill="url(#SVGID_14_)"/><g><circle cx="97.351" cy="58.414" fill="url(#SVGID_15_)" r="58.414"/><path d="m155.769 58.414c0 32.255-26.154 58.408-58.424 58.408-19.99 0-37.63-10.042-48.145-25.35 2.38.252 4.808.378 7.252.378 37.52 0 67.946-30.426 67.946-67.946 0-6.432-.898-12.659-2.569-18.539 20.036 9.254 33.94 29.528 33.94 53.049z" fill="url(#SVGID_16_)"/></g><path d="m76.659 390.775 108.254-108.254c6.939-6.939 6.939-18.189 0-25.128-6.939-6.939-18.189-6.939-25.128 0l-108.253 108.254c-6.939 6.939-6.939 18.189 0 25.128 6.938 6.939 18.189 6.939 25.127 0z" fill="url(#SVGID_17_)"/><path d="m127.881 339.554c-5.563-10.761-14.367-19.565-25.127-25.129l-51.222 51.222c-6.939 6.939-6.939 18.189 0 25.128 6.939 6.939 18.189 6.939 25.128 0z" fill="url(#SVGID_18_)"/><g><circle cx="58.414" cy="383.89" fill="url(#SVGID_19_)" r="58.414"/><path d="m116.833 383.89c0 32.255-26.154 58.408-58.424 58.408-19.99 0-37.63-10.042-48.145-25.35 2.38.252 4.808.378 7.252.378 37.52 0 67.946-30.426 67.946-67.946 0-6.432-.899-12.659-2.569-18.539 20.035 9.255 33.94 29.528 33.94 53.049z" fill="url(#SVGID_20_)"/></g></g></svg>