<svg id="Capa_1" enable-background="new 0 0 510 510" height="512" viewBox="0 0 510 510" width="512" xmlns="http://www.w3.org/2000/svg" xmlns:xlink="http://www.w3.org/1999/xlink"><linearGradient id="lg1"><stop offset="0" stop-color="#fdb4ba"/><stop offset=".5725" stop-color="#bd80e1"/><stop offset="1" stop-color="#9857bd"/></linearGradient><linearGradient id="SVGID_1_" gradientUnits="userSpaceOnUse" x1="-10.87" x2="546.174" xlink:href="#lg1" y1="255" y2="255"/><linearGradient id="SVGID_2_" gradientUnits="userSpaceOnUse" x1="73" x2="401.373" xlink:href="#lg1" y1="221.311" y2="221.311"/><linearGradient id="SVGID_3_" gradientUnits="userSpaceOnUse" x1="-82" x2="432.628" xlink:href="#lg1" y1="264.213" y2="264.213"/><linearGradient id="SVGID_4_" gradientUnits="userSpaceOnUse" x1="-82" x2="432.628" xlink:href="#lg1" y1="254.993" y2="254.993"/><linearGradient id="SVGID_5_" gradientUnits="userSpaceOnUse" x1="-82" x2="432.628" xlink:href="#lg1" y1="309.804" y2="309.804"/><g><path d="m463.919 68.097c-61.44-61.44-161.411-61.441-222.852-.001l-204.092 204.092c-49.301 49.301-49.3 129.519.001 178.82s129.519 49.301 178.82 0l160.421-160.421c36.321-36.321 36.32-95.418 0-131.739-36.321-36.321-95.418-36.321-131.739 0l-144.516 144.515c-9.847 9.848-9.847 25.813 0 35.66s25.812 9.847 35.66 0l144.515-144.515c16.658-16.658 43.761-16.658 60.419 0s16.658 43.762 0 60.419l-160.42 160.422c-29.638 29.638-77.862 29.637-107.5-.001s-29.638-77.862 0-107.5l204.092-204.092c41.777-41.777 109.754-41.777 151.532.001s41.778 109.755.001 151.532l-122.264 122.262c-9.847 9.848-9.847 25.813 0 35.66s25.812 9.847 35.66 0l122.263-122.263c61.441-61.44 61.44-161.411-.001-222.851z" fill="url(#SVGID_1_)"/><path d="m463.919 68.097c-35.81-35.81-84.707-50.739-131.437-44.807 33.448 4.246 65.785 19.175 91.417 44.807 61.44 61.44 61.441 161.411.001 222.852l-119.945 119.944c.628.802 1.304 1.579 2.043 2.318 9.847 9.847 25.812 9.847 35.66 0l122.262-122.263c61.441-61.44 61.44-161.411-.001-222.851z" fill="url(#SVGID_2_)"/><g><path d="m240.117 194.508-142.197 142.197c.628.802 1.304 1.579 2.043 2.318 9.847 9.847 25.812 9.847 35.66 0l144.515-144.515c3.085-3.085 6.53-5.596 10.199-7.538-16.142-8.545-36.647-6.035-50.22 7.538z" fill="url(#SVGID_3_)"/><path d="m72.636 415.348c-29.638-29.638-29.638-77.862 0-107.5l204.092-204.092c15.786-15.786 35.314-25.603 55.755-29.459-33.654-6.348-69.785 3.468-95.775 29.459l-204.093 204.092c-29.638 29.638-29.638 77.862 0 107.5 19.947 19.947 48.308 26.448 73.761 19.546-12.366-3.354-24.049-9.855-33.74-19.546z" fill="url(#SVGID_4_)"/><path d="m376.217 158.848c-23.269-23.269-55.882-31.604-85.87-25.058 16.813 3.674 32.803 12.011 45.85 25.058 36.321 36.321 36.321 95.418 0 131.739l-160.421 160.422c-19.555 19.555-43.975 31.345-69.4 35.387 38.674 6.149 79.674-5.641 109.42-35.387l160.421-160.421c36.321-36.321 36.32-95.419 0-131.74z" fill="url(#SVGID_5_)"/></g></g></svg>