<svg id="Capa_1" enable-background="new 0 0 510 510" height="512" viewBox="0 0 510 510" width="512" xmlns="http://www.w3.org/2000/svg" xmlns:xlink="http://www.w3.org/1999/xlink"><linearGradient id="lg1"><stop offset="0" stop-color="#fdb4ba"/><stop offset=".5725" stop-color="#bd80e1"/><stop offset="1" stop-color="#9857bd"/></linearGradient><linearGradient id="SVGID_1_" gradientUnits="userSpaceOnUse" x1="42" x2="524.933" xlink:href="#lg1" y1="255" y2="255"/><linearGradient id="SVGID_2_" gradientUnits="userSpaceOnUse" x1="98" x2="425.075" xlink:href="#lg1" y1="255" y2="255"/><linearGradient id="lg2"><stop offset="0" stop-color="#f9f3f1"/><stop offset=".5725" stop-color="#efe2dd"/><stop offset="1" stop-color="#cdbfba"/></linearGradient><linearGradient id="SVGID_3_" gradientUnits="userSpaceOnUse" x1="184.423" x2="386.386" xlink:href="#lg2" y1="255" y2="255"/><linearGradient id="SVGID_4_" gradientUnits="userSpaceOnUse" x1="175.196" x2="275.391" xlink:href="#lg2" y1="255" y2="255"/><linearGradient id="SVGID_5_" gradientUnits="userSpaceOnUse" x1="273" x2="350.318" y1="255" y2="255"><stop offset="0" stop-color="#537983"/><stop offset="1" stop-color="#3e5959"/></linearGradient><linearGradient id="SVGID_6_" gradientUnits="userSpaceOnUse" x1="241" x2="347.32" y1="256.7" y2="256.7"><stop offset="0" stop-color="#537983"/><stop offset="1" stop-color="#384949"/></linearGradient><linearGradient id="SVGID_7_" gradientUnits="userSpaceOnUse" x1="122.399" x2="227.743" xlink:href="#lg2" y1="255" y2="255"/><linearGradient id="SVGID_8_" gradientUnits="userSpaceOnUse" x1="62" x2="273.464" xlink:href="#lg1" y1="262.138" y2="262.138"/><linearGradient id="SVGID_9_" gradientUnits="userSpaceOnUse" x1="57.333" x2="194.796" xlink:href="#lg1" y1="262.138" y2="262.138"/><g><path d="m403.874 251.401c0-50.885 15.433-96.467 39.792-127.201 5.657-7.138 8.849-15.915 8.849-25.023v-72.425c0-14.775-11.977-26.752-26.751-26.752h-341.528c-14.774 0-26.751 11.977-26.751 26.752v72.426c0 9.108 3.192 17.885 8.849 25.023 24.359 30.735 39.792 76.317 39.792 127.201 0 50.885-15.433 96.467-39.792 127.201-5.657 7.138-8.849 15.915-8.849 25.023v79.623c0 14.774 11.977 26.752 26.752 26.752h341.528c14.774 0 26.751-11.977 26.751-26.752v-79.623c0-9.108-3.192-17.885-8.849-25.023-24.36-30.735-39.793-76.317-39.793-127.202z" fill="url(#SVGID_1_)"/><path d="m452.515 99.177v-72.426c0-14.774-11.977-26.751-26.751-26.751h-40.02c14.774 0 26.751 11.977 26.751 26.751v72.426c0 9.108-3.192 17.885-8.849 25.023-24.359 30.735-39.792 76.316-39.792 127.201s15.433 96.467 39.792 127.201c5.657 7.138 8.849 15.915 8.849 25.022v79.624c0 14.774-11.977 26.751-26.751 26.751h40.02c14.774 0 26.751-11.977 26.751-26.751v-79.624c0-9.108-3.192-17.885-8.849-25.022-24.359-30.735-39.792-76.317-39.792-127.201s15.433-96.467 39.792-127.201c5.657-7.138 8.849-15.915 8.849-25.023z" fill="url(#SVGID_2_)"/><path d="m342.864 470h-138.728c-7.311 0-13.237-5.927-13.237-13.237v-315.662c0-55.837 8.264-101.101 64.101-101.101 55.837 0 101.101 45.264 101.101 101.101v315.662c0 7.31-5.927 13.237-13.237 13.237z" fill="url(#SVGID_3_)"/><path d="m255 40c-55.837 0-79.101 45.264-79.101 101.101v315.662c0 7.311 5.927 13.237 13.237 13.237h65.864z" fill="url(#SVGID_4_)"/><circle cx="307.053" cy="255" fill="url(#SVGID_5_)" r="37.053"/><path d="m344.11 255c0 20.46-16.59 37.05-37.06 37.05-12.68 0-23.87-6.37-30.54-16.08 1.51.16 3.05.24 4.6.24 23.8 0 43.1-19.3 43.1-43.1 0-4.08-.57-8.03-1.63-11.76 12.71 5.87 21.53 18.73 21.53 33.65z" fill="url(#SVGID_6_)"/><path d="m178.91 456.763v-315.662c0-25.085 9.138-48.03 24.267-65.695 13.337-15.575 31.331-30.189 51.823-35.406-18.939 0-36.663 5.208-51.815 14.27-29.52 17.654-44.286 49.934-44.286 86.831v315.662c0 7.311.927 13.237 8.237 13.237 0 0 11.774-5.927 11.774-13.237z" fill="url(#SVGID_7_)"/><path d="m203.188 54.275c-29.52 17.654-49.289 49.929-49.289 86.826v315.662c0 7.311 5.927 13.237 13.237 13.237h36.051v-415.725z" fill="url(#SVGID_8_)"/><path d="m178.91 456.763v-315.662c0-25.085 9.138-48.03 24.267-65.695.004-.004.007-.008.011-.012v-21.119c-29.52 17.654-49.289 49.929-49.289 86.826v315.662c0 7.311 5.927 13.237 13.237 13.237h25.011c-7.31 0-13.237-5.927-13.237-13.237z" fill="url(#SVGID_9_)"/></g></svg>