<svg id="Capa_1" enable-background="new 0 0 510.343 510.343" height="512" viewBox="0 0 510.343 510.343" width="512" xmlns="http://www.w3.org/2000/svg" xmlns:xlink="http://www.w3.org/1999/xlink"><linearGradient id="SVGID_1_" gradientUnits="userSpaceOnUse" x1="188.404" x2="275.771" y1="238" y2="238"><stop offset="0" stop-color="#cdbfba"/><stop offset="1" stop-color="#766e6e"/></linearGradient><linearGradient id="lg1"><stop offset="0" stop-color="#6bd9e7"/><stop offset=".5725" stop-color="#26a6fe"/><stop offset="1" stop-color="#0172fb"/></linearGradient><linearGradient id="SVGID_2_" gradientUnits="userSpaceOnUse" x1="27.175" x2="472.318" xlink:href="#lg1" y1="238" y2="238"/><linearGradient id="SVGID_3_" gradientUnits="userSpaceOnUse" x1="-15.208" x2="389.19" xlink:href="#lg1" y1="238" y2="238"/><linearGradient id="lg2"><stop offset="0" stop-color="#ffe177"/><stop offset=".5725" stop-color="#feb137"/><stop offset="1" stop-color="#fe646f"/></linearGradient><linearGradient id="SVGID_4_" gradientUnits="userSpaceOnUse" x1="127.914" x2="582.359" xlink:href="#lg2" y1="238" y2="238"/><linearGradient id="lg3"><stop offset="0" stop-color="#f9f3f1"/><stop offset=".5725" stop-color="#efe2dd"/><stop offset="1" stop-color="#cdbfba"/></linearGradient><linearGradient id="SVGID_5_" gradientUnits="userSpaceOnUse" x1="101.256" x2="386.908" xlink:href="#lg3" y1="480.636" y2="480.636"/><linearGradient id="SVGID_6_" gradientUnits="userSpaceOnUse" x1="42.796" x2="298.853" xlink:href="#lg3" y1="480.636" y2="480.636"/><linearGradient id="lg4"><stop offset="0" stop-color="#7acaa6"/><stop offset=".5725" stop-color="#09a76d"/><stop offset="1" stop-color="#026841"/></linearGradient><linearGradient id="SVGID_7_" gradientUnits="userSpaceOnUse" x1="120.05" x2="197.368" xlink:href="#lg4" y1="145.901" y2="145.901"/><linearGradient id="SVGID_8_" gradientUnits="userSpaceOnUse" x1="88.05" x2="194.371" xlink:href="#lg4" y1="147.601" y2="147.601"/><linearGradient id="lg5"><stop offset="0" stop-color="#fe646f"/><stop offset=".5725" stop-color="#fb2b3a"/><stop offset="1" stop-color="#c41926"/></linearGradient><linearGradient id="SVGID_9_" gradientUnits="userSpaceOnUse" x1="201.737" x2="279.054" xlink:href="#lg5" y1="341.082" y2="341.082"/><linearGradient id="SVGID_10_" gradientUnits="userSpaceOnUse" x1="169.737" x2="276.057" xlink:href="#lg5" y1="342.782" y2="342.782"/><linearGradient id="SVGID_11_" gradientUnits="userSpaceOnUse" x1="303.181" x2="380.499" xlink:href="#lg2" y1="234.322" y2="234.322"/><linearGradient id="SVGID_12_" gradientUnits="userSpaceOnUse" x1="271.181" x2="377.502" xlink:href="#lg2" y1="236.022" y2="236.022"/><g><path d="m223.292 11.178h25v453.644h-25z" fill="url(#SVGID_1_)"/><g><g><path d="m265.733 40.944c-133.443-19.429-246.426 93.554-226.998 226.997 12.564 86.292 80.823 154.551 167.115 167.115 133.443 19.429 246.426-93.555 226.997-226.997-12.563-86.292-80.822-154.551-167.114-167.115z" fill="url(#SVGID_2_)"/><path d="m235.792 38.759c-6.754 0-13.429.34-20.01.997 1.766.176 3.522.381 5.274.603-36.477 7.944-67.667 44.976-85.443 97.14-51.261 17.274-87.994 47.545-96.878 83.069-1.472 5.885-2.185 11.712-2.185 17.432 0 42.727 39.674 80.051 98.74 100.179 17.274 51.261 47.545 87.994 83.069 96.878.869.217 1.737.413 2.604.598-1.721.217-3.447.417-5.182.59 6.581.656 13.256.997 20.01.997 110.038 0 199.241-89.203 199.241-199.241s-89.203-199.242-199.24-199.242zm-151.506 242.84c-7.96-7.314-17.086-18.028-20.903-31.099h56.633c.205 5.768.551 11.585 1.048 17.441 1.184 13.97 3.223 27.463 6.014 40.327-17.049-7.35-31.569-16.358-42.792-26.669zm35.741-56.099h-56.732c4.802-17.311 20.344-34.341 43.929-48.072 6.228-3.626 12.955-6.956 20.063-9.994-4.021 18.229-6.527 37.733-7.26 58.066zm244.333 73.072c-6.228 3.626-12.955 6.956-20.063 9.994 4.02-18.229 6.527-37.733 7.26-58.066h43.057c-.006.095-.012.191-.018.286-1.235 19.499-12.205 37.08-29.002 47.061-.409.242-.82.484-1.234.725zm30.235-73.355c.006.094.012.189.018.283h-43.045c-.205-5.768-.551-11.585-1.048-17.441-1.184-13.97-3.223-27.462-6.014-40.327 7.39 3.186 17.097 9.249 25.723 15.095 14.201 9.626 23.282 25.268 24.366 42.39zm-16.934-68.656c-12.279-7.249-26.18-13.564-41.368-18.74-10.44-30.979-25.631-56.638-43.856-74.065 37.497 20.847 67.568 53.433 85.224 92.805zm-114.04 171.257c-5.115.434-10.228.734-15.329.928v-78.246h78.243c-.895 22.999-4.244 45.385-9.976 66.141-.168.608-.349 1.201-.521 1.805-16.457 4.619-34.161 7.824-52.417 9.372zm42.439 18.896c-7.35 17.049-16.358 31.569-26.669 42.791-7.314 7.96-18.028 17.086-31.099 20.903v-56.633c5.768-.205 11.585-.551 17.441-1.048 13.969-1.183 27.462-3.222 40.327-6.013zm-57.768-121.214v-78.243c22.999.895 45.385 4.244 66.141 9.976.608.168 1.201.349 1.805.521 4.619 16.457 7.824 34.161 9.372 52.417.434 5.115.734 10.228.928 15.329zm0-103.265v-56.732c17.311 4.802 34.341 20.344 48.072 43.929 3.626 6.228 6.956 12.955 9.994 20.063-18.229-4.02-37.733-6.527-58.066-7.26zm-56.099-35.74c7.313-7.96 18.028-17.086 31.099-20.903v56.633c-5.768.205-11.585.551-17.441 1.048-13.97 1.184-27.462 3.223-40.327 6.014 7.35-17.05 16.358-31.57 26.669-42.792zm-37.168 72.864c.168-.608.349-1.201.521-1.805 16.457-4.619 34.161-7.824 52.417-9.372 5.115-.434 10.228-.735 15.329-.928v78.246h-78.243c.895-22.999 4.243-45.385 9.976-66.141zm.321 158.887c-4.619-16.457-7.824-34.161-9.372-52.417-.434-5.115-.735-10.228-.928-15.329h78.246v78.243c-22.999-.895-45.385-4.244-66.141-9.976-.608-.168-1.201-.349-1.805-.521zm19.874 48.322c-3.626-6.228-6.956-12.955-9.994-20.063 18.229 4.02 37.734 6.527 58.066 7.26v56.732c-17.311-4.802-34.341-20.344-48.072-43.929zm116.366 46.147c18.415-17.387 33.785-43.11 44.384-74.214 15.241-5.136 29.184-11.429 41.506-18.659-17.814 39.488-48.126 72.12-85.89 92.873z" fill="url(#SVGID_3_)"/></g></g><path d="m233.945 0h-10.653c-6.904 0-12.5 5.596-12.5 12.5 0 6.904 5.596 12.5 12.5 12.5h12.5c28.766 0 56.658 5.628 82.902 16.728 25.361 10.727 48.143 26.088 67.712 45.658 19.57 19.57 34.931 42.351 45.658 67.712 11.1 26.244 16.728 54.136 16.728 82.902s-5.628 56.658-16.728 82.902c-10.727 25.361-26.088 48.143-45.658 67.712-19.57 19.57-42.351 34.931-67.712 45.658-26.244 11.1-54.136 16.728-82.902 16.728h-12.5c-6.904 0-12.5 5.596-12.5 12.5 0 6.904 5.596 12.5 12.5 12.5h12.5c131.15 0 237.524-106.081 237.998-237.12.476-131.384-108.46-238.88-239.845-238.88z" fill="url(#SVGID_4_)"/><g><path d="m341.471 510.343h-211.359c-16.407 0-29.707-13.3-29.707-29.707 0-16.407 13.3-29.707 29.707-29.707h211.359c16.407 0 29.707 13.3 29.707 29.707 0 16.407-13.3 29.707-29.707 29.707z" fill="url(#SVGID_5_)"/><path d="m341.471 450.929h-38.177c16.407 0 29.707 13.3 29.707 29.707 0 16.407-13.3 29.707-29.707 29.707h38.177c16.407 0 29.707-13.3 29.707-29.707 0-16.407-13.3-29.707-29.707-29.707z" fill="url(#SVGID_6_)"/></g><g><circle cx="154.104" cy="145.901" fill="url(#SVGID_7_)" r="37.053"/><path d="m191.16 145.901c0 20.46-16.59 37.05-37.06 37.05-12.68 0-23.87-6.37-30.54-16.08 1.51.16 3.05.24 4.6.24 23.8 0 43.1-19.3 43.1-43.1 0-4.08-.57-8.03-1.63-11.76 12.71 5.87 21.53 18.73 21.53 33.65z" fill="url(#SVGID_8_)"/></g><g><circle cx="235.79" cy="341.082" fill="url(#SVGID_9_)" r="37.053"/><path d="m272.847 341.082c0 20.46-16.59 37.05-37.06 37.05-12.68 0-23.87-6.37-30.54-16.08 1.51.16 3.05.24 4.6.24 23.8 0 43.1-19.3 43.1-43.1 0-4.08-.57-8.03-1.63-11.76 12.71 5.87 21.53 18.73 21.53 33.65z" fill="url(#SVGID_10_)"/></g><g><circle cx="337.235" cy="234.322" fill="url(#SVGID_11_)" r="37.053"/><path d="m374.291 234.322c0 20.46-16.59 37.05-37.06 37.05-12.68 0-23.87-6.37-30.54-16.08 1.51.16 3.05.24 4.6.24 23.8 0 43.1-19.3 43.1-43.1 0-4.08-.57-8.03-1.63-11.76 12.71 5.87 21.53 18.73 21.53 33.65z" fill="url(#SVGID_12_)"/></g></g></svg>