<svg id="Capa_1" enable-background="new 0 0 510 510" height="512" viewBox="0 0 510 510" width="512" xmlns="http://www.w3.org/2000/svg" xmlns:xlink="http://www.w3.org/1999/xlink"><linearGradient id="lg1"><stop offset="0" stop-color="#f9f3f1"/><stop offset=".5725" stop-color="#efe2dd"/><stop offset="1" stop-color="#cdbfba"/></linearGradient><linearGradient id="SVGID_1_" gradientUnits="userSpaceOnUse" x1="70.6" x2="534.552" xlink:href="#lg1" y1="255" y2="255"/><linearGradient id="SVGID_3_" gradientUnits="userSpaceOnUse" x1="0" x2="401.071" xlink:href="#lg1" y1="255" y2="255"/><linearGradient id="lg2"><stop offset="0" stop-color="#7acaa6"/><stop offset=".5725" stop-color="#09a76d"/><stop offset="1" stop-color="#026841"/></linearGradient><linearGradient id="SVGID_4_" gradientUnits="userSpaceOnUse" x1="12.103" x2="576.372" xlink:href="#lg2" y1="255" y2="255"/><linearGradient id="SVGID_5_" gradientUnits="userSpaceOnUse" x1="-136" x2="534.512" xlink:href="#lg2" y1="315.4" y2="315.4"/><linearGradient id="SVGID_6_" gradientUnits="userSpaceOnUse" x1="-136" x2="534.512" xlink:href="#lg2" y1="255" y2="255"/><linearGradient id="SVGID_7_" gradientUnits="userSpaceOnUse" x1="-136" x2="534.512" xlink:href="#lg2" y1="194.6" y2="194.6"/><linearGradient id="SVGID_8_" gradientUnits="userSpaceOnUse" x1="70.6" x2="534.552" xlink:href="#lg1" y1="85" y2="85"/><linearGradient id="SVGID_10_" gradientUnits="userSpaceOnUse" x1="0" x2="401.071" xlink:href="#lg1" y1="85" y2="85"/><linearGradient id="lg3"><stop offset="0" stop-color="#6bd9e7"/><stop offset=".5725" stop-color="#26a6fe"/><stop offset="1" stop-color="#0172fb"/></linearGradient><linearGradient id="SVGID_11_" gradientUnits="userSpaceOnUse" x1="12.103" x2="576.372" xlink:href="#lg3" y1="85" y2="85"/><linearGradient id="SVGID_12_" gradientUnits="userSpaceOnUse" x1="-136" x2="534.512" xlink:href="#lg3" y1="145.4" y2="145.4"/><linearGradient id="SVGID_13_" gradientUnits="userSpaceOnUse" x1="-136" x2="534.512" xlink:href="#lg3" y1="85" y2="85"/><linearGradient id="SVGID_14_" gradientUnits="userSpaceOnUse" x1="-136" x2="534.512" xlink:href="#lg3" y1="24.6" y2="24.6"/><linearGradient id="SVGID_15_" gradientUnits="userSpaceOnUse" x1="70.6" x2="534.552" xlink:href="#lg1" y1="425" y2="425"/><linearGradient id="SVGID_17_" gradientUnits="userSpaceOnUse" x1="-98.667" x2="419.38" xlink:href="#lg1" y1="425" y2="425"/><linearGradient id="lg4"><stop offset="0" stop-color="#ffe177"/><stop offset=".5725" stop-color="#feb137"/><stop offset="1" stop-color="#fe646f"/></linearGradient><linearGradient id="SVGID_18_" gradientUnits="userSpaceOnUse" x1="12.103" x2="576.372" xlink:href="#lg4" y1="425" y2="425"/><linearGradient id="SVGID_19_" gradientUnits="userSpaceOnUse" x1="-2.333" x2="291.929" xlink:href="#lg4" y1="485.261" y2="485.261"/><linearGradient id="SVGID_20_" gradientUnits="userSpaceOnUse" x1="-136" x2="534.512" xlink:href="#lg4" y1="485.4" y2="485.4"/><linearGradient id="SVGID_21_" gradientUnits="userSpaceOnUse" x1="-136" x2="534.512" xlink:href="#lg4" y1="425" y2="425"/><linearGradient id="SVGID_22_" gradientUnits="userSpaceOnUse" x1="-136" x2="534.512" xlink:href="#lg4" y1="364.6" y2="364.6"/><linearGradient id="SVGID_23_" gradientUnits="userSpaceOnUse" x1="113.333" x2="252.231" y1="455.72" y2="455.72"><stop offset="0" stop-color="#fdb4ba"/><stop offset=".5725" stop-color="#bd80e1"/><stop offset="1" stop-color="#9857bd"/></linearGradient><g><g><path d="m64 200h415.452v110h-415.452z" fill="url(#SVGID_1_)"/><path d="m64 200h415.452v110h-415.452z" fill="url(#SVGID_1_)"/><path d="m479.45 200v110h-40.02v-31.193c0-18.942-15.355-34.297-34.297-34.297h-341.133v-44.51z" fill="url(#SVGID_3_)"/><path d="m81.507 254.307c-.381 20.067 16.429 36.493 36.5 36.493h357.593c13.586 0 24.6 11.014 24.6 24.6 0 13.586-11.014 24.6-24.6 24.6h-380.8c-46.95 0-85-38.06-85-85s38.05-85 85-85h380.8c13.586 0 24.6 11.014 24.6 24.6 0 13.586-11.014 24.6-24.6 24.6h-358.31c-19.539 0-35.414 15.657-35.783 35.107z" fill="url(#SVGID_4_)"/><g><path d="m475.6 290.8h-40.02c13.586 0 24.6 11.014 24.6 24.6 0 13.586-11.014 24.6-24.6 24.6h40.02c13.586 0 24.6-11.014 24.6-24.6 0-13.586-11.014-24.6-24.6-24.6z" fill="url(#SVGID_5_)"/><path d="m81.507 254.307c.369-19.45 16.245-35.107 35.783-35.107h-40.02c-19.539 0-35.414 15.657-35.783 35.107-.381 20.067 16.429 36.493 36.5 36.493h40.02c-20.071 0-36.881-16.425-36.5-36.493z" fill="url(#SVGID_6_)"/><path d="m475.6 170h-40.02c13.586 0 24.6 11.014 24.6 24.6 0 13.586-11.014 24.6-24.6 24.6h40.02c13.586 0 24.6-11.014 24.6-24.6 0-13.586-11.014-24.6-24.6-24.6z" fill="url(#SVGID_7_)"/></g></g><g><path d="m64 30h415.452v110h-415.452z" fill="url(#SVGID_8_)"/><path d="m64 30h415.452v110h-415.452z" fill="url(#SVGID_8_)"/><path d="m479.45 30v110h-40.02v-31.193c0-18.942-15.355-34.297-34.297-34.297h-341.133v-44.51z" fill="url(#SVGID_10_)"/><path d="m81.507 84.307c-.381 20.067 16.429 36.493 36.5 36.493h357.593c13.586 0 24.6 11.014 24.6 24.6 0 13.586-11.014 24.6-24.6 24.6h-380.8c-46.95 0-85-38.06-85-85s38.05-85 85-85h380.8c13.586 0 24.6 11.014 24.6 24.6 0 13.586-11.014 24.6-24.6 24.6h-358.31c-19.539 0-35.414 15.657-35.783 35.107z" fill="url(#SVGID_11_)"/><g><path d="m475.6 120.8h-40.02c13.586 0 24.6 11.014 24.6 24.6 0 13.586-11.014 24.6-24.6 24.6h40.02c13.586 0 24.6-11.014 24.6-24.6 0-13.586-11.014-24.6-24.6-24.6z" fill="url(#SVGID_12_)"/><path d="m81.507 84.307c.369-19.45 16.244-35.107 35.783-35.107h-40.02c-19.539 0-35.414 15.657-35.783 35.107-.381 20.067 16.429 36.493 36.5 36.493h40.02c-20.071 0-36.881-16.425-36.5-36.493z" fill="url(#SVGID_13_)"/><path d="m475.6 0h-40.02c13.586 0 24.6 11.014 24.6 24.6 0 13.586-11.014 24.6-24.6 24.6h40.02c13.586 0 24.6-11.014 24.6-24.6 0-13.586-11.014-24.6-24.6-24.6z" fill="url(#SVGID_14_)"/></g></g><g><path d="m64 370h415.452v110h-415.452z" fill="url(#SVGID_15_)"/><path d="m64 370h415.452v110h-415.452z" fill="url(#SVGID_15_)"/><path d="m64 370v44.51l22.899.015c14.74.009 26.685 11.961 26.685 26.702v38.773h89.434v-65.458l202.115-.032c18.942 0 34.297 15.355 34.297 34.297v31.193h40.02v-110z" fill="url(#SVGID_17_)"/><path d="m81.507 424.307c-.381 20.067 16.429 36.493 36.5 36.493h357.593c13.586 0 24.6 11.014 24.6 24.6 0 13.586-11.014 24.6-24.6 24.6h-380.8c-46.95 0-85-38.06-85-85s38.05-85 85-85h380.8c13.586 0 24.6 11.014 24.6 24.6 0 13.586-11.014 24.6-24.6 24.6h-358.31c-19.539 0-35.414 15.657-35.783 35.107z" fill="url(#SVGID_18_)"/><path d="m118.007 460.8c-1.495 0-2.969-.102-4.423-.279v37.949c0 7.389 8.933 11.089 14.158 5.865l19.239-19.239c5.363-5.363 14.057-5.363 19.42 0l22.459 22.459c5.225 5.225 14.158 1.524 14.158-5.864v-40.891z" fill="url(#SVGID_19_)"/><g><path d="m475.6 460.8h-40.02c13.586 0 24.6 11.014 24.6 24.6 0 13.586-11.014 24.6-24.6 24.6h40.02c13.586 0 24.6-11.014 24.6-24.6 0-13.586-11.014-24.6-24.6-24.6z" fill="url(#SVGID_20_)"/><path d="m81.507 424.307c.369-19.45 16.245-35.107 35.783-35.107h-40.02c-19.539 0-35.414 15.657-35.783 35.107-.381 20.067 16.429 36.493 36.5 36.493h40.02c-20.071 0-36.881-16.425-36.5-36.493z" fill="url(#SVGID_21_)"/><path d="m475.6 340h-40.02c13.586 0 24.6 11.014 24.6 24.6 0 13.586-11.014 24.6-24.6 24.6h40.02c13.586 0 24.6-11.014 24.6-24.6 0-13.586-11.014-24.6-24.6-24.6z" fill="url(#SVGID_22_)"/></g></g><path d="m191.412 471.993 22.459 22.459c5.225 5.225 14.158 1.524 14.158-5.864v-74.046h-89.434v70.826c0 7.389 8.933 11.089 14.158 5.864l19.239-19.239c5.363-5.363 14.058-5.363 19.42 0z" fill="url(#SVGID_23_)"/></g></svg>