<svg id="Capa_1" enable-background="new 0 0 510.903 510.903" height="512" viewBox="0 0 510.903 510.903" width="512" xmlns="http://www.w3.org/2000/svg" xmlns:xlink="http://www.w3.org/1999/xlink"><linearGradient id="lg1"><stop offset="0" stop-color="#f9f3f1"/><stop offset=".5725" stop-color="#efe2dd"/><stop offset="1" stop-color="#cdbfba"/></linearGradient><linearGradient id="SVGID_1_" gradientUnits="userSpaceOnUse" x1=".451" x2="573.086" xlink:href="#lg1" y1="255" y2="255"/><linearGradient id="SVGID_2_" gradientUnits="userSpaceOnUse" x1="-17.918" x2="205.644" xlink:href="#lg1" y1="170" y2="170"/><linearGradient id="SVGID_3_" gradientUnits="userSpaceOnUse" x1="207.071" x2="364.82" xlink:href="#lg1" y1="255" y2="255"/><linearGradient id="lg2"><stop offset="0" stop-color="#6bd9e7"/><stop offset=".5725" stop-color="#26a6fe"/><stop offset="1" stop-color="#0172fb"/></linearGradient><linearGradient id="SVGID_4_" gradientUnits="userSpaceOnUse" x1=".451" x2="255.452" xlink:href="#lg2" y1="298.449" y2="298.449"/><linearGradient id="lg3"><stop offset="0" stop-color="#fe646f"/><stop offset=".5725" stop-color="#fb2b3a"/><stop offset="1" stop-color="#c41926"/></linearGradient><linearGradient id="SVGID_5_" gradientUnits="userSpaceOnUse" x1="240.069" x2="553.381" xlink:href="#lg3" y1="298.449" y2="298.449"/><linearGradient id="SVGID_6_" gradientUnits="userSpaceOnUse" x1="204.071" x2="489.829" xlink:href="#lg3" y1="298.901" y2="298.901"/><linearGradient id="SVGID_7_" gradientUnits="userSpaceOnUse" x1="-34.549" x2="178.848" xlink:href="#lg2" y1="213.449" y2="213.449"/><g><path d="m340.451 39.152v215.848c0 46.944-38.056 85-85 85-46.944 0-85-38.056-85-85v-215.848c0-21.623-17.529-39.152-39.152-39.152h-91.695c-21.623 0-39.153 17.529-39.153 39.152v215.848c0 140.832 114.167 255 255 255h.001c140.832 0 255-114.167 255-255v-215.848c-.001-21.623-17.53-39.152-39.153-39.152h-91.695c-21.623 0-39.153 17.529-39.153 39.152z" fill="url(#SVGID_1_)"/><path d="m170.451 255v-215.848c0-21.623-17.529-39.152-39.152-39.152h-40.02c21.623 0 39.152 17.529 39.152 39.152v215.848c0 46.944 38.056 85 85 85 6.895 0 13.591-.842 20.01-2.391-37.284-9.001-64.99-42.56-64.99-82.609z" fill="url(#SVGID_2_)"/><path d="m471.299 0h-40.02c21.623 0 39.152 17.529 39.152 39.152v215.848c0 134.098-103.511 244.015-234.99 254.222 6.603.512 13.275.778 20.01.778 140.832 0 255-114.167 255-255v-215.848c0-21.623-17.529-39.152-39.152-39.152z" fill="url(#SVGID_3_)"/><path d="m255.451 340c-46.944 0-85-38.056-85-85v-168.101h-170v168.101c0 140.833 114.167 255 255 255z" fill="url(#SVGID_4_)"/><path d="m255.451 340c46.944 0 85-38.056 85-85v-168.101h170v168.101c0 140.833-114.167 255-255 255z" fill="url(#SVGID_5_)"/><path d="m510.451 255v-168.101h-40.02v168.101c0 127.215-93.162 235.795-214.98 255 140.833 0 255-114.167 255-255z" fill="url(#SVGID_6_)"/><path d="m170.451 255v-168.101h-40.02v168.101c0 46.944 38.056 85 85 85 6.895 0 13.591-.842 20.01-2.391-37.284-9.001-64.99-42.56-64.99-82.609z" fill="url(#SVGID_7_)"/><g><path d="m437.388 198.522-25.06-45.637v44.845c0 4.221-5.144 6.331-10.288 6.331s-10.288-2.11-10.288-6.331v-83.755c0-4.353 5.144-6.331 10.288-6.331 7.386 0 10.156.66 15.168 10.288l21.367 40.756v-44.845c0-4.353 5.144-6.199 10.288-6.199s10.288 1.846 10.288 6.199v83.887c0 4.221-5.144 6.331-10.288 6.331-4.748.001-8.969-.922-11.475-5.539z" fill="#f9f3f1"/></g><path d="m97.257 177.946c0-15.959-41.812-13.19-41.812-44.054 0-19.785 17.279-27.303 33.766-27.303 6.99 0 26.248 1.319 26.248 11.607 0 3.561-2.375 10.815-8.178 10.815-4.748 0-7.254-5.012-18.07-5.012-9.365 0-13.19 3.825-13.19 7.914 0 13.19 41.812 10.684 41.812 43.922 0 18.993-13.849 29.281-32.974 29.281-17.279 0-31.787-8.441-31.787-17.147 0-4.485 3.957-11.079 8.969-11.079 6.199 0 10.156 9.76 22.423 9.76 6.066.001 12.793-2.373 12.793-8.704z" fill="#f9f3f1"/></g></svg>