<svg id="Capa_1" enable-background="new 0 0 510 510" height="512" viewBox="0 0 510 510" width="512" xmlns="http://www.w3.org/2000/svg" xmlns:xlink="http://www.w3.org/1999/xlink"><linearGradient id="lg1"><stop offset="0" stop-color="#fe646f"/><stop offset=".5725" stop-color="#fb2b3a"/><stop offset="1" stop-color="#c41926"/></linearGradient><linearGradient id="SVGID_1_" gradientUnits="userSpaceOnUse" x1="154.667" x2="400.019" xlink:href="#lg1" y1="255" y2="255"/><linearGradient id="SVGID_2_" gradientUnits="userSpaceOnUse" x1="121" x2="359.649" xlink:href="#lg1" y1="255" y2="255"/><linearGradient id="SVGID_3_" gradientUnits="userSpaceOnUse" x1="-21.368" x2="551.334" y1="255" y2="255"><stop offset="0" stop-color="#537983"/><stop offset="1" stop-color="#3e5959"/></linearGradient><linearGradient id="lg2"><stop offset="0" stop-color="#6bd9e7"/><stop offset=".5725" stop-color="#26a6fe"/><stop offset="1" stop-color="#0172fb"/></linearGradient><linearGradient id="SVGID_4_" gradientUnits="userSpaceOnUse" x1="3" x2="80.318" xlink:href="#lg2" y1="385.693" y2="385.693"/><linearGradient id="SVGID_5_" gradientUnits="userSpaceOnUse" x1="-29" x2="77.321" xlink:href="#lg2" y1="387.393" y2="387.393"/><linearGradient id="lg3"><stop offset="0" stop-color="#7acaa6"/><stop offset=".5725" stop-color="#09a76d"/><stop offset="1" stop-color="#026841"/></linearGradient><linearGradient id="SVGID_6_" gradientUnits="userSpaceOnUse" x1="120.945" x2="198.263" xlink:href="#lg3" y1="83.81" y2="83.81"/><linearGradient id="SVGID_7_" gradientUnits="userSpaceOnUse" x1="88.945" x2="195.266" xlink:href="#lg3" y1="85.51" y2="85.51"/><linearGradient id="lg4"><stop offset="0" stop-color="#fdb4ba"/><stop offset=".5725" stop-color="#bd80e1"/><stop offset="1" stop-color="#9857bd"/></linearGradient><linearGradient id="SVGID_8_" gradientUnits="userSpaceOnUse" x1="408.345" x2="485.662" xlink:href="#lg4" y1="401.212" y2="401.212"/><linearGradient id="SVGID_9_" gradientUnits="userSpaceOnUse" x1="376.345" x2="482.665" xlink:href="#lg4" y1="402.912" y2="402.912"/><linearGradient id="lg5"><stop offset="0" stop-color="#537983"/><stop offset="1" stop-color="#384949"/></linearGradient><linearGradient id="SVGID_10_" gradientUnits="userSpaceOnUse" x1="-86" x2="382.053" xlink:href="#lg5" y1="118.806" y2="118.806"/><linearGradient id="SVGID_11_" gradientUnits="userSpaceOnUse" x1="-86" x2="382.053" xlink:href="#lg5" y1="275.618" y2="275.618"/><linearGradient id="SVGID_12_" gradientUnits="userSpaceOnUse" x1="-86" x2="382.053" xlink:href="#lg5" y1="219.169" y2="219.169"/><linearGradient id="SVGID_13_" gradientUnits="userSpaceOnUse" x1="-86" x2="382.053" xlink:href="#lg5" y1="108.805" y2="108.805"/><linearGradient id="SVGID_14_" gradientUnits="userSpaceOnUse" x1="-14" x2="462.4" xlink:href="#lg5" y1="448.858" y2="448.858"/><linearGradient id="SVGID_15_" gradientUnits="userSpaceOnUse" x1="-14" x2="462.4" xlink:href="#lg5" y1="368.284" y2="368.284"/><linearGradient id="SVGID_16_" gradientUnits="userSpaceOnUse" x1="-14" x2="462.4" xlink:href="#lg5" y1="417.651" y2="417.651"/><linearGradient id="SVGID_17_" gradientUnits="userSpaceOnUse" x1="-14" x2="462.4" xlink:href="#lg5" y1="278.771" y2="278.771"/><linearGradient id="lg6"><stop offset="0" stop-color="#ffe177"/><stop offset=".5725" stop-color="#feb137"/><stop offset="1" stop-color="#fe646f"/></linearGradient><linearGradient id="SVGID_18_" gradientUnits="userSpaceOnUse" x1="438.89" x2="516.207" xlink:href="#lg6" y1="144.698" y2="144.698"/><linearGradient id="SVGID_19_" gradientUnits="userSpaceOnUse" x1="406.89" x2="513.21" xlink:href="#lg6" y1="146.398" y2="146.398"/><g><g><circle cx="255" cy="255" fill="url(#SVGID_1_)" r="100"/><path d="m255 155c-6.854 0-13.546.691-20.012 2.005 45.639 9.27 79.988 49.621 79.988 97.995s-34.349 88.725-79.988 97.995c6.466 1.314 13.158 2.005 20.012 2.005 55.228 0 100-44.771 100-100s-44.771-100-100-100z" fill="url(#SVGID_2_)"/></g><path d="m474.221 124.742c-20.686-34.815-63.015-52.392-115.045-52.821-26.945-44.51-63.679-71.921-104.176-71.921s-77.23 27.411-104.176 71.922c-52.03.428-94.359 18.006-115.045 52.821-21.281 35.815-15.591 83.025 10.776 130.257-26.367 47.232-32.057 94.442-10.776 130.258 20.686 34.815 63.015 52.392 115.045 52.821 26.946 44.51 63.679 71.921 104.176 71.921s77.23-27.411 104.176-71.922c52.03-.428 94.359-18.006 115.045-52.821 21.281-35.816 15.591-83.026-10.776-130.258 26.368-47.231 32.058-94.441 10.776-130.257zm-56.959-16.925c15.948 6.936 27.88 16.927 35.467 29.696s10.656 28.026 9.123 45.349c-1.31 14.801-6.082 31.096-13.909 47.688-13.779-19.385-30.906-38.435-50.941-56.352-5.497-28.049-13.771-53.932-24.275-76.69 16.732 1.324 31.908 4.817 44.535 10.309zm-72.504 304.923c-16.891-.925-34.541-3.692-52.737-8.279 13.192-6.101 26.38-13.026 39.437-20.784 11.752-6.983 22.959-14.385 33.589-22.116-5.431 18.606-12.223 35.74-20.289 51.179zm-179.516 0c-8.065-15.439-14.858-32.573-20.29-51.178 10.631 7.731 21.837 15.133 33.589 22.116 13.057 7.758 26.245 14.683 39.437 20.784-18.195 4.586-35.845 7.353-52.736 8.278zm0-315.48c16.891.925 34.541 3.692 52.737 8.279-13.192 6.101-26.38 13.026-39.437 20.784-11.752 6.983-22.959 14.385-33.589 22.116 5.431-18.606 12.224-35.74 20.289-51.179zm-58.066 197.914c-12.205-13.085-22.741-26.526-31.489-40.174 8.748-13.648 19.284-27.089 31.489-40.174-1.216 13.088-1.855 26.503-1.855 40.174.001 13.671.64 27.086 1.855 40.174zm84.136 67.011c-19.95-11.854-38.465-25.082-55.308-39.474-3.769-21.831-5.683-44.505-5.683-67.711s1.914-45.88 5.683-67.711c16.843-14.392 35.357-27.62 55.308-39.474 20.778-12.346 42.118-22.621 63.688-30.685 21.57 8.063 42.91 18.339 63.688 30.684 19.95 11.854 38.465 25.082 55.308 39.474 3.769 21.831 5.683 44.505 5.683 67.711s-1.914 45.88-5.683 67.711c-16.843 14.392-35.358 27.62-55.308 39.474-20.777 12.347-42.118 22.622-63.688 30.686-21.57-8.064-42.91-18.339-63.688-30.685zm153.446-264.925c8.066 15.439 14.858 32.573 20.29 51.178-10.63-7.731-21.837-15.133-33.589-22.116-13.057-7.758-26.245-14.683-39.437-20.784 18.195-4.586 35.845-7.353 52.736-8.278zm58.066 117.567c12.205 13.085 22.742 26.525 31.489 40.173-8.748 13.648-19.284 27.089-31.49 40.174 1.216-13.088 1.855-26.503 1.855-40.174.001-13.671-.638-27.085-1.854-40.173zm-191.47-174.505c14.109-10.167 28.794-15.322 43.646-15.322s29.537 5.155 43.646 15.322c11.171 8.05 21.926 19.313 31.612 33.02-23.982 2.496-49.396 8.249-75.258 17.229-25.862-8.98-51.277-14.733-75.259-17.229 9.687-13.708 20.442-24.971 31.613-33.02zm-163.206 142.539c-1.533-17.323 1.536-32.58 9.123-45.349 7.587-12.768 19.52-22.759 35.467-29.696 12.627-5.492 27.803-8.985 44.535-10.31-10.504 22.758-18.779 48.641-24.275 76.69-20.035 17.917-37.162 36.967-50.941 56.352-7.827-16.591-12.599-32.886-13.909-47.687zm44.591 219.322c-15.948-6.936-27.88-16.927-35.467-29.696s-10.656-28.026-9.123-45.349c1.31-14.801 6.081-31.096 13.909-47.688 13.779 19.385 30.906 38.435 50.941 56.352 5.497 28.049 13.771 53.932 24.275 76.69-16.732-1.324-31.909-4.817-44.535-10.309zm205.907 67.495c-14.109 10.167-28.793 15.322-43.646 15.322-14.852 0-29.537-5.155-43.646-15.322-11.171-8.05-21.926-19.313-31.612-33.02 23.982-2.496 49.396-8.249 75.259-17.229 25.862 8.98 51.277 14.733 75.259 17.229-9.687 13.707-20.442 24.97-31.614 33.02zm163.206-142.54c1.533 17.323-1.536 32.581-9.123 45.349s-19.52 22.759-35.467 29.696c-12.627 5.492-27.803 8.984-44.535 10.31 10.504-22.758 18.779-48.641 24.275-76.69 20.035-17.917 37.162-36.967 50.941-56.352 7.828 16.592 12.599 32.887 13.909 47.687z" fill="url(#SVGID_3_)"/><g><circle cx="37.054" cy="385.693" fill="url(#SVGID_4_)" r="37.053"/><path d="m74.11 385.693c0 20.46-16.59 37.05-37.06 37.05-12.68 0-23.87-6.37-30.54-16.08 1.51.16 3.05.24 4.6.24 23.8 0 43.1-19.3 43.1-43.1 0-4.08-.57-8.03-1.63-11.76 12.71 5.87 21.53 18.73 21.53 33.65z" fill="url(#SVGID_5_)"/></g><g><circle cx="154.999" cy="83.81" fill="url(#SVGID_6_)" r="37.053"/><path d="m192.055 83.81c0 20.46-16.59 37.05-37.06 37.05-12.68 0-23.87-6.37-30.54-16.08 1.51.16 3.05.24 4.6.24 23.8 0 43.1-19.3 43.1-43.1 0-4.08-.57-8.03-1.63-11.76 12.71 5.87 21.53 18.73 21.53 33.65z" fill="url(#SVGID_7_)"/></g><g><circle cx="442.398" cy="401.212" fill="url(#SVGID_8_)" r="37.053"/><path d="m479.455 401.212c0 20.46-16.59 37.05-37.06 37.05-12.68 0-23.87-6.37-30.54-16.08 1.51.16 3.05.24 4.6.24 23.8 0 43.1-19.3 43.1-43.1 0-4.08-.57-8.03-1.63-11.76 12.71 5.87 21.53 18.73 21.53 33.65z" fill="url(#SVGID_9_)"/></g><g><path d="m279.126 109.074c-7.927 2.4-15.915 5.112-23.933 8.131 11.538 4.32 23.006 9.292 34.361 14.857 12.635-3.694 25.039-6.545 37.139-8.53-11.489-6.633-23.067-12.626-34.648-17.982-4.279 1.078-8.584 2.246-12.919 3.524z" fill="url(#SVGID_10_)"/><path d="m67.816 268.188c-2.073 3.76-3.992 7.519-5.759 11.263 4.002 5.63 8.295 11.231 12.851 16.785.833-1.612 1.685-3.224 2.574-4.837 3.348-6.073 7.064-12.113 11.113-18.111-4.652-6.046-8.971-12.144-12.909-18.288-2.804 4.377-5.436 8.774-7.87 13.188z" fill="url(#SVGID_11_)"/><path d="m107.176 214.827c-1.098 11.824-1.721 23.917-1.832 36.222 6.467-7.754 13.51-15.404 21.115-22.919 1.677-1.658 3.383-3.298 5.102-4.929.945-12.18 2.417-24.171 4.444-35.911-6.67 5.699-13.086 11.576-19.212 17.63-3.316 3.276-6.514 6.581-9.617 9.907z" fill="url(#SVGID_12_)"/><path d="m372.727 97.507c-5.398-.427-10.955-.633-16.644-.602-3.732.02-7.511.146-11.324.356 3.834 7.34 7.371 15.074 10.621 23.156 3.489-.177 6.949-.283 10.37-.301 5.641-.03 11.152.173 16.507.593-2.93-8.042-6.11-15.79-9.53-23.202z" fill="url(#SVGID_13_)"/></g><g><path d="m179.742 436.658c.578-.06 1.161-.131 1.741-.195-10.515 1.16-20.761 1.7-30.656 1.619 5.054 8.348 10.453 16.095 16.156 23.172 10.177-.19 20.694-1.017 31.47-2.482-6.535-6.354-12.821-13.779-18.711-22.114z" fill="url(#SVGID_14_)"/><path d="m350.395 401.212c12.895-8.098 25.091-16.691 36.529-25.667 3.988-12.647 7.372-25.93 10.078-39.742.166-.148.327-.297.492-.446-10.095 9.059-20.925 17.833-32.448 26.213-4.115 14.092-9.014 27.336-14.651 39.642z" fill="url(#SVGID_15_)"/><path d="m255.154 419.481c13.373 4.637 26.623 8.405 39.62 11.312 12.655-5.575 25.326-11.922 37.902-19.023-13.108-1.363-26.622-3.782-40.456-7.261-12.254 5.711-24.63 10.712-37.066 14.972z" fill="url(#SVGID_16_)"/><path d="m463.446 255c.145-.26.281-.52.425-.78-4.703 8.5-10.071 17.002-16.08 25.442.05-.071.103-.141.153-.211 3.809 8.074 6.888 16.075 9.203 23.87 6.347-8.876 11.986-17.824 16.886-26.766-3.037-7.158-6.568-14.356-10.587-21.555z" fill="url(#SVGID_17_)"/></g><g><circle cx="472.943" cy="144.698" fill="url(#SVGID_18_)" r="37.053"/><path d="m510 144.698c0 20.46-16.59 37.05-37.06 37.05-12.68 0-23.87-6.37-30.54-16.08 1.51.16 3.05.24 4.6.24 23.8 0 43.1-19.3 43.1-43.1 0-4.08-.57-8.03-1.63-11.76 12.71 5.87 21.53 18.73 21.53 33.65z" fill="url(#SVGID_19_)"/></g></g></svg>