<svg id="Capa_1" enable-background="new 0 0 510 510" height="512" viewBox="0 0 510 510" width="512" xmlns="http://www.w3.org/2000/svg" xmlns:xlink="http://www.w3.org/1999/xlink"><linearGradient id="lg1"><stop offset="0" stop-color="#537983"/><stop offset="1" stop-color="#3e5959"/></linearGradient><linearGradient id="SVGID_1_" gradientUnits="userSpaceOnUse" x1="125" x2="385" xlink:href="#lg1" y1="52.207" y2="52.207"/><linearGradient id="SVGID_2_" gradientUnits="userSpaceOnUse" x1="125" x2="385" xlink:href="#lg1" y1="127.81" y2="127.81"/><linearGradient id="SVGID_3_" gradientUnits="userSpaceOnUse" x1="125" x2="385" xlink:href="#lg1" y1="382.19" y2="382.19"/><linearGradient id="SVGID_4_" gradientUnits="userSpaceOnUse" x1="125" x2="385" xlink:href="#lg1" y1="457.793" y2="457.793"/><linearGradient id="lg2"><stop offset="0" stop-color="#537983"/><stop offset="1" stop-color="#384949"/></linearGradient><linearGradient id="SVGID_5_" gradientUnits="userSpaceOnUse" x1="72" x2="393.044" xlink:href="#lg2" y1="52.21" y2="52.21"/><linearGradient id="SVGID_6_" gradientUnits="userSpaceOnUse" x1="72" x2="393.044" xlink:href="#lg2" y1="127.81" y2="127.81"/><linearGradient id="SVGID_7_" gradientUnits="userSpaceOnUse" x1="72" x2="393.044" xlink:href="#lg2" y1="382.19" y2="382.19"/><linearGradient id="SVGID_8_" gradientUnits="userSpaceOnUse" x1="72" x2="393.044" xlink:href="#lg2" y1="457.79" y2="457.79"/><linearGradient id="lg3"><stop offset="0" stop-color="#fe646f"/><stop offset=".5725" stop-color="#fb2b3a"/><stop offset="1" stop-color="#c41926"/></linearGradient><linearGradient id="SVGID_9_" gradientUnits="userSpaceOnUse" x1="42" x2="486.882" xlink:href="#lg3" y1="255" y2="255"/><linearGradient id="SVGID_10_" gradientUnits="userSpaceOnUse" x1="-125.417" x2="391.021" xlink:href="#lg3" y1="255" y2="255"/><linearGradient id="lg4"><stop offset="0" stop-color="#6bd9e7"/><stop offset=".5725" stop-color="#26a6fe"/><stop offset="1" stop-color="#0172fb"/></linearGradient><linearGradient id="SVGID_11_" gradientUnits="userSpaceOnUse" x1="34" x2="515.348" xlink:href="#lg4" y1="255" y2="255"/><linearGradient id="SVGID_12_" gradientUnits="userSpaceOnUse" x1="-122.417" x2="433.4" xlink:href="#lg4" y1="255" y2="255"/><linearGradient id="lg5"><stop offset="0" stop-color="#ffe177"/><stop offset=".5725" stop-color="#feb137"/><stop offset="1" stop-color="#fe646f"/></linearGradient><linearGradient id="SVGID_13_" gradientUnits="userSpaceOnUse" x1="280.693" x2="358.01" xlink:href="#lg5" y1="52.207" y2="52.207"/><linearGradient id="SVGID_14_" gradientUnits="userSpaceOnUse" x1="248.693" x2="355.013" xlink:href="#lg5" y1="53.907" y2="53.907"/><linearGradient id="SVGID_15_" gradientUnits="userSpaceOnUse" x1="198.252" x2="275.57" xlink:href="#lg5" y1="127.81" y2="127.81"/><linearGradient id="SVGID_16_" gradientUnits="userSpaceOnUse" x1="166.252" x2="272.572" xlink:href="#lg5" y1="129.51" y2="129.51"/><linearGradient id="SVGID_17_" gradientUnits="userSpaceOnUse" x1="220.945" x2="298.263" xlink:href="#lg5" y1="382.19" y2="382.19"/><linearGradient id="SVGID_18_" gradientUnits="userSpaceOnUse" x1="188.945" x2="295.265" xlink:href="#lg5" y1="383.89" y2="383.89"/><g><g><g><g><g><path d="m125 39.707h260v25h-260z" fill="url(#SVGID_1_)"/></g></g><g><g><path d="m125 115.31h260v25h-260z" fill="url(#SVGID_2_)"/></g></g></g><g><g><g><path d="m125 369.69h260v25h-260z" fill="url(#SVGID_3_)"/></g></g><g><g><path d="m125 445.293h260v25h-260z" fill="url(#SVGID_4_)"/></g></g></g></g><g><g><g><g><path d="m345.07 39.71h39.93v25h-39.93z" fill="url(#SVGID_5_)"/></g></g><g><g><path d="m385 115.31v25h-64.15c7.73-7.56 13.77-16.02 17.87-25z" fill="url(#SVGID_6_)"/></g></g></g><g><g><g><path d="m385 369.69v25h-46.28c-4.1-8.98-10.14-17.44-17.87-25z" fill="url(#SVGID_7_)"/></g></g><g><g><path d="m345.07 445.29h39.93v25h-39.93z" fill="url(#SVGID_8_)"/></g></g></g></g><path d="m379.674 300.254-204.869-150.896c-22.173-16.331-34.89-39.062-34.89-62.363v-69.249c0-9.801-7.945-17.746-17.746-17.746h-39.508c-9.801 0-17.746 7.945-17.746 17.746v69.249c0 47.392 23.842 92.133 65.411 122.75l204.869 150.896c22.173 16.331 34.89 39.062 34.89 62.363v69.249c0 9.801 7.945 17.746 17.746 17.746h39.508c9.801 0 17.746-7.945 17.746-17.746v-69.249c0-47.391-23.842-92.132-65.411-122.75z" fill="url(#SVGID_9_)"/><path d="m379.674 300.254-204.869-150.896c-22.173-16.331-34.89-39.062-34.89-62.363v-69.249c0-9.801-7.945-17.746-17.746-17.746h-39.508c-.086 0-.17.012-.256.013 9.682.138 17.49 8.019 17.49 17.733v69.249c0 23.301 12.717 46.032 34.89 62.363l163.15 120.168-43.093 31.931 21.068 15.518 22.486-16.662c12.248-9.075 28.983-9.099 41.257-.059 41.569 30.617 65.411 75.358 65.411 122.75v69.249c0 9.714-7.808 17.595-17.49 17.733.086.001.17.013.256.013h39.508c9.801 0 17.746-7.945 17.746-17.746v-69.249c.001-47.391-23.841-92.132-65.41-122.75z" fill="url(#SVGID_10_)"/><path d="m130.326 300.254 204.869-150.896c22.173-16.331 34.89-39.062 34.89-62.363v-69.249c0-9.801 7.945-17.746 17.746-17.746h39.508c9.801 0 17.746 7.945 17.746 17.746v69.249c0 47.392-23.842 92.133-65.411 122.75l-204.869 150.897c-22.173 16.331-34.89 39.062-34.89 62.363v69.249c0 9.801-7.945 17.746-17.746 17.746h-39.508c-9.801 0-17.746-7.945-17.746-17.746v-69.249c0-47.392 23.842-92.133 65.411-122.751z" fill="url(#SVGID_11_)"/><path d="m427.339 0h-39.508c-.086 0-.17.012-.256.013 9.682.138 17.49 8.019 17.49 17.733v69.249c0 47.392-23.842 92.133-65.411 122.75l-204.869 150.897c-22.173 16.331-34.89 39.062-34.89 62.363v69.249c0 9.714-7.808 17.595-17.49 17.733.086.001.17.013.256.013h39.508c9.801 0 17.746-7.945 17.746-17.746v-69.249c0-23.301 12.717-46.032 34.89-62.363l204.869-150.896c41.569-30.617 65.411-75.358 65.411-122.75v-69.25c0-9.801-7.945-17.746-17.746-17.746z" fill="url(#SVGID_12_)"/><g><circle cx="314.746" cy="52.207" fill="url(#SVGID_13_)" r="37.053"/><path d="m351.803 52.207c0 20.46-16.59 37.05-37.06 37.05-12.68 0-23.87-6.37-30.54-16.08 1.51.16 3.05.24 4.6.24 23.8 0 43.1-19.3 43.1-43.1 0-4.08-.57-8.03-1.63-11.76 12.71 5.87 21.53 18.73 21.53 33.65z" fill="url(#SVGID_14_)"/></g><g><circle cx="232.306" cy="127.81" fill="url(#SVGID_15_)" r="37.053"/><path d="m269.362 127.81c0 20.46-16.59 37.05-37.06 37.05-12.68 0-23.87-6.37-30.54-16.08 1.51.16 3.05.24 4.6.24 23.8 0 43.1-19.3 43.1-43.1 0-4.08-.57-8.03-1.63-11.76 12.71 5.87 21.53 18.73 21.53 33.65z" fill="url(#SVGID_16_)"/></g><g><circle cx="254.998" cy="382.19" fill="url(#SVGID_17_)" r="37.053"/><path d="m292.055 382.19c0 20.46-16.59 37.05-37.06 37.05-12.68 0-23.87-6.37-30.54-16.08 1.51.16 3.05.24 4.6.24 23.8 0 43.1-19.3 43.1-43.1 0-4.08-.57-8.03-1.63-11.76 12.71 5.87 21.53 18.73 21.53 33.65z" fill="url(#SVGID_18_)"/></g></g></svg>