<svg id="Capa_1" enable-background="new 0 0 510 510" height="512" viewBox="0 0 510 510" width="512" xmlns="http://www.w3.org/2000/svg" xmlns:xlink="http://www.w3.org/1999/xlink"><linearGradient id="lg1"><stop offset="0" stop-color="#ffe177"/><stop offset=".5725" stop-color="#feb137"/><stop offset="1" stop-color="#fe646f"/></linearGradient><linearGradient id="SVGID_1_" gradientUnits="userSpaceOnUse" x1="-15" x2="56.795" xlink:href="#lg1" y1="412.694" y2="412.694"/><linearGradient id="SVGID_2_" gradientUnits="userSpaceOnUse" x1="370.5" x2="456.709" xlink:href="#lg1" y1="32.683" y2="32.683"/><linearGradient id="lg2"><stop offset="0" stop-color="#537983"/><stop offset="1" stop-color="#3e5959"/></linearGradient><linearGradient id="SVGID_3_" gradientUnits="userSpaceOnUse" x1="-2" x2="327.97" xlink:href="#lg2" y1="356.18" y2="356.18"/><linearGradient id="lg3"><stop offset="0" stop-color="#537983"/><stop offset="1" stop-color="#384949"/></linearGradient><linearGradient id="SVGID_4_" gradientUnits="userSpaceOnUse" x1="56" x2="261.412" xlink:href="#lg3" y1="356.173" y2="356.173"/><linearGradient id="lg4"><stop offset="0" stop-color="#fff"/><stop offset="1" stop-color="#f9f3f1"/></linearGradient><linearGradient id="SVGID_5_" gradientUnits="userSpaceOnUse" x1="43" x2="266.379" xlink:href="#lg4" y1="360.527" y2="360.527"/><linearGradient id="SVGID_6_" gradientUnits="userSpaceOnUse" x1="195" x2="542.052" xlink:href="#lg2" y1="152.959" y2="152.959"/><linearGradient id="SVGID_7_" gradientUnits="userSpaceOnUse" x1="259" x2="454.256" xlink:href="#lg4" y1="158.101" y2="158.101"/><linearGradient id="SVGID_8_" gradientUnits="userSpaceOnUse" x1="158" x2="248.733" xlink:href="#lg1" y1="206.73" y2="206.73"/><linearGradient id="SVGID_9_" gradientUnits="userSpaceOnUse" x1="126" x2="490.984" xlink:href="#lg3" y1="152.957" y2="152.957"/><linearGradient id="lg5"><stop offset="0" stop-color="#f9f3f1"/><stop offset=".5725" stop-color="#efe2dd"/><stop offset="1" stop-color="#cdbfba"/></linearGradient><linearGradient id="SVGID_10_" gradientUnits="userSpaceOnUse" x1="354.81" x2="458.093" xlink:href="#lg5" y1="158.103" y2="158.103"/><linearGradient id="SVGID_11_" gradientUnits="userSpaceOnUse" x1="142.726" x2="262.693" xlink:href="#lg5" y1="360.528" y2="360.528"/><g><g><path d="m65.366 424.747-15.669 15.669c-6.614 6.614-17.338 6.614-23.952 0l-20.784-20.784c-6.614-6.614-6.614-17.338 0-23.952l15.669-15.669z" fill="url(#SVGID_1_)"/><path d="m424.747 65.366 15.669-15.669c6.614-6.614 6.614-17.338 0-23.952l-20.784-20.784c-6.614-6.614-17.338-6.614-23.952 0l-15.669 15.669z" fill="url(#SVGID_2_)"/><g><g><path d="m275.702 435.535-45.742 45.742c-38.297 38.297-100.39 38.297-138.687 0l-79.263-79.263c-14.024-14.024-14.024-36.762 0-50.786l138.35-138.35c14.607-14.607 38.494-13.909 52.224 1.525l77.045 86.608c34.521 38.806 32.799 97.798-3.927 134.524z" fill="url(#SVGID_3_)"/><path d="m279.629 301.011-77.045-86.608c-12.149-13.657-32.248-15.766-46.836-5.952 2.456 1.652 4.753 3.632 6.816 5.952l9.904 11.133c-2.593 3.527-4.969 7.207-7.112 11.045-3.114 5.576-2.065 12.559 2.451 17.075 6.757 6.757 18.061 5.141 22.734-3.194.527-.94 1.077-1.859 1.638-2.769l47.43 53.318c34.521 38.806 32.799 97.798-3.927 134.524l-45.742 45.742c-14.03 14.03-31.257 22.897-49.334 26.648 31.268 6.487 65.086-2.38 89.354-26.648l45.742-45.742c36.726-36.726 38.448-95.718 3.927-134.524z" fill="url(#SVGID_4_)"/><path d="m239.393 413.083-30.295 30.295c-25.364 25.364-66.488 25.364-91.852 0l-52.495-52.495c-9.288-9.288-9.288-24.347 0-33.635l91.629-91.629c9.674-9.674 25.495-9.212 34.588 1.01l51.026 57.36c22.863 25.701 21.723 64.771-2.601 89.094z" fill="url(#SVGID_5_)"/></g><g><path d="m435.535 275.702 45.742-45.742c38.297-38.297 38.297-100.39 0-138.687l-79.263-79.263c-14.024-14.024-36.762-14.024-50.786 0l-138.35 138.35c-14.607 14.607-13.909 38.494 1.525 52.224l86.608 77.045c38.806 34.521 97.798 32.799 134.524-3.927z" fill="url(#SVGID_6_)"/><path d="m413.083 239.393 30.295-30.295c25.364-25.364 25.364-66.488 0-91.852l-52.495-52.495c-9.288-9.288-24.347-9.288-33.635 0l-91.629 91.629c-9.674 9.674-9.212 25.495 1.01 34.588l57.36 51.026c25.701 22.863 64.771 21.723 89.094-2.601z" fill="url(#SVGID_7_)"/></g></g><path d="m179.326 234.164c6.757 6.757 18.061 5.141 22.734-3.194 3.436-6.128 7.583-11.631 12.431-16.479s10.351-8.995 16.479-12.431c8.335-4.674 9.951-15.977 3.194-22.734-4.516-4.516-11.499-5.565-17.075-2.451-8.394 4.688-16.075 10.44-22.924 17.289s-12.602 14.531-17.289 22.925c-3.115 5.576-2.066 12.559 2.45 17.075z" fill="url(#SVGID_8_)"/></g><path d="m481.277 91.272-79.263-79.262c-12.346-12.346-31.441-13.817-45.403-4.427 1.898 1.277 3.704 2.749 5.383 4.427l79.262 79.262c38.297 38.298 38.297 100.39 0 138.688l-45.742 45.742c-14.003 14.003-31.245 22.901-49.369 26.657 31.371 6.525 65.206-2.475 89.389-26.657l45.742-45.742c38.298-38.298 38.298-100.39.001-138.688z" fill="url(#SVGID_9_)"/><path d="m443.378 117.246-52.495-52.495c-7.961-7.961-20.151-9.076-29.323-3.391 1.53.948 2.985 2.064 4.312 3.391l52.495 52.495c25.364 25.364 25.364 66.488 0 91.852l-30.295 30.295c-9.467 9.467-21.169 15.404-33.446 17.8 20.566 4.027 42.632-1.975 58.457-17.8l30.295-30.295c25.364-25.364 25.364-66.487 0-91.852z" fill="url(#SVGID_10_)"/><path d="m241.994 323.989-51.026-57.36c-7.842-8.815-20.683-10.365-30.275-4.422 1.911 1.182 3.689 2.652 5.264 4.422l51.026 57.36c22.863 25.701 21.723 64.771-2.601 89.094l-30.295 30.295c-9.485 9.485-21.175 15.421-33.42 17.812 20.498 4.002 42.553-1.933 58.431-17.812l30.295-30.295c24.324-24.323 25.464-63.393 2.601-89.094z" fill="url(#SVGID_11_)"/><path d="m179.326 234.164c6.757 6.757 18.061 5.141 22.734-3.194 3.436-6.128 7.583-11.631 12.431-16.479s10.351-8.995 16.479-12.431c8.335-4.674 9.951-15.977 3.194-22.734-4.516-4.516-11.499-5.565-17.075-2.451-8.394 4.688-16.075 10.44-22.924 17.289s-12.602 14.531-17.289 22.925c-3.115 5.576-2.066 12.559 2.45 17.075z" fill="url(#SVGID_8_)"/></g></svg>