<svg id="Capa_1" enable-background="new 0 0 510 510" height="512" viewBox="0 0 510 510" width="512" xmlns="http://www.w3.org/2000/svg" xmlns:xlink="http://www.w3.org/1999/xlink"><linearGradient id="lg1"><stop offset="0" stop-color="#ffe177"/><stop offset=".5725" stop-color="#feb137"/><stop offset="1" stop-color="#fe646f"/></linearGradient><linearGradient id="SVGID_1_" gradientUnits="userSpaceOnUse" x1="-12" x2="504.14" xlink:href="#lg1" y1="255" y2="255"/><linearGradient id="SVGID_2_" gradientUnits="userSpaceOnUse" x1="-112" x2="343.742" xlink:href="#lg1" y1="255" y2="255"/><linearGradient id="SVGID_3_" gradientUnits="userSpaceOnUse" x1="48" x2="463.235" xlink:href="#lg1" y1="255" y2="255"/><linearGradient id="SVGID_4_" gradientUnits="userSpaceOnUse" x1="66.675" x2="430.728" y1="255" y2="255"><stop offset="0" stop-color="#fff"/><stop offset="1" stop-color="#f9f3f1"/></linearGradient><linearGradient id="SVGID_5_" gradientUnits="userSpaceOnUse" x1="53.614" x2="276.192" y1="226.182" y2="226.182"><stop offset="0" stop-color="#f9f3f1"/><stop offset=".5725" stop-color="#efe2dd"/><stop offset="1" stop-color="#cdbfba"/></linearGradient><linearGradient id="SVGID_6_" gradientTransform="matrix(-1 0 0 -1 510 -554)" gradientUnits="userSpaceOnUse" x1="-1.95" x2="175.048" y1="-809" y2="-809"><stop offset="0" stop-color="#f9f3f1"/><stop offset="1" stop-color="#efe2dd"/></linearGradient><linearGradient id="lg2"><stop offset="0" stop-color="#537983"/><stop offset="1" stop-color="#3e5959"/></linearGradient><linearGradient id="SVGID_7_" gradientUnits="userSpaceOnUse" x1="80" x2="426.578" xlink:href="#lg2" y1="102.214" y2="102.214"/><linearGradient id="SVGID_8_" gradientUnits="userSpaceOnUse" x1="80" x2="426.578" xlink:href="#lg2" y1="407.786" y2="407.786"/><linearGradient id="SVGID_9_" gradientUnits="userSpaceOnUse" x1="80" x2="426.578" xlink:href="#lg2" y1="255" y2="255"/><linearGradient id="SVGID_11_" gradientUnits="userSpaceOnUse" x1="80" x2="426.578" xlink:href="#lg2" y1="122.717" y2="122.717"/><linearGradient id="SVGID_12_" gradientUnits="userSpaceOnUse" x1="80" x2="426.578" xlink:href="#lg2" y1="387.283" y2="387.283"/><linearGradient id="SVGID_13_" gradientUnits="userSpaceOnUse" x1="80" x2="426.578" xlink:href="#lg2" y1="331.451" y2="331.451"/><linearGradient id="SVGID_14_" gradientUnits="userSpaceOnUse" x1="80" x2="426.578" xlink:href="#lg2" y1="178.549" y2="178.549"/><linearGradient id="lg3"><stop offset="0" stop-color="#7acaa6"/><stop offset=".5725" stop-color="#09a76d"/><stop offset="1" stop-color="#026841"/></linearGradient><linearGradient id="SVGID_19_" gradientUnits="userSpaceOnUse" x1="184" x2="310.509" xlink:href="#lg3" y1="150.056" y2="150.056"/><linearGradient id="SVGID_20_" gradientUnits="userSpaceOnUse" x1="139.333" x2="296.514" xlink:href="#lg3" y1="299.093" y2="299.093"/><linearGradient id="lg4"><stop offset="0" stop-color="#fe646f"/><stop offset=".5725" stop-color="#fb2b3a"/><stop offset="1" stop-color="#c41926"/></linearGradient><linearGradient id="SVGID_21_" gradientUnits="userSpaceOnUse" x1="220.945" x2="298.263" xlink:href="#lg4" y1="255" y2="255"/><linearGradient id="SVGID_22_" gradientUnits="userSpaceOnUse" x1="188.945" x2="295.265" xlink:href="#lg4" y1="256.7" y2="256.7"/><linearGradient id="lg5"><stop offset="0" stop-color="#537983"/><stop offset="1" stop-color="#384949"/></linearGradient><linearGradient id="SVGID_23_" gradientUnits="userSpaceOnUse" x1="196.667" x2="406.561" xlink:href="#lg5" y1="255" y2="255"/><linearGradient id="SVGID_24_" gradientUnits="userSpaceOnUse" x1="196.667" x2="406.561" xlink:href="#lg5" y1="111.002" y2="111.002"/><linearGradient id="SVGID_25_" gradientUnits="userSpaceOnUse" x1="196.667" x2="406.561" xlink:href="#lg5" y1="335.456" y2="335.456"/><linearGradient id="SVGID_26_" gradientUnits="userSpaceOnUse" x1="196.667" x2="406.561" xlink:href="#lg5" y1="174.544" y2="174.544"/><linearGradient id="SVGID_27_" gradientUnits="userSpaceOnUse" x1="196.667" x2="406.561" xlink:href="#lg5" y1="398.998" y2="398.998"/><g><g><g><circle cx="255" cy="255" fill="url(#SVGID_1_)" r="255"/><circle cx="229.989" cy="255" fill="url(#SVGID_2_)" r="179.861"/><path d="m255 0c-6.735 0-13.407.266-20.01.778 131.479 10.206 234.99 120.124 234.99 254.222s-103.511 244.016-234.99 254.222c6.603.512 13.275.778 20.01.778 140.833 0 255-114.167 255-255s-114.167-255-255-255z" fill="url(#SVGID_3_)"/></g></g><circle cx="255" cy="255" fill="url(#SVGID_4_)" r="179.861"/><path d="m267.928 99.63-20.654-24.284c-5.916-6.955-16.654-6.955-22.57 0l-31.803 37.393c-4.367 5.134-.718 13.028 6.022 13.028h17.209v122.967c-10.335 6.575-17.198 18.121-17.198 31.278 0 2.776.315 5.478.894 8.079l-36.421 36.421-12.169-12.169c-4.766-4.766-12.928-1.765-13.47 4.954l-3.952 48.929c-.735 9.101 6.858 16.695 15.959 15.96l48.929-3.952c6.718-.543 9.72-8.704 4.954-13.47l-12.169-12.169 36.421-36.422c4.135.92 8.521 1.173 13.06.554 17.454-2.38 31.034-17.012 32.012-34.601.779-14.026-6.253-26.465-17.136-33.39v-122.969c13.522 0 20.842-15.837 12.082-26.137z" fill="url(#SVGID_5_)"/><path d="m409.85 255c0 95.13-73.857 172.998-167.356 179.421 4.133.284 8.301.44 12.506.44 99.334 0 179.861-80.527 179.861-179.861s-80.527-179.861-179.861-179.861c-4.205 0-8.373.156-12.506.44 93.499 6.423 167.356 84.291 167.356 179.421z" fill="url(#SVGID_6_)"/><g><path d="m255 82.917c-5.531 0-10.015 4.484-10.015 10.015v18.564c0 5.531 4.484 10.015 10.015 10.015s10.015-4.484 10.015-10.015v-18.564c0-5.531-4.484-10.015-10.015-10.015z" fill="url(#SVGID_7_)"/><path d="m255 388.489c-5.531 0-10.015 4.484-10.015 10.015v18.564c0 5.531 4.484 10.015 10.015 10.015s10.015-4.484 10.015-10.015v-18.564c0-5.531-4.484-10.015-10.015-10.015z" fill="url(#SVGID_8_)"/><path d="m417.068 244.985h-18.564c-5.531 0-10.015 4.484-10.015 10.015s4.484 10.015 10.015 10.015h18.564c5.531 0 10.015-4.484 10.015-10.015s-4.484-10.015-10.015-10.015z" fill="url(#SVGID_9_)"/><path d="m121.511 255c0-5.531-4.484-10.015-10.015-10.015h-18.564c-5.531 0-10.015 4.484-10.015 10.015s4.484 10.015 10.015 10.015h18.564c5.531 0 10.015-4.484 10.015-10.015z" fill="url(#SVGID_9_)"/><path d="m341.106 106.01c-4.789-2.768-10.915-1.129-13.682 3.66l-9.289 16.073c-2.767 4.788-1.129 10.914 3.659 13.682 4.789 2.768 10.915 1.129 13.682-3.66l9.289-16.073c2.768-4.789 1.13-10.915-3.659-13.682z" fill="url(#SVGID_11_)"/><path d="m188.205 370.576c-4.789-2.768-10.915-1.129-13.682 3.66l-9.289 16.073c-2.767 4.789-1.129 10.914 3.66 13.682s10.915 1.129 13.682-3.66l9.289-16.073c2.767-4.789 1.129-10.915-3.66-13.682z" fill="url(#SVGID_12_)"/><path d="m400.331 327.425-16.073-9.289c-4.788-2.767-10.914-1.129-13.682 3.66s-1.129 10.915 3.66 13.682l16.073 9.289c4.788 2.767 10.914 1.129 13.682-3.66 2.767-4.789 1.128-10.915-3.66-13.682z" fill="url(#SVGID_13_)"/><path d="m135.765 174.523-16.073-9.289c-4.788-2.767-10.914-1.129-13.682 3.66s-1.129 10.914 3.66 13.682l16.073 9.289c4.788 2.767 10.914 1.129 13.682-3.66 2.767-4.789 1.128-10.915-3.66-13.682z" fill="url(#SVGID_14_)"/><path d="m125.742 318.135-16.073 9.289c-4.788 2.767-6.427 8.893-3.66 13.682s8.893 6.427 13.682 3.66l16.073-9.289c4.788-2.767 6.427-8.893 3.66-13.682s-8.893-6.427-13.682-3.66z" fill="url(#SVGID_13_)"/><path d="m384.258 191.865 16.073-9.289c4.789-2.767 6.427-8.893 3.66-13.682-2.768-4.789-8.893-6.427-13.682-3.66l-16.073 9.289c-4.788 2.767-6.427 8.893-3.66 13.682s8.893 6.427 13.682 3.66z" fill="url(#SVGID_14_)"/><path d="m335.477 374.235c-2.768-4.788-8.893-6.427-13.682-3.66-4.789 2.768-6.427 8.894-3.659 13.682l9.289 16.073c2.767 4.788 8.893 6.427 13.682 3.66 4.789-2.768 6.427-8.893 3.66-13.682z" fill="url(#SVGID_12_)"/><path d="m182.575 109.669c-2.767-4.788-8.893-6.427-13.682-3.66s-6.427 8.893-3.66 13.682l9.289 16.073c2.767 4.788 8.893 6.427 13.682 3.66s6.427-8.894 3.66-13.682z" fill="url(#SVGID_11_)"/></g><path d="m292.066 100.756h-17.209v154.237h-39.713v-154.237h-17.209c-6.74 0-10.389-7.894-6.022-13.028l31.803-37.393c5.916-6.955 16.654-6.955 22.57 0l31.803 37.393c4.366 5.134.717 13.028-6.023 13.028z" fill="url(#SVGID_19_)"/><path d="m170.25 287.331 12.169 12.169 58.536-58.536 28.081 28.081-58.536 58.537 12.169 12.169c4.766 4.766 1.764 12.928-4.954 13.47l-48.929 3.952c-9.101.735-16.695-6.858-15.959-15.959l3.952-48.929c.543-6.718 8.705-9.72 13.471-4.954z" fill="url(#SVGID_20_)"/><g><circle cx="254.998" cy="255" fill="url(#SVGID_21_)" r="37.053"/><path d="m292.055 255c0 20.46-16.59 37.05-37.06 37.05-12.68 0-23.87-6.37-30.54-16.08 1.51.16 3.05.24 4.6.24 23.8 0 43.1-19.3 43.1-43.1 0-4.08-.57-8.03-1.63-11.76 12.71 5.87 21.53 18.73 21.53 33.65z" fill="url(#SVGID_22_)"/></g><g><path d="m417.07 244.99h-7.49c.18 3.31.27 6.65.27 10.01s-.09 6.7-.27 10.01h7.49c5.53 0 10.01-4.48 10.01-10.01s-4.48-10.01-10.01-10.01z" fill="url(#SVGID_23_)"/><path d="m341.11 106.01c-3.28-1.89-7.18-1.73-10.2.11 5.15 3.48 10.1 7.23 14.84 11.22 1.19-4.29-.61-9-4.64-11.33z" fill="url(#SVGID_24_)"/><path d="m400.33 327.42-4.53-2.62c-2.61 6.2-5.56 12.22-8.82 18.04l3.33 1.93c4.79 2.76 10.91 1.13 13.68-3.66s1.13-10.92-3.66-13.69z" fill="url(#SVGID_25_)"/><path d="m390.31 165.23-3.33 1.93c3.26 5.82 6.21 11.84 8.82 18.04l4.53-2.62c4.79-2.77 6.43-8.9 3.66-13.69s-8.89-6.42-13.68-3.66z" fill="url(#SVGID_26_)"/><path d="m330.91 403.88c3.02 1.84 6.92 2 10.2.11 4.03-2.33 5.83-7.04 4.64-11.33-4.74 3.99-9.69 7.74-14.84 11.22z" fill="url(#SVGID_27_)"/></g></g></svg>