<svg id="Capa_1" enable-background="new 0 0 510 510" height="512" viewBox="0 0 510 510" width="512" xmlns="http://www.w3.org/2000/svg" xmlns:xlink="http://www.w3.org/1999/xlink"><linearGradient id="lg1"><stop offset="0" stop-color="#f9f3f1"/><stop offset=".5725" stop-color="#efe2dd"/><stop offset="1" stop-color="#cdbfba"/></linearGradient><linearGradient id="SVGID_1_" gradientUnits="userSpaceOnUse" x1="73.75" x2="161.733" xlink:href="#lg1" y1="98.087" y2="98.087"/><linearGradient id="lg2"><stop offset="0" stop-color="#6bd9e7"/><stop offset=".5725" stop-color="#26a6fe"/><stop offset="1" stop-color="#0172fb"/></linearGradient><linearGradient id="SVGID_2_" gradientUnits="userSpaceOnUse" x1="-6.25" x2="199.15" xlink:href="#lg2" y1="98.087" y2="98.087"/><linearGradient id="SVGID_3_" gradientUnits="userSpaceOnUse" x1="-39.158" x2="148.272" xlink:href="#lg2" y1="98.087" y2="98.087"/><linearGradient id="SVGID_5_" gradientUnits="userSpaceOnUse" x1="337.176" x2="481.36" xlink:href="#lg1" y1="98.193" y2="98.193"/><linearGradient id="SVGID_6_" gradientUnits="userSpaceOnUse" x1="331.031" x2="442.491" xlink:href="#lg1" y1="98.241" y2="98.241"/><linearGradient id="lg3"><stop offset="0" stop-color="#fe646f"/><stop offset=".5725" stop-color="#fb2b3a"/><stop offset="1" stop-color="#c41926"/></linearGradient><linearGradient id="SVGID_7_" gradientUnits="userSpaceOnUse" x1="266.176" x2="522.31" xlink:href="#lg3" y1="98.148" y2="98.148"/><linearGradient id="SVGID_8_" gradientUnits="userSpaceOnUse" x1="266.176" x2="522.31" xlink:href="#lg3" y1="98.235" y2="98.235"/><linearGradient id="SVGID_9_" gradientUnits="userSpaceOnUse" x1="307.176" x2="420.445" xlink:href="#lg3" y1="98.235" y2="98.235"/><linearGradient id="lg4"><stop offset="0" stop-color="#ffe177"/><stop offset=".5725" stop-color="#feb137"/><stop offset="1" stop-color="#fe646f"/></linearGradient><linearGradient id="SVGID_10_" gradientUnits="userSpaceOnUse" x1="46.559" x2="491.702" xlink:href="#lg4" y1="310.759" y2="310.759"/><linearGradient id="SVGID_11_" gradientUnits="userSpaceOnUse" x1="-33.273" x2="472.031" xlink:href="#lg4" y1="310.759" y2="310.759"/><linearGradient id="SVGID_12_" gradientUnits="userSpaceOnUse" x1="-81.27" x2="352.333" xlink:href="#lg4" y1="310.759" y2="310.759"/><linearGradient id="SVGID_13_" gradientUnits="userSpaceOnUse" x1="10.225" x2="304.856" xlink:href="#lg4" y1="310.759" y2="310.759"/><linearGradient id="SVGID_14_" gradientUnits="userSpaceOnUse" x1="181.176" x2="294.313" xlink:href="#lg1" y1="310.759" y2="310.759"/><g><g><path d="m264.583 196.174h-166.491l-95.766-171.296c-6.231-11.144 1.825-24.878 14.593-24.878h123.379c9.021 0 17.337 4.878 21.74 12.752z" fill="url(#SVGID_1_)"/><g><path d="m162.038 12.752c-4.402-7.874-12.719-12.752-21.74-12.752h-51.433c9.021 0 17.337 4.878 21.74 12.752l102.545 183.421h51.433z" fill="url(#SVGID_2_)"/><path d="m162.038 12.752c-4.402-7.874-12.719-12.752-21.74-12.752h-40.02c9.021 0 17.337 4.878 21.74 12.752l102.545 183.421h40.02z" fill="url(#SVGID_3_)"/><path d="m31.095 0h-14.176c-12.768 0-20.824 13.734-14.593 24.878l95.766 171.295h57.288l-102.545-183.421c-4.402-7.874-12.718-12.752-21.74-12.752z" fill="url(#SVGID_2_)"/></g></g><g><path d="m245.277 196.166 166.491.13 95.899-171.221c6.239-11.14-1.806-24.88-14.574-24.89l-123.378-.096c-9.021-.007-17.341 4.865-21.749 12.735z" fill="url(#SVGID_5_)"/><path d="m493.094.186h-40.02c12.768.01 20.814 13.75 14.574 24.89l-95.882 171.189 40.002.031 95.899-171.221c6.24-11.14-1.805-24.879-14.573-24.889z" fill="url(#SVGID_6_)"/><g><path d="m421.148.13-51.433-.04c-9.021-.007-17.341 4.865-21.75 12.736l-102.688 183.34 51.433.04 102.689-183.341c4.408-7.871 12.728-12.742 21.749-12.735z" fill="url(#SVGID_7_)"/><path d="m493.094.186-14.176-.011c-9.021-.007-17.341 4.865-21.75 12.735l-102.688 183.341 57.288.045 95.899-171.221c6.24-11.14-1.805-24.879-14.573-24.889z" fill="url(#SVGID_8_)"/><path d="m493.094.186h-.041l-14.135-.011c-5.242-.004-10.24 1.648-14.379 4.57 5.23 4.975 7.111 13.185 3.109 20.331l-95.882 171.189 40.002.031 95.899-171.221c6.24-11.14-1.805-24.879-14.573-24.889z" fill="url(#SVGID_9_)"/></g></g><g><circle cx="255.176" cy="310.759" fill="url(#SVGID_10_)" r="199.241"/><path d="m255.176 111.518c-6.754 0-13.429.34-20.01.997 100.641 10.037 179.231 94.961 179.231 198.244s-78.59 188.207-179.231 198.244c6.581.656 13.256.997 20.01.997 110.038 0 199.241-89.203 199.241-199.241s-89.204-199.241-199.241-199.241z" fill="url(#SVGID_11_)"/><circle cx="255.176" cy="310.759" fill="url(#SVGID_12_)" r="140.726"/><path d="m255.176 170.033c-6.794 0-13.473.492-20.01 1.423 68.242 9.716 120.716 68.377 120.716 139.304s-52.474 129.588-120.716 139.304c6.537.931 13.216 1.423 20.01 1.423 77.721 0 140.726-63.005 140.726-140.726s-63.005-140.728-140.726-140.728z" fill="url(#SVGID_13_)"/></g><path d="m259.085 196.206c-3.437 0-6.563.625-9.063 2.188l-41.258 25.005c-6.251 3.75-9.064 10.002-9.064 16.566 0 9.689 6.251 19.378 15.316 19.378 2.187 0 5.001-.625 7.814-2.5l9.064-5.626v159.093c0 10.002 12.189 15.003 24.379 15.003s24.38-5.001 24.38-15.003v-198.788c-.001-9.377-11.566-15.316-21.568-15.316z" fill="url(#SVGID_14_)"/></g></svg>