<svg id="Capa_1" enable-background="new 0 0 510 510" height="512" viewBox="0 0 510 510" width="512" xmlns="http://www.w3.org/2000/svg" xmlns:xlink="http://www.w3.org/1999/xlink"><linearGradient id="lg1"><stop offset="0" stop-color="#f9f3f1"/><stop offset=".5725" stop-color="#efe2dd"/><stop offset="1" stop-color="#cdbfba"/></linearGradient><linearGradient id="SVGID_1_" gradientUnits="userSpaceOnUse" x1="107.5" x2="225.335" xlink:href="#lg1" y1="327.826" y2="327.826"/><linearGradient id="SVGID_2_" gradientUnits="userSpaceOnUse" x1="33" x2="210.248" xlink:href="#lg1" y1="327.825" y2="327.825"/><linearGradient id="lg2"><stop offset="0" stop-color="#ffe177"/><stop offset=".5725" stop-color="#feb137"/><stop offset="1" stop-color="#fe646f"/></linearGradient><linearGradient id="SVGID_3_" gradientUnits="userSpaceOnUse" x1="1" x2="205.883" xlink:href="#lg2" y1="414.341" y2="414.341"/><linearGradient id="SVGID_4_" gradientUnits="userSpaceOnUse" x1="-43" x2="196.253" xlink:href="#lg2" y1="414.341" y2="414.341"/><linearGradient id="SVGID_5_" gradientUnits="userSpaceOnUse" x1="141.57" x2="507.542" y1="183.727" y2="183.727"><stop offset="0" stop-color="#537983"/><stop offset="1" stop-color="#3e5959"/></linearGradient><linearGradient id="lg3"><stop offset="0" stop-color="#537983"/><stop offset="1" stop-color="#384949"/></linearGradient><linearGradient id="SVGID_6_" gradientUnits="userSpaceOnUse" x1="293.64" x2="496.637" xlink:href="#lg3" y1="183.727" y2="183.727"/><linearGradient id="SVGID_7_" gradientUnits="userSpaceOnUse" x1="83" x2="370.021" xlink:href="#lg3" y1="183.727" y2="183.727"/><linearGradient id="SVGID_8_" gradientUnits="userSpaceOnUse" x1="204" x2="402.003" y1="183.727" y2="183.727"><stop offset="0" stop-color="#fff"/><stop offset="1" stop-color="#f9f3f1"/></linearGradient><linearGradient id="SVGID_9_" gradientUnits="userSpaceOnUse" x1="295" x2="431.092" y1="183.727" y2="183.727"><stop offset="0" stop-color="#f9f3f1"/><stop offset="1" stop-color="#efe2dd"/></linearGradient><g><path d="m171.07 396.209-56.538-56.538 80.228-80.227 56.537 56.537z" fill="url(#SVGID_1_)"/><path d="m251.3 315.98-80.23 80.23-17.68-17.68 38.95-38.96c-4.11-3.44-8.09-7.09-11.95-10.95-9.4-9.4-17.57-19.57-24.5-30.31l38.87-38.87z" fill="url(#SVGID_2_)"/><path d="m16.571 492.688c-22.095-22.095-22.095-57.917 0-80.012l76.681-76.681c22.095-22.095 57.917-22.095 80.012 0 22.095 22.095 22.095 57.917 0 80.012l-76.681 76.681c-22.095 22.095-57.917 22.095-80.012 0z" fill="url(#SVGID_3_)"/><path d="m173.265 335.995c-16.228-16.228-39.856-20.521-60.016-12.911 7.289 2.751 14.129 7.044 19.996 12.911 22.095 22.095 22.095 57.917 0 80.012l-76.682 76.681c-5.867 5.867-12.707 10.16-19.996 12.911 20.16 7.609 43.788 3.316 60.016-12.911l76.682-76.681c22.094-22.095 22.094-57.918 0-80.012z" fill="url(#SVGID_4_)"/><circle cx="327.014" cy="183.727" fill="url(#SVGID_5_)" r="182.986"/><path d="m456.405 54.336c-40.828-40.828-96.148-58.316-149.401-52.492 39.955 4.37 78.748 21.859 109.381 52.492 71.461 71.461 71.461 187.321 0 258.782-30.633 30.633-69.425 48.121-109.381 52.492 53.253 5.825 108.573-11.664 149.401-52.492 71.46-71.461 71.46-187.321 0-258.782z" fill="url(#SVGID_6_)"/><circle cx="302.003" cy="183.727" fill="url(#SVGID_7_)" r="120.543"/><circle cx="327.014" cy="183.727" fill="url(#SVGID_8_)" r="120.543"/><path d="m412.25 98.49c-26.723-26.723-62.87-38.268-97.742-34.652 26.559 2.754 52.379 14.3 72.731 34.652 47.075 47.075 47.075 123.399 0 170.474-20.352 20.352-46.172 31.898-72.731 34.652 34.872 3.616 71.02-7.929 97.742-34.652 47.075-47.075 47.075-123.399 0-170.474z" fill="url(#SVGID_9_)"/></g></svg>