<svg id="Capa_1" enable-background="new 0 0 510 510" height="512" viewBox="0 0 510 510" width="512" xmlns="http://www.w3.org/2000/svg" xmlns:xlink="http://www.w3.org/1999/xlink"><linearGradient id="lg1"><stop offset="0" stop-color="#f9f3f1"/><stop offset=".5725" stop-color="#efe2dd"/><stop offset="1" stop-color="#cdbfba"/></linearGradient><linearGradient id="SVGID_1_" gradientUnits="userSpaceOnUse" x1="43.654" x2="282.501" xlink:href="#lg1" y1="261.018" y2="261.018"/><linearGradient id="SVGID_2_" gradientUnits="userSpaceOnUse" x1="-109.675" x2="208.719" xlink:href="#lg1" y1="261.026" y2="261.026"/><linearGradient id="lg2"><stop offset="0" stop-color="#537983"/><stop offset="1" stop-color="#3e5959"/></linearGradient><linearGradient id="SVGID_3_" gradientUnits="userSpaceOnUse" x1="197.38" x2="272.053" xlink:href="#lg2" y1="63.797" y2="63.797"/><linearGradient id="lg3"><stop offset="0" stop-color="#ffe177"/><stop offset=".5725" stop-color="#feb137"/><stop offset="1" stop-color="#fe646f"/></linearGradient><linearGradient id="SVGID_4_" gradientUnits="userSpaceOnUse" x1="327.223" x2="464.128" xlink:href="#lg3" y1="184.691" y2="184.691"/><linearGradient id="SVGID_5_" gradientUnits="userSpaceOnUse" x1="270.562" x2="458.82" xlink:href="#lg3" y1="187.701" y2="187.701"/><linearGradient id="SVGID_6_" gradientUnits="userSpaceOnUse" x1="201.38" x2="467.405" xlink:href="#lg2" y1="130.072" y2="130.072"/><linearGradient id="SVGID_7_" gradientUnits="userSpaceOnUse" x1="-.237" x2="174.341" xlink:href="#lg2" y1="255" y2="255"/><linearGradient id="lg4"><stop offset="0" stop-color="#537983"/><stop offset="1" stop-color="#384949"/></linearGradient><linearGradient id="SVGID_8_" gradientUnits="userSpaceOnUse" x1="-30.513" x2="126.613" xlink:href="#lg4" y1="255" y2="255"/><linearGradient id="SVGID_9_" gradientUnits="userSpaceOnUse" x1="-85.533" x2="152.915" xlink:href="#lg4" y1="255" y2="255"/><linearGradient id="SVGID_10_" gradientUnits="userSpaceOnUse" x1="286" x2="334.508" y1="434.021" y2="434.021"><stop offset="0" stop-color="#fdb4ba"/><stop offset=".5725" stop-color="#bd80e1"/><stop offset="1" stop-color="#9857bd"/></linearGradient><linearGradient id="SVGID_11_" gradientUnits="userSpaceOnUse" x1="138" x2="376.891" xlink:href="#lg2" y1="472.01" y2="472.01"/><linearGradient id="SVGID_12_" gradientUnits="userSpaceOnUse" x1="179.147" x2="348.674" xlink:href="#lg4" y1="472.01" y2="472.01"/><linearGradient id="SVGID_13_" gradientUnits="userSpaceOnUse" x1="427" x2="519.179" xlink:href="#lg3" y1="218.419" y2="218.419"/><linearGradient id="SVGID_14_" gradientUnits="userSpaceOnUse" x1="427" x2="519.179" xlink:href="#lg3" y1="278.572" y2="278.572"/><linearGradient id="SVGID_15_" gradientUnits="userSpaceOnUse" x1="427" x2="519.179" xlink:href="#lg3" y1="260.954" y2="260.954"/><linearGradient id="SVGID_16_" gradientUnits="userSpaceOnUse" x1="188.147" x2="460.63" xlink:href="#lg4" y1="130.072" y2="130.072"/><g><path d="m255.014 499.512c-7.804 0-15.557-3.305-20.996-9.725l-183.846-217.011c-8.841-10.437-8.669-25.783.404-36.019l181.701-204.976c10.075-11.364 27.455-12.41 38.821-2.337 11.365 10.075 12.411 27.456 2.336 38.821l-165.892 187.143 168.44 198.827c9.817 11.588 8.382 28.94-3.207 38.758-5.167 4.378-11.481 6.519-17.761 6.519z" fill="url(#SVGID_1_)"/><path d="m275.982 454.235-168.44-198.827 165.893-187.142c10.075-11.365 9.029-28.746-2.336-38.821-8.516-7.548-20.401-8.829-30.067-4.227-.018-.006-.036-.012-.036-.012-3.224 1.539-6.199 3.735-8.718 6.576l-44.466 50.162c2.215 9.091 6.872 17.708 13.972 24.809l4.789 4.789c-.891 2.22-1.7 4.466-2.468 6.721l-91.884 103.653c-10.573-7.486-23.272-12.165-37.021-12.936l-24.625 27.779c-9.073 10.235-9.245 25.582-.404 36.019l57.746 68.164c10.444-6.315 19.122-15.246 25.151-25.876l117.902 139.171c9.817 11.588 8.382 28.94-3.207 38.758-1.657 1.404-3.442 2.553-5.296 3.5 3.909 1.999 8.218 3.019 12.545 3.019 6.281 0 12.595-2.141 17.762-6.519 11.59-9.819 13.026-27.172 3.208-38.76z" fill="url(#SVGID_2_)"/><g><path d="m330.427 52.851-74.743 74.743-37.371-37.371c-20.64-20.64-20.64-54.103 0-74.743 20.64-20.64 54.103-20.64 74.743 0z" fill="url(#SVGID_3_)"/><g><circle cx="387.521" cy="184.691" fill="url(#SVGID_4_)" r="65.61"/><path d="m453.136 184.691c0 36.228-29.375 65.604-65.621 65.604-22.452 0-42.266-11.279-54.076-28.473 2.674.283 5.401.425 8.145.425 42.142 0 76.316-34.174 76.316-76.316 0-7.224-1.009-14.218-2.886-20.823 22.505 10.394 38.122 33.165 38.122 59.583z" fill="url(#SVGID_5_)"/></g><path d="m443.305 50.023c52.591 52.591-137.858 243.04-190.449 190.449s-52.591-137.858 0-190.449 137.858-52.591 190.449 0z" fill="url(#SVGID_6_)"/></g><g><circle cx="71.154" cy="255" fill="url(#SVGID_7_)" r="71.154"/><circle cx="71.154" cy="255" fill="url(#SVGID_8_)" r="41.667"/><path d="m71.154 183.846c-4.877 0-9.638.492-14.239 1.426 32.474 6.596 56.915 35.307 56.915 69.728s-24.441 63.132-56.915 69.728c4.601.935 9.363 1.426 14.239 1.426 39.297 0 71.154-31.857 71.154-71.154s-31.856-71.154-71.154-71.154z" fill="url(#SVGID_9_)"/></g><path d="m287.675 456.148v-32.351c0-9.813 7.955-17.768 17.768-17.768 9.813 0 17.768 7.955 17.768 17.768v32.351c0 3.239-2.626 5.865-5.865 5.865h-23.806c-3.239-.001-5.865-2.626-5.865-5.865z" fill="url(#SVGID_10_)"/><path d="m352.363 510h-194.726c-14.169 0-25.656-11.486-25.656-25.656 0-27.793 22.531-50.324 50.324-50.324h145.39c27.793 0 50.324 22.531 50.324 50.324 0 14.17-11.487 25.656-25.656 25.656z" fill="url(#SVGID_11_)"/><path d="m327.695 434.021h-40.02c27.793 0 50.324 22.531 50.324 50.324 0 14.169-11.486 25.656-25.656 25.656h40.02c14.169 0 25.656-11.486 25.656-25.656 0-27.794-22.531-50.324-50.324-50.324z" fill="url(#SVGID_12_)"/><g><path d="m500 208.419h-26.018c-5.523 0-10 4.477-10 10 0 5.523 4.477 10 10 10h26.018c5.523 0 10-4.477 10-10 0-5.523-4.477-10-10-10z" fill="url(#SVGID_13_)"/><path d="m426.839 255.563c-5.523 0-10 4.477-10 10v26.018c0 5.523 4.477 10 10 10 5.523 0 10-4.477 10-10v-26.018c0-5.523-4.477-10-10-10z" fill="url(#SVGID_14_)"/><path d="m467.245 244.684c-3.905-3.905-10.237-3.905-14.142 0s-3.905 10.237 0 14.142l18.397 18.397c3.905 3.905 10.237 3.905 14.142 0s3.905-10.237 0-14.142z" fill="url(#SVGID_15_)"/></g><path d="m443.305 50.023c-31.4-31.4-74.447-44.046-115.235-37.951 27.526 4.114 54.023 16.76 75.215 37.951 41.788 41.788-69.869 170.609-143.889 195.388 60.111 33.439 234.511-144.786 183.909-195.388z" fill="url(#SVGID_16_)"/></g></svg>