<svg id="Capa_1" enable-background="new 0 0 510 510" height="512" viewBox="0 0 510 510" width="512" xmlns="http://www.w3.org/2000/svg" xmlns:xlink="http://www.w3.org/1999/xlink"><linearGradient id="lg1"><stop offset="0" stop-color="#537983"/><stop offset="1" stop-color="#3e5959"/></linearGradient><linearGradient id="SVGID_1_" gradientUnits="userSpaceOnUse" x1="28.366" x2="107" xlink:href="#lg1" y1="118.909" y2="118.909"/><linearGradient id="SVGID_2_" gradientUnits="userSpaceOnUse" x1="-182.406" x2="75.076" xlink:href="#lg1" y1="168.447" y2="168.447"/><linearGradient id="SVGID_3_" gradientUnits="userSpaceOnUse" x1="403" x2="492.56" xlink:href="#lg1" y1="118.909" y2="118.909"/><linearGradient id="SVGID_4_" gradientUnits="userSpaceOnUse" x1="254.909" x2="512.391" xlink:href="#lg1" y1="168.447" y2="168.447"/><linearGradient id="lg2"><stop offset="0" stop-color="#ffe177"/><stop offset=".5725" stop-color="#feb137"/><stop offset="1" stop-color="#fe646f"/></linearGradient><linearGradient id="SVGID_5_" gradientUnits="userSpaceOnUse" x1="48" x2="471.001" xlink:href="#lg2" y1="174.226" y2="174.226"/><linearGradient id="SVGID_6_" gradientUnits="userSpaceOnUse" x1="-33.333" x2="418.021" xlink:href="#lg2" y1="174.225" y2="174.225"/><linearGradient id="lg3"><stop offset="0" stop-color="#6bd9e7"/><stop offset=".5725" stop-color="#26a6fe"/><stop offset="1" stop-color="#0172fb"/></linearGradient><linearGradient id="SVGID_7_" gradientUnits="userSpaceOnUse" x1="2.398" x2="280.744" xlink:href="#lg3" y1="146.606" y2="146.606"/><linearGradient id="SVGID_8_" gradientUnits="userSpaceOnUse" x1="161.129" x2="439.476" xlink:href="#lg3" y1="146.606" y2="146.606"/><linearGradient id="SVGID_9_" gradientUnits="userSpaceOnUse" x1="216" x2="393.011" xlink:href="#lg3" y1="146.606" y2="146.606"/><linearGradient id="SVGID_10_" gradientUnits="userSpaceOnUse" x1="100" x2="512.014" xlink:href="#lg2" y1="28.624" y2="28.624"/><linearGradient id="SVGID_11_" gradientUnits="userSpaceOnUse" x1="208" x2="436" xlink:href="#lg2" y1="28.624" y2="28.624"/><linearGradient id="lg4"><stop offset="0" stop-color="#f9f3f1"/><stop offset=".5725" stop-color="#efe2dd"/><stop offset="1" stop-color="#cdbfba"/></linearGradient><linearGradient id="SVGID_12_" gradientUnits="userSpaceOnUse" x1="166" x2="358.151" xlink:href="#lg4" y1="28.624" y2="28.624"/><linearGradient id="SVGID_13_" gradientUnits="userSpaceOnUse" x1="20" x2="252.261" xlink:href="#lg3" y1="146.606" y2="146.606"/><linearGradient id="SVGID_14_" gradientUnits="userSpaceOnUse" x1="38.512" x2="565" xlink:href="#lg2" y1="329.539" y2="329.539"/><linearGradient id="SVGID_15_" gradientUnits="userSpaceOnUse" x1="172" x2="476.056" xlink:href="#lg2" y1="329.539" y2="329.539"/><linearGradient id="SVGID_16_" gradientUnits="userSpaceOnUse" x1="50.512" x2="185.464" xlink:href="#lg1" y1="461.09" y2="461.09"/><linearGradient id="lg5"><stop offset="0" stop-color="#537983"/><stop offset="1" stop-color="#384949"/></linearGradient><linearGradient id="SVGID_17_" gradientUnits="userSpaceOnUse" x1="-41.734" x2="201.67" xlink:href="#lg5" y1="461.09" y2="461.09"/><linearGradient id="SVGID_18_" gradientUnits="userSpaceOnUse" x1="341" x2="475.952" xlink:href="#lg1" y1="461.09" y2="461.09"/><linearGradient id="SVGID_19_" gradientUnits="userSpaceOnUse" x1="248.753" x2="492.158" xlink:href="#lg5" y1="461.09" y2="461.09"/><linearGradient id="SVGID_20_" gradientUnits="userSpaceOnUse" x1="1.602" x2="539.627" xlink:href="#lg4" y1="408.992" y2="408.992"/><linearGradient id="SVGID_21_" gradientUnits="userSpaceOnUse" x1="198" x2="457.307" xlink:href="#lg4" y1="408.992" y2="408.992"/><linearGradient id="SVGID_22_" gradientUnits="userSpaceOnUse" x1="87.676" x2="164.993" xlink:href="#lg4" y1="310.777" y2="310.777"/><linearGradient id="SVGID_23_" gradientUnits="userSpaceOnUse" x1="49.676" x2="155.996" xlink:href="#lg4" y1="312.477" y2="312.477"/><linearGradient id="SVGID_24_" gradientUnits="userSpaceOnUse" x1="354.214" x2="431.532" xlink:href="#lg4" y1="310.777" y2="310.777"/><linearGradient id="SVGID_25_" gradientUnits="userSpaceOnUse" x1="311.214" x2="417.535" xlink:href="#lg4" y1="312.477" y2="312.477"/><linearGradient id="SVGID_26_" gradientUnits="userSpaceOnUse" x1="180" x2="332.643" xlink:href="#lg1" y1="304.198" y2="304.198"/><g><g><g><path d="m43.366 174.226h-15v-74.653c0-19.84 16.141-35.98 35.981-35.98h42.653v15h-42.653c-11.569 0-20.981 9.412-20.981 20.98z" fill="url(#SVGID_1_)"/><path d="m52.648 228.801h-32.611c-11.066 0-20.037-8.971-20.037-20.037v-80.635c0-11.066 8.971-20.037 20.037-20.037h32.611c11.066 0 20.037 8.971 20.037 20.037v80.635c0 11.066-8.971 20.037-20.037 20.037z" fill="url(#SVGID_2_)"/></g><g><path d="m466.634 174.226h15v-74.653c0-19.84-16.141-35.98-35.981-35.98h-42.653v15h42.653c11.569 0 20.981 9.412 20.981 20.98z" fill="url(#SVGID_3_)"/><path d="m489.963 228.801h-32.611c-11.066 0-20.037-8.971-20.037-20.037v-80.635c0-11.066 8.971-20.037 20.037-20.037h32.611c11.066 0 20.037 8.971 20.037 20.037v80.635c0 11.066-8.971 20.037-20.037 20.037z" fill="url(#SVGID_4_)"/></g><path d="m425.324 322.36h-340.648v-244.446c0-28.621 23.202-51.822 51.822-51.822h237.004c28.621 0 51.822 23.202 51.822 51.822z" fill="url(#SVGID_5_)"/><path d="m373.502 26.092-237.002-.002c-21.28 0-39.56 12.82-47.53 31.16-2.76 6.33-4.29 13.32-4.29 20.66v4.35h300.624v240.1h40.02v-244.446c0-28.62-23.201-51.822-51.822-51.822z" fill="url(#SVGID_6_)"/><g><g><path d="m224.634 210.962h-98c-10.355 0-18.75-8.395-18.75-18.75v-91.212c0-10.355 8.395-18.75 18.75-18.75h98c10.355 0 18.75 8.395 18.75 18.75v91.212c0 10.355-8.395 18.75-18.75 18.75z" fill="url(#SVGID_7_)"/><path d="m383.366 210.962h-98c-10.355 0-18.75-8.395-18.75-18.75v-91.212c0-10.355 8.395-18.75 18.75-18.75h98c10.355 0 18.75 8.395 18.75 18.75v91.212c0 10.355-8.395 18.75-18.75 18.75z" fill="url(#SVGID_8_)"/></g><path d="m402.116 192.212v-91.212c0-9.701-7.367-17.68-16.812-18.65v128.512c9.445-.97 16.812-8.949 16.812-18.65z" fill="url(#SVGID_9_)"/></g><path d="m378.571 0h-247.142c-23.168 0-42.931 15.446-50.614 37.147-3.474 9.813 3.913 20.1 14.323 20.1h319.725c10.41 0 17.797-10.286 14.323-20.1-7.684-21.701-27.447-37.147-50.615-37.147z" fill="url(#SVGID_10_)"/><path d="m429.185 37.147c-7.683-21.701-27.446-37.147-50.614-37.147h-40.02c23.168 0 42.931 15.446 50.614 37.147 3.474 9.813-3.913 20.1-14.323 20.1h40.02c10.411 0 17.797-10.287 14.323-20.1z" fill="url(#SVGID_11_)"/><path d="m328.494 46.334h-146.988c-9.781 0-17.71-7.929-17.71-17.71 0-9.781 7.929-17.71 17.71-17.71h146.988c9.781 0 17.71 7.929 17.71 17.71 0 9.781-7.929 17.71-17.71 17.71z" fill="url(#SVGID_12_)"/><path d="m224.634 82.25h-25.011c10.355 0 18.75 8.395 18.75 18.75v91.212c0 10.355-8.395 18.75-18.75 18.75h25.011c10.355 0 18.75-8.395 18.75-18.75v-91.212c0-10.355-8.395-18.75-18.75-18.75z" fill="url(#SVGID_13_)"/></g><path d="m459.488 421.949h-408.976v-100.854c0-46.373 37.592-83.965 83.965-83.965h241.045c46.373 0 83.965 37.592 83.965 83.965v100.854z" fill="url(#SVGID_14_)"/><path d="m375.523 237.13h-40.02c46.373 0 83.965 37.592 83.965 83.965v100.854h40.02v-100.854c0-46.373-37.593-83.965-83.965-83.965z" fill="url(#SVGID_15_)"/><g><path d="m139.298 510h-59.084c-16.404 0-29.702-13.298-29.702-29.702v-68.119h118.488v68.119c0 16.404-13.298 29.702-29.702 29.702z" fill="url(#SVGID_16_)"/><path d="m128.98 412.179v.003h-78.47v60.69h71.044c4.101 0 7.426 3.325 7.426 7.426 0 16.404-13.298 29.702-29.702 29.702h40.02c16.404 0 29.702-13.298 29.702-29.702v-7.426-60.69-.003z" fill="url(#SVGID_17_)"/></g><g><path d="m429.786 510h-59.084c-16.404 0-29.702-13.298-29.702-29.702v-68.119h118.488v68.119c0 16.404-13.298 29.702-29.702 29.702z" fill="url(#SVGID_18_)"/><path d="m419.468 412.179v.003h-78.47v60.69h71.044c4.101 0 7.426 3.325 7.426 7.426 0 16.404-13.298 29.702-29.702 29.702h40.02c16.404 0 29.702-13.298 29.702-29.702v-7.426-60.69-.003z" fill="url(#SVGID_19_)"/></g><g><path d="m478.077 447.858h-446.154c-17.631 0-31.923-14.292-31.923-31.922v-13.887c0-17.63 14.292-31.923 31.923-31.923h446.154c17.63 0 31.923 14.292 31.923 31.923v13.887c0 17.63-14.292 31.922-31.923 31.922z" fill="url(#SVGID_20_)"/><path d="m478.077 370.126h-41.025c17.63 0 31.923 14.292 31.923 31.923v13.887c0 17.63-14.292 31.923-31.923 31.923h41.025c17.63 0 31.923-14.292 31.923-31.923v-13.887c0-17.631-14.292-31.923-31.923-31.923z" fill="url(#SVGID_21_)"/></g><g><circle cx="121.729" cy="310.777" fill="url(#SVGID_22_)" r="37.053"/><path d="m158.786 310.777c0 20.46-16.59 37.05-37.06 37.05-12.68 0-23.87-6.37-30.54-16.08 1.51.16 3.05.24 4.6.24 23.8 0 43.1-19.3 43.1-43.1 0-4.08-.57-8.03-1.63-11.76 12.71 5.87 21.53 18.73 21.53 33.65z" fill="url(#SVGID_23_)"/></g><g><circle cx="388.268" cy="310.777" fill="url(#SVGID_24_)" r="37.053"/><path d="m425.324 310.777c0 20.46-16.59 37.05-37.06 37.05-12.68 0-23.87-6.37-30.54-16.08 1.51.16 3.05.24 4.6.24 23.8 0 43.1-19.3 43.1-43.1 0-4.08-.57-8.03-1.63-11.76 12.71 5.87 21.53 18.73 21.53 33.65z" fill="url(#SVGID_25_)"/></g><g fill="url(#SVGID_26_)"><path d="m206.989 254.316c-6.904 0-12.5 5.596-12.5 12.5v74.765c0 6.904 5.596 12.5 12.5 12.5s12.5-5.596 12.5-12.5v-74.765c0-6.904-5.597-12.5-12.5-12.5z"/><path d="m255 254.316c-6.904 0-12.5 5.596-12.5 12.5v74.765c0 6.904 5.596 12.5 12.5 12.5s12.5-5.596 12.5-12.5v-74.765c0-6.904-5.596-12.5-12.5-12.5z"/><path d="m303.011 254.316c-6.904 0-12.5 5.596-12.5 12.5v74.765c0 6.904 5.596 12.5 12.5 12.5s12.5-5.596 12.5-12.5v-74.765c0-6.904-5.596-12.5-12.5-12.5z"/></g></g></svg>