<svg id="Capa_1" enable-background="new 0 0 510 510" height="512" viewBox="0 0 510 510" width="512" xmlns="http://www.w3.org/2000/svg" xmlns:xlink="http://www.w3.org/1999/xlink"><linearGradient id="lg1"><stop offset="0" stop-color="#f9f3f1"/><stop offset=".5725" stop-color="#efe2dd"/><stop offset="1" stop-color="#cdbfba"/></linearGradient><linearGradient id="SVGID_1_" gradientUnits="userSpaceOnUse" x1="255" x2="411.687" xlink:href="#lg1" y1="266.612" y2="266.612"/><linearGradient id="SVGID_2_" gradientUnits="userSpaceOnUse" x1="209.333" x2="361.917" xlink:href="#lg1" y1="145.89" y2="145.89"/><linearGradient id="lg2"><stop offset="0" stop-color="#537983"/><stop offset="1" stop-color="#3e5959"/></linearGradient><linearGradient id="SVGID_3_" gradientUnits="userSpaceOnUse" x1="55.638" x2="291.638" xlink:href="#lg2" y1="346.99" y2="346.99"/><linearGradient id="SVGID_4_" gradientUnits="userSpaceOnUse" x1="96" x2="382.116" xlink:href="#lg1" y1="407.853" y2="407.853"/><linearGradient id="SVGID_5_" gradientUnits="userSpaceOnUse" x1="61.6" x2="337.586" xlink:href="#lg1" y1="407.856" y2="407.856"/><linearGradient id="SVGID_6_" gradientUnits="userSpaceOnUse" x1="65.392" x2="452.535" xlink:href="#lg1" y1="472.01" y2="472.01"/><linearGradient id="SVGID_7_" gradientUnits="userSpaceOnUse" x1="233.491" x2="403.017" xlink:href="#lg1" y1="472.01" y2="472.01"/><linearGradient id="SVGID_8_" gradientUnits="userSpaceOnUse" x1="55.638" x2="145.157" xlink:href="#lg2" y1="247.222" y2="247.222"/><linearGradient id="SVGID_9_" gradientUnits="userSpaceOnUse" x1="259.59" x2="359.951" xlink:href="#lg1" y1="62.988" y2="62.988"/><linearGradient id="SVGID_10_" gradientUnits="userSpaceOnUse" x1="55.6" x2="316.936" xlink:href="#lg1" y1="156.345" y2="156.345"/><linearGradient id="SVGID_11_" gradientUnits="userSpaceOnUse" x1="13.5" x2="292.76" xlink:href="#lg1" y1="156.345" y2="156.345"/><linearGradient id="SVGID_12_" gradientUnits="userSpaceOnUse" x1="208.593" x2="349.889" xlink:href="#lg2" y1="70.979" y2="70.979"/><linearGradient id="lg3"><stop offset="0" stop-color="#ffe177"/><stop offset=".5725" stop-color="#feb137"/><stop offset="1" stop-color="#fe646f"/></linearGradient><linearGradient id="SVGID_13_" gradientUnits="userSpaceOnUse" x1="220.945" x2="298.263" xlink:href="#lg3" y1="375.964" y2="375.964"/><linearGradient id="SVGID_14_" gradientUnits="userSpaceOnUse" x1="188.945" x2="295.265" xlink:href="#lg3" y1="377.664" y2="377.664"/><g><path d="m255 423.299v-55c56.07 0 101.687-45.616 101.687-101.687s-45.617-101.686-101.687-101.686v-55c86.397 0 156.687 70.289 156.687 156.687s-70.29 156.686-156.687 156.686z" fill="url(#SVGID_1_)"/><path d="m350.49 142.46-39.38 39.39c-7.31-4.86-15.27-8.79-23.74-11.64-10.17-3.42-21.06-5.28-32.37-5.28v-55c26.76 0 51.97 6.74 74.03 18.62 7.54 4.06 14.72 8.72 21.46 13.91z" fill="url(#SVGID_2_)"/><g><g><path d="m279.138 359.49h-211c-6.904 0-12.5-5.596-12.5-12.5 0-6.904 5.596-12.5 12.5-12.5h211c6.904 0 12.5 5.596 12.5 12.5 0 6.904-5.596 12.5-12.5 12.5z" fill="url(#SVGID_3_)"/></g></g><path d="m183.651 360.036-78.996 136.827h300.69l-78.996-136.827c-31.71-54.925-110.988-54.925-142.698 0z" fill="url(#SVGID_4_)"/><path d="m326.349 360.036c-19.699-34.12-57.754-47.037-91.359-38.765 20.49 5.044 39.328 17.961 51.339 38.765l78.996 136.827h40.02z" fill="url(#SVGID_5_)"/><g><path d="m428.706 510h-347.412c-14.169 0-25.656-11.486-25.656-25.656 0-27.793 22.531-50.324 50.324-50.324h298.076c27.793 0 50.324 22.531 50.324 50.324 0 14.17-11.486 25.656-25.656 25.656z" fill="url(#SVGID_6_)"/><path d="m404.038 434.021h-40.02c27.793 0 50.324 22.531 50.324 50.324 0 14.169-11.486 25.656-25.656 25.656h40.02c14.169 0 25.656-11.486 25.656-25.656 0-27.794-22.531-50.324-50.324-50.324z" fill="url(#SVGID_7_)"/></g><g><path d="m93.145 295.379-30.748-30.748c-9.012-9.012-9.012-23.623 0-32.634l39.69-39.69 63.382 63.382-39.69 39.69c-9.012 9.012-23.622 9.012-32.634 0z" fill="url(#SVGID_8_)"/><path d="m312.197 14.831 30.748 30.748c9.012 9.012 9.012 23.623 0 32.634l-39.69 39.69-63.382-63.382 39.69-39.69c9.011-9.011 23.622-9.011 32.634 0z" fill="url(#SVGID_9_)"/><path d="m151.938 284.011-78.173-78.173c-6.061-6.061-6.061-15.889 0-21.951l155.208-155.207c6.061-6.061 15.889-6.061 21.951 0l78.173 78.173c6.061 6.061 6.061 15.889 0 21.951l-155.209 155.207c-6.061 6.061-15.889 6.061-21.95 0z" fill="url(#SVGID_10_)"/><path d="m329.096 106.852-78.172-78.172c-6.061-6.061-15.889-6.061-21.95 0l-9.035 9.035-11.305 11.305 64.38 64.38c8.689 8.689 8.689 22.776 0 31.465l-130.111 130.111 9.035 9.035c6.062 6.061 15.889 6.061 21.951 0l155.208-155.208c6.061-6.062 6.061-15.889-.001-21.951z" fill="url(#SVGID_11_)"/><g><g><path d="m332.608 137.641-112.473-112.474c-5.757-5.757-5.757-15.092 0-20.849 5.757-5.757 15.092-5.757 20.849 0l112.473 112.473c5.757 5.757 5.757 15.092 0 20.849-5.757 5.758-15.091 5.758-20.849.001z" fill="url(#SVGID_12_)"/></g></g></g><g><circle cx="254.998" cy="375.964" fill="url(#SVGID_13_)" r="37.053"/><path d="m292.055 375.964c0 20.46-16.59 37.05-37.06 37.05-12.68 0-23.87-6.37-30.54-16.08 1.51.16 3.05.24 4.6.24 23.8 0 43.1-19.3 43.1-43.1 0-4.08-.57-8.03-1.63-11.76 12.71 5.87 21.53 18.73 21.53 33.65z" fill="url(#SVGID_14_)"/></g></g></svg>