<svg id="Capa_1" enable-background="new 0 0 510 510" height="512" viewBox="0 0 510 510" width="512" xmlns="http://www.w3.org/2000/svg" xmlns:xlink="http://www.w3.org/1999/xlink"><linearGradient id="lg1"><stop offset="0" stop-color="#ffe177"/><stop offset=".5725" stop-color="#feb137"/><stop offset="1" stop-color="#fe646f"/></linearGradient><linearGradient id="SVGID_1_" gradientUnits="userSpaceOnUse" x1="289" x2="509.132" xlink:href="#lg1" y1="204.212" y2="204.212"/><linearGradient id="SVGID_2_" gradientUnits="userSpaceOnUse" x1="208" x2="484.045" xlink:href="#lg1" y1="204.212" y2="204.212"/><linearGradient id="SVGID_3_" gradientUnits="userSpaceOnUse" x1="45" x2="183.362" xlink:href="#lg1" y1="204.212" y2="204.212"/><linearGradient id="SVGID_4_" gradientUnits="userSpaceOnUse" x1="-95" x2="217.26" xlink:href="#lg1" y1="204.212" y2="204.212"/><linearGradient id="lg2"><stop offset="0" stop-color="#fdb4ba"/><stop offset=".5725" stop-color="#bd80e1"/><stop offset="1" stop-color="#9857bd"/></linearGradient><linearGradient id="SVGID_5_" gradientUnits="userSpaceOnUse" x1="213.01" x2="296.99" xlink:href="#lg2" y1="58.209" y2="58.209"/><linearGradient id="SVGID_6_" gradientUnits="userSpaceOnUse" x1="58.52" x2="469.431" xlink:href="#lg1" y1="274.961" y2="274.961"/><linearGradient id="SVGID_7_" gradientUnits="userSpaceOnUse" x1="66.573" x2="421.178" xlink:href="#lg1" y1="274.961" y2="274.961"/><linearGradient id="SVGID_8_" gradientUnits="userSpaceOnUse" x1="-1.479" x2="178.972" xlink:href="#lg2" y1="409.199" y2="409.199"/><linearGradient id="SVGID_9_" gradientUnits="userSpaceOnUse" x1="-30" x2="134.247" xlink:href="#lg2" y1="409.199" y2="409.199"/><linearGradient id="SVGID_10_" gradientUnits="userSpaceOnUse" x1="379" x2="520.283" xlink:href="#lg2" y1="409.199" y2="409.199"/><linearGradient id="SVGID_11_" gradientUnits="userSpaceOnUse" x1="324" x2="513.061" xlink:href="#lg2" y1="409.199" y2="409.199"/><linearGradient id="SVGID_12_" gradientUnits="userSpaceOnUse" x1="42.575" x2="505.838" xlink:href="#lg2" y1="408.424" y2="408.424"/><linearGradient id="SVGID_13_" gradientUnits="userSpaceOnUse" x1="114.571" x2="410.516" xlink:href="#lg2" y1="408.424" y2="408.424"/><linearGradient id="SVGID_14_" gradientUnits="userSpaceOnUse" x1="137" x2="373" y1="373.587" y2="373.587"><stop offset="0" stop-color="#f9f3f1"/><stop offset=".5725" stop-color="#efe2dd"/><stop offset="1" stop-color="#cdbfba"/></linearGradient><linearGradient id="lg3"><stop offset="0" stop-color="#537983"/><stop offset="1" stop-color="#3e5959"/></linearGradient><linearGradient id="SVGID_15_" gradientUnits="userSpaceOnUse" x1="180.282" x2="329.718" xlink:href="#lg3" y1="230.643" y2="230.643"/><linearGradient id="SVGID_16_" gradientTransform="matrix(1 0 0 -1 0 975.775)" gradientUnits="userSpaceOnUse" x1="121.353" x2="181.169" xlink:href="#lg1" y1="572.221" y2="572.221"/><linearGradient id="SVGID_17_" gradientTransform="matrix(1 0 0 -1 0 975.775)" gradientUnits="userSpaceOnUse" x1="91.556" x2="184.768" xlink:href="#lg1" y1="573.423" y2="573.423"/><linearGradient id="SVGID_18_" gradientUnits="userSpaceOnUse" x1="100.667" x2="387.383" xlink:href="#lg3" y1="189.425" y2="189.425"/><linearGradient id="SVGID_19_" gradientUnits="userSpaceOnUse" x1="100.667" x2="387.383" xlink:href="#lg3" y1="124.922" y2="124.922"/><linearGradient id="SVGID_20_" gradientUnits="userSpaceOnUse" x1="100.667" x2="387.383" xlink:href="#lg3" y1="89.422" y2="89.422"/><linearGradient id="SVGID_21_" gradientUnits="userSpaceOnUse" x1="100.667" x2="387.383" xlink:href="#lg3" y1="118.925" y2="118.925"/><linearGradient id="SVGID_22_" gradientUnits="userSpaceOnUse" x1="100.667" x2="387.383" xlink:href="#lg3" y1="180.666" y2="180.666"/><linearGradient id="SVGID_23_" gradientUnits="userSpaceOnUse" x1="100.667" x2="387.383" xlink:href="#lg3" y1="87.409" y2="87.409"/><linearGradient id="lg4"><stop offset="0" stop-color="#537983"/><stop offset="1" stop-color="#384949"/></linearGradient><linearGradient id="SVGID_24_" gradientUnits="userSpaceOnUse" x1="247.629" x2="359.731" xlink:href="#lg4" y1="121.43" y2="121.43"/><linearGradient id="SVGID_25_" gradientUnits="userSpaceOnUse" x1="266.667" x2="389.48" xlink:href="#lg4" y1="180.666" y2="180.666"/><g><g><path d="m448.642 408.424h-120.102v-369.785c0-21.34 17.299-38.639 38.639-38.639h42.823c21.34 0 38.639 17.299 38.639 38.639v369.785z" fill="url(#SVGID_1_)"/><path d="m410.003 0h-40.02c21.34 0 38.639 17.299 38.639 38.639v369.785h40.02v-369.785c0-21.34-17.299-38.639-38.639-38.639z" fill="url(#SVGID_2_)"/></g><g><path d="m181.46 408.424h-120.102v-369.785c0-21.34 17.3-38.639 38.639-38.639h42.823c21.34 0 38.639 17.299 38.639 38.639v369.785z" fill="url(#SVGID_3_)"/><path d="m142.821 0h-40.02c21.34 0 38.639 17.299 38.639 38.639v25.519c-47.116 20.414-80.082 67.322-80.082 121.941v222.325h80.082 40.02v-354.564-15.221c0-21.34-17.299-38.639-38.639-38.639z" fill="url(#SVGID_4_)"/></g><path d="m255 100.199c-23.153 0-41.989-18.837-41.989-41.99s18.835-41.99 41.989-41.99 41.99 18.836 41.99 41.989-18.837 41.991-41.99 41.991zm0-58.98c-9.368 0-16.989 7.621-16.989 16.989s7.621 16.99 16.989 16.99 16.99-7.622 16.99-16.99-7.622-16.989-16.99-16.989z" fill="url(#SVGID_5_)"/><path d="m419.165 496.673h-328.33v-310.574c0-73.371 59.479-132.85 132.85-132.85h62.63c73.371 0 132.85 59.479 132.85 132.85z" fill="url(#SVGID_6_)"/><path d="m286.315 53.248h-40.02c73.371 0 132.85 59.479 132.85 132.85v310.575h40.02v-310.574c0-73.372-59.479-132.851-132.85-132.851z" fill="url(#SVGID_7_)"/><path d="m130 483.908h-105.638c-13.455 0-24.362-10.907-24.362-24.362v-76.226c0-26.968 21.862-48.829 48.829-48.829h81.171z" fill="url(#SVGID_8_)"/><path d="m130 334.49h-38.261c-20.525 0-39.315 12.004-47.466 30.841-5.099 11.785-7.926 24.783-7.926 38.442v65.798c0 5.05.934 9.879 2.625 14.336h91.028z" fill="url(#SVGID_9_)"/><path d="m380 483.908h105.638c13.455 0 24.362-10.907 24.362-24.362v-76.226c0-26.968-21.861-48.829-48.829-48.829h-81.171z" fill="url(#SVGID_10_)"/><path d="m461.171 334.49h-25.011c26.968 0 48.829 21.862 48.829 48.829v76.227c0 13.455-10.907 24.362-24.362 24.362h25.011c13.455 0 24.362-10.907 24.362-24.362v-76.227c0-26.967-21.862-48.829-48.829-48.829z" fill="url(#SVGID_11_)"/><path d="m408.214 510h-306.428c-22.328 0-40.428-18.1-40.428-40.428v-65.799c0-53.53 43.395-96.925 96.925-96.925h193.433c53.53 0 96.925 43.395 96.925 96.925v65.799c.001 22.328-18.099 40.428-40.427 40.428z" fill="url(#SVGID_12_)"/><path d="m351.716 306.848h-40.02c53.531 0 96.926 43.395 96.926 96.926v65.798c0 22.328-18.1 40.428-40.428 40.428h40.02c22.328 0 40.428-18.1 40.428-40.428v-65.798c0-53.531-43.395-96.926-96.926-96.926z" fill="url(#SVGID_13_)"/><g><g><path d="m360.5 386.087h-211c-6.904 0-12.5-5.596-12.5-12.5 0-6.904 5.596-12.5 12.5-12.5h211c6.904 0 12.5 5.596 12.5 12.5 0 6.904-5.596 12.5-12.5 12.5z" fill="url(#SVGID_14_)"/></g></g><g><g><path d="m317.218 243.143h-124.436c-6.904 0-12.5-5.596-12.5-12.5 0-6.904 5.596-12.5 12.5-12.5h124.435c6.904 0 12.5 5.596 12.5 12.5.001 6.903-5.596 12.5-12.499 12.5z" fill="url(#SVGID_15_)"/></g></g><g><path d="m132.655 423.866c5.39 5.39 12.821 7.999 20.551 7.104 4.418-.511 8.641-2.241 12.157-4.966 12.057-9.344 12.867-26.836 2.428-37.274l-9.37-9.37c-4.527-4.528-11.868-4.528-16.395 0l-9.37 9.37c-9.688 9.687-9.688 25.449-.001 35.136z" fill="url(#SVGID_16_)"/><path d="m165.362 426.005c-1.385 1.073-2.883 1.986-4.456 2.737 1.171-3.095 1.816-6.447 1.816-9.952 0-15.543-12.6-28.143-28.143-28.143-1.306 0-2.589.096-3.848.269.596-.754 1.227-1.489 1.923-2.185l9.37-9.37c4.527-4.527 11.868-4.527 16.395 0l9.37 9.37c10.44 10.438 9.63 27.929-2.427 37.274z" fill="url(#SVGID_17_)"/></g><g><path d="m119.105 167.452c-3.976-1.184-8.146 1.083-9.325 5.054-3.062 10.306-4.613 20.973-4.613 31.706 0 4.143 3.357 7.5 7.5 7.5s7.5-3.357 7.5-7.5c0-9.286 1.343-18.517 3.992-27.435 1.18-3.97-1.083-8.145-5.054-9.325z" fill="url(#SVGID_18_)"/><path d="m155.161 108.593c-8.551 6.538-16.228 13.919-22.816 21.938-2.63 3.2-2.167 7.927 1.033 10.557 1.396 1.146 3.082 1.705 4.758 1.705 2.166 0 4.315-.934 5.799-2.738 5.858-7.13 12.701-13.705 20.338-19.545 3.29-2.517 3.918-7.224 1.402-10.514s-7.224-3.918-10.514-1.403z" fill="url(#SVGID_19_)"/><path d="m226.912 78.264c-10.4 1.686-20.612 4.331-30.353 7.861-3.895 1.411-5.907 5.712-4.495 9.606 1.105 3.051 3.983 4.946 7.051 4.946.849 0 1.712-.146 2.556-.451 8.862-3.212 18.162-5.619 27.642-7.156 4.089-.663 6.866-4.515 6.203-8.604-.662-4.088-4.514-6.862-8.604-6.202z" fill="url(#SVGID_20_)"/><path d="m347.112 103.071c-3.445-2.299-8.103-1.37-10.401 2.075-2.3 3.445-1.37 8.103 2.075 10.401 8.001 5.34 15.29 11.449 21.666 18.158 1.474 1.552 3.454 2.334 5.438 2.334 1.855 0 3.714-.685 5.165-2.063 3.003-2.853 3.124-7.6.271-10.603-7.141-7.515-15.288-14.346-24.214-20.302z" fill="url(#SVGID_21_)"/><path d="m404.415 194.559c-.925-10.627-3.392-21.114-7.331-31.17-1.512-3.856-5.864-5.757-9.72-4.247-3.856 1.512-5.758 5.863-4.247 9.72 3.416 8.718 5.554 17.802 6.354 26.998.34 3.905 3.615 6.85 7.463 6.85.218 0 .438-.009.659-.028 4.127-.361 7.181-3.996 6.822-8.123z" fill="url(#SVGID_22_)"/><path d="m304.473 83.163c-9.923-2.966-20.259-5.036-30.722-6.153-4.127-.435-7.814 2.543-8.254 6.662-.439 4.118 2.543 7.813 6.662 8.254 9.549 1.019 18.976 2.906 28.019 5.608.717.215 1.439.316 2.15.316 3.229 0 6.211-2.103 7.183-5.354 1.186-3.969-1.07-8.147-5.038-9.333z" fill="url(#SVGID_23_)"/></g><g><path d="m353.45 107.54c6.27 8.54 11.54 17.86 15.65 27.78.7-.33 1.36-.78 1.95-1.34 3.01-2.86 3.13-7.6.28-10.61-5.42-5.69-11.41-11-17.88-15.83z" fill="url(#SVGID_24_)"/><path d="m404.415 194.559c-.925-10.627-3.392-21.114-7.331-31.17-1.512-3.856-5.864-5.757-9.72-4.247-3.856 1.512-5.758 5.863-4.247 9.72 3.416 8.718 5.554 17.802 6.354 26.998.34 3.905 3.615 6.85 7.463 6.85.218 0 .438-.009.659-.028 4.127-.361 7.181-3.996 6.822-8.123z" fill="url(#SVGID_25_)"/></g></g></svg>