<svg id="Capa_1" enable-background="new 0 0 509.999 509.999" height="512" viewBox="0 0 509.999 509.999" width="512" xmlns="http://www.w3.org/2000/svg" xmlns:xlink="http://www.w3.org/1999/xlink"><linearGradient id="lg1"><stop offset="0" stop-color="#f9f3f1"/><stop offset=".5725" stop-color="#efe2dd"/><stop offset="1" stop-color="#cdbfba"/></linearGradient><linearGradient id="SVGID_1_" gradientUnits="userSpaceOnUse" x1="128.07" x2="424.968" xlink:href="#lg1" y1="179.02" y2="179.02"/><linearGradient id="SVGID_2_" gradientUnits="userSpaceOnUse" x1="-134" x2="390.978" xlink:href="#lg1" y1="179.02" y2="179.02"/><linearGradient id="SVGID_3_" gradientUnits="userSpaceOnUse" x1="287.666" x2="479.392" xlink:href="#lg1" y1="161.72" y2="161.72"/><linearGradient id="SVGID_4_" gradientUnits="userSpaceOnUse" x1="207" x2="446.014" xlink:href="#lg1" y1="59.016" y2="59.016"/><linearGradient id="lg2"><stop offset="0" stop-color="#7acaa6"/><stop offset=".5725" stop-color="#09a76d"/><stop offset="1" stop-color="#026841"/></linearGradient><linearGradient id="SVGID_5_" gradientUnits="userSpaceOnUse" x1="-22.797" x2="262.289" xlink:href="#lg2" y1="392.304" y2="392.304"/><linearGradient id="SVGID_6_" gradientUnits="userSpaceOnUse" x1="52" x2="357.722" xlink:href="#lg1" y1="179.02" y2="179.02"/><linearGradient id="SVGID_7_" gradientUnits="userSpaceOnUse" x1="-90.919" x2="275.434" xlink:href="#lg1" y1="179.021" y2="179.021"/><linearGradient id="SVGID_8_" gradientUnits="userSpaceOnUse" x1="248" x2="528.585" xlink:href="#lg2" y1="392.304" y2="392.304"/><linearGradient id="SVGID_9_" gradientUnits="userSpaceOnUse" x1="200" x2="479.866" xlink:href="#lg2" y1="392.295" y2="392.295"/><linearGradient id="SVGID_10_" gradientUnits="userSpaceOnUse" x1="274" x2="398.002" xlink:href="#lg2" y1="406.186" y2="406.186"/><linearGradient id="SVGID_11_" gradientUnits="userSpaceOnUse" x1="-31.17" x2="103.334" xlink:href="#lg2" y1="406.186" y2="406.186"/><linearGradient id="SVGID_12_" gradientUnits="userSpaceOnUse" x1="-58.667" x2="243.327" xlink:href="#lg2" y1="392.298" y2="392.298"/><linearGradient id="lg3"><stop offset="0" stop-color="#ffe177"/><stop offset=".5725" stop-color="#feb137"/><stop offset="1" stop-color="#fe646f"/></linearGradient><linearGradient id="SVGID_13_" gradientUnits="userSpaceOnUse" x1="220.945" x2="298.262" xlink:href="#lg3" y1="269.7" y2="269.7"/><linearGradient id="SVGID_14_" gradientUnits="userSpaceOnUse" x1="188.945" x2="295.265" xlink:href="#lg3" y1="271.4" y2="271.4"/><g><g><g><path d="m152.078 293.931 288.25-288.25c11.007-11.007 28.825 2.284 21.411 15.972l-148.803 274.716c-5.478 10.112-15.834 16.634-27.321 17.205l-16.222.805c-8.635.429-16.803 4.052-22.916 10.165l-31.894 31.894z" fill="url(#SVGID_1_)"/><path d="m440.328 5.681-3.381 3.381c1.914 3.577 2.236 8.06-.219 12.592l-148.803 274.715c-5.478 10.112-15.834 16.634-27.321 17.204l-16.222.805c-8.635.429-16.803 4.052-22.916 10.165l-19.388 19.388 12.505 12.506 31.894-31.894c6.113-6.113 14.281-9.736 22.916-10.165l16.222-.805c11.487-.57 21.843-7.092 27.321-17.204l148.803-274.716c7.414-13.688-10.404-26.98-21.411-15.972z" fill="url(#SVGID_2_)"/><path d="m461.739 21.653c7.414-13.688-10.404-26.979-21.411-15.972l-288.25 288.25 27.906 27.906 227.642-227.643c21.443-21.443 39.67-45.876 54.113-72.541z" fill="url(#SVGID_3_)"/><path d="m385.391 116.429 22.235-22.235c21.443-21.443 39.67-45.877 54.113-72.541 7.414-13.688-10.404-26.979-21.411-15.972l-3.38 3.38c1.914 3.577 2.236 8.06-.219 12.592z" fill="url(#SVGID_4_)"/><path d="m225.23 341.5-58.21-58.22c-7.01-7.01-17.59-9.02-26.69-5.07l-75.18 32.62c-12.81 4.99-24.83 12.65-35.18 23-40.29 40.3-39.96 105.84 1.01 145.71 39.38 38.33 102.74 38.5 142.32.36 11.05-10.65 19.17-23.16 24.38-36.54l32.63-75.18c3.95-9.09 1.93-19.67-5.08-26.68zm-82.21 105.38c-22.48 22.47-58.91 22.47-81.38 0-22.48-22.47-22.48-58.91 0-81.38 22.47-22.48 58.9-22.48 81.38 0 22.47 22.47 22.47 58.91 0 81.38z" fill="url(#SVGID_5_)"/></g></g><g><g><path d="m357.922 293.931-288.251-288.25c-11.007-11.007-28.825 2.284-21.411 15.972l148.803 274.716c5.478 10.112 15.834 16.634 27.321 17.205l16.222.805c8.635.429 16.803 4.052 22.916 10.165l31.894 31.894z" fill="url(#SVGID_6_)"/><path d="m69.671 5.681c-7.363-7.363-17.763-3.847-21.63 3.381l284.87 284.87-50 50 12.506 12.506 62.506-62.506z" fill="url(#SVGID_7_)"/><path d="m480.03 333.83c-10.35-10.35-22.37-18.01-35.18-23l-75.18-32.62c-9.1-3.95-19.68-1.94-26.69 5.07l-58.21 58.22c-7.01 7.01-9.03 17.59-5.08 26.68l32.63 75.18c5.21 13.38 13.33 25.89 24.38 36.54 39.58 38.14 102.94 37.97 142.32-.36 40.97-39.87 41.3-105.41 1.01-145.71zm-31.67 113.05c-22.47 22.47-58.9 22.47-81.38 0-22.47-22.47-22.47-58.91 0-81.38 22.48-22.48 58.91-22.48 81.38 0 22.48 22.47 22.48 58.91 0 81.38z" fill="url(#SVGID_8_)"/></g></g><path d="m480.03 333.83c-10.35-10.35-22.37-18.01-35.18-23l-75.18-32.62c-9.1-3.95-19.68-1.94-26.69 5.07l-.498.498 62.348 27.052c12.81 4.99 24.83 12.65 35.18 23 40.29 40.3 39.96 105.84-1.01 145.71-14.617 14.227-32.54 23.185-51.322 26.89 31.989 6.298 66.453-2.665 91.342-26.89 40.97-39.87 41.3-105.41 1.01-145.71z" fill="url(#SVGID_9_)"/><path d="m366.98 446.88c8.04 8.04 17.86 13.2 28.19 15.48-18.56 4.12-38.76-1.04-53.2-15.48-22.47-22.47-22.47-58.91 0-81.38 14.44-14.44 34.64-19.61 53.2-15.49-10.33 2.29-20.15 7.45-28.19 15.49-22.47 22.47-22.47 58.91 0 81.38z" fill="url(#SVGID_10_)"/><path d="m61.81 446.88c8.04 8.04 17.86 13.2 28.19 15.48-18.56 4.12-38.76-1.04-53.2-15.48-22.47-22.47-22.47-58.91 0-81.38 14.44-14.44 34.64-19.61 53.2-15.49-10.33 2.29-20.15 7.45-28.19 15.49-22.47 22.47-22.47 58.91 0 81.38z" fill="url(#SVGID_11_)"/><path d="m225.23 341.5-58.21-58.22c-7.01-7.01-17.59-9.02-26.69-5.07l-12.832 5.568 57.712 57.722c7.01 7.01 9.03 17.59 5.08 26.68l-32.63 75.18c-5.21 13.38-13.33 25.89-24.38 36.54-14.565 14.035-32.353 22.863-50.978 26.53 31.82 6.276 66.109-2.547 90.998-26.53 11.05-10.65 19.17-23.16 24.38-36.54l32.63-75.18c3.95-9.09 1.93-19.67-5.08-26.68z" fill="url(#SVGID_12_)"/><g><circle cx="254.998" cy="269.7" fill="url(#SVGID_13_)" r="37.053"/><path d="m292.055 269.7c0 20.46-16.59 37.05-37.06 37.05-12.68 0-23.87-6.37-30.54-16.08 1.51.16 3.05.24 4.6.24 23.8 0 43.1-19.3 43.1-43.1 0-4.08-.57-8.03-1.63-11.76 12.71 5.87 21.53 18.73 21.53 33.65z" fill="url(#SVGID_14_)"/></g></g></svg>