<svg id="Capa_1" enable-background="new 0 0 510 510" height="512" viewBox="0 0 510 510" width="512" xmlns="http://www.w3.org/2000/svg" xmlns:xlink="http://www.w3.org/1999/xlink"><linearGradient id="lg1"><stop offset="0" stop-color="#f9f3f1"/><stop offset=".5725" stop-color="#efe2dd"/><stop offset="1" stop-color="#cdbfba"/></linearGradient><linearGradient id="SVGID_1_" gradientUnits="userSpaceOnUse" x1="283.518" x2="460.276" xlink:href="#lg1" y1="337.413" y2="337.413"/><linearGradient id="SVGID_2_" gradientUnits="userSpaceOnUse" x1="-52.108" x2="332.089" y1="420.492" y2="420.492"><stop offset="0" stop-color="#537983"/><stop offset="1" stop-color="#3e5959"/></linearGradient><linearGradient id="SVGID_3_" gradientUnits="userSpaceOnUse" x1="-52.108" x2="332.089" y1="420.491" y2="420.491"><stop offset="0" stop-color="#537983"/><stop offset="1" stop-color="#384949"/></linearGradient><linearGradient id="lg2"><stop offset="0" stop-color="#ffe177"/><stop offset=".5725" stop-color="#feb137"/><stop offset="1" stop-color="#fe646f"/></linearGradient><linearGradient id="SVGID_4_" gradientUnits="userSpaceOnUse" x1="3.073" x2="448.063" xlink:href="#lg2" y1="199.172" y2="199.172"/><linearGradient id="SVGID_5_" gradientUnits="userSpaceOnUse" x1="46.008" x2="246.616" xlink:href="#lg2" y1="199.172" y2="199.172"/><linearGradient id="SVGID_6_" gradientUnits="userSpaceOnUse" x1="-76.731" x2="428.398" xlink:href="#lg2" y1="199.172" y2="199.172"/><linearGradient id="SVGID_7_" gradientUnits="userSpaceOnUse" x1="140.1" x2="314.987" xlink:href="#lg1" y1="199.172" y2="199.172"/><linearGradient id="SVGID_8_" gradientUnits="userSpaceOnUse" x1="54.654" x2="293.524" xlink:href="#lg1" y1="199.172" y2="199.172"/><linearGradient id="lg3"><stop offset="0" stop-color="#fe646f"/><stop offset=".5725" stop-color="#fb2b3a"/><stop offset="1" stop-color="#c41926"/></linearGradient><linearGradient id="SVGID_9_" gradientUnits="userSpaceOnUse" x1="426.469" x2="503.76" xlink:href="#lg3" y1="199.172" y2="199.172"/><linearGradient id="SVGID_10_" gradientUnits="userSpaceOnUse" x1="394.48" x2="500.763" xlink:href="#lg3" y1="200.872" y2="200.872"/><g><path d="m338.266 475.654-17.672-17.672 85.417-85.417c27.021-27.021 41.902-62.946 41.902-101.159v-72.234h24.991v72.234c0 44.889-17.48 87.09-49.221 118.831z" fill="url(#SVGID_1_)"/><g><path d="m310.202 510h-197.168c-20.948 0-37.929-16.982-37.929-37.929v-103.159c0-20.948 16.982-37.929 37.929-37.929h197.168c20.948 0 37.929 16.982 37.929 37.929v103.158c.001 20.948-16.981 37.93-37.929 37.93z" fill="url(#SVGID_2_)"/><path d="m348.131 368.909v103.164c0 20.947-16.98 37.927-37.927 37.927h-40.006c20.943 0 37.927-16.984 37.927-37.927 0-32.681-29.504-57.431-61.689-51.756-11.305 1.993-22.939 3.033-34.818 3.033-52.842 0-100.865-20.573-136.513-54.151v-.29c0-20.946 16.98-37.927 37.927-37.927h197.172c20.947 0 37.927 16.98 37.927 37.927z" fill="url(#SVGID_3_)"/><g><circle cx="211.618" cy="199.172" fill="url(#SVGID_4_)" r="199.172"/><circle cx="183.712" cy="199.172" fill="url(#SVGID_5_)" r="71.28"/><path d="m211.618 0c-6.752 0-13.424.34-20.003.996 100.606 10.034 179.169 94.928 179.169 198.176s-78.563 188.143-179.169 198.176c6.579.656 13.251.996 20.003.996 110 0 199.172-89.172 199.172-199.172s-89.172-199.172-199.172-199.172z" fill="url(#SVGID_6_)"/></g><g><circle cx="211.618" cy="199.172" fill="url(#SVGID_7_)" r="71.28"/><path d="m211.618 127.892c-4.885 0-9.655.493-14.265 1.429 32.531 6.608 57.016 35.37 57.016 69.851s-24.484 63.243-57.016 69.851c4.609.936 9.379 1.429 14.265 1.429 39.367 0 71.28-31.913 71.28-71.28s-31.913-71.28-71.28-71.28z" fill="url(#SVGID_8_)"/></g></g><g><circle cx="460.51" cy="199.172" fill="url(#SVGID_9_)" r="37.041"/><path d="m497.554 199.172c0 20.453-16.584 37.037-37.047 37.037-12.676 0-23.862-6.368-30.529-16.075 1.509.16 3.049.24 4.598.24 23.792 0 43.085-19.293 43.085-43.085 0-4.079-.57-8.027-1.629-11.756 12.705 5.869 21.522 18.724 21.522 33.639z" fill="url(#SVGID_10_)"/></g></g></svg>