<svg id="Layer_1" enable-background="new 0 0 512 512" height="512" viewBox="0 0 512 512" width="512" xmlns="http://www.w3.org/2000/svg"><g><g><path d="m442.306 512h-372.612c-17.069 0-30.905-13.837-30.905-30.905v-450.19c-.001-17.068 13.836-30.905 30.905-30.905h372.612c17.069 0 30.905 13.837 30.905 30.905v450.189c.001 17.069-13.836 30.906-30.905 30.906z" fill="#506d90"/><path d="m442.306 0h-30.905c17.069 0 30.905 13.837 30.905 30.905v450.189c0 17.069-13.837 30.905-30.905 30.905h30.905c17.069 0 30.905-13.837 30.905-30.905v-450.189c.001-17.068-13.836-30.905-30.905-30.905z" fill="#455f7e"/><path d="m69.694 427.525v-389.408c0-3.983 3.229-7.211 7.211-7.211h358.19c3.983 0 7.211 3.229 7.211 7.211v389.408c0 3.983-3.229 7.211-7.211 7.211h-358.19c-3.983 0-7.211-3.228-7.211-7.211z" fill="#ecf5ff"/><path d="m435.095 30.905h-30.905c3.983 0 7.211 3.229 7.211 7.211v389.408c0 3.983-3.229 7.211-7.211 7.211h30.905c3.983 0 7.211-3.229 7.211-7.211v-389.407c0-3.983-3.228-7.212-7.211-7.212z" fill="#dbeafd"/><g fill="#506d90"><path d="m116.962 107.971c4.267 0 7.726-3.459 7.726-7.726s-3.459-7.726-7.726-7.726h-19.268c-4.267 0-7.726 3.459-7.726 7.726v45.728c0 4.267 3.459 7.726 7.726 7.726h19.268c4.267 0 7.726-3.459 7.726-7.726s-3.459-7.726-7.726-7.726h-11.542v-7.411h10.121c4.267 0 7.726-3.459 7.726-7.726s-3.459-7.726-7.726-7.726h-10.121v-7.411h11.542z"/><path d="m419.671 140.412-19.082-18.409 17.307-15.908c3.142-2.888 3.348-7.776.46-10.917-2.887-3.142-7.776-3.348-10.917-.46l-11.87 10.911v-5.805c0-4.267-3.459-7.726-7.726-7.726s-7.726 3.459-7.726 7.726v46.149c0 4.267 3.459 7.726 7.726 7.726s7.726-3.459 7.726-7.726v-7.341l13.372 12.901c3.068 2.96 7.959 2.878 10.925-.196 2.963-3.07 2.876-7.962-.195-10.925z"/><path d="m209.557 118.946c1.338-2.545 2.105-5.434 2.105-8.503 0-10.116-8.23-18.346-18.346-18.346h-13.405c-4.267 0-7.726 3.459-7.726 7.726v46.149c0 2.055.819 4.026 2.275 5.475 1.448 1.442 3.408 2.251 5.451 2.251h.034c.002 0 12.317-.055 15.712-.055 11.11 0 20.148-9.039 20.148-20.148.001-5.719-2.406-10.878-6.248-14.549zm-16.241-11.396c1.595 0 2.893 1.298 2.893 2.893s-1.298 2.892-2.893 2.892c-1.026 0-3.76.012-5.679.013v-5.798zm2.342 30.642c-1.521 0-4.826.011-8.02.023v-9.412c1.219.084 6.893-.003 8.02-.003 2.589 0 4.696 2.107 4.696 4.696s-2.107 4.696-4.696 4.696z"/><path d="m258.461 92.097c-16.984 0-30.801 13.817-30.801 30.801s13.817 30.801 30.801 30.801c16.983 0 30.801-13.817 30.801-30.801s-13.817-30.801-30.801-30.801zm0 46.149c-8.463 0-15.349-6.885-15.349-15.349 0-8.463 6.885-15.348 15.349-15.348 8.463 0 15.348 6.885 15.348 15.348 0 8.464-6.885 15.349-15.348 15.349z"/><path d="m335.072 92.097c-16.984 0-30.801 13.817-30.801 30.801s13.817 30.801 30.801 30.801 30.801-13.817 30.801-30.801-13.817-30.801-30.801-30.801zm0 46.149c-8.463 0-15.349-6.885-15.349-15.349 0-8.463 6.885-15.348 15.349-15.348s15.349 6.885 15.349 15.348c0 8.464-6.886 15.349-15.349 15.349z"/><path d="m155.639 115.382h-16.36c-4.267 0-7.726 3.459-7.726 7.726s3.459 7.726 7.726 7.726h16.36c4.267 0 7.726-3.459 7.726-7.726.001-4.266-3.459-7.726-7.726-7.726z"/></g><g><g><path d="m395.948 210.672h-279.896c-4.267 0-7.726-3.459-7.726-7.726s3.459-7.726 7.726-7.726h279.896c4.267 0 7.726 3.459 7.726 7.726s-3.459 7.726-7.726 7.726z" fill="#cae0ff"/></g><g><path d="m395.948 257.03h-279.896c-4.267 0-7.726-3.459-7.726-7.726s3.459-7.726 7.726-7.726h279.896c4.267 0 7.726 3.459 7.726 7.726.001 4.267-3.459 7.726-7.726 7.726z" fill="#cae0ff"/></g><g><path d="m395.948 303.388h-279.896c-4.267 0-7.726-3.459-7.726-7.726s3.459-7.726 7.726-7.726h279.896c4.267 0 7.726 3.459 7.726 7.726.001 4.267-3.459 7.726-7.726 7.726z" fill="#cae0ff"/></g><g><path d="m395.948 349.746h-279.896c-4.267 0-7.726-3.459-7.726-7.726s3.459-7.726 7.726-7.726h279.896c4.267 0 7.726 3.459 7.726 7.726.001 4.267-3.459 7.726-7.726 7.726z" fill="#cae0ff"/></g><g><path d="m395.948 396.105h-279.896c-4.267 0-7.726-3.459-7.726-7.726s3.459-7.726 7.726-7.726h279.896c4.267 0 7.726 3.459 7.726 7.726.001 4.266-3.459 7.726-7.726 7.726z" fill="#cae0ff"/></g></g></g><g><path d="m289.291 481.095h-66.583c-4.267 0-7.726-3.459-7.726-7.726s3.459-7.726 7.726-7.726h66.583c4.267 0 7.726 3.459 7.726 7.726.001 4.266-3.459 7.726-7.726 7.726z" fill="#455f7e"/></g></g></svg>