<svg id="Layer_1" enable-background="new 0 0 512 512" height="512" viewBox="0 0 512 512" width="512" xmlns="http://www.w3.org/2000/svg"><g><g><g><path d="m481.095 397.095h-450.19c-17.068 0-30.905-13.836-30.905-30.905v-290.941c0-17.069 13.837-30.905 30.905-30.905h450.189c17.069 0 30.905 13.837 30.905 30.905v290.941c.001 17.069-13.836 30.905-30.904 30.905z" fill="#506d90"/><path d="m481.095 44.344h-30.905c17.069 0 30.905 13.837 30.905 30.905v290.941c0 17.069-13.837 30.905-30.905 30.905h30.905c17.069 0 30.905-13.837 30.905-30.905v-290.941c0-17.068-13.837-30.905-30.905-30.905z" fill="#455f7e"/><path d="m30.905 346.616v-267.246c0-2.276 1.845-4.121 4.121-4.121h441.948c2.276 0 4.121 1.845 4.121 4.121v267.246c0 2.276-1.845 4.121-4.121 4.121h-441.948c-2.276 0-4.121-1.845-4.121-4.121z" fill="#ecf5ff"/><path d="m30.905 346.616v-267.246c0-2.276 1.845-4.121 4.121-4.121h441.948c2.276 0 4.121 1.845 4.121 4.121v267.246c0 2.276-1.845 4.121-4.121 4.121h-441.948c-2.276 0-4.121-1.845-4.121-4.121z" fill="#ecf5ff"/><path d="m476.974 75.249h-30.905c2.276 0 4.121 1.845 4.121 4.121v267.246c0 2.276-1.845 4.121-4.121 4.121h30.905c2.276 0 4.121-1.845 4.121-4.121v-267.246c0-2.276-1.845-4.121-4.121-4.121z" fill="#dbeafd"/><path d="m307.038 512h-102.076l15.453-114.905h71.17z" fill="#455f7e"/><path d="m291.585 397.095h-30.905l15.453 114.905h30.905z" fill="#405972"/><path d="m322.853 462.321 10.881 39.235c1.456 5.251-2.493 10.444-7.942 10.444h-139.585c-5.449 0-9.398-5.193-7.942-10.444l10.881-39.235c.99-3.569 4.238-6.039 7.942-6.039h117.824c3.703 0 6.952 2.471 7.941 6.039z" fill="#506d90"/><path d="m333.735 501.556-10.881-39.235c-.99-3.569-4.238-6.039-7.942-6.039h-30.905c3.703 0 6.952 2.47 7.942 6.039l10.881 39.235c1.456 5.25-2.493 10.444-7.942 10.444h30.905c5.449 0 9.398-5.193 7.942-10.444z" fill="#455f7e"/></g><path d="m92.212 61.811h327.577v288.926h-327.577z" fill="#fff"/><path d="m388.883 61.811h30.905v288.926h-30.905z" fill="#efeaf4"/><path d="m391.974 0h-287.4c-6.827 0-12.362 5.535-12.362 12.362v49.449h327.577l-15.453-49.449c0-6.827-5.535-12.362-12.362-12.362z" fill="#455f7e"/><path d="m407.426 0h-30.905c6.827 0 12.362 5.535 12.362 12.362v49.449h30.905v-49.449c0-6.827-5.534-12.362-12.362-12.362z" fill="#405972"/><g><g><path d="m256 283.538 104.048-14.423v-132.893c0-3.983-3.229-7.211-7.211-7.211h-76.233c-11.379 0-20.604 9.225-20.604 20.604z" fill="#f3cfbb"/><path d="m360.048 252.632h-73.143c-17.069 0-30.905 13.837-30.905 30.905h96.837c3.983 0 7.211-3.229 7.211-7.211z" fill="#f0c3aa"/><g><path d="m329.143 167.642h-42.237c-4.267 0-7.726-3.459-7.726-7.726s3.459-7.726 7.726-7.726h42.237c4.267 0 7.726 3.459 7.726 7.726s-3.459 7.726-7.726 7.726z" fill="#f0c3aa"/></g><g><path d="m329.143 198.548h-42.237c-4.267 0-7.726-3.459-7.726-7.726s3.459-7.726 7.726-7.726h42.237c4.267 0 7.726 3.459 7.726 7.726s-3.459 7.726-7.726 7.726z" fill="#f0c3aa"/></g><g><path d="m329.143 229.453h-42.237c-4.267 0-7.726-3.459-7.726-7.726s3.459-7.726 7.726-7.726h42.237c4.267 0 7.726 3.459 7.726 7.726s-3.459 7.726-7.726 7.726z" fill="#f0c3aa"/></g></g><g><path d="m256 283.538-104.048-14.423v-132.893c0-3.983 3.229-7.211 7.211-7.211h76.233c11.379 0 20.604 9.225 20.604 20.604z" fill="#f5dacb"/><path d="m151.952 252.632h73.143c17.069 0 30.905 13.837 30.905 30.905h-96.837c-3.983 0-7.211-3.229-7.211-7.211z" fill="#f3cfbb"/><g><path d="m225.095 167.642h-42.237c-4.267 0-7.726-3.459-7.726-7.726s3.459-7.726 7.726-7.726h42.237c4.267 0 7.726 3.459 7.726 7.726s-3.459 7.726-7.726 7.726z" fill="#f3cfbb"/></g><g><path d="m225.095 198.548h-42.237c-4.267 0-7.726-3.459-7.726-7.726s3.459-7.726 7.726-7.726h42.237c4.267 0 7.726 3.459 7.726 7.726s-3.459 7.726-7.726 7.726z" fill="#f3cfbb"/></g><g><path d="m225.095 229.453h-42.237c-4.267 0-7.726-3.459-7.726-7.726s3.459-7.726 7.726-7.726h42.237c4.267 0 7.726 3.459 7.726 7.726s-3.459 7.726-7.726 7.726z" fill="#f3cfbb"/></g></g></g></g><g><circle cx="123.117" cy="30.905" fill="#d5707e" r="7.726"/><circle cx="154.022" cy="30.905" fill="#f0d16f" r="7.726"/><circle cx="184.928" cy="30.905" fill="#a4d9a6" r="7.726"/></g></g></svg>