<svg id="Layer_1" enable-background="new 0 0 512 512" height="512" viewBox="0 0 512 512" width="512" xmlns="http://www.w3.org/2000/svg"><g><g><g><g><g><g><path d="m488.821 434.736h-465.642v-356.119c0-17.069 13.837-30.905 30.905-30.905h403.831c17.069 0 30.905 13.837 30.905 30.905v356.119z" fill="#506d90"/><path d="m457.915 47.712h-30.905c17.069 0 30.905 13.837 30.905 30.905v356.119h30.905v-356.119c.001-17.069-13.836-30.905-30.905-30.905z" fill="#455f7e"/><path d="m54.085 380.89v-298.152c0-2.276 1.845-4.121 4.121-4.121h395.59c2.276 0 4.121 1.845 4.121 4.121v298.152c0 2.276-1.845 4.121-4.121 4.121h-395.591c-2.276-.001-4.12-1.846-4.12-4.121z" fill="#ecf5ff"/><path d="m453.795 78.617h-30.905c2.276 0 4.121 1.845 4.121 4.121v298.152c0 2.276-1.845 4.121-4.121 4.121h30.905c2.276 0 4.121-1.845 4.121-4.121v-298.152c-.001-2.276-1.845-4.121-4.121-4.121z" fill="#dbeafd"/><g><path d="m107.664 61.811h296.671v323.199h-296.671z" fill="#fff"/><path d="m373.43 61.811h30.905v323.2h-30.905z" fill="#efeaf4"/><path d="m391.974 0h-271.948c-6.827 0-12.362 5.535-12.362 12.362v49.449h296.672v-49.449c0-6.827-5.535-12.362-12.362-12.362z" fill="#455f7e"/><path d="m391.974 0h-30.905c6.827 0 12.362 5.535 12.362 12.362v49.449h30.905v-49.449c0-6.827-5.535-12.362-12.362-12.362z" fill="#405972"/><g><circle cx="138.57" cy="30.905" fill="#d5707e" r="7.726"/><circle cx="169.475" cy="30.905" fill="#f0d16f" r="7.726"/><circle cx="200.381" cy="30.905" fill="#a4d9a6" r="7.726"/></g></g><g><path d="m5.151 434.736h501.698c2.845 0 5.151 2.306 5.151 5.151v35.591c0 20.17-16.351 36.521-36.521 36.521h-438.958c-20.17.001-36.521-16.35-36.521-36.52v-35.591c0-2.845 2.306-5.152 5.151-5.152z" fill="#455f7e"/><g fill="#405972"><path d="m506.849 434.736h-30.905c2.845 0 5.151 2.306 5.151 5.151v35.591c0 20.17-16.351 36.521-36.521 36.521h30.905c20.17 0 36.521-16.351 36.521-36.521v-35.591c0-2.844-2.306-5.151-5.151-5.151z"/><path d="m289.95 465.642h-67.9c-5.69 0-10.302-4.612-10.302-10.302v-20.604h88.503v20.604c.001 5.69-4.612 10.302-10.301 10.302z"/></g></g></g></g></g></g></g><g><g><path d="m256 300.674 104.048-14.423v-132.893c0-3.983-3.229-7.211-7.211-7.211h-76.233c-11.379 0-20.604 9.225-20.604 20.604z" fill="#f3cfbb"/><path d="m360.048 269.769h-73.143c-17.069 0-30.905 13.837-30.905 30.905h96.837c3.983 0 7.211-3.229 7.211-7.211z" fill="#f0c3aa"/><g><path d="m329.143 184.779h-42.237c-4.267 0-7.726-3.459-7.726-7.726s3.459-7.726 7.726-7.726h42.237c4.267 0 7.726 3.459 7.726 7.726s-3.459 7.726-7.726 7.726z" fill="#f0c3aa"/></g><g><path d="m329.143 215.684h-42.237c-4.267 0-7.726-3.459-7.726-7.726s3.459-7.726 7.726-7.726h42.237c4.267 0 7.726 3.459 7.726 7.726s-3.459 7.726-7.726 7.726z" fill="#f0c3aa"/></g><g><path d="m329.143 246.59h-42.237c-4.267 0-7.726-3.459-7.726-7.726s3.459-7.726 7.726-7.726h42.237c4.267 0 7.726 3.459 7.726 7.726s-3.459 7.726-7.726 7.726z" fill="#f0c3aa"/></g></g><g><path d="m256 300.674-104.048-14.423v-132.893c0-3.983 3.229-7.211 7.211-7.211h76.233c11.379 0 20.604 9.225 20.604 20.604z" fill="#f5dacb"/><path d="m151.952 269.769h73.143c17.069 0 30.905 13.837 30.905 30.905h-96.837c-3.983 0-7.211-3.229-7.211-7.211z" fill="#f3cfbb"/><g><path d="m225.095 184.779h-42.237c-4.267 0-7.726-3.459-7.726-7.726s3.459-7.726 7.726-7.726h42.237c4.267 0 7.726 3.459 7.726 7.726s-3.459 7.726-7.726 7.726z" fill="#f3cfbb"/></g><g><path d="m225.095 215.684h-42.237c-4.267 0-7.726-3.459-7.726-7.726s3.459-7.726 7.726-7.726h42.237c4.267 0 7.726 3.459 7.726 7.726s-3.459 7.726-7.726 7.726z" fill="#f3cfbb"/></g><g><path d="m225.095 246.59h-42.237c-4.267 0-7.726-3.459-7.726-7.726s3.459-7.726 7.726-7.726h42.237c4.267 0 7.726 3.459 7.726 7.726s-3.459 7.726-7.726 7.726z" fill="#f3cfbb"/></g></g></g></g></svg>