<svg id="Layer_1" enable-background="new 0 0 512 512" height="512" viewBox="0 0 512 512" width="512" xmlns="http://www.w3.org/2000/svg"><g><g><g><path d="m481.095 397.095h-450.19c-17.068 0-30.905-13.836-30.905-30.905v-290.941c0-17.069 13.837-30.905 30.905-30.905h450.189c17.069 0 30.905 13.837 30.905 30.905v290.941c.001 17.069-13.836 30.905-30.904 30.905z" fill="#506d90"/><path d="m481.095 44.344h-30.905c17.069 0 30.905 13.837 30.905 30.905v290.941c0 17.069-13.837 30.905-30.905 30.905h30.905c17.069 0 30.905-13.837 30.905-30.905v-290.941c0-17.068-13.837-30.905-30.905-30.905z" fill="#455f7e"/><path d="m30.905 346.616v-267.246c0-2.276 1.845-4.121 4.121-4.121h441.948c2.276 0 4.121 1.845 4.121 4.121v267.246c0 2.276-1.845 4.121-4.121 4.121h-441.948c-2.276 0-4.121-1.845-4.121-4.121z" fill="#ecf5ff"/><path d="m30.905 346.616v-267.246c0-2.276 1.845-4.121 4.121-4.121h441.948c2.276 0 4.121 1.845 4.121 4.121v267.246c0 2.276-1.845 4.121-4.121 4.121h-441.948c-2.276 0-4.121-1.845-4.121-4.121z" fill="#ecf5ff"/><path d="m476.974 75.249h-30.905c2.276 0 4.121 1.845 4.121 4.121v267.246c0 2.276-1.845 4.121-4.121 4.121h30.905c2.276 0 4.121-1.845 4.121-4.121v-267.246c0-2.276-1.845-4.121-4.121-4.121z" fill="#dbeafd"/><path d="m307.038 512h-102.076l15.453-114.905h71.17z" fill="#455f7e"/><path d="m291.585 397.095h-30.905l15.453 114.905h30.905z" fill="#405972"/><path d="m322.853 462.321 10.881 39.235c1.456 5.251-2.493 10.444-7.942 10.444h-139.585c-5.449 0-9.398-5.193-7.942-10.444l10.881-39.235c.99-3.569 4.238-6.039 7.942-6.039h117.824c3.703 0 6.952 2.471 7.941 6.039z" fill="#506d90"/><path d="m333.735 501.556-10.881-39.235c-.99-3.569-4.238-6.039-7.942-6.039h-30.905c3.703 0 6.952 2.47 7.942 6.039l10.881 39.235c1.456 5.25-2.493 10.444-7.942 10.444h30.905c5.449 0 9.398-5.193 7.942-10.444z" fill="#455f7e"/></g><path d="m92.212 61.811h327.577v288.926h-327.577z" fill="#fff"/><path d="m388.883 61.811h30.905v288.926h-30.905z" fill="#efeaf4"/><path d="m391.974 0h-287.4c-6.827 0-12.362 5.535-12.362 12.362v49.449h327.577l-15.453-49.449c0-6.827-5.535-12.362-12.362-12.362z" fill="#455f7e"/><path d="m407.426 0h-30.905c6.827 0 12.362 5.535 12.362 12.362v49.449h30.905v-49.449c0-6.827-5.534-12.362-12.362-12.362z" fill="#405972"/></g><g><circle cx="123.117" cy="30.905" fill="#d5707e" r="7.726"/><circle cx="154.022" cy="30.905" fill="#f0d16f" r="7.726"/><circle cx="184.928" cy="30.905" fill="#a4d9a6" r="7.726"/></g><g><g><ellipse cx="256" cy="167.642" fill="#dd8793" rx="64.994" ry="65.438"/><path d="m256 102.204c-5.327 0-10.498.66-15.453 1.877 28.433 6.984 49.541 32.784 49.541 63.562 0 30.777-21.109 56.578-49.541 63.562 4.954 1.217 10.126 1.877 15.453 1.877 35.895 0 64.994-29.298 64.994-65.438s-29.099-65.44-64.994-65.44z" fill="#d5707e"/><path d="m252.09 139.149 25.561 25.736c1.516 1.526 1.516 3.989 0 5.515l-25.561 25.736c-2.461 2.478-6.689.735-6.689-2.757v-51.472c0-3.493 4.228-5.236 6.689-2.758z" fill="#fff"/></g><g><g><path d="m388.883 281.2h-265.766c-4.268 0-7.726-3.459-7.726-7.726s3.459-7.726 7.726-7.726h265.767c4.268 0 7.726 3.459 7.726 7.726 0 4.266-3.459 7.726-7.727 7.726z" fill="#d5c6e4"/></g><g><path d="m388.883 312.105h-265.766c-4.268 0-7.726-3.459-7.726-7.726s3.459-7.726 7.726-7.726h265.767c4.268 0 7.726 3.459 7.726 7.726s-3.459 7.726-7.727 7.726z" fill="#d5c6e4"/></g></g></g></g></svg>