<svg id="Layer_1" enable-background="new 0 0 512 512" height="512" viewBox="0 0 512 512" width="512" xmlns="http://www.w3.org/2000/svg"><g><g><g><path d="m365.098 501.851v-140.31c0-28.593-19.895-53.335-47.821-59.473l-74.768-16.432c-9.309-2.046-15.94-10.293-15.94-19.824v-61.824h-84.234v61.824c0 9.531-6.632 17.778-15.94 19.824l-74.768 16.432c-27.927 6.138-47.821 30.88-47.821 59.473v140.31c0 5.605 4.544 10.149 10.149 10.149h340.995c5.604 0 10.148-4.544 10.148-10.149z" fill="#dd8793"/></g><path d="m13.954 512h69.068v-53.28h-79.216v43.132c0 5.604 4.543 10.148 10.148 10.148z" fill="#f2ccbc"/><path d="m123.184 286.342c14.096 18.412 36.289 30.296 61.268 30.296s47.173-11.884 61.268-30.296l-3.211-.706c-9.309-2.046-15.94-10.293-15.94-19.824v-61.824h-84.234v61.824c0 9.531-6.632 17.778-15.94 19.824z" fill="#f2ccbc"/><g><g><path d="m83.022 512c-4.204 0-7.611-3.408-7.611-7.612v-62.793c0-4.204 3.408-7.612 7.611-7.612s7.611 3.408 7.611 7.612v62.793c.001 4.204-3.407 7.612-7.611 7.612z" fill="#d5707e"/></g></g><g><g><g><path d="m273.652 121.778h-178.4v-72.69c0-27.11 21.978-49.088 49.089-49.088h80.223c27.111 0 49.088 21.978 49.088 49.088z" fill="#cf9772"/><path d="m224.563 0h-30.446c27.111 0 49.088 21.978 49.088 49.088v72.69h30.446v-72.69c.001-27.11-21.977-49.088-49.088-49.088z" fill="#c88556"/><path d="m273.652 111.141c-7.634-2.19-20.194-6.841-32.866-17.038-11.121-8.949-18.113-18.779-22.306-26.017-1.274-2.199-4.236-2.697-6.152-1.027-8.438 7.356-19.035 15.215-31.992 22.252-33.88 18.4-66.207 21.571-85.084 21.83v56.872c0 49.264 39.936 89.2 89.2 89.2 49.264 0 89.2-39.936 89.2-89.2z" fill="#f2ccbc"/><path d="m243.206 111.141v56.872c.216 5.887.668 34.856-21.234 57.768-19.834 20.748-50.446 28.628-79.637 20.877 8.695 4.535 20.315 8.983 34.346 10.218 2.691.237 5.285.339 7.771.336 49.264 0 89.2-39.936 89.2-89.2v-56.872c-7.129-2.045-18.553-6.236-30.353-15.086z" fill="#ecad9a"/></g><g><g><path d="m141.415 161.896c-4.204 0-7.611-3.408-7.611-7.611v-17.215c0-4.204 3.408-7.611 7.611-7.611 4.204 0 7.611 3.408 7.611 7.611v17.215c0 4.203-3.408 7.611-7.611 7.611z" fill="#455f7e"/></g><g><path d="m227.489 161.896c-4.204 0-7.612-3.408-7.612-7.611v-17.215c0-4.204 3.408-7.611 7.612-7.611s7.611 3.408 7.611 7.611v17.215c.001 4.203-3.407 7.611-7.611 7.611z" fill="#455f7e"/></g></g><g><path d="m184.451 225.468c-.151 0-.302-.001-.453-.002-8.985-.095-16.064-2.963-20.421-5.352-3.686-2.021-5.035-6.648-3.013-10.333 2.02-3.686 6.646-5.037 10.334-3.013 2.831 1.552 7.429 3.416 13.26 3.477 6.105.07 10.892-1.856 13.849-3.477 3.686-2.023 8.312-.672 10.333 3.013 2.022 3.686.672 8.312-3.013 10.333-4.477 2.454-11.707 5.354-20.876 5.354z" fill="#ecad9a"/></g><path d="m284.608 153.249h-10.956v-42.108h10.956c11.628 0 21.054 9.426 21.054 21.054 0 11.628-9.426 21.054-21.054 21.054z" fill="#f2ccbc"/><path d="m84.296 153.249h10.956v-42.108h-10.956c-11.628 0-21.054 9.426-21.054 21.054 0 11.628 9.426 21.054 21.054 21.054z" fill="#ecad9a"/></g></g></g><g><g><path d="m200.69 481.554h297.356c5.605 0 10.149 4.544 10.149 10.149v10.149c0 5.605-4.544 10.149-10.149 10.149h-297.356c-5.605 0-10.149-4.544-10.149-10.149v-10.149c0-5.605 4.544-10.149 10.149-10.149z" fill="#455f7e"/><path d="m498.046 481.554h-30.446c5.605 0 10.149 4.544 10.149 10.149v10.149c0 5.605-4.544 10.149-10.149 10.149h30.446c5.605 0 10.149-4.544 10.149-10.149v-10.149c-.001-5.605-4.544-10.149-10.149-10.149z" fill="#405972"/><g><path d="m477.748 481.554h-256.761c-16.815 0-30.446-13.631-30.446-30.446v-167.453c0-16.815 13.631-30.446 30.446-30.446h256.761c16.815 0 30.446 13.631 30.446 30.446v167.453c0 16.815-13.631 30.446-30.446 30.446z" fill="#506d90"/></g><path d="m477.748 253.209h-30.446c16.815 0 30.446 13.631 30.446 30.446v167.453c0 16.815-13.631 30.446-30.446 30.446h30.446c16.815 0 30.446-13.631 30.446-30.446v-167.453c0-16.815-13.631-30.446-30.446-30.446z" fill="#455f7e"/></g></g><circle cx="349.368" cy="359.77" fill="#fff" r="32.983"/><path d="m349.368 326.787c-5.493 0-10.668 1.35-15.223 3.725 10.552 5.501 17.76 16.534 17.76 29.258 0 12.723-7.209 23.756-17.76 29.258 4.555 2.375 9.73 3.725 15.223 3.725 18.216 0 32.983-14.767 32.983-32.983s-14.767-32.983-32.983-32.983z" fill="#efeaf4"/></g></svg>