<svg id="Layer_1" enable-background="new 0 0 512 512" height="512" viewBox="0 0 512 512" width="512" xmlns="http://www.w3.org/2000/svg"><g><g><g><path d="m481.095 397.095h-450.19c-17.068 0-30.905-13.836-30.905-30.905v-290.941c0-17.069 13.837-30.905 30.905-30.905h450.189c17.069 0 30.905 13.837 30.905 30.905v290.941c.001 17.069-13.836 30.905-30.904 30.905z" fill="#506d90"/><path d="m481.095 44.344h-30.905c17.069 0 30.905 13.837 30.905 30.905v290.941c0 17.069-13.837 30.905-30.905 30.905h30.905c17.069 0 30.905-13.837 30.905-30.905v-290.941c0-17.068-13.837-30.905-30.905-30.905z" fill="#455f7e"/><path d="m30.905 346.616v-267.246c0-2.276 1.845-4.121 4.121-4.121h441.948c2.276 0 4.121 1.845 4.121 4.121v267.246c0 2.276-1.845 4.121-4.121 4.121h-441.948c-2.276 0-4.121-1.845-4.121-4.121z" fill="#ecf5ff"/><path d="m30.905 346.616v-267.246c0-2.276 1.845-4.121 4.121-4.121h441.948c2.276 0 4.121 1.845 4.121 4.121v267.246c0 2.276-1.845 4.121-4.121 4.121h-441.948c-2.276 0-4.121-1.845-4.121-4.121z" fill="#ecf5ff"/><path d="m476.974 75.249h-30.905c2.276 0 4.121 1.845 4.121 4.121v267.246c0 2.276-1.845 4.121-4.121 4.121h30.905c2.276 0 4.121-1.845 4.121-4.121v-267.246c0-2.276-1.845-4.121-4.121-4.121z" fill="#dbeafd"/><path d="m307.038 512h-102.076l15.453-114.905h71.17z" fill="#455f7e"/><path d="m291.585 397.095h-30.905l15.453 114.905h30.905z" fill="#405972"/><path d="m322.853 462.321 10.881 39.235c1.456 5.251-2.493 10.444-7.942 10.444h-139.585c-5.449 0-9.398-5.193-7.942-10.444l10.881-39.235c.99-3.569 4.238-6.039 7.942-6.039h117.824c3.703 0 6.952 2.471 7.941 6.039z" fill="#506d90"/><path d="m333.735 501.556-10.881-39.235c-.99-3.569-4.238-6.039-7.942-6.039h-30.905c3.703 0 6.952 2.47 7.942 6.039l10.881 39.235c1.456 5.25-2.493 10.444-7.942 10.444h30.905c5.449 0 9.398-5.193 7.942-10.444z" fill="#455f7e"/></g><path d="m92.212 61.811h327.577v288.926h-327.577z" fill="#fff"/><path d="m388.883 61.811h30.905v288.926h-30.905z" fill="#efeaf4"/><g><g fill="#dd8793"><path d="m186.093 178.609c-.015 0-.03 0-.044 0-5.367.03-11.128.052-15.525.056v-58.796c0-4.267-3.459-7.726-7.726-7.726s-7.726 3.459-7.726 7.726v66.467c0 3.763 2.711 6.978 6.419 7.615.551.095.997.171 8.375.171 3.553 0 8.716-.018 16.27-.06 4.267-.024 7.707-3.503 7.683-7.77-.025-4.253-3.479-7.683-7.726-7.683z"/><path d="m215.437 112.142c-4.267 0-7.726 3.459-7.726 7.726v66.523c0 4.267 3.459 7.726 7.726 7.726s7.726-3.459 7.726-7.726v-66.523c0-4.267-3.459-7.726-7.726-7.726z"/><path d="m349.203 178.664h-20.048v-17.504h18c4.267 0 7.726-3.459 7.726-7.726s-3.459-7.726-7.726-7.726h-18v-17.505h20.048c4.267 0 7.726-3.459 7.726-7.726s-3.459-7.726-7.726-7.726h-27.774c-4.267 0-7.726 3.459-7.726 7.726v65.915c0 4.267 3.459 7.726 7.726 7.726h27.774c4.267 0 7.726-3.459 7.726-7.726 0-4.268-3.459-7.728-7.726-7.728z"/><path d="m294.519 112.658c-4.051-1.347-8.423.847-9.768 4.897l-15.939 47.979-16.73-48.199c-1.399-4.031-5.802-6.163-9.833-4.766-4.031 1.399-6.164 5.802-4.766 9.833l22.763 65.576c1.307 3.679 4.796 6.139 8.695 6.139h.063c3.925-.027 7.41-2.542 8.691-6.309l21.72-65.382c1.346-4.049-.847-8.422-4.896-9.768z"/></g><g><g><path d="m388.883 281.863h-265.766c-4.267 0-7.726-3.459-7.726-7.726s3.459-7.726 7.726-7.726h265.766c4.267 0 7.726 3.459 7.726 7.726 0 4.266-3.459 7.726-7.726 7.726z" fill="#506d90"/></g><circle cx="209.642" cy="274.136" fill="#dd8793" r="18.543"/><path d="m209.642 255.593c-3.382 0-6.542.92-9.272 2.501 5.537 3.208 9.272 9.183 9.272 16.042s-3.734 12.835-9.272 16.042c2.73 1.581 5.89 2.501 9.272 2.501 10.241 0 18.543-8.302 18.543-18.543s-8.302-18.543-18.543-18.543z" fill="#d5707e"/></g></g><path d="m391.974 0h-287.4c-6.827 0-12.362 5.535-12.362 12.362v49.449h327.577l-15.453-49.449c0-6.827-5.535-12.362-12.362-12.362z" fill="#506d90"/><path d="m407.426 0h-30.905c6.827 0 12.362 5.535 12.362 12.362v49.449h30.905v-49.449c0-6.827-5.534-12.362-12.362-12.362z" fill="#455f7e"/></g><g><circle cx="123.117" cy="30.905" fill="#d5707e" r="7.726"/><circle cx="154.022" cy="30.905" fill="#f0d16f" r="7.726"/><circle cx="184.928" cy="30.905" fill="#a4d9a6" r="7.726"/></g></g></svg>