<svg id="Layer_1" enable-background="new 0 0 512 512" height="512" viewBox="0 0 512 512" width="512" xmlns="http://www.w3.org/2000/svg"><g><g><g><path d="m481.095 397.095h-450.19c-17.068 0-30.905-13.836-30.905-30.905v-290.941c0-17.069 13.837-30.905 30.905-30.905h450.189c17.069 0 30.905 13.837 30.905 30.905v290.941c.001 17.069-13.836 30.905-30.904 30.905z" fill="#506d90"/><path d="m481.095 44.344h-30.905c17.069 0 30.905 13.837 30.905 30.905v290.941c0 17.069-13.837 30.905-30.905 30.905h30.905c17.069 0 30.905-13.837 30.905-30.905v-290.941c0-17.068-13.837-30.905-30.905-30.905z" fill="#455f7e"/><path d="m30.905 346.616v-267.246c0-2.276 1.845-4.121 4.121-4.121h441.948c2.276 0 4.121 1.845 4.121 4.121v267.246c0 2.276-1.845 4.121-4.121 4.121h-441.948c-2.276 0-4.121-1.845-4.121-4.121z" fill="#ecf5ff"/><path d="m30.905 346.616v-267.246c0-2.276 1.845-4.121 4.121-4.121h441.948c2.276 0 4.121 1.845 4.121 4.121v267.246c0 2.276-1.845 4.121-4.121 4.121h-441.948c-2.276 0-4.121-1.845-4.121-4.121z" fill="#ecf5ff"/><path d="m476.974 75.249h-30.905c2.276 0 4.121 1.845 4.121 4.121v267.246c0 2.276-1.845 4.121-4.121 4.121h30.905c2.276 0 4.121-1.845 4.121-4.121v-267.246c0-2.276-1.845-4.121-4.121-4.121z" fill="#dbeafd"/><path d="m307.038 512h-102.076l15.453-114.905h71.17z" fill="#455f7e"/><path d="m291.585 397.095h-30.905l15.453 114.905h30.905z" fill="#405972"/><path d="m322.853 462.321 10.881 39.235c1.456 5.251-2.493 10.444-7.942 10.444h-139.585c-5.449 0-9.398-5.193-7.942-10.444l10.881-39.235c.99-3.569 4.238-6.039 7.942-6.039h117.824c3.703 0 6.952 2.471 7.941 6.039z" fill="#506d90"/><path d="m333.735 501.556-10.881-39.235c-.99-3.569-4.238-6.039-7.942-6.039h-30.905c3.703 0 6.952 2.47 7.942 6.039l10.881 39.235c1.456 5.25-2.493 10.444-7.942 10.444h30.905c5.449 0 9.398-5.193 7.942-10.444z" fill="#455f7e"/></g><path d="m107.664 61.811h296.671v288.926h-296.671z" fill="#f9f6f6"/><path d="m373.43 61.811h30.905v288.926h-30.905z" fill="#e2d8ec"/><path d="m376.521 0h-256.495c-6.827 0-12.362 5.535-12.362 12.362v49.449h296.672l-15.453-49.449c0-6.827-5.535-12.362-12.362-12.362z" fill="#455f7e"/><path d="m391.974 0h-30.905c6.827 0 12.362 5.535 12.362 12.362v49.449h30.905v-49.449c0-6.827-5.535-12.362-12.362-12.362z" fill="#405972"/></g><g><path d="m224.554 350.737v-22.948c0-21.973-17.813-39.786-39.786-39.786h-5.872c-21.973 0-39.786 17.813-39.786 39.786v22.948z" fill="#f7e07f"/><path d="m184.768 288.003h-5.872c-4.374 0-8.58.716-12.517 2.021 15.838 5.247 27.269 20.167 27.269 37.765v22.948h30.905v-22.948c.001-21.973-17.812-39.786-39.785-39.786z" fill="#f0d16f"/><circle cx="181.832" cy="260.8" fill="#f2ccbc" r="27.203"/><path d="m181.832 233.596c-4.957 0-9.599 1.332-13.602 3.648 8.129 4.704 13.602 13.488 13.602 23.555s-5.473 18.851-13.602 23.555c4.002 2.316 8.645 3.648 13.602 3.648 15.024 0 27.203-12.179 27.203-27.203 0-15.023-12.179-27.203-27.203-27.203z" fill="#ecad9a"/></g><g><path d="m372.89 350.737v-22.948c0-21.973-17.813-39.786-39.786-39.786h-5.872c-21.973 0-39.786 17.813-39.786 39.786v22.948z" fill="#bcd7fd"/><path d="m333.104 288.003h-5.872c-4.374 0-8.58.716-12.517 2.021 15.838 5.247 27.269 20.167 27.269 37.765v22.948h30.905v-22.948c.001-21.973-17.812-39.786-39.785-39.786z" fill="#9bc6fd"/><circle cx="330.168" cy="260.8" fill="#f2ccbc" r="27.203"/><path d="m330.168 233.596c-4.957 0-9.599 1.332-13.602 3.648 8.129 4.704 13.602 13.488 13.602 23.555s-5.473 18.851-13.602 23.555c4.002 2.316 8.645 3.648 13.602 3.648 15.024 0 27.203-12.179 27.203-27.203 0-15.023-12.179-27.203-27.203-27.203z" fill="#ecad9a"/></g><g><path d="m224.554 206.274v-22.948c0-21.973-17.813-39.786-39.786-39.786h-5.872c-21.973 0-39.786 17.813-39.786 39.786v22.948z" fill="#dd8793"/><path d="m184.768 143.54h-5.872c-4.374 0-8.58.716-12.517 2.021 15.838 5.247 27.269 20.167 27.269 37.765v22.948h30.905v-22.948c.001-21.973-17.812-39.786-39.785-39.786z" fill="#d5707e"/><circle cx="181.832" cy="116.337" fill="#f2ccbc" r="27.203"/><path d="m181.832 89.133c-4.957 0-9.599 1.332-13.602 3.648 8.129 4.704 13.602 13.488 13.602 23.555s-5.473 18.851-13.602 23.555c4.002 2.316 8.645 3.648 13.602 3.648 15.024 0 27.203-12.179 27.203-27.203s-12.179-27.203-27.203-27.203z" fill="#ecad9a"/></g><g><path d="m372.89 206.274v-22.948c0-21.973-17.813-39.786-39.786-39.786h-5.872c-21.973 0-39.786 17.813-39.786 39.786v22.948z" fill="#bfe69f"/><path d="m333.104 143.54h-5.872c-4.374 0-8.58.716-12.517 2.021 15.838 5.247 27.269 20.167 27.269 37.765v22.948h30.905v-22.948c.001-21.973-17.812-39.786-39.785-39.786z" fill="#a4d9a6"/><circle cx="330.168" cy="116.337" fill="#f2ccbc" r="27.203"/><path d="m330.168 89.133c-4.957 0-9.599 1.332-13.602 3.648 8.129 4.704 13.602 13.488 13.602 23.555s-5.473 18.851-13.602 23.555c4.002 2.316 8.645 3.648 13.602 3.648 15.024 0 27.203-12.179 27.203-27.203s-12.179-27.203-27.203-27.203z" fill="#ecad9a"/></g><path d="m248.274 61.811v136.737h-140.61v15.453h140.61v136.736h15.452v-136.736h140.61v-15.453h-140.61v-136.737z" fill="#d5c6e4"/><g><circle cx="138.57" cy="30.905" fill="#d5707e" r="7.726"/><circle cx="169.475" cy="30.905" fill="#f0d16f" r="7.726"/><circle cx="200.381" cy="30.905" fill="#a4d9a6" r="7.726"/></g></g></svg>