<svg id="Layer_1" enable-background="new 0 0 512 512" height="512" viewBox="0 0 512 512" width="512" xmlns="http://www.w3.org/2000/svg"><g><g><g><g><path d="m512 61.811v419.284c0 17.068-13.837 30.905-30.905 30.905h-70.733l-152.313-15.453-156.41 15.453h-70.734c-17.068 0-30.905-13.837-30.905-30.905v-419.284z" fill="#f9f6f6"/><path d="m481.095 61.811v419.284c0 17.069-13.837 30.905-30.905 30.905h30.905c17.068 0 30.905-13.837 30.905-30.905v-419.284z" fill="#e2d8ec"/><path d="m481.095 0h-450.19c-17.068 0-30.905 13.837-30.905 30.905v30.905h512v-30.905c0-17.068-13.837-30.905-30.905-30.905z" fill="#506d90"/><path d="m481.095 0h-30.905c17.069 0 30.905 13.837 30.905 30.905v30.905h30.905v-30.905c0-17.068-13.837-30.905-30.905-30.905z" fill="#455f7e"/><g><circle cx="35.91" cy="30.905" fill="#d5707e" r="7.726"/><circle cx="66.815" cy="30.905" fill="#f0d16f" r="7.726"/><circle cx="97.72" cy="30.905" fill="#a4d9a6" r="7.726"/></g></g></g></g><g><g><g><path d="m394.909 496.547 15.453-23.571v-67.586c0-24.433-17-45.574-40.863-50.819l-63.889-14.041c-7.954-1.748-13.621-8.795-13.621-16.94v-52.828h-71.978v52.828c0 8.144-5.667 15.191-13.621 16.94l-63.889 14.042c-23.863 5.245-40.863 26.386-40.863 50.819v67.586l15.453 23.571 44.512 15.452h188.795z" fill="#dd8793"/></g><g><path d="m369.499 354.571-63.889-14.041c-7.954-1.748-13.621-8.795-13.621-16.94v-52.828l-30.905 15.453v52.828c0 8.144 5.667 15.192 13.621 16.94l63.889 14.042c23.863 5.245 40.863 26.386 40.863 50.819v67.586l30.905-15.453v-67.587c0-24.433-17-45.574-40.863-50.819z" fill="#d5707e"/></g><g><path d="m305.61 340.53c-7.954-1.748-13.621-8.795-13.621-16.94v-52.828h-71.978v52.828c0 8.144-5.667 15.191-13.621 16.94l49.61 23.898z" fill="#f2ccbc"/></g><path d="m291.989 323.59v-52.828l-30.905 15.453v52.828c0 7.882 5.314 14.721 12.865 16.739l31.661-15.252c-1.988-.437-3.834-1.205-5.484-2.239-.825-.517-1.601-1.1-2.321-1.742-3.603-3.207-5.816-7.869-5.816-12.959z" fill="#ecad9a"/><path d="m101.638 472.976h67.69v39.024h-67.69z" fill="#f2ccbc"/><g><path d="m342.671 472.976h67.69v39.024h-67.69z" fill="#f2ccbc"/><path d="m379.456 472.976h30.905v39.024h-30.905z" fill="#ecad9a"/><g><path d="m334.945 512v-53.656c0-4.267 3.459-7.726 7.726-7.726s7.726 3.459 7.726 7.726v53.656z" fill="#d5707e"/></g></g><path d="m155.769 242.858h40.785v-51.433h-40.785c-5.69 0-10.302 4.612-10.302 10.302v30.83c0 5.689 4.612 10.301 10.302 10.301z" fill="#506d90"/><g><path d="m332.221 200.513h-152.442v-62.113c0-23.166 18.78-41.946 41.946-41.946h68.55c23.166 0 41.946 18.78 41.946 41.946z" fill="#cf9772"/><path d="m290.275 96.454h-30.905c23.166 0 41.946 18.78 41.946 41.946v62.113h30.905v-62.113c0-23.166-18.78-41.946-41.946-41.946z" fill="#c88556"/><path d="m332.221 191.424c-6.523-1.871-17.255-5.845-28.084-14.559-9.183-7.39-15.071-15.481-18.69-21.599-1.297-2.193-4.274-2.676-6.203-1.011-7.115 6.141-15.982 12.661-26.761 18.515-28.95 15.723-56.574 18.433-72.704 18.654v48.597c0 42.096 34.125 76.221 76.221 76.221 1.77 0 3.525-.06 5.265-.179 4.191-.286 8.293-4.516 12.271-5.452 6.63-1.561 12.922-.382 18.758-3.548 23.78-12.901 39.927-38.086 39.927-67.042z" fill="#f2ccbc"/><path d="m301.315 191.424v48.597c.221 4.822.838 29.022-17.377 48.447-25.036 26.7-62.022 19.179-63.928 18.757 6.312 3.326 15.921 7.349 28.148 8.617 0 0 3.978.399 7.841.399 42.096 0 76.221-34.125 76.221-76.221v-48.597c-6.523-1.871-17.255-5.845-28.083-14.559-.978-.787-1.918-1.581-2.822-2.381z" fill="#ecad9a"/></g><g><g><path d="m219.225 236.016c-4.268 0-7.726-3.459-7.726-7.726v-14.71c0-4.267 3.459-7.726 7.726-7.726 4.268 0 7.726 3.459 7.726 7.726v14.71c.001 4.267-3.458 7.726-7.726 7.726z" fill="#455f7e"/></g><g><path d="m292.775 236.016c-4.268 0-7.726-3.459-7.726-7.726v-14.71c0-4.267 3.459-7.726 7.726-7.726s7.726 3.459 7.726 7.726v14.71c0 4.267-3.459 7.726-7.726 7.726z" fill="#455f7e"/></g></g><path d="m231.55 388.879 24.45-24.45-40.195-29.537c-2.384 2.772-5.636 4.808-9.414 5.638l-35.828 7.874 55.633 40.881c1.64 1.206 3.914 1.033 5.354-.406z" fill="#d5707e"/><path d="m341.438 348.404-35.828-7.874c-3.779-.83-7.03-2.866-9.414-5.638l-40.196 29.536 24.45 24.45c1.439 1.439 3.714 1.612 5.354.407z" fill="#d5707e"/><path d="m300.592 338.556c-.858-.501-1.662-1.068-2.422-1.708-.36-.303-.664-.67-1.04-.952 0 0 0 0 0-.001-.324-.322-.634-.656-.931-1.001-.001-.001-.002-.002-.003-.003l-26.231 19.275c1.457.815 3.042 1.442 4.74 1.816l43.431 9.545 23.303-17.124-35.828-7.874c-1.761-.389-3.466-1.066-5.019-1.973z" fill="#d2697e"/><g><path d="m161.603 512v-53.656c0-4.267 3.459-7.726 7.726-7.726 4.268 0 7.726 3.459 7.726 7.726v53.656z" fill="#d5707e"/></g><g><g><path d="m279.358 280.588c-.105 0-15.661 0-15.763-.001-4.268-.021-7.709-3.496-7.689-7.764.021-4.255 3.476-7.689 7.725-7.689.094-.001 15.639.001 15.734.001 6.533 0 19.015-1.265 30.94-9.502 16.313-11.266 21.139-28.057 22.458-34.754.824-4.187 4.887-6.912 9.072-6.089 4.187.824 6.913 4.886 6.089 9.073-1.682 8.549-7.861 29.998-28.837 44.485-15.361 10.61-31.362 12.24-39.729 12.24z" fill="#506d90"/></g><path d="m265.992 285.955h-15.888c-7.231 0-13.094-5.862-13.094-13.094 0-7.231 5.862-13.094 13.094-13.094h15.888c7.231 0 13.094 5.862 13.094 13.094-.001 7.232-5.863 13.094-13.094 13.094z" fill="#455f7e"/></g><path d="m356.231 242.858h-24.01v-51.433h24.01c5.69 0 10.302 4.612 10.302 10.302v30.83c0 5.689-4.612 10.301-10.302 10.301z" fill="#506d90"/></g><g fill="#d5707e"><circle cx="256" cy="408.926" r="7.726"/><circle cx="256" cy="439.831" r="7.726"/><circle cx="256" cy="470.737" r="7.726"/></g></g></g></svg>