<svg id="Layer_1" enable-background="new 0 0 512 512" height="512" viewBox="0 0 512 512" width="512" xmlns="http://www.w3.org/2000/svg"><g><g><g><g><g><g><path d="m488.821 434.736h-465.642v-356.119c0-17.069 13.837-30.905 30.905-30.905h403.831c17.069 0 30.905 13.837 30.905 30.905v356.119z" fill="#506d90"/><path d="m457.915 47.712h-30.905c17.069 0 30.905 13.837 30.905 30.905v356.119h30.905v-356.119c.001-17.069-13.836-30.905-30.905-30.905z" fill="#455f7e"/><path d="m54.085 380.89v-298.152c0-2.276 1.845-4.121 4.121-4.121h395.59c2.276 0 4.121 1.845 4.121 4.121v298.152c0 2.276-1.845 4.121-4.121 4.121h-395.591c-2.276-.001-4.12-1.846-4.12-4.121z" fill="#ecf5ff"/><path d="m453.795 78.617h-30.905c2.276 0 4.121 1.845 4.121 4.121v298.152c0 2.276-1.845 4.121-4.121 4.121h30.905c2.276 0 4.121-1.845 4.121-4.121v-298.152c-.001-2.276-1.845-4.121-4.121-4.121z" fill="#dbeafd"/><g><path d="m107.664 61.811h296.671v323.199h-296.671z" fill="#f9f6f6"/><path d="m373.43 61.811h30.905v323.2h-30.905z" fill="#e2d8ec"/><g><path d="m260.529 120.918 8.315 16.848c.736 1.491 2.158 2.524 3.803 2.763l18.593 2.702c4.142.602 5.796 5.692 2.799 8.614l-13.454 13.115c-1.19 1.16-1.733 2.832-1.452 4.47l3.176 18.518c.708 4.126-3.623 7.272-7.328 5.324l-16.63-8.743c-1.471-.773-3.229-.773-4.7 0l-16.63 8.743c-3.705 1.948-8.035-1.198-7.328-5.324l3.176-18.518c.281-1.638-.262-3.31-1.452-4.47l-13.454-13.115c-2.997-2.922-1.343-8.012 2.799-8.614l18.593-2.702c1.645-.239 3.067-1.272 3.803-2.763l8.315-16.848c1.851-3.753 7.203-3.753 9.056 0z" fill="#f7e07f"/><g><path d="m294.039 151.845c2.997-2.922 1.343-8.012-2.799-8.614l-18.593-2.702c-1.645-.239-3.067-1.272-3.803-2.763l-8.315-16.848c-1.853-3.753-7.205-3.753-9.057 0l-8.315 16.848c-.55 1.115-1.484 1.973-2.609 2.435.379.156.779.267 1.194.327l6.641.965c9.032 1.312 12.638 12.411 6.102 18.781-4.199 4.093-6.115 9.989-5.124 15.768l1.69 9.851 2.599-1.367c1.471-.773 3.229-.773 4.7 0l16.63 8.743c3.705 1.948 8.035-1.198 7.328-5.324l-3.176-18.518c-.281-1.638.262-3.31 1.452-4.47z" fill="#f0d16f"/></g><g><path d="m174.516 190.647 6.438 13.044c.57 1.154 1.67 1.954 2.944 2.139l14.395 2.092c3.207.466 4.488 4.407 2.167 6.669l-10.416 10.153c-.922.898-1.342 2.192-1.124 3.461l2.459 14.337c.548 3.194-2.805 5.63-5.673 4.122l-12.875-6.769c-1.139-.599-2.5-.599-3.639 0l-12.875 6.769c-2.868 1.508-6.221-.928-5.673-4.122l2.459-14.337c.218-1.268-.203-2.563-1.124-3.461l-10.416-10.153c-2.321-2.262-1.04-6.203 2.167-6.669l14.395-2.092c1.273-.185 2.374-.985 2.944-2.139l6.438-13.044c1.431-2.906 5.575-2.906 7.009 0z" fill="#f7e07f"/><path d="m344.496 190.647 6.438 13.044c.57 1.154 1.67 1.954 2.944 2.139l14.395 2.092c3.207.466 4.487 4.407 2.167 6.669l-10.416 10.153c-.922.898-1.342 2.192-1.124 3.461l2.459 14.337c.548 3.194-2.805 5.63-5.673 4.122l-12.875-6.769c-1.139-.599-2.5-.599-3.639 0l-12.875 6.769c-2.868 1.508-6.221-.928-5.673-4.122l2.459-14.337c.218-1.268-.203-2.563-1.124-3.461l-10.416-10.153c-2.321-2.262-1.04-6.203 2.167-6.669l14.395-2.092c1.273-.185 2.374-.985 2.944-2.139l6.438-13.044c1.431-2.906 5.575-2.906 7.009 0z" fill="#f7e07f"/><g><path d="m370.439 214.59c2.321-2.262 1.04-6.203-2.167-6.669l-14.395-2.092c-1.273-.185-2.374-.985-2.944-2.139l-6.438-13.044c-1.434-2.906-5.578-2.906-7.012 0l-6.438 13.044c-.57 1.154-1.67 1.954-2.944 2.139l-2.565.373 4.95.719c6.021.875 8.425 8.274 4.068 12.521-4.326 4.217-6.3 10.293-5.279 16.247l1.175 6.851c.126.734.038 1.424-.194 2.039l8.913-4.686c1.139-.599 2.5-.599 3.639 0l12.875 6.769c2.868 1.508 6.221-.928 5.673-4.122l-2.459-14.337c-.218-1.268.203-2.562 1.124-3.461z" fill="#f0d16f"/></g><g><path d="m200.459 214.59c2.321-2.262 1.04-6.203-2.167-6.669l-14.395-2.092c-1.274-.185-2.374-.985-2.944-2.139l-6.438-13.044c-1.434-2.906-5.578-2.906-7.012 0l-6.438 13.044c-.57 1.154-1.67 1.954-2.944 2.139l-2.565.373 4.95.719c6.021.875 8.425 8.274 4.068 12.521-4.326 4.217-6.3 10.293-5.279 16.247l1.175 6.851c.126.734.038 1.424-.194 2.039l8.913-4.686c1.139-.599 2.5-.599 3.639 0l12.875 6.769c2.868 1.508 6.221-.928 5.673-4.122l-2.459-14.337c-.218-1.268.203-2.562 1.124-3.461z" fill="#f0d16f"/></g></g><g><path d="m373.431 305.539h-234.862c-4.268 0-7.726-3.459-7.726-7.726s3.459-7.726 7.726-7.726h234.861c4.268 0 7.726 3.459 7.726 7.726.001 4.267-3.458 7.726-7.725 7.726z" fill="#d5c6e4"/></g><g><path d="m350.716 336.445h-189.432c-4.268 0-7.726-3.459-7.726-7.726s3.459-7.726 7.726-7.726h189.433c4.268 0 7.726 3.459 7.726 7.726 0 4.266-3.459 7.726-7.727 7.726z" fill="#d5c6e4"/></g></g><path d="m391.974 0h-271.948c-6.827 0-12.362 5.535-12.362 12.362v49.449h296.672v-49.449c0-6.827-5.535-12.362-12.362-12.362z" fill="#455f7e"/><path d="m391.974 0h-30.905c6.827 0 12.362 5.535 12.362 12.362v49.449h30.905v-49.449c0-6.827-5.535-12.362-12.362-12.362z" fill="#405972"/><g><circle cx="138.57" cy="30.905" fill="#d5707e" r="7.726"/><circle cx="169.475" cy="30.905" fill="#f0d16f" r="7.726"/><circle cx="200.381" cy="30.905" fill="#a4d9a6" r="7.726"/></g></g><g><path d="m5.151 434.736h501.698c2.845 0 5.151 2.306 5.151 5.151v35.591c0 20.17-16.351 36.521-36.521 36.521h-438.958c-20.17.001-36.521-16.35-36.521-36.52v-35.591c0-2.845 2.306-5.152 5.151-5.152z" fill="#455f7e"/><g fill="#405972"><path d="m506.849 434.736h-30.905c2.845 0 5.151 2.306 5.151 5.151v35.591c0 20.17-16.351 36.521-36.521 36.521h30.905c20.17 0 36.521-16.351 36.521-36.521v-35.591c0-2.844-2.306-5.151-5.151-5.151z"/><path d="m289.95 465.642h-67.9c-5.69 0-10.302-4.612-10.302-10.302v-20.604h88.503v20.604c.001 5.69-4.612 10.302-10.301 10.302z"/></g></g></g></g></g></g></g></g></svg>