<svg id="Layer_1" enable-background="new 0 0 512 512" height="512" viewBox="0 0 512 512" width="512" xmlns="http://www.w3.org/2000/svg"><g><path d="m442.306 512h-372.612c-17.069 0-30.905-13.837-30.905-30.905v-450.19c-.001-17.068 13.836-30.905 30.905-30.905h372.612c17.069 0 30.905 13.837 30.905 30.905v450.189c.001 17.069-13.836 30.906-30.905 30.906z" fill="#506d90"/><path d="m442.306 0h-30.905c17.069 0 30.905 13.837 30.905 30.905v450.189c0 17.069-13.837 30.905-30.905 30.905h30.905c17.069 0 30.905-13.837 30.905-30.905v-450.189c.001-17.068-13.836-30.905-30.905-30.905z" fill="#455f7e"/><path d="m69.694 412.072v-373.955c0-3.983 3.229-7.211 7.211-7.211h358.19c3.983 0 7.211 3.229 7.211 7.211v373.956c0 3.983-3.229 7.211-7.211 7.211h-358.19c-3.983 0-7.211-3.229-7.211-7.212z" fill="#ecf5ff"/><path d="m435.095 30.905h-30.905c3.983 0 7.211 3.229 7.211 7.211v373.956c0 3.983-3.229 7.211-7.211 7.211h30.905c3.983 0 7.211-3.229 7.211-7.211v-373.955c0-3.983-3.228-7.212-7.211-7.212z" fill="#dbeafd"/><circle cx="256" cy="465.642" fill="#fff" r="15.453"/><g><path d="m411.4 285.875h-310.801c-4.267 0-7.726-3.459-7.726-7.726s3.459-7.726 7.726-7.726h310.801c4.268 0 7.726 3.459 7.726 7.726s-3.458 7.726-7.726 7.726z" fill="#cae0ff"/></g><g><path d="m411.4 332.233h-310.801c-4.267 0-7.726-3.459-7.726-7.726s3.459-7.726 7.726-7.726h310.801c4.268 0 7.726 3.459 7.726 7.726.001 4.267-3.458 7.726-7.726 7.726z" fill="#cae0ff"/></g><g><path d="m303.231 378.592h-202.632c-4.267 0-7.726-3.459-7.726-7.726s3.459-7.726 7.726-7.726h202.632c4.268 0 7.726 3.459 7.726 7.726.001 4.266-3.458 7.726-7.726 7.726z" fill="#cae0ff"/></g><g><g><path d="m256 231.791 104.048-14.423v-132.893c0-3.983-3.229-7.211-7.211-7.211h-76.233c-11.379 0-20.604 9.225-20.604 20.604z" fill="#f3cfbb"/><path d="m360.048 200.885h-73.143c-17.069 0-30.905 13.837-30.905 30.905h96.837c3.983 0 7.211-3.229 7.211-7.211z" fill="#f0c3aa"/><g><path d="m329.143 115.896h-42.237c-4.267 0-7.726-3.459-7.726-7.726s3.459-7.726 7.726-7.726h42.237c4.267 0 7.726 3.459 7.726 7.726 0 4.266-3.459 7.726-7.726 7.726z" fill="#f0c3aa"/></g><g><path d="m329.143 146.801h-42.237c-4.267 0-7.726-3.459-7.726-7.726s3.459-7.726 7.726-7.726h42.237c4.267 0 7.726 3.459 7.726 7.726s-3.459 7.726-7.726 7.726z" fill="#f0c3aa"/></g><g><path d="m329.143 177.706h-42.237c-4.267 0-7.726-3.459-7.726-7.726s3.459-7.726 7.726-7.726h42.237c4.267 0 7.726 3.459 7.726 7.726s-3.459 7.726-7.726 7.726z" fill="#f0c3aa"/></g></g><g><path d="m256 231.791-104.048-14.423v-132.893c0-3.983 3.229-7.211 7.211-7.211h76.233c11.379 0 20.604 9.225 20.604 20.604z" fill="#f5dacb"/><path d="m151.952 200.885h73.143c17.069 0 30.905 13.837 30.905 30.905h-96.837c-3.983 0-7.211-3.229-7.211-7.211z" fill="#f3cfbb"/><g><path d="m225.095 115.896h-42.237c-4.267 0-7.726-3.459-7.726-7.726s3.459-7.726 7.726-7.726h42.237c4.267 0 7.726 3.459 7.726 7.726 0 4.266-3.459 7.726-7.726 7.726z" fill="#f3cfbb"/></g><g><path d="m225.095 146.801h-42.237c-4.267 0-7.726-3.459-7.726-7.726s3.459-7.726 7.726-7.726h42.237c4.267 0 7.726 3.459 7.726 7.726s-3.459 7.726-7.726 7.726z" fill="#f3cfbb"/></g><g><path d="m225.095 177.706h-42.237c-4.267 0-7.726-3.459-7.726-7.726s3.459-7.726 7.726-7.726h42.237c4.267 0 7.726 3.459 7.726 7.726s-3.459 7.726-7.726 7.726z" fill="#f3cfbb"/></g></g></g></g></svg>