<svg id="Layer_1" enable-background="new 0 0 512 512" height="512" viewBox="0 0 512 512" width="512" xmlns="http://www.w3.org/2000/svg"><g><g><path d="m466.672 413.484c-4.268 0-7.726-3.459-7.726-7.726v-226.658c0-4.267 3.459-7.726 7.726-7.726s7.726 3.459 7.726 7.726v226.658c0 4.267-3.458 7.726-7.726 7.726z" fill="#ecf5ff"/></g><g><path d="m45.328 413.484c-4.268 0-7.726-3.459-7.726-7.726v-226.658c0-4.267 3.459-7.726 7.726-7.726s7.726 3.459 7.726 7.726v226.658c0 4.267-3.458 7.726-7.726 7.726z" fill="#ecf5ff"/></g><g><path d="m466.672 240.752c-8.534 0-15.453-6.895-15.453-15.4 0-107.276-87.575-194.552-195.219-194.552s-195.219 87.276-195.219 194.553c0 8.505-6.919 15.4-15.453 15.4s-15.453-6.895-15.453-15.4c0-60.194 23.521-116.785 66.23-159.348s99.495-66.005 159.895-66.005 117.185 23.441 159.894 66.004 66.23 99.154 66.23 159.348c.001 8.506-6.918 15.4-15.452 15.4z" fill="#506d90"/></g><g><g><g><path d="m470.863 496.6h-49.519v-174.585h49.519c22.719 0 41.137 18.418 41.137 41.137v92.312c0 22.718-18.418 41.136-41.137 41.136z" fill="#506d90"/><path d="m470.863 322.015h-30.905c22.719 0 41.137 18.418 41.137 41.137v92.312c0 22.719-18.418 41.137-41.137 41.137h30.905c22.719 0 41.137-18.418 41.137-41.137v-92.312c0-22.72-18.418-41.137-41.137-41.137z" fill="#455f7e"/><path d="m421.179 512c-8.626 0-15.618-6.992-15.618-15.618v-174.149c0-8.626 6.992-15.618 15.618-15.618 8.626 0 15.618 6.992 15.618 15.618v174.149c0 8.626-6.993 15.618-15.618 15.618z" fill="#ecf5ff"/></g><g><path d="m41.137 496.6h49.519v-174.585h-49.519c-22.719 0-41.137 18.417-41.137 41.136v92.312c0 22.719 18.418 41.137 41.137 41.137z" fill="#506d90"/><path d="m44.298 322.233v174.149c0 .074.01.145.011.218h31.214c.001-.073.011-.145.011-.218v-174.149c0-.074-.01-.145-.011-.218h-31.214c-.001.073-.011.144-.011.218z" fill="#455f7e"/><path d="m90.821 512c8.626 0 15.618-6.992 15.618-15.618v-174.149c0-8.626-6.992-15.618-15.618-15.618-8.626 0-15.618 6.992-15.618 15.618v174.149c0 8.626 6.993 15.618 15.618 15.618z" fill="#ecf5ff"/></g></g><g><g><path d="m256 497.979 118.655-16.552v-152.515c0-4.571-3.682-8.276-8.224-8.276h-86.936c-12.977 0-23.496 10.587-23.496 23.646v153.697z" fill="#f3cfbb"/><path d="m374.655 462.51h-83.411c-19.465 0-35.244 15.88-35.244 35.468h110.432c4.542 0 8.224-3.705 8.224-8.276v-27.192z" fill="#f0c3aa"/><g><path d="m339.411 363.831h-48.167c-4.268 0-7.726-3.459-7.726-7.726s3.459-7.726 7.726-7.726h48.167c4.268 0 7.726 3.459 7.726 7.726.001 4.267-3.458 7.726-7.726 7.726z" fill="#f0c3aa"/></g><g><path d="m339.411 399.299h-48.167c-4.268 0-7.726-3.459-7.726-7.726s3.459-7.726 7.726-7.726h48.167c4.268 0 7.726 3.459 7.726 7.726s-3.458 7.726-7.726 7.726z" fill="#f0c3aa"/></g><g><path d="m339.411 434.768h-48.167c-4.268 0-7.726-3.459-7.726-7.726s3.459-7.726 7.726-7.726h48.167c4.268 0 7.726 3.459 7.726 7.726s-3.458 7.726-7.726 7.726z" fill="#f0c3aa"/></g></g><g><path d="m256 497.979-118.655-16.552v-152.515c0-4.571 3.682-8.276 8.224-8.276h86.936c12.977 0 23.496 10.587 23.496 23.646v153.697z" fill="#f5dacb"/><path d="m137.345 462.51h83.411c19.465 0 35.244 15.88 35.244 35.468h-110.432c-4.542 0-8.224-3.705-8.224-8.276v-27.192z" fill="#f3cfbb"/><g><path d="m220.756 363.831h-48.167c-4.268 0-7.726-3.459-7.726-7.726s3.459-7.726 7.726-7.726h48.167c4.268 0 7.726 3.459 7.726 7.726s-3.459 7.726-7.726 7.726z" fill="#f3cfbb"/></g><g><path d="m220.756 399.299h-48.167c-4.268 0-7.726-3.459-7.726-7.726s3.459-7.726 7.726-7.726h48.167c4.268 0 7.726 3.459 7.726 7.726s-3.459 7.726-7.726 7.726z" fill="#f3cfbb"/></g><g><path d="m220.756 434.768h-48.167c-4.268 0-7.726-3.459-7.726-7.726s3.459-7.726 7.726-7.726h48.167c4.268 0 7.726 3.459 7.726 7.726s-3.459 7.726-7.726 7.726z" fill="#f3cfbb"/></g></g></g></g></g></svg>