<svg id="Layer_1" enable-background="new 0 0 512 512" height="512" viewBox="0 0 512 512" width="512" xmlns="http://www.w3.org/2000/svg"><g><g><g><path d="m481.095 397.095h-450.19c-17.068 0-30.905-13.836-30.905-30.905v-290.941c0-17.069 13.837-30.905 30.905-30.905h450.189c17.069 0 30.905 13.837 30.905 30.905v290.941c.001 17.069-13.836 30.905-30.904 30.905z" fill="#506d90"/><path d="m481.095 44.344h-30.905c17.069 0 30.905 13.837 30.905 30.905v290.941c0 17.069-13.837 30.905-30.905 30.905h30.905c17.069 0 30.905-13.837 30.905-30.905v-290.941c0-17.068-13.837-30.905-30.905-30.905z" fill="#455f7e"/><path d="m30.905 346.616v-267.246c0-2.276 1.845-4.121 4.121-4.121h441.948c2.276 0 4.121 1.845 4.121 4.121v267.246c0 2.276-1.845 4.121-4.121 4.121h-441.948c-2.276 0-4.121-1.845-4.121-4.121z" fill="#ecf5ff"/><path d="m30.905 346.616v-267.246c0-2.276 1.845-4.121 4.121-4.121h441.948c2.276 0 4.121 1.845 4.121 4.121v267.246c0 2.276-1.845 4.121-4.121 4.121h-441.948c-2.276 0-4.121-1.845-4.121-4.121z" fill="#ecf5ff"/><path d="m476.974 75.249h-30.905c2.276 0 4.121 1.845 4.121 4.121v267.246c0 2.276-1.845 4.121-4.121 4.121h30.905c2.276 0 4.121-1.845 4.121-4.121v-267.246c0-2.276-1.845-4.121-4.121-4.121z" fill="#dbeafd"/><path d="m307.038 512h-102.076l15.453-114.905h71.17z" fill="#455f7e"/><path d="m291.585 397.095h-30.905l15.453 114.905h30.905z" fill="#405972"/><path d="m322.853 462.321 10.881 39.235c1.456 5.251-2.493 10.444-7.942 10.444h-139.585c-5.449 0-9.398-5.193-7.942-10.444l10.881-39.235c.99-3.569 4.238-6.039 7.942-6.039h117.824c3.703 0 6.952 2.471 7.941 6.039z" fill="#506d90"/><path d="m333.735 501.556-10.881-39.235c-.99-3.569-4.238-6.039-7.942-6.039h-30.905c3.703 0 6.952 2.47 7.942 6.039l10.881 39.235c1.456 5.25-2.493 10.444-7.942 10.444h30.905c5.449 0 9.398-5.193 7.942-10.444z" fill="#455f7e"/></g></g><path d="m107.664 61.811h296.672v288.925h-296.672z" fill="#f9f6f6"/><path d="m373.43 61.811h30.905v288.926h-30.905z" fill="#e2d8ec"/><path d="m391.974 0h-271.948c-6.827 0-12.362 5.535-12.362 12.362v49.449h296.672v-49.449c0-6.827-5.535-12.362-12.362-12.362z" fill="#455f7e"/><path d="m391.974 0h-30.905c6.827 0 12.362 5.535 12.362 12.362v49.449h30.905v-49.449c0-6.827-5.535-12.362-12.362-12.362z" fill="#405972"/><circle cx="138.57" cy="30.905" fill="#d5707e" r="7.726"/><circle cx="169.475" cy="30.905" fill="#f0d16f" r="7.726"/><circle cx="200.381" cy="30.905" fill="#a4d9a6" r="7.726"/><g><g><path d="m373.431 121.284h-88.06c-4.268 0-7.726-3.459-7.726-7.726s3.459-7.726 7.726-7.726h88.06c4.268 0 7.726 3.459 7.726 7.726s-3.459 7.726-7.726 7.726z" fill="#d5c6e4"/></g><g><path d="m373.431 167.642h-59.74c-4.268 0-7.726-3.459-7.726-7.726s3.459-7.726 7.726-7.726h59.74c4.268 0 7.726 3.459 7.726 7.726s-3.459 7.726-7.726 7.726z" fill="#d5c6e4"/></g><g><path d="m373.431 214.001h-52.529c-4.268 0-7.726-3.459-7.726-7.726s3.459-7.726 7.726-7.726h52.529c4.268 0 7.726 3.459 7.726 7.726 0 4.266-3.459 7.726-7.726 7.726z" fill="#d5c6e4"/></g><g><path d="m373.431 260.359h-60.771c-4.268 0-7.726-3.459-7.726-7.726s3.459-7.726 7.726-7.726h60.771c4.268 0 7.726 3.459 7.726 7.726 0 4.266-3.459 7.726-7.726 7.726z" fill="#d5c6e4"/></g><g><path d="m373.431 306.717h-88.06c-4.268 0-7.726-3.459-7.726-7.726s3.459-7.726 7.726-7.726h88.06c4.268 0 7.726 3.459 7.726 7.726s-3.459 7.726-7.726 7.726z" fill="#d5c6e4"/></g></g><g><g><path d="m94.982 273.896h40.051v84.181h-40.051z" fill="#506d90" transform="matrix(-.866 -.5 .5 -.866 56.614 647.143)"/><path d="m17.374 485.094c16.614 9.592 37.858 3.9 47.45-12.714l61.498-106.518c4.062-7.036 1.651-16.032-5.384-20.094l-34.685-20.025c-7.036-4.062-16.032-1.651-20.094 5.384l-61.5 106.517c-9.591 16.614-3.899 37.858 12.715 47.45z" fill="#e3a76a"/><path d="m120.937 345.767-34.685-20.026c-7.036-4.062-16.032-1.651-20.094 5.384l-.371.643 24.245 13.998c7.036 4.062 9.446 13.059 5.384 20.094l-61.498 106.52c-3.552 6.152-8.703 10.802-14.624 13.737 16.298 8.112 36.303 2.244 45.529-13.737l61.498-106.518c4.063-7.036 1.652-16.033-5.384-20.095z" fill="#d79956"/></g><g><ellipse cx="178.041" cy="206.81" fill="#cae0ff" rx="110.39" ry="110.39" transform="matrix(.397 -.918 .918 .397 -82.483 288.028)"/><path d="m178.041 96.42c-5.244 0-10.402.376-15.453 1.087 53.579 7.539 94.937 53.678 94.937 109.304 0 55.625-41.358 101.764-94.937 109.303 5.051.711 10.208 1.087 15.452 1.087 60.869 0 110.39-49.521 110.39-110.39.001-60.87-49.52-110.391-110.389-110.391z" fill="#bcd7fd"/><ellipse cx="178.041" cy="206.81" fill="#ecf5ff" rx="68.252" ry="68.251" transform="matrix(.971 -.241 .241 .971 -44.524 48.905)"/><path d="m178.041 138.558c-5.316 0-10.484.631-15.453 1.786 30.212 7.023 52.799 34.147 52.799 66.466 0 32.318-22.587 59.442-52.799 66.465 4.969 1.155 10.137 1.786 15.453 1.786 37.634 0 68.251-30.617 68.251-68.251s-30.617-68.252-68.251-68.252z" fill="#dbeafd"/></g></g></g></svg>