<svg id="Layer_1" enable-background="new 0 0 512 512" height="512" viewBox="0 0 512 512" width="512" xmlns="http://www.w3.org/2000/svg"><g><g><path d="m441.274 158.962c-4.005-.98-6.707-4.826-6.234-8.947.576-5.023.882-10.127.882-15.306 0-74.397-59.93-134.709-133.858-134.709-43.347 0-81.861 20.75-106.323 52.902-2.233 2.935-6.119 4.085-9.523 2.693-11.482-4.697-24.213-6.942-37.562-6.056-40.895 2.714-74.363 35.219-78.558 76.247-.886 8.665-.444 17.083 1.109 25.103.805 4.158-1.593 8.26-5.618 9.498-37.968 11.676-65.589 47.199-65.589 89.23 0 51.533 41.511 93.308 92.718 93.308h326.564c51.207 0 92.718-41.775 92.718-93.308 0-43.906-30.137-80.718-70.726-90.655z" fill="#ecf5ff"/><g><path d="m441.274 158.963c-4.005-.98-6.707-4.826-6.234-8.947.576-5.023.882-10.127.882-15.306 0-74.398-59.93-134.71-133.858-134.71-5.232 0-10.391.309-15.466.897 66.654 7.705 118.419 64.671 118.419 133.813 0 5.179-.306 10.283-.882 15.306-.473 4.12 2.229 7.966 6.234 8.947 40.589 9.936 70.726 46.748 70.726 90.654 0 51.533-41.511 93.308-92.718 93.308h30.905c51.207 0 92.718-41.776 92.718-93.308 0-43.906-30.137-80.718-70.726-90.654z" fill="#dbeafd"/></g><g><g><path d="m256 295.602 118.655-16.552v-152.514c0-4.571-3.682-8.276-8.224-8.276h-86.936c-12.977 0-23.496 10.587-23.496 23.646v153.696z" fill="#f3cfbb"/><path d="m374.655 260.134h-83.411c-19.465 0-35.244 15.88-35.244 35.468h110.432c4.542 0 8.224-3.705 8.224-8.276v-27.192z" fill="#f0c3aa"/><g><path d="m339.411 161.455h-48.167c-4.268 0-7.726-3.459-7.726-7.726s3.459-7.726 7.726-7.726h48.167c4.268 0 7.726 3.459 7.726 7.726s-3.458 7.726-7.726 7.726z" fill="#f0c3aa"/></g><g><path d="m339.411 196.923h-48.167c-4.268 0-7.726-3.459-7.726-7.726s3.459-7.726 7.726-7.726h48.167c4.268 0 7.726 3.459 7.726 7.726.001 4.267-3.458 7.726-7.726 7.726z" fill="#f0c3aa"/></g><g><path d="m339.411 232.392h-48.167c-4.268 0-7.726-3.459-7.726-7.726s3.459-7.726 7.726-7.726h48.167c4.268 0 7.726 3.459 7.726 7.726.001 4.267-3.458 7.726-7.726 7.726z" fill="#f0c3aa"/></g></g><g><path d="m256 295.602-118.655-16.552v-152.514c0-4.571 3.682-8.276 8.224-8.276h86.936c12.977 0 23.496 10.587 23.496 23.646v153.696z" fill="#f5dacb"/><path d="m137.345 260.134h83.411c19.465 0 35.244 15.88 35.244 35.468h-110.432c-4.542 0-8.224-3.705-8.224-8.276v-27.192z" fill="#f3cfbb"/><g><path d="m220.756 161.455h-48.167c-4.268 0-7.726-3.459-7.726-7.726s3.459-7.726 7.726-7.726h48.167c4.268 0 7.726 3.459 7.726 7.726s-3.459 7.726-7.726 7.726z" fill="#f3cfbb"/></g><g><path d="m220.756 196.923h-48.167c-4.268 0-7.726-3.459-7.726-7.726s3.459-7.726 7.726-7.726h48.167c4.268 0 7.726 3.459 7.726 7.726s-3.459 7.726-7.726 7.726z" fill="#f3cfbb"/></g><g><path d="m220.756 232.392h-48.167c-4.268 0-7.726-3.459-7.726-7.726s3.459-7.726 7.726-7.726h48.167c4.268 0 7.726 3.459 7.726 7.726s-3.459 7.726-7.726 7.726z" fill="#f3cfbb"/></g></g></g></g><g><path d="m336.44 453.282v-70.638c0-3.593-2.913-6.506-6.506-6.506h-27.092c-3.593 0-6.506 2.913-6.506 6.506v70.638c0 3.593-2.913 6.506-6.506 6.506h-14.885c-4.968 0-7.456 6.007-3.943 9.52l40.786 40.786c2.541 2.541 6.66 2.541 9.201 0l40.786-40.786c3.513-3.513 1.025-9.52-3.943-9.52h-14.885c-3.594 0-6.507-2.913-6.507-6.506z" fill="#bfe69f"/><path d="m357.831 459.788h-14.885c-3.593 0-6.506-2.913-6.506-6.506v-70.638c0-3.593-2.913-6.506-6.506-6.506h-24.008c3.593 0 6.506 2.913 6.506 6.506v70.638c0 3.593 2.913 6.506 6.506 6.506h.402c10.313 0 15.478 12.469 8.185 19.761l-23.142 23.142 7.403 7.403c2.541 2.541 6.66 2.541 9.201 0l40.786-40.786c3.515-3.513 1.027-9.52-3.942-9.52z" fill="#a4d9a6"/><path d="m215.665 434.856v70.638c0 3.593-2.913 6.506-6.506 6.506h-27.092c-3.593 0-6.506-2.913-6.506-6.506v-70.638c0-3.593-2.913-6.506-6.506-6.506h-14.885c-4.968 0-7.456-6.007-3.943-9.52l40.786-40.786c2.541-2.541 6.66-2.541 9.201 0l40.786 40.786c3.513 3.513 1.025 9.52-3.943 9.52h-14.885c-3.595-.001-6.507 2.912-6.507 6.506z" fill="#dd8793"/><path d="m237.056 428.349h-14.885c-3.593 0-6.506 2.913-6.506 6.506v70.638c0 3.593-2.913 6.506-6.506 6.506h-24.009c3.593 0 6.506-2.913 6.506-6.506v-70.638c0-3.593 2.913-6.506 6.506-6.506h.402c10.313 0 15.478-12.469 8.185-19.761l-23.142-23.142 7.403-7.403c2.541-2.541 6.66-2.541 9.201 0l40.786 40.786c3.515 3.514 1.027 9.52-3.941 9.52z" fill="#d5707e"/></g></g></svg>