<svg id="Layer_1" enable-background="new 0 0 512 512" height="512" viewBox="0 0 512 512" width="512" xmlns="http://www.w3.org/2000/svg"><g><g><g><path d="m512 61.811v419.284c0 17.068-13.837 30.905-30.905 30.905h-450.19c-17.068 0-30.905-13.837-30.905-30.905v-419.284z" fill="#f9f6f6"/><g><g><path d="m243.584 332.307h-173.215c-13.261 0-24.011 10.75-24.011 24.011v54.733c0 13.261 10.75 24.011 24.011 24.011h117.578c1.486 0 2.911.59 3.962 1.641l23.174 23.174c2.017 2.017 5.465.588 5.465-2.264v-16.949c0-3.094 2.508-5.603 5.603-5.603h17.434c13.261 0 24.011-10.75 24.011-24.011v-54.733c-.001-13.26-10.751-24.01-24.012-24.01z" fill="#bfe69f"/><path d="m226.151 435.062h17.434c13.261 0 24.011-10.75 24.011-24.011v-54.733c0-13.261-10.75-24.011-24.011-24.011h-30.905c13.261 0 24.011 10.75 24.011 24.011v54.733c0 6.918-2.926 13.153-7.608 17.534-1.808 1.692-2.909 4.002-2.932 6.477z" fill="#a4d9a6"/><g><g><path d="m232.637 375.959h-151.321c-4.267 0-7.726-3.459-7.726-7.726s3.459-7.726 7.726-7.726h151.321c4.267 0 7.726 3.459 7.726 7.726s-3.459 7.726-7.726 7.726z" fill="#f9f6f6"/></g><g><path d="m232.637 406.864h-151.321c-4.267 0-7.726-3.459-7.726-7.726s3.459-7.726 7.726-7.726h151.321c4.267 0 7.726 3.459 7.726 7.726s-3.459 7.726-7.726 7.726z" fill="#f9f6f6"/></g></g></g><g><path d="m268.416 131.422h173.215c13.261 0 24.011 10.75 24.011 24.011v54.733c0 13.261-10.75 24.011-24.011 24.011h-117.578c-1.486 0-2.911.59-3.962 1.641l-23.174 23.174c-2.017 2.017-5.465.588-5.465-2.264v-16.949c0-3.094-2.508-5.603-5.603-5.603h-17.434c-13.261 0-24.011-10.75-24.011-24.011v-54.733c.001-13.26 10.751-24.01 24.012-24.01z" fill="#f7e07f"/><g><path d="m441.631 131.422h-30.905c13.261 0 24.011 10.75 24.011 24.011v54.733c0 13.261-10.75 24.011-24.011 24.011h30.905c13.261 0 24.011-10.75 24.011-24.011v-54.733c0-13.261-10.75-24.011-24.011-24.011z" fill="#f0d16f"/></g><g><g><path d="m430.684 175.073h-151.321c-4.267 0-7.726-3.459-7.726-7.726 0-4.268 3.459-7.726 7.726-7.726h151.321c4.267 0 7.726 3.459 7.726 7.726 0 4.268-3.459 7.726-7.726 7.726z" fill="#f9f6f6"/></g><g><path d="m430.684 205.979h-151.321c-4.267 0-7.726-3.459-7.726-7.726s3.459-7.726 7.726-7.726h151.321c4.267 0 7.726 3.459 7.726 7.726s-3.459 7.726-7.726 7.726z" fill="#f9f6f6"/></g></g></g><g><path d="m465.642 387.348c0 24.638-12.128 46.444-30.739 59.774-12.04 8.624-25.223 10.863-41.163 10.863-5.302 0-12.044 2.274-17.027 1.207-33.157-7.099-58.018-36.568-58.018-71.845 0-40.578 32.895-73.473 73.473-73.473s73.474 32.896 73.474 73.474z" fill="#bcd7fd"/><path d="m392.169 313.875c-5.302 0-10.469.575-15.453 1.642 33.156 7.099 58.021 36.556 58.021 71.831s-24.865 64.732-58.021 71.831c4.984 1.067 10.15-1.131 15.453-1.131 15.94 0 30.694-2.303 42.734-10.927 18.611-13.33 30.739-35.136 30.739-59.774 0-40.577-32.895-73.472-73.473-73.472z" fill="#9bc6fd"/><path d="m395.105 403.603h-5.872c-21.973 0-39.786 17.813-39.786 39.786v3.716c12.041 8.624 26.782 13.716 42.722 13.716s30.682-5.093 42.722-13.716v-3.716c0-21.973-17.813-39.786-39.786-39.786z" fill="#bfe69f"/><path d="m376.724 459.178c14.632 3.134 32.285 2.093 48.859-6.4 3.249-1.665 6.361-3.561 9.308-5.672v-3.716c0-8.818-2.873-16.962-7.728-23.557-9.793 19.819-28.252 34.592-50.439 39.345z" fill="#a4d9a6"/><circle cx="392.169" cy="376.4" fill="#f2ccbc" r="27.203"/><path d="m392.169 349.197c-4.957 0-9.599 1.332-13.602 3.648 8.129 4.704 13.602 13.487 13.602 23.555 0 10.067-5.473 18.851-13.602 23.555 4.002 2.316 8.645 3.648 13.602 3.648 15.024 0 27.203-12.179 27.203-27.203s-12.179-27.203-27.203-27.203z" fill="#ecad9a"/></g><g><path d="m193.305 186.463c0 24.638-12.128 46.444-30.739 59.774-12.04 8.623-25.223 10.864-41.163 10.864-5.302 0-12.044 2.274-17.027 1.207-33.157-7.099-58.018-36.568-58.018-71.845 0-40.578 32.895-73.473 73.473-73.473s73.474 32.895 73.474 73.473z" fill="#bcd7fd"/><path d="m119.831 112.989c-5.302 0-10.469.575-15.453 1.642 33.156 7.099 58.02 36.556 58.02 71.831s-24.865 64.732-58.02 71.831c4.984 1.067 10.15-1.131 15.453-1.131 15.94 0 30.694-2.303 42.734-10.927 18.611-13.33 30.739-35.135 30.739-59.774.001-40.576-32.894-73.472-73.473-73.472z" fill="#9bc6fd"/><path d="m122.767 202.718h-5.872c-21.973 0-39.786 17.813-39.786 39.786v3.716c12.041 8.624 26.782 13.716 42.722 13.716s30.682-5.093 42.722-13.716v-3.716c.001-21.973-17.812-39.786-39.786-39.786z" fill="#f7e07f"/><path d="m104.387 258.292c14.632 3.134 32.285 2.093 48.859-6.4 3.249-1.665 6.361-3.561 9.308-5.672v-3.716c0-8.818-2.873-16.962-7.728-23.557-9.793 19.82-28.253 34.592-50.439 39.345z" fill="#f0d16f"/><circle cx="119.831" cy="175.515" fill="#f2ccbc" r="27.203"/><path d="m119.831 148.311c-4.957 0-9.599 1.332-13.602 3.648 8.129 4.704 13.602 13.487 13.602 23.555 0 10.067-5.473 18.851-13.602 23.555 4.002 2.316 8.645 3.648 13.602 3.648 15.024 0 27.203-12.179 27.203-27.203s-12.179-27.203-27.203-27.203z" fill="#ecad9a"/></g></g><path d="m481.095 61.811v419.284c0 17.069-13.837 30.905-30.905 30.905h30.905c17.068 0 30.905-13.837 30.905-30.905v-419.284z" fill="#e2d8ec"/><path d="m481.095 0h-450.19c-17.068 0-30.905 13.837-30.905 30.905v30.905h512v-30.905c0-17.068-13.837-30.905-30.905-30.905z" fill="#506d90"/><path d="m481.095 0h-30.905c17.069 0 30.905 13.837 30.905 30.905v30.905h30.905v-30.905c0-17.068-13.837-30.905-30.905-30.905z" fill="#455f7e"/><g><circle cx="35.91" cy="30.905" fill="#d5707e" r="7.726"/><circle cx="66.815" cy="30.905" fill="#f0d16f" r="7.726"/><circle cx="97.72" cy="30.905" fill="#a4d9a6" r="7.726"/></g></g></g></g></svg>