<svg id="Layer_1" enable-background="new 0 0 512 512" height="512" viewBox="0 0 512 512" width="512" xmlns="http://www.w3.org/2000/svg"><g><g><g><g><g><g><path d="m488.821 434.736h-465.642v-321.846c0-17.069 13.837-30.905 30.905-30.905h403.831c17.069 0 30.905 13.837 30.905 30.905v321.846z" fill="#506d90"/><path d="m457.915 81.985h-30.905c17.069 0 30.905 13.837 30.905 30.905v321.846h30.905v-321.846c.001-17.068-13.836-30.905-30.905-30.905z" fill="#455f7e"/><path d="m54.085 380.89v-263.879c0-2.276 1.845-4.121 4.121-4.121h395.59c2.276 0 4.121 1.845 4.121 4.121v263.879c0 2.276-1.845 4.121-4.121 4.121h-30.905l-166.891-15.453-167.26 15.452-30.535.001c-2.276-.001-4.12-1.846-4.12-4.121z" fill="#ecf5ff"/><path d="m453.795 112.89h-30.905c2.276 0 4.121 1.845 4.121 4.121v263.879c0 2.276-1.845 4.121-4.121 4.121h30.905c2.276 0 4.121-1.845 4.121-4.121v-263.879c-.001-2.276-1.845-4.121-4.121-4.121z" fill="#dbeafd"/><g><g><path d="m423.26 334.737v50.273h-334.52v-50.273c0-26.465 18.42-49.376 44.277-55.063l69.228-15.206c8.622-1.896 14.762-9.539 14.762-18.358v-57.247h77.985v57.247c0 8.818 6.14 16.462 14.762 18.358l69.228 15.206c25.859 5.686 44.278 28.597 44.278 55.063z" fill="#fff"/></g><g><path d="m378.983 279.674-69.228-15.206c-8.622-1.896-14.762-9.539-14.762-18.358v-57.247h-30.905v72.7c0 8.818 6.14 16.462 14.762 18.358l69.228 15.205c25.858 5.687 44.277 28.598 44.277 55.063v34.82h30.905v-50.273c0-26.465-18.419-49.376-44.277-55.062z" fill="#f9f6f6"/></g><g><path d="m202.245 264.468c8.622-1.896 14.762-9.539 14.762-18.358v-57.247h62.532v57.247c0 8.818 21.593 16.462 30.215 18.358l-53.754 14.991z" fill="#f2ccbc"/></g><path d="m295.494 250.429c-.329-1.392-.502-2.839-.502-4.319v-57.247h-30.905v72.7c0 3.594 1.022 6.991 2.815 9.884z" fill="#ecad9a"/><path d="m280.529 385.01h-49.408l6.099-98.105 18.78-7.448 18.78 7.448z" fill="#dd8793"/><g><g><g><path d="m338.588 112.751h-165.176v-67.301c0-25.101 20.348-45.45 45.45-45.45h74.276c25.101 0 45.45 20.349 45.45 45.45z" fill="#cf9772"/><path d="m293.138 0h-30.905c25.101 0 45.45 20.349 45.45 45.45v67.301h30.905v-67.301c0-25.101-20.349-45.45-45.45-45.45z" fill="#c88556"/><path d="m338.588 102.903c-7.068-2.028-18.697-6.334-30.43-15.775-10.297-8.286-16.77-17.387-20.653-24.088-1.179-2.036-3.922-2.497-5.696-.951-7.813 6.811-17.624 14.087-29.621 20.603-31.368 17.036-61.3 19.972-78.777 20.212v52.656c0 45.612 36.976 82.588 82.588 82.588 2.729 0 5.426-.132 8.087-.391 5.36-.521 8.699-9.258 13.709-10.754 5.188-1.549 12.033 4.11 16.738 1.623 26.199-13.846 44.053-41.371 44.053-73.066v-52.657z" fill="#f2ccbc"/><path d="m307.682 102.903v52.656c.22 5.333.766 31.845-19.234 52.97-28.072 29.65-69.713 20.268-71.443 19.847 7.051 3.696 17.686 8.093 31.165 9.393 0 0 3.979.377 7.83.377 45.612 0 82.588-36.976 82.588-82.588v-52.656c-7.173-2.026-19.283-6.667-30.901-16.158z" fill="#ecad9a"/></g><g><g><path d="m216.153 150.574c-4.268 0-7.726-3.459-7.726-7.726v-15.939c0-4.268 3.459-7.726 7.726-7.726 4.268 0 7.726 3.459 7.726 7.726v15.939c0 4.268-3.458 7.726-7.726 7.726z" fill="#455f7e"/></g><g><path d="m295.847 150.574c-4.268 0-7.726-3.459-7.726-7.726v-15.939c0-4.268 3.459-7.726 7.726-7.726s7.726 3.459 7.726 7.726v15.939c0 4.268-3.458 7.726-7.726 7.726z" fill="#455f7e"/></g></g><g><path d="m256.003 209.434c-.144 0-.287-.001-.432-.002-6.692-.07-13.341-1.813-19.225-5.039-3.741-2.052-5.111-6.748-3.059-10.49 2.051-3.74 6.747-5.114 10.49-3.059 2.553 1.4 6.701 3.081 11.957 3.136.089.001.179.002.268.002 5.366 0 9.6-1.698 12.221-3.137 3.743-2.053 8.438-.684 10.49 3.057s.684 8.438-3.057 10.49c-4.215 2.311-11.021 5.042-19.653 5.042z" fill="#ecad9a"/></g><path d="m348.732 141.889h-10.144v-38.986h10.144c10.766 0 19.493 8.727 19.493 19.493 0 10.766-8.727 19.493-19.493 19.493z" fill="#f2ccbc"/><path d="m163.268 141.889h10.144v-38.986h-10.144c-10.766 0-19.493 8.727-19.493 19.493 0 10.766 8.727 19.493 19.493 19.493z" fill="#ecad9a"/></g></g><g><path d="m256 279.459-39.511-29.034c-1.63 6.904-7.071 12.461-14.243 14.037l-23.312 5.123 47.262 34.73c1.64 1.205 3.914 1.032 5.354-.407z" fill="#e2d8ec"/><path d="m285.804 304.316 47.262-34.73-23.312-5.123c-7.172-1.576-12.613-7.133-14.243-14.037l-39.511 29.033 24.45 24.45c1.44 1.44 3.714 1.613 5.354.407z" fill="#e2d8ec"/><path d="m333.064 269.588-23.31-5.12c-3.923-1.004-7.752-2.817-10.981-7.08-1.54-2.05-2.663-4.411-3.265-6.961l-28.596 21.014c2.605 4.207 6.829 7.357 11.937 8.48l30.913 6.79z" fill="#d5c6e4"/></g></g><g><path d="m5.151 434.736h501.698c2.845 0 5.151 2.306 5.151 5.151v35.591c0 20.17-16.351 36.521-36.521 36.521h-438.958c-20.17.001-36.521-16.35-36.521-36.52v-35.591c0-2.845 2.306-5.152 5.151-5.152z" fill="#455f7e"/><g fill="#405972"><path d="m506.849 434.736h-30.905c2.845 0 5.151 2.306 5.151 5.151v35.591c0 20.17-16.351 36.521-36.521 36.521h30.905c20.17 0 36.521-16.351 36.521-36.521v-35.591c0-2.844-2.306-5.151-5.151-5.151z"/><path d="m289.95 465.642h-67.9c-5.69 0-10.302-4.612-10.302-10.302v-20.604h88.503v20.604c.001 5.69-4.612 10.302-10.301 10.302z"/></g></g></g></g></g></g></g></g></svg>