<svg id="Layer_1" enable-background="new 0 0 512 512" height="512" viewBox="0 0 512 512" width="512" xmlns="http://www.w3.org/2000/svg"><g><g><g><path d="m481.095 397.095h-450.19c-17.068 0-30.905-13.836-30.905-30.905v-290.941c0-17.069 13.837-30.905 30.905-30.905h450.189c17.069 0 30.905 13.837 30.905 30.905v290.941c.001 17.069-13.836 30.905-30.904 30.905z" fill="#506d90"/><path d="m481.095 44.344h-30.905c17.069 0 30.905 13.837 30.905 30.905v290.941c0 17.069-13.837 30.905-30.905 30.905h30.905c17.069 0 30.905-13.837 30.905-30.905v-290.941c0-17.068-13.837-30.905-30.905-30.905z" fill="#455f7e"/><path d="m30.905 346.616v-267.246c0-2.276 1.845-4.121 4.121-4.121h441.948c2.276 0 4.121 1.845 4.121 4.121v267.246c0 2.276-1.845 4.121-4.121 4.121h-441.948c-2.276 0-4.121-1.845-4.121-4.121z" fill="#ecf5ff"/><path d="m30.905 346.616v-267.246c0-2.276 1.845-4.121 4.121-4.121h441.948c2.276 0 4.121 1.845 4.121 4.121v267.246c0 2.276-1.845 4.121-4.121 4.121h-441.948c-2.276 0-4.121-1.845-4.121-4.121z" fill="#ecf5ff"/><path d="m476.974 75.249h-30.905c2.276 0 4.121 1.845 4.121 4.121v267.246c0 2.276-1.845 4.121-4.121 4.121h30.905c2.276 0 4.121-1.845 4.121-4.121v-267.246c0-2.276-1.845-4.121-4.121-4.121z" fill="#dbeafd"/><path d="m307.038 512h-102.076l15.453-114.905h71.17z" fill="#455f7e"/><path d="m291.585 397.095h-30.905l15.453 114.905h30.905z" fill="#405972"/><path d="m322.853 462.321 10.881 39.235c1.456 5.251-2.493 10.444-7.942 10.444h-139.585c-5.449 0-9.398-5.193-7.942-10.444l10.881-39.235c.99-3.569 4.238-6.039 7.942-6.039h117.824c3.703 0 6.952 2.471 7.941 6.039z" fill="#506d90"/><path d="m333.735 501.556-10.881-39.235c-.99-3.569-4.238-6.039-7.942-6.039h-30.905c3.703 0 6.952 2.47 7.942 6.039l10.881 39.235c1.456 5.25-2.493 10.444-7.942 10.444h30.905c5.449 0 9.398-5.193 7.942-10.444z" fill="#455f7e"/></g><path d="m92.212 61.811h327.577v288.926h-327.577z" fill="#f9f6f6"/><path d="m388.883 61.811h30.905v288.926h-30.905z" fill="#e2d8ec"/><g><g fill="#455f7e"><path d="m265.891 100.443c4.268 0 7.726-3.459 7.726-7.726 0-4.268-3.459-7.726-7.726-7.726h-19.783c-4.268 0-7.726 3.459-7.726 7.726v46.951c0 4.268 3.459 7.726 7.726 7.726h19.783c4.268 0 7.726-3.459 7.726-7.726 0-4.268-3.459-7.726-7.726-7.726h-12.056v-8.022h10.598c4.268 0 7.726-3.459 7.726-7.726 0-4.268-3.459-7.726-7.726-7.726h-10.598v-8.023h12.056z"/><path d="m252.271 165.947c-1.307-3.456-4.61-5.707-8.287-5.707-.002 0-.003 0-.005 0-3.689 0-6.944 2.253-8.277 5.687l-18.981 49.836c-1.519 3.988.483 8.452 4.47 9.971 3.893 1.483 8.439-.432 9.971-4.47l2.832-7.436h19.83l2.798 7.413c1.506 3.992 5.965 6.008 9.957 4.5 3.992-1.506 6.007-5.964 4.5-9.957zm-12.392 32.428 4.075-10.7 4.038 10.7z"/><path d="m391.85 167.89c-.043-4.297-3.541-7.693-7.801-7.652-4.268.041-7.693 3.534-7.652 7.801l.255 26.21-21.118-30.58c-1.922-2.783-5.426-3.99-8.658-2.986-3.227 1.006-5.427 3.995-5.427 7.376v50.454c0 4.268 3.459 7.726 7.726 7.726s7.726-3.459 7.726-7.726v-25.668l20.033 29.009c2.215 3.2 5.93 4.551 9.468 3.447 3.596-1.125 5.92-4.457 5.92-8.565z"/><path d="m145.105 210.744c-.015 0-.029 0-.044 0-3.375.019-6.929.033-9.931.039v-42.819c0-4.268-3.459-7.726-7.726-7.726s-7.726 3.459-7.726 7.726v50.506c0 3.765 2.712 6.981 6.423 7.616 3.086.528 12.2.149 19.047.111 4.267-.024 7.707-3.502 7.683-7.77-.025-4.252-3.479-7.683-7.726-7.683z"/><path d="m196.122 176.153c4.268 0 7.726-3.459 7.726-7.726s-3.459-7.726-7.726-7.726h-21.105c-4.268 0-7.726 3.459-7.726 7.726v50.087c0 4.268 3.459 7.726 7.726 7.726h21.105c4.268 0 7.726-3.459 7.726-7.726s-3.459-7.726-7.726-7.726h-13.378v-9.591h11.822c4.268 0 7.726-3.459 7.726-7.726s-3.459-7.726-7.726-7.726h-11.822v-9.591h13.378z"/><path d="m327.782 181.102c0-11.504-9.693-20.863-21.607-20.863h-13.433c-.003 0-.006.001-.008.001-.003 0-.005-.001-.008-.001-4.268 0-7.726 3.459-7.726 7.726v50.548c0 4.268 3.459 7.726 7.726 7.726s7.726-3.459 7.726-7.726v-10.578l13.803 15.683c2.829 3.214 7.713 3.504 10.904.695 3.203-2.819 3.514-7.701.695-10.904l-11.46-13.021c7.848-3.131 13.388-10.592 13.388-19.286zm-21.607-5.411c3.336 0 6.154 2.478 6.154 5.41 0 2.933-2.818 5.41-6.154 5.41-1.356 0-3.488.008-5.655.017-.054-4.693.008-6.016-.028-10.838h5.683z"/></g><path d="m309.401 251.598 8.525 48.71c.574 3.277 4.601 4.55 6.954 2.197l6.29-6.291c1.605-1.605 4.207-1.605 5.811 0l25.492 25.492c1.605 1.605 4.207 1.605 5.811 0l15.982-15.982c1.605-1.605 1.605-4.207 0-5.811l-25.492-25.492c-1.605-1.605-1.605-4.207 0-5.811l6.29-6.29c2.353-2.353 1.08-6.38-2.197-6.954l-48.71-8.525c-2.805-.49-5.247 1.952-4.756 4.757z" fill="#bfe69f"/></g><path d="m391.974 0h-287.4c-6.827 0-12.362 5.535-12.362 12.362v49.449h327.577l-15.453-49.449c0-6.827-5.535-12.362-12.362-12.362z" fill="#455f7e"/><path d="m407.426 0h-30.905c6.827 0 12.362 5.535 12.362 12.362v49.449h30.905v-49.449c0-6.827-5.534-12.362-12.362-12.362z" fill="#405972"/></g><g><circle cx="123.117" cy="30.905" fill="#d5707e" r="7.726"/><circle cx="154.022" cy="30.905" fill="#f0d16f" r="7.726"/><circle cx="184.928" cy="30.905" fill="#a4d9a6" r="7.726"/></g></g></svg>