<svg id="Layer_1" enable-background="new 0 0 512 512" height="512" viewBox="0 0 512 512" width="512" xmlns="http://www.w3.org/2000/svg"><g><g><g><path d="m481.095 397.095h-450.19c-17.068 0-30.905-13.836-30.905-30.905v-290.941c0-17.069 13.837-30.905 30.905-30.905h450.189c17.069 0 30.905 13.837 30.905 30.905v290.941c.001 17.069-13.836 30.905-30.904 30.905z" fill="#506d90"/><path d="m481.095 44.344h-30.905c17.069 0 30.905 13.837 30.905 30.905v290.941c0 17.069-13.837 30.905-30.905 30.905h30.905c17.069 0 30.905-13.837 30.905-30.905v-290.941c0-17.068-13.837-30.905-30.905-30.905z" fill="#455f7e"/><path d="m30.905 346.616v-267.246c0-2.276 1.845-4.121 4.121-4.121h441.948c2.276 0 4.121 1.845 4.121 4.121v267.246c0 2.276-1.845 4.121-4.121 4.121h-441.948c-2.276 0-4.121-1.845-4.121-4.121z" fill="#ecf5ff"/><path d="m30.905 346.616v-267.246c0-2.276 1.845-4.121 4.121-4.121h441.948c2.276 0 4.121 1.845 4.121 4.121v267.246c0 2.276-1.845 4.121-4.121 4.121h-441.948c-2.276 0-4.121-1.845-4.121-4.121z" fill="#ecf5ff"/><path d="m476.974 75.249h-30.905c2.276 0 4.121 1.845 4.121 4.121v267.246c0 2.276-1.845 4.121-4.121 4.121h30.905c2.276 0 4.121-1.845 4.121-4.121v-267.246c0-2.276-1.845-4.121-4.121-4.121z" fill="#dbeafd"/><path d="m307.038 512h-102.076l15.453-114.905h71.17z" fill="#455f7e"/><path d="m291.585 397.095h-30.905l15.453 114.905h30.905z" fill="#405972"/><path d="m322.853 462.321 10.881 39.235c1.456 5.251-2.493 10.444-7.942 10.444h-139.585c-5.449 0-9.398-5.193-7.942-10.444l10.881-39.235c.99-3.569 4.238-6.039 7.942-6.039h117.824c3.703 0 6.952 2.471 7.941 6.039z" fill="#506d90"/><path d="m333.735 501.556-10.881-39.235c-.99-3.569-4.238-6.039-7.942-6.039h-30.905c3.703 0 6.952 2.47 7.942 6.039l10.881 39.235c1.456 5.25-2.493 10.444-7.942 10.444h30.905c5.449 0 9.398-5.193 7.942-10.444z" fill="#455f7e"/></g><path d="m92.212 61.811h327.577v288.926h-327.577z" fill="#f9f6f6"/><path d="m388.883 61.811h30.905v288.926h-30.905z" fill="#e2d8ec"/><g><path d="m388.883 327.558h-265.766c-4.268 0-7.726-3.459-7.726-7.726s3.459-7.726 7.726-7.726h265.767c4.268 0 7.726 3.459 7.726 7.726s-3.459 7.726-7.727 7.726z" fill="#d5c6e4"/></g><g><path d="m238.678 192.006c0-41.411 33.716-74.947 75.195-74.654 41.079.29 74.435 34.168 74.115 75.247-.201 25.879-13.573 48.619-33.74 61.858-.945.62-1.502 1.686-1.502 2.816v29.118c0 2.194-2.391 3.553-4.276 2.429l-36.485-21.746c-.487-.29-1.041-.449-1.608-.471-39.861-1.554-71.699-34.357-71.699-74.597z" fill="#bfe69f"/><path d="m313.872 117.351c-5.489-.039-10.836.531-15.993 1.617 33.939 7.21 59.482 37.658 59.202 73.63-.18 23.096-10.849 43.691-27.477 57.264-4.966 4.054-7.765 10.188-7.765 16.599v6.486l26.63 15.872c1.885 1.124 4.276-.235 4.276-2.429v-29.118c0-1.157.597-2.221 1.563-2.857 20.133-13.245 33.478-35.965 33.679-61.817.32-41.079-33.035-74.957-74.115-75.247z" fill="#a4d9a6"/><path d="m255.414 158.418c0-36.444-29.672-65.958-66.176-65.7-36.152.255-65.507 30.07-65.226 66.222.177 22.775 11.945 42.788 29.694 54.439.832.546 1.322 1.484 1.322 2.479v25.626c0 1.931 2.104 3.127 3.763 2.138l32.109-19.138c.429-.256.916-.395 1.415-.415 35.079-1.368 63.099-30.236 63.099-65.651z" fill="#bcd7fd"/><path d="m189.238 92.718c-5.136.036-10.128.688-14.924 1.851 14.4 3.485 26.949 11.712 35.897 22.935 2.875 3.605 15.824 19.792 14.297 40.914-1.689 23.362-20.485 44.496-47.143 53.083-3.982 4.084-9.231 8.589-15.957 12.566-2.189 1.295-4.328 2.41-6.382 3.375v14.04c0 1.931 2.104 3.127 3.763 2.138l32.109-19.138c.429-.256.916-.395 1.415-.415 35.08-1.367 63.1-30.235 63.1-65.65.001-36.443-29.671-65.956-66.175-65.699z" fill="#9bc6fd"/><g fill="#fff"><path d="m222.691 177.709-25.967-56.121c-1.265-2.732-4.001-4.482-7.012-4.482s-5.747 1.75-7.012 4.482c0 0-24.157 54.034-25.967 56.121-1.792 3.872-.105 8.465 3.768 10.257s8.465.105 10.257-3.768l5.139-11.107h27.631l5.139 11.107c1.81 3.921 6.457 5.526 10.257 3.768 3.872-1.792 5.559-6.385 3.767-10.257zm-39.644-20.07 6.666-14.406 6.666 14.406z"/><path d="m353.294 157.81h-30.377v-8.786c0-4.268-3.459-7.726-7.726-7.726-4.268 0-7.726 3.459-7.726 7.726v8.786h-26.28c-4.268 0-7.726 3.459-7.726 7.726 0 4.268 3.459 7.726 7.726 7.726h46.617c-4.147 7.901-10.157 16.722-18.78 24.803-3.523-3.755-6.66-7.869-9.365-12.315-2.218-3.646-6.971-4.803-10.617-2.585s-4.803 6.972-2.585 10.617c3.026 4.972 6.51 9.594 10.388 13.855-5.174 3.391-10.703 6.275-16.535 8.586-3.967 1.572-5.907 6.062-4.336 10.03 1.59 4.014 6.146 5.875 10.03 4.336 8.024-3.18 15.567-7.288 22.516-12.217 9.079 6.99 19.286 12.155 30.406 15.315 3.999 1.137 8.365-1.17 9.544-5.319 1.167-4.105-1.214-8.378-5.319-9.544-8.083-2.298-15.579-5.874-22.375-10.615 12.092-11.69 19.609-24.547 24.174-34.947h8.345c4.268 0 7.726-3.459 7.726-7.726.001-4.267-3.458-7.726-7.725-7.726z"/></g></g><path d="m391.974 0h-287.4c-6.827 0-12.362 5.535-12.362 12.362v49.449h327.577l-15.453-49.449c0-6.827-5.535-12.362-12.362-12.362z" fill="#455f7e"/><path d="m407.426 0h-30.905c6.827 0 12.362 5.535 12.362 12.362v49.449h30.905v-49.449c0-6.827-5.534-12.362-12.362-12.362z" fill="#405972"/></g><g><circle cx="123.117" cy="30.905" fill="#d5707e" r="7.726"/><circle cx="154.022" cy="30.905" fill="#f0d16f" r="7.726"/><circle cx="184.928" cy="30.905" fill="#a4d9a6" r="7.726"/></g></g></svg>