<svg id="Layer_1" enable-background="new 0 0 512 512" height="512" viewBox="0 0 512 512" width="512" xmlns="http://www.w3.org/2000/svg"><g><g><g><path d="m488.821 434.736h-465.642v-356.119c0-17.069 13.837-30.905 30.905-30.905h403.831c17.069 0 30.905 13.837 30.905 30.905v356.119z" fill="#506d90"/><path d="m457.915 47.712h-30.905c17.069 0 30.905 13.837 30.905 30.905v356.119h30.905v-356.119c.001-17.069-13.836-30.905-30.905-30.905z" fill="#455f7e"/><path d="m54.085 380.89v-298.152c0-2.276 1.845-4.121 4.121-4.121h395.59c2.276 0 4.121 1.845 4.121 4.121v298.152c0 2.276-1.845 4.121-4.121 4.121h-395.591c-2.276-.001-4.12-1.846-4.12-4.121z" fill="#ecf5ff"/><path d="m427.01 380.89c0 2.276-1.845 4.121-4.121 4.121h30.905c2.276 0 4.121-1.845 4.121-4.121v-298.152c0-2.276-1.845-4.121-4.121-4.121h-30.905c2.276 0 4.121 1.845 4.121 4.121z" fill="#dbeafd"/><g><path d="m107.664 61.811h296.671v323.199h-296.671z" fill="#f9f6f6"/><path d="m373.43 61.811h30.905v323.2h-30.905z" fill="#e2d8ec"/><g><path d="m313.276 286.9c0 3.083-1.941 5.83-4.845 6.865-15.5 5.523-31.395 11.295-61.611 11.133-29.025-.155-44.044-5.731-59.136-11.132-2.9-1.038-4.839-3.783-4.839-6.863v-76.46h130.431z" fill="#506d90"/><path d="m182.844 247.181 63.832 28.459c.88.392 1.886.392 2.767 0l63.832-28.459v-36.737h-130.431z" fill="#455f7e"/><path d="m142.438 192.055 104.238-46.474c.88-.393 1.886-.393 2.767 0l104.238 46.474c2.685 1.197 2.685 5.009 0 6.206l-104.238 46.474c-.88.393-1.886.393-2.767 0l-104.238-46.474c-2.685-1.197-2.685-5.009 0-6.206z" fill="#506d90"/><g><path d="m355.695 252.109c-4.267 0-7.726-3.459-7.726-7.726v-49.224c0-4.268 3.459-7.726 7.726-7.726s7.726 3.459 7.726 7.726v49.224c.001 4.267-3.459 7.726-7.726 7.726z" fill="#d5c6e4"/></g><circle cx="355.695" cy="256.915" fill="#455f7e" r="15.88"/></g><path d="m391.974 0h-271.948c-6.827 0-12.362 5.535-12.362 12.362v49.449h296.672v-49.449c0-6.827-5.535-12.362-12.362-12.362z" fill="#455f7e"/><path d="m391.974 0h-30.905c6.827 0 12.362 5.535 12.362 12.362v49.449h30.905v-49.449c0-6.827-5.535-12.362-12.362-12.362z" fill="#405972"/><g><circle cx="138.57" cy="30.905" fill="#d5707e" r="7.726"/><circle cx="169.475" cy="30.905" fill="#f0d16f" r="7.726"/><circle cx="200.381" cy="30.905" fill="#a4d9a6" r="7.726"/></g></g><g><path d="m5.151 434.736h501.698c2.845 0 5.151 2.306 5.151 5.151v35.591c0 20.17-16.351 36.521-36.521 36.521h-438.958c-20.17.001-36.521-16.35-36.521-36.52v-35.591c0-2.845 2.306-5.152 5.151-5.152z" fill="#455f7e"/><g fill="#405972"><path d="m506.849 434.736h-30.905c2.845 0 5.151 2.306 5.151 5.151v35.591c0 20.17-16.351 36.521-36.521 36.521h30.905c20.17 0 36.521-16.351 36.521-36.521v-35.591c0-2.844-2.306-5.151-5.151-5.151z"/><path d="m289.95 465.642h-67.9c-5.69 0-10.302-4.612-10.302-10.302v-20.604h88.503v20.604c.001 5.69-4.612 10.302-10.301 10.302z"/></g></g></g></g></g></svg>