<svg id="Layer_1" enable-background="new 0 0 512 512" height="512" viewBox="0 0 512 512" width="512" xmlns="http://www.w3.org/2000/svg"><g><g><g><g><g><path d="m512 61.811v419.284c0 17.068-13.837 30.905-30.905 30.905h-450.19c-17.068 0-30.905-13.837-30.905-30.905v-419.284z" fill="#f9f6f6"/><path d="m481.095 61.811v419.284c0 17.069-13.837 30.905-30.905 30.905h30.905c17.068 0 30.905-13.837 30.905-30.905v-419.284z" fill="#e2d8ec"/><path d="m481.095 0h-450.19c-17.068 0-30.905 13.837-30.905 30.905v30.905h512v-30.905c0-17.068-13.837-30.905-30.905-30.905z" fill="#506d90"/><path d="m481.095 0h-30.905c17.069 0 30.905 13.837 30.905 30.905v30.905h30.905v-30.905c0-17.068-13.837-30.905-30.905-30.905z" fill="#455f7e"/><g><circle cx="35.91" cy="30.905" fill="#d5707e" r="7.726"/><circle cx="66.815" cy="30.905" fill="#f0d16f" r="7.726"/><circle cx="97.72" cy="30.905" fill="#a4d9a6" r="7.726"/></g></g></g></g></g><g><g><path d="m209.353 268.723h37.947v79.759h-37.947z" fill="#506d90" transform="matrix(-.866 -.5 .5 -.866 271.762 690.023)"/><path d="m135.822 468.825c15.741 9.088 35.869 3.695 44.957-12.046l58.267-100.922c3.849-6.666 1.565-15.19-5.101-19.039l-32.863-18.973c-6.666-3.849-15.19-1.565-19.039 5.101l-58.267 100.922c-9.088 15.741-3.695 35.869 12.046 44.957z" fill="#cf9772"/><path d="m233.945 336.818-32.863-18.973c-6.666-3.849-15.19-1.565-19.039 5.101l-.758 1.312 21.754 12.56c6.666 3.849 8.95 12.373 5.102 19.039l-58.267 100.922c-3.201 5.545-7.776 9.799-13.043 12.595 15.583 8.297 35.052 2.812 43.948-12.595l58.267-100.922c3.849-6.666 1.565-15.19-5.101-19.039z" fill="#c88556"/></g><g><ellipse cx="288.048" cy="205.162" fill="#cae0ff" rx="104.591" ry="104.591" transform="matrix(.397 -.918 .918 .397 -14.67 387.986)"/><path d="m288.049 100.571c-5.25 0-10.409.393-15.453 1.143 50.37 7.492 89.138 51.025 89.138 103.447s-38.768 95.955-89.138 103.447c5.044.75 10.203 1.144 15.453 1.144 57.671 0 104.59-46.92 104.59-104.591s-46.919-104.59-104.59-104.59z" fill="#bcd7fd"/><ellipse cx="288.048" cy="205.162" fill="#ecf5ff" rx="64.666" ry="64.666" transform="matrix(.971 -.241 .241 .971 -40.896 75.321)"/><path d="m288.049 140.495c-5.326 0-10.498.66-15.453 1.88 28.217 6.947 49.213 32.455 49.213 62.786s-20.995 55.839-49.213 62.786c4.955 1.22 10.127 1.88 15.453 1.88 35.657 0 64.666-29.009 64.666-64.666s-29.01-64.666-64.666-64.666z" fill="#dbeafd"/></g></g></g></svg>