<svg id="Layer_1" enable-background="new 0 0 512 512" height="512" viewBox="0 0 512 512" width="512" xmlns="http://www.w3.org/2000/svg"><g><g><g><path d="m316.892 0h160.856c16.815 0 30.446 13.631 30.446 30.446v108.591c0 16.815-13.631 30.446-30.446 30.446h-51.12c-1.884 0-3.691.748-5.023 2.081l-29.385 29.385c-2.557 2.557-6.93.746-6.93-2.87v-21.491c0-3.923-3.181-7.104-7.104-7.104h-61.294c-16.815 0-30.446-13.631-30.446-30.446v-108.592c0-16.815 13.631-30.446 30.446-30.446z" fill="#f7e07f"/></g><g><path d="m477.748 0h-30.446c16.815 0 30.446 13.631 30.446 30.446v108.591c0 16.815-13.631 30.446-30.446 30.446h30.446c16.815 0 30.446-13.631 30.446-30.446v-108.591c0-16.815-13.631-30.446-30.446-30.446z" fill="#f0d16f"/></g><path d="m430.415 114.953-24.483-64.874c-.026-.069-.053-.137-.08-.205-1.408-3.429-4.713-5.643-8.419-5.643-.001 0-.003 0-.005 0-3.709.002-7.014 2.222-8.419 5.654-.024.058-.048.116-.069.175l-24.707 64.871c-1.497 3.929.476 8.326 4.404 9.822 3.924 1.498 8.325-.475 9.822-4.404l4.286-11.254h29.19l4.239 11.232c1.496 3.982 5.96 5.887 9.809 4.434 3.932-1.484 5.917-5.875 4.432-9.808zm-41.872-21.08 8.864-23.273 8.783 23.273z" fill="#fff"/></g><g><g><path d="m195.108 0h-160.856c-16.815 0-30.446 13.631-30.446 30.446v108.591c0 16.815 13.631 30.446 30.446 30.446h51.12c1.884 0 3.691.748 5.023 2.081l29.385 29.385c2.557 2.557 6.93.746 6.93-2.87v-21.491c0-3.923 3.181-7.104 7.104-7.104h61.294c16.815 0 30.446-13.631 30.446-30.446v-108.592c0-16.815-13.631-30.446-30.446-30.446z" fill="#bfe69f"/></g><g><path d="m195.108 0h-30.446c16.815 0 30.446 13.631 30.446 30.446v108.591c0 16.815-13.631 30.446-30.446 30.446h30.446c16.815 0 30.446-13.631 30.446-30.446v-108.591c0-16.815-13.631-30.446-30.446-30.446z" fill="#a4d9a6"/></g><path d="m145.552 111.993-4.822-4.822c4.29-6.427 6.797-14.14 6.797-22.43 0-22.337-18.173-40.51-40.51-40.51s-40.51 18.173-40.51 40.51 18.173 40.51 40.51 40.51c8.557 0 16.498-2.674 23.045-7.221l4.726 4.726c2.972 2.972 7.791 2.972 10.764 0 2.972-2.972 2.972-7.791 0-10.763zm-38.536-1.964c-13.944 0-25.287-11.344-25.287-25.287s11.344-25.287 25.287-25.287 25.287 11.344 25.287 25.287c0 4.068-.971 7.911-2.685 11.319l-5.117-5.117c-2.972-2.972-7.792-2.972-10.764 0-2.973 2.972-2.973 7.792 0 10.764l5.284 5.284c-3.573 1.936-7.662 3.037-12.005 3.037z" fill="#fff"/></g><g><g><g><path d="m496.15 501.851v-51.045c0-17.654-10.803-33.511-27.232-39.972l-20.934-8.233c-8.277-3.255-13.719-11.243-13.719-20.137v-17.109h-52.069v17.109c0 8.894-5.442 16.882-13.719 20.137l-20.934 8.233c-16.43 6.461-27.232 22.318-27.232 39.972v51.045c0 5.605 4.544 10.149 10.149 10.149h155.542c5.604 0 10.148-4.544 10.148-10.149z" fill="#bfe69f"/><g><path d="m468.917 410.834-20.934-8.233c-8.277-3.255-13.719-11.243-13.719-20.137v-17.109h-30.446v32.332c0 8.894 5.442 16.882 13.719 20.137l20.934 8.233c16.43 6.461 27.232 22.318 27.232 39.972v45.971h20.297c5.605 0 10.149-4.544 10.149-10.149v-51.045c.001-17.654-10.802-33.511-27.232-39.972z" fill="#a4d9a6"/></g><path d="m408.23 418.632c14.85 0 28.113-6.787 36.861-17.427-6.628-3.821-26.05-10.931-26.05-18.741v-17.11h-36.846v17.11c0 7.81-4.199 14.92-10.827 18.741 8.749 10.64 22.012 17.427 36.862 17.427z" fill="#f2ccbc"/><path d="m417.352 417.743c11.099-2.151 20.83-8.135 27.739-16.538-6.134-3.567-10.851-10.378-10.826-18.741v-17.109h-30.446v32.332c-.001 8.826 5.362 16.754 13.533 20.056z" fill="#ecad9a"/><g><path d="m408.634 373.7c-1.487 0-3.363 3.786-4.815 3.652-24.132-2.225-43.028-22.525-43.028-47.237v-57.858c0-13.708 11.112-24.82 24.82-24.82h45.24c13.708 0 24.82 11.112 24.82 24.82v57.858c0 16.587-8.512 31.185-21.407 39.665-7.474 4.915-25.63 3.92-25.63 3.92z" fill="#f2ccbc"/><path d="m430.85 247.437h-30.446c13.708 0 24.82 11.112 24.82 24.82v57.858c.213 2.514 1.145 16.44-9.084 27.913-13.085 14.674-32.517 11.972-33.941 11.749 3.834 2.474 10.463 6.034 19.368 7.308 0 0 3.413.47 6.664.47 26.2 0 47.44-21.239 47.44-47.44v-57.858c-.001-13.708-11.114-24.82-24.821-24.82z" fill="#ecad9a"/><path d="m455.67 272.257c0-13.708-11.112-24.82-24.82-24.82h-45.24c-13.708 0-24.82 11.112-24.82 24.82v37.278c8.747 1.329 24.711 2.475 42.688-3.954 7.632-2.729 13.896-6.205 18.792-9.485 1.369-.917 3.221-.568 4.162.785 2.041 2.934 5.726 7.125 11.666 9.994 7.806 3.77 14.945 3.053 17.572 2.66z" fill="#cf9772"/><path d="m430.85 247.437h-30.446c13.708 0 24.82 11.112 24.82 24.82v23.621c.469.218.892.548 1.209 1.003 2.041 2.934 5.726 7.125 11.666 9.994 7.806 3.77 14.945 3.053 17.572 2.66v-37.277c-.001-13.709-11.114-24.821-24.821-24.821z" fill="#c88556"/></g></g></g><g><path d="m450.481 512c-4.204 0-7.612-3.408-7.612-7.612v-32.472c0-4.204 3.407-7.612 7.612-7.612s7.611 3.408 7.611 7.612v32.472c0 4.204-3.407 7.612-7.611 7.612z" fill="#a4d9a6"/></g><g><path d="m365.979 512c-4.204 0-7.612-3.408-7.612-7.612v-32.472c0-4.204 3.407-7.612 7.612-7.612s7.612 3.408 7.612 7.612v32.472c0 4.204-3.408 7.612-7.612 7.612z" fill="#a4d9a6"/></g></g><g><circle cx="256" cy="310.711" fill="#dd8793" r="62.637"/><path d="m256 248.074c-5.251 0-10.349.655-15.223 1.873 27.235 6.802 47.414 31.423 47.414 60.765s-20.179 53.963-47.414 60.765c4.874 1.217 9.972 1.872 15.223 1.872 34.594 0 62.637-28.044 62.637-62.637s-28.043-62.638-62.637-62.638z" fill="#d5707e"/><g><path d="m251.38 339.424c-5.652 0-11.538-1.87-16.353-4.794-3.593-2.181-4.737-6.863-2.556-10.456s6.863-4.738 10.456-2.555c2.346 1.425 5.086 2.293 7.824 2.553 2.646.251 5.269-1.056 6.657-3.341l6.984-11.503c1.418-2.336 1.284-5.303-.203-7.599-1.473-2.274-3.468-4.212-5.776-5.613-3.593-2.182-4.736-6.864-2.554-10.456 2.181-3.594 6.864-4.737 10.457-2.555 4.256 2.585 7.937 6.16 10.644 10.339l.095.147c4.612 7.121 4.747 16.396.349 23.638l-6.984 11.503c-4.035 6.643-11.348 10.692-19.04 10.692z" fill="#fff"/></g></g><g><g><g><path d="m194.868 501.851v-51.045c0-17.654-10.803-33.511-27.232-39.972l-20.934-8.233c-8.277-3.255-13.719-11.243-13.719-20.137v-17.109h-52.069v17.109c0 8.894-5.442 16.882-13.719 20.137l-20.934 8.233c-16.43 6.461-27.232 22.318-27.232 39.972v51.045c0 5.605 4.544 10.149 10.149 10.149h155.542c5.605 0 10.148-4.544 10.148-10.149z" fill="#bcd7fd"/><g><path d="m167.636 410.834-20.934-8.233c-8.277-3.255-13.719-11.243-13.719-20.137v-17.109h-30.446v32.332c0 8.894 5.442 16.882 13.719 20.137l20.934 8.233c16.43 6.461 27.232 22.318 27.232 39.972v45.971h20.297c5.605 0 10.149-4.544 10.149-10.149v-51.045c0-17.654-10.802-33.511-27.232-39.972z" fill="#9bc6fd"/></g><path d="m106.949 418.632c14.85 0 28.113-6.787 36.861-17.427-6.628-3.821-26.05-10.931-26.05-18.741v-17.11h-36.846v17.11c0 7.81-4.199 14.92-10.827 18.741 8.749 10.64 22.012 17.427 36.862 17.427z" fill="#f2ccbc"/><path d="m116.07 417.743c11.099-2.151 20.83-8.135 27.739-16.538-6.134-3.567-10.851-10.378-10.826-18.741v-17.109h-30.446v32.332c0 8.826 5.363 16.754 13.533 20.056z" fill="#ecad9a"/><g><path d="m107.352 373.7c-1.488 0-3.363 3.786-4.815 3.652-24.132-2.225-43.028-22.525-43.028-47.237v-57.858c0-13.708 11.112-24.82 24.82-24.82h45.24c13.708 0 24.82 11.112 24.82 24.82v57.858c0 16.587-8.512 31.185-21.407 39.665-7.474 4.915-25.63 3.92-25.63 3.92z" fill="#f2ccbc"/><path d="m129.568 247.437h-30.446c13.708 0 24.82 11.112 24.82 24.82v57.858c.213 2.514 1.145 16.44-9.084 27.913-13.085 14.674-32.517 11.972-33.941 11.749 3.834 2.474 10.463 6.034 19.368 7.308 0 0 3.413.47 6.664.47 26.2 0 47.44-21.239 47.44-47.44v-57.858c-.001-13.708-11.113-24.82-24.821-24.82z" fill="#ecad9a"/><path d="m154.388 272.257c0-13.708-11.112-24.82-24.82-24.82h-45.24c-13.708 0-24.82 11.112-24.82 24.82v37.278c8.747 1.329 24.711 2.475 42.688-3.954 7.632-2.729 13.896-6.205 18.792-9.485 1.369-.917 3.221-.568 4.162.785 2.041 2.934 5.726 7.125 11.666 9.994 7.806 3.77 14.945 3.053 17.572 2.66z" fill="#cf9772"/><path d="m129.568 247.437h-30.446c13.708 0 24.82 11.112 24.82 24.82v23.621c.469.218.892.548 1.209 1.003 2.041 2.934 5.726 7.125 11.666 9.994 7.806 3.77 14.945 3.053 17.572 2.66v-37.277c-.001-13.709-11.113-24.821-24.821-24.821z" fill="#c88556"/></g></g></g><g><path d="m149.199 512c-4.204 0-7.611-3.408-7.611-7.612v-32.472c0-4.204 3.407-7.612 7.611-7.612s7.611 3.408 7.611 7.612v32.472c.001 4.204-3.407 7.612-7.611 7.612z" fill="#9bc6fd"/></g><g><path d="m64.698 512c-4.204 0-7.611-3.408-7.611-7.612v-32.472c0-4.204 3.407-7.612 7.611-7.612s7.612 3.408 7.612 7.612v32.472c-.001 4.204-3.408 7.612-7.612 7.612z" fill="#9bc6fd"/></g></g></g></svg>