<svg id="Layer_1" enable-background="new 0 0 512 512" height="512" viewBox="0 0 512 512" width="512" xmlns="http://www.w3.org/2000/svg"><g><g><g><path d="m481.095 397.095h-450.19c-17.068 0-30.905-13.836-30.905-30.905v-290.941c0-17.069 13.837-30.905 30.905-30.905h450.189c17.069 0 30.905 13.837 30.905 30.905v290.941c.001 17.069-13.836 30.905-30.904 30.905z" fill="#506d90"/><path d="m481.095 44.344h-30.905c17.069 0 30.905 13.837 30.905 30.905v290.941c0 17.069-13.837 30.905-30.905 30.905h30.905c17.069 0 30.905-13.837 30.905-30.905v-290.941c0-17.068-13.837-30.905-30.905-30.905z" fill="#455f7e"/><path d="m30.905 346.616v-267.246c0-2.276 1.845-4.121 4.121-4.121h441.948c2.276 0 4.121 1.845 4.121 4.121v267.246c0 2.276-1.845 4.121-4.121 4.121h-441.948c-2.276 0-4.121-1.845-4.121-4.121z" fill="#ecf5ff"/><path d="m476.974 75.249h-30.905c2.276 0 4.121 1.845 4.121 4.121v267.246c0 2.276-1.845 4.121-4.121 4.121h30.905c2.276 0 4.121-1.845 4.121-4.121v-267.246c0-2.276-1.845-4.121-4.121-4.121z" fill="#dbeafd"/><path d="m307.038 512h-102.076l15.453-114.905h71.17z" fill="#455f7e"/><path d="m291.585 397.095h-30.905l15.453 114.905h30.905z" fill="#405972"/><path d="m322.853 462.321 10.881 39.235c1.456 5.251-2.493 10.444-7.942 10.444h-139.585c-5.449 0-9.398-5.193-7.942-10.444l10.881-39.235c.99-3.569 4.238-6.039 7.942-6.039h117.824c3.703 0 6.952 2.471 7.941 6.039z" fill="#506d90"/><path d="m333.735 501.556-10.881-39.235c-.99-3.569-4.238-6.039-7.942-6.039h-30.905c3.703 0 6.952 2.47 7.942 6.039l10.881 39.235c1.456 5.251-2.493 10.444-7.942 10.444h30.905c5.449 0 9.398-5.193 7.942-10.444z" fill="#455f7e"/></g><path d="m92.212 61.811h327.577v288.926h-327.577z" fill="#fff"/><path d="m407.426 0h-30.905c6.827 0 12.362 5.535 12.362 12.362v338.375h30.905v-338.375c0-6.827-5.534-12.362-12.362-12.362z" fill="#efeaf4"/><path d="m407.426 0h-302.852c-6.827 0-12.362 5.535-12.362 12.362v49.449h327.577v-49.449c-.001-6.827-5.535-12.362-12.363-12.362z" fill="#455f7e"/><path d="m407.426 0h-30.905c6.827 0 12.362 5.535 12.362 12.362v49.449h30.905v-49.449c0-6.827-5.534-12.362-12.362-12.362z" fill="#405972"/><g><circle cx="123.117" cy="30.905" fill="#d5707e" r="7.726"/><circle cx="154.022" cy="30.905" fill="#f0d16f" r="7.726"/><circle cx="184.928" cy="30.905" fill="#a4d9a6" r="7.726"/></g><g><path d="m343.668 350.737v-53.429c0-17.604-10.772-33.415-27.154-39.857l-20.874-8.209c-8.253-3.246-13.68-11.211-13.68-20.079v-17.06h-51.92v17.06c0 8.868-5.427 16.834-13.68 20.079l-20.874 8.209c-16.382 6.443-27.154 22.254-27.154 39.857v53.429" fill="#dd8793"/><g><path d="m316.514 257.451-20.874-8.209c-8.253-3.246-13.68-11.211-13.68-20.079v-17.06h-30.905v32.513c0 8.868 5.427 16.834 13.68 20.079l20.874 8.209c16.383 6.443 27.154 22.254 27.154 39.858v37.976h30.905v-53.429c0-17.604-10.772-33.415-27.154-39.858z" fill="#d5707e"/></g><g><path d="m289.583 350.737v-29.094c0-4.267 3.459-7.726 7.726-7.726 4.268 0 7.726 3.459 7.726 7.726v29.094z" fill="#d5707e"/></g><g><path d="m206.964 350.737v-29.094c0-4.267 3.459-7.726 7.726-7.726s7.726 3.459 7.726 7.726v29.094z" fill="#d5707e"/></g><path d="m256 265.227c14.807 0 28.032-6.767 36.755-17.377-6.609-3.81-26.248-10.899-26.248-18.687v-17.06h-36.467v17.06c0 7.788-4.187 14.877-10.796 18.687 8.724 10.609 21.949 17.377 36.756 17.377z" fill="#f2ccbc"/><path d="m264.294 264.502c11.402-2.006 21.405-8.07 28.461-16.652-6.115-3.556-10.822-10.353-10.796-18.687v-17.06h-30.905v32.513c0 8.706 5.239 16.532 13.24 19.886z" fill="#ecad9a"/><path d="m257.15 218.952c-1.633 0-4.396 5.232-5.987 5.07-23.853-2.422-42.467-22.567-42.467-47.06v-20.521l15.453-37.171c0-13.668 11.08-9.296 24.749-9.296h29.657c13.668 0 9.296-4.372 9.296 9.296l15.453 37.171v20.521c0 16.538-8.487 31.094-21.342 39.55-7.453 4.902-24.812 2.44-24.812 2.44z" fill="#f2ccbc"/><g><path d="m287.851 119.27c0-13.668 4.372-9.296-9.296-9.296l-6.157 31.014v35.974c.214 2.501 1.152 16.302-8.975 27.719-12.848 14.483-31.896 12.044-33.383 11.827 3.684 2.384 10.075 5.848 18.689 7.196 0 0 3.715.561 7.271.561 26.125 0 47.304-21.179 47.304-47.304v-20.521z" fill="#ecad9a"/></g><path d="m303.304 119.27c0-13.668-11.081-24.749-24.749-24.749h-45.11c-13.668 0-24.749 11.08-24.749 24.749v37.171c8.722 1.325 24.64 2.468 42.566-3.943 8.017-2.867 14.521-6.56 19.51-9.981.947-.649 2.245-.407 2.872.555 1.904 2.922 5.687 7.601 12.138 10.716 7.783 3.759 14.902 3.045 17.521 2.652v-37.17z" fill="#cf9772"/><g><path d="m278.555 94.522h-30.905c13.668 0 24.749 11.08 24.749 24.749v22.941c.493.113.947.402 1.246.861 1.904 2.922 5.687 7.601 12.138 10.716 7.783 3.759 14.902 3.045 17.521 2.652v-37.171c0-13.668-11.081-24.748-24.749-24.748z" fill="#c88556"/></g></g></g><path d="m361.132 30.905h126.857c13.261 0 24.011 10.75 24.011 24.011v54.733c0 13.261-10.75 24.011-24.011 24.011h-71.22c-1.486 0-2.911.59-3.962 1.641l-23.174 23.174c-2.017 2.017-5.465.588-5.465-2.264v-16.949c0-3.094-2.508-5.603-5.603-5.603h-17.434c-13.261 0-24.011-10.75-24.011-24.011v-54.732c.001-13.261 10.751-24.011 24.012-24.011z" fill="#f7e07f"/><g><path d="m487.989 30.905h-30.905c13.261 0 24.011 10.75 24.011 24.011v54.733c0 13.261-10.75 24.011-24.011 24.011h30.905c13.261 0 24.011-10.75 24.011-24.011v-54.733c0-13.261-10.75-24.011-24.011-24.011z" fill="#f0d16f"/></g><g><g><path d="m477.042 74.556h-104.964c-4.268 0-7.726-3.459-7.726-7.726s3.459-7.726 7.726-7.726h104.964c4.268 0 7.726 3.459 7.726 7.726s-3.458 7.726-7.726 7.726z" fill="#f9f6f6"/></g><g><path d="m477.042 105.462h-104.964c-4.268 0-7.726-3.459-7.726-7.726s3.459-7.726 7.726-7.726h104.964c4.268 0 7.726 3.459 7.726 7.726s-3.458 7.726-7.726 7.726z" fill="#f9f6f6"/></g></g></g></svg>