<svg id="Layer_1" enable-background="new 0 0 512 512" height="512" viewBox="0 0 512 512" width="512" xmlns="http://www.w3.org/2000/svg"><g><g><g><path d="m512 61.811v419.284c0 17.068-13.837 30.905-30.905 30.905h-450.19c-17.068 0-30.905-13.837-30.905-30.905v-419.284z" fill="#f9f6f6"/><path d="m481.095 61.811v419.284c0 17.069-13.837 30.905-30.905 30.905h30.905c17.068 0 30.905-13.837 30.905-30.905v-419.284z" fill="#e2d8ec"/><path d="m481.095 0h-450.19c-17.068 0-30.905 13.837-30.905 30.905v30.905h512v-30.905c0-17.068-13.837-30.905-30.905-30.905z" fill="#506d90"/><path d="m481.095 0h-30.905c17.069 0 30.905 13.837 30.905 30.905v30.905h30.905v-30.905c0-17.068-13.837-30.905-30.905-30.905z" fill="#455f7e"/><g><circle cx="35.91" cy="30.905" fill="#d5707e" r="7.726"/><circle cx="66.815" cy="30.905" fill="#f0d16f" r="7.726"/><circle cx="97.72" cy="30.905" fill="#a4d9a6" r="7.726"/></g></g></g><g><path d="m434.883 386.4h-357.766c-5.69 0-10.302-4.612-10.302-10.302v-269.862c0-5.69 4.612-10.302 10.302-10.302h357.766c5.69 0 10.302 4.612 10.302 10.302v269.863c0 5.689-4.612 10.301-10.302 10.301z" fill="#bfe69f"/><path d="m434.883 95.934h-30.905c5.69 0 10.302 4.612 10.302 10.302v269.863c0 5.69-4.612 10.302-10.302 10.302h30.905c5.69 0 10.302-4.612 10.302-10.302v-269.863c0-5.69-4.612-10.302-10.302-10.302z" fill="#a4d9a6"/><path d="m97.72 320.448v-158.562c19.356 0 35.047-15.691 35.047-35.047h246.466c0 19.356 15.691 35.047 35.047 35.047v158.562c-19.356 0-35.047 15.691-35.047 35.047h-246.466c0-19.356-15.691-35.047-35.047-35.047z" fill="#fff"/><g><g><path d="m318.415 463.955-16.825.641c-.794.03-1.522.45-1.945 1.123l-8.968 14.251c-.965 1.534-3.215 1.491-4.121-.078l-43.724-75.733 33.851-19.544 43.724 75.733c.906 1.569-.182 3.538-1.992 3.607z" fill="#dd8793"/><path d="m320.407 460.348-43.724-75.733-22.242 15.639 41.34 71.604 3.863-6.139c.423-.672 1.151-1.093 1.945-1.123l16.825-.641c1.811-.069 2.899-2.038 1.993-3.607z" fill="#d5707e"/><path d="m193.585 463.955 16.825.641c.794.03 1.522.45 1.945 1.123l8.968 14.251c.965 1.534 3.215 1.491 4.121-.078l43.724-75.733-33.851-19.544-43.724 75.733c-.906 1.569.182 3.538 1.992 3.607z" fill="#dd8793"/><path d="m245.755 394.935-40.114 69.48 4.77.182c.794.03 1.522.451 1.945 1.123l8.967 14.251c.965 1.534 3.215 1.491 4.121-.078l43.724-75.733z" fill="#d5707e"/></g><g><path d="m319.752 371.277c0 6.499-7.864 11.677-9.768 17.541-1.974 6.078 1.277 14.876-2.405 19.935-3.719 5.11-13.115 4.719-18.225 8.438-5.059 3.682-7.571 12.759-13.649 14.733-5.865 1.904-13.205-3.901-19.705-3.901-6.499 0-13.84 5.805-19.705 3.901-6.078-1.974-8.59-11.051-13.649-14.733-5.11-3.719-14.506-3.328-18.225-8.438-3.682-5.059-.432-13.857-2.405-19.935-1.904-5.865-9.768-11.042-9.768-17.541s7.864-11.677 9.768-17.541c1.974-6.078-1.277-14.876 2.405-19.935 3.719-5.11 13.115-4.719 18.225-8.438 5.059-3.682 7.571-12.759 13.649-14.733 5.865-1.904 13.205 3.901 19.705 3.901 6.499 0 13.84-5.805 19.705-3.901 6.078 1.974 8.59 11.051 13.649 14.733 5.11 3.719 14.506 3.328 18.225 8.438 3.682 5.059.432 13.857 2.405 19.935 1.904 5.864 9.768 11.041 9.768 17.541z" fill="#f7e07f"/></g><g><path d="m319.751 371.277c0-6.499-7.863-11.677-9.768-17.541-1.974-6.078 1.277-14.876-2.405-19.935-3.719-5.11-13.115-4.719-18.225-8.438-5.059-3.682-7.571-12.759-13.649-14.733-5.865-1.904-13.205 3.901-19.705 3.901-2.519 0-5.165-.873-7.802-1.83 3.837 3.479 6.25 9.751 10.25 12.662 5.11 3.719 14.506 3.328 18.225 8.438 3.682 5.059.432 13.857 2.405 19.935 1.904 5.865 9.768 11.042 9.768 17.541s-7.863 11.677-9.768 17.541c-1.974 6.078 1.277 14.876-2.405 19.935-3.719 5.11-13.115 4.719-18.225 8.438-4 2.911-6.413 9.183-10.25 12.662 2.637-.957 5.283-1.83 7.802-1.83 6.5 0 13.84 5.805 19.705 3.901 6.078-1.974 8.59-11.051 13.649-14.733 5.11-3.719 14.506-3.328 18.225-8.438 3.682-5.059.432-13.857 2.405-19.935 1.905-5.865 9.768-11.042 9.768-17.541z" fill="#f0d16f"/></g><circle cx="256" cy="371.277" fill="#dd8793" r="25.782"/><path d="m256 345.495c-4.698 0-9.098 1.263-12.891 3.458 7.704 4.458 12.891 12.783 12.891 22.324s-5.187 17.866-12.891 22.324c3.793 2.195 8.193 3.458 12.891 3.458 14.239 0 25.782-11.543 25.782-25.782s-11.543-25.782-25.782-25.782z" fill="#d5707e"/></g></g><g><path d="m340.84 190.212h-169.68c-4.268 0-7.726-3.459-7.726-7.726s3.459-7.726 7.726-7.726h169.68c4.268 0 7.726 3.459 7.726 7.726s-3.458 7.726-7.726 7.726z" fill="#d5c6e4"/></g><g><path d="m383.374 221.117h-254.748c-4.268 0-7.726-3.459-7.726-7.726s3.459-7.726 7.726-7.726h254.748c4.268 0 7.726 3.459 7.726 7.726.001 4.267-3.458 7.726-7.726 7.726z" fill="#d5c6e4"/></g><g><path d="m383.374 252.023h-254.748c-4.268 0-7.726-3.459-7.726-7.726s3.459-7.726 7.726-7.726h254.748c4.268 0 7.726 3.459 7.726 7.726s-3.458 7.726-7.726 7.726z" fill="#d5c6e4"/></g><g><path d="m279.029 282.928h-123.322c-4.268 0-7.726-3.459-7.726-7.726s3.459-7.726 7.726-7.726h123.322c4.268 0 7.726 3.459 7.726 7.726.001 4.267-3.458 7.726-7.726 7.726z" fill="#d5c6e4"/></g></g></svg>