<svg id="Layer_1" enable-background="new 0 0 512 512" height="512" viewBox="0 0 512 512" width="512" xmlns="http://www.w3.org/2000/svg"><g><g><g><path d="m467.6 337.95h-453.646c-5.605 0-10.149-4.544-10.149-10.149v-46.684c0-5.605 4.544-10.149 10.149-10.149h453.646c5.605 0 10.149 4.544 10.149 10.149v46.684c-.001 5.606-4.544 10.149-10.149 10.149z" fill="#cf9772"/><path d="m34.252 501.851v-163.901h56.054v163.901c0 5.605-4.544 10.149-10.149 10.149h-35.757c-5.605 0-10.148-4.544-10.148-10.149z" fill="#cf9772"/><path d="m34.252 337.95h56.054v30.446h-56.054z" fill="#c88556"/><g><path d="m300.191 270.724h-266.084c-16.735 0-30.301-13.566-30.301-30.301v-6.847c0-2.049 1.661-3.71 3.71-3.71h319.265c2.049 0 3.71 1.661 3.71 3.71v6.847c0 16.735-13.566 30.301-30.3 30.301z" fill="#455f7e"/><path d="m300.191 270.724c16.735 0 30.301-13.566 30.301-30.301v-6.847c0-2.049-1.661-3.71-3.71-3.71h-56.909c-7.109 8.644-11.239 19.641-11.239 31.329v9.529z" fill="#405972"/><g><path d="m302.665 229.866h-271.033v-145.979c0-13.66 11.074-24.734 24.734-24.734h221.565c13.66 0 24.734 11.074 24.734 24.734z" fill="#506d90"/><path d="m277.931 59.153h-30.446c13.661 0 24.734 11.074 24.734 24.734v145.979h30.446v-145.979c0-13.66-11.073-24.734-24.734-24.734z" fill="#455f7e"/><path d="m302.665 210.278-12.762 5.019c-6.84 2.69-12.826 6.804-17.684 11.915v2.654h30.446z" fill="#405972"/><path d="m62.077 229.866v-137.222c0-1.681 1.363-3.045 3.045-3.045h204.053c1.681 0 3.045 1.363 3.045 3.045v137.222h-62.984l-42.087-16.127-42.087 16.127z" fill="#ecf5ff"/><path d="m269.174 89.599h-30.446c1.681 0 3.045 1.363 3.045 3.045v137.222h30.446v-137.222c0-1.682-1.363-3.045-3.045-3.045z" fill="#dbeafd"/></g></g><g><g><path d="m490.99 322.722v-61.527c0-20.272-12.404-38.479-31.27-45.899l-24.038-9.453c-9.504-3.738-15.753-12.91-15.753-23.123v-19.646h-59.789v19.646c0 10.213-6.249 19.385-15.753 23.123l-24.038 9.453c-18.866 7.419-31.27 25.627-31.27 45.899v61.527z" fill="#dd8793"/><g><path d="m459.721 215.297-24.038-9.453c-9.504-3.738-15.753-12.91-15.753-23.123v-19.646h-30.446v34.869c0 10.213 6.249 19.385 15.753 23.123l24.038 9.453c18.866 7.419 31.27 25.627 31.27 45.899v46.304h30.446v-61.527c0-20.273-12.405-38.48-31.27-45.899z" fill="#d5707e"/></g><path d="m389.686 213.889c19.85.071 34.941-5.931 42.676-9.65-7.611-4.388-27.655-12.551-27.655-21.519v-19.646h-44.567v19.646c0 8.968-4.821 17.132-12.432 21.519 7.703 3.704 22.511 9.581 41.978 9.65z" fill="#f2ccbc"/><path d="m395.166 213.739c17.14-.907 30.191-6.131 37.195-9.499-.255-.147-.497-.308-.746-.464-6.599-4.246-11.719-11.678-11.686-21.056v-19.646h-30.446v34.869c.001 5.897 2.093 11.439 5.683 15.796z" fill="#ecad9a"/><path d="m389.058 177.083c-30.085 0-54.474-24.389-54.474-54.474v-51.214c0-15.74 12.76-28.5 28.5-28.5h51.947c15.74 0 28.5 12.76 28.5 28.5v51.214c0 18.623-9.345 35.063-23.602 44.887-3.763 2.593-7.887-1.83-12.252-.241-5.688 2.071-11.801 9.777-18.194 9.826-.141.001-.283.002-.425.002z" fill="#f2ccbc"/><path d="m415.032 42.895h-30.446c15.74 0 28.5 12.76 28.5 28.5v51.214c.22 3.045 1.114 19.572-11.123 32.98-16.246 17.8-40.445 13.46-41.822 13.189 5.013 3.056 13.135 7.031 23.739 8.058 0 0 2.66.247 5.178.247 30.085 0 54.474-24.389 54.474-54.474v-51.214c0-15.74-12.76-28.5-28.5-28.5z" fill="#ecad9a"/></g><path d="m443.526 122.818c0-.07.005-.139.005-.209v-51.214c0-15.74-12.76-28.5-28.5-28.5h-51.947c-15.74 0-28.5 12.76-28.5 28.5v51.214c0 .07.005.139.005.209 13.369 3.527 31.304 6.873 52.594 7.06 23.042.201 42.329-3.363 56.343-7.06z" fill="#cf9772"/><path d="m415.032 42.895h-30.446c15.74 0 28.5 12.76 28.5 28.5v51.214c.066.91.189 3.032.007 5.909 11.805-1.339 22.065-3.493 30.434-5.701 0-.07.005-.139.005-.209v-51.213c0-15.74-12.76-28.5-28.5-28.5z" fill="#c88556"/></g><g><path d="m209.235 229.866h-84.174v-19.048c0-21.647 17.548-39.195 39.195-39.195h5.785c21.647 0 39.195 17.548 39.195 39.195v19.048z" fill="#f7e07f"/><path d="m170.041 171.623h-5.785c-4.309 0-8.452.706-12.331 1.991 15.603 5.169 26.864 19.867 26.864 37.204v19.048h30.446v-19.048c0-21.647-17.548-39.195-39.194-39.195z" fill="#f0d16f"/><circle cx="167.148" cy="144.824" fill="#f2ccbc" r="26.799"/><path d="m167.148 118.025c-5.656 0-10.899 1.756-15.223 4.747 6.992 4.836 11.576 12.907 11.576 22.052s-4.584 17.216-11.576 22.052c4.324 2.991 9.567 4.747 15.223 4.747 14.801 0 26.799-11.998 26.799-26.799 0-14.8-11.998-26.799-26.799-26.799z" fill="#ecad9a"/></g></g><path d="m141.497 0h-100.554c-12.103 0-21.914 9.811-21.914 21.914v49.953c0 12.103 9.811 21.914 21.914 21.914h49.777c1.356 0 2.657.539 3.616 1.498l21.15 21.15c1.841 1.841 4.988.537 4.988-2.066v-15.469c0-2.824 2.289-5.113 5.113-5.113h15.911c12.103 0 21.914-9.811 21.914-21.914v-49.953c-.001-12.103-9.812-21.914-21.915-21.914z" fill="#f7e07f"/><path d="m141.497 93.78c12.103 0 21.914-9.811 21.914-21.914v-49.952c0-12.103-9.811-21.914-21.914-21.914h-30.446c12.103 0 21.914 9.811 21.914 21.914v71.866z" fill="#f0d16f"/><g><g><path d="m133.408 39.278h-84.376c-4.204 0-7.611-3.408-7.611-7.611s3.407-7.611 7.611-7.611h84.377c4.204 0 7.611 3.408 7.611 7.611s-3.408 7.611-7.612 7.611z" fill="#f9f6f6"/></g><g><path d="m133.408 69.724h-84.376c-4.204 0-7.611-3.408-7.611-7.611s3.407-7.611 7.611-7.611h84.377c4.204 0 7.611 3.408 7.611 7.611s-3.408 7.611-7.612 7.611z" fill="#f9f6f6"/></g></g></g><path d="m271.876 501.851v-200.89c0-16.564 13.428-29.991 29.991-29.991h176.336c16.564 0 29.991 13.428 29.991 29.991v200.891c0 5.605-4.544 10.149-10.149 10.149h-216.021c-5.605-.001-10.148-4.545-10.148-10.15z" fill="#506d90"/><path d="m478.203 270.969h-30.446c16.564 0 29.991 13.428 29.991 29.991v200.891c0 5.605-4.544 10.149-10.149 10.149h30.446c5.605 0 10.149-4.544 10.149-10.149v-200.89c0-16.564-13.427-29.992-29.991-29.992z" fill="#455f7e"/></g></svg>