<svg id="Layer_1" enable-background="new 0 0 512 512" height="512" viewBox="0 0 512 512" width="512" xmlns="http://www.w3.org/2000/svg"><g><g><path d="m375.159 504.5h-238.318c-16.569 0-30-13.431-30-30v-437c0-16.569 13.431-30 30-30h238.319c16.569 0 30 13.431 30 30v437c-.001 16.569-13.432 30-30.001 30z" fill="#ecf5ff"/><path d="m375.159 7.5h-36c16.569 0 30 13.431 30 30v437c0 16.569-13.431 30-30 30h36c16.569 0 30-13.431 30-30v-437c0-16.569-13.431-30-30-30z" fill="#dbeafd"/><path d="m375.159 512h-238.318c-20.678 0-37.5-16.822-37.5-37.5v-437c0-20.678 16.822-37.5 37.5-37.5h238.318c20.678 0 37.5 16.822 37.5 37.5v437c0 20.678-16.822 37.5-37.5 37.5zm-238.318-497c-12.407 0-22.5 10.093-22.5 22.5v437c0 12.407 10.093 22.5 22.5 22.5h238.318c12.407 0 22.5-10.093 22.5-22.5v-437c0-12.407-10.093-22.5-22.5-22.5z" fill="#506d90"/></g><path d="m313.703 48.011h-115.406c-5.523 0-10-4.477-10-10v-30.511h135.405v30.511c.001 5.523-4.477 10-9.999 10z" fill="#506d90"/><g><circle cx="256" cy="276.255" fill="#dd8793" r="61.72"/><path d="m256 214.536c-5.175 0-10.197.646-15 1.845 26.836 6.702 46.72 30.962 46.72 59.875s-19.884 53.172-46.72 59.874c4.803 1.2 9.825 1.845 15 1.845 34.087 0 61.72-27.633 61.72-61.72s-27.633-61.719-61.72-61.719z" fill="#d5707e"/><g><path d="m249.393 304.449c-4.954-.475-9.819-2.051-14.059-4.626-3.541-2.15-4.667-6.763-2.517-10.303 2.15-3.541 6.763-4.669 10.303-2.517 2.312 1.406 4.99 2.256 7.689 2.513 2.638.251 5.212-1.039 6.579-3.29l6.883-11.335c1.398-2.306 1.26-5.233-.21-7.502-1.442-2.226-3.408-4.135-5.682-5.516-3.541-2.15-4.668-6.763-2.518-10.303 2.15-3.541 6.763-4.668 10.303-2.518 4.243 2.577 7.892 6.18 10.592 10.347 4.536 7.002 4.669 16.141.335 23.278l-6.883 11.335c-4.328 7.149-12.577 11.227-20.815 10.437z" fill="#fff"/></g></g><g><path d="m163.187 186.255c0 27.743-14.514 52.097-36.362 65.883-12.009 7.577-26.233 5.951-41.482 5.951-15.248 0-29.473 1.626-41.482-5.951-21.848-13.786-36.361-38.139-36.361-65.883 0-42.992 34.852-77.844 77.844-77.844s77.843 34.853 77.843 77.844z" fill="#bcd7fd"/><path d="m85.344 108.412c-5.133 0-10.145.51-15 1.459 35.812 6.993 62.844 38.526 62.844 76.385s-27.032 69.392-62.844 76.385c4.855.948 11.216-1.489 16.349-1.489 15.248 0 28.124-1.437 40.133-9.013 21.849-13.785 36.362-38.139 36.362-65.883-.001-42.992-34.852-77.844-77.844-77.844z" fill="#9bc6fd"/><g><path d="m88.194 191.224h-5.7c-21.33 0-38.621 17.291-38.621 38.621v22.276c12.009 7.577 26.222 11.979 41.471 11.979s29.462-4.401 41.471-11.979v-22.276c-.001-21.33-17.292-38.621-38.621-38.621z" fill="#bfe69f"/><path d="m88.194 191.224h-5.7c-4.246 0-8.328.695-12.15 1.961 15.374 5.093 26.471 19.576 26.471 36.659v.409c0 15.606-10.88 29.27-26.184 32.328-.096.019-.191.038-.287.057 4.854.951 9.866 1.461 15 1.461 15.249 0 29.462-4.401 41.471-11.979v-22.276c-.001-21.329-17.292-38.62-38.621-38.62z" fill="#a4d9a6"/><circle cx="85.344" cy="164.818" fill="#f2ccbc" r="26.406"/><path d="m85.344 138.412c-4.811 0-9.318 1.293-13.203 3.542 7.891 4.566 13.203 13.092 13.203 22.865s-5.313 18.298-13.203 22.865c3.885 2.248 8.392 3.542 13.203 3.542 14.584 0 26.406-11.823 26.406-26.406s-11.823-26.408-26.406-26.408z" fill="#ecad9a"/></g></g><g><path d="m504.5 366.255c0 27.743-14.514 52.097-36.362 65.883-12.009 7.577-26.233 3.242-41.482 3.242s-29.473 4.335-41.482-3.242c-21.849-13.785-36.362-38.139-36.362-65.883 0-42.992 34.852-77.844 77.844-77.844s77.844 34.853 77.844 77.844z" fill="#bcd7fd"/><path d="m426.656 288.412c-5.133 0-10.145.51-15 1.459 35.812 6.993 62.844 38.526 62.844 76.385s-27.032 69.392-62.844 76.385c4.855.948 9.867-.608 15-.608 15.248 0 29.473-2.318 41.482-9.895 21.849-13.785 36.362-38.139 36.362-65.883 0-42.991-34.852-77.843-77.844-77.843z" fill="#9bc6fd"/><g><path d="m429.506 371.224h-5.7c-21.33 0-38.621 17.291-38.621 38.621v22.276c12.009 7.577 26.222 11.979 41.471 11.979s29.462-4.401 41.471-11.979v-22.276c0-21.33-17.291-38.621-38.621-38.621z" fill="#dd8793"/><path d="m429.506 371.224h-5.7c-4.246 0-8.328.695-12.15 1.961 15.374 5.093 26.471 19.576 26.471 36.659v.409c0 15.606-10.88 29.27-26.184 32.328-.096.019-.191.038-.287.057 4.854.951 9.866 1.461 15 1.461 15.249 0 29.462-4.401 41.471-11.979v-22.276c0-21.329-17.291-38.62-38.621-38.62z" fill="#d5707e"/><circle cx="426.656" cy="344.818" fill="#f2ccbc" r="26.406"/><path d="m426.656 318.412c-4.811 0-9.318 1.293-13.203 3.542 7.891 4.566 13.203 13.092 13.203 22.865s-5.313 18.298-13.203 22.865c3.885 2.248 8.392 3.542 13.203 3.542 14.584 0 26.406-11.823 26.406-26.406s-11.822-26.408-26.406-26.408z" fill="#ecad9a"/></g></g></g></svg>