<svg id="Layer_1" enable-background="new 0 0 512 512" height="512" viewBox="0 0 512 512" width="512" xmlns="http://www.w3.org/2000/svg"><g><g><g><g><path d="m496.15 501.851v-51.045c0-17.654-10.803-33.511-27.232-39.972l-20.934-8.233c-8.277-3.255-13.719-11.243-13.719-20.137v-17.109h-52.069v17.109c0 8.894-5.442 16.882-13.719 20.137l-20.934 8.233c-16.43 6.461-27.232 22.318-27.232 39.972v51.045c0 5.605 4.544 10.149 10.149 10.149h155.542c5.604 0 10.148-4.544 10.148-10.149z" fill="#bfe69f"/><g><path d="m468.917 410.834-20.934-8.233c-8.277-3.255-13.719-11.243-13.719-20.137v-17.109h-30.446v32.332c0 8.894 5.442 16.882 13.719 20.137l20.934 8.233c16.43 6.461 27.232 22.318 27.232 39.972v45.971h20.297c5.605 0 10.149-4.544 10.149-10.149v-51.045c.001-17.654-10.802-33.511-27.232-39.972z" fill="#a4d9a6"/></g><path d="m408.23 418.632c14.85 0 28.113-6.787 36.861-17.427-6.628-3.821-26.05-10.931-26.05-18.741v-17.11h-36.846v17.11c0 7.81-4.199 14.92-10.827 18.741 8.749 10.64 22.012 17.427 36.862 17.427z" fill="#f2ccbc"/><path d="m417.352 417.743c11.099-2.151 20.83-8.135 27.739-16.538-6.134-3.567-10.851-10.378-10.826-18.741v-17.109h-30.446v32.332c-.001 8.826 5.362 16.754 13.533 20.056z" fill="#ecad9a"/><g><path d="m408.634 373.7c-1.487 0-3.584.285-5.036.151-7.935-.732-15.083.084-21.401-4.071-12.894-8.48-21.407-23.078-21.407-39.665v-57.858c0-13.708 11.112-24.82 24.82-24.82h45.24c13.708 0 24.82 11.112 24.82 24.82v57.858c0 16.587-8.512 31.185-21.407 39.665-7.473 4.915-25.629 3.92-25.629 3.92z" fill="#f2ccbc"/><path d="m430.85 247.437h-30.446c13.708 0 24.82 11.112 24.82 24.82v57.858c.213 2.514 1.145 16.44-9.084 27.913-13.085 14.674-32.517 11.972-33.941 11.749 3.834 2.474 10.463 6.034 19.368 7.308 0 0 3.413.47 6.664.47 26.2 0 47.44-21.239 47.44-47.44v-57.858c-.001-13.708-11.114-24.82-24.821-24.82z" fill="#ecad9a"/><path d="m455.67 272.257c0-13.708-11.112-24.82-24.82-24.82h-45.24c-13.708 0-24.82 11.112-24.82 24.82v37.278c8.747 1.329 24.711 2.475 42.688-3.954 7.632-2.729 13.896-6.205 18.792-9.485 1.369-.917 3.221-.568 4.162.785 2.041 2.934 5.726 7.125 11.666 9.994 7.806 3.77 14.945 3.053 17.572 2.66z" fill="#cf9772"/><path d="m430.85 247.437h-30.446c13.708 0 24.82 11.112 24.82 24.82v23.621c.469.218.892.548 1.209 1.003 2.041 2.934 5.726 7.125 11.666 9.994 7.806 3.77 14.945 3.053 17.572 2.66v-37.277c-.001-13.709-11.114-24.821-24.821-24.821z" fill="#c88556"/></g></g></g><g><path d="m450.481 512c-4.204 0-7.612-3.408-7.612-7.612v-32.472c0-4.204 3.407-7.612 7.612-7.612s7.611 3.408 7.611 7.612v32.472c0 4.204-3.407 7.612-7.611 7.612z" fill="#a4d9a6"/></g><g><path d="m365.979 512c-4.204 0-7.612-3.408-7.612-7.612v-32.472c0-4.204 3.407-7.612 7.612-7.612s7.612 3.408 7.612 7.612v32.472c0 4.204-3.408 7.612-7.612 7.612z" fill="#a4d9a6"/></g></g><g><g><g><path d="m194.868 501.851v-51.045c0-17.654-10.803-33.511-27.232-39.972l-20.934-8.233c-8.277-3.255-13.719-11.243-13.719-20.137v-17.109h-52.069v17.109c0 8.894-5.442 16.882-13.719 20.137l-20.934 8.233c-16.43 6.461-27.232 22.318-27.232 39.972v51.045c0 5.605 4.544 10.149 10.149 10.149h155.542c5.605 0 10.148-4.544 10.148-10.149z" fill="#bcd7fd"/><g><path d="m167.636 410.834-20.934-8.233c-8.277-3.255-13.719-11.243-13.719-20.137v-17.109h-30.446v32.332c0 8.894 5.442 16.882 13.719 20.137l20.934 8.233c16.43 6.461 27.232 22.318 27.232 39.972v45.971h20.297c5.605 0 10.149-4.544 10.149-10.149v-51.045c0-17.654-10.802-33.511-27.232-39.972z" fill="#9bc6fd"/></g><path d="m106.949 418.632c14.85 0 28.113-6.787 36.861-17.427-6.628-3.821-26.05-10.931-26.05-18.741v-17.11h-36.846v17.11c0 7.81-4.199 14.92-10.827 18.741 8.749 10.64 22.012 17.427 36.862 17.427z" fill="#cf9772"/><path d="m116.07 417.743c11.099-2.151 20.83-8.135 27.739-16.538-6.134-3.567-10.851-10.378-10.826-18.741v-17.109h-30.446v32.332c0 8.826 5.363 16.754 13.533 20.056z" fill="#c88556"/><g><path d="m107.352 373.7c-1.488 0-3.802.494-5.255.36-7.935-.732-14.865-.126-21.182-4.28-12.894-8.48-21.407-23.078-21.407-39.665v-57.858c0-13.708 11.112-24.82 24.82-24.82h45.24c13.708 0 24.82 11.112 24.82 24.82v57.858c0 16.587-8.512 31.185-21.407 39.665-7.473 4.915-25.629 3.92-25.629 3.92z" fill="#cf9772"/><path d="m129.568 247.437h-30.446c13.708 0 24.82 11.112 24.82 24.82v57.858c.213 2.514 1.145 16.44-9.084 27.913-13.085 14.674-32.517 11.972-33.941 11.749 3.834 2.474 10.463 6.034 19.368 7.308 0 0 3.413.47 6.664.47 26.2 0 47.44-21.239 47.44-47.44v-57.858c-.001-13.708-11.113-24.82-24.821-24.82z" fill="#c88556"/><path d="m154.388 272.257c0-13.708-11.112-24.82-24.82-24.82h-45.24c-13.708 0-24.82 11.112-24.82 24.82v37.278c8.747 1.329 24.711 2.475 42.688-3.954 7.632-2.729 13.896-6.205 18.792-9.485 1.369-.917 3.221-.568 4.162.785 2.041 2.934 5.726 7.125 11.666 9.994 7.806 3.77 14.945 3.053 17.572 2.66z" fill="#365e7d"/><path d="m129.568 247.437h-30.446c13.708 0 24.82 11.112 24.82 24.82v23.621c.469.218.892.548 1.209 1.003 2.041 2.934 5.726 7.125 11.666 9.994 7.806 3.77 14.945 3.053 17.572 2.66v-37.277c-.001-13.709-11.113-24.821-24.821-24.821z" fill="#2b4d66"/></g></g></g><g><path d="m149.199 512c-4.204 0-7.611-3.408-7.611-7.612v-32.472c0-4.204 3.407-7.612 7.611-7.612s7.611 3.408 7.611 7.612v32.472c.001 4.204-3.407 7.612-7.611 7.612z" fill="#9bc6fd"/></g><g><path d="m64.698 512c-4.204 0-7.611-3.408-7.611-7.612v-32.472c0-4.204 3.407-7.612 7.611-7.612s7.612 3.408 7.612 7.612v32.472c-.001 4.204-3.408 7.612-7.612 7.612z" fill="#9bc6fd"/></g></g><g><g><g><path d="m309.528 0h164.625c18.8 0 34.041 15.241 34.041 34.041v87.371c0 18.8-15.241 34.041-34.041 34.041h-41.932c-2.107 0-4.127.837-5.616 2.326l-32.854 32.855c-2.859 2.859-7.748.834-7.748-3.209v-24.029c0-4.387-3.556-7.943-7.943-7.943h-68.531c-18.8 0-34.041-15.241-34.041-34.041v-87.371c0-18.8 15.24-34.041 34.04-34.041z" fill="#bfe69f"/></g></g></g><g><path d="m474.154 0h-30.446c18.8 0 34.041 15.241 34.041 34.041v87.371c0 18.8-15.241 34.041-34.041 34.041h30.446c18.8 0 34.041-15.241 34.041-34.041v-87.371c-.001-18.8-15.241-34.041-34.041-34.041z" fill="#a4d9a6"/></g><path d="m396.829 40.003 9.159 18.557c.81 1.642 2.377 2.78 4.188 3.043l20.479 2.976c4.563.663 6.384 6.27 3.083 9.488l-14.819 14.445c-1.311 1.278-1.909 3.119-1.6 4.924l3.498 20.397c.779 4.544-3.99 8.009-8.071 5.864l-18.317-9.63c-1.621-.852-3.557-.852-5.177 0l-18.317 9.63c-4.081 2.145-8.85-1.32-8.071-5.864l3.498-20.397c.31-1.804-.289-3.646-1.6-4.924l-14.819-14.445c-3.302-3.218-1.48-8.825 3.083-9.488l20.479-2.976c1.812-.263 3.378-1.401 4.188-3.043l9.159-18.557c2.041-4.135 7.937-4.135 9.977 0z" fill="#f7e07f"/><g><path d="m433.738 74.067c3.301-3.218 1.48-8.825-3.083-9.488l-20.479-2.976c-1.812-.263-3.378-1.401-4.188-3.043l-9.159-18.558c-2.04-4.134-7.936-4.134-9.976 0l-9.159 18.557c-.276.559-.645 1.054-1.076 1.481.835.828 1.917 1.388 3.112 1.562l7.162 1.041c10.01 1.455 14.007 13.756 6.764 20.817-4.555 4.44-6.634 10.838-5.559 17.108l1.595 9.3c1.524-.639 3.26-.579 4.737.198l18.317 9.63c4.081 2.145 8.851-1.32 8.071-5.864l-3.498-20.397c-.309-1.804.289-3.646 1.6-4.924z" fill="#f0d16f"/></g><g><g><g><path d="m202.472 0h-164.626c-18.8 0-34.04 15.241-34.04 34.041v87.371c0 18.8 15.241 34.041 34.041 34.041h41.932c2.107 0 4.127.837 5.616 2.326l32.854 32.855c2.859 2.859 7.748.834 7.748-3.209v-24.029c0-4.387 3.556-7.943 7.943-7.943h68.531c18.8 0 34.041-15.241 34.041-34.041v-87.371c0-18.8-15.24-34.041-34.04-34.041z" fill="#f7e07f"/></g></g></g><g><path d="m202.472 0h-30.446c18.8 0 34.041 15.241 34.041 34.041v87.371c0 18.8-15.241 34.041-34.041 34.041h30.446c18.8 0 34.041-15.241 34.041-34.041v-87.371c-.001-18.8-15.241-34.041-34.041-34.041z" fill="#f0d16f"/></g><path d="m118.193 49.92-1.187-2.059c-8.754-15.186-29.534-17.928-41.929-5.534-10.406 10.406-10.406 27.279 0 37.685l37.979 37.979c3.923 3.923 10.283 3.923 14.205 0l37.979-37.979c10.406-10.406 10.406-27.279 0-37.685-12.395-12.395-33.174-9.652-41.928 5.534l-1.187 2.059c-.873 1.515-3.059 1.515-3.932 0z" fill="#dd8793"/><g><path d="m165.241 42.327c-9.495-9.495-23.905-10.097-34.066-3.037 1.267.886 2.479 1.896 3.62 3.037 10.406 10.406 10.406 27.279 0 37.685l-29.859 29.859 8.12 8.12c3.923 3.923 10.283 3.923 14.205 0l37.979-37.979c10.407-10.407 10.407-27.279.001-37.685z" fill="#d5707e"/></g></g></svg>