<svg id="Layer_1" enable-background="new 0 0 512 512" height="512" viewBox="0 0 512 512" width="512" xmlns="http://www.w3.org/2000/svg"><g><g><path d="m375.159 504.5h-238.318c-16.569 0-30-13.431-30-30v-437c0-16.569 13.431-30 30-30h238.319c16.569 0 30 13.431 30 30v437c-.001 16.569-13.432 30-30.001 30z" fill="#ecf5ff"/><path d="m375.159 7.5h-36c16.569 0 30 13.431 30 30v437c0 16.569-13.431 30-30 30h36c16.569 0 30-13.431 30-30v-437c0-16.569-13.431-30-30-30z" fill="#dbeafd"/><path d="m375.159 512h-238.318c-20.678 0-37.5-16.822-37.5-37.5v-437c0-20.678 16.822-37.5 37.5-37.5h238.318c20.678 0 37.5 16.822 37.5 37.5v437c0 20.678-16.822 37.5-37.5 37.5zm-238.318-497c-12.407 0-22.5 10.093-22.5 22.5v437c0 12.407 10.093 22.5 22.5 22.5h238.318c12.407 0 22.5-10.093 22.5-22.5v-437c0-12.407-10.093-22.5-22.5-22.5z" fill="#506d90"/></g><path d="m313.703 48.011h-115.406c-5.523 0-10-4.477-10-10v-30.511h135.405v30.511c.001 5.523-4.477 10-9.999 10z" fill="#506d90"/><g><g><path d="m372 332h-232c-4.142 0-7.5-3.358-7.5-7.5s3.358-7.5 7.5-7.5h232c4.142 0 7.5 3.358 7.5 7.5s-3.358 7.5-7.5 7.5z" fill="#cae0ff"/></g><g><path d="m372 377h-232c-4.142 0-7.5-3.358-7.5-7.5s3.358-7.5 7.5-7.5h232c4.142 0 7.5 3.358 7.5 7.5s-3.358 7.5-7.5 7.5z" fill="#cae0ff"/></g><g><path d="m372 422h-232c-4.142 0-7.5-3.358-7.5-7.5s3.358-7.5 7.5-7.5h232c4.142 0 7.5 3.358 7.5 7.5s-3.358 7.5-7.5 7.5z" fill="#cae0ff"/></g><g><path d="m312 467h-172c-4.142 0-7.5-3.358-7.5-7.5s3.358-7.5 7.5-7.5h172c4.142 0 7.5 3.358 7.5 7.5s-3.358 7.5-7.5 7.5z" fill="#cae0ff"/></g></g><g><g><path d="m256 261.255 101-14v-129c0-3.866-3.134-7-7-7h-74c-11.046 0-20 8.954-20 20z" fill="#f3cfbb"/><path d="m357 231.255h-71c-16.569 0-30 13.431-30 30h94c3.866 0 7-3.134 7-7z" fill="#f0c3aa"/><g><path d="m327 148.756h-41c-4.142 0-7.5-3.358-7.5-7.5s3.358-7.5 7.5-7.5h41c4.142 0 7.5 3.358 7.5 7.5s-3.358 7.5-7.5 7.5z" fill="#f0c3aa"/></g><g><path d="m327 178.756h-41c-4.142 0-7.5-3.358-7.5-7.5s3.358-7.5 7.5-7.5h41c4.142 0 7.5 3.358 7.5 7.5s-3.358 7.5-7.5 7.5z" fill="#f0c3aa"/></g><g><path d="m327 208.756h-41c-4.142 0-7.5-3.358-7.5-7.5s3.358-7.5 7.5-7.5h41c4.142 0 7.5 3.358 7.5 7.5s-3.358 7.5-7.5 7.5z" fill="#f0c3aa"/></g></g><g><path d="m256 261.255-101-14v-129c0-3.866 3.134-7 7-7h74c11.046 0 20 8.954 20 20z" fill="#f5dacb"/><path d="m155 231.255h71c16.569 0 30 13.431 30 30h-94c-3.866 0-7-3.134-7-7z" fill="#f3cfbb"/><g><path d="m226 148.756h-41c-4.142 0-7.5-3.358-7.5-7.5s3.358-7.5 7.5-7.5h41c4.142 0 7.5 3.358 7.5 7.5s-3.358 7.5-7.5 7.5z" fill="#f3cfbb"/></g><g><path d="m226 178.756h-41c-4.142 0-7.5-3.358-7.5-7.5s3.358-7.5 7.5-7.5h41c4.142 0 7.5 3.358 7.5 7.5s-3.358 7.5-7.5 7.5z" fill="#f3cfbb"/></g><g><path d="m226 208.756h-41c-4.142 0-7.5-3.358-7.5-7.5s3.358-7.5 7.5-7.5h41c4.142 0 7.5 3.358 7.5 7.5s-3.358 7.5-7.5 7.5z" fill="#f3cfbb"/></g></g></g></g></svg>