<svg id="Layer_1" enable-background="new 0 0 512 512" height="512" viewBox="0 0 512 512" width="512" xmlns="http://www.w3.org/2000/svg"><g><g><path d="m346.044 427.664h-284.136c-17.069 0-30.905-13.837-30.905-30.905v-365.854c0-17.068 13.836-30.905 30.905-30.905h284.136c17.069 0 30.905 13.837 30.905 30.905v365.853c0 17.069-13.837 30.906-30.905 30.906z" fill="#f9f6f6"/><path d="m346.044 0h-30.905c17.069 0 30.905 13.837 30.905 30.905v365.853c0 17.069-13.837 30.905-30.905 30.905h30.905c17.069 0 30.905-13.837 30.905-30.905v-365.853c0-17.068-13.837-30.905-30.905-30.905z" fill="#e2d8ec"/><path d="m377.046 512h-346.141c-17.068 0-30.905-13.837-30.905-30.905v-249.304c0-17.069 13.837-30.905 30.905-30.905h150.759c12.291 0 23.004 8.365 25.985 20.288l5.308 21.234c2.981 11.924 13.694 20.288 25.985 20.288h138.103c17.069 0 30.905 13.837 30.905 30.905v187.493c.002 17.069-13.835 30.906-30.904 30.906z" fill="#f7e07f"/><g fill="#f0d16f"><path d="m176.744 221.174 5.308 21.234c2.981 11.924 13.694 20.288 25.985 20.288h30.905c-12.29 0-23.004-8.365-25.985-20.288l-5.308-21.234c-2.981-11.924-13.694-20.288-25.985-20.288h-30.905c12.291-.001 23.004 8.364 25.985 20.288z"/><path d="m377.046 262.696h-30.905c17.069 0 30.905 13.837 30.905 30.905v187.493c0 17.069-13.837 30.905-30.905 30.905h30.905c17.069 0 30.905-13.837 30.905-30.905v-187.492c.001-17.069-13.836-30.906-30.905-30.906z"/></g><g fill="#fff"><path d="m286.301 379.225h-17.851v-18.174h20.058c4.267 0 7.726-3.459 7.726-7.726s-3.459-7.726-7.726-7.726h-27.784c-4.267 0-7.726 3.459-7.726 7.726v68.551c0 4.267 3.459 7.726 7.726 7.726s7.726-3.459 7.726-7.726v-27.198h17.851c4.267 0 7.726-3.459 7.726-7.726.001-4.267-3.459-7.727-7.726-7.727z"/><path d="m206.147 347.136h-18.98c-4.207-.022-7.753 3.538-7.726 7.741v.054.002 65.856c-.039 4.528 3 8.815 7.862 8.815h.029c.573-.002 14.102-.054 19.505-.148 19.758-.346 34.098-17.624 34.098-41.085 0-24.665-13.98-41.235-34.788-41.235zm.42 66.868c-2.645.046-7.425.083-11.564.108-.063-19.547-.063-31.408-.096-51.523h11.239c14.256 0 19.336 13.317 19.336 25.781 0 17.479-9.5 25.469-18.915 25.634z"/><path d="m138.672 345.094h-19.229c-3.82-.076-7.887 3.383-7.726 7.726v69.056c0 4.267 3.459 7.726 7.726 7.726s7.726-3.459 7.726-7.726v-22.312c4.092-.022 8.844-.043 11.503-.043 15.216 0 27.596-12.208 27.596-27.214 0-15.005-12.38-27.213-27.596-27.213zm0 38.975c-2.639 0-7.333.021-11.411.042-.021-4.208-.055-19.165-.068-23.565h11.479c6.582 0 12.143 5.386 12.143 11.761s-5.561 11.762-12.143 11.762z"/></g><path d="m319.306 92.716h-230.66c-2.845 0-5.151-2.306-5.151-5.151v-36.056c0-2.845 2.306-5.151 5.151-5.151h230.659c2.845 0 5.151 2.306 5.151 5.151v36.056c0 2.845-2.306 5.151-5.15 5.151z" fill="#d5c6e4"/><g><path d="m324.456 146.801h-240.961c-4.267 0-7.726-3.459-7.726-7.726s3.459-7.726 7.726-7.726h240.961c4.267 0 7.726 3.459 7.726 7.726s-3.459 7.726-7.726 7.726z" fill="#d5c6e4"/></g><g><path d="m324.456 177.706h-240.961c-4.267 0-7.726-3.459-7.726-7.726s3.459-7.726 7.726-7.726h240.961c4.267 0 7.726 3.459 7.726 7.726.001 4.267-3.459 7.726-7.726 7.726z" fill="#d5c6e4"/></g><g><path d="m324.456 208.612h-86.434c-4.267 0-7.726-3.459-7.726-7.726s3.459-7.726 7.726-7.726h86.434c4.267 0 7.726 3.459 7.726 7.726s-3.459 7.726-7.726 7.726z" fill="#d5c6e4"/></g><g><path d="m324.456 239.517h-86.434c-4.267 0-7.726-3.459-7.726-7.726s3.459-7.726 7.726-7.726h86.434c4.267 0 7.726 3.459 7.726 7.726s-3.459 7.726-7.726 7.726z" fill="#d5c6e4"/></g></g><g><circle cx="415.438" cy="415.438" fill="#bfe69f" r="96.562"/><path d="m415.438 318.875c-5.26 0-10.421.427-15.453 1.236 45.983 7.397 81.11 47.257 81.11 95.326s-35.126 87.929-81.11 95.326c5.032.809 10.192 1.236 15.453 1.236 53.33 0 96.562-43.232 96.562-96.562 0-53.329-43.232-96.562-96.562-96.562z" fill="#a4d9a6"/><path d="m397.478 429.932v-63.265c0-3.218 2.609-5.827 5.827-5.827h24.265c3.218 0 5.827 2.609 5.827 5.827v63.265c0 3.218 2.609 5.827 5.827 5.827h13.331c4.45 0 6.678 5.38 3.532 8.526l-36.529 36.529c-2.276 2.276-5.965 2.276-8.241 0l-36.529-36.529c-3.146-3.146-.918-8.526 3.532-8.526h13.331c3.219 0 5.827-2.608 5.827-5.827z" fill="#fff"/></g></g></svg>