<svg id="Layer_1" enable-background="new 0 0 512 512" height="512" viewBox="0 0 512 512" width="512" xmlns="http://www.w3.org/2000/svg"><g><g><path d="m450.189 61.811v419.284c0 17.069-13.837 30.905-30.905 30.905h-388.379c-17.068 0-30.905-13.837-30.905-30.905v-419.284z" fill="#f9f6f6"/><path d="m419.284 61.811v419.284c0 17.069-13.837 30.905-30.905 30.905h30.905c17.069 0 30.905-13.837 30.905-30.905v-419.284z" fill="#e2d8ec"/><path d="m419.284 0h-388.379c-17.068 0-30.905 13.837-30.905 30.905v30.905h450.189v-30.905c0-17.068-13.837-30.905-30.905-30.905z" fill="#506d90"/><path d="m419.284 0h-30.905c17.069 0 30.905 13.837 30.905 30.905v30.905h30.905v-30.905c0-17.068-13.837-30.905-30.905-30.905z" fill="#455f7e"/><g><circle cx="35.91" cy="30.905" fill="#d5707e" r="7.726"/><circle cx="66.815" cy="30.905" fill="#f0d16f" r="7.726"/><circle cx="97.72" cy="30.905" fill="#a4d9a6" r="7.726"/></g></g><g><path d="m334.527 316.781h-291.724c-4.267 0-7.726-3.459-7.726-7.726s3.459-7.726 7.726-7.726h291.723c4.267 0 7.726 3.459 7.726 7.726.001 4.266-3.458 7.726-7.725 7.726z" fill="#d5c6e4"/></g><g><path d="m303.621 363.139h-260.818c-4.267 0-7.726-3.459-7.726-7.726s3.459-7.726 7.726-7.726h260.818c4.267 0 7.726 3.459 7.726 7.726s-3.459 7.726-7.726 7.726z" fill="#d5c6e4"/></g><g><path d="m288.169 409.497h-245.366c-4.267 0-7.726-3.459-7.726-7.726s3.459-7.726 7.726-7.726h245.365c4.267 0 7.726 3.459 7.726 7.726.001 4.267-3.458 7.726-7.725 7.726z" fill="#d5c6e4"/></g><g><path d="m288.169 455.855h-245.366c-4.267 0-7.726-3.459-7.726-7.726s3.459-7.726 7.726-7.726h245.365c4.267 0 7.726 3.459 7.726 7.726.001 4.267-3.458 7.726-7.725 7.726z" fill="#d5c6e4"/></g><g><circle cx="415.438" cy="415.438" fill="#dd8793" r="96.562"/><path d="m397.478 407.186v63.265c0 3.218 2.609 5.827 5.827 5.827h24.265c3.218 0 5.827-2.609 5.827-5.827v-63.265c0-3.218 2.609-5.827 5.827-5.827h13.331c4.45 0 6.678-5.38 3.532-8.526l-36.529-36.529c-2.276-2.276-5.965-2.276-8.241 0l-36.529 36.529c-3.146 3.146-.918 8.526 3.532 8.526h13.331c3.219 0 5.827 2.609 5.827 5.827z" fill="#fff"/><path d="m415.438 318.875c-5.26 0-10.421.427-15.453 1.236 45.983 7.397 81.11 47.257 81.11 95.326s-35.126 87.929-81.11 95.326c5.032.809 10.192 1.236 15.453 1.236 53.33 0 96.562-43.232 96.562-96.562 0-53.329-43.232-96.562-96.562-96.562z" fill="#d5707e"/></g><g><g><path d="m225.095 262.696 104.048-14.423v-132.893c0-3.983-3.229-7.211-7.211-7.211h-76.233c-11.379 0-20.604 9.225-20.604 20.604z" fill="#f3cfbb"/><path d="m329.143 231.791h-73.143c-17.069 0-30.905 13.837-30.905 30.905h96.837c3.983 0 7.211-3.229 7.211-7.211z" fill="#f0c3aa"/><g><path d="m298.237 146.801h-42.237c-4.267 0-7.726-3.459-7.726-7.726s3.459-7.726 7.726-7.726h42.237c4.267 0 7.726 3.459 7.726 7.726.001 4.267-3.458 7.726-7.726 7.726z" fill="#f0c3aa"/></g><g><path d="m298.237 177.706h-42.237c-4.267 0-7.726-3.459-7.726-7.726s3.459-7.726 7.726-7.726h42.237c4.267 0 7.726 3.459 7.726 7.726s-3.458 7.726-7.726 7.726z" fill="#f0c3aa"/></g><g><path d="m298.237 208.612h-42.237c-4.267 0-7.726-3.459-7.726-7.726s3.459-7.726 7.726-7.726h42.237c4.267 0 7.726 3.459 7.726 7.726.001 4.267-3.458 7.726-7.726 7.726z" fill="#f0c3aa"/></g></g><g><path d="m225.095 262.696-104.048-14.423v-132.893c0-3.983 3.229-7.211 7.211-7.211h76.233c11.379 0 20.604 9.225 20.604 20.604z" fill="#f5dacb"/><path d="m121.046 231.791h73.143c17.069 0 30.905 13.837 30.905 30.905h-96.837c-3.983 0-7.211-3.229-7.211-7.211z" fill="#f3cfbb"/><g><path d="m194.189 146.801h-42.237c-4.267 0-7.726-3.459-7.726-7.726s3.459-7.726 7.726-7.726h42.237c4.267 0 7.726 3.459 7.726 7.726s-3.459 7.726-7.726 7.726z" fill="#f3cfbb"/></g><g><path d="m194.189 177.706h-42.237c-4.267 0-7.726-3.459-7.726-7.726s3.459-7.726 7.726-7.726h42.237c4.267 0 7.726 3.459 7.726 7.726s-3.459 7.726-7.726 7.726z" fill="#f3cfbb"/></g><g><path d="m194.189 208.612h-42.237c-4.267 0-7.726-3.459-7.726-7.726s3.459-7.726 7.726-7.726h42.237c4.267 0 7.726 3.459 7.726 7.726s-3.459 7.726-7.726 7.726z" fill="#f3cfbb"/></g></g></g></g></svg>