<svg id="Layer_1" enable-background="new 0 0 512 512" height="512" viewBox="0 0 512 512" width="512" xmlns="http://www.w3.org/2000/svg"><g><path d="m488.821 434.736h-465.642v-321.846c0-17.069 13.837-30.905 30.905-30.905h403.831c17.069 0 30.905 13.837 30.905 30.905v321.846z" fill="#506d90"/><path d="m457.915 81.985h-30.905c17.069 0 30.905 13.837 30.905 30.905v321.846h30.905v-321.846c.001-17.068-13.836-30.905-30.905-30.905z" fill="#455f7e"/><path d="m5.151 434.736h501.698c2.845 0 5.151 2.306 5.151 5.151v35.591c0 20.17-16.351 36.521-36.521 36.521h-438.958c-20.17.001-36.521-16.35-36.521-36.52v-35.591c0-2.845 2.306-5.152 5.151-5.152z" fill="#455f7e"/><path d="m506.849 434.736h-30.905c2.845 0 5.151 2.306 5.151 5.151v35.592c0 20.17-16.351 36.521-36.521 36.521h30.905c20.17 0 36.521-16.351 36.521-36.521v-35.592c0-2.844-2.306-5.151-5.151-5.151z" fill="#405972"/><path d="m54.085 384.257v-267.246c0-2.276 1.845-4.121 4.121-4.121h395.59c2.276 0 4.121 1.845 4.121 4.121v267.246c0 2.276-1.845 4.121-4.121 4.121h-395.591c-2.276 0-4.12-1.845-4.12-4.121z" fill="#ecf5ff"/><path d="m453.795 112.89h-30.905c2.276 0 4.121 1.845 4.121 4.121v267.247c0 2.276-1.845 4.121-4.121 4.121h30.905c2.276 0 4.121-1.845 4.121-4.121v-267.247c-.001-2.276-1.845-4.121-4.121-4.121z" fill="#dbeafd"/><path d="m289.95 465.642h-67.9c-5.69 0-10.302-4.612-10.302-10.302v-20.604h88.503v20.604c.001 5.69-4.612 10.302-10.301 10.302z" fill="#405972"/><g><path d="m379.836 301.328h-247.672c-2.85 0-5.468-1.568-6.813-4.081-1.344-2.513-1.196-5.561.385-7.933l123.836-185.647c1.433-2.148 3.845-3.439 6.428-3.439s4.994 1.291 6.428 3.439l123.836 185.647c1.581 2.371 1.729 5.42.385 7.933-1.345 2.513-3.963 4.081-6.813 4.081zm-233.23-15.453h218.789l-109.395-163.997z" fill="#506d90"/></g><g><path d="m329.473 73.473c0 24.638-12.128 46.444-30.739 59.774-12.04 8.623-25.683 9.618-41.622 9.618-5.072 0-11.136 3.567-15.919 2.588-33.481-6.851-58.666-36.475-58.666-71.98 0-40.578 32.895-73.473 73.473-73.473s73.473 32.895 73.473 73.473z" fill="#bcd7fd"/><path d="m256 0c-5.302 0-10.469.574-15.453 1.642 33.156 7.099 58.02 36.556 58.02 71.832s-24.865 64.732-58.02 71.832c4.984 1.067 11.262-2.439 16.565-2.439 15.94 0 29.582-.995 41.622-9.618 18.611-13.33 30.739-35.135 30.739-59.774 0-40.58-32.895-73.475-73.473-73.475z" fill="#9bc6fd"/><path d="m258.936 89.728h-5.872c-21.973 0-39.786 17.813-39.786 39.786v3.716c12.041 8.624 26.782 13.716 42.722 13.716s30.682-5.093 42.722-13.716v-3.716c0-21.973-17.813-39.786-39.786-39.786z" fill="#f7e07f"/><path d="m260.527 146.794c7.613-.415 19.068-2.681 28.893-7.895 3.247-1.664 6.356-3.559 9.302-5.669v-3.716c0-8.818-2.873-16.961-7.728-23.557-9.793 19.82-28.252 34.592-50.439 39.345.035.008 7.895 1.898 19.972 1.492z" fill="#f0d16f"/><circle cx="256" cy="62.525" fill="#f2ccbc" r="27.203"/></g><g><path d="m231.936 284c0 24.638-12.128 46.444-30.739 59.774-12.04 8.623-25.578 10.444-41.518 10.444-5.072 0-11.241 2.742-16.024 1.763-33.48-6.852-58.665-36.476-58.665-71.981 0-40.578 32.895-73.473 73.473-73.473s73.473 32.894 73.473 73.473z" fill="#bcd7fd"/><path d="m158.463 210.526c-5.302 0-10.469.575-15.453 1.642 33.156 7.099 58.02 36.556 58.02 71.831s-24.865 64.732-58.02 71.831c4.984 1.067 11.367-1.614 16.669-1.614 15.94 0 29.477-1.82 41.518-10.444 18.611-13.33 30.739-35.135 30.739-59.774 0-40.577-32.895-73.472-73.473-73.472z" fill="#9bc6fd"/><path d="m161.399 300.255h-5.872c-21.973 0-39.786 17.813-39.786 39.786v3.716c12.041 8.624 26.782 13.716 42.722 13.716s30.682-5.093 42.722-13.716v-3.716c0-21.973-17.813-39.786-39.786-39.786z" fill="#dd8793"/><path d="m143.018 355.829c14.632 3.134 32.285 2.093 48.859-6.4 3.249-1.665 6.361-3.561 9.308-5.672v-3.716c0-8.818-2.873-16.962-7.728-23.557-9.793 19.82-28.252 34.592-50.439 39.345z" fill="#d5707e"/><circle cx="158.463" cy="273.051" fill="#f2ccbc" r="27.203"/></g><g><path d="m427.01 284c0 24.638-12.128 46.444-30.739 59.774-12.04 8.623-25.223 10.863-41.163 10.863-5.302 0-12.044 2.274-17.027 1.207-33.157-7.099-58.018-36.568-58.018-71.845 0-40.578 32.895-73.473 73.473-73.473s73.474 32.895 73.474 73.474z" fill="#bcd7fd"/><path d="m353.537 210.526c-5.302 0-10.469.575-15.453 1.642 33.156 7.099 58.02 36.556 58.02 71.831s-24.865 64.732-58.02 71.831c4.984 1.067 10.15-1.131 15.453-1.131 15.94 0 30.694-2.303 42.734-10.927 18.611-13.33 30.739-35.135 30.739-59.774 0-40.577-32.895-73.472-73.473-73.472z" fill="#9bc6fd"/><path d="m356.473 300.255h-5.872c-21.973 0-39.786 17.813-39.786 39.786v3.716c12.041 8.624 26.782 13.716 42.722 13.716s30.682-5.093 42.722-13.716v-3.716c0-21.973-17.813-39.786-39.786-39.786z" fill="#bfe69f"/><path d="m338.092 355.829c14.632 3.134 32.285 2.093 48.859-6.4 3.249-1.665 6.361-3.561 9.308-5.672v-3.716c0-8.818-2.873-16.962-7.728-23.557-9.793 19.82-28.252 34.592-50.439 39.345z" fill="#a4d9a6"/><circle cx="353.537" cy="273.051" fill="#f2ccbc" r="27.203"/><g fill="#ecad9a"><path d="m353.537 245.848c-4.957 0-9.599 1.332-13.602 3.648 8.129 4.704 13.602 13.487 13.602 23.555 0 10.067-5.473 18.851-13.602 23.555 4.002 2.316 8.645 3.648 13.602 3.648 15.024 0 27.203-12.179 27.203-27.203s-12.179-27.203-27.203-27.203z"/><path d="m158.463 245.848c-4.957 0-9.599 1.332-13.602 3.648 8.129 4.704 13.602 13.487 13.602 23.555 0 10.067-5.473 18.851-13.602 23.555 4.002 2.316 8.645 3.648 13.602 3.648 15.024 0 27.203-12.179 27.203-27.203s-12.179-27.203-27.203-27.203z"/><path d="m256 35.322c-4.957 0-9.599 1.332-13.602 3.648 8.129 4.704 13.602 13.488 13.602 23.555s-5.473 18.851-13.602 23.555c4.002 2.316 8.645 3.648 13.602 3.648 15.024 0 27.203-12.179 27.203-27.203s-12.179-27.203-27.203-27.203z"/></g></g></g></svg>