<svg id="Layer_1" enable-background="new 0 0 512 512" height="512" viewBox="0 0 512 512" width="512" xmlns="http://www.w3.org/2000/svg"><g><path d="m442.306 512h-372.612c-17.069 0-30.905-13.837-30.905-30.905v-450.19c-.001-17.068 13.836-30.905 30.905-30.905h372.612c17.069 0 30.905 13.837 30.905 30.905v450.189c.001 17.069-13.836 30.906-30.905 30.906z" fill="#506d90"/><path d="m442.306 0h-30.905c17.069 0 30.905 13.837 30.905 30.905v450.189c0 17.069-13.837 30.905-30.905 30.905h30.905c17.069 0 30.905-13.837 30.905-30.905v-450.189c.001-17.068-13.836-30.905-30.905-30.905z" fill="#455f7e"/><path d="m69.694 412.072v-373.955c0-3.983 3.229-7.211 7.211-7.211h358.19c3.983 0 7.211 3.229 7.211 7.211v171.525l-15.453 15.453 15.453 15.453v171.525c0 3.983-3.229 7.211-7.211 7.211h-358.19c-3.983 0-7.211-3.229-7.211-7.212z" fill="#ecf5ff"/><path d="m435.095 30.905h-30.905c3.983 0 7.211 3.229 7.211 7.211v373.956c0 3.983-3.229 7.211-7.211 7.211h30.905c3.983 0 7.211-3.229 7.211-7.211v-171.525l-15.453-15.453 15.453-15.453v-171.524c0-3.983-3.228-7.212-7.211-7.212z" fill="#dbeafd"/><path d="m69.694 209.642h372.613v30.905h-372.613z" fill="#506d90"/><path d="m411.401 209.642h30.905v30.905h-30.905z" fill="#455f7e"/><g><path d="m164.785 209.642h-36.417c-3.983 0-7.211-3.229-7.211-7.211v-31.261l15.453-32.245-15.453-32.245v-31.26c0-3.983 3.229-7.211 7.211-7.211h36.417c3.983 0 7.211 3.229 7.211 7.211v31.261l-15.453 32.245 15.453 32.245v31.261c.001 3.981-3.228 7.21-7.211 7.21z" fill="#dd8793"/><path d="m171.997 75.42c0-3.983-3.229-7.211-7.211-7.211h-30.906c3.983 0 7.211 3.229 7.211 7.211v31.261 64.489 31.261c0 3.983-3.229 7.211-7.211 7.211h30.905c3.983 0 7.211-3.229 7.211-7.211v-31.261l-15.453-32.244 15.453-32.244v-31.262z" fill="#d5707e"/><path d="m215.624 209.642h-36.417c-3.983 0-7.211-3.229-7.211-7.211v-111.559c0-3.983 3.229-7.211 7.211-7.211h36.417c3.983 0 7.211 3.229 7.211 7.211v111.558c.001 3.983-3.228 7.212-7.211 7.212z" fill="#f7e07f"/><path d="m215.624 83.661h-30.905c3.983 0 7.211 3.229 7.211 7.211v111.558c0 3.983-3.229 7.211-7.211 7.211h30.905c3.983 0 7.211-3.229 7.211-7.211v-111.558c.001-3.982-3.228-7.211-7.211-7.211z" fill="#f0d16f"/><path d="m387.005 196.234-29.566 12.875c-3.233 1.408-6.996-.072-8.404-3.305l-39.441-90.572c-1.408-3.233.072-6.996 3.305-8.404l29.566-12.875c3.233-1.408 6.996.072 8.404 3.305l39.441 90.572c1.408 3.234-.072 6.996-3.305 8.404z" fill="#f7e07f"/><path d="m366.72 205.067 20.284-8.833c3.234-1.408 4.713-5.171 3.305-8.404l-39.441-90.572c-1.408-3.233-5.171-4.713-8.404-3.305l-20.124 8.763z" fill="#f0d16f"/><path d="m301.85 209.642h-20.964c-3.983 0-7.211-3.229-7.211-7.211v-111.559c0-3.983 3.229-7.211 7.211-7.211h20.964c3.983 0 7.211 3.229 7.211 7.211v111.558c0 3.983-3.229 7.212-7.211 7.212z" fill="#dd8793"/><path d="m301.85 83.661h-20.964c-.246 0-.488.013-.728.037 3.641.365 6.484 3.438 6.484 7.175v111.558c0 3.737-2.843 6.81-6.484 7.175.239.024.482.037.728.037h20.964c3.983 0 7.211-3.229 7.211-7.211v-111.56c0-3.982-3.229-7.211-7.211-7.211z" fill="#d5707e"/><path d="m266.463 209.642h-36.417c-3.983 0-7.211-3.229-7.211-7.211v-127.011c0-3.983 3.229-7.211 7.211-7.211h36.417c3.983 0 7.211 3.229 7.211 7.211v127.011c.001 3.982-3.228 7.211-7.211 7.211z" fill="#bfe69f"/><path d="m266.463 68.208h-30.905c3.983 0 7.211 3.229 7.211 7.211v127.011c0 3.983-3.229 7.211-7.211 7.211h30.905c3.983 0 7.211-3.229 7.211-7.211v-127.01c.001-3.983-3.228-7.212-7.211-7.212z" fill="#a4d9a6"/><path d="m121.158 106.681h50.839v64.489h-50.839z" fill="#506d90"/><path d="m141.091 106.681h30.905v64.489h-30.905z" fill="#455f7e"/></g><g><g><path d="m411.401 291.284h-310.802c-4.267 0-7.726-3.459-7.726-7.726s3.459-7.726 7.726-7.726h310.802c4.267 0 7.726 3.459 7.726 7.726s-3.459 7.726-7.726 7.726z" fill="#cae0ff"/></g><g><path d="m411.401 337.642h-310.802c-4.267 0-7.726-3.459-7.726-7.726s3.459-7.726 7.726-7.726h310.802c4.267 0 7.726 3.459 7.726 7.726s-3.459 7.726-7.726 7.726z" fill="#cae0ff"/></g><g><path d="m334.137 384h-233.538c-4.267 0-7.726-3.459-7.726-7.726s3.459-7.726 7.726-7.726h233.538c4.267 0 7.726 3.459 7.726 7.726s-3.459 7.726-7.726 7.726z" fill="#cae0ff"/></g></g><circle cx="256" cy="465.642" fill="#fff" r="15.453"/></g></svg>