<svg id="Layer_1" enable-background="new 0 0 512 512" height="512" viewBox="0 0 512 512" width="512" xmlns="http://www.w3.org/2000/svg"><g><g><circle cx="256" cy="256" fill="#cae0ff" r="248.5"/><path d="m256 7.5c-7.586 0-15.087.359-22.5 1.025 126.697 11.373 226 117.818 226 247.475s-99.303 236.102-226 247.475c7.413.666 14.914 1.025 22.5 1.025 137.243 0 248.5-111.257 248.5-248.5s-111.257-248.5-248.5-248.5z" fill="#bcd7fd"/><ellipse cx="256" cy="256" fill="#cae0ff" rx="124.004" ry="248.5"/><path d="m437.02 74.98c-48.352-48.351-112.64-74.98-181.02-74.98s-132.667 26.629-181.02 74.98c-48.351 48.352-74.98 112.64-74.98 181.02s26.629 132.668 74.98 181.02c48.353 48.351 112.64 74.98 181.02 74.98s132.668-26.629 181.02-74.98 74.98-112.64 74.98-181.02-26.629-132.668-74.98-181.02zm8.459 329.983c-25.262-6.971-50.831-12.553-76.609-16.696 11.495-37.375 17.926-80.106 18.574-124.768h109.429c-1.578 51.961-19.529 101.096-51.394 141.464zm-430.352-141.463h109.429c.648 44.664 7.079 87.396 18.575 124.773-25.79 4.142-51.363 9.723-76.61 16.69-31.865-40.368-49.816-89.503-51.394-141.463zm51.395-156.463c25.246 6.967 50.82 12.548 76.61 16.69-11.496 37.377-17.927 80.109-18.575 124.773h-109.43c1.578-51.96 19.529-101.095 51.395-141.463zm196.978 25.661c30.255-.321 60.434-2.589 90.372-6.745 11.484 36.439 17.913 78.466 18.569 122.546h-108.941zm0-14.974v-102.203c27.376 3.695 53.228 27.541 73.473 68.112 4.371 8.759 8.365 18.078 11.97 27.873-28.314 3.817-56.842 5.913-85.443 6.218zm-15-102.203v102.185c-28.593-.312-57.125-2.406-85.437-6.218 3.604-9.788 7.595-19.101 11.964-27.855 20.245-40.571 46.097-64.417 73.473-68.112zm0 117.186v115.793h-108.942c.656-44.08 7.085-86.107 18.569-122.546 29.936 4.158 60.122 6.431 90.373 6.753zm-108.942 130.793h108.942v115.792c-30.251.323-60.436 2.596-90.373 6.753-11.484-36.439-17.912-78.465-18.569-122.545zm108.942 130.794v102.185c-27.376-3.695-53.228-27.541-73.473-68.112-4.368-8.754-8.36-18.067-11.964-27.855 28.312-3.811 56.844-5.906 85.437-6.218zm15 102.185v-102.202c28.599.307 57.128 2.403 85.442 6.22-3.605 9.793-7.599 19.112-11.969 27.87-20.245 40.571-46.097 64.417-73.473 68.112zm0-117.2v-115.779h108.942c-.656 44.077-7.084 86.101-18.567 122.539-29.938-4.161-60.118-6.435-90.375-6.76zm123.944-130.779c-.648-44.664-7.079-87.396-18.575-124.773 25.778-4.14 51.349-9.719 76.61-16.69 31.865 40.368 49.816 89.503 51.394 141.463zm47.364-154.091c-23.341 6.194-46.946 11.151-70.722 14.89-4.071-11.409-8.639-22.239-13.691-32.364-12.122-24.292-26.35-43.225-41.95-56.238 48.378 10.697 92.492 36.296 126.363 73.712zm-231.252-73.712c-15.601 13.013-29.828 31.946-41.951 56.238-5.051 10.121-9.616 20.946-13.686 32.35-23.787-3.735-47.397-8.687-70.727-14.876 33.886-37.568 77.947-62.989 126.364-73.712zm-126.363 396.894c23.329-6.189 46.939-11.141 70.727-14.876 4.07 11.404 8.635 22.229 13.686 32.35 12.122 24.292 26.35 43.225 41.951 56.238-48.197-10.612-92.563-36.363-126.364-73.712zm231.251 73.713c15.601-13.014 29.828-31.946 41.95-56.238 5.052-10.125 9.62-20.954 13.69-32.362 23.776 3.739 47.382 8.694 70.723 14.888-33.863 37.276-78.149 63.142-126.363 73.712z" fill="#9bc6fd"/></g><circle cx="256" cy="256" fill="#fff" r="142.404"/><path d="m256 113.596c-5.067 0-10.07.269-15 .785 71.596 7.496 127.404 68.038 127.404 141.618s-55.808 134.124-127.404 141.619c4.93.516 9.933.785 15 .785 78.647 0 142.404-63.756 142.404-142.404s-63.757-142.403-142.404-142.403z" fill="#efeaf4"/><g><path d="m310.101 321.873c0 2.912-1.834 5.507-4.577 6.485-14.641 5.217-29.654 10.669-58.196 10.516-27.416-.146-41.603-5.413-55.858-10.515-2.74-.98-4.571-3.573-4.571-6.483v-72.222h123.201v72.219z" fill="#455f7e"/><path d="m186.899 285.163 60.294 26.882c.832.371 1.782.371 2.613 0l60.294-26.882v-35.509h-123.201z" fill="#405972"/><path d="m148.733 232.285 98.46-43.898c.832-.371 1.782-.371 2.613 0l98.46 43.898c2.536 1.131 2.536 4.731 0 5.862l-98.46 43.898c-.832.371-1.782.371-2.613 0l-98.46-43.898c-2.536-1.131-2.536-4.731 0-5.862z" fill="#506d90"/><g><path d="m350.169 289.212c-4.143 0-7.5-3.357-7.5-7.5v-46.496c0-4.143 3.357-7.5 7.5-7.5s7.5 3.357 7.5 7.5v46.496c0 4.142-3.357 7.5-7.5 7.5z" fill="#e2d8ec"/></g><circle cx="350.169" cy="293.55" fill="#455f7e" r="15"/></g></g></svg>