<svg id="Layer_1" enable-background="new 0 0 512 512" height="512" viewBox="0 0 512 512" width="512" xmlns="http://www.w3.org/2000/svg"><g><g><g><g><g><g><path d="m488.821 434.736h-465.642v-321.846c0-17.069 13.837-30.905 30.905-30.905h403.831c17.069 0 30.905 13.837 30.905 30.905v321.846z" fill="#506d90"/><path d="m457.915 81.985h-30.905c17.069 0 30.905 13.837 30.905 30.905v321.846h30.905v-321.846c.001-17.068-13.836-30.905-30.905-30.905z" fill="#455f7e"/><path d="m54.085 380.89v-263.879c0-2.276 1.845-4.121 4.121-4.121h395.59c2.276 0 4.121 1.845 4.121 4.121v263.879c0 2.276-1.845 4.121-4.121 4.121h-43.433l-154.363-15.453-154.362 15.452h-43.433c-2.276 0-4.12-1.845-4.12-4.12z" fill="#ecf5ff"/><path d="m139.863 242.792 39.916-115.63h152.442l39.916 115.63c10.721 31.057-12.349 63.427-45.205 63.427h-141.864c-32.856 0-55.926-32.37-45.205-63.427z" fill="#f7e07f"/><path d="m372.137 242.792-39.916-115.63h-30.905l39.916 115.63c10.721 31.057-12.349 63.427-45.205 63.427h30.905c32.856 0 55.926-32.37 45.205-63.427z" fill="#f0d16f"/><path d="m453.795 112.89h-30.905c2.276 0 4.121 1.845 4.121 4.121v263.879c0 2.276-1.845 4.121-4.121 4.121h30.905c2.276 0 4.121-1.845 4.121-4.121v-263.879c-.001-2.276-1.845-4.121-4.121-4.121z" fill="#dbeafd"/><g><path d="m5.151 434.736h501.698c2.845 0 5.151 2.306 5.151 5.151v35.591c0 20.17-16.351 36.521-36.521 36.521h-438.958c-20.17.001-36.521-16.35-36.521-36.52v-35.591c0-2.845 2.306-5.152 5.151-5.152z" fill="#455f7e"/><g fill="#405972"><path d="m506.849 434.736h-30.905c2.845 0 5.151 2.306 5.151 5.151v35.591c0 20.17-16.351 36.521-36.521 36.521h30.905c20.17 0 36.521-16.351 36.521-36.521v-35.591c0-2.844-2.306-5.151-5.151-5.151z"/><path d="m289.95 465.642h-67.9c-5.69 0-10.302-4.612-10.302-10.302v-20.604h88.503v20.604c.001 5.69-4.612 10.302-10.301 10.302z"/></g></g></g></g></g></g></g><g><g><g><g><path d="m410.362 385.01v-29.716c0-24.433-17-45.574-40.863-50.819l-28.061-6.167-38.22-2.981c-3.779-.831-20.102-7.75-22.486-10.522-2.634-3.063-4.196-7.036-4.196-11.311v-52.828h-41.072v52.828c0 4.072-1.417 7.87-3.828 10.868s-21.269 20.65-25.246 21.524l-35.828-7.578-28.061 6.167c-23.863 5.245-40.863 26.386-40.863 50.819v29.716z" fill="#455f7e"/></g><circle cx="256" cy="357.999" fill="#405972" r="7.726"/><g><path d="m318.135 315.431 20.458 4.496c23.863 5.244 40.863 26.386 40.863 50.819v14.264h30.905v-29.717c0-24.433-17-45.574-40.863-50.819l-28.061-6.167z" fill="#405972"/></g><g><path d="m305.61 290.433c-3.779-.831-7.042-2.857-9.425-5.629-2.634-3.063-19.648-7.036-19.648-11.311v-52.828h-56.525v52.828c0 8.144-5.667 15.191-13.621 16.94l49.609 23.899z" fill="#f2ccbc"/></g><path d="m296.184 284.804c-2.634-3.063-4.195-7.036-4.195-11.311v-52.828h-30.905v68.281c0 7.882 5.314 14.721 12.865 16.739 0 0 22.424-20.661 22.235-20.881z" fill="#ecad9a"/><g><g><g><path d="m179.779 127.161v62.764c0 42.096 34.125 76.221 76.221 76.221 1.708 0 3.403-.056 5.084-.167 6.101-.402 10.153-8.225 15.778-9.979 4.63-1.443 10.923 3.388 15.127 1.131 23.947-12.851 40.232-38.127 40.232-67.206v-62.764z" fill="#f2ccbc"/></g><path d="m301.315 127.161v62.764c.221 4.821.839 29.023-17.377 48.447-25.037 26.699-62.023 19.176-63.928 18.755 6.311 3.327 15.921 7.351 28.148 8.619 0 0 3.978.399 7.841.399 42.096 0 76.221-34.125 76.221-76.221v-62.764h-30.905z" fill="#ecad9a"/><g><g><path d="m219.225 185.92c-4.268 0-7.726-3.459-7.726-7.726v-14.709c0-4.268 3.459-7.726 7.726-7.726 4.268 0 7.726 3.459 7.726 7.726v14.709c.001 4.267-3.458 7.726-7.726 7.726z" fill="#455f7e"/></g><g><path d="m292.775 185.92c-4.268 0-7.726-3.459-7.726-7.726v-14.709c0-4.268 3.459-7.726 7.726-7.726s7.726 3.459 7.726 7.726v14.709c0 4.267-3.459 7.726-7.726 7.726z" fill="#455f7e"/></g></g></g></g><path d="m231.55 338.782 24.45-24.45-40.195-29.537c-2.384 2.772-5.636 4.808-9.414 5.638l-35.828 7.874 55.633 40.881c1.64 1.206 3.914 1.033 5.354-.406z" fill="#f9f6f6"/><path d="m341.438 298.308-35.828-7.874c-3.779-.83-7.03-2.866-9.414-5.638l-40.196 29.536 24.45 24.45c1.439 1.439 3.714 1.612 5.354.407z" fill="#f9f6f6"/><path d="m318.135 315.431 23.303-17.124c-.051-.007-35.844-7.881-35.892-7.891-3.609-.788-6.944-2.825-9.348-5.619 0-.001-.001-.001-.002-.002l-26.231 19.275c1.457.815 3.042 1.442 4.74 1.816z" fill="#e2d8ec"/></g></g><g><g><path d="m377.116 49.28v76.864c0 4.268-3.459 7.726-7.726 7.726s-7.726-3.459-7.726-7.726v-76.864z" fill="#d5c6e4"/></g><circle cx="369.389" cy="125.759" fill="#455f7e" r="19.666"/></g><g><path d="m179.779 127.161v-60.927h152.442v60.927z" fill="#455f7e"/><path d="m179.779 95.376 74.664 29.087c.991.386 2.122.386 3.113 0l74.664-29.087v-29.142h-152.441z" fill="#405972"/><path d="m137.15 45.983 117.293-45.694c.991-.386 2.123-.386 3.113 0l117.294 45.694c3.021 1.177 3.021 4.925 0 6.102l-117.293 45.694c-.991.386-2.123.386-3.113 0l-117.294-45.694c-3.021-1.177-3.021-4.924 0-6.102z" fill="#506d90"/></g><g><path d="m256.003 233.002c-.155 0-.309-.001-.465-.002-7.217-.076-14.385-1.955-20.728-5.433-3.741-2.051-5.111-6.748-3.059-10.49 2.051-3.74 6.747-5.113 10.49-3.059 2.873 1.576 7.542 3.468 13.46 3.529.101.001.201.002.302.002 6.038 0 10.805-1.911 13.758-3.531 3.742-2.05 8.439-.681 10.49 3.059 2.051 3.741.682 8.439-3.059 10.49-4.547 2.492-11.885 5.435-21.189 5.435z" fill="#ecad9a"/></g></g></g></svg>