<svg id="Layer_1" enable-background="new 0 0 512 512" height="512" viewBox="0 0 512 512" width="512" xmlns="http://www.w3.org/2000/svg"><g><g><g><path d="m512 61.811v419.284c0 17.068-13.837 30.905-30.905 30.905h-450.19c-17.068 0-30.905-13.837-30.905-30.905v-419.284z" fill="#f9f6f6"/><g><g><path d="m256 434.312c-4.267 0-7.726-3.459-7.726-7.726v-46.358c0-4.268 3.459-7.726 7.726-7.726s7.726 3.459 7.726 7.726v46.358c0 4.267-3.459 7.726-7.726 7.726z" fill="#455f7e"/></g><circle cx="256" cy="446.113" fill="#506d90" r="19.528"/><path d="m423.836 392.402h-335.672c-3.983 0-7.211-3.229-7.211-7.211v-213.378h350.095v213.378c-.001 3.982-3.229 7.211-7.212 7.211z" fill="#bcd7fd"/><path d="m400.142 171.812v213.378c0 3.982-3.229 7.211-7.211 7.211h30.905c3.983 0 7.211-3.229 7.211-7.211v-213.378z" fill="#9bc6fd"/><g><path d="m176.766 295.571h42.239c1.55 0 2.797 1.304 2.704 2.851-1.569 26.099-24.517 46.829-51.386 44.732-23.257-1.815-42.024-20.583-43.839-43.839-2.097-26.869 18.633-49.818 44.732-51.386 1.547-.093 2.851 1.154 2.851 2.704v42.239c-.002 1.49 1.207 2.699 2.699 2.699z" fill="#ecf5ff"/><path d="m248.716 265.723c-1.434-23.943-20.86-43.369-44.803-44.803-1.543-.092-2.841 1.156-2.841 2.702v42.241c0 1.492 1.209 2.701 2.701 2.701h42.241c1.546-.001 2.795-1.298 2.702-2.841z" fill="#f7e07f"/></g><path d="m439.289 171.813h-366.578c-3.983 0-7.211-3.229-7.211-7.211v-28.952c0-3.983 3.229-7.211 7.211-7.211h366.578c3.983 0 7.211 3.229 7.211 7.211v28.951c0 3.983-3.228 7.212-7.211 7.212z" fill="#506d90"/><path d="m439.289 128.439h-30.905c3.983 0 7.211 3.228 7.211 7.211v28.951c0 3.983-3.229 7.211-7.211 7.211h30.905c3.983 0 7.211-3.228 7.211-7.211v-28.951c0-3.982-3.228-7.211-7.211-7.211z" fill="#455f7e"/><g><g><path d="m384.689 243.476h-88.769c-4.267 0-7.726-3.459-7.726-7.726s3.459-7.726 7.726-7.726h88.769c4.267 0 7.726 3.459 7.726 7.726s-3.459 7.726-7.726 7.726z" fill="#ecf5ff"/></g><g><path d="m384.689 289.834h-88.769c-4.267 0-7.726-3.459-7.726-7.726s3.459-7.726 7.726-7.726h88.769c4.267 0 7.726 3.459 7.726 7.726s-3.459 7.726-7.726 7.726z" fill="#ecf5ff"/></g><g><path d="m384.689 336.192h-88.769c-4.267 0-7.726-3.459-7.726-7.726s3.459-7.726 7.726-7.726h88.769c4.267 0 7.726 3.459 7.726 7.726s-3.459 7.726-7.726 7.726z" fill="#ecf5ff"/></g></g></g><path d="m481.095 61.811v419.284c0 17.069-13.837 30.905-30.905 30.905h30.905c17.068 0 30.905-13.837 30.905-30.905v-419.284z" fill="#e2d8ec"/><path d="m481.095 0h-450.19c-17.068 0-30.905 13.837-30.905 30.905v30.905h512v-30.905c0-17.068-13.837-30.905-30.905-30.905z" fill="#506d90"/><path d="m481.095 0h-30.905c17.069 0 30.905 13.837 30.905 30.905v30.905h30.905v-30.905c0-17.068-13.837-30.905-30.905-30.905z" fill="#455f7e"/><g><circle cx="35.91" cy="30.905" fill="#d5707e" r="7.726"/><circle cx="66.815" cy="30.905" fill="#f0d16f" r="7.726"/><circle cx="97.72" cy="30.905" fill="#a4d9a6" r="7.726"/></g></g></g></g></svg>