<svg id="Layer_1" enable-background="new 0 0 512 512" height="512" viewBox="0 0 512 512" width="512" xmlns="http://www.w3.org/2000/svg"><g><g><g><path d="m512 61.811v419.284c0 17.068-13.837 30.905-30.905 30.905h-450.19c-17.068 0-30.905-13.837-30.905-30.905v-419.284z" fill="#f9f6f6"/><g><g><path d="m357.168 456.951h-202.336c-11.379 0-20.604-9.225-20.604-20.604v-298.883c0-11.379 9.225-20.604 20.604-20.604h153.39l69.55 69.55v249.937c-.001 11.379-9.225 20.604-20.604 20.604z" fill="#bcd7fd"/><path d="m346.866 186.41v249.937c0 11.379-9.225 20.604-20.604 20.604h30.905c11.379 0 20.604-9.225 20.604-20.604v-249.937z" fill="#9bc6fd"/><path d="m377.771 186.41h-63.369c-3.414 0-6.181-2.767-6.181-6.181v-63.369z" fill="#7db3ff"/><g fill="#dd8793"><path d="m235.409 235.418c-5.524-11.941-20.238-43.741-25.966-56.122-1.264-2.732-4.001-4.482-7.012-4.482s-5.748 1.749-7.012 4.482c0 0-24.21 54.037-25.966 56.122-1.792 3.873-.105 8.465 3.768 10.257 3.874 1.793 8.465.105 10.257-3.768l5.139-11.107h27.631l5.139 11.107c1.81 3.919 6.457 5.526 10.257 3.768 3.87-1.793 5.557-6.384 3.765-10.257zm-39.644-20.071 6.665-14.406 6.665 14.406z"/><path d="m269.747 160.638h-11.415v-11.417c0-4.268-3.46-7.726-7.727-7.726s-7.726 3.459-7.726 7.726v11.417h-11.416c-4.267 0-7.726 3.459-7.726 7.726s3.459 7.726 7.726 7.726h11.416v11.415c0 4.268 3.459 7.726 7.726 7.726s7.727-3.459 7.727-7.726v-11.415h11.415c4.268 0 7.726-3.459 7.726-7.726s-3.458-7.726-7.726-7.726z"/></g></g><g><g><path d="m346.866 279.244h-181.732c-4.267 0-7.726-3.459-7.726-7.726s3.459-7.726 7.726-7.726h181.732c4.268 0 7.726 3.459 7.726 7.726s-3.458 7.726-7.726 7.726z" fill="#ecf5ff"/></g><g><path d="m346.866 325.603h-181.732c-4.267 0-7.726-3.459-7.726-7.726s3.459-7.726 7.726-7.726h181.732c4.268 0 7.726 3.459 7.726 7.726s-3.458 7.726-7.726 7.726z" fill="#ecf5ff"/></g><g><path d="m346.866 371.961h-181.732c-4.267 0-7.726-3.459-7.726-7.726s3.459-7.726 7.726-7.726h181.732c4.268 0 7.726 3.459 7.726 7.726s-3.458 7.726-7.726 7.726z" fill="#ecf5ff"/></g><g><path d="m285.055 418.319h-119.921c-4.267 0-7.726-3.459-7.726-7.726s3.459-7.726 7.726-7.726h119.922c4.268 0 7.726 3.459 7.726 7.726s-3.459 7.726-7.727 7.726z" fill="#ecf5ff"/></g></g></g><path d="m481.095 61.811v419.284c0 17.069-13.837 30.905-30.905 30.905h30.905c17.068 0 30.905-13.837 30.905-30.905v-419.284z" fill="#e2d8ec"/><path d="m481.095 0h-450.19c-17.068 0-30.905 13.837-30.905 30.905v30.905h512v-30.905c0-17.068-13.837-30.905-30.905-30.905z" fill="#506d90"/><path d="m481.095 0h-30.905c17.069 0 30.905 13.837 30.905 30.905v30.905h30.905v-30.905c0-17.068-13.837-30.905-30.905-30.905z" fill="#455f7e"/><g><circle cx="35.91" cy="30.905" fill="#d5707e" r="7.726"/><circle cx="66.815" cy="30.905" fill="#f0d16f" r="7.726"/><circle cx="97.72" cy="30.905" fill="#a4d9a6" r="7.726"/></g></g></g></g></svg>