<svg id="Layer_1" enable-background="new 0 0 512 512" height="512" viewBox="0 0 512 512" width="512" xmlns="http://www.w3.org/2000/svg"><g><g><g><path d="m481.095 397.095h-450.19c-17.068 0-30.905-13.836-30.905-30.905v-290.941c0-17.069 13.837-30.905 30.905-30.905h450.189c17.069 0 30.905 13.837 30.905 30.905v290.941c.001 17.069-13.836 30.905-30.904 30.905z" fill="#506d90"/><path d="m481.095 44.344h-30.905c17.069 0 30.905 13.837 30.905 30.905v290.941c0 17.069-13.837 30.905-30.905 30.905h30.905c17.069 0 30.905-13.837 30.905-30.905v-290.941c0-17.068-13.837-30.905-30.905-30.905z" fill="#455f7e"/><path d="m30.905 346.616v-267.246c0-2.276 1.845-4.121 4.121-4.121h441.948c2.276 0 4.121 1.845 4.121 4.121v267.246c0 2.276-1.845 4.121-4.121 4.121h-441.948c-2.276 0-4.121-1.845-4.121-4.121z" fill="#ecf5ff"/><path d="m30.905 346.616v-267.246c0-2.276 1.845-4.121 4.121-4.121h441.948c2.276 0 4.121 1.845 4.121 4.121v267.246c0 2.276-1.845 4.121-4.121 4.121h-441.948c-2.276 0-4.121-1.845-4.121-4.121z" fill="#ecf5ff"/><path d="m476.974 75.249h-30.905c2.276 0 4.121 1.845 4.121 4.121v267.246c0 2.276-1.845 4.121-4.121 4.121h30.905c2.276 0 4.121-1.845 4.121-4.121v-267.246c0-2.276-1.845-4.121-4.121-4.121z" fill="#dbeafd"/><path d="m307.038 512h-102.076l15.453-114.905h71.17z" fill="#455f7e"/><path d="m291.585 397.095h-30.905l15.453 114.905h30.905z" fill="#405972"/><path d="m322.853 462.321 10.881 39.235c1.456 5.251-2.493 10.444-7.942 10.444h-139.585c-5.449 0-9.398-5.193-7.942-10.444l10.881-39.235c.99-3.569 4.238-6.039 7.942-6.039h117.824c3.703 0 6.952 2.471 7.941 6.039z" fill="#506d90"/><path d="m333.735 501.556-10.881-39.235c-.99-3.569-4.238-6.039-7.942-6.039h-30.905c3.703 0 6.952 2.47 7.942 6.039l10.881 39.235c1.456 5.25-2.493 10.444-7.942 10.444h30.905c5.449 0 9.398-5.193 7.942-10.444z" fill="#455f7e"/></g><path d="m92.212 61.811h327.577v288.926h-327.577z" fill="#f9f6f6"/><path d="m388.883 61.811h30.905v288.926h-30.905z" fill="#e2d8ec"/><g><g><path d="m338.452 288.927h-164.904c-8.747 0-15.838-7.091-15.838-15.838v-164.534c0-8.747 7.091-15.838 15.838-15.838h164.904c8.747 0 15.838 7.091 15.838 15.838v164.534c.001 8.747-7.091 15.838-15.838 15.838z" fill="#dd8793"/></g><path d="m338.452 92.716h-30.905c8.747 0 15.838 7.091 15.838 15.838v164.534c0 8.747-7.091 15.838-15.838 15.838h30.905c8.747 0 15.838-7.091 15.838-15.838v-164.533c.001-8.748-7.091-15.839-15.838-15.839z" fill="#d5707e"/><path d="m329.801 154.138.911-22.494c.185-4.561-1.673-8.911-5.097-11.935-3.429-3.027-7.983-4.334-12.529-3.577l-78.307 13.339c-7.028 1.168-12.339 7.178-12.629 14.292l-3.156 77.66c-1.15-.223-2.335-.348-3.55-.348-10.215 0-18.495 8.265-18.495 18.461s8.281 18.461 18.495 18.461c10.215 0 18.496-8.265 18.496-18.461 0-.718-.051-1.422-.131-2.119l2.483-61.094 77.679-13.207-1.723 42.525c-1.223-.254-2.489-.39-3.787-.39-10.215 0-18.496 8.265-18.496 18.461s8.281 18.461 18.496 18.461c9.876 0 17.92-7.732 18.445-17.459.029-.227.053-.456.063-.689l2.829-69.815c.001-.024.003-.048.003-.072z" fill="#fff"/></g><g><path d="m388.883 327.558h-265.766c-4.267 0-7.726-3.459-7.726-7.726s3.459-7.726 7.726-7.726h265.766c4.267 0 7.726 3.459 7.726 7.726s-3.459 7.726-7.726 7.726z" fill="#d5c6e4"/></g><path d="m391.974 0h-287.4c-6.827 0-12.362 5.535-12.362 12.362v49.449h327.577l-15.453-49.449c0-6.827-5.535-12.362-12.362-12.362z" fill="#455f7e"/><path d="m407.426 0h-30.905c6.827 0 12.362 5.535 12.362 12.362v49.449h30.905v-49.449c0-6.827-5.534-12.362-12.362-12.362z" fill="#405972"/></g><g><circle cx="123.117" cy="30.905" fill="#d5707e" r="7.726"/><circle cx="154.022" cy="30.905" fill="#f0d16f" r="7.726"/><circle cx="184.928" cy="30.905" fill="#a4d9a6" r="7.726"/></g></g></svg>