<svg id="Layer_1" enable-background="new 0 0 512 512" height="512" viewBox="0 0 512 512" width="512" xmlns="http://www.w3.org/2000/svg"><g><g><g><path d="m488.821 434.736h-465.642v-356.119c0-17.069 13.837-30.905 30.905-30.905h403.831c17.069 0 30.905 13.837 30.905 30.905v356.119z" fill="#506d90"/><path d="m457.915 47.712h-30.905c17.069 0 30.905 13.837 30.905 30.905v356.119h30.905v-356.119c.001-17.069-13.836-30.905-30.905-30.905z" fill="#455f7e"/><path d="m54.085 380.89v-298.152c0-2.276 1.845-4.121 4.121-4.121h395.59c2.276 0 4.121 1.845 4.121 4.121v298.152c0 2.276-1.845 4.121-4.121 4.121h-395.591c-2.276-.001-4.12-1.846-4.12-4.121z" fill="#ecf5ff"/><path d="m453.795 78.617h-30.905c2.276 0 4.121 1.845 4.121 4.121v298.152c0 2.276-1.845 4.121-4.121 4.121h30.905c2.276 0 4.121-1.845 4.121-4.121v-298.152c-.001-2.276-1.845-4.121-4.121-4.121z" fill="#dbeafd"/><g><path d="m107.664 61.811h296.671v323.199h-296.671z" fill="#f9f6f6"/><path d="m373.43 61.811h30.905v323.2h-30.905z" fill="#e2d8ec"/><g><path d="m340.853 225.095c2.736-2.917 5.314-5.839 7.671-8.757 16.853-20.856 21.92-39.642 14.266-52.898-7.653-13.257-26.451-18.266-52.945-14.096-3.705.583-7.524 1.354-11.418 2.265-7.523-25.509-23.659-49.825-42.427-49.825-19.418 0-33.716 20.82-42.396 49.833-3.905-.915-7.735-1.688-11.449-2.273-26.488-4.168-45.291.838-52.945 14.096-7.654 13.257-2.588 32.042 14.266 52.898 2.358 2.917 4.935 5.84 7.671 8.757-2.736 2.916-5.314 5.839-7.671 8.757-16.853 20.856-21.92 39.642-14.266 52.898 8.372 14.5 33.32 17.184 52.945 14.096 3.705-.583 7.524-1.354 11.418-2.265 6.836 23.814 23.574 49.825 42.427 49.825 19.418 0 33.716-20.82 42.396-49.833 3.905.915 7.735 1.688 11.449 2.273 19.224 3.025 44.356.781 52.945-14.096 7.654-13.257 2.588-32.042-14.266-52.898-2.357-2.918-4.935-5.841-7.671-8.757zm-28.606-60.485c12.938-2.036 32.207-2.022 37.16 6.556 4.111 7.12-.712 20.375-12.902 35.459-2.055 2.543-4.296 5.094-6.675 7.643-6.951-6.328-14.665-12.547-23.008-18.515-.998-10.21-2.526-20-4.531-29.184 3.398-.785 6.727-1.451 9.956-1.959zm-56.247 102.095c-12.2-5.921-24.807-13.203-36.036-20.806-.968-13.535-.972-28.078 0-41.611 11.24-7.607 23.82-14.878 36.036-20.805 12.214 5.933 24.797 13.195 36.036 20.805.974 13.55.969 28.065 0 41.611-11.226 7.607-23.838 14.88-36.036 20.806zm33.879-1.028c-.705 4.741-1.534 9.347-2.486 13.792-4.325-1.399-8.729-2.983-13.187-4.743 2.641-1.424 5.279-2.881 7.909-4.399s5.21-3.076 7.764-4.65zm-52.085 9.048c-4.459 1.76-8.862 3.344-13.187 4.743-.951-4.445-1.78-9.051-2.486-13.792 2.554 1.575 5.135 3.131 7.764 4.649 2.63 1.519 5.268 2.976 7.909 4.4zm-33.879-40.582c-3.753-2.981-7.327-6.002-10.701-9.048 3.373-3.045 6.945-6.065 10.697-9.046-.092 3.019-.141 6.037-.141 9.046.001 3.036.058 6.049.145 9.048zm18.206-49.631c.705-4.741 1.534-9.346 2.486-13.792 4.325 1.399 8.728 2.983 13.187 4.743-2.641 1.424-5.279 2.881-7.908 4.399-2.63 1.518-5.211 3.075-7.765 4.65zm52.085-9.049c4.459-1.76 8.862-3.344 13.187-4.743.951 4.445 1.781 9.05 2.486 13.792-2.554-1.575-5.134-3.132-7.764-4.65s-5.268-2.975-7.909-4.399zm33.879 40.583c3.753 2.981 7.327 6.002 10.701 9.049-3.373 3.045-6.945 6.065-10.697 9.046.092-3.019.141-6.037.141-9.045-.001-3.038-.058-6.051-.145-9.05zm-52.085-98.81c10.599 0 22.469 21.193 27.539 38.505-8.956 2.856-18.198 6.427-27.539 10.668-9.341-4.241-18.584-7.812-27.539-10.668 5.112-17.255 16.851-38.505 27.539-38.505zm-93.407 53.93c5.079-8.796 24.97-8.474 37.16-6.556 3.249.511 6.6 1.182 10.018 1.974-2.016 9.283-3.531 19.099-4.535 29.126-8.365 5.982-16.099 12.216-23.066 18.558-2.378-2.549-4.62-5.1-6.675-7.643-12.19-15.084-17.013-28.339-12.902-35.459zm37.16 114.413c-19.159 3.015-33.049.563-37.16-6.556-4.111-7.12.712-20.375 12.902-35.46 2.055-2.543 4.296-5.093 6.674-7.642 6.951 6.328 14.665 12.547 23.008 18.515.998 10.21 2.526 20 4.531 29.184-3.397.785-6.726 1.451-9.955 1.959zm56.247 47.374c-11.296 0-22.497-21.457-27.539-38.505 8.955-2.856 18.198-6.427 27.539-10.668 9.341 4.241 18.584 7.812 27.539 10.668-4.983 16.175-17.577 38.505-27.539 38.505zm93.407-53.93c-4.111 7.12-18.001 9.572-37.16 6.556-3.249-.511-6.6-1.182-10.018-1.974 2.016-9.283 3.531-19.1 4.535-29.126 8.366-5.982 16.099-12.216 23.067-18.558 2.378 2.549 4.62 5.1 6.674 7.642 12.19 15.085 17.013 28.34 12.902 35.46z" fill="#bcd7fd"/><circle cx="256" cy="225.095" fill="#d5707e" r="15.549"/></g><path d="m391.974 0h-271.948c-6.827 0-12.362 5.535-12.362 12.362v49.449h296.672v-49.449c0-6.827-5.535-12.362-12.362-12.362z" fill="#455f7e"/><path d="m391.974 0h-30.905c6.827 0 12.362 5.535 12.362 12.362v49.449h30.905v-49.449c0-6.827-5.535-12.362-12.362-12.362z" fill="#405972"/><g><circle cx="138.57" cy="30.905" fill="#d5707e" r="7.726"/><circle cx="169.475" cy="30.905" fill="#f0d16f" r="7.726"/><circle cx="200.381" cy="30.905" fill="#a4d9a6" r="7.726"/></g></g><g><path d="m5.151 434.736h501.698c2.845 0 5.151 2.306 5.151 5.151v35.591c0 20.17-16.351 36.521-36.521 36.521h-438.958c-20.17.001-36.521-16.35-36.521-36.52v-35.591c0-2.845 2.306-5.152 5.151-5.152z" fill="#455f7e"/><g fill="#405972"><path d="m506.849 434.736h-30.905c2.845 0 5.151 2.306 5.151 5.151v35.591c0 20.17-16.351 36.521-36.521 36.521h30.905c20.17 0 36.521-16.351 36.521-36.521v-35.591c0-2.844-2.306-5.151-5.151-5.151z"/><path d="m289.95 465.642h-67.9c-5.69 0-10.302-4.612-10.302-10.302v-20.604h88.503v20.604c.001 5.69-4.612 10.302-10.301 10.302z"/></g></g></g></g><circle cx="156.072" cy="283.815" fill="#9bc6fd" r="15.549"/><circle cx="256" cy="109.714" fill="#f0d16f" r="15.549"/><circle cx="355.928" cy="283.815" fill="#a4d9a6" r="15.549"/></g></svg>