<svg id="Layer_1" enable-background="new 0 0 512 512" height="512" viewBox="0 0 512 512" width="512" xmlns="http://www.w3.org/2000/svg"><g><g><g><path d="m512 61.811v419.284c0 17.068-13.837 30.905-30.905 30.905h-450.19c-17.068 0-30.905-13.837-30.905-30.905v-419.284z" fill="#f9f6f6"/><path d="m209.228 240.812h93.545v53.041h-93.545z" fill="#506d90"/><path d="m348.302 61.811h93.545l-139.075 179.001h-93.544z" fill="#dd8793"/><circle cx="256" cy="368.29" fill="#f7e07f" r="97.352"/><path d="m256 270.938c-5.259 0-10.42.423-15.453 1.226 46.422 7.405 81.899 47.62 81.899 96.126s-35.478 88.722-81.899 96.127c5.033.803 10.193 1.225 15.453 1.225 53.766 0 97.352-43.586 97.352-97.352s-43.586-97.352-97.352-97.352z" fill="#f0d16f"/><circle cx="256" cy="368.29" fill="#fff" r="56.145"/><path d="m256 312.145c-5.36 0-10.54.771-15.453 2.18 23.465 6.73 40.692 28.366 40.692 53.965s-17.227 47.235-40.692 53.965c4.913 1.409 10.093 2.18 15.453 2.18 30.959 0 56.145-25.186 56.145-56.145s-25.186-56.145-56.145-56.145z" fill="#efeaf4"/><path d="m271.453 160.723-46.773 60.2 15.453 19.889h62.639l15.453-19.889z" fill="#d5707e"/><path d="m163.698 61.811h-93.545l139.075 179.001h93.544z" fill="#dd8793"/><path d="m481.095 61.811v419.284c0 17.069-13.837 30.905-30.905 30.905h30.905c17.068 0 30.905-13.837 30.905-30.905v-419.284z" fill="#e2d8ec"/><path d="m481.095 0h-450.19c-17.068 0-30.905 13.837-30.905 30.905v30.905h512v-30.905c0-17.068-13.837-30.905-30.905-30.905z" fill="#506d90"/><path d="m481.095 0h-30.905c17.069 0 30.905 13.837 30.905 30.905v30.905h30.905v-30.905c0-17.068-13.837-30.905-30.905-30.905z" fill="#455f7e"/><g><circle cx="35.91" cy="30.905" fill="#d5707e" r="7.726"/><circle cx="66.815" cy="30.905" fill="#f0d16f" r="7.726"/><circle cx="97.72" cy="30.905" fill="#a4d9a6" r="7.726"/></g></g></g></g></svg>