<svg id="Layer_1" enable-background="new 0 0 512 512" height="512" viewBox="0 0 512 512" width="512" xmlns="http://www.w3.org/2000/svg"><g><g><g><path d="m256 452.41-256-51.045v-327.957c0-9.829 7.944-17.796 17.743-17.796h187.564c27.997 0 50.693 22.765 50.693 50.846z" fill="#ecf5ff"/><path d="m256 456.388h-238.257c-9.799 0-17.743-7.968-17.743-17.796v-59.467h208.893c26.017 0 47.107 21.091 47.107 47.107z" fill="#dbeafd"/><g><path d="m30.905 109.696h194.189c4.267 0 7.726-3.459 7.726-7.726s-3.459-7.726-7.726-7.726h-194.189c-4.267 0-7.726 3.459-7.726 7.726s3.459 7.726 7.726 7.726z" fill="#dbeafd"/></g><g><path d="m30.905 155.06h147.831c4.267 0 7.726-3.459 7.726-7.726s-3.459-7.726-7.726-7.726h-147.831c-4.267 0-7.726 3.459-7.726 7.726s3.459 7.726 7.726 7.726z" fill="#dbeafd"/></g><g><path d="m30.905 201.419h116.926c4.267 0 7.726-3.459 7.726-7.726s-3.459-7.726-7.726-7.726h-116.926c-4.267 0-7.726 3.459-7.726 7.726s3.459 7.726 7.726 7.726z" fill="#dbeafd"/></g><g><path d="m30.905 247.777h101.473c4.267 0 7.726-3.459 7.726-7.726 0-4.268-3.459-7.726-7.726-7.726h-101.473c-4.267 0-7.726 3.459-7.726 7.726s3.459 7.726 7.726 7.726z" fill="#dbeafd"/></g><g><path d="m30.905 294.135h101.473c4.267 0 7.726-3.459 7.726-7.726s-3.459-7.726-7.726-7.726h-101.473c-4.267 0-7.726 3.459-7.726 7.726s3.459 7.726 7.726 7.726z" fill="#dbeafd"/></g><g><path d="m30.905 340.493h132.378c4.267 0 7.726-3.459 7.726-7.726s-3.459-7.726-7.726-7.726h-132.378c-4.267 0-7.726 3.459-7.726 7.726s3.459 7.726 7.726 7.726z" fill="#dbeafd"/></g></g><g><path d="m256 452.41 256-51.045v-327.957c0-9.829-7.944-17.796-17.743-17.796h-187.564c-27.997 0-50.693 22.765-50.693 50.846z" fill="#dbeafd"/><path d="m256 456.388h238.257c9.799 0 17.743-7.968 17.743-17.796v-59.467h-208.893c-26.017 0-47.107 21.091-47.107 47.107z" fill="#cae0ff"/><g><path d="m286.905 109.696h194.189c4.267 0 7.726-3.459 7.726-7.726s-3.459-7.726-7.726-7.726h-194.189c-4.267 0-7.726 3.459-7.726 7.726s3.459 7.726 7.726 7.726z" fill="#cae0ff"/></g><g><path d="m333.264 155.06h147.831c4.267 0 7.726-3.459 7.726-7.726s-3.459-7.726-7.726-7.726h-147.831c-4.267 0-7.726 3.459-7.726 7.726s3.458 7.726 7.726 7.726z" fill="#cae0ff"/></g><g><path d="m364.169 201.419h116.926c4.267 0 7.726-3.459 7.726-7.726s-3.459-7.726-7.726-7.726h-116.926c-4.267 0-7.726 3.459-7.726 7.726s3.459 7.726 7.726 7.726z" fill="#cae0ff"/></g><g><path d="m379.622 247.777h101.473c4.267 0 7.726-3.459 7.726-7.726 0-4.268-3.459-7.726-7.726-7.726h-101.473c-4.267 0-7.726 3.459-7.726 7.726-.001 4.267 3.459 7.726 7.726 7.726z" fill="#cae0ff"/></g><g><path d="m379.622 294.135h101.473c4.267 0 7.726-3.459 7.726-7.726s-3.459-7.726-7.726-7.726h-101.473c-4.267 0-7.726 3.459-7.726 7.726s3.459 7.726 7.726 7.726z" fill="#cae0ff"/></g><g><path d="m348.716 340.493h132.378c4.267 0 7.726-3.459 7.726-7.726s-3.459-7.726-7.726-7.726h-132.378c-4.267 0-7.726 3.459-7.726 7.726s3.459 7.726 7.726 7.726z" fill="#cae0ff"/></g></g></g><ellipse cx="256" cy="246.285" fill="#dd8793" rx="90.42" ry="91.037"/><path d="m256 155.247c-5.269 0-10.431.459-15.453 1.329 42.575 7.382 74.967 44.734 74.967 89.708s-32.392 82.325-74.967 89.708c5.022.871 10.184 1.329 15.453 1.329 49.937 0 90.42-40.759 90.42-91.037s-40.483-91.037-90.42-91.037z" fill="#d5707e"/><path d="m250.561 206.645 35.561 35.804c2.108 2.123 2.108 5.549 0 7.672l-35.561 35.804c-3.424 3.447-9.306 1.023-9.306-3.836v-71.608c0-4.859 5.882-7.284 9.306-3.836z" fill="#fff"/></g></svg>