<svg id="Layer_1" enable-background="new 0 0 512 512" height="512" viewBox="0 0 512 512" width="512" xmlns="http://www.w3.org/2000/svg"><g><g><g><path d="m281.502 237.394h-56.728l8.588-48.857h39.552z" fill="#455f7e"/><path d="m272.914 188.537h-30l8.588 48.857h30z" fill="#405972"/><path d="m290.291 224.785 6.047 21.804c.809 2.918-1.385 5.804-4.413 5.804h-77.573c-3.028 0-5.223-2.886-4.413-5.804l6.047-21.804c.55-1.983 2.355-3.356 4.413-3.356h65.479c2.058 0 3.863 1.373 4.413 3.356z" fill="#506d90"/><path d="m296.338 246.59-6.047-21.805c-.55-1.983-2.355-3.356-4.413-3.356h-30c2.058 0 3.864 1.373 4.413 3.356l6.047 21.805c.809 2.918-1.385 5.804-4.414 5.804h30c3.029 0 5.223-2.886 4.414-5.804z" fill="#455f7e"/><g><path d="m363.231 188.537h-220.186c-9.486 0-17.175-7.69-17.175-17.175v-146.687c0-9.486 7.69-17.175 17.175-17.175h220.187c9.486 0 17.175 7.69 17.175 17.175v146.686c0 9.486-7.69 17.176-17.176 17.176z" fill="#ecf5ff"/><path d="m363.231 7.5h-36c9.486 0 17.175 7.689 17.175 17.175v146.687c0 9.485-7.689 17.175-17.175 17.175h36c9.486 0 17.175-7.69 17.175-17.175v-146.687c.001-9.486-7.689-17.175-17.175-17.175z" fill="#dbeafd"/><path d="m363.232 196.037h-220.187c-13.606 0-24.675-11.069-24.675-24.676v-146.686c0-13.606 11.069-24.675 24.675-24.675h220.187c13.605 0 24.675 11.069 24.675 24.675v146.687c0 13.606-11.07 24.675-24.675 24.675zm-220.187-181.037c-5.335 0-9.675 4.34-9.675 9.675v146.687c0 5.335 4.34 9.676 9.675 9.676h220.187c5.335 0 9.675-4.341 9.675-9.676v-146.687c0-5.335-4.34-9.675-9.675-9.675z" fill="#506d90"/></g></g></g><g><path d="m154.638 502v-206.731h-120v206.731c0 5.523 4.477 10 10 10h100c5.523 0 10-4.477 10-10z" fill="#d8ab89"/><path d="m124.638 295.269v206.731c0 5.523-4.477 10-10 10h30c5.523 0 10-4.477 10-10v-206.731z" fill="#cf9772"/><g><g><path d="m103.891 340.27h-18.506c-4.142 0-7.5-3.357-7.5-7.5s3.358-7.5 7.5-7.5h18.506c4.142 0 7.5 3.357 7.5 7.5s-3.358 7.5-7.5 7.5z" fill="#cf9772"/></g></g><g><path d="m34.638 370.269h120v75h-120z" fill="#dfb9a0"/><path d="m124.638 370.269h30v75h-30z" fill="#d8ab89"/><g><path d="m103.891 415.27h-18.506c-4.142 0-7.5-3.357-7.5-7.5s3.358-7.5 7.5-7.5h18.506c4.142 0 7.5 3.357 7.5 7.5s-3.358 7.5-7.5 7.5z" fill="#cf9772"/></g></g></g><g><path d="m471.638 502v-206.731h-120v206.731c0 5.523 4.477 10 10 10h100c5.523 0 10-4.477 10-10z" fill="#d8ab89"/><path d="m441.638 295.269v206.731c0 5.523-4.477 10-10 10h30c5.523 0 10-4.477 10-10v-206.731z" fill="#cf9772"/><g><g><path d="m420.891 340.27h-18.506c-4.143 0-7.5-3.357-7.5-7.5s3.357-7.5 7.5-7.5h18.506c4.143 0 7.5 3.357 7.5 7.5s-3.357 7.5-7.5 7.5z" fill="#cf9772"/></g></g><g><path d="m351.638 370.269h120v75h-120z" fill="#dfb9a0"/><path d="m441.638 370.269h30v75h-30z" fill="#d8ab89"/><g><path d="m420.891 415.27h-18.506c-4.143 0-7.5-3.357-7.5-7.5s3.357-7.5 7.5-7.5h18.506c4.143 0 7.5 3.357 7.5 7.5s-3.357 7.5-7.5 7.5z" fill="#cf9772"/></g></g></g><g><g><path d="m464.175 246.213c-1.456 0-2.903-.424-4.151-1.253-2.092-1.391-3.35-3.735-3.35-6.247v-54.426c0-4.143 3.357-7.5 7.5-7.5h30.688c6.893 0 12.5 5.607 12.5 12.5v23.32c0 9.772-5.821 18.534-14.831 22.322l-25.45 10.697c-.934.394-1.922.587-2.906.587zm25.45-18.197h.01zm-17.951-36.229v35.638l15.044-6.323c3.429-1.441 5.644-4.775 5.644-8.494v-20.82h-20.688z" fill="#f0d16f"/></g><path d="m456.638 252.394h-32.188c-8.284 0-15-6.716-15-15v-65.106c0-1.657 1.343-3 3-3h56.188c1.657 0 3 1.343 3 3v65.106c0 8.284-6.716 15-15 15z" fill="#f7e07f"/></g><path d="m491.638 295.269h-477c-5.523 0-10-4.477-10-10v-22.875c0-5.523 4.477-10 10-10h477c5.523 0 10 4.477 10 10v22.875c0 5.523-4.477 10-10 10z" fill="#cf9772"/><path d="m491.638 252.394h-30c5.523 0 10 4.478 10 10v22.875c0 5.523-4.477 10-10 10h30c5.523 0 10-4.477 10-10v-22.875c0-5.523-4.477-10-10-10z" fill="#c88556"/></g></svg>