<svg id="Capa_1" enable-background="new 0 0 510 510" height="512" viewBox="0 0 510 510" width="512" xmlns="http://www.w3.org/2000/svg" xmlns:xlink="http://www.w3.org/1999/xlink"><linearGradient id="lg1"><stop offset="0" stop-color="#537983"/><stop offset="1" stop-color="#3e5959"/></linearGradient><linearGradient id="SVGID_1_" gradientUnits="userSpaceOnUse" x1="69.474" x2="440.526" xlink:href="#lg1" y1="240.081" y2="240.081"/><linearGradient id="lg2"><stop offset="0" stop-color="#537983"/><stop offset="1" stop-color="#384949"/></linearGradient><linearGradient id="SVGID_2_" gradientUnits="userSpaceOnUse" x1="-51.34" x2="436.304" xlink:href="#lg2" y1="240.083" y2="240.083"/><linearGradient id="SVGID_3_" gradientUnits="userSpaceOnUse" x1="1.602" x2="539.627" xlink:href="#lg1" y1="120.668" y2="120.668"/><linearGradient id="SVGID_4_" gradientUnits="userSpaceOnUse" x1="96.776" x2="220.74" xlink:href="#lg2" y1="120.668" y2="120.668"/><linearGradient id="SVGID_5_" gradientUnits="userSpaceOnUse" x1="310" x2="513.027" xlink:href="#lg2" y1="120.668" y2="120.668"/><linearGradient id="lg3"><stop offset="0" stop-color="#ffe177"/><stop offset=".5725" stop-color="#feb137"/><stop offset="1" stop-color="#fe646f"/></linearGradient><linearGradient id="SVGID_6_" gradientUnits="userSpaceOnUse" x1="153.649" x2="221.743" xlink:href="#lg3" y1="216.853" y2="216.853"/><linearGradient id="SVGID_7_" gradientUnits="userSpaceOnUse" x1="148.298" x2="208.113" xlink:href="#lg3" y1="419.888" y2="419.888"/><linearGradient id="SVGID_8_" gradientUnits="userSpaceOnUse" x1="118.5" x2="211.712" xlink:href="#lg3" y1="421.089" y2="421.089"/><linearGradient id="SVGID_9_" gradientUnits="userSpaceOnUse" x1="143.112" x2="220.429" xlink:href="#lg3" y1="357.968" y2="357.968"/><linearGradient id="SVGID_10_" gradientUnits="userSpaceOnUse" x1="111.112" x2="217.432" xlink:href="#lg3" y1="359.669" y2="359.669"/><g><path d="m403.123 360.128h-296.246c-20.657 0-37.403-16.746-37.403-37.403v-202.692h371.053v202.692c-.001 20.658-16.747 37.403-37.404 37.403z" fill="url(#SVGID_1_)"/><path d="m69.47 120.037v69.74h70.358v170.351h33.059v-170.351h191.368c20.023 0 36.255 16.232 36.255 36.255v96.695c0 20.66-16.75 37.4-37.41 37.4h40.03c20.655 0 37.4-16.745 37.4-37.4v-202.69z" fill="url(#SVGID_2_)"/><g><path d="m478.077 164.77h-446.154c-17.631 0-31.923-14.292-31.923-31.922v-24.359c0-17.63 14.292-31.923 31.923-31.923h446.154c17.63 0 31.923 14.292 31.923 31.923v24.359c0 17.63-14.292 31.922-31.923 31.922z" fill="url(#SVGID_3_)"/><path d="m139.828 76.566h29.505v88.204h-29.505z" fill="url(#SVGID_4_)"/><path d="m478.077 76.566h-41.025c17.63 0 31.923 14.292 31.923 31.923v24.359c0 17.63-14.292 31.923-31.923 31.923h41.025c17.63 0 31.923-14.292 31.923-31.923v-24.359c0-17.63-14.292-31.923-31.923-31.923z" fill="url(#SVGID_5_)"/></g><path d="m189.667 75.023v283.66c0 6.904-5.596 12.5-12.5 12.5-6.904 0-12.5-5.596-12.5-12.5v-283.66c0-6.904 5.596-12.5 12.5-12.5 6.903 0 12.5 5.596 12.5 12.5z" fill="url(#SVGID_6_)"/><g><path d="m159.599 399.575c5.39-5.39 12.821-7.999 20.551-7.104 4.418.511 8.641 2.241 12.157 4.966 12.057 9.344 12.867 26.836 2.428 37.274l-9.37 9.37c-4.527 4.528-11.868 4.528-16.395 0l-9.37-9.37c-9.688-9.687-9.688-25.449-.001-35.136z" fill="url(#SVGID_7_)"/><path d="m192.306 397.437c-1.385-1.073-2.883-1.986-4.456-2.737 1.171 3.095 1.816 6.447 1.816 9.952 0 15.543-12.6 28.143-28.143 28.143-1.306 0-2.589-.096-3.848-.269.596.754 1.227 1.489 1.923 2.185l9.37 9.37c4.527 4.527 11.868 4.527 16.395 0l9.37-9.37c10.44-10.438 9.631-27.93-2.427-37.274z" fill="url(#SVGID_8_)"/></g><g><circle cx="177.165" cy="357.968" fill="url(#SVGID_9_)" r="37.053"/><path d="m214.222 357.968c0 20.46-16.59 37.05-37.06 37.05-12.68 0-23.87-6.37-30.54-16.08 1.51.16 3.05.24 4.6.24 23.8 0 43.1-19.3 43.1-43.1 0-4.08-.57-8.03-1.63-11.76 12.71 5.87 21.53 18.731 21.53 33.65z" fill="url(#SVGID_10_)"/></g></g></svg>