<svg id="Capa_1" enable-background="new 0 0 510 510" height="512" viewBox="0 0 510 510" width="512" xmlns="http://www.w3.org/2000/svg" xmlns:xlink="http://www.w3.org/1999/xlink"><linearGradient id="lg1"><stop offset="0" stop-color="#ffe177"/><stop offset=".5725" stop-color="#feb137"/><stop offset="1" stop-color="#fe646f"/></linearGradient><linearGradient id="SVGID_1_" gradientUnits="userSpaceOnUse" x1="89.803" x2="504.539" xlink:href="#lg1" y1="202.419" y2="202.419"/><linearGradient id="lg2"><stop offset="0" stop-color="#537983"/><stop offset="1" stop-color="#3e5959"/></linearGradient><linearGradient id="SVGID_2_" gradientUnits="userSpaceOnUse" x1="45" x2="237.003" xlink:href="#lg2" y1="266.017" y2="266.017"/><linearGradient id="SVGID_3_" gradientUnits="userSpaceOnUse" x1="6.103" x2="438.146" xlink:href="#lg1" y1="202.419" y2="202.419"/><linearGradient id="SVGID_4_" gradientUnits="userSpaceOnUse" x1="162.336" x2="394.973" xlink:href="#lg2" y1="457.419" y2="457.419"/><linearGradient id="SVGID_5_" gradientUnits="userSpaceOnUse" x1="105" x2="342.929" y1="457.419" y2="457.419"><stop offset="0" stop-color="#537983"/><stop offset="1" stop-color="#384949"/></linearGradient><linearGradient id="lg3"><stop offset="0" stop-color="#f9f3f1"/><stop offset=".5725" stop-color="#efe2dd"/><stop offset="1" stop-color="#cdbfba"/></linearGradient><linearGradient id="SVGID_6_" gradientUnits="userSpaceOnUse" x1="143.508" x2="423.414" xlink:href="#lg3" y1="404.838" y2="404.838"/><linearGradient id="SVGID_7_" gradientUnits="userSpaceOnUse" x1="44" x2="380.856" xlink:href="#lg3" y1="404.838" y2="404.838"/><linearGradient id="SVGID_8_" gradientUnits="userSpaceOnUse" x1="2" x2="554.438" xlink:href="#lg1" y1="183.245" y2="183.245"/><linearGradient id="SVGID_10_" gradientUnits="userSpaceOnUse" x1="2" x2="554.438" xlink:href="#lg1" y1="339.808" y2="339.808"/><linearGradient id="SVGID_11_" gradientUnits="userSpaceOnUse" x1="2" x2="554.438" xlink:href="#lg1" y1="26.682" y2="26.682"/><linearGradient id="SVGID_13_" gradientUnits="userSpaceOnUse" x1="2" x2="554.438" xlink:href="#lg1" y1="26.683" y2="26.683"/><g><path d="m431.05 176.05c0-96.539-77.704-174.929-173.98-176.038-96.674-1.114-176.703 76.76-178.101 173.431-.746 51.558 20.676 98.124 55.346 130.78 14.27 13.441 22.124 32.341 22.124 51.944v48.671h197.122v-48.969c0-19.446 7.804-38.189 21.975-51.505 34.172-32.113 55.514-77.721 55.514-128.314z" fill="url(#SVGID_1_)"/><path d="m330.531 254.242c-6.082-6.082-14.48-9.212-23.07-8.577-8.579.632-16.438 4.957-21.564 11.865-3.64 4.905-5.644 10.971-5.644 17.079v1.658l-14.646-14.646 23.225-23.225c18.654-18.655 18.654-49.008 0-67.663-18.656-18.655-49.009-18.655-67.664 0s-18.655 49.008 0 67.663l23.225 23.225-14.646 14.646v-1.658c0-6.108-2.004-12.174-5.644-17.079-5.125-6.908-12.985-11.233-21.564-11.865-8.571-.63-16.987 2.494-23.07 8.577-6.245 6.245-9.685 14.548-9.685 23.379s3.439 17.134 9.685 23.379c6.245 6.245 14.547 9.685 23.379 9.685 4.134 0 8.153-.754 11.899-2.196v59.303c0 4.142 3.358 7.5 7.5 7.5s7.5-3.358 7.5-7.5v-70.312l25.253-25.252 25.253 25.252v70.312c0 4.142 3.357 7.5 7.5 7.5s7.5-3.358 7.5-7.5v-59.303c3.746 1.442 7.765 2.196 11.899 2.196 8.831 0 17.134-3.439 23.378-9.685 6.245-6.245 9.685-14.547 9.685-23.379s-3.44-17.134-9.684-23.379zm-115.784 36.97c-3.294 2.893-7.475 4.472-11.899 4.472-4.825 0-9.361-1.879-12.772-5.291s-5.291-7.948-5.291-12.772 1.879-9.361 5.291-12.773c2.741-2.741 6.442-4.263 10.288-4.263.356 0 .715.013 1.073.04 4.225.312 8.095 2.441 10.62 5.844 1.735 2.338 2.69 5.229 2.69 8.141zm17.028-109.873c6.204-6.204 14.452-9.62 23.225-9.62s17.021 3.417 23.225 9.62c12.807 12.806 12.807 33.644 0 46.45l-23.225 23.226-23.225-23.225c-12.806-12.807-12.806-33.644 0-46.451zm88.149 109.055c-3.411 3.412-7.947 5.291-12.771 5.291-4.424 0-8.605-1.58-11.899-4.472v-16.603c0-2.912.955-5.803 2.69-8.142 2.524-3.402 6.395-5.532 10.62-5.843 4.212-.313 8.365 1.228 11.36 4.224 3.412 3.412 5.291 7.948 5.291 12.773s-1.879 9.36-5.291 12.772z" fill="url(#SVGID_2_)"/><path d="m257.07.012c-7.443-.086-14.787.301-22.005 1.124 87.772 9.968 155.965 84.476 155.965 174.914 0 50.593-21.343 96.201-55.514 128.314-14.171 13.317-21.975 32.06-21.975 51.505v48.969h40.02v-48.969c0-19.446 7.804-38.189 21.975-51.505 34.172-32.113 55.514-77.72 55.514-128.314 0-96.539-77.704-174.929-173.98-176.038z" fill="url(#SVGID_3_)"/><path d="m255 510c-54.539 0-98.751-44.212-98.751-98.751v-6.411h197.503v6.411c-.001 54.539-44.213 98.751-98.752 98.751z" fill="url(#SVGID_4_)"/><path d="m313.731 404.838v6.411c0 47.683-33.796 87.471-78.741 96.721 6.462 1.33 13.154 2.03 20.01 2.03 54.539 0 98.751-44.212 98.751-98.751v-6.411z" fill="url(#SVGID_5_)"/><path d="m344.735 346.676h-179.47c-16.061 0-29.081 13.02-29.081 29.081 0 8.176 3.374 15.564 8.806 20.848 8.033 7.814 11.996 19.055 9.813 30.046-.461 2.323-.735 4.758-.735 7.268 0 16.061 13.02 29.081 29.081 29.081h143.703c16.061 0 29.081-13.02 29.081-29.081 0-2.51-.273-4.945-.735-7.268-2.183-10.992 1.78-22.233 9.813-30.046 5.432-5.283 8.806-12.672 8.806-20.848-.001-16.061-13.021-29.081-29.082-29.081z" fill="url(#SVGID_6_)"/><path d="m373.814 375.381c-.202-16.012-13.663-28.705-29.677-28.705h-39.421c16.061 0 29.081 13.02 29.081 29.081 0 6.163-1.919 11.877-5.189 16.581h-130.859c-6.883 0-12.786 5.384-12.912 12.266-.128 7.011 5.516 12.734 12.498 12.734h106.851c5.412 0 9.937 3.908 10.974 9.22.006.031.012.062.018.093.461 2.323.735 4.758.735 7.268 0 16.061-13.02 29.081-29.081 29.081h39.665c16.053 0 29.358-12.862 29.436-28.914.012-2.568-.263-5.06-.734-7.435-2.183-10.992 1.78-22.233 9.813-30.046 5.513-5.365 8.907-12.899 8.802-21.224z" fill="url(#SVGID_7_)"/><g><g fill="url(#SVGID_8_)"><path d="m499.985 193.26h-47.143c-5.531 0-10.015-4.484-10.015-10.015s4.484-10.015 10.015-10.015h47.143c5.531 0 10.015 4.484 10.015 10.015s-4.484 10.015-10.015 10.015z"/><path d="m57.159 193.26h-47.144c-5.531 0-10.015-4.484-10.015-10.015s4.484-10.015 10.015-10.015h47.144c5.531 0 10.015 4.484 10.015 10.015s-4.484 10.015-10.015 10.015z"/></g><g><path d="m428.231 366.491c-2.563 0-5.126-.978-7.082-2.933l-33.336-33.336c-3.911-3.911-3.911-10.252 0-14.163 3.912-3.91 10.251-3.91 14.163 0l33.336 33.336c3.911 3.911 3.911 10.252 0 14.163-1.956 1.955-4.518 2.933-7.081 2.933z" fill="url(#SVGID_10_)"/><path d="m115.105 53.365c-2.563 0-5.126-.978-7.081-2.933l-33.336-33.336c-3.911-3.911-3.911-10.252 0-14.163s10.252-3.911 14.163 0l33.336 33.335c3.911 3.911 3.911 10.252 0 14.163-1.956 1.956-4.519 2.934-7.082 2.934z" fill="url(#SVGID_11_)"/></g><g><path d="m81.769 366.491c-2.563 0-5.126-.978-7.082-2.933-3.911-3.911-3.911-10.252 0-14.163l33.336-33.336c3.911-3.91 10.252-3.91 14.163 0 3.911 3.911 3.911 10.252 0 14.163l-33.336 33.336c-1.955 1.955-4.518 2.933-7.081 2.933z" fill="url(#SVGID_10_)"/><path d="m394.895 53.365c-2.563 0-5.126-.978-7.082-2.933-3.911-3.911-3.911-10.252 0-14.163l33.336-33.335c3.913-3.911 10.252-3.91 14.163 0 3.911 3.911 3.911 10.252 0 14.163l-33.336 33.335c-1.956 1.955-4.519 2.933-7.081 2.933z" fill="url(#SVGID_13_)"/></g></g></g></svg>