<svg id="Capa_1" enable-background="new 0 0 510.176 510.176" height="512" viewBox="0 0 510.176 510.176" width="512" xmlns="http://www.w3.org/2000/svg" xmlns:xlink="http://www.w3.org/1999/xlink"><linearGradient id="lg1"><stop offset="0" stop-color="#f9f3f1"/><stop offset="1" stop-color="#efe2dd"/></linearGradient><linearGradient id="SVGID_1_" gradientUnits="userSpaceOnUse" x1="39.238" x2="475.272" xlink:href="#lg1" y1="436.33" y2="436.33"/><linearGradient id="lg2"><stop offset="0" stop-color="#f9f3f1"/><stop offset=".5725" stop-color="#efe2dd"/><stop offset="1" stop-color="#cdbfba"/></linearGradient><linearGradient id="SVGID_2_" gradientUnits="userSpaceOnUse" x1="-12.585" x2="409.401" xlink:href="#lg2" y1="436.331" y2="436.331"/><linearGradient id="SVGID_3_" gradientUnits="userSpaceOnUse" x1="88.126" x2="422.049" y1="439.415" y2="439.415"><stop offset="0" stop-color="#537983"/><stop offset="1" stop-color="#3e5959"/></linearGradient><linearGradient id="lg3"><stop offset="0" stop-color="#537983"/><stop offset="1" stop-color="#384949"/></linearGradient><linearGradient id="SVGID_4_" gradientUnits="userSpaceOnUse" x1="104.749" x2="268.848" xlink:href="#lg3" y1="407.665" y2="407.665"/><linearGradient id="SVGID_5_" gradientUnits="userSpaceOnUse" x1="100.749" x2="426.074" xlink:href="#lg3" y1="412.453" y2="412.453"/><linearGradient id="SVGID_6_" gradientUnits="userSpaceOnUse" x1="414.932" x2="421.107" y1="509.788" y2="509.788"><stop offset="0" stop-color="#cdbfba"/><stop offset="1" stop-color="#5b5555"/></linearGradient><linearGradient id="lg4"><stop offset="0" stop-color="#ffdcbd"/><stop offset=".0028" stop-color="#ffdcbd"/><stop offset="1" stop-color="#ffa9b1"/></linearGradient><linearGradient id="SVGID_7_" gradientUnits="userSpaceOnUse" x1="202.125" x2="308.05" xlink:href="#lg4" y1="365.921" y2="365.921"/><linearGradient id="lg5"><stop offset="0" stop-color="#ffc2b5"/><stop offset="1" stop-color="#ff89a8"/></linearGradient><linearGradient id="SVGID_8_" gradientUnits="userSpaceOnUse" x1="202.125" x2="308.05" xlink:href="#lg5" y1="362.094" y2="362.094"/><linearGradient id="SVGID_9_" gradientUnits="userSpaceOnUse" x1="136.759" x2="245.795" xlink:href="#lg1" y1="379.065" y2="379.065"/><linearGradient id="SVGID_10_" gradientUnits="userSpaceOnUse" x1="259.656" x2="348.192" xlink:href="#lg1" y1="379.065" y2="379.065"/><linearGradient id="SVGID_11_" gradientUnits="userSpaceOnUse" x1="160.677" x2="342.472" xlink:href="#lg1" y1="172.803" y2="172.803"/><linearGradient id="SVGID_12_" gradientUnits="userSpaceOnUse" x1="125.963" x2="384.202" xlink:href="#lg4" y1="147.792" y2="147.792"/><linearGradient id="SVGID_13_" gradientUnits="userSpaceOnUse" x1="216.174" x2="436.847" xlink:href="#lg5" y1="147.792" y2="147.792"/><linearGradient id="lg6"><stop offset="0" stop-color="#bfbfbf"/><stop offset=".7584" stop-color="#5a5a5a"/><stop offset="1" stop-color="#444"/></linearGradient><linearGradient id="SVGID_14_" gradientUnits="userSpaceOnUse" x1="145.082" x2="230.088" xlink:href="#lg6" y1="164.91" y2="164.91"/><linearGradient id="SVGID_15_" gradientUnits="userSpaceOnUse" x1="258.749" x2="341.149" xlink:href="#lg6" y1="164.91" y2="164.91"/><linearGradient id="SVGID_16_" gradientUnits="userSpaceOnUse" x1="156.686" x2="345.18" y1="283.161" y2="283.161"><stop offset="0" stop-color="#fff"/><stop offset="1" stop-color="#f9f3f1"/></linearGradient><linearGradient id="SVGID_17_" gradientUnits="userSpaceOnUse" x1="288.082" x2="410.075" xlink:href="#lg1" y1="283.162" y2="283.162"/><linearGradient id="SVGID_18_" gradientUnits="userSpaceOnUse" x1="196.082" x2="269.564" y1="245.083" y2="245.083"><stop offset="0" stop-color="#ffc2b5"/><stop offset=".2441" stop-color="#ffbbb3"/><stop offset=".6097" stop-color="#ffa6af"/><stop offset="1" stop-color="#ff89a8"/></linearGradient><linearGradient id="SVGID_19_" gradientUnits="userSpaceOnUse" x1="132.082" x2="268.456" xlink:href="#lg2" y1="364.661" y2="364.661"/><linearGradient id="SVGID_20_" gradientUnits="userSpaceOnUse" x1="214.082" x2="348.671" xlink:href="#lg2" y1="364.656" y2="364.656"/><g><g><g><path d="m315.265 362.488h-120.355c-44.675 0-85.101 18.107-114.374 47.38-21.566 21.566-37.068 49.184-43.737 80.096-.249 1.155-.365 2.336-.365 3.518 0 9.218 7.473 16.69 16.69 16.69h403.926c9.218 0 16.69-7.473 16.69-16.69v-.009c0-1.176-.116-2.351-.363-3.5-15.714-72.872-80.528-127.485-158.112-127.485z" fill="url(#SVGID_1_)"/><path d="m473.742 493.476v.01c0 9.21-7.47 16.69-16.69 16.69h-40.02c9.22 0 16.69-7.48 16.69-16.69v-.01c0-1.18-.12-2.35-.36-3.5-8.25-38.24-30.01-71.45-60.05-94.38-.23 2.31-.84 4.63-1.89 6.88l-15 32.21c-4.16 8.93-15.93 11.01-22.89 4.04l-12.19-12.18c-2.66-2.67-6.27-4.16-10.03-4.16h-112.45c-3.76 0-7.37 1.49-10.03 4.16l-12.19 12.18c-6.96 6.97-18.73 4.89-22.89-4.04l-15-32.21c-5.36-11.49.52-25.08 12.57-29.05 11.55-3.79 29.05-9.97 45.29-10.94h118.65c1.73 0 3.45.03 5.16.08 75.29 2.36 137.59 56.16 152.96 127.41.24 1.15.36 2.32.36 3.5z" fill="url(#SVGID_2_)"/><path d="m246.137 464.281-95.623-95.623c-23.394 6.663-44.616 18.467-62.389 34.103v107.41h333.923v-107.411c-17.773-15.635-38.999-27.433-62.395-34.095l-95.617 95.617c-4.942 4.942-12.956 4.942-17.899-.001z" fill="url(#SVGID_3_)"/><g><path d="m153.752 434.686c4.16 8.93 15.93 11.01 22.89 4.04l12.19-12.18c2.66-2.67 6.27-4.16 10.03-4.16h5.38l-49.943-49.943c-1.026.339-2.028.671-2.977.983-12.05 3.97-17.93 17.56-12.57 29.05z" fill="url(#SVGID_4_)"/><path d="m305.932 422.386h5.38c3.76 0 7.37 1.49 10.03 4.16l12.19 12.18c6.96 6.97 18.73 4.89 22.89-4.04l15-32.21c1.05-2.25 1.66-4.57 1.89-6.88 20.792 15.87 37.612 36.668 48.737 60.646v-53.482c-17.772-15.635-38.999-27.433-62.395-34.095z" fill="url(#SVGID_5_)"/><path d="m422.049 509.405c-1.557.491-3.213.757-4.931.766h4.931z" fill="url(#SVGID_6_)"/></g><path d="m255.087 397.374c-29.25 0-52.962-23.712-52.962-52.962v-9.944h105.925v9.944c-.001 29.25-23.713 52.962-52.963 52.962z" fill="url(#SVGID_7_)"/><path d="m202.125 344.412c0 11.697 3.8 22.502 10.221 31.266 14.45 8.593 29.347 14.043 42.736 14.043 13.394 0 28.298-5.455 42.754-14.054 6.417-8.762 10.214-19.563 10.214-31.255v-9.945h-105.925z" fill="url(#SVGID_8_)"/><g><path d="m197.971 340.258 57.116 57.116h-56.223c-3.764 0-7.373 1.495-10.034 4.156l-12.183 12.183c-6.966 6.966-18.738 4.888-22.898-4.042l-15-32.203c-5.355-11.496.522-25.087 12.569-29.049 12.578-4.136 29.282-8.161 46.653-8.161z" fill="url(#SVGID_9_)"/><path d="m312.203 340.258-57.116 57.116h56.223c3.764 0 7.373 1.495 10.034 4.156l12.183 12.183c6.966 6.966 18.738 4.888 22.898-4.042l15-32.203c5.355-11.496-.522-25.087-12.569-29.049-12.578-4.136-29.281-8.161-46.653-8.161z" fill="url(#SVGID_10_)"/></g></g></g><g><path d="m280.093 25.011c-8.558 0-41.464 0-50.022 0-71.311 0-129.119 16.954-129.119 88.264v78.2c0 71.311 57.809 129.119 129.119 129.119h50.022c71.311 0 129.119-57.809 129.119-129.119v-78.2c.001-71.31-57.808-88.264-129.119-88.264z" fill="url(#SVGID_11_)"/><path d="m255.082 295.584c-71.311 0-129.12-57.809-129.12-129.119v-37.345c0-71.311 57.809-129.12 129.12-129.12 71.311 0 129.119 57.809 129.119 129.119v37.345c.001 71.311-57.808 129.12-129.119 129.12z" fill="url(#SVGID_12_)"/><path d="m255.082 0c-6.806 0-13.488.53-20.01 1.545 61.808 9.617 109.109 63.07 109.109 127.574v37.345c0 64.505-47.302 117.958-109.109 127.574 6.522 1.015 13.204 1.545 20.01 1.545 71.311 0 129.119-57.809 129.119-129.119v-37.345c.001-71.31-57.808-129.119-129.119-129.119z" fill="url(#SVGID_13_)"/><g><path d="m198.716 182.027c-14.741 0-26.734-11.993-26.734-26.733 0-4.142 3.358-7.5 7.5-7.5s7.5 3.358 7.5 7.5c0 6.47 5.264 11.733 11.734 11.733s11.733-5.264 11.733-11.733c0-4.142 3.358-7.5 7.5-7.5s7.5 3.358 7.5 7.5c0 14.74-11.992 26.733-26.733 26.733z" fill="url(#SVGID_14_)"/><path d="m311.448 182.027c-14.741 0-26.733-11.993-26.733-26.733 0-4.142 3.358-7.5 7.5-7.5s7.5 3.358 7.5 7.5c0 6.47 5.264 11.733 11.733 11.733 6.47 0 11.734-5.264 11.734-11.733 0-4.142 3.358-7.5 7.5-7.5s7.5 3.358 7.5 7.5c0 14.74-11.993 26.733-26.734 26.733z" fill="url(#SVGID_15_)"/></g><path d="m307.414 201.656c-13.343-.488-25.789 3.234-36.117 9.942-9.816 6.375-22.613 6.375-32.429 0-10.329-6.708-22.775-10.43-36.118-9.942-32.82 1.201-59.28 28.254-59.798 61.092-.549 34.777 65.102 101.962 112.13 101.962s112.678-67.185 112.13-101.962c-.518-32.839-26.978-59.891-59.798-61.092z" fill="url(#SVGID_16_)"/><path d="m307.414 201.656c-7.848-.287-15.382.892-22.361 3.269 24.17 8.279 41.718 31.141 42.139 57.822.474 30.047-48.467 84.278-92.12 98.476 6.872 2.235 13.614 3.486 20.01 3.486 47.028 0 112.678-67.185 112.13-101.962-.518-32.838-26.978-59.89-59.798-61.091z" fill="url(#SVGID_17_)"/><path d="m255.082 262.228c-16.543 0-32.568-7.74-45.121-21.794-2.76-3.089-2.492-7.83.597-10.589 3.088-2.759 7.83-2.493 10.589.597 9.81 10.981 21.544 16.786 33.935 16.786s24.125-5.805 33.935-16.786c2.759-3.09 7.501-3.356 10.589-.597 3.089 2.759 3.357 7.5.597 10.589-12.553 14.054-28.578 21.794-45.121 21.794z" fill="url(#SVGID_18_)"/></g><g><path d="m172.402 342.876c20.84 22.58 49.4 42.41 74.38 46.19l-48.81-48.81c-8.85 0-17.52 1.05-25.57 2.62z" fill="url(#SVGID_19_)"/><path d="m312.202 340.256-48.79 48.8c24.97-3.79 53.52-23.61 74.35-46.18-8.04-1.57-16.71-2.62-25.56-2.62z" fill="url(#SVGID_20_)"/></g></g></svg>