<svg id="Capa_1" enable-background="new 0 0 510.171 510.171" height="512" viewBox="0 0 510.171 510.171" width="512" xmlns="http://www.w3.org/2000/svg" xmlns:xlink="http://www.w3.org/1999/xlink"><linearGradient id="lg1"><stop offset="0" stop-color="#fe646f"/><stop offset=".5725" stop-color="#fb2b3a"/><stop offset="1" stop-color="#c41926"/></linearGradient><linearGradient id="SVGID_1_" gradientUnits="userSpaceOnUse" x1="89.086" x2="495.185" xlink:href="#lg1" y1="265.752" y2="265.752"/><linearGradient id="SVGID_2_" gradientUnits="userSpaceOnUse" x1="-91.914" x2="338.18" xlink:href="#lg1" y1="265.752" y2="265.752"/><linearGradient id="lg2"><stop offset="0" stop-color="#537983"/><stop offset="1" stop-color="#3e5959"/></linearGradient><linearGradient id="SVGID_3_" gradientUnits="userSpaceOnUse" x1="88.333" x2="425.173" xlink:href="#lg2" y1="450.671" y2="450.671"/><linearGradient id="lg3"><stop offset="0" stop-color="#537983"/><stop offset="1" stop-color="#384949"/></linearGradient><linearGradient id="SVGID_4_" gradientUnits="userSpaceOnUse" x1="75.586" x2="408.703" xlink:href="#lg3" y1="450.671" y2="450.671"/><linearGradient id="lg4"><stop offset="0" stop-color="#ffdcbd"/><stop offset=".0028" stop-color="#ffdcbd"/><stop offset="1" stop-color="#ffa9b1"/></linearGradient><linearGradient id="SVGID_5_" gradientUnits="userSpaceOnUse" x1="211.836" x2="298.336" xlink:href="#lg4" y1="433.77" y2="433.77"/><linearGradient id="lg5"><stop offset="0" stop-color="#ffc2b5"/><stop offset="1" stop-color="#ff89a8"/></linearGradient><linearGradient id="SVGID_6_" gradientUnits="userSpaceOnUse" x1="211.836" x2="298.336" xlink:href="#lg5" y1="404.087" y2="404.087"/><linearGradient id="SVGID_7_" gradientUnits="userSpaceOnUse" x1="125.966" x2="384.205" xlink:href="#lg4" y1="251.375" y2="251.375"/><linearGradient id="SVGID_8_" gradientUnits="userSpaceOnUse" x1="230.752" x2="442.691" xlink:href="#lg5" y1="251.374" y2="251.374"/><linearGradient id="lg6"><stop offset="0" stop-color="#bfbfbf"/><stop offset=".7584" stop-color="#5a5a5a"/><stop offset="1" stop-color="#444"/></linearGradient><linearGradient id="SVGID_9_" gradientUnits="userSpaceOnUse" x1="145.086" x2="230.092" xlink:href="#lg6" y1="268.492" y2="268.492"/><linearGradient id="SVGID_10_" gradientUnits="userSpaceOnUse" x1="258.752" x2="341.153" xlink:href="#lg6" y1="268.492" y2="268.492"/><linearGradient id="SVGID_11_" gradientUnits="userSpaceOnUse" x1="196.086" x2="269.567" y1="348.666" y2="348.666"><stop offset="0" stop-color="#ffc2b5"/><stop offset=".2441" stop-color="#ffbbb3"/><stop offset=".6097" stop-color="#ffa6af"/><stop offset="1" stop-color="#ff89a8"/></linearGradient><linearGradient id="SVGID_12_" gradientUnits="userSpaceOnUse" x1="89.086" x2="495.185" xlink:href="#lg1" y1="161.813" y2="161.813"/><linearGradient id="SVGID_13_" gradientUnits="userSpaceOnUse" x1="-91.914" x2="338.18" xlink:href="#lg1" y1="158.781" y2="158.781"/><linearGradient id="SVGID_14_" gradientUnits="userSpaceOnUse" x1="135.194" x2="379.419" xlink:href="#lg2" y1="100.1" y2="100.1"/><linearGradient id="SVGID_15_" gradientUnits="userSpaceOnUse" x1="77.086" x2="450.449" xlink:href="#lg3" y1="100.101" y2="100.101"/><linearGradient id="lg7"><stop offset="0" stop-color="#ffe177"/><stop offset=".5725" stop-color="#feb137"/><stop offset="1" stop-color="#fe646f"/></linearGradient><linearGradient id="SVGID_16_" gradientUnits="userSpaceOnUse" x1="71.443" x2="139.537" xlink:href="#lg7" y1="62.435" y2="62.435"/><linearGradient id="SVGID_17_" gradientUnits="userSpaceOnUse" x1="66.091" x2="125.907" xlink:href="#lg7" y1="117.759" y2="117.759"/><linearGradient id="SVGID_18_" gradientUnits="userSpaceOnUse" x1="36.294" x2="129.506" xlink:href="#lg7" y1="118.96" y2="118.96"/><linearGradient id="SVGID_19_" gradientUnits="userSpaceOnUse" x1="89.334" x2="422.969" xlink:href="#lg2" y1="26.092" y2="26.092"/><linearGradient id="SVGID_20_" gradientUnits="userSpaceOnUse" x1="238.819" x2="444.114" xlink:href="#lg3" y1="26.092" y2="26.092"/><g><path d="m415.759 300.923c-9.073-6.559-14.412-17.001-14.397-28.197 0-.066 0-.132 0-.199v-42.307c0-80.786-65.49-146.276-146.276-146.276-80.786 0-146.276 65.49-146.276 146.276v42.307.199c.015 11.195-5.324 21.638-14.397 28.197-20.91 15.117-34.314 39.974-33.553 67.921 1.17 42.945 36.271 77.805 79.223 78.697 14.802.307 28.721-3.36 40.767-10.006 22.587-12.462 47.959-18.815 73.756-18.732.16.001.32.001.481.001.16 0 .32 0 .481-.001 25.797-.083 51.169 6.27 73.756 18.732 12.046 6.646 25.965 10.313 40.767 10.006 42.951-.892 78.053-35.753 79.223-78.697.759-27.946-12.645-52.804-33.555-67.921z" fill="url(#SVGID_1_)"/><g><path d="m415.759 300.923c-9.073-6.559-14.412-17.001-14.397-28.197 0-.066 0-.132 0-.199v-42.307c0-80.786-65.49-146.276-146.276-146.276-6.789 0-13.467.473-20.01 1.368 71.317 9.758 126.266 70.911 126.266 144.908v42.307.199c-.015 11.195 5.324 21.638 14.397 28.197 20.91 15.117 34.314 39.974 33.553 67.921-.999 36.678-26.757 67.44-61.01 76.198 6.953 1.776 14.264 2.656 21.807 2.5 42.951-.892 78.053-35.753 79.223-78.697.761-27.947-12.643-52.805-33.553-67.922z" fill="url(#SVGID_2_)"/></g><path d="m402.492 510.171h-294.813c-14.967 0-25.394-14.949-20.131-28.96 6.553-17.445 15.929-33.164 27.467-46.407 23.49-26.958 55.93-43.634 91.78-43.634h96.58c53.43 0 99.312 37.043 119.22 89.967 5.282 14.04-5.103 29.034-20.103 29.034z" fill="url(#SVGID_3_)"/><path d="m422.624 481.211c-15.732-41.883-47.728-73.832-86.862-85.366-.388-.114-.804-.22-1.239-.32-9.981-2.824-20.406-4.354-31.147-4.354h-96.58c-11.19 0-22.047 1.625-32.404 4.68 22.105 17.72 50.159 28.326 80.694 28.326 15.544 0 30.446-2.749 44.246-7.786 16.845-6.148 35.706-1.951 48.485 10.628 14.901 14.667 26.87 33.146 34.759 54.118 5.281 14.04-5.104 29.033-20.105 29.033h40.02c14.968.001 25.395-14.948 20.133-28.959z" fill="url(#SVGID_4_)"/><path d="m285.055 454.957-20.241 24.058c-5.08 6.038-14.377 6.038-19.457 0l-20.241-24.058c-8.578-10.195-13.281-23.091-13.281-36.415v-34.546h86.5v34.546c.001 13.324-4.703 26.22-13.28 36.415z" fill="url(#SVGID_5_)"/><path d="m211.836 416.746c13.522 4.806 28.079 7.431 43.25 7.431 15.171 0 29.727-2.625 43.25-7.431v-32.75h-86.5z" fill="url(#SVGID_6_)"/><path d="m255.086 399.166c-71.311 0-129.12-57.809-129.12-129.119v-37.345c0-71.311 57.809-129.119 129.119-129.119 71.311 0 129.119 57.809 129.119 129.119v37.345c.001 71.311-57.808 129.119-129.118 129.119z" fill="url(#SVGID_7_)"/><path d="m375.673 186.448s-.011-.008-.013-.01c-3.389-8.845-7.727-17.22-12.885-24.997-4.79-7.22-10.29-13.94-16.39-20.04-23.36-23.37-55.64-37.82-91.3-37.82-44.97 0-84.57 22.99-107.69 57.86-5.16 7.78-9.5 16.16-12.89 25.01h163.375c25.362 0 46.209 20.4 46.303 45.762.001.163.001.326.001.489v37.345c0 64.504-47.302 117.958-109.109 127.574 6.522 1.015 13.204 1.545 20.01 1.545 71.311 0 129.119-57.809 129.119-129.119v-37.345c.001-16.3-3.019-31.895-8.531-46.254z" fill="url(#SVGID_8_)"/><g><path d="m198.719 285.609c-14.741 0-26.734-11.993-26.734-26.733 0-4.142 3.358-7.5 7.5-7.5s7.5 3.358 7.5 7.5c0 6.47 5.264 11.733 11.734 11.733s11.733-5.264 11.733-11.733c0-4.142 3.358-7.5 7.5-7.5s7.5 3.358 7.5 7.5c.001 14.74-11.992 26.733-26.733 26.733z" fill="url(#SVGID_9_)"/><path d="m311.452 285.609c-14.741 0-26.733-11.993-26.733-26.733 0-4.142 3.358-7.5 7.5-7.5s7.5 3.358 7.5 7.5c0 6.47 5.264 11.733 11.733 11.733 6.47 0 11.734-5.264 11.734-11.733 0-4.142 3.358-7.5 7.5-7.5s7.5 3.358 7.5 7.5c0 14.74-11.993 26.733-26.734 26.733z" fill="url(#SVGID_10_)"/></g><path d="m255.086 365.811c-16.543 0-32.568-7.74-45.121-21.794-2.76-3.089-2.492-7.83.597-10.589 3.088-2.759 7.83-2.493 10.589.597 9.81 10.981 21.544 16.786 33.935 16.786s24.125-5.805 33.935-16.786c2.759-3.09 7.501-3.356 10.589-.597 3.089 2.759 3.357 7.5.597 10.589-12.553 14.054-28.578 21.794-45.121 21.794z" fill="url(#SVGID_11_)"/><path d="m401.362 233.625v-3.404c0-80.786-65.49-146.276-146.276-146.276-79.49 0-144.17 63.407-146.224 142.401 19.296 8.566 40.652 13.334 63.124 13.334 58.621 0 109.667-32.394 136.24-80.252 19.793 35.648 53.169 62.705 93.136 74.197z" fill="url(#SVGID_12_)"/><path d="m401.366 230.221v3.4c-29.11-8.37-54.72-24.99-74.12-47.17-7.26-8.28-13.64-17.33-19.02-27.02-5.38 9.69-11.76 18.74-19 27.02h-173.75c7.32-23.38 20.35-44.23 37.46-60.93 26.36-25.73 62.41-41.58 102.15-41.58 65.52 0 120.98 43.07 139.6 102.45 0 .02 0 .04.01.06 4.34 13.82 6.67 28.52 6.67 43.77z" fill="url(#SVGID_13_)"/><path d="m371.597 38.759h-233.022c-6.963 0-12.608 5.645-12.608 12.608v97.465c0 6.963 5.645 12.608 12.608 12.608h233.022c6.963 0 12.608-5.645 12.608-12.608v-97.464c0-6.964-5.645-12.609-12.608-12.609z" fill="url(#SVGID_14_)"/><path d="m384.206 51.371v97.46c0 6.964-5.646 12.61-12.61 12.61h-40.02c6.96 0 12.61-5.65 12.61-12.61v-43.104c0-15.76-12.776-28.536-28.536-28.536h-189.684v-25.82c0-6.97 5.65-12.61 12.61-12.61h233.02c6.96 0 12.61 5.64 12.61 12.61z" fill="url(#SVGID_15_)"/><g><path d="m107.461 29.561v65.747c0 6.904-5.596 12.5-12.5 12.5-6.904 0-12.5-5.596-12.5-12.5v-65.747c0-6.904 5.596-12.5 12.5-12.5 6.903 0 12.5 5.596 12.5 12.5z" fill="url(#SVGID_16_)"/><g><path d="m77.393 97.446c5.39-5.39 12.821-7.999 20.551-7.104 4.418.511 8.641 2.241 12.157 4.966 12.057 9.344 12.867 26.836 2.428 37.274l-9.37 9.37c-4.527 4.528-11.868 4.528-16.395 0l-9.37-9.37c-9.688-9.687-9.688-25.449-.001-35.136z" fill="url(#SVGID_17_)"/><path d="m110.1 95.308c-1.385-1.073-2.883-1.986-4.456-2.737 1.171 3.095 1.816 6.447 1.816 9.952 0 15.543-12.6 28.143-28.143 28.143-1.306 0-2.589-.096-3.848-.269.596.754 1.227 1.489 1.923 2.185l9.37 9.37c4.527 4.527 11.868 4.527 16.395 0l9.37-9.37c10.44-10.438 9.63-27.93-2.427-37.274z" fill="url(#SVGID_18_)"/></g></g><g><path d="m419.246 52.184h-328.32c-14.41 0-26.092-11.682-26.092-26.092 0-14.41 11.682-26.092 26.092-26.092h328.32c14.41 0 26.092 11.682 26.092 26.092 0 14.41-11.682 26.092-26.092 26.092z" fill="url(#SVGID_19_)"/><path d="m419.246 0h-40.02c14.41 0 26.092 11.682 26.092 26.092 0 14.41-11.682 26.092-26.092 26.092h40.02c14.41 0 26.092-11.682 26.092-26.092 0-14.41-11.682-26.092-26.092-26.092z" fill="url(#SVGID_20_)"/></g></g></svg>