<svg id="Capa_1" enable-background="new 0 0 510 510" height="512" viewBox="0 0 510 510" width="512" xmlns="http://www.w3.org/2000/svg" xmlns:xlink="http://www.w3.org/1999/xlink"><linearGradient id="lg1"><stop offset="0" stop-color="#ffe177"/><stop offset=".5725" stop-color="#feb137"/><stop offset="1" stop-color="#fe646f"/></linearGradient><linearGradient id="SVGID_1_" gradientUnits="userSpaceOnUse" x1="-23.999" x2="273.106" xlink:href="#lg1" y1="388.567" y2="388.567"/><linearGradient id="SVGID_2_" gradientUnits="userSpaceOnUse" x1="-91.392" x2="260.787" xlink:href="#lg1" y1="388.567" y2="388.567"/><linearGradient id="SVGID_3_" gradientUnits="userSpaceOnUse" x1="-40" x2="193.452" xlink:href="#lg1" y1="388.567" y2="388.567"/><linearGradient id="lg2"><stop offset="0" stop-color="#537983"/><stop offset="1" stop-color="#3e5959"/></linearGradient><linearGradient id="SVGID_4_" gradientUnits="userSpaceOnUse" x1="61.786" x2="180.054" xlink:href="#lg2" y1="388.567" y2="388.567"/><linearGradient id="SVGID_5_" gradientUnits="userSpaceOnUse" x1="-23.999" x2="273.106" xlink:href="#lg1" y1="121.433" y2="121.433"/><linearGradient id="SVGID_6_" gradientUnits="userSpaceOnUse" x1="-91.392" x2="260.787" xlink:href="#lg1" y1="121.433" y2="121.433"/><linearGradient id="SVGID_7_" gradientUnits="userSpaceOnUse" x1="-16" x2="143.022" xlink:href="#lg1" y1="121.433" y2="121.433"/><linearGradient id="SVGID_8_" gradientUnits="userSpaceOnUse" x1="44.541" x2="197.3" xlink:href="#lg2" y1="121.433" y2="121.433"/><linearGradient id="SVGID_9_" gradientUnits="userSpaceOnUse" x1="244.161" x2="541.265" xlink:href="#lg1" y1="121.433" y2="121.433"/><linearGradient id="SVGID_10_" gradientUnits="userSpaceOnUse" x1="176.767" x2="528.946" xlink:href="#lg1" y1="121.433" y2="121.433"/><linearGradient id="SVGID_11_" gradientUnits="userSpaceOnUse" x1="242" x2="420.908" xlink:href="#lg1" y1="121.434" y2="121.434"/><linearGradient id="SVGID_12_" gradientUnits="userSpaceOnUse" x1="242" x2="420.908" xlink:href="#lg1" y1="62.554" y2="62.554"/><linearGradient id="SVGID_13_" gradientUnits="userSpaceOnUse" x1="242" x2="420.908" xlink:href="#lg1" y1="180.313" y2="180.313"/><linearGradient id="SVGID_14_" gradientUnits="userSpaceOnUse" x1="312.7" x2="465.459" xlink:href="#lg2" y1="121.434" y2="121.434"/><linearGradient id="SVGID_15_" gradientUnits="userSpaceOnUse" x1="370.08" x2="408.08" xlink:href="#lg2" y1="62.554" y2="62.554"/><linearGradient id="SVGID_16_" gradientUnits="userSpaceOnUse" x1="370.08" x2="408.08" xlink:href="#lg2" y1="180.313" y2="180.313"/><linearGradient id="lg3"><stop offset="0" stop-color="#7acaa6"/><stop offset=".5725" stop-color="#09a76d"/><stop offset="1" stop-color="#026841"/></linearGradient><linearGradient id="SVGID_17_" gradientUnits="userSpaceOnUse" x1="268.16" x2="529.595" xlink:href="#lg3" y1="388.567" y2="388.567"/><linearGradient id="SVGID_18_" gradientUnits="userSpaceOnUse" x1="240.091" x2="504.351" xlink:href="#lg3" y1="388.567" y2="388.567"/><linearGradient id="SVGID_19_" gradientUnits="userSpaceOnUse" x1="242" x2="412.658" xlink:href="#lg3" y1="355.033" y2="355.033"/><linearGradient id="SVGID_20_" gradientUnits="userSpaceOnUse" x1="242" x2="412.658" xlink:href="#lg3" y1="422.101" y2="422.101"/><linearGradient id="lg4"><stop offset="0" stop-color="#f9f3f1"/><stop offset=".5725" stop-color="#efe2dd"/><stop offset="1" stop-color="#cdbfba"/></linearGradient><linearGradient id="SVGID_21_" gradientUnits="userSpaceOnUse" x1="312.7" x2="465.459" xlink:href="#lg4" y1="355.033" y2="355.033"/><linearGradient id="SVGID_22_" gradientUnits="userSpaceOnUse" x1="312.7" x2="465.459" xlink:href="#lg4" y1="422.101" y2="422.101"/><g><g><g><path d="m196.706 509.487h-151.572c-24.927 0-45.134-20.207-45.134-45.134v-151.572c0-24.927 20.207-45.134 45.134-45.134h151.572c24.927 0 45.134 20.207 45.134 45.134v151.572c.001 24.927-20.207 45.134-45.134 45.134z" fill="url(#SVGID_1_)"/><path d="m196.706 267.646h-40.02c24.927 0 45.134 20.207 45.134 45.134v151.572c0 24.927-20.207 45.134-45.134 45.134h40.02c24.927 0 45.134-20.207 45.134-45.134v-151.571c.001-24.927-20.207-45.135-45.134-45.135z" fill="url(#SVGID_2_)"/></g><path d="m124.669 388.567 29.26-29.26c6.834-6.834 6.834-17.914 0-24.748-6.835-6.834-17.915-6.834-24.749 0l-29.26 29.26-29.26-29.26c-6.835-6.835-17.915-6.835-24.749 0-6.834 6.834-6.834 17.914 0 24.748l29.26 29.26-29.26 29.26c-6.834 6.834-6.834 17.914 0 24.748 3.417 3.417 7.896 5.126 12.375 5.126s8.958-1.709 12.375-5.126l29.26-29.26 29.26 29.26c3.417 3.418 7.896 5.126 12.375 5.126 4.478 0 8.958-1.709 12.375-5.126 6.834-6.834 6.834-17.914 0-24.748z" fill="url(#SVGID_3_)"/><path d="m145.669 388.567 29.26-29.26c6.834-6.834 6.834-17.914 0-24.748-6.835-6.834-17.915-6.834-24.749 0l-29.26 29.26-29.26-29.26c-6.835-6.835-17.915-6.835-24.749 0-6.834 6.834-6.834 17.914 0 24.748l29.26 29.26-29.26 29.26c-6.834 6.834-6.834 17.914 0 24.748 3.417 3.417 7.896 5.126 12.375 5.126s8.958-1.709 12.375-5.126l29.26-29.26 29.26 29.26c3.417 3.418 7.896 5.126 12.375 5.126 4.478 0 8.958-1.709 12.375-5.126 6.834-6.834 6.834-17.914 0-24.748z" fill="url(#SVGID_4_)"/></g><g><g><path d="m196.706 242.354h-151.572c-24.927 0-45.134-20.208-45.134-45.135v-151.572c0-24.927 20.207-45.134 45.134-45.134h151.572c24.927 0 45.134 20.207 45.134 45.134v151.572c.001 24.927-20.207 45.135-45.134 45.135z" fill="url(#SVGID_5_)"/><path d="m196.706.513h-40.02c24.927 0 45.134 20.207 45.134 45.134v151.572c0 24.927-20.207 45.134-45.134 45.134h40.02c24.927 0 45.134-20.207 45.134-45.134v-151.572c.001-24.927-20.207-45.134-45.134-45.134z" fill="url(#SVGID_6_)"/></g><path d="m158.8 103.934h-41.38v-41.38c0-9.665-7.835-17.5-17.5-17.5s-17.5 7.835-17.5 17.5v41.38h-41.38c-9.665 0-17.5 7.835-17.5 17.5s7.835 17.5 17.5 17.5h41.38v41.379c0 9.665 7.835 17.5 17.5 17.5s17.5-7.835 17.5-17.5v-41.379h41.38c9.665 0 17.5-7.835 17.5-17.5s-7.835-17.5-17.5-17.5z" fill="url(#SVGID_7_)"/><path d="m179.8 103.934h-41.38v-41.38c0-9.665-7.835-17.5-17.5-17.5s-17.5 7.835-17.5 17.5v41.38h-41.38c-9.665 0-17.5 7.835-17.5 17.5s7.835 17.5 17.5 17.5h41.38v41.379c0 9.665 7.835 17.5 17.5 17.5s17.5-7.835 17.5-17.5v-41.379h41.38c9.665 0 17.5-7.835 17.5-17.5s-7.835-17.5-17.5-17.5z" fill="url(#SVGID_8_)"/></g><g><g><path d="m464.866 242.354h-151.572c-24.927 0-45.134-20.207-45.134-45.134v-151.573c0-24.927 20.207-45.134 45.134-45.134h151.572c24.927 0 45.134 20.207 45.134 45.134v151.572c0 24.927-20.207 45.135-45.134 45.135z" fill="url(#SVGID_9_)"/><path d="m464.866.513h-40.02c24.927 0 45.134 20.207 45.134 45.134v151.572c0 24.927-20.207 45.134-45.134 45.134h40.02c24.927 0 45.134-20.207 45.134-45.134v-151.572c0-24.927-20.207-45.134-45.134-45.134z" fill="url(#SVGID_10_)"/></g><g><path d="m426.959 103.934h-117.759c-9.665 0-17.5 7.835-17.5 17.5s7.835 17.5 17.5 17.5h117.759c9.665 0 17.5-7.835 17.5-17.5s-7.835-17.5-17.5-17.5z" fill="url(#SVGID_11_)"/><circle cx="368.08" cy="62.554" fill="url(#SVGID_12_)" r="19"/><circle cx="368.08" cy="180.313" fill="url(#SVGID_13_)" r="19"/></g><g><path d="m447.959 103.934h-117.759c-9.665 0-17.5 7.835-17.5 17.5s7.835 17.5 17.5 17.5h117.759c9.665 0 17.5-7.835 17.5-17.5s-7.835-17.5-17.5-17.5z" fill="url(#SVGID_14_)"/><circle cx="389.08" cy="62.554" fill="url(#SVGID_15_)" r="19"/><circle cx="389.08" cy="180.313" fill="url(#SVGID_16_)" r="19"/></g></g><g><g><path d="m464.866 509.487h-151.572c-24.927 0-45.134-20.207-45.134-45.134v-151.572c0-24.927 20.207-45.134 45.134-45.134h151.572c24.927 0 45.134 20.207 45.134 45.134v151.572c0 24.927-20.207 45.134-45.134 45.134z" fill="url(#SVGID_17_)"/><path d="m464.866 267.647h-40.02c24.927 0 45.134 20.207 45.134 45.134v151.572c0 24.927-20.207 45.134-45.134 45.134h40.02c24.927 0 45.134-20.207 45.134-45.134v-151.572c0-24.927-20.207-45.134-45.134-45.134z" fill="url(#SVGID_18_)"/></g><g><path d="m309.2 372.533h117.759c9.665 0 17.5-7.835 17.5-17.5s-7.835-17.5-17.5-17.5h-117.759c-9.665 0-17.5 7.835-17.5 17.5s7.835 17.5 17.5 17.5z" fill="url(#SVGID_19_)"/><path d="m426.959 404.601h-117.759c-9.665 0-17.5 7.835-17.5 17.5s7.835 17.5 17.5 17.5h117.759c9.665 0 17.5-7.835 17.5-17.5s-7.835-17.5-17.5-17.5z" fill="url(#SVGID_20_)"/></g><g><path d="m330.2 372.533h117.759c9.665 0 17.5-7.835 17.5-17.5s-7.835-17.5-17.5-17.5h-117.759c-9.665 0-17.5 7.835-17.5 17.5s7.835 17.5 17.5 17.5z" fill="url(#SVGID_21_)"/><path d="m447.959 404.601h-117.759c-9.665 0-17.5 7.835-17.5 17.5s7.835 17.5 17.5 17.5h117.759c9.665 0 17.5-7.835 17.5-17.5s-7.835-17.5-17.5-17.5z" fill="url(#SVGID_22_)"/></g></g></g></svg>