<svg id="Capa_1" enable-background="new 0 0 510 510" height="512" viewBox="0 0 510 510" width="512" xmlns="http://www.w3.org/2000/svg" xmlns:xlink="http://www.w3.org/1999/xlink"><linearGradient id="lg1"><stop offset="0" stop-color="#537983"/><stop offset="1" stop-color="#3e5959"/></linearGradient><linearGradient id="SVGID_1_" gradientUnits="userSpaceOnUse" x1="137.821" x2="292.41" xlink:href="#lg1" y1="94.352" y2="94.352"/><linearGradient id="SVGID_2_" gradientUnits="userSpaceOnUse" x1="173.776" x2="251.488" y1="94.352" y2="94.352"><stop offset="0" stop-color="#537983"/><stop offset="1" stop-color="#384949"/></linearGradient><linearGradient id="lg2"><stop offset="0" stop-color="#f9f3f1"/><stop offset=".5725" stop-color="#efe2dd"/><stop offset="1" stop-color="#cdbfba"/></linearGradient><linearGradient id="SVGID_3_" gradientUnits="userSpaceOnUse" x1="55.319" x2="84.422" xlink:href="#lg2" y1="440.479" y2="440.479"/><linearGradient id="lg3"><stop offset="0" stop-color="#ffe177"/><stop offset=".5725" stop-color="#feb137"/><stop offset="1" stop-color="#fe646f"/></linearGradient><linearGradient id="SVGID_4_" gradientUnits="userSpaceOnUse" x1="37.351" x2="231.216" xlink:href="#lg3" y1="275.418" y2="275.418"/><linearGradient id="SVGID_5_" gradientUnits="userSpaceOnUse" x1="1.081" x2="223.714" xlink:href="#lg3" y1="275.417" y2="275.417"/><linearGradient id="SVGID_6_" gradientUnits="userSpaceOnUse" x1="197.068" x2="405.708" xlink:href="#lg3" y1="276.955" y2="276.955"/><linearGradient id="SVGID_7_" gradientUnits="userSpaceOnUse" x1="143.496" x2="408.36" xlink:href="#lg3" y1="276.956" y2="276.956"/><linearGradient id="SVGID_8_" gradientUnits="userSpaceOnUse" x1="408.693" x2="465.601" y1="394.191" y2="394.191"><stop offset="0" stop-color="#ffdcbd"/><stop offset=".0028" stop-color="#ffdcbd"/><stop offset="1" stop-color="#ffa9b1"/></linearGradient><linearGradient id="lg4"><stop offset="0" stop-color="#6bd9e7"/><stop offset=".5725" stop-color="#26a6fe"/><stop offset="1" stop-color="#0172fb"/></linearGradient><linearGradient id="SVGID_9_" gradientUnits="userSpaceOnUse" x1="351.794" x2="454.631" xlink:href="#lg4" y1="382.275" y2="382.275"/><linearGradient id="SVGID_10_" gradientUnits="userSpaceOnUse" x1="325.59" x2="431.653" xlink:href="#lg4" y1="374.482" y2="374.482"/><linearGradient id="SVGID_11_" gradientUnits="userSpaceOnUse" x1="438.64" x2="457.613" xlink:href="#lg1" y1="501.358" y2="501.358"/><linearGradient id="SVGID_12_" gradientUnits="userSpaceOnUse" x1="242.987" x2="411.833" xlink:href="#lg2" y1="362.305" y2="362.305"/><linearGradient id="SVGID_13_" gradientUnits="userSpaceOnUse" x1="149.634" x2="324.212" xlink:href="#lg2" y1="130.681" y2="130.681"/><linearGradient id="SVGID_14_" gradientUnits="userSpaceOnUse" x1="123" x2="236.283" xlink:href="#lg2" y1="130.681" y2="130.681"/><linearGradient id="SVGID_15_" gradientUnits="userSpaceOnUse" x1="64.338" x2="302.786" xlink:href="#lg2" y1="130.681" y2="130.681"/><linearGradient id="SVGID_16_" gradientUnits="userSpaceOnUse" x1="143.496" x2="362.749" xlink:href="#lg2" y1="362.305" y2="362.305"/><g><path d="m194.98 162.658v-136.612c0-14.385 11.661-26.046 26.045-26.046 14.385 0 26.046 11.661 26.046 26.046v136.612c0 14.385-11.661 26.046-26.046 26.046-14.384 0-26.045-11.661-26.045-26.046z" fill="url(#SVGID_1_)"/><path d="m221.025 0c-4.523 0-8.777 1.155-12.483 3.183 8.081 4.422 13.562 13.002 13.562 22.863v136.612c0 9.861-5.481 18.441-13.562 22.863 3.707 2.028 7.96 3.183 12.483 3.183 14.385 0 26.046-11.661 26.046-26.046v-136.612c0-14.385-11.661-26.046-26.046-26.046z" fill="url(#SVGID_2_)"/><g><path d="m120.161 408.715c-16.543 38.592-53.723 104.5-63.026 100.512s12.793-76.362 29.336-114.954 50.233-24.151 33.69 14.442z" fill="url(#SVGID_3_)"/><path d="m73.833 470.274c-24.517-10.509-35.872-38.903-25.363-63.42l128.997-300.931c10.509-24.517 38.903-35.872 63.42-25.362 24.517 10.509 35.872 38.903 25.362 63.42l-128.997 300.931c-10.509 24.516-38.903 35.871-63.419 25.362z" fill="url(#SVGID_4_)"/><path d="m270.168 124.969c0 6.359-1.258 12.807-3.923 19.016l-35.197 82.115-93.794 218.813c-10.511 24.517-38.901 35.866-63.418 25.365-.319-.14-.639-.279-.948-.429 10.581-4.801 19.475-13.416 24.417-24.936l95.91-223.764c-21.871-9.284-38.133-29.218-42.295-53.296l26.543-61.93c1.747-4.073 3.983-7.776 6.618-11.08 4.811-6.049 10.951-10.751 17.799-13.855 11.929-5.42 26.014-5.999 39.011-.429 8.455 3.624 15.353 9.383 20.314 16.381 5.789 8.134 8.963 17.947 8.963 28.029z" fill="url(#SVGID_5_)"/></g><g><path d="m360.086 473.802c-24.767 9.905-52.874-2.144-62.779-26.911l-121.575-304.004c-9.905-24.767 2.144-52.874 26.911-62.779 24.767-9.905 52.874 2.144 62.779 26.911l121.575 304.005c9.904 24.766-2.144 52.873-26.911 62.778z" fill="url(#SVGID_6_)"/><path d="m360.089 473.801c-12.727 5.091-26.333 4.382-37.903-.879 6.289-2.85 11.691-6.904 16.041-11.777 14.415-16.149-2.959-40.704-23.025-32.584l-21.705 8.784-13.097-32.751 55.152-22.321-60.798-152.018c-3.849-9.623-14.947-14.053-24.386-9.773-8.946 4.056-18.881 6.316-29.343 6.316-4.143 0-8.195-.349-12.148-1.038l-33.141-82.873c-6.419-16.042-3.624-33.491 5.87-46.478 4.752-6.508 11.18-11.889 18.986-15.423.669-.309 1.358-.599 2.046-.878 5.88-2.356 11.949-3.464 17.918-3.464 14.784 0 28.959 6.838 38.122 18.627 2.735 3.494 5.011 7.427 6.738 11.749l25.265 63.178 79.26 198.159 13.097 32.752 3.963 9.912c9.903 24.768-2.146 52.878-26.912 62.78z" fill="url(#SVGID_7_)"/><g><path d="m382.682 280.493c-6.273-2.689-13.607-2.924-20.419-.043-13.151 5.563-19.107 20.944-13.805 34.202l66.965 167.225c1.595 3.99 4.265 7.459 7.713 10.024l21.678 16.126c5.944 4.422 14.463 1.015 15.719-6.286l4.58-26.628c.728-4.235.269-8.588-1.326-12.578l-67.184-167.774c-2.674-6.682-7.797-11.643-13.921-14.268z" fill="url(#SVGID_8_)"/><path d="m396.602 294.762 67.185 167.776c.604 1.511 1.047 3.075 1.318 4.666-8.603-1.537-17.708-.756-26.411 2.725s-15.837 9.193-21.007 16.238c-.901-1.338-1.659-2.777-2.263-4.288l-66.967-167.229c-5.3-13.254.655-28.634 13.805-34.194 6.813-2.886 14.153-2.65 20.42.037 6.124 2.625 11.247 7.586 13.92 14.269z" fill="url(#SVGID_9_)"/><path d="m369.866 368.114 13.024 32.523 48.186-19.787-13.024-32.523z" fill="url(#SVGID_10_)"/><path d="m448.416 494.241c-4.485 1.794-8.01 4.943-10.34 8.775l6.737 5.011c5.944 4.422 14.463 1.015 15.719-6.286l1.423-8.275c-4.33-1.169-9.054-1.019-13.539.775z" fill="url(#SVGID_11_)"/></g><path d="m266.176 364.454 131.692-52.665c13.356-5.341 28.514 1.156 33.855 14.512 5.341 13.356-1.156 28.514-14.512 33.855l-131.692 52.665c-13.356 5.341-28.514-1.156-33.855-14.512-5.341-13.357 1.156-28.514 14.512-33.855z" fill="url(#SVGID_12_)"/></g><g><circle cx="221.025" cy="130.681" fill="url(#SVGID_13_)" r="71.154"/><circle cx="221.025" cy="130.681" fill="url(#SVGID_14_)" r="41.667"/><path d="m221.025 59.527c-4.877 0-9.638.492-14.239 1.426 32.474 6.596 56.915 35.307 56.915 69.728s-24.441 63.132-56.915 69.728c4.601.935 9.363 1.426 14.239 1.426 39.297 0 71.154-31.857 71.154-71.154s-31.856-71.154-71.154-71.154z" fill="url(#SVGID_15_)"/></g><path d="m431.723 326.301c-5.341-13.356-20.499-19.854-33.855-14.512l-12.609 5.042c2.767 2.551 5.024 5.743 6.514 9.47 5.341 13.356-1.156 28.514-14.512 33.855l-119.083 47.623c7.148 6.589 17.712 8.893 27.341 5.042l131.692-52.665c13.356-5.341 19.853-20.499 14.512-33.855z" fill="url(#SVGID_16_)"/></g></svg>