<svg id="Capa_1" enable-background="new 0 0 510 510" height="512" viewBox="0 0 510 510" width="512" xmlns="http://www.w3.org/2000/svg" xmlns:xlink="http://www.w3.org/1999/xlink"><linearGradient id="lg1"><stop offset="0" stop-color="#537983"/><stop offset="1" stop-color="#3e5959"/></linearGradient><linearGradient id="SVGID_1_" gradientUnits="userSpaceOnUse" x1="-6.843" x2="551.937" xlink:href="#lg1" y1="403.45" y2="403.45"/><linearGradient id="SVGID_2_" gradientUnits="userSpaceOnUse" x1="-6.843" x2="551.937" xlink:href="#lg1" y1="186.727" y2="186.727"/><linearGradient id="lg2"><stop offset="0" stop-color="#537983"/><stop offset="1" stop-color="#384949"/></linearGradient><linearGradient id="SVGID_3_" gradientUnits="userSpaceOnUse" x1="-25.333" x2="51.058" xlink:href="#lg2" y1="209.926" y2="209.926"/><linearGradient id="SVGID_4_" gradientUnits="userSpaceOnUse" x1="-6.843" x2="551.937" xlink:href="#lg1" y1="25.48" y2="25.48"/><linearGradient id="SVGID_5_" gradientUnits="userSpaceOnUse" x1="-6.843" x2="551.937" xlink:href="#lg1" y1="276.228" y2="276.228"/><linearGradient id="SVGID_6_" gradientUnits="userSpaceOnUse" x1="397" x2="464.785" xlink:href="#lg2" y1="342.534" y2="342.534"/><linearGradient id="lg3"><stop offset="0" stop-color="#6bd9e7"/><stop offset=".5725" stop-color="#26a6fe"/><stop offset="1" stop-color="#0172fb"/></linearGradient><linearGradient id="SVGID_7_" gradientUnits="userSpaceOnUse" x1="111.651" x2="278.958" xlink:href="#lg3" y1="334.663" y2="334.663"/><linearGradient id="SVGID_8_" gradientUnits="userSpaceOnUse" x1="59" x2="251.298" xlink:href="#lg3" y1="305.556" y2="305.556"/><linearGradient id="SVGID_9_" gradientUnits="userSpaceOnUse" x1="-35" x2="671.035" xlink:href="#lg3" y1="255.002" y2="255.002"/><linearGradient id="SVGID_10_" gradientUnits="userSpaceOnUse" x1="233.5" x2="527.252" xlink:href="#lg3" y1="255.002" y2="255.002"/><linearGradient id="SVGID_11_" gradientUnits="userSpaceOnUse" x1="128.15" x2="532.165" xlink:href="#lg3" y1="258.68" y2="258.68"/><linearGradient id="SVGID_12_" gradientUnits="userSpaceOnUse" x1="159" x2="476.128" xlink:href="#lg3" y1="258.68" y2="258.68"/><g><g><path d="m115.78 412.911c-15.37 15.37-34.92 15.02-48.09 9.57-13.17-5.46-27.25-19.04-27.25-40.78v-13.31c0-6.904-5.596-12.5-12.5-12.5s-12.5 5.596-12.5 12.5v13.31c0 28.49 16.36 52.97 42.68 63.87 26.136 10.82 54.764 5.244 74.893-14.546 4.761-4.681 5.477-12.27 1.149-17.354-4.792-5.628-13.25-5.881-18.382-.76z" fill="url(#SVGID_1_)"/><path d="m27.958 282.001c6.868-.01 12.482-6.007 12.482-12.875v-162.104c0-.85.014-1.697.041-2.542.227-7.107-5.371-13.029-12.482-13.029-6.72 0-12.263 5.312-12.495 12.028-.042 1.223-.064 2.45-.064 3.682v162.34c0 3.45 1.4 6.58 3.66 8.84 2.264 2.264 5.401 3.665 8.858 3.66z" fill="url(#SVGID_2_)"/><path d="m15.44 220.858 25 14.996v-36.859l-25-14.996z" fill="url(#SVGID_3_)"/><path d="m148.289 5.989c-9.494-2.729-19.438-4.103-29.599-4.027-25.39.183-48.538 9.59-66.451 24.991-8.811 7.575-3.373 22.048 8.247 22.048 2.962 0 5.848-1.023 8.092-2.956 13.86-11.941 31.783-19.186 51.291-19.084 7.439.039 14.717 1.098 21.673 3.113 7.929 2.296 15.817-3.799 15.817-12.053.001-5.584-3.703-10.49-9.07-12.032z" fill="url(#SVGID_4_)"/><path d="m457.55 296.961-248.877-248.877c-6.88-6.88-18.636-3.61-20.975 5.834-1.054 4.253.197 8.748 3.295 11.846l249.837 249.838c18.53 18.53 28.73 43.16 28.73 69.36 0 54.08-44 98.08-98.08 98.08-37.13 0-67.33-30.21-67.33-67.33 0-7.228-6.136-13.031-13.483-12.462-6.58.51-11.547 6.295-11.517 12.895.232 50.709 41.568 91.897 92.33 91.897 68.15 0 123.56-55.7 123.08-123.96-.23-32.741-13.86-63.971-37.01-87.121z" fill="url(#SVGID_5_)"/><path d="m482.8 332.829c-6.221-13.208-14.752-25.37-25.25-35.868l-8.144-8.144-6.369 29.071c17.128 18.246 26.523 41.935 26.523 67.073 0 3.818-.227 7.583-.654 11.288z" fill="url(#SVGID_6_)"/></g><g><g><path d="m151.418 262.703-8.857 4.295v125.526c0 13.183 15.754 18.382 23.956 10.119l89.676-76.505z" fill="url(#SVGID_7_)"/><path d="m256.19 326.142-6.02 5.14-20.09 17.129-87.52-52.28v-29.13l8.86-4.3z" fill="url(#SVGID_8_)"/><path d="m12.49 159.156 472.38-74.783c15.21-2.408 28.026 11.339 24.559 26.343l-68.311 295.621c-3.848 16.655-22.795 24.743-37.485 16.002l-396.394-235.86c-11.896-7.078-8.422-25.158 5.251-27.323z" fill="url(#SVGID_9_)"/><path d="m484.869 84.373-23.801 3.768c6.057 5.11 10.026 15.286 8.341 22.575l-68.311 295.621c-.999 4.325-3.023 8.065-5.72 11.09l8.255 4.912c14.69 8.741 33.636.652 37.485-16.002l68.311-295.621c3.466-15.004-9.349-28.751-24.56-26.343z" fill="url(#SVGID_10_)"/><path d="m441.117 406.338 68.311-295.621c1.684-7.289-.481-14.275-4.89-19.262l-361.977 175.543 261.072 155.342c14.689 8.74 33.636.652 37.484-16.002z" fill="url(#SVGID_11_)"/></g><path d="m504.538 91.454-34.795 16.874c-.056.82-.157 1.623-.334 2.388l-68.311 295.621c-.999 4.325-3.023 8.065-5.72 11.09l8.254 4.911c14.69 8.74 33.636.652 37.485-16.002l68.311-295.621c1.685-7.287-.481-14.273-4.89-19.261z" fill="url(#SVGID_12_)"/></g></g></svg>