<svg id="Capa_1" enable-background="new 0 0 510 510" height="512" viewBox="0 0 510 510" width="512" xmlns="http://www.w3.org/2000/svg" xmlns:xlink="http://www.w3.org/1999/xlink"><linearGradient id="SVGID_1_" gradientTransform="matrix(.707 .707 -.629 .629 -1018.779 -1522.46)" gradientUnits="userSpaceOnUse" x1="2075.51" x2="2255.724" y1="661.449" y2="661.449"><stop offset="0" stop-color="#fee903"/><stop offset=".2305" stop-color="#fee505"/><stop offset=".4171" stop-color="#fedb0b"/><stop offset=".5884" stop-color="#feca15"/><stop offset=".7504" stop-color="#feb223"/><stop offset=".9046" stop-color="#fe9435"/><stop offset="1" stop-color="#fe7d43"/></linearGradient><linearGradient id="lg1"><stop offset="0" stop-color="#ffe177"/><stop offset=".5725" stop-color="#feb137"/><stop offset="1" stop-color="#fe646f"/></linearGradient><linearGradient id="SVGID_2_" gradientTransform="matrix(.707 .707 -.629 .629 -1018.779 -1522.46)" gradientUnits="userSpaceOnUse" x1="2075.51" x2="2255.724" xlink:href="#lg1" y1="661.449" y2="661.449"/><linearGradient id="SVGID_3_" gradientTransform="matrix(.707 .707 -.629 .629 -1018.779 -1522.46)" gradientUnits="userSpaceOnUse" x1="2056.651" x2="2238.699" xlink:href="#lg1" y1="660.377" y2="660.377"/><linearGradient id="SVGID_4_" gradientTransform="matrix(.707 .707 -.629 .629 -1018.779 -1522.46)" gradientUnits="userSpaceOnUse" x1="1977.754" x2="2248.395" xlink:href="#lg1" y1="661.45" y2="661.45"/><linearGradient id="SVGID_5_" gradientTransform="matrix(.707 .707 -.629 .629 -1018.779 -1522.46)" gradientUnits="userSpaceOnUse" x1="2012.437" x2="2220.388" xlink:href="#lg1" y1="661.449" y2="661.449"/><linearGradient id="SVGID_6_" gradientUnits="userSpaceOnUse" x1="123.736" x2="486.951" y1="193.424" y2="193.424"><stop offset="0" stop-color="#537983"/><stop offset="1" stop-color="#3e5959"/></linearGradient><linearGradient id="SVGID_7_" gradientUnits="userSpaceOnUse" x1="32.59" x2="448.758" y1="193.426" y2="193.426"><stop offset="0" stop-color="#537983"/><stop offset="1" stop-color="#384949"/></linearGradient><linearGradient id="lg2"><stop offset="0" stop-color="#f9f3f1"/><stop offset=".5725" stop-color="#efe2dd"/><stop offset="1" stop-color="#cdbfba"/></linearGradient><linearGradient id="SVGID_8_" gradientUnits="userSpaceOnUse" x1="116.502" x2="255.036" xlink:href="#lg2" y1="329.708" y2="329.708"/><linearGradient id="SVGID_9_" gradientUnits="userSpaceOnUse" x1="39.083" x2="223.749" xlink:href="#lg2" y1="329.708" y2="329.708"/><linearGradient id="SVGID_10_" gradientUnits="userSpaceOnUse" x1="124.001" x2="259.972" y1="70.413" y2="70.413"><stop offset="0" stop-color="#7acaa6"/><stop offset=".5725" stop-color="#09a76d"/><stop offset="1" stop-color="#026841"/></linearGradient><linearGradient id="SVGID_11_" gradientUnits="userSpaceOnUse" x1="37.547" x2="168.668" y1="204.066" y2="204.066"><stop offset="0" stop-color="#6bd9e7"/><stop offset=".5725" stop-color="#26a6fe"/><stop offset="1" stop-color="#0172fb"/></linearGradient><linearGradient id="lg3"><stop offset="0" stop-color="#fdb4ba"/><stop offset=".5725" stop-color="#bd80e1"/><stop offset="1" stop-color="#9857bd"/></linearGradient><linearGradient id="SVGID_12_" gradientUnits="userSpaceOnUse" x1="252.192" x2="527.642" xlink:href="#lg3" y1="395.879" y2="395.879"/><linearGradient id="SVGID_13_" gradientUnits="userSpaceOnUse" x1="170.21" x2="489.103" xlink:href="#lg3" y1="481.474" y2="481.474"/><linearGradient id="SVGID_14_" gradientUnits="userSpaceOnUse" x1="170.21" x2="489.103" xlink:href="#lg3" y1="386.848" y2="386.848"/><g><g><path d="m172.926 475.91c31.57-31.57 28.096-86.128-7.946-121.292-35.525-34.659-89.83-36.96-120.452-5.152-16.061 16.684-22.62 39.481-20.042 62.408-.016-.144-.041-.288-.056-.432.063 20.114 8.334 24.116-6.179 38.629-4.306 4.306-9.038 7.958-14.09 10.963-3.326 1.978-3.567 6.79-.525 9.861.28.283.562.565.845.846 48.011 47.674 121.498 51.102 164.062 8.547 2.851-2.849 1.382-1.376 4.383-4.378z" fill="url(#SVGID_1_)"/><path d="m172.926 475.91c31.57-31.57 28.096-86.128-7.946-121.292-35.525-34.659-89.83-36.96-120.452-5.152-16.061 16.684-22.62 39.481-20.042 62.408-.016-.144-.041-.288-.056-.432.063 20.114 8.334 24.116-6.179 38.629-4.306 4.306-9.038 7.958-14.09 10.963-3.326 1.978-3.567 6.79-.525 9.861.28.283.562.565.845.846 48.011 47.674 121.498 51.102 164.062 8.547 2.851-2.849 1.382-1.376 4.383-4.378z" fill="url(#SVGID_2_)"/><path d="m143.211 446.195c31.57-31.57 41.629-72.595 22.191-91.155-19.158-18.293-60.264-7.394-91.162 24.138-16.206 16.538-26.552 35.549-29.921 52.529.021-.107.036-.211.058-.318-4.642 15.409.767 16.549-13.746 31.062-4.306 4.306-8.786 8.21-13.361 11.692-1.419 1.081-2.46 2.484-2.995 3.838-.599 1.519 12.909 13.221 20.582 15.134 28.711 7.159 70.386-8.957 103.972-42.54 2.85-2.851 1.38-1.378 4.382-4.38z" fill="url(#SVGID_3_)"/><path d="m172.925 475.907c-3.005 3.005-1.532 1.532-4.383 4.383-42.561 42.55-116.049 39.121-164.056-8.549-.289-.279-.568-.558-.847-.847-1.204-1.214-1.89-2.703-2.076-4.178 32.246 19.99 84.277 7.555 122.618-30.787 2.851-2.851 1.384-1.373 4.389-4.377 28.137-28.137 46.613-55.654 25.316-86.292 3.858 2.797 7.567 5.921 11.095 9.36 36.046 35.163 39.513 89.719 7.944 121.287z" fill="url(#SVGID_4_)"/><path d="m164.98 354.618c-3.525-3.439-7.238-6.555-11.092-9.355 25.157 34.559 24.642 80.432-3.268 108.341-3.002 3.002-1.533 1.529-4.383 4.378-37.174 37.167-97.934 39.255-144.711 7.429-.141 1.875.549 3.908 2.11 5.484.28.283.562.565.845.846 48.011 47.674 121.498 51.102 164.062 8.547 2.85-2.849 1.381-1.376 4.383-4.378 31.571-31.57 28.096-86.128-7.946-121.292z" fill="url(#SVGID_5_)"/></g><g><g><path d="m492.764 15.733c-19.578-19.578-50.829-21.068-72.18-3.441l-213.706 176.425c-21.08 17.403-38.434 38.879-51.022 63.144l-34.206 65.934 69.052 69.052 65.934-34.206c24.265-12.588 45.741-29.942 63.144-51.022l176.425-213.706c17.626-21.351 16.136-52.602-3.441-72.18z" fill="url(#SVGID_6_)"/><path d="m492.764 15.733c-15.377-15.377-37.954-19.589-57.281-12.15 6.824 2.624 13.208 6.679 18.679 12.151 19.578 19.578 21.068 50.829 3.441 72.18l-176.424 213.705c-17.403 21.08-38.879 38.434-63.144 51.022l-40.519 21.021 13.186 13.186 65.934-34.206c24.265-12.588 45.741-29.942 63.144-51.022l176.425-213.707c17.626-21.351 16.136-52.602-3.441-72.18z" fill="url(#SVGID_7_)"/><path d="m132.994 274.138-14.7 31.003c-3.955 8.342-2.237 18.269 4.29 24.797l55.974 55.974c6.528 6.528 16.455 8.246 24.797 4.29l31.003-14.7c7.682-3.642 9.439-13.795 3.427-19.807l-84.985-84.985c-6.011-6.01-16.163-4.254-19.806 3.428z" fill="url(#SVGID_8_)"/><path d="m237.786 355.696-84.985-84.985c-6.012-6.012-16.164-4.255-19.807 3.427l-4.943 10.425 71.133 71.133c6.012 6.012 4.255 16.164-3.427 19.807l-18.728 8.88 1.529 1.529c6.528 6.528 16.455 8.246 24.797 4.29l31.003-14.7c7.683-3.642 9.44-13.794 3.428-19.806z" fill="url(#SVGID_9_)"/></g></g><circle cx="171.029" cy="70.413" fill="url(#SVGID_10_)" r="55.715"/><circle cx="74.82" cy="204.066" fill="url(#SVGID_11_)" r="41.369"/><path d="m408.038 299.461c-42.061.102-77.133 29.922-85.345 69.572-1.435 6.931-6.498 12.575-13.189 14.883-21.886 7.55-37.597 28.346-37.534 52.812.078 30.259 24.832 55.233 55.089 55.565 15.404.169 29.383-5.917 39.563-15.873 5.036-4.925 12.324-6.92 19.131-5.111 7.179 1.908 14.722 2.925 22.502 2.925 48.262 0 87.386-39.124 87.387-87.386.001-48.302-39.301-87.505-87.604-87.387z" fill="url(#SVGID_12_)"/><g><path d="m368.484 474.235c-7.78 0-15.323-1.017-22.502-2.925-6.807-1.809-14.095.186-19.131 5.111-5.385 5.266-11.84 9.434-18.998 12.182 5.988 2.31 12.458 3.617 19.206 3.691 15.404.169 29.383-5.917 39.563-15.873.835-.816 1.736-1.544 2.683-2.196-.274.002-.546.01-.821.01z" fill="url(#SVGID_13_)"/><path d="m408.038 299.461c-6.765.016-13.345.811-19.666 2.283 38.646 9.016 67.5 43.718 67.499 85.106-.001 41.421-28.82 76.109-67.501 85.111 6.388 1.487 13.044 2.275 19.885 2.275 48.262 0 87.386-39.124 87.387-87.386.001-48.305-39.301-87.507-87.604-87.389z" fill="url(#SVGID_14_)"/></g></g></svg>