<svg id="Capa_1" enable-background="new 0 0 510 510" height="512" viewBox="0 0 510 510" width="512" xmlns="http://www.w3.org/2000/svg" xmlns:xlink="http://www.w3.org/1999/xlink"><linearGradient id="lg1"><stop offset="0" stop-color="#f9f3f1"/><stop offset=".5725" stop-color="#efe2dd"/><stop offset="1" stop-color="#cdbfba"/></linearGradient><linearGradient id="SVGID_1_" gradientUnits="userSpaceOnUse" x1="59" x2="421.035" xlink:href="#lg1" y1="484.831" y2="484.831"/><linearGradient id="SVGID_2_" gradientUnits="userSpaceOnUse" x1="-10.05" x2="303.516" xlink:href="#lg1" y1="258.534" y2="258.534"/><linearGradient id="SVGID_3_" gradientUnits="userSpaceOnUse" x1="-163" x2="214.005" xlink:href="#lg1" y1="258.534" y2="258.534"/><linearGradient id="lg2"><stop offset="0" stop-color="#6bd9e7"/><stop offset=".5725" stop-color="#26a6fe"/><stop offset="1" stop-color="#0172fb"/></linearGradient><linearGradient id="SVGID_4_" gradientUnits="userSpaceOnUse" x1="57.402" x2="544.338" xlink:href="#lg2" y1="241.479" y2="241.479"/><linearGradient id="SVGID_5_" gradientUnits="userSpaceOnUse" x1="9" x2="490.873" xlink:href="#lg2" y1="241.479" y2="241.479"/><linearGradient id="lg3"><stop offset="0" stop-color="#ffe177"/><stop offset=".5725" stop-color="#feb137"/><stop offset="1" stop-color="#fe646f"/></linearGradient><linearGradient id="SVGID_6_" gradientUnits="userSpaceOnUse" x1="340.033" x2="418.159" xlink:href="#lg3" y1="410.986" y2="410.986"/><linearGradient id="SVGID_7_" gradientUnits="userSpaceOnUse" x1="340.033" x2="418.159" xlink:href="#lg3" y1="452.541" y2="452.541"/><g><path d="m404.143 492.308h-338.306c-4.13 0-7.477-3.348-7.477-7.477 0-4.13 3.348-7.477 7.477-7.477h338.305c4.13 0 7.477 3.348 7.477 7.477.001 4.13-3.346 7.477-7.476 7.477z" fill="url(#SVGID_1_)"/><g><path d="m487.977 235.452-232.196 232.196c-6.215 6.215-14.643 9.706-23.432 9.706h-145.047c-8.709 0-17.045-3.451-23.273-9.539-25.64-25.062-46.103-55.387-59.757-89.337-2.874-7.147-4.272-14.626-4.272-22.036 0-15.388 6.012-30.492 17.304-41.793l274.935-274.935z" fill="url(#SVGID_2_)"/><path d="m292.239 39.714-20.01 20.01 175.728 175.728-199.014 199.014-175.728-175.728-30.397 30.397 172.943 172.943c1.538 1.538 1.538 4.032 0 5.57-6.215 6.214-14.643 9.706-23.432 9.706h40.02c8.789 0 17.217-3.491 23.432-9.706l232.195-232.196z" fill="url(#SVGID_3_)"/><path d="m242.767 455.291-170.367-170.366c-13.298-13.298-13.298-34.859 0-48.158l209.102-209.101c13.298-13.298 34.859-13.298 48.158 0l170.366 170.366c13.298 13.298 13.298 34.859 0 48.158l-209.101 209.101c-13.299 13.299-34.86 13.299-48.158 0z" fill="url(#SVGID_4_)"/></g><path d="m500.026 198.032-170.366-170.366c-12.015-12.015-30.772-13.171-44.089-3.476 1.423 1.036 2.785 2.193 4.069 3.476l170.366 170.366c13.299 13.298 13.299 34.859 0 48.158l-209.101 209.101c-1.284 1.284-2.646 2.44-4.069 3.477 13.317 9.695 32.074 8.538 44.089-3.477l209.101-209.101c13.299-13.299 13.299-34.86 0-48.158z" fill="url(#SVGID_5_)"/><g><path d="m387.823 408.907c3.815-3.815 3.815-10.001 0-13.816-3.815-3.815-10.001-3.815-13.817 0l-17.974 17.974c-3.815 3.815-3.815 10.001 0 13.817 3.815 3.815 10.001 3.815 13.816 0z" fill="url(#SVGID_6_)"/><path d="m401.85 442.771h-25.419c-5.396 0-9.77 4.374-9.77 9.77s4.374 9.77 9.77 9.77h25.418c5.396 0 9.77-4.374 9.77-9.77.001-5.396-4.373-9.77-9.769-9.77z" fill="url(#SVGID_7_)"/></g></g></svg>