<svg id="Capa_1" enable-background="new 0 0 510 510" height="512" viewBox="0 0 510 510" width="512" xmlns="http://www.w3.org/2000/svg" xmlns:xlink="http://www.w3.org/1999/xlink"><linearGradient id="SVGID_1_" gradientUnits="userSpaceOnUse" x1="452.667" x2="515.365" y1="83.853" y2="83.853"><stop offset="0" stop-color="#6bd9e7"/><stop offset=".5725" stop-color="#26a6fe"/><stop offset="1" stop-color="#0172fb"/></linearGradient><linearGradient id="lg1"><stop offset="0" stop-color="#537983"/><stop offset="1" stop-color="#3e5959"/></linearGradient><linearGradient id="SVGID_2_" gradientUnits="userSpaceOnUse" x1="52.601" x2="258.178" xlink:href="#lg1" y1="227.856" y2="227.856"/><linearGradient id="lg2"><stop offset="0" stop-color="#537983"/><stop offset="1" stop-color="#384949"/></linearGradient><linearGradient id="SVGID_3_" gradientUnits="userSpaceOnUse" x1="50" x2="238.215" xlink:href="#lg2" y1="227.855" y2="227.855"/><linearGradient id="lg3"><stop offset="0" stop-color="#f9f3f1"/><stop offset=".5725" stop-color="#efe2dd"/><stop offset="1" stop-color="#cdbfba"/></linearGradient><linearGradient id="SVGID_4_" gradientUnits="userSpaceOnUse" x1="157.595" x2="464.201" xlink:href="#lg3" y1="160.659" y2="160.659"/><linearGradient id="SVGID_5_" gradientUnits="userSpaceOnUse" x1="166" x2="407.044" xlink:href="#lg3" y1="160.658" y2="160.658"/><linearGradient id="SVGID_6_" gradientUnits="userSpaceOnUse" x1="373.57" x2="517.95" xlink:href="#lg1" y1="98.516" y2="98.516"/><linearGradient id="SVGID_7_" gradientUnits="userSpaceOnUse" x1="-7.396" x2="58.668" xlink:href="#lg1" y1="299.377" y2="299.377"/><linearGradient id="SVGID_8_" gradientUnits="userSpaceOnUse" x1="-11.5" x2="55.12" xlink:href="#lg2" y1="297.805" y2="297.805"/><linearGradient id="SVGID_9_" gradientUnits="userSpaceOnUse" x1="18.102" x2="104.07" xlink:href="#lg3" y1="286.781" y2="286.781"/><linearGradient id="SVGID_10_" gradientUnits="userSpaceOnUse" x1="139.596" x2="316.339" xlink:href="#lg1" y1="398.862" y2="398.862"/><linearGradient id="SVGID_11_" gradientUnits="userSpaceOnUse" x1="142" x2="290.223" xlink:href="#lg2" y1="340.495" y2="340.495"/><linearGradient id="lg4"><stop offset="0" stop-color="#ffe177"/><stop offset=".5725" stop-color="#feb137"/><stop offset="1" stop-color="#fe646f"/></linearGradient><linearGradient id="SVGID_12_" gradientUnits="userSpaceOnUse" x1="183.609" x2="358.187" xlink:href="#lg4" y1="299.107" y2="299.107"/><linearGradient id="SVGID_13_" gradientUnits="userSpaceOnUse" x1="98.313" x2="336.761" xlink:href="#lg4" y1="299.107" y2="299.107"/><linearGradient id="SVGID_14_" gradientUnits="userSpaceOnUse" x1="334.587" x2="502.906" xlink:href="#lg2" y1="98.516" y2="98.516"/><linearGradient id="SVGID_15_" gradientUnits="userSpaceOnUse" x1="138.679" x2="213.705" xlink:href="#lg1" y1="483.908" y2="483.908"/><linearGradient id="SVGID_16_" gradientUnits="userSpaceOnUse" x1="308.679" x2="383.705" xlink:href="#lg1" y1="483.908" y2="483.908"/><linearGradient id="SVGID_17_" gradientUnits="userSpaceOnUse" x1="153.333" x2="310.459" xlink:href="#lg4" y1="299.107" y2="299.107"/><g><path d="m501.48 56.163c-14.275-28.32-48.805-39.705-77.125-25.429l-19.529 9.844 51.695 102.554 19.529-9.844c28.321-14.276 39.706-48.806 25.43-77.125z" fill="url(#SVGID_1_)"/><g><path d="m318.255 196.608-28.885-57.302c-6.22-12.34-21.267-17.301-33.607-11.081l-192.97 97.272c-12.34 6.22-17.301 21.267-11.081 33.607l28.885 57.302c6.22 12.34 21.267 17.301 33.607 11.081l192.97-97.272c12.34-6.221 17.301-21.267 11.081-33.607z" fill="url(#SVGID_2_)"/><path d="m318.255 196.608-28.885-57.302c-6.22-12.34-21.267-17.301-33.607-11.081l-4.473 2.245-77.31 38.98-22.34 11.26 32.307 64.167c-11.692 9.937-20.128 23.58-23.489 39.12l-75.811 38.215c7.391 7.928 19.391 10.399 29.557 5.274l44.883-22.624 117.7-59.33 30.387-15.318c12.34-6.22 17.301-21.266 11.081-33.606z" fill="url(#SVGID_3_)"/><path d="m464.575 155.228-54.912-108.936c-6.22-12.34-21.267-17.301-33.607-11.081l-192.97 97.272c-12.34 6.22-17.301 21.267-11.081 33.607l54.912 108.937c6.22 12.34 21.267 17.301 33.607 11.081l192.97-97.271c12.341-6.222 17.302-21.269 11.081-33.609z" fill="url(#SVGID_4_)"/><path d="m464.575 155.228-54.912-108.936c-6.22-12.34-21.267-17.301-33.607-11.081l-26.391 13.303 54.115 107.322c8.382 16.623 1.706 36.894-14.913 45.283l-157.9 79.713c7.392 7.928 19.391 10.399 29.558 5.274l188.931-95.236 4.039-2.036c12.34-6.219 17.301-21.266 11.08-33.606z" fill="url(#SVGID_5_)"/><path d="m507.316 152.148-69.755-138.384c-6.22-12.34-21.267-17.301-33.607-11.081l-17.049 8.594c-12.34 6.22-17.301 21.267-11.081 33.607l69.756 138.383c6.22 12.34 21.267 17.301 33.607 11.081l17.05-8.594c12.339-6.22 17.3-21.266 11.079-33.606z" fill="url(#SVGID_6_)"/><path d="m47.806 259.844-33.92 17.098c-12.449 6.275-17.454 21.454-11.179 33.904l7.147 14.179c6.275 12.449 21.454 17.454 33.903 11.178l33.92-17.098z" fill="url(#SVGID_7_)"/><path d="m77.68 319.1-10.73 5.41-22.33 11.26-30.19-59.1 22.34-11.26 11.04-5.57z" fill="url(#SVGID_8_)"/><path d="m110.491 325.47-48.285-95.789c-5.084-10.086-17.382-14.141-27.468-9.057-10.086 5.084-14.141 17.382-9.057 27.469l48.285 95.789c5.084 10.086 17.382 14.141 27.469 9.057s14.14-17.383 9.056-27.469z" fill="url(#SVGID_9_)"/></g><path d="m344.633 510c-8.218 0-16.137-4.519-20.098-12.354l-69.535-137.55-69.535 137.551c-5.606 11.089-19.141 15.535-30.231 9.929s-15.535-19.142-9.929-30.231l89.615-177.271c3.829-7.573 11.593-12.349 20.08-12.349 8.486 0 16.251 4.775 20.08 12.349l89.615 177.271c5.606 11.09 1.161 24.625-9.929 30.231-3.254 1.645-6.719 2.424-10.133 2.424z" fill="url(#SVGID_10_)"/><path d="m275.08 300.072c-3.829-7.573-11.594-12.349-20.08-12.349-8.487 0-16.251 4.775-20.08 12.349l-34.954 69.144c9.65 11.762 22.998 20.36 38.266 24.05l16.768-33.17 16.768 33.17c15.267-3.69 28.616-12.288 38.266-24.05z" fill="url(#SVGID_11_)"/><g><circle cx="255" cy="299.107" fill="url(#SVGID_12_)" r="71.154"/><path d="m255 227.953c-4.877 0-9.638.492-14.239 1.426 32.474 6.596 56.915 35.307 56.915 69.728s-24.441 63.132-56.915 69.728c4.601.935 9.363 1.426 14.239 1.426 39.297 0 71.154-31.857 71.154-71.154s-31.857-71.154-71.154-71.154z" fill="url(#SVGID_13_)"/></g><path d="m507.316 152.148-69.755-138.384c-6.22-12.34-21.267-17.301-33.607-11.081l-10.462 5.274c1.58 1.695 2.954 3.634 4.049 5.807l69.756 138.384c6.22 12.34 1.259 27.386-11.081 33.607l-6.587 3.32c7.391 7.928 19.391 10.399 29.557 5.274l17.05-8.594c12.34-6.221 17.301-21.267 11.08-33.607z" fill="url(#SVGID_14_)"/><g><path d="m212.049 510h-84.099c-4.152 0-7.519-3.366-7.519-7.519v-7.893c0-20.309 16.463-36.772 36.772-36.772h25.592c20.309 0 36.772 16.463 36.772 36.772v7.893c.001 4.153-3.365 7.519-7.518 7.519z" fill="url(#SVGID_15_)"/><path d="m382.049 510h-84.099c-4.152 0-7.519-3.366-7.519-7.519v-7.893c0-20.309 16.463-36.772 36.772-36.772h25.592c20.309 0 36.772 16.463 36.772 36.772v7.893c.001 4.153-3.365 7.519-7.518 7.519z" fill="url(#SVGID_16_)"/></g><circle cx="255" cy="299.107" fill="url(#SVGID_17_)" r="41.667"/></g></svg>