<svg id="Capa_1" enable-background="new 0 0 510.343 510.343" height="512" viewBox="0 0 510.343 510.343" width="512" xmlns="http://www.w3.org/2000/svg" xmlns:xlink="http://www.w3.org/1999/xlink"><linearGradient id="lg1"><stop offset="0" stop-color="#ffe177"/><stop offset=".5725" stop-color="#feb137"/><stop offset="1" stop-color="#fe646f"/></linearGradient><linearGradient id="SVGID_1_" gradientTransform="matrix(1 .001 -.001 1 .492 .216)" gradientUnits="userSpaceOnUse" x1="13.567" x2="596.004" xlink:href="#lg1" y1="254.587" y2="254.587"/><linearGradient id="SVGID_2_" gradientTransform="matrix(1 .001 -.001 1 .492 .216)" gradientUnits="userSpaceOnUse" x1="-38.895" x2="507.212" xlink:href="#lg1" y1="283.514" y2="283.514"/><linearGradient id="SVGID_3_" gradientTransform="matrix(1 .001 -.001 1 .492 .216)" gradientUnits="userSpaceOnUse" x1="93.879" x2="514.773" xlink:href="#lg1" y1="254.59" y2="254.59"/><linearGradient id="lg2"><stop offset="0" stop-color="#537983"/><stop offset="1" stop-color="#3e5959"/></linearGradient><linearGradient id="SVGID_4_" gradientUnits="userSpaceOnUse" x1="51.927" x2="428.456" xlink:href="#lg2" y1="467.748" y2="467.748"/><linearGradient id="SVGID_5_" gradientUnits="userSpaceOnUse" x1="51.927" x2="428.456" xlink:href="#lg2" y1="477.434" y2="477.434"/><linearGradient id="SVGID_6_" gradientUnits="userSpaceOnUse" x1="51.927" x2="428.456" xlink:href="#lg2" y1="477.39" y2="477.39"/><linearGradient id="SVGID_7_" gradientUnits="userSpaceOnUse" x1="51.927" x2="428.456" xlink:href="#lg2" y1="467.617" y2="467.617"/><linearGradient id="SVGID_8_" gradientUnits="userSpaceOnUse" x1="51.927" x2="428.456" xlink:href="#lg2" y1="477.302" y2="477.302"/><linearGradient id="SVGID_9_" gradientUnits="userSpaceOnUse" x1="51.927" x2="428.456" xlink:href="#lg2" y1="477.258" y2="477.258"/><linearGradient id="SVGID_10_" gradientUnits="userSpaceOnUse" x1="51.927" x2="428.456" xlink:href="#lg2" y1="467.485" y2="467.485"/><linearGradient id="SVGID_11_" gradientUnits="userSpaceOnUse" x1="439.02" x2="501.561" xlink:href="#lg2" y1="76.482" y2="76.482"/><linearGradient id="SVGID_12_" gradientUnits="userSpaceOnUse" x1="458.435" x2="501.517" xlink:href="#lg2" y1="132.813" y2="132.813"/><linearGradient id="SVGID_13_" gradientUnits="userSpaceOnUse" x1="458.391" x2="501.474" xlink:href="#lg2" y1="189.137" y2="189.137"/><linearGradient id="SVGID_14_" gradientUnits="userSpaceOnUse" x1="438.889" x2="501.43" xlink:href="#lg2" y1="245.452" y2="245.452"/><linearGradient id="SVGID_15_" gradientUnits="userSpaceOnUse" x1="458.303" x2="501.386" xlink:href="#lg2" y1="301.784" y2="301.784"/><linearGradient id="SVGID_16_" gradientUnits="userSpaceOnUse" x1="458.259" x2="501.342" xlink:href="#lg2" y1="358.107" y2="358.107"/><linearGradient id="SVGID_17_" gradientUnits="userSpaceOnUse" x1="438.757" x2="501.298" xlink:href="#lg2" y1="414.423" y2="414.423"/><linearGradient id="lg3"><stop offset="0" stop-color="#537983"/><stop offset="1" stop-color="#384949"/></linearGradient><linearGradient id="SVGID_18_" gradientUnits="userSpaceOnUse" x1="174.921" x2="394.238" xlink:href="#lg3" y1="76.489" y2="76.489"/><linearGradient id="SVGID_19_" gradientUnits="userSpaceOnUse" x1="174.921" x2="394.238" xlink:href="#lg3" y1="132.818" y2="132.818"/><linearGradient id="SVGID_20_" gradientUnits="userSpaceOnUse" x1="174.921" x2="394.238" xlink:href="#lg3" y1="189.138" y2="189.138"/><linearGradient id="SVGID_21_" gradientUnits="userSpaceOnUse" x1="174.921" x2="394.238" xlink:href="#lg3" y1="245.458" y2="245.458"/><linearGradient id="SVGID_22_" gradientUnits="userSpaceOnUse" x1="174.921" x2="394.238" xlink:href="#lg3" y1="301.788" y2="301.788"/><linearGradient id="SVGID_23_" gradientUnits="userSpaceOnUse" x1="174.921" x2="394.238" xlink:href="#lg3" y1="358.108" y2="358.108"/><linearGradient id="SVGID_24_" gradientUnits="userSpaceOnUse" x1="174.921" x2="394.238" xlink:href="#lg3" y1="414.428" y2="414.428"/><g><path d="m451.417 10.337-441.216 440.528c-21.769 21.735-6.392 58.94 24.37 58.964l436.697.34c21.376.017 38.718-17.298 38.735-38.674l.34-436.697c.024-30.761-37.157-46.196-58.926-24.461zm-37.107 392.641c-.005 6.297-5.114 11.398-11.41 11.393l-204.48-.159c-10.158-.008-15.235-12.293-8.047-19.47l204.639-204.32c7.188-7.177 19.465-2.08 19.457 8.077z" fill="url(#SVGID_1_)"/><path d="m181.554 398.771 5.998.005c.608-1.383 1.49-2.705 2.684-3.898l204.775-204.456c1.195-1.193 2.518-2.073 3.902-2.678l.005-5.998c.009-11.207-13.537-16.83-21.468-8.912l-204.774 204.455c-7.931 7.918-2.329 21.473 8.878 21.482z" fill="url(#SVGID_2_)"/><path d="m455.816 6.591c8.549 6 14.517 15.853 14.508 28.176l-.34 436.697c-.017 21.376-17.359 38.691-38.735 38.674l40.02.031c21.376.017 38.718-17.298 38.735-38.674l.34-436.697c.022-28.775-32.508-44.132-54.528-28.207z" fill="url(#SVGID_3_)"/><g><path d="m414.242 499.018c-.002 0-.004 0-.006 0-4.143-.003-7.497-3.364-7.494-7.506l.037-47.541c.003-4.14 3.36-7.494 7.5-7.494h.006c4.143.003 7.497 3.364 7.494 7.506l-.037 47.541c-.003 4.14-3.361 7.494-7.5 7.494z" fill="url(#SVGID_4_)"/><path d="m357.917 498.975c-.002 0-.004 0-.006 0-4.143-.003-7.497-3.364-7.494-7.506l.022-28.083c.003-4.14 3.361-7.494 7.5-7.494h.006c4.143.003 7.497 3.364 7.494 7.506l-.022 28.083c-.003 4.14-3.361 7.494-7.5 7.494z" fill="url(#SVGID_5_)"/><path d="m301.594 498.931c-.002 0-.004 0-.006 0-4.143-.003-7.497-3.364-7.494-7.506l.022-28.083c.003-4.14 3.361-7.494 7.5-7.494h.006c4.143.003 7.497 3.364 7.494 7.506l-.022 28.083c-.003 4.14-3.361 7.494-7.5 7.494z" fill="url(#SVGID_6_)"/><path d="m245.271 498.887c-.002 0-.004 0-.006 0-4.143-.003-7.497-3.364-7.494-7.506l.037-47.541c.003-4.14 3.36-7.494 7.5-7.494h.006c4.143.003 7.497 3.364 7.494 7.506l-.037 47.541c-.003 4.14-3.361 7.494-7.5 7.494z" fill="url(#SVGID_7_)"/><path d="m188.948 498.843c-.002 0-.004 0-.006 0-4.142-.003-7.497-3.364-7.494-7.506l.021-28.083c.003-4.14 3.36-7.494 7.5-7.494h.006c4.142.003 7.497 3.364 7.494 7.506l-.021 28.083c-.003 4.14-3.361 7.494-7.5 7.494z" fill="url(#SVGID_8_)"/><path d="m132.623 498.799c-.002 0-.004 0-.006 0-4.143-.003-7.497-3.364-7.494-7.506l.022-28.083c.003-4.14 3.361-7.494 7.5-7.494h.006c4.143.003 7.497 3.364 7.494 7.506l-.022 28.083c-.003 4.14-3.361 7.494-7.5 7.494z" fill="url(#SVGID_9_)"/><path d="m76.3 498.755c-.002 0-.004 0-.006 0-4.143-.003-7.497-3.364-7.494-7.506l.037-47.541c.003-4.14 3.36-7.494 7.5-7.494h.006c4.143.003 7.497 3.364 7.494 7.506l-.037 47.541c-.003 4.14-3.36 7.494-7.5 7.494z" fill="url(#SVGID_10_)"/></g><g><path d="m494.055 84.001-47.541-.037c-4.142-.003-7.497-3.364-7.494-7.506s3.364-7.497 7.506-7.494l47.541.037c4.142.003 7.497 3.364 7.494 7.506s-3.363 7.497-7.506 7.494z" fill="url(#SVGID_11_)"/><path d="m494.012 140.324-28.083-.022c-4.142-.003-7.497-3.364-7.494-7.506s3.364-7.497 7.506-7.494l28.083.022c4.142.003 7.497 3.364 7.494 7.506-.004 4.142-3.364 7.497-7.506 7.494z" fill="url(#SVGID_12_)"/><path d="m493.968 196.648-28.082-.022c-4.142-.003-7.497-3.364-7.494-7.506s3.364-7.497 7.506-7.494l28.082.022c4.142.003 7.497 3.364 7.494 7.506s-3.364 7.497-7.506 7.494z" fill="url(#SVGID_13_)"/><path d="m493.924 252.971-47.541-.037c-4.142-.003-7.497-3.364-7.494-7.506s3.364-7.497 7.506-7.494l47.541.037c4.142.003 7.497 3.364 7.494 7.506s-3.364 7.497-7.506 7.494z" fill="url(#SVGID_14_)"/><path d="m493.88 309.295-28.083-.022c-4.142-.003-7.497-3.364-7.494-7.506s3.364-7.497 7.506-7.494l28.082.022c4.142.003 7.497 3.364 7.494 7.506-.003 4.141-3.363 7.497-7.505 7.494z" fill="url(#SVGID_15_)"/><path d="m493.836 365.618-28.083-.022c-4.142-.003-7.497-3.364-7.494-7.506s3.364-7.497 7.506-7.494l28.083.022c4.142.003 7.497 3.364 7.494 7.506s-3.364 7.497-7.506 7.494z" fill="url(#SVGID_16_)"/><path d="m493.792 421.941-47.541-.037c-4.142-.003-7.497-3.364-7.494-7.506s3.364-7.497 7.506-7.494l47.541.037c4.142.003 7.497 3.364 7.494 7.506s-3.364 7.498-7.506 7.494z" fill="url(#SVGID_17_)"/></g><g><path d="m501.561 76.504c-.003 4.15-3.366 7.497-7.506 7.494l-23.77-.019.012-15 23.77.019c4.14.003 7.497 3.365 7.494 7.506z" fill="url(#SVGID_18_)"/><path d="m501.517 132.834c-.003 4.14-3.366 7.497-7.506 7.494l-23.77-.019.012-15 23.77.019c4.14.003 7.497 3.355 7.494 7.506z" fill="url(#SVGID_19_)"/><path d="m501.473 189.153c-.003 4.14-3.366 7.497-7.506 7.494l-23.77-.019.012-15 23.77.019c4.14.004 7.497 3.367 7.494 7.506z" fill="url(#SVGID_20_)"/><path d="m501.429 245.473c-.003 4.15-3.366 7.497-7.506 7.494l-23.77-.019.012-15 23.77.019c4.14.004 7.497 3.366 7.494 7.506z" fill="url(#SVGID_21_)"/><path d="m501.385 301.803c-.003 4.14-3.366 7.497-7.506 7.494l-23.77-.019.012-15 23.77.019c4.14.004 7.497 3.356 7.494 7.506z" fill="url(#SVGID_22_)"/><path d="m501.341 358.123c-.003 4.14-3.366 7.497-7.506 7.494l-23.77-.019.012-15 23.77.019c4.14.004 7.498 3.366 7.494 7.506z" fill="url(#SVGID_23_)"/><path d="m501.297 414.443c-.003 4.15-3.366 7.497-7.506 7.494l-23.77-.019.012-15 23.77.019c4.14.004 7.498 3.366 7.494 7.506z" fill="url(#SVGID_24_)"/></g></g></svg>