<svg id="Capa_1" enable-background="new 0 0 510 510" height="512" viewBox="0 0 510 510" width="512" xmlns="http://www.w3.org/2000/svg" xmlns:xlink="http://www.w3.org/1999/xlink"><linearGradient id="lg1"><stop offset="0" stop-color="#fe646f"/><stop offset=".5725" stop-color="#fb2b3a"/><stop offset="1" stop-color="#c41926"/></linearGradient><linearGradient id="SVGID_1_" gradientUnits="userSpaceOnUse" x1="72.87" x2="508.001" xlink:href="#lg1" y1="269.995" y2="269.995"/><linearGradient id="SVGID_2_" gradientUnits="userSpaceOnUse" x1="3.351" x2="324.338" xlink:href="#lg1" y1="269.995" y2="269.995"/><linearGradient id="lg2"><stop offset="0" stop-color="#f9f3f1"/><stop offset=".5725" stop-color="#efe2dd"/><stop offset="1" stop-color="#cdbfba"/></linearGradient><linearGradient id="SVGID_3_" gradientUnits="userSpaceOnUse" x1="32.85" x2="443.909" xlink:href="#lg2" y1="240.005" y2="240.005"/><linearGradient id="lg3"><stop offset="0" stop-color="#537983"/><stop offset="1" stop-color="#3e5959"/></linearGradient><linearGradient id="SVGID_4_" gradientUnits="userSpaceOnUse" x1="108.613" x2="368.1" xlink:href="#lg3" y1="251.511" y2="251.511"/><linearGradient id="SVGID_5_" gradientUnits="userSpaceOnUse" x1="108.613" x2="368.1" xlink:href="#lg3" y1="327.693" y2="327.693"/><linearGradient id="SVGID_6_" gradientUnits="userSpaceOnUse" x1="108.613" x2="368.1" xlink:href="#lg3" y1="403.875" y2="403.875"/><linearGradient id="SVGID_7_" gradientUnits="userSpaceOnUse" x1="100.535" x2="347.331" xlink:href="#lg2" y1="240.005" y2="240.005"/><linearGradient id="SVGID_8_" gradientUnits="userSpaceOnUse" x1="266.838" x2="436.992" xlink:href="#lg2" y1="421.977" y2="421.977"/><linearGradient id="SVGID_9_" gradientUnits="userSpaceOnUse" x1="184.755" x2="285.225" xlink:href="#lg1" y1="120.5" y2="120.5"/><g><path d="m426.11 29.99h-302.2c-14.57 0-26.381 11.811-26.381 26.381v427.248c0 14.57 11.811 26.381 26.381 26.381h302.2c14.57 0 26.381-11.811 26.381-26.381v-427.248c0-14.57-11.811-26.381-26.381-26.381z" fill="url(#SVGID_1_)"/><path d="m426.11 29.99h-40.02c14.57 0 26.381 11.811 26.381 26.381v427.248c0 14.57-11.811 26.381-26.381 26.381h40.02c14.57 0 26.381-11.811 26.381-26.381v-427.248c0-14.57-11.811-26.381-26.381-26.381z" fill="url(#SVGID_2_)"/><path d="m296.406 480.01h-212.516c-14.57 0-26.381-11.811-26.381-26.381v-427.248c0-14.57 11.811-26.381 26.381-26.381h302.2c14.57 0 26.381 11.811 26.381 26.381v337.564z" fill="url(#SVGID_3_)"/><g><path d="m364.105 233.743h-258.23c-3.239 0-5.865 2.626-5.865 5.865v23.806c0 3.239 2.626 5.865 5.865 5.865h258.23c3.239 0 5.865-2.626 5.865-5.865v-23.806c0-3.239-2.626-5.865-5.865-5.865z" fill="url(#SVGID_4_)"/><path d="m364.105 309.925h-258.23c-3.239 0-5.865 2.626-5.865 5.865v23.806c0 3.239 2.626 5.865 5.865 5.865h258.23c3.239 0 5.865-2.626 5.865-5.865v-23.806c0-3.239-2.626-5.865-5.865-5.865z" fill="url(#SVGID_5_)"/><path d="m220.071 386.107h-114.196c-3.239 0-5.865 2.626-5.865 5.865v23.806c0 3.239 2.626 5.865 5.865 5.865h114.196c3.239 0 5.865-2.626 5.865-5.865v-23.806c0-3.239-2.626-5.865-5.865-5.865z" fill="url(#SVGID_6_)"/></g><path d="m386.09 0h-40.02c14.57 0 26.381 11.811 26.381 26.381v337.564h-77.816c-12.835 0-23.24 10.405-23.24 23.24v92.825h25.011l116.066-116.065v-337.564c-.001-14.57-11.812-26.381-26.382-26.381z" fill="url(#SVGID_7_)"/><path d="m296.406 480.01v-92.825c0-12.835 10.405-23.24 23.24-23.24h92.825c0 64.101-51.964 116.065-116.065 116.065z" fill="url(#SVGID_8_)"/><g><path d="m184.755 51.454c0-6.959 7.394-10.438 14.788-10.438h75.461c7.176 0 10.221 7.611 10.221 14.57 0 8.046-3.697 15.005-10.221 15.005h-56.324v36.752h32.837c6.524 0 10.221 6.307 10.221 13.266 0 5.872-3.044 12.831-10.221 12.831h-32.837v56.107c0 6.959-8.481 10.438-16.962 10.438s-16.963-3.479-16.963-10.438z" fill="url(#SVGID_9_)"/></g></g></svg>