<svg id="Capa_1" enable-background="new 0 0 510 510" height="512" viewBox="0 0 510 510" width="512" xmlns="http://www.w3.org/2000/svg" xmlns:xlink="http://www.w3.org/1999/xlink"><linearGradient id="lg1"><stop offset="0" stop-color="#537983"/><stop offset="1" stop-color="#3e5959"/></linearGradient><linearGradient id="SVGID_1_" gradientUnits="userSpaceOnUse" x1="-7" x2="416.506" xlink:href="#lg1" y1="148.088" y2="148.088"/><linearGradient id="SVGID_2_" gradientUnits="userSpaceOnUse" x1="-7" x2="416.506" xlink:href="#lg1" y1="213.386" y2="213.386"/><linearGradient id="SVGID_3_" gradientUnits="userSpaceOnUse" x1="-7" x2="416.506" xlink:href="#lg1" y1="278.683" y2="278.683"/><linearGradient id="lg2"><stop offset="0" stop-color="#537983"/><stop offset="1" stop-color="#384949"/></linearGradient><linearGradient id="SVGID_4_" gradientUnits="userSpaceOnUse" x1="18.667" x2="190.187" xlink:href="#lg2" y1="370.644" y2="370.644"/><linearGradient id="SVGID_5_" gradientUnits="userSpaceOnUse" x1="138.25" x2="237.389" xlink:href="#lg2" y1="175.05" y2="175.05"/><linearGradient id="SVGID_6_" gradientUnits="userSpaceOnUse" x1="138.25" x2="237.389" xlink:href="#lg2" y1="240.345" y2="240.345"/><linearGradient id="lg3"><stop offset="0" stop-color="#f9f3f1"/><stop offset=".5725" stop-color="#efe2dd"/><stop offset="1" stop-color="#cdbfba"/></linearGradient><linearGradient id="SVGID_7_" gradientUnits="userSpaceOnUse" x1="443.777" x2="519.985" xlink:href="#lg3" y1="269.338" y2="269.338"/><linearGradient id="lg4"><stop offset="0" stop-color="#ffe177"/><stop offset=".5725" stop-color="#feb137"/><stop offset="1" stop-color="#fe646f"/></linearGradient><linearGradient id="SVGID_8_" gradientUnits="userSpaceOnUse" x1="309.208" x2="525.492" xlink:href="#lg4" y1="425.454" y2="425.454"/><linearGradient id="SVGID_9_" gradientUnits="userSpaceOnUse" x1="145.243" x2="505.528" xlink:href="#lg4" y1="425.454" y2="425.454"/><linearGradient id="lg5"><stop offset="0" stop-color="#fdb4ba"/><stop offset=".5725" stop-color="#bd80e1"/><stop offset="1" stop-color="#9857bd"/></linearGradient><linearGradient id="SVGID_10_" gradientUnits="userSpaceOnUse" x1="294.149" x2="481.845" xlink:href="#lg5" y1="152.392" y2="152.392"/><linearGradient id="SVGID_11_" gradientUnits="userSpaceOnUse" x1="258.786" x2="447.088" xlink:href="#lg5" y1="152.392" y2="152.392"/><linearGradient id="SVGID_12_" gradientUnits="userSpaceOnUse" x1="286.827" x2="348.793" xlink:href="#lg5" y1="185.787" y2="185.787"/><linearGradient id="SVGID_13_" gradientUnits="userSpaceOnUse" x1="211.978" x2="405.693" xlink:href="#lg5" y1="92.673" y2="92.673"/><linearGradient id="SVGID_14_" gradientUnits="userSpaceOnUse" x1="208.786" x2="374.711" xlink:href="#lg5" y1="92.673" y2="92.673"/><linearGradient id="SVGID_15_" gradientUnits="userSpaceOnUse" x1="208.723" x2="295.712" xlink:href="#lg3" y1="158.648" y2="158.648"/><linearGradient id="SVGID_16_" gradientUnits="userSpaceOnUse" x1="55.118" x2="301.998" xlink:href="#lg5" y1="336.849" y2="336.849"/><linearGradient id="SVGID_17_" gradientUnits="userSpaceOnUse" x1="-9.25" x2="296.709" xlink:href="#lg5" y1="336.848" y2="336.848"/><g><g><path d="m401.634 256.469c-30.672 0-60.593-5.952-88.931-17.689-28.338-11.738-53.703-28.687-75.392-50.375l-62.956-62.955c-19.355-19.356-41.992-34.482-67.281-44.957s-51.991-15.786-79.363-15.786h-15.211c-6.903 0-12.5-5.596-12.5-12.5s5.597-12.5 12.5-12.5h15.211c30.672 0 60.593 5.952 88.931 17.689 28.337 11.738 53.703 28.687 75.392 50.375l62.956 62.955c19.355 19.355 41.992 34.481 67.281 44.956s51.991 15.787 79.364 15.787c6.903 0 12.5 5.596 12.5 12.5s-5.598 12.5-12.501 12.5z" fill="url(#SVGID_1_)"/><path d="m401.634 321.767c-30.672 0-60.593-5.952-88.931-17.689-28.338-11.738-53.704-28.687-75.392-50.375l-62.956-62.956c-19.355-19.355-41.992-34.481-67.281-44.956s-51.991-15.786-79.363-15.786h-15.211c-6.903 0-12.5-5.597-12.5-12.5s5.597-12.5 12.5-12.5h15.211c30.672 0 60.593 5.952 88.931 17.689 28.337 11.738 53.703 28.687 75.392 50.375l62.956 62.956c19.355 19.355 41.992 34.481 67.281 44.956s51.991 15.786 79.364 15.786c6.903 0 12.5 5.596 12.5 12.5s-5.598 12.5-12.501 12.5z" fill="url(#SVGID_2_)"/><path d="m401.634 387.064c-30.672 0-60.593-5.952-88.931-17.689-28.338-11.738-53.703-28.687-75.392-50.375l-62.956-62.956c-19.355-19.355-41.992-34.481-67.281-44.956s-51.991-15.786-79.363-15.786h-15.211c-6.903 0-12.5-5.596-12.5-12.5s5.597-12.5 12.5-12.5h15.211c30.672 0 60.593 5.952 88.931 17.689 28.337 11.738 53.703 28.687 75.392 50.375l62.956 62.956c19.355 19.355 41.992 34.481 67.281 44.956s51.991 15.786 79.364 15.786c6.903 0 12.5 5.597 12.5 12.5s-5.598 12.5-12.501 12.5z" fill="url(#SVGID_3_)"/><path d="m401.634 362.064c-19.249 0-38.164-2.638-56.492-7.84-10.153 4.782-19.372 10.586-27.488 17.131 26.863 10.424 55.088 15.709 83.98 15.709 6.903 0 12.5-5.597 12.5-12.5s-5.597-12.5-12.5-12.5z" fill="url(#SVGID_4_)"/><path d="m255 170.74v33.63c-6.14-5-12.04-10.32-17.69-15.97l-7.32-7.32v-35.35z" fill="url(#SVGID_5_)"/><path d="m255 236.03v33.64c-6.14-5-12.04-10.32-17.69-15.97l-7.32-7.32v-35.36z" fill="url(#SVGID_6_)"/></g><g><g><path d="m496.636 130.352c-7.381 0-13.364 5.983-13.364 13.364v264.608h26.728v-264.608c0-7.381-5.983-13.364-13.364-13.364z" fill="url(#SVGID_7_)"/><path d="m505.428 385.121c16.742 41.027-13.936 92.345-68.523 114.62s-112.41 7.074-129.152-33.953 13.936-92.345 68.523-114.62 112.41-7.075 129.152 33.953z" fill="url(#SVGID_8_)"/><path d="m505.428 385.121c-13.644-33.435-54.572-49.715-98.796-42.54 27.258 4.773 49.426 19.626 58.776 42.54 16.742 41.027-13.936 92.345-68.523 114.62-10.102 4.122-20.314 6.958-30.356 8.587 21.548 3.773 46.276 1.248 70.376-8.587 54.587-22.276 85.265-73.593 68.523-114.62z" fill="url(#SVGID_9_)"/></g><g><path d="m447.012 180.664-74.121 36.549c-11.199 5.522-24.304-2.628-24.304-15.114v-99.415c0-12.486 13.105-20.636 24.304-15.114l74.121 36.549c10.765 5.308 17.582 16.27 17.582 28.273 0 12.003-6.817 22.964-17.582 28.272z" fill="url(#SVGID_10_)"/><path d="m447.012 124.119-74.121-36.549c-9.032-4.454-19.3-.011-22.937 8.424l57.037 28.125c10.765 5.308 17.582 16.27 17.582 28.273s-6.817 22.964-17.582 28.273l-57.037 28.125c3.637 8.435 13.904 12.878 22.937 8.424l74.121-36.549c10.765-5.308 17.582-16.27 17.582-28.273s-6.817-22.965-17.582-28.273z" fill="url(#SVGID_11_)"/><path d="m348.582 169.477h22.772c-2.831 7.164-6.834 13.876-11.911 19.843l-10.861 12.777z" fill="url(#SVGID_12_)"/><path d="m376.321 48.16v95.262c0 8.994-1.709 17.83-4.967 26.055h-91.515v-153.608h64.191c17.829 0 32.291 14.449 32.291 32.291z" fill="url(#SVGID_13_)"/><path d="m344.03 15.869h-40.02c17.83 0 32.291 14.449 32.291 32.291v95.262c0 8.994-1.709 17.83-4.967 26.055h40.02c3.258-8.225 4.967-17.061 4.967-26.055v-95.262c0-17.842-14.462-32.291-32.291-32.291z" fill="url(#SVGID_14_)"/><path d="m269.06 0c-8.425 0-15.255 6.83-15.255 15.255v302.041h30.509v-302.041c0-8.425-6.829-15.255-15.254-15.255z" fill="url(#SVGID_15_)"/><path d="m279.096 290.809c19.111 46.831-15.908 105.408-78.216 130.835s-128.312 8.075-147.423-38.757 15.908-105.408 78.216-130.835 128.312-8.074 147.423 38.757z" fill="url(#SVGID_16_)"/><path d="m279.096 290.809c-15.272-37.425-60.492-56.02-109.84-49.005 32.36 4.915 58.836 22.089 69.82 49.005 19.111 46.831-15.908 105.408-78.216 130.835-12.515 5.107-25.179 8.485-37.583 10.248 23.943 3.637 51.106.565 77.603-10.248 62.308-25.426 97.327-84.003 78.216-130.835z" fill="url(#SVGID_17_)"/></g></g></g></svg>